<?xml version="1.0" encoding="utf-8"?>
<!-- Generator: Adobe Illustrator 15.1.0, SVG Export Plug-In . SVG Version: 6.00 Build 0)  -->
<!DOCTYPE svg PUBLIC "-//W3C//DTD SVG 1.1//EN" "http://www.w3.org/Graphics/SVG/1.1/DTD/svg11.dtd">
<svg version="1.1" xmlns="http://www.w3.org/2000/svg" xmlns:xlink="http://www.w3.org/1999/xlink" x="0px" y="0px" width="400px"
	 height="400px" viewBox="0 0 400 400" enable-background="new 0 0 400 400" xml:space="preserve">
<g id="body_layer">
	<path fill="#72C596" d="M198.112,121.898c7.412-13.818-2.104-21.204-2.104-21.204c4.485-0.664,12.167,13.411,12.171,13.054
		c0.11-10.111,9.061-13.722,14.276-13.63c-11.439,6.681-8.328,12.72-4.118,14.642c7.943,3.626,10.89-5.124,6.132-9.883
		c6.314,6.223,3.645,5.175,3.752,15.74C228.549,152.864,198.112,121.898,198.112,121.898z"/>
	<path fill="#72C596" d="M78.343,95.323c42.974-8.351,95.041,26.071,97.665,57.871s-12.5,9.5-12.5,9.5s-5.5-68-83.5-64
		L78.343,95.323z"/>
	<path fill="#72C596" d="M90.491,98.658c-1.74,5.213-5.992,8.929-10.309,9.227c-4.181,0.288-8.805-2.5-7.064-7.713
		c1.74-5.212,9.011-6.488,15.139-5.768C92.554,94.909,92.231,93.446,90.491,98.658z"/>
	<path fill="#72C596" d="M343.045,101.655c-42.974-8.351-95.041,26.071-97.665,57.871s12.5,9.5,12.5,9.5s5.5-68,83.5-64
		L343.045,101.655z"/>
	<path fill="#72C596" d="M330.896,104.99c1.74,5.213,5.992,8.929,10.309,9.227c4.181,0.288,8.805-2.5,7.064-7.713
		c-1.74-5.212-9.011-6.488-15.139-5.768C328.834,101.241,329.156,99.778,330.896,104.99z"/>
	<path fill="#8BCEAB" d="M309.331,211.943c27.309,45.903,90.2,179.828-107.015,172.442
		C5.412,377.012,62.991,259.838,101.191,210.192c77.801-101.111,99.4-94.975,112.483-94.736S249.123,110.738,309.331,211.943z"/>
	<path fill="#72C596" d="M330.168,302.034c0,19.33-16.977,34.998-37.917,34.998c-20.939,0-37.916-15.668-37.916-34.998
		c0-19.334,16.977-35.002,37.916-35.002C313.191,267.032,330.168,282.7,330.168,302.034z"/>
	<path fill="#72C596" d="M152.168,298.034c0,19.33-16.977,34.998-37.917,34.998c-20.939,0-37.916-15.668-37.916-34.998
		c0-19.334,16.977-35.002,37.916-35.002C135.191,263.032,152.168,278.7,152.168,298.034z"/>
</g>
<g id="face_layer" display="none">
	<path display="inline" fill="#FDFDFE" d="M236.175,189.361c0,13.531-10.969,24.5-24.5,24.5s-24.5-10.969-24.5-24.5
		S236.175,175.83,236.175,189.361z"/>
	<path display="inline" d="M228.63,181.772c0,8.284-8.171,18.089-16.455,18.089s-15.796-10.278-15.796-18.562
		c0,0,5.206-2.299,16.092-2.096S228.63,181.772,228.63,181.772z"/>
	<circle display="inline" fill="#FFFFFF" cx="223.973" cy="194.29" r="3.306"/>
	<path display="inline" fill="#FDFDFE" d="M192.508,213.528c0,13.531-10.969,24.5-24.5,24.5s-24.5-10.969-24.5-24.5
		s10.969-24.5,24.5-24.5L192.508,213.528z"/>
	<path display="inline" d="M187.532,208.746c0,8.284-6.716,15-15,15s-15-6.716-15-15s6.716-15,15-15L187.532,208.746z"/>
	<circle display="inline" fill="#FFFFFF" cx="183.261" cy="218.945" r="3.306"/>
	<path display="inline" d="M165.41,247.84c14.174-8.723,4.333,21.334,44.333,15.334s25.667-13.334,41.667-17.334
		s22.797,50.809,16,74c-5.667,19.334-26.189-4.748-27-5.334c-12-8.666-50-8.666-68,6.334s-22,10-23,0S152.41,255.84,165.41,247.84z"
		/>
	<path display="inline" fill="#FDFDFE" d="M177.744,253.84c0,0,1.512,34.414,2.863,32.252c1.588-2.541,12.803-13.127,12.803-13.127
		c5.94,3.279,9.289,16.031,9.68,16.08c0.883,0.107,8.861-15.977,13.32-18.539c0.784-0.449,18.56,12.492,20.062,13.834
		c1.706,1.521,0.904-23.66,1.042-28.893C226.563,258.289,191.523,273.898,177.744,253.84z"/>
	<path display="inline" fill="#FDFDFE" d="M172.535,320.699c0,0,3.743-20.414,3.973-23.883c0.16-2.416,12.961,13.434,14.008,10.816
		c1.883-4.707,5.061-8.943,5.061-8.943c1.588,2.043,9.415,7.414,9.415,7.414c5.94-2.633,11.378-8.67,11.769-8.709
		c0.883-0.086,6.25,7.594,10.709,9.65c0.784,0.361,14.028-8.621,15.064-10.004c1.059-1.412-0.021,15.336,0.117,19.537
		C224.88,303.045,189.201,308.449,172.535,320.699z"/>
	<path display="inline" fill="#FDFDFE" d="M229.841,214.528c0,13.531,10.969,24.5,24.5,24.5s24.5-10.969,24.5-24.5
		s-10.969-24.5-24.5-24.5L229.841,214.528z"/>
	<path display="inline" d="M234.816,209.746c0,8.284,6.716,15,15,15s15-6.716,15-15s-6.716-15-15-15L234.816,209.746z"/>
	<circle display="inline" fill="#FFFFFF" cx="261.347" cy="218.102" r="3.306"/>
</g>
</svg>
