<?xml version="1.0" encoding="utf-8"?>
<!-- Generator: Adobe Illustrator 15.1.0, SVG Export Plug-In . SVG Version: 6.00 Build 0)  -->
<!DOCTYPE svg PUBLIC "-//W3C//DTD SVG 1.1//EN" "http://www.w3.org/Graphics/SVG/1.1/DTD/svg11.dtd">
<svg version="1.1" xmlns="http://www.w3.org/2000/svg" xmlns:xlink="http://www.w3.org/1999/xlink" x="0px" y="0px" width="400px"
	 height="400px" viewBox="0 0 400 400" enable-background="new 0 0 400 400" xml:space="preserve">
<g id="body_layer">
	<path fill="#D65490" d="M192.733,108.565c7.412-13.818-2.104-21.204-2.104-21.204c4.485-0.664,12.167,13.411,12.171,13.054
		c0.11-10.111,9.061-13.722,14.276-13.63c-11.439,6.681-8.328,12.72-4.118,14.642c7.943,3.626,10.89-5.124,6.132-9.883
		c6.314,6.223,3.645,5.175,3.752,15.74C223.17,139.531,192.733,108.565,192.733,108.565z"/>
	<path fill="#D65490" d="M72.964,81.99c42.974-8.351,95.041,26.071,97.665,57.871s-12.5,9.5-12.5,9.5s-5.5-68-83.5-64L72.964,81.99z
		"/>
	<path fill="#D65490" d="M85.112,85.325c-1.74,5.213-5.992,8.929-10.309,9.227c-4.181,0.288-8.805-2.5-7.064-7.713
		c1.74-5.212,9.011-6.488,15.139-5.768C87.175,81.576,86.853,80.113,85.112,85.325z"/>
	<path fill="#D65490" d="M337.666,88.322c-42.974-8.351-95.041,26.071-97.665,57.871s12.5,9.5,12.5,9.5s5.5-68,83.5-64
		L337.666,88.322z"/>
	<path fill="#D65490" d="M325.518,91.657c1.74,5.213,5.992,8.929,10.309,9.227c4.181,0.288,8.805-2.5,7.064-7.713
		c-1.74-5.212-9.011-6.488-15.139-5.768C323.455,87.908,323.777,86.445,325.518,91.657z"/>
	<path fill="#E06899" d="M303.952,198.61c27.309,45.903,90.2,179.828-107.015,172.442C0.033,363.679,57.612,246.505,95.812,196.859
		c77.801-101.111,99.4-94.975,112.483-94.736S243.744,97.405,303.952,198.61z"/>
	<path fill="#D65490" d="M324.789,288.701c0,19.33-16.977,34.998-37.917,34.998c-20.939,0-37.916-15.668-37.916-34.998
		c0-19.334,16.977-35.002,37.916-35.002C307.812,253.699,324.789,269.367,324.789,288.701z"/>
	<path fill="#D65490" d="M146.789,284.701c0,19.33-16.977,34.998-37.917,34.998c-20.939,0-37.916-15.668-37.916-34.998
		c0-19.334,16.977-35.002,37.916-35.002C129.812,249.699,146.789,265.367,146.789,284.701z"/>
</g>
<g id="face_layer" display="none">
	<g display="inline">
		<path d="M235.687,276.575l-71.798-2.698c0,0,12.762-3.942,38.103-3.037C227.334,271.745,235.687,276.575,235.687,276.575z"/>
		<path fill="#FDFDFE" d="M179.175,271.365c0,0,2.814,19.619,4.055,20.906l9.18-21.578
			C192.409,270.693,184.409,270.771,179.175,271.365z"/>
		<path fill="#FDFDFE" d="M218.8,272.24c0,0-3.533,19.245-4.818,20.489l-8.43-21.881C205.552,270.849,213.59,271.467,218.8,272.24z"
			/>
	</g>
	<path display="inline" fill="#FDFDFE" d="M227.129,199.027c0,13.531-10.969,24.5-24.5,24.5s-24.5-10.969-24.5-24.5
		S227.129,185.496,227.129,199.027z"/>
	<path display="inline" d="M219.584,191.438c0,8.284-8.171,18.089-16.455,18.089s-15.796-10.278-15.796-18.562
		c0,0,5.206-2.299,16.092-2.096S219.584,191.438,219.584,191.438z"/>
	<circle display="inline" fill="#FFFFFF" cx="196.63" cy="206.714" r="3.306"/>
	<g display="inline">
		<path fill="#FDFDFE" d="M157.043,198.889c13.424,1.702,22.926,13.963,21.225,27.387c-1.702,13.424-13.962,22.926-27.386,21.225
			s-22.927-13.963-21.226-27.387L157.043,198.889z"/>
		<path d="M151.673,203.224c8.219,1.041,14.036,8.549,12.994,16.768c-1.041,8.218-8.549,14.036-16.767,12.994
			c-8.218-1.041-14.036-8.549-12.995-16.768L151.673,203.224z"/>
		<circle fill="#FFFFFF" cx="142.962" cy="230.075" r="3.306"/>
	</g>
	<g display="inline">
		<path fill="#FDFDFE" d="M246.169,201.044c-13.338,2.278-22.303,14.938-20.024,28.275s14.938,22.304,28.275,20.025
			c13.339-2.278,22.304-14.938,20.025-28.275L246.169,201.044z"/>
		<path d="M251.722,205.144c-8.166,1.395-13.655,9.146-12.261,17.312c1.396,8.166,9.146,13.655,17.312,12.26
			c8.166-1.395,13.655-9.146,12.26-17.312L251.722,205.144z"/>
		<circle fill="#FFFFFF" cx="247.952" cy="232.702" r="3.306"/>
	</g>
</g>
</svg>
