<?xml version="1.0" encoding="utf-8"?>
<!-- Generator: Adobe Illustrator 15.1.0, SVG Export Plug-In . SVG Version: 6.00 Build 0)  -->
<!DOCTYPE svg PUBLIC "-//W3C//DTD SVG 1.1//EN" "http://www.w3.org/Graphics/SVG/1.1/DTD/svg11.dtd">
<svg version="1.1" xmlns="http://www.w3.org/2000/svg" xmlns:xlink="http://www.w3.org/1999/xlink" x="0px" y="0px" width="400px"
	 height="400px" viewBox="0 0 400 400" enable-background="new 0 0 400 400" xml:space="preserve">
<g id="guide_lines_layer" display="none">
</g>
<g id="body_layer">
	<path fill="#52BFD1" d="M187.166,104.944c7.412-13.818-2.104-21.204-2.104-21.204c4.485-0.664,12.167,13.411,12.171,13.054
		c0.11-10.111,9.061-13.722,14.276-13.63c-11.439,6.681-8.328,12.72-4.118,14.642c7.943,3.626,10.89-5.124,6.132-9.883
		c6.314,6.223,3.645,5.175,3.752,15.74C217.603,135.91,187.166,104.944,187.166,104.944z"/>
	<path fill="#52BFD1" d="M67.396,78.369c42.974-8.351,95.041,26.071,97.665,57.871s-12.5,9.5-12.5,9.5s-5.5-68-83.5-64
		L67.396,78.369z"/>
	<path fill="#52BFD1" d="M79.545,81.704c-1.74,5.213-5.992,8.929-10.309,9.227c-4.181,0.288-8.805-2.5-7.064-7.713
		c1.74-5.212,9.011-6.488,15.139-5.768C81.607,77.955,81.285,76.492,79.545,81.704z"/>
	<path fill="#52BFD1" d="M332.099,84.701c-42.974-8.351-95.041,26.071-97.665,57.871s12.5,9.5,12.5,9.5s5.5-68,83.5-64
		L332.099,84.701z"/>
	<path fill="#52BFD1" d="M319.95,88.036c1.74,5.213,5.992,8.929,10.309,9.227c4.181,0.288,8.805-2.5,7.064-7.713
		c-1.74-5.212-9.011-6.488-15.139-5.768C317.888,84.287,318.21,82.824,319.95,88.036z"/>
	<path fill="#7DC6DD" d="M298.385,194.989c27.309,45.903,90.2,179.828-107.015,172.442
		C-5.534,360.058,52.045,242.884,90.245,193.238c77.801-101.111,99.4-94.975,112.483-94.736S238.177,93.784,298.385,194.989z"/>
	<path fill="#52BFD1" d="M319.222,285.08c0,19.33-16.977,34.998-37.917,34.998c-20.939,0-37.916-15.668-37.916-34.998
		c0-19.334,16.977-35.002,37.916-35.002C302.245,250.078,319.222,265.746,319.222,285.08z"/>
	<path fill="#52BFD1" d="M141.222,281.08c0,19.33-16.977,34.998-37.917,34.998c-20.939,0-37.916-15.668-37.916-34.998
		c0-19.334,16.977-35.002,37.916-35.002C124.245,246.078,141.222,261.746,141.222,281.08z"/>
</g>
<g id="face_layer" display="none">
	<g display="inline">
		<circle fill="#FDFDFE" cx="199.062" cy="189.074" r="24.5"/>
		<circle cx="199.562" cy="189.574" r="15"/>
		<circle fill="#FFFFFF" cx="209.026" cy="180.67" r="3.306"/>
	</g>
	<g display="inline">
		<circle fill="#FDFDFE" cx="249.562" cy="206.574" r="24.5"/>
		<circle cx="250.062" cy="206.074" r="15"/>
		<circle fill="#FFFFFF" cx="259.526" cy="197.17" r="3.306"/>
	</g>
	<g display="inline">
		<circle fill="#FDFDFE" cx="147.062" cy="203.574" r="24.5"/>
		<circle cx="147.562" cy="204.074" r="15"/>
		<circle fill="#FFFFFF" cx="157.026" cy="195.17" r="3.306"/>
	</g>
	<path display="inline" d="M159.37,251.045l71.849,1.467c0,0-12.613,48.428-37.971,48.428
		C167.89,300.939,159.37,251.045,159.37,251.045z"/>
	<path display="inline" fill="#FDFDFE" d="M174.481,251.416c0,0,2.937,19.846,4.177,21.133l9.35-20.863l16.197,0.334
		c0.549-0.182,6.787,18.557,6.787,18.557c0.454,0.074,5.187-16.428,5.282-18.518C215.445,252.266,174.481,251.416,174.481,251.416z"
		/>
</g>
</svg>
