<?xml version="1.0" encoding="utf-8"?>
<!-- Generator: Adobe Illustrator 15.1.0, SVG Export Plug-In . SVG Version: 6.00 Build 0)  -->
<!DOCTYPE svg PUBLIC "-//W3C//DTD SVG 1.1//EN" "http://www.w3.org/Graphics/SVG/1.1/DTD/svg11.dtd">
<svg version="1.1" xmlns="http://www.w3.org/2000/svg" xmlns:xlink="http://www.w3.org/1999/xlink" x="0px" y="0px" width="400px"
	 height="400px" viewBox="0 0 400 400" enable-background="new 0 0 400 400" xml:space="preserve">
<g id="guide_lines_layer" display="none">
	<rect x="0.605" y="0.031" display="inline" fill="#FFFFFF" stroke="#000000" stroke-miterlimit="10" width="75" height="400"/>
	
		<rect x="325.605" y="0.031" display="inline" fill="#FFFFFF" stroke="#000000" stroke-miterlimit="10" width="75" height="399.999"/>
</g>
<g id="body_layer">
	<path fill="#DBCD7D" d="M122.335,137.667c0,0-63.33-68.667-118.667-8.667c62.715-18,76.856-2,88.539,29.334
		C103.509,188.645,122.335,137.667,122.335,137.667z"/>
	<path fill="#DBCD7D" d="M267,139.667c0,0,63.33-68.667,118.667-8.667c-62.715-18-76.856-2-88.539,29.333
		C285.826,190.644,267,139.667,267,139.667z"/>
	<path fill="#7DC6DD" d="M75.548,397.625c-14.841-6.579-23.789-26.916-27.844-53.051c-1.788-11.528,1.847-27.787-13.702,0.717
		c0-18,17.333-89.334,4.667-56.667c-4.14,10.678,21.333-72.667,1.333-39.333C46.913,219.914,71.3,180.606,85,169.29
		c15.334-12.667-5.881-12.347-0.666-12.667c32.666-2,6.103-10.462,10.666-12.667c10.205-4.931,18.469,3.03,21.334-0.667
		c5.342-6.894-3.038-7.777-0.667-8.667c10.667-4,12.333,1.333,17.333,3.333c0,0,78.829,6.85,115.667,1.333
		c13.587-2.034,27.333-13.333,23.333-3.333c-2.984,7.46,14.86-1.998,14,4.667c-2.667,20.667,14.95,5.36,16.667,6.667
		c3.355,2.554-12.492,2.034,4,21.333c10.685,12.504,26.993,31.484,35.056,57.408c-7.459-5.424,5.215,15.9,9.275,33.497
		c-12.368-7.215,1.546,9.275,9.791,26.797c-36.072-20.613,5.669,18.036,1.547,51.018c-30.92-43.287,2.061,46.38-37.369,60.06
		L75.548,397.625z"/>
	<path fill="#52BFD1" d="M318.213,255.004c0,19.33-16.977,34.998-37.917,34.998c-20.939,0-37.916-15.668-37.916-34.998
		c0-19.334,16.977-35.002,37.916-35.002C301.236,220.002,318.213,235.67,318.213,255.004z"/>
	<path fill="#52BFD1" d="M162.213,258.004c0,19.33-16.977,34.998-37.917,34.998c-20.939,0-37.916-15.668-37.916-34.998
		c0-19.334,16.977-35.002,37.916-35.002C145.236,223.002,162.213,238.67,162.213,258.004z"/>
	<g>
		<g>
			<path fill="none" stroke="#F2E4D2" stroke-miterlimit="10" d="M286.38,120.5"/>
		</g>
	</g>
	<g>
		<g>
			<path fill="none" stroke="#F2E4D2" stroke-miterlimit="10" d="M198.38,119.5"/>
		</g>
	</g>
</g>
<g id="face_layer" display="none">
	<g display="inline">
		<path fill="#FFFFFF" d="M265.553,219.847c-3.763,15.824-19.638,25.602-35.463,21.84c-15.823-3.762-25.602-19.639-21.839-35.462
			c2.569-10.813,10.796-18.802,20.798-21.578l37.294,29.287C266.281,215.89,266.022,217.868,265.553,219.847z"/>
		<path d="M254.832,207.297c-1.421,5.973-7.413,9.664-13.387,8.244c-5.973-1.42-9.665-7.414-8.245-13.386
			c0.972-4.083,4.076-7.098,7.852-8.146l14.079,11.055C255.106,205.805,255.009,206.55,254.832,207.297z"/>
	</g>
	<g display="inline">
		<path fill="#FFFFFF" d="M204.2,210.518c-0.322,23.348-19.512,42.014-42.859,41.69c-23.349-0.322-42.015-19.512-41.692-42.859
			l68.892-32.268C198.25,184.957,204.386,197.045,204.2,210.518z"/>
		<path d="M153.112,195.498c-0.086,6.138,4.593,11.18,10.447,11.26c5.855,0.082,10.67-4.829,10.756-10.966
			c0.057-4.195-2.109-7.878-5.354-9.816l-15.604,7.286C153.207,193.982,153.122,194.73,153.112,195.498z"/>
	</g>
	<path display="inline" d="M263.12,322.152l-124.901-0.405c0,0,21.575-45.473,65.651-45.813
		C247.949,275.593,263.12,322.152,263.12,322.152z"/>
	<path display="inline" fill="#FDFDFE" d="M167.681,321.793c0,0,6.84-41.324,7.069-44.793c0.16-2.416,11.75,44.75,11.75,44.75
		l37.25,0.25c0.863,0.032,14.464-43.367,15.5-44.75c1.059-1.412,0.743,40.355,0.881,44.557
		C212.532,321.635,188.079,322.209,167.681,321.793z"/>
</g>
</svg>
