<?xml version="1.0" encoding="utf-8"?>
<!-- Generator: Adobe Illustrator 15.1.0, SVG Export Plug-In . SVG Version: 6.00 Build 0)  -->
<!DOCTYPE svg PUBLIC "-//W3C//DTD SVG 1.1//EN" "http://www.w3.org/Graphics/SVG/1.1/DTD/svg11.dtd">
<svg version="1.1" xmlns="http://www.w3.org/2000/svg" xmlns:xlink="http://www.w3.org/1999/xlink" x="0px" y="0px" width="400px"
	 height="400px" viewBox="0 0 400 400" enable-background="new 0 0 400 400" xml:space="preserve">
<g id="guide_lines_layer" display="none">
</g>
<g id="body_layer">
	<polygon fill="#E06899" points="203.64,65.506 281.658,75.008 258.824,77.768 313.11,102.847 288.008,105.282 334.866,148.302 
		319.805,146.679 339.887,205.121 324.825,194.568 331.52,252.199 315.481,227.442 313.947,286.289 296.516,255.58 292.611,305.365 
		282.012,280.473 280.339,323.764 263.603,302.658 270.995,333.368 245.892,307.395 240.313,344.191 225.112,311.317 
		218.558,347.979 203.356,316.188 188.435,350.144 182.854,316.322 173.93,344.732 159.984,319.299 147.015,344.867 
		141.994,310.776 129.722,327.552 115.218,292.378 108.524,316.188 99.772,270.711 85.095,295.083 85.651,244.217 70.45,252.199 
		80.492,198.627 58.736,205.932 92.207,145.056 63.757,144.243 111.452,106.905 89.696,102.035 148.451,77.768 131.88,71.761 	"/>
	<path fill="#D65490" d="M313.944,200.023c0,19.33-16.977,34.998-37.917,34.998c-20.939,0-37.916-15.668-37.916-34.998
		c0-19.336,16.977-35.004,37.916-35.004C296.968,165.02,313.944,180.688,313.944,200.023z"/>
	<path fill="#D65490" d="M164.944,201.023c0,19.33-16.977,34.998-37.917,34.998c-20.939,0-37.916-15.668-37.916-34.998
		c0-19.336,16.977-35.004,37.916-35.004C147.968,166.02,164.944,181.688,164.944,201.023z"/>
</g>
<g id="face_layer" display="none">
	<g display="inline">
		<path d="M235.533,224.062l-71.842,1.019c0,0,12.541-4.598,37.895-5.004C226.942,219.67,235.533,224.062,235.533,224.062z"/>
		<path fill="#FDFDFE" d="M178.827,221.781c0,0,3.825,19.447,5.131,20.668l8.052-22.023
			C192.01,220.426,184.024,220.917,178.827,221.781z"/>
		<path fill="#FDFDFE" d="M218.444,220.605c0,0-2.533,19.402-3.752,20.711l-9.55-21.415
			C205.143,219.901,213.202,220.103,218.444,220.605z"/>
	</g>
	<g display="inline">
		<path fill="#FFFFFF" d="M244.74,165.851c5.782,23.603-19.7,44-44.001,44c-24.3,0-49.685-20.374-44-44
			c1.871-7.776,26.667-32.335,44.667-32.335C216.107,133.516,241.61,153.074,244.74,165.851z"/>
		<circle cx="201.406" cy="168.518" r="22"/>
		<circle fill="#FDFDFE" cx="220.573" cy="158.683" r="3.167"/>
	</g>
</g>
</svg>
