<?xml version="1.0" encoding="utf-8"?>
<!-- Generator: Adobe Illustrator 15.1.0, SVG Export Plug-In . SVG Version: 6.00 Build 0)  -->
<!DOCTYPE svg PUBLIC "-//W3C//DTD SVG 1.1//EN" "http://www.w3.org/Graphics/SVG/1.1/DTD/svg11.dtd">
<svg version="1.1" xmlns="http://www.w3.org/2000/svg" xmlns:xlink="http://www.w3.org/1999/xlink" x="0px" y="0px" width="400px"
	 height="400px" viewBox="0 0 400 400" enable-background="new 0 0 400 400" xml:space="preserve">
<g id="guide_lines_layer" display="none">
</g>
<g id="body_layer">
	<polygon fill="#8BCEAB" points="196.887,72.506 274.905,82.008 252.071,84.768 306.357,109.847 281.255,112.282 328.113,155.302 
		313.052,153.679 333.134,212.121 318.072,201.568 324.767,259.199 308.729,234.442 307.194,293.289 289.763,262.58 
		285.858,312.365 275.259,287.473 273.586,330.764 256.85,309.658 264.242,340.368 239.139,314.395 233.561,351.191 
		218.359,318.317 211.805,354.979 196.604,323.188 181.682,357.144 176.102,323.322 167.177,351.732 153.231,326.299 
		140.262,351.867 135.241,317.776 122.969,334.552 108.465,299.378 101.771,323.188 93.02,277.711 78.342,302.083 78.898,251.217 
		63.697,259.199 73.739,205.627 51.983,212.932 85.454,152.056 57.004,151.243 104.699,113.905 82.943,109.035 141.698,84.768 
		125.127,78.761 	"/>
	<path fill="#72C596" d="M309.871,202.201c0,19.33-16.977,34.998-37.917,34.998c-20.939,0-37.916-15.668-37.916-34.998
		c0-19.336,16.977-35.004,37.916-35.004C292.895,167.197,309.871,182.865,309.871,202.201z"/>
	<path fill="#72C596" d="M158.871,202.201c0,19.33-16.977,34.998-37.917,34.998c-20.939,0-37.916-15.668-37.916-34.998
		c0-19.336,16.977-35.004,37.916-35.004C141.895,167.197,158.871,182.865,158.871,202.201z"/>
</g>
<g id="face_layer" display="none">
	<g display="inline">
		<path fill="#FFFFFF" d="M242.786,168.851c0,24.301-19.7,44-44.001,44c-24.3,0-44-19.699-44-44s26.667-32.335,44.667-32.335
			C214.153,136.516,242.786,144.55,242.786,168.851z"/>
		<circle cx="199.452" cy="171.518" r="22"/>
		<circle fill="#FDFDFE" cx="218.619" cy="161.683" r="3.167"/>
	</g>
	<path display="inline" d="M161.965,220.045l71.849,1.467c0,0-12.613,48.428-37.971,48.428
		C170.484,269.939,161.965,220.045,161.965,220.045z"/>
	<path display="inline" fill="#FDFDFE" d="M177.076,220.416c0,0,2.937,19.846,4.177,21.133l9.35-20.863l16.197,0.334
		c0.549-0.182,6.787,18.557,6.787,18.557c0.454,0.074,5.187-16.428,5.282-18.518C218.04,221.266,177.076,220.416,177.076,220.416z"
		/>
</g>
</svg>
