<?xml version="1.0" encoding="utf-8"?>
<!-- Generator: Adobe Illustrator 15.1.0, SVG Export Plug-In . SVG Version: 6.00 Build 0)  -->
<!DOCTYPE svg PUBLIC "-//W3C//DTD SVG 1.1//EN" "http://www.w3.org/Graphics/SVG/1.1/DTD/svg11.dtd">
<svg version="1.1" xmlns="http://www.w3.org/2000/svg" xmlns:xlink="http://www.w3.org/1999/xlink" x="0px" y="0px" width="400px"
	 height="400px" viewBox="0 0 400 400" enable-background="new 0 0 400 400" xml:space="preserve">
<g id="guide_lines_layer" display="none">
</g>
<g id="body_layer">
	<polygon fill="#7DC6DD" points="208.934,69.507 286.952,79.009 264.118,81.769 318.404,106.848 293.302,109.283 340.16,152.303 
		325.099,150.68 345.181,209.122 330.119,198.569 336.813,256.2 320.775,231.443 319.241,290.29 301.81,259.581 297.905,309.366 
		287.306,284.474 285.633,327.765 268.896,306.659 276.289,337.369 251.186,311.396 245.607,348.192 230.406,315.318 
		223.852,351.979 208.65,320.188 193.729,354.145 188.149,320.323 179.224,348.733 165.278,323.3 152.309,348.868 147.288,314.777 
		135.016,331.553 120.511,296.379 113.818,320.189 105.067,274.712 90.388,299.084 90.945,248.218 75.745,256.2 85.786,202.628 
		64.03,209.933 97.501,149.057 69.051,148.244 116.746,110.906 94.99,106.036 153.745,81.769 137.173,75.762 	"/>
	<path fill="#52BFD1" d="M315.363,198.081c0,19.33-16.977,34.998-37.917,34.998c-20.939,0-37.916-15.668-37.916-34.998
		c0-19.334,16.977-35.002,37.916-35.002C298.387,163.079,315.363,178.747,315.363,198.081z"/>
	<path fill="#52BFD1" d="M169.363,199.081c0,19.33-16.977,34.998-37.917,34.998c-20.939,0-37.916-15.668-37.916-34.998
		c0-19.334,16.977-35.002,37.916-35.002C152.387,164.079,169.363,179.747,169.363,199.081z"/>
</g>
<g id="face_layer" display="none">
	<path display="inline" fill="#FFFFFF" d="M248.703,135.075c0,24.301-20.533,60-44.833,60s-43.667-34.199-43.667-58.5
		c0,0,29.12,15.196,43.696,14.092C219.23,149.505,248.703,135.075,248.703,135.075z"/>
	<path display="inline" d="M225.985,144.925c0,12.15-9.299,26.817-21.449,26.817s-21.95-13.231-21.95-25.382
		c0,0,16.956,4.423,21.312,4.307S225.985,144.925,225.985,144.925z"/>
	<g display="inline">
		<path d="M161.716,195.083c14.174-8.723,4.333,21.334,44.333,15.334s25.667-13.334,41.667-17.334s22.797,50.809,16,74
			c-5.667,19.334-26.189-4.748-27-5.334c-12-8.666-50-8.666-68,6.334s-22,10-23,0S148.716,203.083,161.716,195.083z"/>
		<path fill="#FDFDFE" d="M174.05,201.083c0,0,1.512,34.414,2.863,32.252c1.588-2.541,12.803-13.127,12.803-13.127
			c5.94,3.279,9.289,16.031,9.68,16.08c0.883,0.107,8.861-15.977,13.32-18.539c0.784-0.449,18.56,12.492,20.062,13.834
			c1.706,1.521,0.904-23.66,1.042-28.893C222.869,205.532,187.829,221.142,174.05,201.083z"/>
		<path fill="#FDFDFE" d="M168.841,267.942c0,0,3.743-20.414,3.973-23.883c0.16-2.416,12.961,13.434,14.008,10.816
			c1.883-4.707,5.061-8.943,5.061-8.943c1.588,2.043,9.415,7.414,9.415,7.414c5.94-2.633,11.378-8.67,11.769-8.709
			c0.883-0.086,6.25,7.594,10.709,9.65c0.784,0.361,14.028-8.621,15.064-10.004c1.059-1.412-0.021,15.336,0.117,19.537
			C221.186,250.288,185.507,255.692,168.841,267.942z"/>
	</g>
</g>
</svg>
