<?xml version="1.0" encoding="utf-8"?>
<!-- Generator: Adobe Illustrator 15.1.0, SVG Export Plug-In . SVG Version: 6.00 Build 0)  -->
<!DOCTYPE svg PUBLIC "-//W3C//DTD SVG 1.1//EN" "http://www.w3.org/Graphics/SVG/1.1/DTD/svg11.dtd">
<svg version="1.1" xmlns="http://www.w3.org/2000/svg" xmlns:xlink="http://www.w3.org/1999/xlink" x="0px" y="0px" width="400px"
	 height="400px" viewBox="0 0 400 400" enable-background="new 0 0 400 400" xml:space="preserve">
<g id="guide_lines_layer" display="none">
	
		<rect x="-1388.25" y="410.988" display="inline" fill="#FFFFFF" stroke="#000000" stroke-miterlimit="10" width="75" height="400"/>
	<rect x="-1064" y="406.989" display="inline" fill="#FFFFFF" stroke="#000000" stroke-miterlimit="10" width="75" height="400"/>
	<rect x="-1064" y="4" display="inline" fill="#FFFFFF" stroke="#000000" stroke-miterlimit="10" width="75" height="400"/>
	<rect x="-1388.25" y="4" display="inline" fill="#FFFFFF" stroke="#000000" stroke-miterlimit="10" width="75" height="400"/>
	<rect x="-928.941" y="-0.5" display="inline" fill="#FFFFFF" stroke="#000000" stroke-miterlimit="10" width="75" height="400"/>
	<rect x="-603.941" y="-1.5" display="inline" fill="#FFFFFF" stroke="#000000" stroke-miterlimit="10" width="75" height="400"/>
	
		<rect x="-603.942" y="406.535" display="inline" fill="#FFFFFF" stroke="#000000" stroke-miterlimit="10" width="75" height="400"/>
	
		<rect x="-928.942" y="406.535" display="inline" fill="#FFFFFF" stroke="#000000" stroke-miterlimit="10" width="75" height="400"/>
	
		<rect x="-1388.25" y="812.554" display="inline" fill="#FFFFFF" stroke="#000000" stroke-miterlimit="10" width="75" height="400"/>
	<rect x="-1064" y="812.554" display="inline" fill="#FFFFFF" stroke="#000000" stroke-miterlimit="10" width="75" height="400"/>
	
		<rect x="-602.442" y="812.554" display="inline" fill="#FFFFFF" stroke="#000000" stroke-miterlimit="10" width="75" height="400"/>
	
		<rect x="-927.442" y="812.554" display="inline" fill="#FFFFFF" stroke="#000000" stroke-miterlimit="10" width="75" height="400"/>
	<rect x="-472.667" y="0.667" display="inline" fill="#FFFFFF" stroke="#000000" stroke-miterlimit="10" width="75" height="400"/>
	
		<rect x="-147.667" y="0.667" display="inline" fill="#FFFFFF" stroke="#000000" stroke-miterlimit="10" width="75" height="399.999"/>
	<rect x="-149" y="414" display="inline" fill="#FFFFFF" stroke="#000000" stroke-miterlimit="10" width="75" height="400"/>
	<rect x="-474" y="414" display="inline" fill="#FFFFFF" stroke="#000000" stroke-miterlimit="10" width="75" height="400"/>
	<rect x="-147.667" y="821" display="inline" fill="#FFFFFF" stroke="#000000" stroke-miterlimit="10" width="75" height="400"/>
	<rect x="-472.667" y="822" display="inline" fill="#FFFFFF" stroke="#000000" stroke-miterlimit="10" width="75" height="400"/>
	<rect x="0.605" y="0.031" display="inline" fill="#FFFFFF" stroke="#000000" stroke-miterlimit="10" width="75" height="400"/>
	
		<rect x="325.605" y="0.031" display="inline" fill="#FFFFFF" stroke="#000000" stroke-miterlimit="10" width="75" height="399.999"/>
	<rect x="324.272" y="415" display="inline" fill="#FFFFFF" stroke="#000000" stroke-miterlimit="10" width="75" height="400"/>
	<rect y="415" display="inline" fill="#FFFFFF" stroke="#000000" stroke-miterlimit="10" width="75" height="400"/>
	<rect x="324.272" y="820.364" display="inline" fill="#FFFFFF" stroke="#000000" stroke-miterlimit="10" width="75" height="400"/>
	<rect x="-0.728" y="821.364" display="inline" fill="#FFFFFF" stroke="#000000" stroke-miterlimit="10" width="75" height="400"/>
</g>
<g id="body_layer">
	<path fill="#DBCD7D" d="M122.335,137.667c0,0-63.33-68.667-118.667-8.667c62.715-18,76.856-2,88.539,29.334
		C103.509,188.645,122.335,137.667,122.335,137.667z"/>
	<path fill="#DBCD7D" d="M267,139.667c0,0,63.33-68.667,118.667-8.667c-62.715-18-76.856-2-88.539,29.333
		C285.826,190.644,267,139.667,267,139.667z"/>
	<path fill="#7DC6DD" d="M-1313.333,401.002c-2.883-20-6.001-94.502-1.501-143.002c3.743-40.334,17.835-96.814,42.335-118.185
		c3.563-3.109-30.615-46.477-26.834-49.162c3.812-2.707,45.584,35.273,49.586,33.007c14.496-8.207,30.145-13.495,46.222-15.626
		c5.358-0.71,10.294-53.233,15.722-53.233c6.436,0,13.158,52.65,19.217,53.576c18.174,2.776,34.613,9.508,49.126,18.933
		c2.902,1.885,44.048-32.705,46.795-30.614c3.355,2.554-31.726,41.835-28.608,44.662c29.753,26.976,31.94,73.644,35.44,119.144
		c2.627,34.148,4.752,126.445,1.92,140.279L-1313.333,401.002z"/>
	<path fill="#79C2EA" stroke="#FFFFFF" stroke-miterlimit="10" d="M-1613,207"/>
	<path fill="#7DC6DD" d="M-1314,407.001v46c0,0-4,30-21,37s-27,11-27,31s11,36-6,41s-14,15,0,15s25.353-13.575,26.774-25.657
		c1.963-16.687-8.344-22.576,7.853-32.883c9.972-6.346,19.141-5.399,19.141-5.399l-0.492,53.985c0,0-28.436,6.475-36.318,25.523
		c-11.779,28.464,4.968,47.216,1.042,62.431c-6.039,23.4-23.395,19.503-22.5,28c1,9.5,37.038,0.956,39-28
		c1.114-16.443-2.814-21.393-3.309-29.06c-0.982-15.214,9.325-26.993,23.067-25.519l-0.258,88.578c0,0,0.629,17.897-13.484,28.718
		c-14.724,11.288-18.65,9.815-26.012,16.688c-17.939,16.744-6.871,35.827-15.706,41.718c-14.062,9.377-15.214,21.595-2.945,16.687
		c22.104-8.843,21.777-16.334,24.54-33.374c2.944-18.159,29.607-22.436,29.607-22.436h4l0.903,70.988H-1202l7-400L-1314,407.001z"/>
	<path fill="#7DC6DD" d="M-1318,737.001"/>
	<circle fill="#36A1BA" cx="-1336.833" cy="496.167" r="7.833"/>
	<circle fill="#36A1BA" cx="-1335.833" cy="517.167" r="6.167"/>
	<circle fill="#36A1BA" cx="-1353.499" cy="513.833" r="5.833"/>
	<circle fill="#36A1BA" cx="-1344.999" cy="531" r="4.333"/>
	<circle fill="#36A1BA" cx="-1357.666" cy="525" r="4.667"/>
	<circle fill="#36A1BA" cx="-1354.999" cy="538.333" r="4"/>
	<circle fill="#36A1BA" cx="-1343.499" cy="545.167" r="3.5"/>
	<circle fill="#36A1BA" cx="-1354.499" cy="551.167" r="3.833"/>
	<circle fill="#36A1BA" cx="-1347.666" cy="561" r="3.667"/>
	<circle fill="#36A1BA" cx="-1360.666" cy="562.666" r="3.333"/>
	<circle fill="#36A1BA" cx="-1356.833" cy="571.501" r="2.833"/>
	<circle fill="#36A1BA" cx="-1370.666" cy="570" r="3"/>
	<circle fill="#36A1BA" cx="-1317.999" cy="575.667" r="9"/>
	<circle fill="#36A1BA" cx="-1329.333" cy="598.333" r="8"/>
	<circle fill="#36A1BA" cx="-1339.166" cy="584.833" r="6.833"/>
	<circle fill="#36A1BA" cx="-1349.833" cy="596.5" r="6.167"/>
	<circle fill="#36A1BA" cx="-1352.999" cy="613.001" r="6.167"/>
	<circle fill="#36A1BA" cx="-1338.499" cy="613.834" r="6.5"/>
	<circle fill="#36A1BA" cx="-1349.499" cy="628.833" r="4.833"/>
	<circle fill="#36A1BA" cx="-1337.666" cy="633.334" r="4"/>
	<circle fill="#36A1BA" cx="-1345.166" cy="644.167" r="3.833"/>
	<circle fill="#36A1BA" cx="-1336.499" cy="647.833" r="3.833"/>
	<circle fill="#36A1BA" cx="-1346.832" cy="656.501" r="4.167"/>
	<circle fill="#36A1BA" cx="-1344.333" cy="672.501" r="3.5"/>
	<circle fill="#36A1BA" cx="-1351.332" cy="666.001" r="3.333"/>
	<circle fill="#36A1BA" cx="-1336.333" cy="663.334" r="4.333"/>
	<circle fill="#36A1BA" cx="-1355.166" cy="680.501" r="3.833"/>
	<circle fill="#36A1BA" cx="-1324.833" cy="721.167" r="6.167"/>
	<circle fill="#36A1BA" cx="-1335.499" cy="740.166" r="4.167"/>
	<circle fill="#36A1BA" cx="-1335.166" cy="727.834" r="3.833"/>
	<circle fill="#36A1BA" cx="-1346.999" cy="735.333" r="4.333"/>
	<circle fill="#36A1BA" cx="-1360.999" cy="759.666" r="3"/>
	<circle fill="#36A1BA" cx="-1356.166" cy="746.499" r="4.167"/>
	<circle fill="#36A1BA" cx="-1345.499" cy="748.833" r="4.833"/>
	<circle fill="#36A1BA" cx="-1323.332" cy="734.666" r="5.667"/>
	<circle fill="#36A1BA" cx="-1354.499" cy="778.166" r="3.5"/>
	<circle fill="#36A1BA" cx="-1365.166" cy="778.833" r="3.5"/>
	<circle fill="#36A1BA" cx="-1353.499" cy="765.499" r="3.5"/>
	<circle fill="#36A1BA" cx="-1351.499" cy="757.166" r="3.5"/>
	<circle fill="#36A1BA" cx="-1362.666" cy="770.999" r="3"/>
	<circle fill="#36A1BA" cx="-1368.166" cy="786.833" r="3.167"/>
	<path fill="#7DC6DD" d="M-1064.017,407.989l-0.941,45.012c0,0,4.405,30,23.125,37c18.721,7,29.732,11,29.732,31
		s-12.113,36,6.607,41c18.72,5,15.416,15,0,15c-15.417,0-27.919-13.575-29.484-25.657c-2.161-16.687,9.188-22.576-8.646-32.883
		c-10.982-6.346-21.078-5.399-21.078-5.399l0.541,53.985c0,0,31.313,6.475,39.993,25.523c12.972,28.464-5.47,47.216-1.146,62.431
		c6.649,23.4,25.762,19.503,24.776,28c-1.102,9.5-40.785,0.956-42.946-28c-1.228-16.443,3.099-21.393,3.644-29.06
		c1.081-15.214-10.269-26.993-25.401-25.519l0.284,88.578c0,0-0.692,17.897,14.849,28.718c16.215,11.288,20.538,9.815,28.645,16.688
		c19.755,16.744,7.566,35.827,17.295,41.718c15.486,9.377,16.754,21.595,3.242,16.687c-24.34-8.843-23.98-16.334-27.021-33.374
		c-3.244-18.159-32.604-22.436-32.604-22.436h-4.405l1.381,70.988h-139.676l7.253-400H-1064.017z"/>
	<path fill="#7DC6DD" d="M-1060.553,737.001"/>
	<ellipse fill="#36A1BA" cx="-1039.815" cy="496.167" rx="8.626" ry="7.833"/>
	<ellipse fill="#36A1BA" cx="-1040.917" cy="517.167" rx="6.791" ry="6.166"/>
	<ellipse fill="#36A1BA" cx="-1021.462" cy="513.833" rx="6.423" ry="5.834"/>
	<ellipse fill="#36A1BA" cx="-1030.822" cy="531" rx="4.771" ry="4.333"/>
	<ellipse fill="#36A1BA" cx="-1016.874" cy="525" rx="5.139" ry="4.667"/>
	<ellipse fill="#36A1BA" cx="-1019.81" cy="538.333" rx="4.405" ry="4"/>
	<ellipse fill="#36A1BA" cx="-1032.474" cy="545.167" rx="3.854" ry="3.5"/>
	<ellipse fill="#36A1BA" cx="-1020.361" cy="551.167" rx="4.221" ry="3.833"/>
	<ellipse fill="#36A1BA" cx="-1027.886" cy="561" rx="4.038" ry="3.667"/>
	<ellipse fill="#36A1BA" cx="-1013.57" cy="562.666" rx="3.671" ry="3.333"/>
	<ellipse fill="#36A1BA" cx="-1017.791" cy="571.501" rx="3.12" ry="2.833"/>
	<ellipse fill="#36A1BA" cx="-1002.558" cy="570" rx="3.304" ry="3"/>
	<ellipse fill="#36A1BA" cx="-1060.554" cy="575.667" rx="9.911" ry="9"/>
	<ellipse fill="#36A1BA" cx="-1048.074" cy="598.333" rx="8.81" ry="8"/>
	<ellipse fill="#36A1BA" cx="-1037.246" cy="584.833" rx="7.525" ry="6.834"/>
	<ellipse fill="#36A1BA" cx="-1025.499" cy="596.5" rx="6.791" ry="6.167"/>
	<ellipse fill="#36A1BA" cx="-1022.013" cy="613.001" rx="6.791" ry="6.167"/>
	<ellipse fill="#36A1BA" cx="-1037.98" cy="613.834" rx="7.158" ry="6.5"/>
	<ellipse fill="#36A1BA" cx="-1025.867" cy="628.833" rx="5.322" ry="4.834"/>
	<ellipse fill="#36A1BA" cx="-1038.897" cy="633.334" rx="4.405" ry="4"/>
	<ellipse fill="#36A1BA" cx="-1030.639" cy="644.167" rx="4.222" ry="3.833"/>
	<ellipse fill="#36A1BA" cx="-1040.182" cy="647.833" rx="4.221" ry="3.834"/>
	<ellipse fill="#36A1BA" cx="-1028.804" cy="656.501" rx="4.589" ry="4.167"/>
	<ellipse fill="#36A1BA" cx="-1031.556" cy="672.501" rx="3.854" ry="3.5"/>
	<ellipse fill="#36A1BA" cx="-1023.848" cy="666.001" rx="3.671" ry="3.334"/>
	<ellipse fill="#36A1BA" cx="-1040.365" cy="663.334" rx="4.771" ry="4.333"/>
	<ellipse fill="#36A1BA" cx="-1019.626" cy="680.501" rx="4.221" ry="3.834"/>
	<ellipse fill="#36A1BA" cx="-1053.028" cy="721.167" rx="6.791" ry="6.167"/>
	<ellipse fill="#36A1BA" cx="-1041.284" cy="740.166" rx="4.588" ry="4.166"/>
	<ellipse fill="#36A1BA" cx="-1041.65" cy="727.834" rx="4.222" ry="3.833"/>
	<ellipse fill="#36A1BA" cx="-1028.619" cy="735.333" rx="4.771" ry="4.334"/>
	<ellipse fill="#36A1BA" cx="-1013.203" cy="759.666" rx="3.304" ry="3"/>
	<ellipse fill="#36A1BA" cx="-1018.525" cy="746.499" rx="4.588" ry="4.167"/>
	<ellipse fill="#36A1BA" cx="-1030.271" cy="748.833" rx="5.322" ry="4.833"/>
	<ellipse fill="#36A1BA" cx="-1054.682" cy="734.666" rx="6.239" ry="5.666"/>
	<ellipse fill="#36A1BA" cx="-1020.361" cy="778.166" rx="3.854" ry="3.5"/>
	<ellipse fill="#36A1BA" cx="-1008.614" cy="778.833" rx="3.854" ry="3.5"/>
	<ellipse fill="#36A1BA" cx="-1021.462" cy="765.499" rx="3.854" ry="3.5"/>
	<ellipse fill="#36A1BA" cx="-1023.665" cy="757.166" rx="3.854" ry="3.5"/>
	<ellipse fill="#36A1BA" cx="-1011.367" cy="770.999" rx="3.304" ry="3"/>
	<ellipse fill="#36A1BA" cx="-1005.311" cy="786.833" rx="3.487" ry="3.166"/>
	<path fill="#52BFD1" d="M-1088.667,603.013c0,99.408-43.169,179.988-96.417,179.988s-96.417-80.58-96.417-179.988
		c0-99.43,43.168-180.012,96.417-180.012S-1088.667,503.583-1088.667,603.013z"/>
	<path fill="#52BFD1" d="M-1070.668,256.004c0,19.33-16.977,34.998-37.917,34.998c-20.939,0-37.916-15.668-37.916-34.998
		c0-19.334,16.977-35.002,37.916-35.002C-1087.645,221.002-1070.668,236.67-1070.668,256.004z"/>
	<path fill="#52BFD1" d="M-1226.668,259.004c0,19.33-16.977,34.998-37.917,34.998c-20.939,0-37.916-15.668-37.916-34.998
		c0-19.334,16.977-35.002,37.916-35.002C-1243.645,224.002-1226.668,239.67-1226.668,259.004z"/>
	<g>
		<g>
			<path fill="#7DC6DD" d="M-1269.392,120.994c0.65,0,2.082-0.987,0.781-0.987C-1269.261,120.007-1270.692,120.994-1269.392,120.994
				L-1269.392,120.994z"/>
		</g>
	</g>
	<g>
		<g>
			<path fill="none" stroke="#F2E4D2" stroke-miterlimit="10" d="M-1102.501,121.5"/>
		</g>
	</g>
	<g>
		<g>
			<path fill="none" stroke="#F2E4D2" stroke-miterlimit="10" d="M-1190.501,120.5"/>
		</g>
	</g>
	<path fill="#6FC5D8" d="M-1062.523,812.554l2.023,127.449c-2.206,25.478,41-4,41,29c0,32.062-120,28-119,14
		c0.778-10.892-6-128-59-122c-32.804,3.714-43.046,125.093-45,129c-3,6-115,30-117-12c-1.813-38.075,46,0,44.168-36.008
		c0,0,2.881-125.732,3.77-129.441H-1062.523z"/>
	<path fill="#D6C370" d="M-1356.491,966.399c0,0-4.187,4.983-2.193,10.965c0,0-12.559-7.376-16.347,0.996
		C-1375.43,966.798-1366.658,965.402-1356.491,966.399z"/>
	<path fill="#D6C370" d="M-1356.69,979.357c0,0-0.199,4.386,5.98,7.975c0,0-13.755-3.189-17.543,5.183
		C-1368.651,980.952-1366.857,978.36-1356.69,979.357z"/>
	<path fill="#D6C370" d="M-1349.416,990.061l7.841,2.83c0,0-8.394,3.072-11.97,13.587
		C-1356.452,999.485-1355.544,993.683-1349.416,990.061z"/>
	<path fill="#D6C370" d="M-1023.743,956.399c0,0,4.069,4.983,2.131,10.965c0,0,12.207-7.376,15.89,0.996
		C-1005.336,956.798-1013.861,955.402-1023.743,956.399z"/>
	<path fill="#D6C370" d="M-1023.55,969.357c0,0,0.193,4.386-5.812,7.975c0,0,13.369-3.189,17.051,5.183
		C-1011.924,970.952-1013.668,968.36-1023.55,969.357z"/>
	<path fill="#D6C370" d="M-1030.62,980.061l-7.621,2.83c0,0,8.158,3.072,11.634,13.587
		C-1023.782,989.485-1024.664,983.683-1030.62,980.061z"/>
	<path fill="#52BFD1" d="M-1311.517,819.979c0,0,139.461,50.713-3.888,123.271L-1311.517,819.979z"/>
	<path fill="#52BFD1" d="M-1062.237,817.507c0,0-124.187,45.307,1.429,119.307L-1062.237,817.507z"/>
	<path fill="#8BCEAB" d="M-855.825,399.121c-2.881-20-6-94.502-1.5-143.002c3.742-40.336,17.835-96.814,42.335-118.185
		c3.563-3.109-30.614-46.478-26.833-49.163c3.811-2.707,45.583,35.274,49.586,33.009c14.496-8.207,30.144-13.496,46.221-15.628
		c5.359-0.709,10.294-53.232,15.722-53.232c6.436,0,13.158,52.648,19.217,53.574c18.174,2.778,34.613,9.509,49.126,18.935
		c2.902,1.885,44.048-32.706,46.795-30.616c3.355,2.555-31.726,41.837-28.608,44.663c29.753,26.976,31.94,73.642,35.44,119.144
		c2.627,34.148,4.752,126.445,1.92,140.279L-855.825,399.121z"/>
	<path fill="#8BCEAB" d="M-854.993,406.619v46c0,0-4,30-21,37s-27,11-27,31s11,36-6,41s-14,15,0,15s25.353-13.574,26.774-25.656
		c1.963-16.688-8.344-22.576,7.853-32.883c9.972-6.346,19.142-5.4,19.142-5.4l-0.492,53.986c0,0-28.436,6.475-36.318,25.523
		c-11.779,28.463,4.969,47.215,1.042,62.43c-6.038,23.4-23.395,19.504-22.5,28c1,9.5,37.038,0.957,39-28
		c1.114-16.443-2.813-21.393-3.309-29.059c-0.981-15.215,9.325-26.994,23.067-25.52l-0.259,88.578c0,0,0.63,17.898-13.484,28.719
		c-14.724,11.287-18.649,9.814-26.013,16.688c-17.938,16.744-6.871,35.826-15.705,41.717c-14.062,9.377-15.215,21.596-2.945,16.688
		c22.105-8.844,21.777-16.334,24.541-33.375c2.943-18.158,29.606-22.436,29.606-22.436h4l0.903,70.988h111.097l7-400
		L-854.993,406.619z"/>
	<path fill="#7DC6DD" d="M-858.993,736.619"/>
	<circle fill="#60A37B" cx="-877.826" cy="495.785" r="7.833"/>
	<circle fill="#60A37B" cx="-876.826" cy="516.785" r="6.167"/>
	<circle fill="#60A37B" cx="-894.492" cy="513.451" r="5.834"/>
	<circle fill="#60A37B" cx="-885.993" cy="530.619" r="4.333"/>
	<circle fill="#60A37B" cx="-898.659" cy="524.619" r="4.667"/>
	<circle fill="#60A37B" cx="-895.992" cy="537.951" r="4"/>
	<circle fill="#60A37B" cx="-884.492" cy="544.785" r="3.5"/>
	<circle fill="#60A37B" cx="-895.492" cy="550.785" r="3.834"/>
	<circle fill="#60A37B" cx="-888.659" cy="560.619" r="3.667"/>
	<circle fill="#60A37B" cx="-901.659" cy="562.285" r="3.333"/>
	<circle fill="#60A37B" cx="-897.826" cy="571.119" r="2.833"/>
	<circle fill="#60A37B" cx="-911.659" cy="569.619" r="3"/>
	<circle fill="#60A37B" cx="-858.992" cy="575.285" r="9"/>
	<circle fill="#60A37B" cx="-870.326" cy="597.951" r="8"/>
	<circle fill="#60A37B" cx="-880.159" cy="584.451" r="6.833"/>
	<circle fill="#60A37B" cx="-890.825" cy="596.119" r="6.167"/>
	<circle fill="#60A37B" cx="-893.992" cy="612.619" r="6.167"/>
	<circle fill="#60A37B" cx="-879.492" cy="613.453" r="6.5"/>
	<circle fill="#60A37B" cx="-890.492" cy="628.451" r="4.834"/>
	<circle fill="#60A37B" cx="-878.659" cy="632.953" r="4"/>
	<circle fill="#60A37B" cx="-886.159" cy="643.785" r="3.833"/>
	<circle fill="#60A37B" cx="-877.493" cy="647.451" r="3.833"/>
	<circle fill="#60A37B" cx="-887.825" cy="656.119" r="4.167"/>
	<circle fill="#60A37B" cx="-885.326" cy="672.119" r="3.5"/>
	<circle fill="#60A37B" cx="-892.325" cy="665.619" r="3.333"/>
	<circle fill="#60A37B" cx="-877.325" cy="662.953" r="4.333"/>
	<circle fill="#60A37B" cx="-896.159" cy="680.119" r="3.833"/>
	<circle fill="#60A37B" cx="-865.825" cy="720.785" r="6.167"/>
	<circle fill="#60A37B" cx="-876.492" cy="739.785" r="4.167"/>
	<circle fill="#60A37B" cx="-876.159" cy="727.453" r="3.833"/>
	<circle fill="#60A37B" cx="-887.992" cy="734.951" r="4.333"/>
	<circle fill="#60A37B" cx="-901.992" cy="759.285" r="3"/>
	<circle fill="#60A37B" cx="-897.159" cy="746.117" r="4.167"/>
	<circle fill="#60A37B" cx="-886.492" cy="748.451" r="4.833"/>
	<circle fill="#60A37B" cx="-864.325" cy="734.285" r="5.667"/>
	<circle fill="#60A37B" cx="-895.492" cy="777.785" r="3.5"/>
	<circle fill="#60A37B" cx="-906.158" cy="778.451" r="3.5"/>
	<circle fill="#60A37B" cx="-894.492" cy="765.117" r="3.5"/>
	<circle fill="#60A37B" cx="-892.492" cy="756.785" r="3.5"/>
	<circle fill="#60A37B" cx="-903.658" cy="770.617" r="3"/>
	<circle fill="#60A37B" cx="-909.159" cy="786.451" r="3.167"/>
	<path fill="#8BCEAB" d="M-603.01,407.607l-2.941,45.012c0,0,4.405,30,23.125,37c18.721,7,29.732,11,29.732,31s-12.113,36,6.607,41
		c18.72,5,15.416,15,0,15c-15.417,0-27.919-13.574-29.484-25.656c-2.161-16.688,9.188-22.576-8.646-32.883
		c-10.982-6.346-21.078-5.4-21.078-5.4l0.541,53.986c0,0,31.313,6.475,39.993,25.523c12.972,28.463-5.47,47.215-1.146,62.43
		c6.649,23.4,25.762,19.504,24.776,28c-1.102,9.5-40.785,0.957-42.946-28c-1.228-16.443,3.099-21.393,3.644-29.059
		c1.081-15.215-10.269-26.994-25.401-25.52l0.284,88.578c0,0-0.692,17.898,14.849,28.719c16.215,11.287,20.538,9.814,28.645,16.688
		c19.755,16.744,7.566,35.826,17.295,41.717c15.486,9.377,16.754,21.596,3.242,16.688c-24.34-8.844-23.98-16.334-27.021-33.375
		c-3.244-18.158-32.604-22.436-32.604-22.436h-4.405l3.381,70.988h-141.676l7.253-400H-603.01z"/>
	<path fill="#7DC6DD" d="M-601.546,736.619"/>
	<ellipse fill="#60A37B" cx="-580.808" cy="495.785" rx="8.626" ry="7.834"/>
	<ellipse fill="#60A37B" cx="-581.91" cy="516.785" rx="6.791" ry="6.166"/>
	<ellipse fill="#60A37B" cx="-562.455" cy="513.451" rx="6.423" ry="5.834"/>
	<ellipse fill="#60A37B" cx="-571.815" cy="530.619" rx="4.771" ry="4.332"/>
	<ellipse fill="#60A37B" cx="-557.867" cy="524.619" rx="5.139" ry="4.666"/>
	<ellipse fill="#60A37B" cx="-560.803" cy="537.951" rx="4.405" ry="4"/>
	<ellipse fill="#60A37B" cx="-573.467" cy="544.785" rx="3.854" ry="3.5"/>
	<ellipse fill="#60A37B" cx="-561.354" cy="550.785" rx="4.221" ry="3.834"/>
	<ellipse fill="#60A37B" cx="-568.879" cy="560.619" rx="4.038" ry="3.666"/>
	<ellipse fill="#60A37B" cx="-554.563" cy="562.285" rx="3.671" ry="3.332"/>
	<ellipse fill="#60A37B" cx="-558.784" cy="571.119" rx="3.12" ry="2.834"/>
	<ellipse fill="#60A37B" cx="-543.551" cy="569.619" rx="3.304" ry="3"/>
	<ellipse fill="#60A37B" cx="-601.547" cy="575.285" rx="9.911" ry="9"/>
	<ellipse fill="#60A37B" cx="-589.067" cy="597.951" rx="8.81" ry="8"/>
	<ellipse fill="#60A37B" cx="-578.239" cy="584.451" rx="7.525" ry="6.834"/>
	<ellipse fill="#60A37B" cx="-566.492" cy="596.119" rx="6.791" ry="6.166"/>
	<ellipse fill="#60A37B" cx="-563.006" cy="612.619" rx="6.791" ry="6.168"/>
	<ellipse fill="#60A37B" cx="-578.973" cy="613.453" rx="7.158" ry="6.5"/>
	<ellipse fill="#60A37B" cx="-566.86" cy="628.451" rx="5.322" ry="4.834"/>
	<ellipse fill="#60A37B" cx="-579.89" cy="632.953" rx="4.405" ry="4"/>
	<ellipse fill="#60A37B" cx="-571.632" cy="643.785" rx="4.222" ry="3.834"/>
	<ellipse fill="#60A37B" cx="-581.175" cy="647.451" rx="4.221" ry="3.834"/>
	<ellipse fill="#60A37B" cx="-569.797" cy="656.119" rx="4.589" ry="4.168"/>
	<ellipse fill="#60A37B" cx="-572.549" cy="672.119" rx="3.854" ry="3.5"/>
	<ellipse fill="#60A37B" cx="-564.841" cy="665.619" rx="3.671" ry="3.334"/>
	<ellipse fill="#60A37B" cx="-581.358" cy="662.953" rx="4.771" ry="4.332"/>
	<ellipse fill="#60A37B" cx="-560.62" cy="680.119" rx="4.221" ry="3.834"/>
	<ellipse fill="#60A37B" cx="-594.021" cy="720.785" rx="6.791" ry="6.168"/>
	<ellipse fill="#60A37B" cx="-582.277" cy="739.785" rx="4.588" ry="4.166"/>
	<ellipse fill="#60A37B" cx="-582.644" cy="727.453" rx="4.222" ry="3.832"/>
	<ellipse fill="#60A37B" cx="-569.612" cy="734.951" rx="4.771" ry="4.334"/>
	<ellipse fill="#60A37B" cx="-554.196" cy="759.285" rx="3.304" ry="3"/>
	<ellipse fill="#60A37B" cx="-559.519" cy="746.117" rx="4.588" ry="4.168"/>
	<ellipse fill="#60A37B" cx="-571.265" cy="748.451" rx="5.322" ry="4.834"/>
	<ellipse fill="#60A37B" cx="-595.675" cy="734.285" rx="6.239" ry="5.666"/>
	<ellipse fill="#60A37B" cx="-561.354" cy="777.785" rx="3.854" ry="3.5"/>
	<ellipse fill="#60A37B" cx="-549.607" cy="778.451" rx="3.854" ry="3.5"/>
	<ellipse fill="#60A37B" cx="-562.455" cy="765.117" rx="3.854" ry="3.5"/>
	<ellipse fill="#60A37B" cx="-564.658" cy="756.785" rx="3.854" ry="3.5"/>
	<ellipse fill="#60A37B" cx="-552.36" cy="770.617" rx="3.304" ry="3"/>
	<ellipse fill="#60A37B" cx="-546.304" cy="786.451" rx="3.487" ry="3.166"/>
	<path fill="#72C596" d="M-629.66,602.631c0,99.408-43.169,179.988-96.417,179.988s-96.417-80.58-96.417-179.988
		c0-99.43,43.169-180.012,96.417-180.012S-629.66,503.201-629.66,602.631z"/>
	<path fill="#72C596" d="M-613.159,254.123c0,19.33-16.977,34.998-37.917,34.998c-20.939,0-37.916-15.668-37.916-34.998
		c0-19.336,16.977-35.004,37.916-35.004C-630.136,219.119-613.159,234.787-613.159,254.123z"/>
	<path fill="#72C596" d="M-769.159,257.123c0,19.33-16.977,34.998-37.917,34.998c-20.939,0-37.916-15.668-37.916-34.998
		c0-19.336,16.977-35.004,37.916-35.004C-786.136,222.119-769.159,237.787-769.159,257.123z"/>
	<g>
		<g>
			<path fill="#7DC6DD" d="M-811.883,119.113c0.65,0,2.082-0.986,0.781-0.986C-811.752,118.126-813.184,119.113-811.883,119.113
				L-811.883,119.113z"/>
		</g>
	</g>
	<g>
		<g>
			<path fill="none" stroke="#F2E4D2" stroke-miterlimit="10" d="M-644.992,119.62"/>
		</g>
	</g>
	<g>
		<g>
			<path fill="none" stroke="#F2E4D2" stroke-miterlimit="10" d="M-732.992,118.62"/>
		</g>
	</g>
	<path fill="#8BCEAB" d="M-602.517,813.172l2.023,127.449c-2.206,25.479,41-4,41,29c0,32.062-120,28-119,14
		c0.778-10.891-6-128-59-122c-32.804,3.715-43.046,125.094-45,129c-3,6-114,29-116-13c-1.813-38.074,45,1,43.169-35.008
		c0,0,2.881-125.732,3.77-129.441H-602.517z"/>
	<path fill="#D6C370" d="M-896.484,967.018c0,0-4.187,4.984-2.193,10.965c0,0-12.559-7.375-16.347,0.996
		C-915.423,967.416-906.651,966.021-896.484,967.018z"/>
	<path fill="#D6C370" d="M-895.684,978.977c0,0-1.199,5.385,4.98,8.975c0,0-12.755-4.189-16.543,4.182
		C-907.645,980.57-905.851,977.979-895.684,978.977z"/>
	<path fill="#D6C370" d="M-889.409,990.68l7.841,2.83c0,0-8.395,3.072-11.97,13.586
		C-896.445,1000.104-895.537,994.301-889.409,990.68z"/>
	<path fill="#D6C370" d="M-563.736,957.018c0,0,4.069,4.984,2.131,10.965c0,0,13.207-8.375,16.89-0.004
		C-544.329,956.416-553.854,956.021-563.736,957.018z"/>
	<path fill="#D6C370" d="M-563.543,969.977c0,0,0.193,4.385-5.812,7.975c0,0,14.369-4.189,18.051,4.182
		C-550.917,970.57-553.661,968.979-563.543,969.977z"/>
	<path fill="#D6C370" d="M-570.613,980.68l-7.621,2.83c0,0,8.158,3.072,11.634,13.586
		C-563.775,990.104-564.657,984.301-570.613,980.68z"/>
	<path fill="#72C596" d="M-851.51,820.598c0,0,139.461,50.713-3.889,123.271L-851.51,820.598z"/>
	<path fill="#72C596" d="M-602.23,818.125c0,0-124.187,45.307,1.429,119.307L-602.23,818.125z"/>
	<path fill="#E06899" d="M-397.492,401.178c-2.881-20-6-94.502-1.5-143.002c3.742-40.336,17.835-96.815,42.335-118.186
		c3.563-3.109-30.614-46.478-26.833-49.163c3.811-2.707,45.583,35.274,49.586,33.009c14.496-8.207,30.144-13.496,46.221-15.628
		c5.359-0.709,10.294-53.232,15.722-53.232c6.436,0,13.158,52.648,19.217,53.574c18.174,2.778,34.613,9.509,49.126,18.935
		c2.902,1.885,44.048-32.706,46.795-30.616c3.355,2.555-31.726,41.837-28.608,44.663c29.753,26.976,31.94,73.643,35.44,119.145
		c2.627,34.148,4.752,126.445,1.92,140.279L-397.492,401.178z"/>
	<path fill="#E06899" d="M-398.993,413.51v46c0,0-4,30-21,37s-27,11-27,31s11,36-6,41s-14,15,0,15s25.353-13.576,26.774-25.658
		c1.963-16.686-8.344-22.576,7.853-32.883c9.972-6.346,19.142-5.398,19.142-5.398l-0.492,53.984c0,0-28.436,6.475-36.318,25.523
		c-11.779,28.465,4.969,47.217,1.042,62.432c-6.038,23.4-23.395,19.502-22.5,28c1,9.5,37.038,0.955,39-28
		c1.114-16.443-2.813-21.393-3.309-29.061c-0.981-15.213,9.325-26.992,23.067-25.518l-0.259,88.578c0,0,0.63,17.896-13.484,28.717
		c-14.724,11.289-18.649,9.816-26.013,16.688c-17.938,16.744-6.871,35.828-15.705,41.719c-14.062,9.377-15.215,21.594-2.945,16.686
		c22.105-8.842,21.777-16.334,24.541-33.373c2.943-18.16,29.606-22.436,29.606-22.436h4l0.903,70.988h111.097l7-400L-398.993,413.51
		z"/>
	<path fill="#7DC6DD" d="M-402.993,743.51"/>
	<circle fill="#B63C79" cx="-421.826" cy="502.676" r="7.833"/>
	<circle fill="#B63C79" cx="-420.826" cy="523.676" r="6.167"/>
	<circle fill="#B63C79" cx="-438.492" cy="520.342" r="5.834"/>
	<circle fill="#B63C79" cx="-429.993" cy="537.508" r="4.333"/>
	<circle fill="#B63C79" cx="-442.659" cy="531.508" r="4.667"/>
	<circle fill="#B63C79" cx="-439.992" cy="544.842" r="4"/>
	<circle fill="#B63C79" cx="-428.492" cy="551.676" r="3.5"/>
	<circle fill="#B63C79" cx="-439.492" cy="557.676" r="3.834"/>
	<circle fill="#B63C79" cx="-432.659" cy="567.508" r="3.667"/>
	<circle fill="#B63C79" cx="-445.659" cy="569.174" r="3.333"/>
	<circle fill="#B63C79" cx="-441.826" cy="578.01" r="2.833"/>
	<circle fill="#B63C79" cx="-455.659" cy="576.508" r="3"/>
	<circle fill="#B63C79" cx="-402.992" cy="582.176" r="9"/>
	<circle fill="#B63C79" cx="-414.326" cy="604.842" r="8"/>
	<circle fill="#B63C79" cx="-424.159" cy="591.342" r="6.833"/>
	<circle fill="#B63C79" cx="-434.825" cy="603.008" r="6.167"/>
	<circle fill="#B63C79" cx="-437.992" cy="619.51" r="6.167"/>
	<circle fill="#B63C79" cx="-423.492" cy="620.342" r="6.5"/>
	<circle fill="#B63C79" cx="-434.492" cy="635.342" r="4.834"/>
	<circle fill="#B63C79" cx="-422.659" cy="639.842" r="4"/>
	<circle fill="#B63C79" cx="-430.159" cy="650.676" r="3.833"/>
	<circle fill="#B63C79" cx="-421.493" cy="654.342" r="3.833"/>
	<circle fill="#B63C79" cx="-431.825" cy="663.01" r="4.167"/>
	<circle fill="#B63C79" cx="-429.326" cy="679.01" r="3.5"/>
	<circle fill="#B63C79" cx="-436.325" cy="672.51" r="3.333"/>
	<circle fill="#B63C79" cx="-421.325" cy="669.842" r="4.333"/>
	<circle fill="#B63C79" cx="-440.159" cy="687.01" r="3.833"/>
	<circle fill="#B63C79" cx="-409.825" cy="727.676" r="6.167"/>
	<circle fill="#B63C79" cx="-420.492" cy="746.674" r="4.167"/>
	<circle fill="#B63C79" cx="-420.159" cy="734.342" r="3.833"/>
	<circle fill="#B63C79" cx="-431.992" cy="741.842" r="4.333"/>
	<circle fill="#B63C79" cx="-445.992" cy="766.174" r="3"/>
	<circle fill="#B63C79" cx="-441.159" cy="753.008" r="4.167"/>
	<circle fill="#B63C79" cx="-430.492" cy="755.342" r="4.833"/>
	<circle fill="#B63C79" cx="-408.325" cy="741.174" r="5.667"/>
	<circle fill="#B63C79" cx="-439.492" cy="784.674" r="3.5"/>
	<circle fill="#B63C79" cx="-450.158" cy="785.342" r="3.5"/>
	<circle fill="#B63C79" cx="-438.492" cy="772.008" r="3.5"/>
	<circle fill="#B63C79" cx="-436.492" cy="763.674" r="3.5"/>
	<circle fill="#B63C79" cx="-447.658" cy="777.508" r="3"/>
	<circle fill="#B63C79" cx="-453.159" cy="793.342" r="3.167"/>
	<path fill="#E06899" d="M-147.01,414.498l-2.941,45.012c0,0,4.405,30,23.125,37c18.721,7,29.732,11,29.732,31s-12.113,36,6.607,41
		c18.72,5,15.416,15,0,15c-15.417,0-27.919-13.576-29.484-25.658c-2.161-16.686,9.188-22.576-8.646-32.883
		c-10.982-6.346-21.078-5.398-21.078-5.398l0.541,53.984c0,0,31.313,6.475,39.993,25.523c12.972,28.465-5.47,47.217-1.146,62.432
		c6.649,23.4,25.762,19.502,24.776,28c-1.102,9.5-40.785,0.955-42.946-28c-1.228-16.443,3.099-21.393,3.644-29.061
		c1.081-15.213-10.269-26.992-25.401-25.518l0.284,88.578c0,0-0.692,17.896,14.849,28.717c16.215,11.289,20.538,9.816,28.645,16.688
		c19.755,16.744,7.566,35.828,17.295,41.719c15.486,9.377,16.754,21.594,3.242,16.686c-24.34-8.842-23.98-16.334-27.021-33.373
		c-3.244-18.16-32.604-22.436-32.604-22.436h-4.405l3.381,70.988h-141.676l7.253-400H-147.01z"/>
	<path fill="#7DC6DD" d="M-145.546,743.51"/>
	<ellipse fill="#B63C79" cx="-124.808" cy="502.676" rx="8.626" ry="7.832"/>
	<ellipse fill="#B63C79" cx="-125.91" cy="523.676" rx="6.791" ry="6.166"/>
	<ellipse fill="#B63C79" cx="-106.455" cy="520.342" rx="6.423" ry="5.834"/>
	<ellipse fill="#B63C79" cx="-115.815" cy="537.508" rx="4.771" ry="4.334"/>
	<ellipse fill="#B63C79" cx="-101.867" cy="531.508" rx="5.139" ry="4.668"/>
	<ellipse fill="#B63C79" cx="-104.803" cy="544.842" rx="4.405" ry="4"/>
	<ellipse fill="#B63C79" cx="-117.467" cy="551.676" rx="3.854" ry="3.5"/>
	<ellipse fill="#B63C79" cx="-105.354" cy="557.676" rx="4.221" ry="3.832"/>
	<ellipse fill="#B63C79" cx="-112.879" cy="567.508" rx="4.038" ry="3.668"/>
	<ellipse fill="#B63C79" cx="-98.563" cy="569.174" rx="3.671" ry="3.334"/>
	<ellipse fill="#B63C79" cx="-102.784" cy="578.01" rx="3.12" ry="2.832"/>
	<ellipse fill="#B63C79" cx="-87.551" cy="576.508" rx="3.304" ry="3"/>
	<ellipse fill="#B63C79" cx="-145.547" cy="582.176" rx="9.911" ry="9"/>
	<ellipse fill="#B63C79" cx="-133.067" cy="604.842" rx="8.81" ry="8"/>
	<ellipse fill="#B63C79" cx="-122.239" cy="591.342" rx="7.525" ry="6.834"/>
	<ellipse fill="#B63C79" cx="-110.492" cy="603.008" rx="6.791" ry="6.168"/>
	<ellipse fill="#B63C79" cx="-107.006" cy="619.51" rx="6.791" ry="6.166"/>
	<ellipse fill="#B63C79" cx="-122.973" cy="620.342" rx="7.158" ry="6.5"/>
	<ellipse fill="#B63C79" cx="-110.86" cy="635.342" rx="5.322" ry="4.834"/>
	<ellipse fill="#B63C79" cx="-123.89" cy="639.842" rx="4.405" ry="4"/>
	<ellipse fill="#B63C79" cx="-115.632" cy="650.676" rx="4.222" ry="3.832"/>
	<ellipse fill="#B63C79" cx="-125.175" cy="654.342" rx="4.221" ry="3.834"/>
	<ellipse fill="#B63C79" cx="-113.797" cy="663.01" rx="4.589" ry="4.166"/>
	<ellipse fill="#B63C79" cx="-116.549" cy="679.01" rx="3.854" ry="3.5"/>
	<ellipse fill="#B63C79" cx="-108.841" cy="672.51" rx="3.671" ry="3.334"/>
	<ellipse fill="#B63C79" cx="-125.358" cy="669.842" rx="4.771" ry="4.334"/>
	<ellipse fill="#B63C79" cx="-104.62" cy="687.01" rx="4.221" ry="3.834"/>
	<ellipse fill="#B63C79" cx="-138.021" cy="727.676" rx="6.791" ry="6.166"/>
	<ellipse fill="#B63C79" cx="-126.277" cy="746.674" rx="4.588" ry="4.166"/>
	<ellipse fill="#B63C79" cx="-126.644" cy="734.342" rx="4.222" ry="3.834"/>
	<ellipse fill="#B63C79" cx="-113.612" cy="741.842" rx="4.771" ry="4.334"/>
	<ellipse fill="#B63C79" cx="-98.196" cy="766.174" rx="3.304" ry="3"/>
	<ellipse fill="#B63C79" cx="-103.519" cy="753.008" rx="4.588" ry="4.166"/>
	<ellipse fill="#B63C79" cx="-115.265" cy="755.342" rx="5.322" ry="4.832"/>
	<ellipse fill="#B63C79" cx="-139.675" cy="741.174" rx="6.239" ry="5.666"/>
	<ellipse fill="#B63C79" cx="-105.354" cy="784.674" rx="3.854" ry="3.5"/>
	<ellipse fill="#B63C79" cx="-93.607" cy="785.342" rx="3.854" ry="3.5"/>
	<ellipse fill="#B63C79" cx="-106.455" cy="772.008" rx="3.854" ry="3.5"/>
	<ellipse fill="#B63C79" cx="-108.658" cy="763.674" rx="3.854" ry="3.5"/>
	<ellipse fill="#B63C79" cx="-96.36" cy="777.508" rx="3.304" ry="3"/>
	<ellipse fill="#B63C79" cx="-90.304" cy="793.342" rx="3.487" ry="3.166"/>
	<path fill="#D65490" d="M-173.66,609.521c0,99.408-43.169,179.988-96.417,179.988s-96.417-80.58-96.417-179.988
		c0-99.43,43.169-180.012,96.417-180.012S-173.66,510.092-173.66,609.521z"/>
	<path fill="#D65490" d="M-154.826,256.18c0,19.33-16.977,34.998-37.917,34.998c-20.939,0-37.916-15.668-37.916-34.998
		c0-19.336,16.977-35.004,37.916-35.004C-171.803,221.176-154.826,236.844-154.826,256.18z"/>
	<path fill="#D65490" d="M-310.826,259.18c0,19.33-16.977,34.998-37.917,34.998c-20.939,0-37.916-15.668-37.916-34.998
		c0-19.336,16.977-35.004,37.916-35.004C-327.803,224.176-310.826,239.844-310.826,259.18z"/>
	<g>
		<g>
			<path fill="#7DC6DD" d="M-354.55,120.168c0.65,0,2.082-0.986,0.781-0.986C-354.419,119.182-355.851,120.168-354.55,120.168
				L-354.55,120.168z"/>
		</g>
	</g>
	<g>
		<g>
			<path fill="none" stroke="#F2E4D2" stroke-miterlimit="10" d="M-186.659,121.675"/>
		</g>
	</g>
	<g>
		<g>
			<path fill="none" stroke="#F2E4D2" stroke-miterlimit="10" d="M-275.659,119.675"/>
		</g>
	</g>
	<path fill="#E06899" d="M-148.184,822.176l2.023,127.449c-2.206,25.479,41-4,41,29c0,32.062-120,28-119,14
		c0.778-10.891-6-128-59-122c-32.804,3.715-43.046,125.094-45,129c-3,6-114,29-116-13c-1.813-38.074,45,1,43.169-35.008
		c0,0,2.881-125.732,3.77-129.441H-148.184z"/>
	<path fill="#D6C370" d="M-442.151,976.021c0,0-4.187,4.984-2.193,10.965c0,0-12.559-7.375-16.347,0.996
		C-461.09,976.42-452.318,975.025-442.151,976.021z"/>
	<path fill="#D6C370" d="M-441.351,987.98c0,0-1.199,5.385,4.98,8.975c0,0-12.755-4.189-16.543,4.182
		C-453.312,989.574-451.518,986.982-441.351,987.98z"/>
	<path fill="#D6C370" d="M-435.076,999.684l7.841,2.83c0,0-8.395,3.072-11.97,13.586
		C-442.112,1009.107-441.204,1003.305-435.076,999.684z"/>
	<path fill="#D6C370" d="M-109.403,966.021c0,0,4.069,4.984,2.131,10.965c0,0,13.207-8.375,16.89-0.004
		C-89.996,965.42-99.521,965.025-109.403,966.021z"/>
	<path fill="#D6C370" d="M-109.21,978.98c0,0,0.193,4.385-5.812,7.975c0,0,14.369-4.189,18.051,4.182
		C-96.584,979.574-99.328,977.982-109.21,978.98z"/>
	<path fill="#D6C370" d="M-116.28,989.684l-7.621,2.83c0,0,8.158,3.072,11.634,13.586
		C-109.442,999.107-110.324,993.305-116.28,989.684z"/>
	<path fill="#D65490" d="M-397.177,829.602c0,0,139.461,50.713-3.889,123.271L-397.177,829.602z"/>
	<path fill="#D65490" d="M-147.897,827.129c0,0-124.187,45.307,1.429,119.307L-147.897,827.129z"/>
	<path fill="#7DC6DD" d="M75.548,400.002c-14.841-6.579-23.789-26.916-27.844-53.051c-1.788-11.528,1.847-27.787-13.702,0.717
		c0-18,17.333-89.334,4.667-56.667c-4.14,10.678,21.333-72.667,1.333-39.333C46.913,222.291,71.3,182.983,85,171.667
		C100.334,159,79.119,159.319,84.334,159C117,157,90.437,148.538,95,146.333c10.205-4.931,18.469,3.03,21.334-0.667
		c5.342-6.894-3.038-7.777-0.667-8.667c10.667-4,12.333,1.333,17.333,3.333c0,0,78.829,6.85,115.667,1.333
		c13.587-2.034,27.333-13.333,23.333-3.333c-2.984,7.46,14.86-1.998,14,4.667c-2.667,20.667,14.95,5.36,16.667,6.667
		c3.355,2.554-12.492,2.034,4,21.333c10.685,12.504,26.993,31.484,35.056,57.408c-7.459-5.424,5.215,15.9,9.275,33.497
		c-12.368-7.215,1.546,9.275,9.791,26.797c-36.072-20.613,5.669,18.036,1.547,51.018c-30.92-43.287,2.061,46.38-37.369,60.06
		L75.548,400.002z"/>
	<path fill="#52BFD1" d="M318.213,255.004c0,19.33-16.977,34.998-37.917,34.998c-20.939,0-37.916-15.668-37.916-34.998
		c0-19.334,16.977-35.002,37.916-35.002C301.236,220.002,318.213,235.67,318.213,255.004z"/>
	<path fill="#52BFD1" d="M162.213,258.004c0,19.33-16.977,34.998-37.917,34.998c-20.939,0-37.916-15.668-37.916-34.998
		c0-19.334,16.977-35.002,37.916-35.002C145.236,223.002,162.213,238.67,162.213,258.004z"/>
	<g>
		<g>
			<path fill="#7DC6DD" d="M119.489,119.993c0.65,0,2.082-0.986,0.781-0.986C119.62,119.007,118.188,119.993,119.489,119.993
				L119.489,119.993z"/>
		</g>
	</g>
	<g>
		<g>
			<path fill="none" stroke="#F2E4D2" stroke-miterlimit="10" d="M286.38,120.5"/>
		</g>
	</g>
	<g>
		<g>
			<path fill="none" stroke="#F2E4D2" stroke-miterlimit="10" d="M198.38,119.5"/>
		</g>
	</g>
	<path fill="#7DC6DD" d="M323.357,821.364l-9.409,174.67c25.552,21.466-2.013,37.357-2.013,37.357l-16.269,154.276
		c25.5,13.5,54.5,3.667,100-13.333c-23.25,14.25,1.334,19,1.334,19s-24.265,14.294,1.271,23.601
		C406.822,1220.052,262,1224,255,1202.5c0,0,54.5-349.5-66.619-332.687C111.41,880.498,133.5,1203,133.5,1203
		c-6.593,13.185-92.896,20.783-130.5,15.5c0,0,27.5-11-1.75-18.25c21.5-7.75,7.557-13.524-1.978-20.25
		c0,0,90.308,26.873,97.808,7.873l-6.792-150.537c-17.173-8.485-15.362-28.296,0.566-39.05
		c-2.68-88.741-16.966-175.128-16.536-176.922H323.357z"/>
	<g>
		<path fill="#7DC6DD" d="M75.335,415l-29.169,81.501c0,0-3.499,1.334-7.665,8.667c7.166-3.5,4.666,4.001,2.666,6.167
			s-15.021,13.084-16.619,19.779c11.453-8.28,9.911,2.613,5.453,6.054c-3.5,3.5-6.653,2.938-11.05,12.432
			c11.392-4.297,10.973-0.146,7.529,1.911c-4.747,2.835-5.341,3.898-6.479,7.823c11.181-7.685-1.332,14.001-1.332,14.001
			c-17.671,79.09-20.56,135.287-3.667,153.335c-14.824,10.15-21.368,28.406,8.453,35.778c17.5,1.5,14.692-14.629,5.026-24.963
			c-3.834-9.333,13.916,6.672,15.916,1.005s-12.396-20.487-12.396-20.487S9.668,691.337,44.572,579.06
			c0,0,10.264-28.129,20.282-57.742c0,0-4.478,21.196-8.74,53.028c-0.855,6.389-13.153,37.169-9.446,30.991
			c8-13.334,6.085-2.729,5.684,1.357c-0.17,1.729-5.655,13.741-4.713,12.246c4.14-6.568,5.166-1.213,3.52,0.894
			c-2.89,3.696-9.015,21.556-7.299,18.723c7.738-12.777,8.188-2.879,5.933,0.462c-3.163,4.687-10.582,21.101-7.913,18.254
			c6.748-7.198,9.547,3.516,6.845,7.378c-9.958,14.234-10.776,25.878-8.431,22.894c10.611-13.498,10.493-2.161,8.335,1.698
			c-3.749,6.705-10.029,25.714-7.229,22.834c8.913-9.168,10.601,0.996,8.535,6.278c-1.063,2.72-4.433,16.26-3.44,14.605
			c3.819-6.367,6.741-1.925,4.863,0.593c-6.392,8.571-6.924,28.682-5.458,25.55c6.197-13.243,8.491-4.124,9.554,1.262
			c0.858,4.351-13.12,14.612-6.498,23.865c7.215-17.402,17.675,0.855,13.827,4.472c-3.642,3.422-3.787,19.461-2.453,16.834
			c8.234-16.214,12.568,7.439,13.674,9.465h122.667l-6.001-400H75.335z"/>
		<path fill="#7DC6DD" d="M324.146,415l29.169,81.501c0,0,3.499,1.334,7.665,8.667c-7.166-3.5-4.666,4.001-2.666,6.167
			s15.021,13.084,16.619,19.779c-11.453-8.28-9.911,2.613-5.453,6.054c3.5,3.5,6.653,2.938,11.05,12.432
			c-11.392-4.297-10.973-0.146-7.529,1.911c4.747,2.835,5.341,3.898,6.479,7.823c-11.181-7.685,1.332,14.001,1.332,14.001
			c17.671,79.09,20.56,135.287,3.667,153.335c14.824,10.15,21.368,28.406-8.453,35.778c-17.5,1.5-14.692-14.629-5.026-24.963
			c3.834-9.333-13.916,6.672-15.916,1.005s12.396-20.487,12.396-20.487s22.334-26.666-12.57-138.943
			c0,0-10.264-28.129-20.282-57.742c0,0,4.478,21.196,8.74,53.028c0.855,6.389,13.153,37.169,9.446,30.991
			c-8-13.334-6.085-2.729-5.684,1.357c0.17,1.729,5.655,13.741,4.713,12.246c-4.14-6.568-5.166-1.213-3.52,0.894
			c2.89,3.696,9.015,21.556,7.299,18.723c-7.738-12.777-8.188-2.879-5.933,0.462c3.163,4.687,10.582,21.101,7.913,18.254
			c-6.748-7.198-9.547,3.516-6.845,7.378c9.958,14.234,10.776,25.878,8.431,22.894c-10.611-13.498-10.493-2.161-8.335,1.698
			c3.749,6.705,10.029,25.714,7.229,22.834c-8.913-9.168-10.601,0.996-8.535,6.278c1.063,2.72,4.433,16.26,3.44,14.605
			c-3.819-6.367-6.741-1.925-4.863,0.593c6.392,8.571,6.924,28.682,5.458,25.55c-6.197-13.243-8.491-4.124-9.554,1.262
			c-0.858,4.351,13.12,14.612,6.498,23.865c-7.215-17.402-17.675,0.855-13.827,4.472c3.642,3.422,3.787,19.461,2.453,16.834
			c-8.234-16.214-12.568,7.439-13.674,9.465h-135.48l-2.667-400H324.146z"/>
	</g>
	<path fill="#D6C370" d="M6.318,752.152c0,0,4.053,5.093,10.311,4.325c0,0-9.722,10.845-2.268,16.22
		C2.949,770.793,3.322,761.919,6.318,752.152z"/>
	<path fill="#D6C370" d="M17.963,758.28c0,0,6.111,4.142,8.594,0.13c0,0-2.655,9.055,6.141,11.716
		C21.285,772.032,18.304,768.491,17.963,758.28z"/>
	<path fill="#D6C370" d="M29.671,754.87l3.968-7.332c0,0,1.787,8.758,11.651,13.861C37.943,763.23,32.34,761.469,29.671,754.87z"/>
	<path fill="#D6C370" d="M394.192,749.273c0,0-4.046,5.002-10.296,4.329c0,0,9.717,10.439,2.275,15.757
		C397.568,767.372,397.19,758.742,394.192,749.273z"/>
	<path fill="#D6C370" d="M383.188,758.303c0,0-4.106,1.216-9.894-0.268c0,0,6.983,7.496,2.014,15.173
		C385.18,767.176,385.442,764.942,383.188,758.303z"/>
	<path fill="#D6C370" d="M370.738,758.55l-5.555-5.936c0,0,0.318,8.712-8.037,15.979
		C364.688,768.498,369.698,765.442,370.738,758.55z"/>
	<path fill="#7DC6DD" d="M10,1233.25"/>
</g>
<g id="face_layer" display="none">
	<g display="inline">
		<path fill="#FFFFFF" d="M-1125.94,175.041c13.137,9.59,16.013,28.012,6.423,41.151c-9.589,13.137-28.013,16.012-41.149,6.422
			c-8.977-6.553-13.162-17.229-11.854-27.526l41.434-23.063C-1129.308,172.838-1127.583,173.842-1125.94,175.041z"/>
		<path d="M-1141.66,180.073c4.958,3.62,6.045,10.573,2.425,15.532s-10.575,6.045-15.533,2.426
			c-3.389-2.475-4.969-6.504-4.475-10.391l15.641-8.706C-1142.931,179.242-1142.28,179.62-1141.66,180.073z"/>
	</g>
	<g display="inline">
		<path fill="#FFFFFF" d="M-1202.743,228.402c-19.008,13.562-45.411,9.148-58.974-9.859c-13.562-19.008-9.148-45.412,9.858-58.974
			l66.791,36.417C-1185.667,208.475-1191.776,220.576-1202.743,228.402z"/>
		<path d="M-1220.885,178.337c-4.997,3.565-6.291,10.32-2.89,15.086c3.401,4.768,10.209,5.74,15.206,2.176
			c3.415-2.438,5.101-6.363,4.741-10.126l-15.109-8.262C-1219.606,177.517-1220.26,177.892-1220.885,178.337z"/>
	</g>
	<path display="inline" d="M-1227.001,256.002c14.174-8.723,4.333,21.334,44.333,15.334s25.667-13.334,41.667-17.334
		s22.797,50.809,16,74c-5.667,19.334-26.189-4.748-27-5.334c-12-8.666-50-8.666-68,6.334s-22,10-23,0
		S-1240.001,264.002-1227.001,256.002z"/>
	<path display="inline" fill="#FDFDFE" d="M-1214.667,262.002c0,0,1.512,34.414,2.863,32.252
		c1.588-2.541,12.803-13.127,12.803-13.127c5.94,3.279,9.289,16.031,9.68,16.08c0.883,0.107,8.861-15.977,13.32-18.539
		c0.784-0.449,18.56,12.492,20.062,13.834c1.706,1.521,0.904-23.66,1.042-28.893
		C-1165.848,266.451-1200.888,282.061-1214.667,262.002z"/>
	<path display="inline" fill="#FDFDFE" d="M-1219.876,328.861c0,0,3.743-20.414,3.973-23.883
		c0.16-2.416,12.961,13.434,14.008,10.816c1.883-4.707,5.061-8.943,5.061-8.943c1.588,2.043,9.415,7.414,9.415,7.414
		c5.94-2.633,11.378-8.67,11.769-8.709c0.883-0.086,6.25,7.594,10.709,9.65c0.784,0.361,14.028-8.621,15.064-10.004
		c1.059-1.412-0.021,15.336,0.117,19.537C-1167.531,311.207-1203.21,316.611-1219.876,328.861z"/>
	<path display="inline" d="M-763.691,260.971l71.849,1.467c0,0-12.613,48.428-37.971,48.428
		C-755.172,310.865-763.691,260.971-763.691,260.971z"/>
	<path display="inline" fill="#FDFDFE" d="M-748.58,261.342c0,0,2.937,19.846,4.177,21.133l9.35-20.863l16.197,0.334
		c0.549-0.182,6.787,18.557,6.787,18.557c0.454,0.074,5.187-16.428,5.282-18.518C-707.616,262.191-748.58,261.342-748.58,261.342z"
		/>
	<circle display="inline" fill="#FFFFFF" cx="-766.849" cy="204.455" r="43.25"/>
	<circle display="inline" cx="-783.849" cy="198.455" r="12.25"/>
	<circle display="inline" fill="#FFFFFF" cx="-688.599" cy="208.705" r="28.5"/>
	<circle display="inline" cx="-696.599" cy="204.205" r="11.25"/>
	<path display="inline" d="M-233.613,268.835l-71.798-2.698c0,0,12.762-3.942,38.103-3.037
		C-241.966,264.005-233.613,268.835-233.613,268.835z"/>
	<path display="inline" fill="#FDFDFE" d="M-290.125,263.625c0,0,2.814,19.619,4.055,20.906l9.18-21.578
		C-276.891,262.953-284.891,263.031-290.125,263.625z"/>
	<path display="inline" fill="#FFFFFF" d="M-265.4,206.163c0.224,23.887-18.957,43.43-42.844,43.652
		c-23.887,0.224-43.43-18.959-43.652-42.847c-0.06-6.469,1.302-12.618,3.798-18.151l77.374-3.063
		C-267.392,191.814-265.469,198.763-265.4,206.163z"/>
	<path display="inline" d="M-296.87,213.059c0.374,6.758-4.796,12.538-11.551,12.914c-6.755,0.375-12.537-4.796-12.913-11.553
		c-0.375-6.753,4.796-12.534,11.551-12.91C-303.027,201.134-297.247,206.306-296.87,213.059z"/>
	<path display="inline" fill="#FFFFFF" d="M-205.025,219.12c-1.824,15.636-15.978,26.83-31.61,25.006
		c-15.635-1.825-26.829-15.979-25.004-31.613c0.506-4.335,1.958-8.326,4.126-11.794l51.118,5.763
		C-205.03,210.414-204.51,214.708-205.025,219.12z"/>
	<circle display="inline" cx="-233.965" cy="220.008" r="11.25"/>
	<path display="inline" fill="#FDFDFE" d="M-250.5,264.5c0,0-3.533,19.245-4.818,20.489l-8.43-21.881
		C-263.748,263.108-255.71,263.727-250.5,264.5z"/>
	<g display="inline">
		<path fill="#FFFFFF" d="M263.94,174.041c13.137,9.59,16.013,28.012,6.423,41.15c-9.589,13.137-28.013,16.012-41.149,6.422
			c-8.977-6.553-13.162-17.229-11.854-27.525l41.434-23.063C260.573,171.838,262.298,172.842,263.94,174.041z"/>
		<path d="M248.221,179.072c4.958,3.621,6.045,10.574,2.425,15.533s-10.575,6.045-15.533,2.426
			c-3.389-2.475-4.969-6.504-4.475-10.391l15.641-8.707C246.95,178.242,247.601,178.62,248.221,179.072z"/>
	</g>
	<g display="inline">
		<path fill="#FFFFFF" d="M187.138,227.402c-19.008,13.562-45.411,9.148-58.974-9.859s-9.148-45.412,9.858-58.975l66.791,36.418
			C204.214,207.475,198.104,219.576,187.138,227.402z"/>
		<path d="M168.996,177.338c-4.997,3.564-6.291,10.32-2.89,15.086c3.401,4.768,10.209,5.74,15.206,2.176
			c3.415-2.438,5.101-6.363,4.741-10.127l-15.109-8.262C170.274,176.517,169.621,176.892,168.996,177.338z"/>
	</g>
	<path display="inline" d="M162.88,255.002c14.174-8.723,4.333,21.334,44.333,15.334s25.667-13.334,41.667-17.334
		s22.797,50.809,16,74c-5.667,19.334-26.189-4.748-27-5.334c-12-8.666-50-8.666-68,6.334s-22,10-23,0S149.88,263.002,162.88,255.002
		z"/>
	<path display="inline" fill="#FDFDFE" d="M175.214,261.002c0,0,1.512,34.414,2.863,32.252c1.588-2.541,12.803-13.127,12.803-13.127
		c5.94,3.279,9.289,16.031,9.68,16.08c0.883,0.107,8.861-15.977,13.32-18.539c0.784-0.449,18.56,12.492,20.062,13.834
		c1.706,1.521,0.904-23.66,1.042-28.893C224.033,265.451,188.993,281.061,175.214,261.002z"/>
	<path display="inline" fill="#FDFDFE" d="M170.005,327.861c0,0,3.743-20.414,3.973-23.883c0.16-2.416,12.961,13.434,14.008,10.816
		c1.883-4.707,5.061-8.943,5.061-8.943c1.588,2.043,9.415,7.414,9.415,7.414c5.94-2.633,11.378-8.67,11.769-8.709
		c0.883-0.086,6.25,7.594,10.709,9.65c0.784,0.361,14.028-8.621,15.064-10.004c1.059-1.412-0.021,15.336,0.117,19.537
		C222.35,310.207,186.671,315.611,170.005,327.861z"/>
</g>
<g id="Layer_4" display="none">
	<g display="inline">
		<g opacity="0.7">
			<g>
				<path fill="#74AFD1" d="M-1264.592,128.164c1.935,0,1.935-3,0-3S-1266.527,128.164-1264.592,128.164L-1264.592,128.164z"/>
			</g>
		</g>
		<g opacity="0.7">
			<g>
				<path fill="#74AFD1" d="M-1275.742,122.782c1.935,0,1.935-3,0-3S-1277.676,122.782-1275.742,122.782L-1275.742,122.782z"/>
			</g>
		</g>
		<g opacity="0.7">
			<g>
				<path fill="#74AFD1" d="M-1272.377,117.399c1.935,0,1.935-3,0-3S-1274.312,117.399-1272.377,117.399L-1272.377,117.399z"/>
			</g>
		</g>
		<g opacity="0.7">
			<g>
				<path fill="#74AFD1" d="M-1274.204,132.105c1.935,0,1.935-3,0-3S-1276.138,132.105-1274.204,132.105L-1274.204,132.105z"/>
			</g>
		</g>
		<g opacity="0.7">
			<g>
				<path fill="#74AFD1" d="M-1294.676,99.426c1.935,0,1.935-3,0-3S-1296.611,99.426-1294.676,99.426L-1294.676,99.426z"/>
			</g>
		</g>
		<g opacity="0.7">
			<g>
				<path fill="#74AFD1" d="M-1287.372,104.136c1.935,0,1.935-3,0-3S-1289.306,104.136-1287.372,104.136L-1287.372,104.136z"/>
			</g>
		</g>
		<g opacity="0.7">
			<g>
				<path fill="#74AFD1" d="M-1284.584,110.191c1.935,0,1.935-3,0-3S-1286.519,110.191-1284.584,110.191L-1284.584,110.191z"/>
			</g>
		</g>
		<g opacity="0.7">
			<g>
				<path fill="#74AFD1" d="M-1286.506,116.15c1.935,0,1.935-3,0-3S-1288.441,116.15-1286.506,116.15L-1286.506,116.15z"/>
			</g>
		</g>
		<g opacity="0.7">
			<g>
				<path fill="#74AFD1" d="M-1277.183,112.594c1.935,0,1.935-3,0-3S-1279.118,112.594-1277.183,112.594L-1277.183,112.594z"/>
			</g>
		</g>
		<g opacity="0.7">
			<g>
				<path fill="#74AFD1" d="M-1291.12,107.692c1.935,0,1.935-3,0-3S-1293.055,107.692-1291.12,107.692L-1291.12,107.692z"/>
			</g>
		</g>
		<g opacity="0.7">
			<g>
				<path fill="#74AFD1" d="M-1294.1,103.367c1.935,0,1.935-3,0-3S-1296.034,103.367-1294.1,103.367L-1294.1,103.367z"/>
			</g>
		</g>
		<g opacity="0.7">
			<g>
				<path fill="#74AFD1" d="M-1261.901,124.224c1.935,0,1.935-3,0-3S-1263.836,124.224-1261.901,124.224L-1261.901,124.224z"/>
			</g>
		</g>
		<g opacity="0.7">
			<g>
				<path fill="#74AFD1" d="M-1269.014,120.475c1.935,0,1.935-3,0-3S-1270.948,120.475-1269.014,120.475L-1269.014,120.475z"/>
			</g>
		</g>
		<g opacity="0.7">
			<g>
				<path fill="#74AFD1" d="M-1270.647,125.473c1.935,0,1.935-3,0-3S-1272.582,125.473-1270.647,125.473L-1270.647,125.473z"/>
			</g>
		</g>
		<g opacity="0.7">
			<g>
				<path fill="#74AFD1" d="M-1280.644,117.592c1.935,0,1.935-3,0-3S-1282.578,117.592-1280.644,117.592L-1280.644,117.592z"/>
			</g>
		</g>
		<g opacity="0.7">
			<g>
				<path fill="#74AFD1" d="M-1281.316,122.59c1.935,0,1.935-3,0-3S-1283.251,122.59-1281.316,122.59L-1281.316,122.59z"/>
			</g>
		</g>
		<g opacity="0.7">
			<g>
				<path fill="#74AFD1" d="M-1291.889,102.31c1.935,0,1.935-3,0-3S-1293.823,102.31-1291.889,102.31L-1291.889,102.31z"/>
			</g>
		</g>
		<g opacity="0.7">
			<g>
				<path fill="#74AFD1" d="M-1296.983,97.6c1.935,0,1.935-3,0-3S-1298.917,97.6-1296.983,97.6L-1296.983,97.6z"/>
			</g>
		</g>
		<g opacity="0.7">
			<g>
				<path fill="#74AFD1" d="M-1295.541,101.733c1.935,0,1.935-3,0-3S-1297.476,101.733-1295.541,101.733L-1295.541,101.733z"/>
			</g>
		</g>
		<g opacity="0.7">
			<g>
				<path fill="#74AFD1" d="M-1289.486,102.213c1.935,0,1.935-3,0-3S-1291.42,102.213-1289.486,102.213L-1289.486,102.213z"/>
			</g>
		</g>
		<g opacity="0.7">
			<g>
				<path fill="#74AFD1" d="M-1291.504,105.193c1.935,0,1.935-3,0-3S-1293.439,105.193-1291.504,105.193L-1291.504,105.193z"/>
			</g>
		</g>
		<g opacity="0.7">
			<g>
				<path fill="#74AFD1" d="M-1289.102,105.866c1.935,0,1.935-3,0-3S-1291.036,105.866-1289.102,105.866L-1289.102,105.866z"/>
			</g>
		</g>
		<g opacity="0.7">
			<g>
				<path fill="#74AFD1" d="M-1285.257,105.578c1.935,0,1.935-3,0-3S-1287.191,105.578-1285.257,105.578L-1285.257,105.578z"/>
			</g>
		</g>
		<g opacity="0.7">
			<g>
				<path fill="#74AFD1" d="M-1289.871,109.807c1.935,0,1.935-3,0-3S-1291.805,109.807-1289.871,109.807L-1289.871,109.807z"/>
			</g>
		</g>
		<g opacity="0.7">
			<g>
				<path fill="#74AFD1" d="M-1286.987,106.25c1.935,0,1.935-3,0-3S-1288.921,106.25-1286.987,106.25L-1286.987,106.25z"/>
			</g>
		</g>
		<g opacity="0.7">
			<g>
				<path fill="#74AFD1" d="M-1282.854,107.692c1.935,0,1.935-3,0-3S-1284.789,107.692-1282.854,107.692L-1282.854,107.692z"/>
			</g>
		</g>
		<g opacity="0.7">
			<g>
				<path fill="#74AFD1" d="M-1287.179,108.845c1.935,0,1.935-3,0-3S-1289.114,108.845-1287.179,108.845L-1287.179,108.845z"/>
			</g>
		</g>
		<g opacity="0.7">
			<g>
				<path fill="#74AFD1" d="M-1286.987,112.113c1.935,0,1.935-3,0-3S-1288.921,112.113-1286.987,112.113L-1286.987,112.113z"/>
			</g>
		</g>
		<g opacity="0.7">
			<g>
				<path fill="#74AFD1" d="M-1284.296,113.267c1.935,0,1.935-3,0-3S-1286.23,113.267-1284.296,113.267L-1284.296,113.267z"/>
			</g>
		</g>
		<g opacity="0.7">
			<g>
				<path fill="#74AFD1" d="M-1281.22,111.537c1.935,0,1.935-3,0-3S-1283.155,111.537-1281.22,111.537L-1281.22,111.537z"/>
			</g>
		</g>
		<g opacity="0.7">
			<g>
				<path fill="#74AFD1" d="M-1279.202,114.42c1.935,0,1.935-3,0-3S-1281.136,114.42-1279.202,114.42L-1279.202,114.42z"/>
			</g>
		</g>
		<g opacity="0.7">
			<g>
				<path fill="#74AFD1" d="M-1284.007,118.745c1.935,0,1.935-3,0-3S-1285.942,118.745-1284.007,118.745L-1284.007,118.745z"/>
			</g>
		</g>
		<g opacity="0.7">
			<g>
				<path fill="#74AFD1" d="M-1283.527,115.381c1.935,0,1.935-3,0-3S-1285.461,115.381-1283.527,115.381L-1283.527,115.381z"/>
			</g>
		</g>
		<g opacity="0.7">
			<g>
				<path fill="#74AFD1" d="M-1274.973,114.324c1.935,0,1.935-3,0-3S-1276.907,114.324-1274.973,114.324L-1274.973,114.324z"/>
			</g>
		</g>
		<g opacity="0.7">
			<g>
				<path fill="#74AFD1" d="M-1277.183,118.745c1.935,0,1.935-3,0-3S-1279.118,118.745-1277.183,118.745L-1277.183,118.745z"/>
			</g>
		</g>
		<g opacity="0.7">
			<g>
				<path fill="#74AFD1" d="M-1279.298,124.416c1.935,0,1.935-3,0-3S-1281.232,124.416-1279.298,124.416L-1279.298,124.416z"/>
			</g>
		</g>
		<g opacity="0.7">
			<g>
				<path fill="#74AFD1" d="M-1277.472,128.933c1.935,0,1.935-3,0-3S-1279.406,128.933-1277.472,128.933L-1277.472,128.933z"/>
			</g>
		</g>
		<g opacity="0.7">
			<g>
				<path fill="#74AFD1" d="M-1274.204,126.819c1.935,0,1.935-3,0-3S-1276.138,126.819-1274.204,126.819L-1274.204,126.819z"/>
			</g>
		</g>
		<g opacity="0.7">
			<g>
				<path fill="#74AFD1" d="M-1272.186,137.968c1.935,0,1.935-3,0-3S-1274.12,137.968-1272.186,137.968L-1272.186,137.968z"/>
			</g>
		</g>
		<g opacity="0.7">
			<g>
				<path fill="#74AFD1" d="M-1267.86,130.567c1.935,0,1.935-3,0-3S-1269.795,130.567-1267.86,130.567L-1267.86,130.567z"/>
			</g>
		</g>
		<g opacity="0.7">
			<g>
				<path fill="#74AFD1" d="M-1265.458,135.565c1.935,0,1.935-3,0-3S-1267.392,135.565-1265.458,135.565L-1265.458,135.565z"/>
			</g>
		</g>
		<g opacity="0.7">
			<g>
				<path fill="#74AFD1" d="M-1259.499,130.375c1.935,0,1.935-3,0-3S-1261.433,130.375-1259.499,130.375L-1259.499,130.375z"/>
			</g>
		</g>
		<g opacity="0.7">
			<g>
				<path fill="#74AFD1" d="M-1257.48,127.972c1.935,0,1.935-3,0-3S-1259.415,127.972-1257.48,127.972L-1257.48,127.972z"/>
			</g>
		</g>
		<g opacity="0.7">
			<g>
				<path fill="#74AFD1" d="M-1265.938,123.647c1.935,0,1.935-3,0-3S-1267.873,123.647-1265.938,123.647L-1265.938,123.647z"/>
			</g>
		</g>
		<g opacity="0.7">
			<g>
				<path fill="#74AFD1" d="M-1253.731,130.567c1.935,0,1.935-3,0-3S-1255.666,130.567-1253.731,130.567L-1253.731,130.567z"/>
			</g>
		</g>
		<g opacity="0.7">
			<g>
				<path fill="#74AFD1" d="M-1247.772,129.702c1.935,0,1.935-3,0-3S-1249.707,129.702-1247.772,129.702L-1247.772,129.702z"/>
			</g>
		</g>
		<g opacity="0.7">
			<g>
				<path fill="#74AFD1" d="M-1259.402,135.084c1.935,0,1.935-3,0-3S-1261.337,135.084-1259.402,135.084L-1259.402,135.084z"/>
			</g>
		</g>
		<g opacity="0.7">
			<g>
				<path fill="#74AFD1" d="M-1253.059,137.103c1.935,0,1.935-3,0-3S-1254.993,137.103-1253.059,137.103L-1253.059,137.103z"/>
			</g>
		</g>
		<g opacity="0.7">
			<g>
				<path fill="#74AFD1" d="M-1268.917,140.083c1.935,0,1.935-3,0-3S-1270.852,140.083-1268.917,140.083L-1268.917,140.083z"/>
			</g>
		</g>
		<g opacity="0.7">
			<g>
				<path fill="#74AFD1" d="M-1269.975,147.002c1.935,0,1.935-3,0-3S-1271.909,147.002-1269.975,147.002L-1269.975,147.002z"/>
			</g>
		</g>
		<g opacity="0.7">
			<g>
				<path fill="#74AFD1" d="M-1262.189,141.14c1.935,0,1.935-3,0-3S-1264.124,141.14-1262.189,141.14L-1262.189,141.14z"/>
			</g>
		</g>
		<g opacity="0.7">
			<g>
				<path fill="#74AFD1" d="M-1265.458,145.753c1.935,0,1.935-3,0-3S-1267.392,145.753-1265.458,145.753L-1265.458,145.753z"/>
			</g>
		</g>
		<g opacity="0.7">
			<g>
				<path fill="#74AFD1" d="M-1254.789,143.542c1.935,0,1.935-3,0-3S-1256.723,143.542-1254.789,143.542L-1254.789,143.542z"/>
			</g>
		</g>
	</g>
	<g display="inline">
		<g opacity="0.7">
			<g>
				<path fill="#74AFD1" d="M-1183.448,107.845c1.935,0,1.935-3,0-3S-1185.383,107.845-1183.448,107.845L-1183.448,107.845z"/>
			</g>
		</g>
		<g opacity="0.7">
			<g>
				<path fill="#74AFD1" d="M-1188.283,96.446c1.935,0,1.935-3,0-3C-1190.217,93.446-1190.217,96.446-1188.283,96.446
					L-1188.283,96.446z"/>
			</g>
		</g>
		<g opacity="0.7">
			<g>
				<path fill="#74AFD1" d="M-1182.204,94.618c1.935,0,1.935-3,0-3S-1184.139,94.618-1182.204,94.618L-1182.204,94.618z"/>
			</g>
		</g>
		<g opacity="0.7">
			<g>
				<path fill="#74AFD1" d="M-1193.273,104.472c1.935,0,1.935-3,0-3S-1195.208,104.472-1193.273,104.472L-1193.273,104.472z"/>
			</g>
		</g>
		<g opacity="0.7">
			<g>
				<path fill="#74AFD1" d="M-1187.12,66.403c1.935,0,1.935-3,0-3S-1189.055,66.403-1187.12,66.403L-1187.12,66.403z"/>
			</g>
		</g>
		<g opacity="0.7">
			<g>
				<path fill="#74AFD1" d="M-1184.733,74.76c1.935,0,1.935-3,0-3S-1186.668,74.76-1184.733,74.76L-1184.733,74.76z"/>
			</g>
		</g>
		<g opacity="0.7">
			<g>
				<path fill="#74AFD1" d="M-1186.63,81.151c1.935,0,1.935-3,0-3S-1188.564,81.151-1186.63,81.151L-1186.63,81.151z"/>
			</g>
		</g>
		<g opacity="0.7">
			<g>
				<path fill="#74AFD1" d="M-1192.004,84.364c1.935,0,1.935-3,0-3S-1193.938,84.364-1192.004,84.364L-1192.004,84.364z"/>
			</g>
		</g>
		<g opacity="0.7">
			<g>
				<path fill="#74AFD1" d="M-1182.65,87.836c1.935,0,1.935-3,0-3S-1184.585,87.836-1182.65,87.836L-1182.65,87.836z"/>
			</g>
		</g>
		<g opacity="0.7">
			<g>
				<path fill="#74AFD1" d="M-1189.896,74.962c1.935,0,1.935-3,0-3C-1191.831,71.962-1191.831,74.962-1189.896,74.962
					L-1189.896,74.962z"/>
			</g>
		</g>
		<g opacity="0.7">
			<g>
				<path fill="#74AFD1" d="M-1189.285,69.746c1.935,0,1.935-3,0-3S-1191.22,69.746-1189.285,69.746L-1189.285,69.746z"/>
			</g>
		</g>
		<g opacity="0.7">
			<g>
				<path fill="#74AFD1" d="M-1178.827,106.656c1.935,0,1.935-3,0-3S-1180.762,106.656-1178.827,106.656L-1178.827,106.656z"/>
			</g>
		</g>
		<g opacity="0.7">
			<g>
				<path fill="#74AFD1" d="M-1181.702,99.148c1.935,0,1.935-3,0-3S-1183.637,99.148-1181.702,99.148L-1181.702,99.148z"/>
			</g>
		</g>
		<g opacity="0.7">
			<g>
				<path fill="#74AFD1" d="M-1186.227,101.829c1.935,0,1.935-3,0-3S-1188.161,101.829-1186.227,101.829L-1186.227,101.829z"/>
			</g>
		</g>
		<g opacity="0.7">
			<g>
				<path fill="#74AFD1" d="M-1188.547,89.313c1.935,0,1.935-3,0-3S-1190.481,89.313-1188.547,89.313L-1188.547,89.313z"/>
			</g>
		</g>
		<g opacity="0.7">
			<g>
				<path fill="#74AFD1" d="M-1192.348,92.627c1.935,0,1.935-3,0-3S-1194.282,92.627-1192.348,92.627L-1192.348,92.627z"/>
			</g>
		</g>
		<g opacity="0.7">
			<g>
				<path fill="#74AFD1" d="M-1186.926,70.408c1.935,0,1.935-3,0-3S-1188.86,70.408-1186.926,70.408L-1186.926,70.408z"/>
			</g>
		</g>
		<g opacity="0.7">
			<g>
				<path fill="#74AFD1" d="M-1187.65,63.509c1.935,0,1.935-3,0-3S-1189.585,63.509-1187.65,63.509L-1187.65,63.509z"/>
			</g>
		</g>
		<g opacity="0.7">
			<g>
				<path fill="#74AFD1" d="M-1189.292,67.566c1.935,0,1.935-3,0-3C-1191.226,64.566-1191.226,67.566-1189.292,67.566
					L-1189.292,67.566z"/>
			</g>
		</g>
		<g opacity="0.7">
			<g>
				<path fill="#74AFD1" d="M-1185.056,71.92c1.935,0,1.935-3,0-3S-1186.99,71.92-1185.056,71.92L-1185.056,71.92z"/>
			</g>
		</g>
		<g opacity="0.7">
			<g>
				<path fill="#74AFD1" d="M-1188.538,72.831c1.935,0,1.935-3,0-3C-1190.472,69.831-1190.472,72.831-1188.538,72.831
					L-1188.538,72.831z"/>
			</g>
		</g>
		<g opacity="0.7">
			<g>
				<path fill="#74AFD1" d="M-1187.175,74.919c1.935,0,1.935-3,0-3S-1189.109,74.919-1187.175,74.919L-1187.175,74.919z"/>
			</g>
		</g>
		<g opacity="0.7">
			<g>
				<path fill="#74AFD1" d="M-1184.095,77.239c1.935,0,1.935-3,0-3S-1186.029,77.239-1184.095,77.239L-1184.095,77.239z"/>
			</g>
		</g>
		<g opacity="0.7">
			<g>
				<path fill="#74AFD1" d="M-1190.352,77.375c1.935,0,1.935-3,0-3S-1192.286,77.375-1190.352,77.375L-1190.352,77.375z"/>
			</g>
		</g>
		<g opacity="0.7">
			<g>
				<path fill="#74AFD1" d="M-1185.838,76.604c1.935,0,1.935-3,0-3S-1187.772,76.604-1185.838,76.604L-1185.838,76.604z"/>
			</g>
		</g>
		<g opacity="0.7">
			<g>
				<path fill="#74AFD1" d="M-1183.681,80.412c1.935,0,1.935-3,0-3S-1185.615,80.412-1183.681,80.412L-1183.681,80.412z"/>
			</g>
		</g>
		<g opacity="0.7">
			<g>
				<path fill="#74AFD1" d="M-1187.695,78.428c1.935,0,1.935-3,0-3S-1189.63,78.428-1187.695,78.428L-1187.695,78.428z"/>
			</g>
		</g>
		<g opacity="0.7">
			<g>
				<path fill="#74AFD1" d="M-1189.704,81.012c1.935,0,1.935-3,0-3C-1191.638,78.012-1191.638,81.012-1189.704,81.012
					L-1189.704,81.012z"/>
			</g>
		</g>
		<g opacity="0.7">
			<g>
				<path fill="#74AFD1" d="M-1188.441,83.653c1.935,0,1.935-3,0-3C-1190.375,80.653-1190.375,83.653-1188.441,83.653
					L-1188.441,83.653z"/>
			</g>
		</g>
		<g opacity="0.7">
			<g>
				<path fill="#74AFD1" d="M-1184.988,84.38c1.935,0,1.935-3,0-3S-1186.923,84.38-1184.988,84.38L-1184.988,84.38z"/>
			</g>
		</g>
		<g opacity="0.7">
			<g>
				<path fill="#74AFD1" d="M-1185.371,87.879c1.935,0,1.935-3,0-3S-1187.306,87.879-1185.371,87.879L-1185.371,87.879z"/>
			</g>
		</g>
		<g opacity="0.7">
			<g>
				<path fill="#74AFD1" d="M-1191.836,87.962c1.935,0,1.935-3,0-3S-1193.771,87.962-1191.836,87.962L-1191.836,87.962z"/>
			</g>
		</g>
		<g opacity="0.7">
			<g>
				<path fill="#74AFD1" d="M-1189.257,85.75c1.935,0,1.935-3,0-3S-1191.191,85.75-1189.257,85.75L-1189.257,85.75z"/>
			</g>
		</g>
		<g opacity="0.7">
			<g>
				<path fill="#74AFD1" d="M-1182.128,90.595c1.935,0,1.935-3,0-3S-1184.062,90.595-1182.128,90.595L-1182.128,90.595z"/>
			</g>
		</g>
		<g opacity="0.7">
			<g>
				<path fill="#74AFD1" d="M-1186.706,92.461c1.935,0,1.935-3,0-3S-1188.641,92.461-1186.706,92.461L-1186.706,92.461z"/>
			</g>
		</g>
		<g opacity="0.7">
			<g>
				<path fill="#74AFD1" d="M-1192.034,95.331c1.935,0,1.935-3,0-3S-1193.968,95.331-1192.034,95.331L-1192.034,95.331z"/>
			</g>
		</g>
		<g opacity="0.7">
			<g>
				<path fill="#74AFD1" d="M-1193.64,99.932c1.935,0,1.935-3,0-3S-1195.574,99.932-1193.64,99.932L-1193.64,99.932z"/>
			</g>
		</g>
		<g opacity="0.7">
			<g>
				<path fill="#74AFD1" d="M-1189.787,100.496c1.935,0,1.935-3,0-3S-1191.722,100.496-1189.787,100.496L-1189.787,100.496z"/>
			</g>
		</g>
		<g opacity="0.7">
			<g>
				<path fill="#74AFD1" d="M-1195.621,110.209c1.935,0,1.935-3,0-3S-1197.556,110.209-1195.621,110.209L-1195.621,110.209z"/>
			</g>
		</g>
		<g opacity="0.7">
			<g>
				<path fill="#74AFD1" d="M-1187.488,107.496c1.935,0,1.935-3,0-3S-1189.423,107.496-1187.488,107.496L-1187.488,107.496z"/>
			</g>
		</g>
		<g opacity="0.7">
			<g>
				<path fill="#74AFD1" d="M-1188.978,112.839c1.935,0,1.935-3,0-3S-1190.912,112.839-1188.978,112.839L-1188.978,112.839z"/>
			</g>
		</g>
		<g opacity="0.7">
			<g>
				<path fill="#74AFD1" d="M-1181.075,112.865c1.935,0,1.935-3,0-3S-1183.01,112.865-1181.075,112.865L-1181.075,112.865z"/>
			</g>
		</g>
		<g opacity="0.7">
			<g>
				<path fill="#74AFD1" d="M-1177.975,112.389c1.935,0,1.935-3,0-3S-1179.909,112.389-1177.975,112.389L-1177.975,112.389z"/>
			</g>
		</g>
		<g opacity="0.7">
			<g>
				<path fill="#74AFD1" d="M-1181.481,103.561c1.935,0,1.935-3,0-3S-1183.416,103.561-1181.481,103.561L-1181.481,103.561z"/>
			</g>
		</g>
		<g opacity="0.7">
			<g>
				<path fill="#74AFD1" d="M-1176.866,116.812c1.935,0,1.935-3,0-3S-1178.801,116.812-1176.866,116.812L-1176.866,116.812z"/>
			</g>
		</g>
		<g opacity="0.7">
			<g>
				<path fill="#74AFD1" d="M-1171.815,120.09c1.935,0,1.935-3,0-3S-1173.75,120.09-1171.815,120.09L-1171.815,120.09z"/>
			</g>
		</g>
		<g opacity="0.7">
			<g>
				<path fill="#74AFD1" d="M-1184.108,116.469c1.935,0,1.935-3,0-3S-1186.043,116.469-1184.108,116.469L-1184.108,116.469z"/>
			</g>
		</g>
		<g opacity="0.7">
			<g>
				<path fill="#74AFD1" d="M-1180.67,122.17c1.935,0,1.935-3,0-3S-1182.604,122.17-1180.67,122.17L-1180.67,122.17z"/>
			</g>
		</g>
		<g opacity="0.7">
			<g>
				<path fill="#74AFD1" d="M-1194.558,113.953c1.935,0,1.935-3,0-3S-1196.493,113.953-1194.558,113.953L-1194.558,113.953z"/>
			</g>
		</g>
		<g opacity="0.7">
			<g>
				<path fill="#74AFD1" d="M-1199.915,118.459c1.935,0,1.935-3,0-3S-1201.85,118.459-1199.915,118.459L-1199.915,118.459z"/>
			</g>
		</g>
		<g opacity="0.7">
			<g>
				<path fill="#74AFD1" d="M-1190.197,119.185c1.935,0,1.935-3,0-3S-1192.131,119.185-1190.197,119.185L-1190.197,119.185z"/>
			</g>
		</g>
		<g opacity="0.7">
			<g>
				<path fill="#74AFD1" d="M-1195.695,120.499c1.935,0,1.935-3,0-3S-1197.629,120.499-1195.695,120.499L-1195.695,120.499z"/>
			</g>
		</g>
		<g opacity="0.7">
			<g>
				<path fill="#74AFD1" d="M-1186.216,125.871c1.935,0,1.935-3,0-3S-1188.15,125.871-1186.216,125.871L-1186.216,125.871z"/>
			</g>
		</g>
	</g>
	<g display="inline">
		<g opacity="0.7">
			<g>
				<path fill="#74AFD1" d="M-1105.226,139.878c1.935,0,1.935-3,0-3S-1107.16,139.878-1105.226,139.878L-1105.226,139.878z"/>
			</g>
		</g>
		<g opacity="0.7">
			<g>
				<path fill="#74AFD1" d="M-1100.636,128.379c1.935,0,1.935-3,0-3S-1102.57,128.379-1100.636,128.379L-1100.636,128.379z"/>
			</g>
		</g>
		<g opacity="0.7">
			<g>
				<path fill="#74AFD1" d="M-1095.031,131.36c1.935,0,1.935-3,0-3S-1096.966,131.36-1095.031,131.36L-1095.031,131.36z"/>
			</g>
		</g>
		<g opacity="0.7">
			<g>
				<path fill="#74AFD1" d="M-1109.829,130.566c1.935,0,1.935-3,0-3S-1111.764,130.566-1109.829,130.566L-1109.829,130.566z"/>
			</g>
		</g>
		<g opacity="0.7">
			<g>
				<path fill="#74AFD1" d="M-1078.66,107.86c1.935,0,1.935-3,0-3S-1080.595,107.86-1078.66,107.86L-1078.66,107.86z"/>
			</g>
		</g>
		<g opacity="0.7">
			<g>
				<path fill="#74AFD1" d="M-1082.848,115.476c1.935,0,1.935-3,0-3S-1084.782,115.476-1082.848,115.476L-1082.848,115.476z"/>
			</g>
		</g>
		<g opacity="0.7">
			<g>
				<path fill="#74AFD1" d="M-1088.693,118.679c1.935,0,1.935-3,0-3S-1090.628,118.679-1088.693,118.679L-1088.693,118.679z"/>
			</g>
		</g>
		<g opacity="0.7">
			<g>
				<path fill="#74AFD1" d="M-1094.772,117.178c1.935,0,1.935-3,0-3S-1096.707,117.178-1094.772,117.178L-1094.772,117.178z"/>
			</g>
		</g>
		<g opacity="0.7">
			<g>
				<path fill="#74AFD1" d="M-1090.573,126.229c1.935,0,1.935-3,0-3S-1092.508,126.229-1090.573,126.229L-1090.573,126.229z"/>
			</g>
		</g>
		<g opacity="0.7">
			<g>
				<path fill="#74AFD1" d="M-1086.657,111.984c1.935,0,1.935-3,0-3S-1088.592,111.984-1086.657,111.984L-1086.657,111.984z"/>
			</g>
		</g>
		<g opacity="0.7">
			<g>
				<path fill="#74AFD1" d="M-1082.551,108.71c1.935,0,1.935-3,0-3S-1084.485,108.71-1082.551,108.71L-1082.551,108.71z"/>
			</g>
		</g>
		<g opacity="0.7">
			<g>
				<path fill="#74AFD1" d="M-1101.107,142.287c1.935,0,1.935-3,0-3S-1103.042,142.287-1101.107,142.287L-1101.107,142.287z"/>
			</g>
		</g>
		<g opacity="0.7">
			<g>
				<path fill="#74AFD1" d="M-1097.864,134.93c1.935,0,1.935-3,0-3S-1099.799,134.93-1097.864,134.93L-1097.864,134.93z"/>
			</g>
		</g>
		<g opacity="0.7">
			<g>
				<path fill="#74AFD1" d="M-1102.965,133.649c1.935,0,1.935-3,0-3S-1104.899,133.649-1102.965,133.649L-1102.965,133.649z"/>
			</g>
		</g>
		<g opacity="0.7">
			<g>
				<path fill="#74AFD1" d="M-1095.801,123.127c1.935,0,1.935-3,0-3S-1097.735,123.127-1095.801,123.127L-1095.801,123.127z"/>
			</g>
		</g>
		<g opacity="0.7">
			<g>
				<path fill="#74AFD1" d="M-1100.834,122.805c1.935,0,1.935-3,0-3S-1102.769,122.805-1100.834,122.805L-1100.834,122.805z"/>
			</g>
		</g>
		<g opacity="0.7">
			<g>
				<path fill="#74AFD1" d="M-1081.342,110.841c1.935,0,1.935-3,0-3S-1083.276,110.841-1081.342,110.841L-1081.342,110.841z"/>
			</g>
		</g>
		<g opacity="0.7">
			<g>
				<path fill="#74AFD1" d="M-1077,105.431c1.935,0,1.935-3,0-3S-1078.935,105.431-1077,105.431L-1077,105.431z"/>
			</g>
		</g>
		<g opacity="0.7">
			<g>
				<path fill="#74AFD1" d="M-1081.022,107.158c1.935,0,1.935-3,0-3S-1082.957,107.158-1081.022,107.158L-1081.022,107.158z"/>
			</g>
		</g>
		<g opacity="0.7">
			<g>
				<path fill="#74AFD1" d="M-1081.078,113.231c1.935,0,1.935-3,0-3S-1083.013,113.231-1081.078,113.231L-1081.078,113.231z"/>
			</g>
		</g>
		<g opacity="0.7">
			<g>
				<path fill="#74AFD1" d="M-1084.191,111.427c1.935,0,1.935-3,0-3S-1086.126,111.427-1084.191,111.427L-1084.191,111.427z"/>
			</g>
		</g>
		<g opacity="0.7">
			<g>
				<path fill="#74AFD1" d="M-1084.694,113.871c1.935,0,1.935-3,0-3S-1086.629,113.871-1084.694,113.871L-1084.694,113.871z"/>
			</g>
		</g>
		<g opacity="0.7">
			<g>
				<path fill="#74AFD1" d="M-1084.139,117.686c1.935,0,1.935-3,0-3S-1086.073,117.686-1084.139,117.686L-1084.139,117.686z"/>
			</g>
		</g>
		<g opacity="0.7">
			<g>
				<path fill="#74AFD1" d="M-1088.68,113.378c1.935,0,1.935-3,0-3S-1090.614,113.378-1088.68,113.378L-1088.68,113.378z"/>
			</g>
		</g>
		<g opacity="0.7">
			<g>
				<path fill="#74AFD1" d="M-1084.931,116.007c1.935,0,1.935-3,0-3S-1086.865,116.007-1084.931,116.007L-1084.931,116.007z"/>
			</g>
		</g>
		<g opacity="0.7">
			<g>
				<path fill="#74AFD1" d="M-1086.08,120.231c1.935,0,1.935-3,0-3S-1088.015,120.231-1086.08,120.231L-1086.08,120.231z"/>
			</g>
		</g>
		<g opacity="0.7">
			<g>
				<path fill="#74AFD1" d="M-1087.532,115.996c1.935,0,1.935-3,0-3S-1089.467,115.996-1087.532,115.996L-1087.532,115.996z"/>
			</g>
		</g>
		<g opacity="0.7">
			<g>
				<path fill="#74AFD1" d="M-1090.779,116.417c1.935,0,1.935-3,0-3S-1092.714,116.417-1090.779,116.417L-1090.779,116.417z"/>
			</g>
		</g>
		<g opacity="0.7">
			<g>
				<path fill="#74AFD1" d="M-1091.741,119.182c1.935,0,1.935-3,0-3S-1093.676,119.182-1091.741,119.182L-1091.741,119.182z"/>
			</g>
		</g>
		<g opacity="0.7">
			<g>
				<path fill="#74AFD1" d="M-1089.801,122.128c1.935,0,1.935-3,0-3S-1091.735,122.128-1089.801,122.128L-1089.801,122.128z"/>
			</g>
		</g>
		<g opacity="0.7">
			<g>
				<path fill="#74AFD1" d="M-1092.536,124.344c1.935,0,1.935-3,0-3S-1094.471,124.344-1092.536,124.344L-1092.536,124.344z"/>
			</g>
		</g>
		<g opacity="0.7">
			<g>
				<path fill="#74AFD1" d="M-1097.187,119.852c1.935,0,1.935-3,0-3S-1099.121,119.852-1097.187,119.852L-1097.187,119.852z"/>
			</g>
		</g>
		<g opacity="0.7">
			<g>
				<path fill="#74AFD1" d="M-1093.797,120.096c1.935,0,1.935-3,0-3S-1095.731,120.096-1093.797,120.096L-1093.797,120.096z"/>
			</g>
		</g>
		<g opacity="0.7">
			<g>
				<path fill="#74AFD1" d="M-1092.145,128.556c1.935,0,1.935-3,0-3S-1094.079,128.556-1092.145,128.556L-1092.145,128.556z"/>
			</g>
		</g>
		<g opacity="0.7">
			<g>
				<path fill="#74AFD1" d="M-1096.71,126.659c1.935,0,1.935-3,0-3S-1098.645,126.659-1096.71,126.659L-1096.71,126.659z"/>
			</g>
		</g>
		<g opacity="0.7">
			<g>
				<path fill="#74AFD1" d="M-1102.515,124.946c1.935,0,1.935-3,0-3S-1104.449,124.946-1102.515,124.946L-1102.515,124.946z"/>
			</g>
		</g>
		<g opacity="0.7">
			<g>
				<path fill="#74AFD1" d="M-1106.893,127.084c1.935,0,1.935-3,0-3S-1108.827,127.084-1106.893,127.084L-1106.893,127.084z"/>
			</g>
		</g>
		<g opacity="0.7">
			<g>
				<path fill="#74AFD1" d="M-1104.556,130.197c1.935,0,1.935-3,0-3S-1106.49,130.197-1104.556,130.197L-1104.556,130.197z"/>
			</g>
		</g>
		<g opacity="0.7">
			<g>
				<path fill="#74AFD1" d="M-1115.536,132.988c1.935,0,1.935-3,0-3S-1117.471,132.988-1115.536,132.988L-1115.536,132.988z"/>
			</g>
		</g>
		<g opacity="0.7">
			<g>
				<path fill="#74AFD1" d="M-1107.852,136.786c1.935,0,1.935-3,0-3S-1109.786,136.786-1107.852,136.786L-1107.852,136.786z"/>
			</g>
		</g>
		<g opacity="0.7">
			<g>
				<path fill="#74AFD1" d="M-1112.669,139.533c1.935,0,1.935-3,0-3S-1114.604,139.533-1112.669,139.533L-1112.669,139.533z"/>
			</g>
		</g>
		<g opacity="0.7">
			<g>
				<path fill="#74AFD1" d="M-1107.075,145.114c1.935,0,1.935-3,0-3S-1109.01,145.114-1107.075,145.114L-1107.075,145.114z"/>
			</g>
		</g>
		<g opacity="0.7">
			<g>
				<path fill="#74AFD1" d="M-1104.537,146.959c1.935,0,1.935-3,0-3S-1106.472,146.959-1104.537,146.959L-1104.537,146.959z"/>
			</g>
		</g>
		<g opacity="0.7">
			<g>
				<path fill="#74AFD1" d="M-1100.813,138.22c1.935,0,1.935-3,0-3S-1102.748,138.22-1100.813,138.22L-1100.813,138.22z"/>
			</g>
		</g>
		<g opacity="0.7">
			<g>
				<path fill="#74AFD1" d="M-1106.864,150.88c1.935,0,1.935-3,0-3S-1108.799,150.88-1106.864,150.88L-1106.864,150.88z"/>
			</g>
		</g>
		<g opacity="0.7">
			<g>
				<path fill="#74AFD1" d="M-1105.585,156.764c1.935,0,1.935-3,0-3S-1107.52,156.764-1105.585,156.764L-1105.585,156.764z"/>
			</g>
		</g>
		<g opacity="0.7">
			<g>
				<path fill="#74AFD1" d="M-1111.767,145.539c1.935,0,1.935-3,0-3S-1113.701,145.539-1111.767,145.539L-1111.767,145.539z"/>
			</g>
		</g>
		<g opacity="0.7">
			<g>
				<path fill="#74AFD1" d="M-1113.337,152.008c1.935,0,1.935-3,0-3S-1115.271,152.008-1113.337,152.008L-1113.337,152.008z"/>
			</g>
		</g>
		<g opacity="0.7">
			<g>
				<path fill="#74AFD1" d="M-1117.417,136.396c1.935,0,1.935-3,0-3S-1119.352,136.396-1117.417,136.396L-1117.417,136.396z"/>
			</g>
		</g>
		<g opacity="0.7">
			<g>
				<path fill="#74AFD1" d="M-1124.395,135.825c1.935,0,1.935-3,0-3S-1126.329,135.825-1124.395,135.825L-1124.395,135.825z"/>
			</g>
		</g>
		<g opacity="0.7">
			<g>
				<path fill="#74AFD1" d="M-1118.002,143.182c1.935,0,1.935-3,0-3S-1119.937,143.182-1118.002,143.182L-1118.002,143.182z"/>
			</g>
		</g>
		<g opacity="0.7">
			<g>
				<path fill="#74AFD1" d="M-1122.832,140.245c1.935,0,1.935-3,0-3S-1124.767,140.245-1122.832,140.245L-1122.832,140.245z"/>
			</g>
		</g>
		<g opacity="0.7">
			<g>
				<path fill="#74AFD1" d="M-1119.882,150.732c1.935,0,1.935-3,0-3S-1121.816,150.732-1119.882,150.732L-1119.882,150.732z"/>
			</g>
		</g>
	</g>
	<g display="inline">
		<g>
			<path fill="#74AFD1" d="M-1181.217,83.368c1.935,0,1.935-3,0-3S-1183.151,83.368-1181.217,83.368L-1181.217,83.368z"/>
		</g>
	</g>
	<g display="inline">
		<g>
			<path fill="#74AFD1" d="M-1184.91,67.943c1.935,0,1.935-3,0-3S-1186.845,67.943-1184.91,67.943L-1184.91,67.943z"/>
		</g>
	</g>
	<g display="inline">
		<g>
			<path fill="#74AFD1" d="M-1192.731,80.543c1.935,0,1.935-3,0-3S-1194.666,80.543-1192.731,80.543L-1192.731,80.543z"/>
		</g>
	</g>
	<g display="inline">
		<g>
			<path fill="#74AFD1" d="M-1193.6,86.844c1.935,0,1.935-3,0-3S-1195.535,86.844-1193.6,86.844L-1193.6,86.844z"/>
		</g>
	</g>
	<g display="inline">
		<g>
			<path fill="#74AFD1" d="M-1195.338,95.099c1.935,0,1.935-3,0-3S-1197.273,95.099-1195.338,95.099L-1195.338,95.099z"/>
		</g>
	</g>
	<g display="inline">
		<g>
			<path fill="#74AFD1" d="M-1197.076,102.92c1.935,0,1.935-3,0-3S-1199.011,102.92-1197.076,102.92L-1197.076,102.92z"/>
		</g>
	</g>
	<g display="inline">
		<g>
			<path fill="#74AFD1" d="M-1198.163,109.655c1.935,0,1.935-3,0-3S-1200.097,109.655-1198.163,109.655L-1198.163,109.655z"/>
		</g>
	</g>
	<g display="inline">
		<g>
			<path fill="#74AFD1" d="M-1185.128,97.272c1.935,0,1.935-3,0-3S-1187.062,97.272-1185.128,97.272L-1185.128,97.272z"/>
		</g>
	</g>
	<g display="inline">
		<g>
			<path fill="#74AFD1" d="M-1179.696,87.93c1.935,0,1.935-3,0-3S-1181.631,87.93-1179.696,87.93L-1179.696,87.93z"/>
		</g>
	</g>
	<g display="inline">
		<g>
			<path fill="#74AFD1" d="M-1178.827,92.709c1.935,0,1.935-3,0-3S-1180.762,92.709-1178.827,92.709L-1178.827,92.709z"/>
		</g>
	</g>
	<g display="inline">
		<g>
			<path fill="#74AFD1" d="M-1177.307,98.358c1.935,0,1.935-3,0-3S-1179.241,98.358-1177.307,98.358L-1177.307,98.358z"/>
		</g>
	</g>
	<g display="inline">
		<g>
			<path fill="#74AFD1" d="M-1176.438,103.572c1.935,0,1.935-3,0-3S-1178.372,103.572-1176.438,103.572L-1176.438,103.572z"/>
		</g>
	</g>
	<g display="inline">
		<g>
			<path fill="#74AFD1" d="M-1174.265,110.307c1.935,0,1.935-3,0-3S-1176.199,110.307-1174.265,110.307L-1174.265,110.307z"/>
		</g>
	</g>
	<g display="inline">
		<g>
			<path fill="#74AFD1" d="M-1170.572,114.435c1.935,0,1.935-3,0-3S-1172.507,114.435-1170.572,114.435L-1170.572,114.435z"/>
		</g>
	</g>
	<g display="inline">
		<g>
			<path fill="#74AFD1" d="M-1164.706,117.259c1.935,0,1.935-3,0-3S-1166.641,117.259-1164.706,117.259L-1164.706,117.259z"/>
		</g>
	</g>
	<g display="inline">
		<g>
			<path fill="#74AFD1" d="M-1158.623,118.997c1.935,0,1.935-3,0-3S-1160.558,118.997-1158.623,118.997L-1158.623,118.997z"/>
		</g>
	</g>
	<g display="inline">
		<g>
			<path fill="#74AFD1" d="M-1164.706,122.69c1.935,0,1.935-3,0-3S-1166.641,122.69-1164.706,122.69L-1164.706,122.69z"/>
		</g>
	</g>
	<g display="inline">
		<g>
			<path fill="#74AFD1" d="M-1147.326,122.473c1.935,0,1.935-3,0-3S-1149.261,122.473-1147.326,122.473L-1147.326,122.473z"/>
		</g>
	</g>
	<g display="inline">
		<g>
			<path fill="#74AFD1" d="M-1139.939,125.949c1.935,0,1.935-3,0-3S-1141.874,125.949-1139.939,125.949L-1139.939,125.949z"/>
		</g>
	</g>
	<g display="inline">
		<g>
			<path fill="#74AFD1" d="M-1131.685,128.121c1.935,0,1.935-3,0-3S-1133.619,128.121-1131.685,128.121L-1131.685,128.121z"/>
		</g>
	</g>
	<g display="inline">
		<g>
			<path fill="#74AFD1" d="M-1123.863,131.38c1.935,0,1.935-3,0-3S-1125.798,131.38-1123.863,131.38L-1123.863,131.38z"/>
		</g>
	</g>
	<g display="inline">
		<g>
			<path fill="#74AFD1" d="M-1128.426,133.552c1.935,0,1.935-3,0-3S-1130.36,133.552-1128.426,133.552L-1128.426,133.552z"/>
		</g>
	</g>
	<g display="inline">
		<g>
			<path fill="#74AFD1" d="M-1135.595,129.859c1.935,0,1.935-3,0-3S-1137.529,129.859-1135.595,129.859L-1135.595,129.859z"/>
		</g>
	</g>
	<g display="inline">
		<g>
			<path fill="#74AFD1" d="M-1153.192,123.125c1.935,0,1.935-3,0-3S-1155.127,123.125-1153.192,123.125L-1153.192,123.125z"/>
		</g>
	</g>
	<g display="inline">
		<g>
			<path fill="#74AFD1" d="M-1101.921,149.628c1.935,0,1.935-3,0-3S-1103.855,149.628-1101.921,149.628L-1101.921,149.628z"/>
		</g>
	</g>
	<g display="inline">
		<g>
			<path fill="#74AFD1" d="M-1096.272,156.146c1.935,0,1.935-3,0-3S-1098.207,156.146-1096.272,156.146L-1096.272,156.146z"/>
		</g>
	</g>
	<g display="inline">
		<g>
			<path fill="#74AFD1" d="M-1092.145,162.446c1.935,0,1.935-3,0-3S-1094.079,162.446-1092.145,162.446L-1092.145,162.446z"/>
		</g>
	</g>
	<g display="inline">
		<g>
			<path fill="#74AFD1" d="M-1083.672,177.219c1.935,0,1.935-3,0-3S-1085.606,177.219-1083.672,177.219L-1083.672,177.219z"/>
		</g>
	</g>
	<g display="inline">
		<g>
			<path fill="#74AFD1" d="M-1086.714,171.354c1.935,0,1.935-3,0-3S-1088.648,171.354-1086.714,171.354L-1086.714,171.354z"/>
		</g>
	</g>
	<g display="inline">
		<g>
			<path fill="#74AFD1" d="M-1088.669,166.357c1.935,0,1.935-3,0-3S-1090.604,166.357-1088.669,166.357L-1088.669,166.357z"/>
		</g>
	</g>
	<g display="inline">
		<g>
			<path fill="#74AFD1" d="M-1098.445,160.274c1.935,0,1.935-3,0-3S-1100.38,160.274-1098.445,160.274L-1098.445,160.274z"/>
		</g>
	</g>
	<g display="inline">
		<g>
			<path fill="#74AFD1" d="M-1101.921,154.843c1.935,0,1.935-3,0-3S-1103.855,154.843-1101.921,154.843L-1101.921,154.843z"/>
		</g>
	</g>
	<g display="inline">
		<g>
			<path fill="#74AFD1" d="M-1273.983,148.759c1.935,0,1.935-3,0-3S-1275.917,148.759-1273.983,148.759L-1273.983,148.759z"/>
		</g>
	</g>
	<g display="inline">
		<g>
			<path fill="#74AFD1" d="M-1279.849,155.711c1.935,0,1.935-3,0-3S-1281.783,155.711-1279.849,155.711L-1279.849,155.711z"/>
		</g>
	</g>
	<g display="inline">
		<g>
			<path fill="#74AFD1" d="M-1285.063,163.966c1.935,0,1.935-3,0-3S-1286.998,163.966-1285.063,163.966L-1285.063,163.966z"/>
		</g>
	</g>
	<g display="inline">
		<g>
			<path fill="#74AFD1" d="M-1282.673,159.187c1.935,0,1.935-3,0-3S-1284.607,159.187-1282.673,159.187L-1282.673,159.187z"/>
		</g>
	</g>
	<g display="inline">
		<g>
			<path fill="#74AFD1" d="M-1277.242,152.235c1.935,0,1.935-3,0-3S-1279.176,152.235-1277.242,152.235L-1277.242,152.235z"/>
		</g>
	</g>
	<g display="inline">
		<g>
			<path fill="#74AFD1" d="M-1269.421,150.931c1.935,0,1.935-3,0-3S-1271.355,150.931-1269.421,150.931L-1269.421,150.931z"/>
		</g>
	</g>
	<g display="inline">
		<g>
			<path fill="#74AFD1" d="M-1275.504,154.842c1.935,0,1.935-3,0-3S-1277.438,154.842-1275.504,154.842L-1275.504,154.842z"/>
		</g>
	</g>
	<g display="inline">
		<g>
			<path fill="#74AFD1" d="M-1279.415,160.056c1.935,0,1.935-3,0-3S-1281.349,160.056-1279.415,160.056L-1279.415,160.056z"/>
		</g>
	</g>
	<g display="inline">
		<g>
			<path fill="#74AFD1" d="M-1288.756,169.832c1.935,0,1.935-3,0-3S-1290.69,169.832-1288.756,169.832L-1288.756,169.832z"/>
		</g>
	</g>
	<g display="inline">
		<g>
			<path fill="#74AFD1" d="M-1262.034,148.107c1.935,0,1.935-3,0-3S-1263.969,148.107-1262.034,148.107L-1262.034,148.107z"/>
		</g>
	</g>
	<g display="inline">
		<g>
			<path fill="#74AFD1" d="M-1248.13,133.986c1.935,0,1.935-3,0-3S-1250.065,133.986-1248.13,133.986L-1248.13,133.986z"/>
		</g>
	</g>
	<g display="inline">
		<g>
			<path fill="#74AFD1" d="M-1241.178,127.251c1.935,0,1.935-3,0-3S-1243.113,127.251-1241.178,127.251L-1241.178,127.251z"/>
		</g>
	</g>
	<g display="inline">
		<g>
			<path fill="#74AFD1" d="M-1231.62,124.861c1.935,0,1.935-3,0-3S-1233.554,124.861-1231.62,124.861L-1231.62,124.861z"/>
		</g>
	</g>
	<g display="inline">
		<g>
			<path fill="#74AFD1" d="M-1219.671,125.296c1.935,0,1.935-3,0-3S-1221.605,125.296-1219.671,125.296L-1219.671,125.296z"/>
		</g>
	</g>
	<g display="inline">
		<g>
			<path fill="#74AFD1" d="M-1215.76,120.517c1.935,0,1.935-3,0-3S-1217.695,120.517-1215.76,120.517L-1215.76,120.517z"/>
		</g>
	</g>
	<g display="inline">
		<g>
			<path fill="#74AFD1" d="M-1208.374,115.302c1.935,0,1.935-3,0-3S-1210.308,115.302-1208.374,115.302L-1208.374,115.302z"/>
		</g>
	</g>
	<g display="inline">
		<g>
			<path fill="#74AFD1" d="M-1207.722,120.951c1.935,0,1.935-3,0-3S-1209.657,120.951-1207.722,120.951L-1207.722,120.951z"/>
		</g>
	</g>
	<g display="inline">
		<g>
			<path fill="#74AFD1" d="M-1224.667,121.82c1.935,0,1.935-3,0-3S-1226.602,121.82-1224.667,121.82L-1224.667,121.82z"/>
		</g>
	</g>
	<g display="inline">
		<g>
			<path fill="#74AFD1" d="M-1228.144,127.468c1.935,0,1.935-3,0-3S-1230.078,127.468-1228.144,127.468L-1228.144,127.468z"/>
		</g>
	</g>
	<g display="inline">
		<g>
			<path fill="#74AFD1" d="M-1239.875,131.813c1.935,0,1.935-3,0-3S-1241.81,131.813-1239.875,131.813L-1239.875,131.813z"/>
		</g>
	</g>
	<g display="inline">
		<g>
			<path fill="#74AFD1" d="M-1247.696,139.2c1.935,0,1.935-3,0-3S-1249.63,139.2-1247.696,139.2L-1247.696,139.2z"/>
		</g>
	</g>
	<g display="inline">
		<g>
			<path fill="#74AFD1" d="M-1234.661,128.337c1.935,0,1.935-3,0-3S-1236.596,128.337-1234.661,128.337L-1234.661,128.337z"/>
		</g>
	</g>
	<g display="inline">
		<g>
			<path fill="#74AFD1" d="M-1220.54,117.909c1.935,0,1.935-3,0-3S-1222.474,117.909-1220.54,117.909L-1220.54,117.909z"/>
		</g>
	</g>
</g>
</svg>
