<?xml version="1.0" encoding="utf-8"?>
<!-- Generator: Adobe Illustrator 15.1.0, SVG Export Plug-In . SVG Version: 6.00 Build 0)  -->
<!DOCTYPE svg PUBLIC "-//W3C//DTD SVG 1.1//EN" "http://www.w3.org/Graphics/SVG/1.1/DTD/svg11.dtd">
<svg version="1.1" xmlns="http://www.w3.org/2000/svg" xmlns:xlink="http://www.w3.org/1999/xlink" x="0px" y="0px" width="400px"
	 height="400px" viewBox="0 0 400 400" enable-background="new 0 0 400 400" xml:space="preserve">
<g id="body_layer">
	<path fill="#DBCD7D" d="M123.332,137.665c0,0-63.33-68.667-118.667-8.667c62.715-18,76.856-2,88.539,29.334
		C104.506,188.643,123.332,137.665,123.332,137.665z"/>
	<path fill="#DBCD7D" d="M267.997,139.665c0,0,63.33-68.667,118.667-8.667c-62.715-18-76.856-2-88.539,29.334
		C286.823,190.643,267.997,139.665,267.997,139.665z"/>
	<path fill="#8BCEAB" d="M76.545,400c-14.841-6.579-23.789-26.916-27.844-53.051c-1.788-11.528,1.847-27.787-13.702,0.717
		c0-18,17.333-89.334,4.667-56.667c-4.14,10.678,21.333-72.667,1.333-39.333c6.911-29.377,31.298-68.685,44.998-80.002
		c15.334-12.666-5.881-12.347-0.666-12.666c32.666-2,6.103-10.462,10.666-12.667c10.205-4.931,18.469,3.03,21.334-0.667
		c5.342-6.894-3.038-7.777-0.667-8.666c10.667-4,12.333,1.334,17.333,3.333c0,0,78.829,6.85,115.667,1.333
		c13.587-2.033,27.333-13.333,23.333-3.333c-2.984,7.46,14.86-1.997,14,4.667c-2.667,20.667,14.95,5.359,16.667,6.666
		c3.355,2.555-12.492,2.035,4,21.334c10.685,12.504,26.993,31.484,35.056,57.408c-7.459-5.424,5.215,15.9,9.275,33.497
		c-12.368-7.215,1.546,9.275,9.791,26.797c-36.072-20.613,5.669,18.036,1.547,51.018c-30.92-43.287,2.061,46.38-37.369,60.06
		L76.545,400z"/>
	<path fill="#72C596" d="M319.21,255.002c0,19.33-16.977,34.998-37.917,34.998c-20.939,0-37.916-15.668-37.916-34.998
		c0-19.334,16.977-35.002,37.916-35.002C302.233,220,319.21,235.668,319.21,255.002z"/>
	<path fill="#72C596" d="M163.21,258.002c0,19.33-16.977,34.998-37.917,34.998c-20.939,0-37.916-15.668-37.916-34.998
		c0-19.334,16.977-35.002,37.916-35.002C146.233,223,163.21,238.668,163.21,258.002z"/>
	<g>
		<g>
			<path fill="#7DC6DD" d="M120.486,119.991c0.65,0,2.082-0.986,0.781-0.986C120.617,119.005,119.186,119.991,120.486,119.991
				L120.486,119.991z"/>
		</g>
	</g>
	<g>
		<g>
			<path fill="none" stroke="#F2E4D2" stroke-miterlimit="10" d="M287.377,120.498"/>
		</g>
	</g>
	<g>
		<g>
			<path fill="none" stroke="#F2E4D2" stroke-miterlimit="10" d="M199.377,119.498"/>
		</g>
	</g>
</g>
<g id="face_layer" display="none">
	<g display="inline">
		<path fill="#FFFFFF" d="M263.938,174.039c13.137,9.59,16.013,28.012,6.423,41.15c-9.589,13.137-28.013,16.012-41.149,6.422
			c-8.977-6.553-13.162-17.229-11.854-27.525l41.434-23.063C260.57,171.836,262.295,172.84,263.938,174.039z"/>
		<path d="M248.218,179.07c4.958,3.621,6.045,10.574,2.425,15.533s-10.575,6.045-15.533,2.426
			c-3.389-2.475-4.969-6.504-4.475-10.391l15.641-8.707C246.947,178.24,247.598,178.618,248.218,179.07z"/>
	</g>
	<g display="inline">
		<path fill="#FFFFFF" d="M187.135,227.4c-19.008,13.562-45.411,9.148-58.974-9.859s-9.148-45.412,9.858-58.975l66.791,36.418
			C204.211,207.473,198.102,219.574,187.135,227.4z"/>
		<path d="M168.993,177.336c-4.997,3.564-6.291,10.32-2.89,15.086c3.401,4.768,10.209,5.74,15.206,2.176
			c3.415-2.438,5.101-6.363,4.741-10.127l-15.109-8.262C170.271,176.515,169.618,176.89,168.993,177.336z"/>
	</g>
	<path display="inline" d="M162.877,255c14.174-8.723,4.333,21.334,44.333,15.334S232.877,257,248.877,253s22.797,50.809,16,74
		c-5.667,19.334-26.189-4.748-27-5.334c-12-8.666-50-8.666-68,6.334s-22,10-23,0S149.877,263,162.877,255z"/>
	<path display="inline" fill="#FDFDFE" d="M175.211,261c0,0,1.512,34.414,2.863,32.252c1.588-2.541,12.803-13.127,12.803-13.127
		c5.94,3.279,9.289,16.031,9.68,16.08c0.883,0.107,8.861-15.977,13.32-18.539c0.784-0.449,18.56,12.492,20.062,13.834
		c1.706,1.521,0.904-23.66,1.042-28.893C224.03,265.449,188.99,281.059,175.211,261z"/>
	<path display="inline" fill="#FDFDFE" d="M170.002,327.859c0,0,3.743-20.414,3.973-23.883c0.16-2.416,12.961,13.434,14.008,10.816
		c1.883-4.707,5.061-8.943,5.061-8.943c1.588,2.043,9.415,7.414,9.415,7.414c5.94-2.633,11.378-8.67,11.769-8.709
		c0.883-0.086,6.25,7.594,10.709,9.65c0.784,0.361,14.028-8.621,15.064-10.004c1.059-1.412-0.021,15.336,0.117,19.537
		C222.347,310.205,186.668,315.609,170.002,327.859z"/>
</g>
</svg>
