<?xml version="1.0" encoding="utf-8"?>
<!-- Generator: Adobe Illustrator 15.1.0, SVG Export Plug-In . SVG Version: 6.00 Build 0)  -->
<!DOCTYPE svg PUBLIC "-//W3C//DTD SVG 1.1//EN" "http://www.w3.org/Graphics/SVG/1.1/DTD/svg11.dtd">
<svg version="1.1" xmlns="http://www.w3.org/2000/svg" xmlns:xlink="http://www.w3.org/1999/xlink" x="0px" y="0px" width="400px"
	 height="400px" viewBox="0 0 400 400" enable-background="new 0 0 400 400" xml:space="preserve">
<g id="guide_lines_layer" display="none">
	<rect display="inline" fill="#FFFFFF" stroke="#000000" stroke-miterlimit="10" width="75" height="400"/>
	<rect x="325" display="inline" fill="#FFFFFF" stroke="#000000" stroke-miterlimit="10" width="75" height="399.999"/>
</g>
<g id="body_layer">
	<path fill="#E06899" d="M75.175,400.511c-2.881-20-6-94.502-1.5-143.002c3.742-40.336,17.835-96.815,42.335-118.186
		c3.563-3.109-30.614-46.478-26.833-49.163c3.811-2.707,45.583,35.274,49.586,33.009c14.496-8.207,30.144-13.496,46.221-15.628
		c5.359-0.709,10.294-53.232,15.722-53.232c6.436,0,13.158,52.648,19.217,53.574c18.174,2.778,34.613,9.509,49.126,18.935
		c2.902,1.885,44.048-32.706,46.795-30.616c3.355,2.555-31.726,41.837-28.608,44.663c29.753,26.976,31.94,73.643,35.44,119.145
		c2.627,34.148,4.752,126.445,1.92,140.279L75.175,400.511z"/>
	<path fill="#D65490" d="M317.841,255.513c0,19.33-16.977,34.998-37.917,34.998c-20.939,0-37.916-15.668-37.916-34.998
		c0-19.336,16.977-35.004,37.916-35.004C300.864,220.509,317.841,236.177,317.841,255.513z"/>
	<path fill="#D65490" d="M161.841,258.513c0,19.33-16.977,34.998-37.917,34.998c-20.939,0-37.916-15.668-37.916-34.998
		c0-19.336,16.977-35.004,37.916-35.004C144.864,223.509,161.841,239.177,161.841,258.513z"/>
	<g>
		<g>
			<path fill="none" stroke="#F2E4D2" stroke-miterlimit="10" d="M286.008,121.008"/>
		</g>
	</g>
	<g>
		<g>
			<path fill="none" stroke="#F2E4D2" stroke-miterlimit="10" d="M197.008,119.008"/>
		</g>
	</g>
</g>
<g id="face_layer" display="none">
	<path display="inline" fill="#FFFFFF" d="M207.267,205.496c0.224,23.887-18.957,43.43-42.844,43.652
		c-23.887,0.224-43.43-18.959-43.652-42.847c-0.06-6.469,1.302-12.618,3.798-18.151l77.374-3.063
		C205.275,191.147,207.198,198.096,207.267,205.496z"/>
	<path display="inline" d="M175.797,212.392c0.374,6.758-4.796,12.538-11.551,12.914c-6.755,0.375-12.537-4.796-12.913-11.553
		c-0.375-6.753,4.796-12.534,11.551-12.91C169.64,200.467,175.42,205.639,175.797,212.392z"/>
	<path display="inline" fill="#FFFFFF" d="M267.642,218.453c-1.824,15.636-15.978,26.83-31.61,25.006
		c-15.635-1.825-26.829-15.979-25.004-31.613c0.506-4.335,1.958-8.326,4.126-11.794l51.118,5.763
		C267.637,209.747,268.157,214.041,267.642,218.453z"/>
	<circle display="inline" cx="238.702" cy="219.341" r="11.25"/>
	<g display="inline">
		<path d="M239.054,268.168l-71.798-2.698c0,0,12.762-3.942,38.103-3.037C230.701,263.338,239.054,268.168,239.054,268.168z"/>
		<path fill="#FDFDFE" d="M182.542,262.958c0,0,2.814,19.619,4.055,20.906l9.18-21.578
			C195.776,262.286,187.776,262.364,182.542,262.958z"/>
		<path fill="#FDFDFE" d="M222.167,263.833c0,0-3.533,19.245-4.818,20.489l-8.43-21.881
			C208.919,262.441,216.957,263.06,222.167,263.833z"/>
	</g>
</g>
</svg>
