<?xml version="1.0" encoding="utf-8"?>
<!-- Generator: Adobe Illustrator 15.1.0, SVG Export Plug-In . SVG Version: 6.00 Build 0)  -->
<!DOCTYPE svg PUBLIC "-//W3C//DTD SVG 1.1//EN" "http://www.w3.org/Graphics/SVG/1.1/DTD/svg11.dtd">
<svg version="1.1" xmlns="http://www.w3.org/2000/svg" xmlns:xlink="http://www.w3.org/1999/xlink" x="0px" y="0px" width="400px"
	 height="400px" viewBox="0 0 400 400" enable-background="new 0 0 400 400" xml:space="preserve">
<g id="guide_lines_layer" display="none">
	
		<rect x="-915.583" y="410.321" display="inline" fill="#FFFFFF" stroke="#000000" stroke-miterlimit="10" width="75" height="400"/>
	
		<rect x="-591.333" y="406.322" display="inline" fill="#FFFFFF" stroke="#000000" stroke-miterlimit="10" width="75" height="400"/>
	<rect x="-591.333" y="3.333" display="inline" fill="#FFFFFF" stroke="#000000" stroke-miterlimit="10" width="75" height="400"/>
	<rect x="-915.583" y="3.333" display="inline" fill="#FFFFFF" stroke="#000000" stroke-miterlimit="10" width="75" height="400"/>
	<rect x="-456.274" y="-1.167" display="inline" fill="#FFFFFF" stroke="#000000" stroke-miterlimit="10" width="75" height="400"/>
	<rect x="-131.274" y="-2.167" display="inline" fill="#FFFFFF" stroke="#000000" stroke-miterlimit="10" width="75" height="400"/>
	
		<rect x="-131.275" y="405.868" display="inline" fill="#FFFFFF" stroke="#000000" stroke-miterlimit="10" width="75" height="400"/>
	
		<rect x="-456.275" y="405.868" display="inline" fill="#FFFFFF" stroke="#000000" stroke-miterlimit="10" width="75" height="400"/>
	
		<rect x="-915.583" y="811.887" display="inline" fill="#FFFFFF" stroke="#000000" stroke-miterlimit="10" width="75" height="400"/>
	
		<rect x="-591.333" y="811.887" display="inline" fill="#FFFFFF" stroke="#000000" stroke-miterlimit="10" width="75" height="400"/>
	
		<rect x="-129.775" y="811.887" display="inline" fill="#FFFFFF" stroke="#000000" stroke-miterlimit="10" width="75" height="400"/>
	
		<rect x="-454.775" y="811.887" display="inline" fill="#FFFFFF" stroke="#000000" stroke-miterlimit="10" width="75" height="400"/>
	<rect display="inline" fill="#FFFFFF" stroke="#000000" stroke-miterlimit="10" width="75" height="400"/>
	<rect x="325" display="inline" fill="#FFFFFF" stroke="#000000" stroke-miterlimit="10" width="75" height="399.999"/>
	<rect x="323.667" y="413.333" display="inline" fill="#FFFFFF" stroke="#000000" stroke-miterlimit="10" width="75" height="400"/>
	<rect x="-1.333" y="413.333" display="inline" fill="#FFFFFF" stroke="#000000" stroke-miterlimit="10" width="75" height="400"/>
	<rect x="325" y="820.333" display="inline" fill="#FFFFFF" stroke="#000000" stroke-miterlimit="10" width="75" height="400"/>
	<rect y="821.333" display="inline" fill="#FFFFFF" stroke="#000000" stroke-miterlimit="10" width="75" height="400"/>
	<rect x="473.272" y="-0.636" display="inline" fill="#FFFFFF" stroke="#000000" stroke-miterlimit="10" width="75" height="400"/>
	
		<rect x="798.272" y="-0.636" display="inline" fill="#FFFFFF" stroke="#000000" stroke-miterlimit="10" width="75" height="399.999"/>
	<rect x="796.939" y="414.333" display="inline" fill="#FFFFFF" stroke="#000000" stroke-miterlimit="10" width="75" height="400"/>
	<rect x="472.667" y="414.333" display="inline" fill="#FFFFFF" stroke="#000000" stroke-miterlimit="10" width="75" height="400"/>
	<rect x="796.939" y="819.697" display="inline" fill="#FFFFFF" stroke="#000000" stroke-miterlimit="10" width="75" height="400"/>
	<rect x="471.939" y="820.697" display="inline" fill="#FFFFFF" stroke="#000000" stroke-miterlimit="10" width="75" height="400"/>
</g>
<g id="body_layer">
	<path fill="#DBCD7D" d="M595.002,137c0,0-63.33-68.667-118.667-8.667c62.715-18,76.856-2,88.539,29.334
		C576.176,187.978,595.002,137,595.002,137z"/>
	<path fill="#DBCD7D" d="M739.667,139c0,0,63.33-68.667,118.667-8.667c-62.715-18-76.856-2-88.539,29.333
		C758.493,189.977,739.667,139,739.667,139z"/>
	<path fill="#7DC6DD" d="M-840.666,400.335c-2.883-20-6.001-94.502-1.501-143.002c3.743-40.334,17.835-96.814,42.335-118.185
		c3.563-3.109-30.615-46.477-26.834-49.162c3.812-2.707,45.584,35.273,49.586,33.007c14.496-8.207,30.145-13.495,46.222-15.626
		c5.358-0.71,10.294-53.233,15.722-53.233c6.436,0,13.158,52.65,19.217,53.576c18.174,2.776,34.613,9.508,49.126,18.933
		c2.902,1.885,44.048-32.705,46.795-30.614c3.355,2.554-31.726,41.835-28.608,44.662c29.753,26.976,31.94,73.644,35.44,119.144
		c2.627,34.148,4.752,126.445,1.92,140.279L-840.666,400.335z"/>
	<path fill="#79C2EA" stroke="#FFFFFF" stroke-miterlimit="10" d="M-1140.333,206.333"/>
	<path fill="#7DC6DD" d="M-841.333,406.334v46c0,0-4,30-21,37s-27,11-27,31s11,36-6,41s-14,15,0,15s25.353-13.575,26.774-25.657
		c1.963-16.687-8.344-22.576,7.853-32.883c9.972-6.346,19.141-5.399,19.141-5.399l-0.492,53.985c0,0-28.436,6.475-36.318,25.523
		c-11.779,28.464,4.968,47.216,1.042,62.431c-6.039,23.4-23.395,19.503-22.5,28c1,9.5,37.038,0.956,39-28
		c1.114-16.443-2.814-21.393-3.309-29.06c-0.982-15.214,9.325-26.993,23.067-25.519l-0.258,88.578c0,0,0.629,17.897-13.484,28.718
		c-14.724,11.288-18.65,9.815-26.012,16.688c-17.939,16.744-6.871,35.827-15.706,41.718c-14.062,9.377-15.214,21.595-2.945,16.687
		c22.104-8.843,21.777-16.334,24.54-33.374c2.944-18.159,29.607-22.436,29.607-22.436h4l0.903,70.988h111.097l7-400
		L-841.333,406.334z"/>
	<path fill="#7DC6DD" d="M-845.333,736.334"/>
	<circle fill="#36A1BA" cx="-864.166" cy="495.5" r="7.833"/>
	<circle fill="#36A1BA" cx="-863.166" cy="516.5" r="6.167"/>
	<circle fill="#36A1BA" cx="-880.832" cy="513.166" r="5.833"/>
	<circle fill="#36A1BA" cx="-872.332" cy="530.333" r="4.333"/>
	<circle fill="#36A1BA" cx="-884.999" cy="524.333" r="4.667"/>
	<circle fill="#36A1BA" cx="-882.332" cy="537.666" r="4"/>
	<circle fill="#36A1BA" cx="-870.832" cy="544.5" r="3.5"/>
	<circle fill="#36A1BA" cx="-881.832" cy="550.5" r="3.833"/>
	<circle fill="#36A1BA" cx="-874.999" cy="560.333" r="3.667"/>
	<circle fill="#36A1BA" cx="-887.999" cy="561.999" r="3.333"/>
	<circle fill="#36A1BA" cx="-884.166" cy="570.834" r="2.833"/>
	<circle fill="#36A1BA" cx="-897.999" cy="569.333" r="3"/>
	<circle fill="#36A1BA" cx="-845.332" cy="575" r="9"/>
	<circle fill="#36A1BA" cx="-856.666" cy="597.666" r="8"/>
	<circle fill="#36A1BA" cx="-866.499" cy="584.166" r="6.833"/>
	<circle fill="#36A1BA" cx="-877.166" cy="595.833" r="6.167"/>
	<circle fill="#36A1BA" cx="-880.332" cy="612.334" r="6.167"/>
	<circle fill="#36A1BA" cx="-865.832" cy="613.167" r="6.5"/>
	<circle fill="#36A1BA" cx="-876.832" cy="628.166" r="4.833"/>
	<circle fill="#36A1BA" cx="-864.999" cy="632.667" r="4"/>
	<circle fill="#36A1BA" cx="-872.499" cy="643.5" r="3.833"/>
	<circle fill="#36A1BA" cx="-863.832" cy="647.166" r="3.833"/>
	<circle fill="#36A1BA" cx="-874.165" cy="655.834" r="4.167"/>
	<circle fill="#36A1BA" cx="-871.666" cy="671.834" r="3.5"/>
	<circle fill="#36A1BA" cx="-878.665" cy="665.334" r="3.333"/>
	<circle fill="#36A1BA" cx="-863.666" cy="662.667" r="4.333"/>
	<circle fill="#36A1BA" cx="-882.499" cy="679.834" r="3.833"/>
	<circle fill="#36A1BA" cx="-852.166" cy="720.5" r="6.167"/>
	<circle fill="#36A1BA" cx="-862.832" cy="739.499" r="4.167"/>
	<circle fill="#36A1BA" cx="-862.499" cy="727.167" r="3.833"/>
	<circle fill="#36A1BA" cx="-874.332" cy="734.666" r="4.333"/>
	<circle fill="#36A1BA" cx="-888.332" cy="758.999" r="3"/>
	<circle fill="#36A1BA" cx="-883.499" cy="745.832" r="4.167"/>
	<circle fill="#36A1BA" cx="-872.832" cy="748.166" r="4.833"/>
	<circle fill="#36A1BA" cx="-850.665" cy="733.999" r="5.667"/>
	<circle fill="#36A1BA" cx="-881.832" cy="777.499" r="3.5"/>
	<circle fill="#36A1BA" cx="-892.499" cy="778.166" r="3.5"/>
	<circle fill="#36A1BA" cx="-880.832" cy="764.832" r="3.5"/>
	<circle fill="#36A1BA" cx="-878.832" cy="756.499" r="3.5"/>
	<circle fill="#36A1BA" cx="-889.999" cy="770.332" r="3"/>
	<circle fill="#36A1BA" cx="-895.499" cy="786.166" r="3.167"/>
	<path fill="#7DC6DD" d="M-591.35,407.322l-0.941,45.012c0,0,4.405,30,23.125,37c18.721,7,29.732,11,29.732,31s-12.113,36,6.607,41
		c18.72,5,15.416,15,0,15c-15.417,0-27.919-13.575-29.484-25.657c-2.161-16.687,9.188-22.576-8.646-32.883
		c-10.982-6.346-21.078-5.399-21.078-5.399l0.541,53.985c0,0,31.313,6.475,39.993,25.523c12.972,28.464-5.47,47.216-1.146,62.431
		c6.649,23.4,25.762,19.503,24.776,28c-1.102,9.5-40.785,0.956-42.946-28c-1.228-16.443,3.099-21.393,3.644-29.06
		c1.081-15.214-10.269-26.993-25.401-25.519l0.284,88.578c0,0-0.692,17.897,14.849,28.718c16.215,11.288,20.538,9.815,28.645,16.688
		c19.755,16.744,7.566,35.827,17.295,41.718c15.486,9.377,16.754,21.595,3.242,16.687c-24.34-8.843-23.98-16.334-27.021-33.374
		c-3.244-18.159-32.604-22.436-32.604-22.436h-4.405l1.381,70.988h-139.676l7.253-400H-591.35z"/>
	<path fill="#7DC6DD" d="M-587.886,736.334"/>
	<ellipse fill="#36A1BA" cx="-567.148" cy="495.5" rx="8.626" ry="7.833"/>
	<ellipse fill="#36A1BA" cx="-568.25" cy="516.5" rx="6.791" ry="6.166"/>
	<ellipse fill="#36A1BA" cx="-548.795" cy="513.166" rx="6.423" ry="5.834"/>
	<ellipse fill="#36A1BA" cx="-558.155" cy="530.333" rx="4.771" ry="4.333"/>
	<ellipse fill="#36A1BA" cx="-544.207" cy="524.333" rx="5.139" ry="4.667"/>
	<ellipse fill="#36A1BA" cx="-547.143" cy="537.666" rx="4.405" ry="4"/>
	<ellipse fill="#36A1BA" cx="-559.807" cy="544.5" rx="3.854" ry="3.5"/>
	<ellipse fill="#36A1BA" cx="-547.694" cy="550.5" rx="4.221" ry="3.833"/>
	<ellipse fill="#36A1BA" cx="-555.219" cy="560.333" rx="4.038" ry="3.667"/>
	<ellipse fill="#36A1BA" cx="-540.903" cy="561.999" rx="3.671" ry="3.333"/>
	<ellipse fill="#36A1BA" cx="-545.124" cy="570.834" rx="3.12" ry="2.833"/>
	<ellipse fill="#36A1BA" cx="-529.891" cy="569.333" rx="3.304" ry="3"/>
	<ellipse fill="#36A1BA" cx="-587.887" cy="575" rx="9.911" ry="9"/>
	<ellipse fill="#36A1BA" cx="-575.407" cy="597.666" rx="8.81" ry="8"/>
	<ellipse fill="#36A1BA" cx="-564.579" cy="584.166" rx="7.525" ry="6.834"/>
	<ellipse fill="#36A1BA" cx="-552.832" cy="595.833" rx="6.791" ry="6.167"/>
	<ellipse fill="#36A1BA" cx="-549.346" cy="612.334" rx="6.791" ry="6.167"/>
	<ellipse fill="#36A1BA" cx="-565.313" cy="613.167" rx="7.158" ry="6.5"/>
	<ellipse fill="#36A1BA" cx="-553.2" cy="628.166" rx="5.322" ry="4.834"/>
	<ellipse fill="#36A1BA" cx="-566.23" cy="632.667" rx="4.405" ry="4"/>
	<ellipse fill="#36A1BA" cx="-557.972" cy="643.5" rx="4.222" ry="3.833"/>
	<ellipse fill="#36A1BA" cx="-567.515" cy="647.166" rx="4.221" ry="3.834"/>
	<ellipse fill="#36A1BA" cx="-556.137" cy="655.834" rx="4.589" ry="4.167"/>
	<ellipse fill="#36A1BA" cx="-558.889" cy="671.834" rx="3.854" ry="3.5"/>
	<ellipse fill="#36A1BA" cx="-551.181" cy="665.334" rx="3.671" ry="3.334"/>
	<ellipse fill="#36A1BA" cx="-567.698" cy="662.667" rx="4.771" ry="4.333"/>
	<ellipse fill="#36A1BA" cx="-546.959" cy="679.834" rx="4.221" ry="3.834"/>
	<ellipse fill="#36A1BA" cx="-580.361" cy="720.5" rx="6.791" ry="6.167"/>
	<ellipse fill="#36A1BA" cx="-568.617" cy="739.499" rx="4.588" ry="4.166"/>
	<ellipse fill="#36A1BA" cx="-568.983" cy="727.167" rx="4.222" ry="3.833"/>
	<ellipse fill="#36A1BA" cx="-555.952" cy="734.666" rx="4.771" ry="4.334"/>
	<ellipse fill="#36A1BA" cx="-540.536" cy="758.999" rx="3.304" ry="3"/>
	<ellipse fill="#36A1BA" cx="-545.858" cy="745.832" rx="4.588" ry="4.167"/>
	<ellipse fill="#36A1BA" cx="-557.604" cy="748.166" rx="5.322" ry="4.833"/>
	<ellipse fill="#36A1BA" cx="-582.015" cy="733.999" rx="6.239" ry="5.666"/>
	<ellipse fill="#36A1BA" cx="-547.694" cy="777.499" rx="3.854" ry="3.5"/>
	<ellipse fill="#36A1BA" cx="-535.947" cy="778.166" rx="3.854" ry="3.5"/>
	<ellipse fill="#36A1BA" cx="-548.795" cy="764.832" rx="3.854" ry="3.5"/>
	<ellipse fill="#36A1BA" cx="-550.998" cy="756.499" rx="3.854" ry="3.5"/>
	<ellipse fill="#36A1BA" cx="-538.7" cy="770.332" rx="3.304" ry="3"/>
	<ellipse fill="#36A1BA" cx="-532.644" cy="786.166" rx="3.487" ry="3.166"/>
	<path fill="#52BFD1" d="M-616,602.346c0,99.408-43.169,179.988-96.417,179.988s-96.417-80.58-96.417-179.988
		c0-99.43,43.168-180.012,96.417-180.012S-616,502.916-616,602.346z"/>
	<path fill="#52BFD1" d="M-598.001,255.337c0,19.33-16.977,34.998-37.917,34.998c-20.939,0-37.916-15.668-37.916-34.998
		c0-19.334,16.977-35.002,37.916-35.002C-614.978,220.335-598.001,236.003-598.001,255.337z"/>
	<path fill="#52BFD1" d="M-754.001,258.337c0,19.33-16.977,34.998-37.917,34.998c-20.939,0-37.916-15.668-37.916-34.998
		c0-19.334,16.977-35.002,37.916-35.002C-770.978,223.335-754.001,239.003-754.001,258.337z"/>
	<g>
		<g>
			<path fill="#7DC6DD" d="M-796.725,120.327c0.65,0,2.082-0.987,0.781-0.987C-796.594,119.34-798.025,120.327-796.725,120.327
				L-796.725,120.327z"/>
		</g>
	</g>
	<g>
		<g>
			<path fill="none" stroke="#F2E4D2" stroke-miterlimit="10" d="M-629.834,120.833"/>
		</g>
	</g>
	<g>
		<g>
			<path fill="none" stroke="#F2E4D2" stroke-miterlimit="10" d="M-717.834,119.833"/>
		</g>
	</g>
	<path fill="#6FC5D8" d="M-589.856,811.887l2.023,127.449c-2.206,25.478,41-4,41,29c0,32.062-120,28-119,14
		c0.778-10.892-6-128-59-122c-32.804,3.714-43.046,125.093-45,129c-3,6-115,30-117-12c-1.813-38.075,46,0,44.168-36.008
		c0,0,2.881-125.732,3.77-129.441H-589.856z"/>
	<path fill="#D6C370" d="M-883.824,965.732c0,0-4.187,4.983-2.193,10.965c0,0-12.559-7.376-16.347,0.996
		C-902.763,966.131-893.991,964.735-883.824,965.732z"/>
	<path fill="#D6C370" d="M-884.023,978.69c0,0-0.199,4.386,5.98,7.975c0,0-13.755-3.189-17.543,5.183
		C-895.984,980.285-894.19,977.693-884.023,978.69z"/>
	<path fill="#D6C370" d="M-876.749,989.394l7.841,2.83c0,0-8.394,3.072-11.97,13.587
		C-883.785,998.818-882.877,993.016-876.749,989.394z"/>
	<path fill="#D6C370" d="M-551.076,955.732c0,0,4.069,4.983,2.131,10.965c0,0,12.207-7.376,15.89,0.996
		C-532.669,956.131-541.194,954.735-551.076,955.732z"/>
	<path fill="#D6C370" d="M-550.883,968.69c0,0,0.193,4.386-5.812,7.975c0,0,13.369-3.189,17.051,5.183
		C-539.257,970.285-541.001,967.693-550.883,968.69z"/>
	<path fill="#D6C370" d="M-557.953,979.394l-7.621,2.83c0,0,8.158,3.072,11.634,13.587
		C-551.115,988.818-551.997,983.016-557.953,979.394z"/>
	<path fill="#52BFD1" d="M-838.85,819.312c0,0,139.461,50.713-3.888,123.271L-838.85,819.312z"/>
	<path fill="#52BFD1" d="M-589.57,816.84c0,0-124.187,45.307,1.429,119.307L-589.57,816.84z"/>
	<path fill="#8BCEAB" d="M-383.158,398.454c-2.881-20-6-94.502-1.5-143.002c3.742-40.336,17.835-96.814,42.335-118.185
		c3.563-3.109-30.614-46.478-26.833-49.163c3.811-2.707,45.583,35.274,49.586,33.009c14.496-8.207,30.144-13.496,46.221-15.628
		c5.359-0.709,10.294-53.232,15.722-53.232c6.436,0,13.158,52.648,19.217,53.574c18.174,2.778,34.613,9.509,49.126,18.935
		c2.902,1.885,44.048-32.706,46.795-30.616c3.355,2.555-31.726,41.837-28.608,44.663c29.753,26.976,31.94,73.642,35.44,119.144
		c2.627,34.148,4.752,126.445,1.92,140.279L-383.158,398.454z"/>
	<path fill="#8BCEAB" d="M-382.326,405.952v46c0,0-4,30-21,37s-27,11-27,31s11,36-6,41s-14,15,0,15s25.353-13.574,26.774-25.656
		c1.963-16.688-8.344-22.576,7.853-32.883c9.972-6.346,19.142-5.4,19.142-5.4l-0.492,53.986c0,0-28.436,6.475-36.318,25.523
		c-11.779,28.463,4.969,47.215,1.042,62.43c-6.038,23.4-23.395,19.504-22.5,28c1,9.5,37.038,0.957,39-28
		c1.114-16.443-2.813-21.393-3.309-29.059c-0.981-15.215,9.325-26.994,23.067-25.52l-0.259,88.578c0,0,0.63,17.898-13.484,28.719
		c-14.724,11.287-18.649,9.814-26.013,16.688c-17.938,16.744-6.871,35.826-15.705,41.717c-14.062,9.377-15.215,21.596-2.945,16.688
		c22.105-8.844,21.777-16.334,24.541-33.375c2.943-18.158,29.606-22.436,29.606-22.436h4l0.903,70.988h111.097l7-400
		L-382.326,405.952z"/>
	<path fill="#7DC6DD" d="M-386.326,735.952"/>
	<circle fill="#60A37B" cx="-405.159" cy="495.118" r="7.833"/>
	<circle fill="#60A37B" cx="-404.159" cy="516.118" r="6.167"/>
	<circle fill="#60A37B" cx="-421.825" cy="512.784" r="5.834"/>
	<circle fill="#60A37B" cx="-413.326" cy="529.952" r="4.333"/>
	<circle fill="#60A37B" cx="-425.992" cy="523.952" r="4.667"/>
	<circle fill="#60A37B" cx="-423.325" cy="537.284" r="4"/>
	<circle fill="#60A37B" cx="-411.825" cy="544.118" r="3.5"/>
	<circle fill="#60A37B" cx="-422.825" cy="550.118" r="3.834"/>
	<circle fill="#60A37B" cx="-415.992" cy="559.952" r="3.667"/>
	<circle fill="#60A37B" cx="-428.992" cy="561.618" r="3.333"/>
	<circle fill="#60A37B" cx="-425.159" cy="570.452" r="2.833"/>
	<circle fill="#60A37B" cx="-438.992" cy="568.952" r="3"/>
	<circle fill="#60A37B" cx="-386.325" cy="574.618" r="9"/>
	<circle fill="#60A37B" cx="-397.659" cy="597.284" r="8"/>
	<circle fill="#60A37B" cx="-407.492" cy="583.784" r="6.833"/>
	<circle fill="#60A37B" cx="-418.158" cy="595.452" r="6.167"/>
	<circle fill="#60A37B" cx="-421.325" cy="611.952" r="6.167"/>
	<circle fill="#60A37B" cx="-406.825" cy="612.786" r="6.5"/>
	<circle fill="#60A37B" cx="-417.825" cy="627.784" r="4.834"/>
	<circle fill="#60A37B" cx="-405.992" cy="632.286" r="4"/>
	<circle fill="#60A37B" cx="-413.492" cy="643.118" r="3.833"/>
	<circle fill="#60A37B" cx="-404.826" cy="646.784" r="3.833"/>
	<circle fill="#60A37B" cx="-415.158" cy="655.452" r="4.167"/>
	<circle fill="#60A37B" cx="-412.659" cy="671.452" r="3.5"/>
	<circle fill="#60A37B" cx="-419.658" cy="664.952" r="3.333"/>
	<circle fill="#60A37B" cx="-404.658" cy="662.286" r="4.333"/>
	<circle fill="#60A37B" cx="-423.492" cy="679.452" r="3.833"/>
	<circle fill="#60A37B" cx="-393.158" cy="720.118" r="6.167"/>
	<circle fill="#60A37B" cx="-403.825" cy="739.118" r="4.167"/>
	<circle fill="#60A37B" cx="-403.492" cy="726.786" r="3.833"/>
	<circle fill="#60A37B" cx="-415.325" cy="734.284" r="4.333"/>
	<circle fill="#60A37B" cx="-429.325" cy="758.618" r="3"/>
	<circle fill="#60A37B" cx="-424.492" cy="745.45" r="4.167"/>
	<circle fill="#60A37B" cx="-413.825" cy="747.784" r="4.833"/>
	<circle fill="#60A37B" cx="-391.658" cy="733.618" r="5.667"/>
	<circle fill="#60A37B" cx="-422.825" cy="777.118" r="3.5"/>
	<circle fill="#60A37B" cx="-433.491" cy="777.784" r="3.5"/>
	<circle fill="#60A37B" cx="-421.825" cy="764.45" r="3.5"/>
	<circle fill="#60A37B" cx="-419.825" cy="756.118" r="3.5"/>
	<circle fill="#60A37B" cx="-430.991" cy="769.95" r="3"/>
	<circle fill="#60A37B" cx="-436.492" cy="785.784" r="3.167"/>
	<path fill="#8BCEAB" d="M-130.343,406.94l-2.941,45.012c0,0,4.405,30,23.125,37c18.721,7,29.732,11,29.732,31s-12.113,36,6.607,41
		c18.72,5,15.416,15,0,15c-15.417,0-27.919-13.574-29.484-25.656c-2.161-16.688,9.188-22.576-8.646-32.883
		c-10.982-6.346-21.078-5.4-21.078-5.4l0.541,53.986c0,0,31.313,6.475,39.993,25.523c12.972,28.463-5.47,47.215-1.146,62.43
		c6.649,23.4,25.762,19.504,24.776,28c-1.102,9.5-40.785,0.957-42.946-28c-1.228-16.443,3.099-21.393,3.644-29.059
		c1.081-15.215-10.269-26.994-25.401-25.52l0.284,88.578c0,0-0.692,17.898,14.849,28.719c16.215,11.287,20.538,9.814,28.645,16.688
		c19.755,16.744,7.566,35.826,17.295,41.717c15.486,9.377,16.754,21.596,3.242,16.688c-24.34-8.844-23.98-16.334-27.021-33.375
		c-3.244-18.158-32.604-22.436-32.604-22.436h-4.405l3.381,70.988h-141.676l7.253-400H-130.343z"/>
	<path fill="#7DC6DD" d="M-128.879,735.952"/>
	<ellipse fill="#60A37B" cx="-108.141" cy="495.118" rx="8.626" ry="7.834"/>
	<ellipse fill="#60A37B" cx="-109.243" cy="516.118" rx="6.791" ry="6.166"/>
	<ellipse fill="#60A37B" cx="-89.788" cy="512.784" rx="6.423" ry="5.834"/>
	<ellipse fill="#60A37B" cx="-99.148" cy="529.952" rx="4.771" ry="4.332"/>
	<ellipse fill="#60A37B" cx="-85.2" cy="523.952" rx="5.139" ry="4.666"/>
	<ellipse fill="#60A37B" cx="-88.136" cy="537.284" rx="4.405" ry="4"/>
	<ellipse fill="#60A37B" cx="-100.8" cy="544.118" rx="3.854" ry="3.5"/>
	<ellipse fill="#60A37B" cx="-88.687" cy="550.118" rx="4.221" ry="3.834"/>
	<ellipse fill="#60A37B" cx="-96.212" cy="559.952" rx="4.038" ry="3.666"/>
	<ellipse fill="#60A37B" cx="-81.896" cy="561.618" rx="3.671" ry="3.332"/>
	<ellipse fill="#60A37B" cx="-86.117" cy="570.452" rx="3.12" ry="2.834"/>
	<ellipse fill="#60A37B" cx="-70.884" cy="568.952" rx="3.304" ry="3"/>
	<ellipse fill="#60A37B" cx="-128.88" cy="574.618" rx="9.911" ry="9"/>
	<ellipse fill="#60A37B" cx="-116.4" cy="597.284" rx="8.81" ry="8"/>
	<ellipse fill="#60A37B" cx="-105.572" cy="583.784" rx="7.525" ry="6.834"/>
	<ellipse fill="#60A37B" cx="-93.825" cy="595.452" rx="6.791" ry="6.166"/>
	<ellipse fill="#60A37B" cx="-90.339" cy="611.952" rx="6.791" ry="6.168"/>
	<ellipse fill="#60A37B" cx="-106.306" cy="612.786" rx="7.158" ry="6.5"/>
	<ellipse fill="#60A37B" cx="-94.193" cy="627.784" rx="5.322" ry="4.834"/>
	<ellipse fill="#60A37B" cx="-107.223" cy="632.286" rx="4.405" ry="4"/>
	<ellipse fill="#60A37B" cx="-98.965" cy="643.118" rx="4.222" ry="3.834"/>
	<ellipse fill="#60A37B" cx="-108.508" cy="646.784" rx="4.221" ry="3.834"/>
	<ellipse fill="#60A37B" cx="-97.13" cy="655.452" rx="4.589" ry="4.168"/>
	<ellipse fill="#60A37B" cx="-99.882" cy="671.452" rx="3.854" ry="3.5"/>
	<ellipse fill="#60A37B" cx="-92.174" cy="664.952" rx="3.671" ry="3.334"/>
	<ellipse fill="#60A37B" cx="-108.691" cy="662.286" rx="4.771" ry="4.332"/>
	<ellipse fill="#60A37B" cx="-87.953" cy="679.452" rx="4.221" ry="3.834"/>
	<ellipse fill="#60A37B" cx="-121.354" cy="720.118" rx="6.791" ry="6.168"/>
	<ellipse fill="#60A37B" cx="-109.61" cy="739.118" rx="4.588" ry="4.166"/>
	<ellipse fill="#60A37B" cx="-109.977" cy="726.786" rx="4.222" ry="3.832"/>
	<ellipse fill="#60A37B" cx="-96.945" cy="734.284" rx="4.771" ry="4.334"/>
	<ellipse fill="#60A37B" cx="-81.529" cy="758.618" rx="3.304" ry="3"/>
	<ellipse fill="#60A37B" cx="-86.852" cy="745.45" rx="4.588" ry="4.168"/>
	<ellipse fill="#60A37B" cx="-98.598" cy="747.784" rx="5.322" ry="4.834"/>
	<ellipse fill="#60A37B" cx="-123.008" cy="733.618" rx="6.239" ry="5.666"/>
	<ellipse fill="#60A37B" cx="-88.687" cy="777.118" rx="3.854" ry="3.5"/>
	<ellipse fill="#60A37B" cx="-76.94" cy="777.784" rx="3.854" ry="3.5"/>
	<ellipse fill="#60A37B" cx="-89.788" cy="764.45" rx="3.854" ry="3.5"/>
	<ellipse fill="#60A37B" cx="-91.991" cy="756.118" rx="3.854" ry="3.5"/>
	<ellipse fill="#60A37B" cx="-79.693" cy="769.95" rx="3.304" ry="3"/>
	<ellipse fill="#60A37B" cx="-73.637" cy="785.784" rx="3.487" ry="3.166"/>
	<path fill="#72C596" d="M-156.993,601.964c0,99.408-43.169,179.988-96.417,179.988s-96.417-80.58-96.417-179.988
		c0-99.43,43.169-180.012,96.417-180.012S-156.993,502.534-156.993,601.964z"/>
	<path fill="#72C596" d="M-140.492,253.456c0,19.33-16.977,34.998-37.917,34.998c-20.939,0-37.916-15.668-37.916-34.998
		c0-19.336,16.977-35.004,37.916-35.004C-157.469,218.452-140.492,234.12-140.492,253.456z"/>
	<path fill="#72C596" d="M-296.492,256.456c0,19.33-16.977,34.998-37.917,34.998c-20.939,0-37.916-15.668-37.916-34.998
		c0-19.336,16.977-35.004,37.916-35.004C-313.469,221.452-296.492,237.12-296.492,256.456z"/>
	<g>
		<g>
			<path fill="#7DC6DD" d="M-339.216,118.446c0.65,0,2.082-0.986,0.781-0.986C-339.085,117.459-340.517,118.446-339.216,118.446
				L-339.216,118.446z"/>
		</g>
	</g>
	<g>
		<g>
			<path fill="none" stroke="#F2E4D2" stroke-miterlimit="10" d="M-172.325,118.953"/>
		</g>
	</g>
	<g>
		<g>
			<path fill="none" stroke="#F2E4D2" stroke-miterlimit="10" d="M-260.325,117.953"/>
		</g>
	</g>
	<path fill="#8BCEAB" d="M-129.85,812.505l2.023,127.449c-2.206,25.479,41-4,41,29c0,32.062-120,28-119,14
		c0.778-10.891-6-128-59-122c-32.804,3.715-43.046,125.094-45,129c-3,6-114,29-116-13c-1.813-38.074,45,1,43.169-35.008
		c0,0,2.881-125.732,3.77-129.441H-129.85z"/>
	<path fill="#D6C370" d="M-423.817,966.351c0,0-4.187,4.984-2.193,10.965c0,0-12.559-7.375-16.347,0.996
		C-442.756,966.749-433.984,965.354-423.817,966.351z"/>
	<path fill="#D6C370" d="M-423.017,978.31c0,0-1.199,5.385,4.98,8.975c0,0-12.755-4.189-16.543,4.182
		C-434.978,979.903-433.184,977.312-423.017,978.31z"/>
	<path fill="#D6C370" d="M-416.742,990.013l7.841,2.83c0,0-8.395,3.072-11.97,13.586
		C-423.778,999.437-422.87,993.634-416.742,990.013z"/>
	<path fill="#D6C370" d="M-91.069,956.351c0,0,4.069,4.984,2.131,10.965c0,0,13.207-8.375,16.89-0.004
		C-71.662,955.749-81.188,955.354-91.069,956.351z"/>
	<path fill="#D6C370" d="M-90.876,969.31c0,0,0.193,4.385-5.812,7.975c0,0,14.369-4.189,18.051,4.182
		C-78.25,969.903-80.994,968.312-90.876,969.31z"/>
	<path fill="#D6C370" d="M-97.946,980.013l-7.621,2.83c0,0,8.158,3.072,11.634,13.586C-91.108,989.437-91.99,983.634-97.946,980.013
		z"/>
	<path fill="#72C596" d="M-378.843,819.931c0,0,139.461,50.713-3.889,123.271L-378.843,819.931z"/>
	<path fill="#72C596" d="M-129.563,817.458c0,0-124.187,45.307,1.429,119.307L-129.563,817.458z"/>
	<path fill="#E06899" d="M75.175,400.511c-2.881-20-6-94.502-1.5-143.002c3.742-40.336,17.835-96.815,42.335-118.186
		c3.563-3.109-30.614-46.478-26.833-49.163c3.811-2.707,45.583,35.274,49.586,33.009c14.496-8.207,30.144-13.496,46.221-15.628
		c5.359-0.709,10.294-53.232,15.722-53.232c6.436,0,13.158,52.648,19.217,53.574c18.174,2.778,34.613,9.509,49.126,18.935
		c2.902,1.885,44.048-32.706,46.795-30.616c3.355,2.555-31.726,41.837-28.608,44.663c29.753,26.976,31.94,73.643,35.44,119.145
		c2.627,34.148,4.752,126.445,1.92,140.279L75.175,400.511z"/>
	<path fill="#E06899" d="M73.674,412.843v46c0,0-4,30-21,37s-27,11-27,31s11,36-6,41s-14,15,0,15s25.353-13.576,26.774-25.658
		c1.963-16.686-8.344-22.576,7.853-32.883c9.972-6.346,19.142-5.398,19.142-5.398l-0.492,53.984c0,0-28.436,6.475-36.318,25.523
		c-11.779,28.465,4.969,47.217,1.042,62.432c-6.038,23.4-23.395,19.502-22.5,28c1,9.5,37.038,0.955,39-28
		c1.114-16.443-2.813-21.393-3.309-29.061c-0.981-15.213,9.325-26.992,23.067-25.518l-0.259,88.578c0,0,0.63,17.896-13.484,28.717
		c-14.724,11.289-18.649,9.816-26.013,16.688c-17.938,16.744-6.871,35.828-15.705,41.719c-14.062,9.377-15.215,21.594-2.945,16.686
		c22.105-8.842,21.777-16.334,24.541-33.373c2.943-18.16,29.606-22.436,29.606-22.436h4l0.903,70.988h111.097l7-400L73.674,412.843z
		"/>
	<path fill="#7DC6DD" d="M69.674,742.843"/>
	<circle fill="#B63C79" cx="50.841" cy="502.009" r="7.833"/>
	<circle fill="#B63C79" cx="51.841" cy="523.009" r="6.167"/>
	<circle fill="#B63C79" cx="34.175" cy="519.675" r="5.834"/>
	<circle fill="#B63C79" cx="42.674" cy="536.841" r="4.333"/>
	<circle fill="#B63C79" cx="30.008" cy="530.841" r="4.667"/>
	<circle fill="#B63C79" cx="32.675" cy="544.175" r="4"/>
	<circle fill="#B63C79" cx="44.175" cy="551.009" r="3.5"/>
	<circle fill="#B63C79" cx="33.175" cy="557.009" r="3.834"/>
	<circle fill="#B63C79" cx="40.008" cy="566.841" r="3.667"/>
	<circle fill="#B63C79" cx="27.008" cy="568.507" r="3.333"/>
	<circle fill="#B63C79" cx="30.841" cy="577.343" r="2.833"/>
	<circle fill="#B63C79" cx="17.008" cy="575.841" r="3"/>
	<circle fill="#B63C79" cx="69.675" cy="581.509" r="9"/>
	<circle fill="#B63C79" cx="58.341" cy="604.175" r="8"/>
	<circle fill="#B63C79" cx="48.508" cy="590.675" r="6.833"/>
	<circle fill="#B63C79" cx="37.842" cy="602.341" r="6.167"/>
	<circle fill="#B63C79" cx="34.675" cy="618.843" r="6.167"/>
	<circle fill="#B63C79" cx="49.175" cy="619.675" r="6.5"/>
	<circle fill="#B63C79" cx="38.175" cy="634.675" r="4.834"/>
	<circle fill="#B63C79" cx="50.008" cy="639.175" r="4"/>
	<circle fill="#B63C79" cx="42.508" cy="650.009" r="3.833"/>
	<circle fill="#B63C79" cx="51.174" cy="653.675" r="3.833"/>
	<circle fill="#B63C79" cx="40.842" cy="662.343" r="4.167"/>
	<circle fill="#B63C79" cx="43.341" cy="678.343" r="3.5"/>
	<circle fill="#B63C79" cx="36.342" cy="671.843" r="3.333"/>
	<circle fill="#B63C79" cx="51.342" cy="669.175" r="4.333"/>
	<circle fill="#B63C79" cx="32.508" cy="686.343" r="3.833"/>
	<circle fill="#B63C79" cx="62.842" cy="727.009" r="6.167"/>
	<circle fill="#B63C79" cx="52.175" cy="746.007" r="4.167"/>
	<circle fill="#B63C79" cx="52.508" cy="733.675" r="3.833"/>
	<circle fill="#B63C79" cx="40.675" cy="741.175" r="4.333"/>
	<circle fill="#B63C79" cx="26.675" cy="765.507" r="3"/>
	<circle fill="#B63C79" cx="31.508" cy="752.341" r="4.167"/>
	<circle fill="#B63C79" cx="42.175" cy="754.675" r="4.833"/>
	<circle fill="#B63C79" cx="64.342" cy="740.507" r="5.667"/>
	<circle fill="#B63C79" cx="33.175" cy="784.007" r="3.5"/>
	<circle fill="#B63C79" cx="22.509" cy="784.675" r="3.5"/>
	<circle fill="#B63C79" cx="34.175" cy="771.341" r="3.5"/>
	<circle fill="#B63C79" cx="36.175" cy="763.007" r="3.5"/>
	<circle fill="#B63C79" cx="25.009" cy="776.841" r="3"/>
	<circle fill="#B63C79" cx="19.508" cy="792.675" r="3.167"/>
	<path fill="#E06899" d="M325.657,413.831l-2.941,45.012c0,0,4.405,30,23.125,37c18.721,7,29.732,11,29.732,31s-12.113,36,6.607,41
		c18.72,5,15.416,15,0,15c-15.417,0-27.919-13.576-29.484-25.658c-2.161-16.686,9.188-22.576-8.646-32.883
		c-10.982-6.346-21.078-5.398-21.078-5.398l0.541,53.984c0,0,31.313,6.475,39.993,25.523c12.972,28.465-5.47,47.217-1.146,62.432
		c6.649,23.4,25.762,19.502,24.776,28c-1.102,9.5-40.785,0.955-42.946-28c-1.228-16.443,3.099-21.393,3.644-29.061
		c1.081-15.213-10.269-26.992-25.401-25.518l0.284,88.578c0,0-0.692,17.896,14.849,28.717c16.215,11.289,20.538,9.816,28.645,16.688
		c19.755,16.744,7.566,35.828,17.295,41.719c15.486,9.377,16.754,21.594,3.242,16.686c-24.34-8.842-23.98-16.334-27.021-33.373
		c-3.244-18.16-32.604-22.436-32.604-22.436h-4.405l3.381,70.988H184.421l7.253-400H325.657z"/>
	<path fill="#7DC6DD" d="M327.121,742.843"/>
	<ellipse fill="#B63C79" cx="347.859" cy="502.009" rx="8.626" ry="7.832"/>
	<ellipse fill="#B63C79" cx="346.757" cy="523.009" rx="6.791" ry="6.166"/>
	<ellipse fill="#B63C79" cx="366.212" cy="519.675" rx="6.423" ry="5.834"/>
	<ellipse fill="#B63C79" cx="356.852" cy="536.841" rx="4.771" ry="4.334"/>
	<ellipse fill="#B63C79" cx="370.8" cy="530.841" rx="5.139" ry="4.668"/>
	<ellipse fill="#B63C79" cx="367.864" cy="544.175" rx="4.405" ry="4"/>
	<ellipse fill="#B63C79" cx="355.2" cy="551.009" rx="3.854" ry="3.5"/>
	<ellipse fill="#B63C79" cx="367.313" cy="557.009" rx="4.221" ry="3.832"/>
	<ellipse fill="#B63C79" cx="359.788" cy="566.841" rx="4.038" ry="3.668"/>
	<ellipse fill="#B63C79" cx="374.104" cy="568.507" rx="3.671" ry="3.334"/>
	<ellipse fill="#B63C79" cx="369.883" cy="577.343" rx="3.12" ry="2.832"/>
	<ellipse fill="#B63C79" cx="385.116" cy="575.841" rx="3.304" ry="3"/>
	<ellipse fill="#B63C79" cx="327.12" cy="581.509" rx="9.911" ry="9"/>
	<ellipse fill="#B63C79" cx="339.6" cy="604.175" rx="8.81" ry="8"/>
	<ellipse fill="#B63C79" cx="350.428" cy="590.675" rx="7.525" ry="6.834"/>
	<ellipse fill="#B63C79" cx="362.175" cy="602.341" rx="6.791" ry="6.168"/>
	<ellipse fill="#B63C79" cx="365.661" cy="618.843" rx="6.791" ry="6.166"/>
	<ellipse fill="#B63C79" cx="349.694" cy="619.675" rx="7.158" ry="6.5"/>
	<ellipse fill="#B63C79" cx="361.807" cy="634.675" rx="5.322" ry="4.834"/>
	<ellipse fill="#B63C79" cx="348.777" cy="639.175" rx="4.405" ry="4"/>
	<ellipse fill="#B63C79" cx="357.035" cy="650.009" rx="4.222" ry="3.832"/>
	<ellipse fill="#B63C79" cx="347.492" cy="653.675" rx="4.221" ry="3.834"/>
	<ellipse fill="#B63C79" cx="358.87" cy="662.343" rx="4.589" ry="4.166"/>
	<ellipse fill="#B63C79" cx="356.118" cy="678.343" rx="3.854" ry="3.5"/>
	<ellipse fill="#B63C79" cx="363.826" cy="671.843" rx="3.671" ry="3.334"/>
	<ellipse fill="#B63C79" cx="347.309" cy="669.175" rx="4.771" ry="4.334"/>
	<ellipse fill="#B63C79" cx="368.047" cy="686.343" rx="4.221" ry="3.834"/>
	<ellipse fill="#B63C79" cx="334.646" cy="727.009" rx="6.791" ry="6.166"/>
	<ellipse fill="#B63C79" cx="346.39" cy="746.007" rx="4.588" ry="4.166"/>
	<ellipse fill="#B63C79" cx="346.023" cy="733.675" rx="4.222" ry="3.834"/>
	<ellipse fill="#B63C79" cx="359.055" cy="741.175" rx="4.771" ry="4.334"/>
	<ellipse fill="#B63C79" cx="374.471" cy="765.507" rx="3.304" ry="3"/>
	<ellipse fill="#B63C79" cx="369.148" cy="752.341" rx="4.588" ry="4.166"/>
	<ellipse fill="#B63C79" cx="357.402" cy="754.675" rx="5.322" ry="4.832"/>
	<ellipse fill="#B63C79" cx="332.992" cy="740.507" rx="6.239" ry="5.666"/>
	<ellipse fill="#B63C79" cx="367.313" cy="784.007" rx="3.854" ry="3.5"/>
	<ellipse fill="#B63C79" cx="379.06" cy="784.675" rx="3.854" ry="3.5"/>
	<ellipse fill="#B63C79" cx="366.212" cy="771.341" rx="3.854" ry="3.5"/>
	<ellipse fill="#B63C79" cx="364.009" cy="763.007" rx="3.854" ry="3.5"/>
	<ellipse fill="#B63C79" cx="376.307" cy="776.841" rx="3.304" ry="3"/>
	<ellipse fill="#B63C79" cx="382.363" cy="792.675" rx="3.487" ry="3.166"/>
	<path fill="#D65490" d="M299.007,608.854c0,99.408-43.169,179.988-96.417,179.988s-96.417-80.58-96.417-179.988
		c0-99.43,43.169-180.012,96.417-180.012S299.007,509.425,299.007,608.854z"/>
	<path fill="#D65490" d="M317.841,255.513c0,19.33-16.977,34.998-37.917,34.998c-20.939,0-37.916-15.668-37.916-34.998
		c0-19.336,16.977-35.004,37.916-35.004C300.864,220.509,317.841,236.177,317.841,255.513z"/>
	<path fill="#D65490" d="M161.841,258.513c0,19.33-16.977,34.998-37.917,34.998c-20.939,0-37.916-15.668-37.916-34.998
		c0-19.336,16.977-35.004,37.916-35.004C144.864,223.509,161.841,239.177,161.841,258.513z"/>
	<g>
		<g>
			<path fill="#7DC6DD" d="M118.117,119.501c0.65,0,2.082-0.986,0.781-0.986C118.248,118.515,116.816,119.501,118.117,119.501
				L118.117,119.501z"/>
		</g>
	</g>
	<g>
		<g>
			<path fill="none" stroke="#F2E4D2" stroke-miterlimit="10" d="M286.008,121.008"/>
		</g>
	</g>
	<g>
		<g>
			<path fill="none" stroke="#F2E4D2" stroke-miterlimit="10" d="M197.008,119.008"/>
		</g>
	</g>
	<path fill="#E06899" d="M324.483,821.509l2.023,127.449c-2.206,25.479,41-4,41,29c0,32.062-120,28-119,14
		c0.778-10.891-6-128-59-122c-32.804,3.715-43.046,125.094-45,129c-3,6-114,29-116-13c-1.813-38.074,45,1,43.169-35.008
		c0,0,2.881-125.732,3.77-129.441H324.483z"/>
	<path fill="#D6C370" d="M30.516,975.354c0,0-4.187,4.984-2.193,10.965c0,0-12.559-7.375-16.347,0.996
		C11.577,975.753,20.349,974.358,30.516,975.354z"/>
	<path fill="#D6C370" d="M31.316,987.313c0,0-1.199,5.385,4.98,8.975c0,0-12.755-4.189-16.543,4.182
		C19.355,988.907,21.149,986.315,31.316,987.313z"/>
	<path fill="#D6C370" d="M37.591,999.017l7.841,2.83c0,0-8.395,3.072-11.97,13.586C30.555,1008.44,31.463,1002.638,37.591,999.017z"
		/>
	<path fill="#D6C370" d="M363.264,965.354c0,0,4.069,4.984,2.131,10.965c0,0,13.207-8.375,16.89-0.004
		C382.671,964.753,373.146,964.358,363.264,965.354z"/>
	<path fill="#D6C370" d="M363.457,978.313c0,0,0.193,4.385-5.812,7.975c0,0,14.369-4.189,18.051,4.182
		C376.083,978.907,373.339,977.315,363.457,978.313z"/>
	<path fill="#D6C370" d="M356.387,989.017l-7.621,2.83c0,0,8.158,3.072,11.634,13.586
		C363.225,998.44,362.343,992.638,356.387,989.017z"/>
	<path fill="#D65490" d="M75.49,828.935c0,0,139.461,50.713-3.889,123.271L75.49,828.935z"/>
	<path fill="#D65490" d="M324.77,826.462c0,0-124.187,45.307,1.429,119.307L324.77,826.462z"/>
	<path fill="#7DC6DD" d="M548.215,399.335c-14.841-6.579-23.789-26.916-27.844-53.051c-1.788-11.528,1.847-27.787-13.702,0.717
		c0-18,17.333-89.334,4.667-56.667c-4.14,10.678,21.333-72.667,1.333-39.333c6.911-29.377,31.298-68.685,44.998-80.001
		c15.334-12.667-5.881-12.347-0.666-12.667c32.666-2,6.103-10.462,10.666-12.667c10.205-4.931,18.469,3.03,21.334-0.667
		c5.342-6.894-3.038-7.777-0.667-8.667c10.667-4,12.333,1.333,17.333,3.333c0,0,78.829,6.85,115.667,1.333
		c13.587-2.034,27.333-13.333,23.333-3.333c-2.984,7.46,14.86-1.998,14,4.667C756,163,773.617,147.693,775.334,149
		c3.355,2.554-12.492,2.034,4,21.333c10.685,12.504,26.993,31.484,35.056,57.408c-7.459-5.424,5.215,15.9,9.275,33.497
		c-12.368-7.215,1.546,9.275,9.791,26.797c-36.072-20.613,5.669,18.036,1.547,51.018c-30.92-43.287,2.061,46.38-37.369,60.06
		L548.215,399.335z"/>
	<path fill="#52BFD1" d="M790.88,254.337c0,19.33-16.977,34.998-37.917,34.998c-20.939,0-37.916-15.668-37.916-34.998
		c0-19.334,16.977-35.002,37.916-35.002C773.903,219.335,790.88,235.003,790.88,254.337z"/>
	<path fill="#52BFD1" d="M634.88,257.337c0,19.33-16.977,34.998-37.917,34.998c-20.939,0-37.916-15.668-37.916-34.998
		c0-19.334,16.977-35.002,37.916-35.002C617.903,222.335,634.88,238.003,634.88,257.337z"/>
	<g>
		<g>
			<path fill="#7DC6DD" d="M592.156,119.326c0.65,0,2.082-0.986,0.781-0.986C592.287,118.34,590.855,119.326,592.156,119.326
				L592.156,119.326z"/>
		</g>
	</g>
	<g>
		<g>
			<path fill="none" stroke="#F2E4D2" stroke-miterlimit="10" d="M759.047,119.833"/>
		</g>
	</g>
	<g>
		<g>
			<path fill="none" stroke="#F2E4D2" stroke-miterlimit="10" d="M671.047,118.833"/>
		</g>
	</g>
	<path fill="#7DC6DD" d="M796.024,820.697l-9.409,174.67c25.552,21.466-2.013,37.357-2.013,37.357l-16.269,154.276
		c25.5,13.5,54.5,3.667,100-13.333c-23.25,14.25,1.334,19,1.334,19s-24.265,14.294,1.271,23.601
		c8.55,3.116-136.272,7.064-143.272-14.436c0,0,54.5-349.5-66.619-332.687c-76.971,10.685-54.881,333.187-54.881,333.187
		c-6.593,13.185-92.896,20.783-130.5,15.5c0,0,27.5-11-1.75-18.25c21.5-7.75,7.557-13.524-1.978-20.25
		c0,0,90.308,26.873,97.808,7.873l-6.792-150.537c-17.173-8.485-15.362-28.296,0.566-39.05
		c-2.68-88.741-16.966-175.128-16.536-176.922H796.024z"/>
	<g>
		<path fill="#7DC6DD" d="M548.002,414.333l-29.169,81.501c0,0-3.499,1.334-7.665,8.667c7.166-3.5,4.666,4.001,2.666,6.167
			s-15.021,13.084-16.619,19.779c11.453-8.28,9.911,2.613,5.453,6.054c-3.5,3.5-6.653,2.938-11.05,12.432
			c11.392-4.297,10.973-0.146,7.529,1.911c-4.747,2.835-5.341,3.898-6.479,7.823c11.181-7.685-1.332,14.001-1.332,14.001
			c-17.671,79.09-20.56,135.287-3.667,153.335c-14.824,10.15-21.368,28.406,8.453,35.778c17.5,1.5,14.692-14.629,5.026-24.963
			c-3.834-9.333,13.916,6.672,15.916,1.005s-12.396-20.487-12.396-20.487s-22.334-26.666,12.57-138.943
			c0,0,10.264-28.129,20.282-57.742c0,0-4.478,21.196-8.74,53.028c-0.855,6.389-13.153,37.169-9.446,30.991
			c8-13.334,6.085-2.729,5.684,1.357c-0.17,1.729-5.655,13.741-4.713,12.246c4.14-6.568,5.166-1.213,3.52,0.894
			c-2.89,3.696-9.015,21.556-7.299,18.723c7.738-12.777,8.188-2.879,5.933,0.462c-3.163,4.687-10.582,21.101-7.913,18.254
			c6.748-7.198,9.547,3.516,6.845,7.378c-9.958,14.234-10.776,25.878-8.431,22.894c10.611-13.498,10.493-2.161,8.335,1.698
			c-3.749,6.705-10.029,25.714-7.229,22.834c8.913-9.168,10.601,0.996,8.535,6.278c-1.063,2.72-4.433,16.26-3.44,14.605
			c3.819-6.367,6.741-1.925,4.863,0.593c-6.392,8.571-6.924,28.682-5.458,25.55c6.197-13.243,8.491-4.124,9.554,1.262
			c0.858,4.351-13.12,14.612-6.498,23.865c7.215-17.402,17.675,0.855,13.827,4.472c-3.642,3.422-3.787,19.461-2.453,16.834
			c8.234-16.214,12.568,7.439,13.674,9.465h122.667l-6.001-400H548.002z"/>
		<path fill="#7DC6DD" d="M796.813,414.333l29.169,81.501c0,0,3.499,1.334,7.665,8.667c-7.166-3.5-4.666,4.001-2.666,6.167
			s15.021,13.084,16.619,19.779c-11.453-8.28-9.911,2.613-5.453,6.054c3.5,3.5,6.653,2.938,11.05,12.432
			c-11.392-4.297-10.973-0.146-7.529,1.911c4.747,2.835,5.341,3.898,6.479,7.823c-11.181-7.685,1.332,14.001,1.332,14.001
			c17.671,79.09,20.56,135.287,3.667,153.335c14.824,10.15,21.368,28.406-8.453,35.778c-17.5,1.5-14.692-14.629-5.026-24.963
			c3.834-9.333-13.916,6.672-15.916,1.005s12.396-20.487,12.396-20.487s22.334-26.666-12.57-138.943
			c0,0-10.264-28.129-20.282-57.742c0,0,4.478,21.196,8.74,53.028c0.855,6.389,13.153,37.169,9.446,30.991
			c-8-13.334-6.085-2.729-5.684,1.357c0.17,1.729,5.655,13.741,4.713,12.246c-4.14-6.568-5.166-1.213-3.52,0.894
			c2.89,3.696,9.015,21.556,7.299,18.723c-7.738-12.777-8.188-2.879-5.933,0.462c3.163,4.687,10.582,21.101,7.913,18.254
			c-6.748-7.198-9.547,3.516-6.845,7.378c9.958,14.234,10.776,25.878,8.431,22.894c-10.611-13.498-10.493-2.161-8.335,1.698
			c3.749,6.705,10.029,25.714,7.229,22.834c-8.913-9.168-10.601,0.996-8.535,6.278c1.063,2.72,4.433,16.26,3.44,14.605
			c-3.819-6.367-6.741-1.925-4.863,0.593c6.392,8.571,6.924,28.682,5.458,25.55c-6.197-13.243-8.491-4.124-9.554,1.262
			c-0.858,4.351,13.12,14.612,6.498,23.865c-7.215-17.402-17.675,0.855-13.827,4.472c3.642,3.422,3.787,19.461,2.453,16.834
			c-8.234-16.214-12.568,7.439-13.674,9.465h-135.48l-2.667-400H796.813z"/>
	</g>
	<path fill="#D6C370" d="M478.985,751.485c0,0,4.053,5.093,10.311,4.325c0,0-9.722,10.845-2.268,16.22
		C475.616,770.126,475.989,761.252,478.985,751.485z"/>
	<path fill="#D6C370" d="M490.63,757.613c0,0,6.111,4.142,8.594,0.13c0,0-2.655,9.055,6.141,11.716
		C493.952,771.365,490.971,767.824,490.63,757.613z"/>
	<path fill="#D6C370" d="M502.338,754.203l3.968-7.332c0,0,1.787,8.758,11.651,13.861
		C510.61,762.563,505.007,760.802,502.338,754.203z"/>
	<path fill="#D6C370" d="M866.859,748.606c0,0-4.046,5.002-10.296,4.329c0,0,9.717,10.439,2.275,15.757
		C870.235,766.705,869.857,758.075,866.859,748.606z"/>
	<path fill="#D6C370" d="M855.855,757.636c0,0-4.106,1.216-9.894-0.268c0,0,6.983,7.496,2.014,15.173
		C857.847,766.509,858.109,764.275,855.855,757.636z"/>
	<path fill="#D6C370" d="M843.405,757.883l-5.555-5.936c0,0,0.318,8.712-8.037,15.979
		C837.354,767.831,842.365,764.775,843.405,757.883z"/>
	<path fill="#7DC6DD" d="M482.667,1232.583"/>
</g>
<g id="face_layer" display="none">
	<g display="inline">
		<path fill="#FFFFFF" d="M-653.273,174.374c13.137,9.59,16.013,28.012,6.423,41.151c-9.589,13.137-28.013,16.012-41.149,6.422
			c-8.977-6.553-13.162-17.229-11.854-27.526l41.434-23.063C-656.641,172.171-654.916,173.175-653.273,174.374z"/>
		<path d="M-668.993,179.406c4.958,3.62,6.045,10.573,2.425,15.532s-10.575,6.045-15.533,2.426
			c-3.389-2.475-4.969-6.504-4.475-10.391l15.641-8.706C-670.264,178.575-669.613,178.953-668.993,179.406z"/>
	</g>
	<g display="inline">
		<path fill="#FFFFFF" d="M-730.076,227.735c-19.008,13.562-45.411,9.148-58.974-9.859c-13.562-19.008-9.148-45.412,9.858-58.974
			l66.791,36.417C-713,207.808-719.109,219.909-730.076,227.735z"/>
		<path d="M-748.218,177.67c-4.997,3.565-6.291,10.32-2.89,15.086c3.401,4.768,10.209,5.74,15.206,2.176
			c3.415-2.438,5.101-6.363,4.741-10.126l-15.109-8.262C-746.939,176.85-747.593,177.225-748.218,177.67z"/>
	</g>
	<path display="inline" d="M-754.334,255.335c14.174-8.723,4.333,21.334,44.333,15.334s25.667-13.334,41.667-17.334
		s22.797,50.809,16,74c-5.667,19.334-26.189-4.748-27-5.334c-12-8.666-50-8.666-68,6.334s-22,10-23,0
		S-767.334,263.335-754.334,255.335z"/>
	<path display="inline" fill="#FDFDFE" d="M-742,261.335c0,0,1.512,34.414,2.863,32.252c1.588-2.541,12.803-13.127,12.803-13.127
		c5.94,3.279,9.289,16.031,9.68,16.08c0.883,0.107,8.861-15.977,13.32-18.539c0.784-0.449,18.56,12.492,20.062,13.834
		c1.706,1.521,0.904-23.66,1.042-28.893C-693.181,265.784-728.221,281.394-742,261.335z"/>
	<path display="inline" fill="#FDFDFE" d="M-747.209,328.194c0,0,3.743-20.414,3.973-23.883c0.16-2.416,12.961,13.434,14.008,10.816
		c1.883-4.707,5.061-8.943,5.061-8.943c1.588,2.043,9.415,7.414,9.415,7.414c5.94-2.633,11.378-8.67,11.769-8.709
		c0.883-0.086,6.25,7.594,10.709,9.65c0.784,0.361,14.028-8.621,15.064-10.004c1.059-1.412-0.021,15.336,0.117,19.537
		C-694.864,310.54-730.543,315.944-747.209,328.194z"/>
	<path display="inline" d="M-291.024,260.304l71.849,1.467c0,0-12.613,48.428-37.971,48.428
		C-282.505,310.198-291.024,260.304-291.024,260.304z"/>
	<path display="inline" fill="#FDFDFE" d="M-275.913,260.675c0,0,2.937,19.846,4.177,21.133l9.35-20.863l16.197,0.334
		c0.549-0.182,6.787,18.557,6.787,18.557c0.454,0.074,5.187-16.428,5.282-18.518C-234.949,261.524-275.913,260.675-275.913,260.675z
		"/>
	<circle display="inline" fill="#FFFFFF" cx="-294.182" cy="203.788" r="43.25"/>
	<circle display="inline" cx="-311.182" cy="197.788" r="12.25"/>
	<circle display="inline" fill="#FFFFFF" cx="-215.932" cy="208.038" r="28.5"/>
	<circle display="inline" cx="-223.932" cy="203.538" r="11.25"/>
	<path display="inline" d="M239.054,268.168l-71.798-2.698c0,0,12.762-3.942,38.103-3.037
		C230.701,263.338,239.054,268.168,239.054,268.168z"/>
	<path display="inline" fill="#FDFDFE" d="M182.542,262.958c0,0,2.814,19.619,4.055,20.906l9.18-21.578
		C195.776,262.286,187.776,262.364,182.542,262.958z"/>
	<path display="inline" fill="#FFFFFF" d="M207.267,205.496c0.224,23.887-18.957,43.43-42.844,43.652
		c-23.887,0.224-43.43-18.959-43.652-42.847c-0.06-6.469,1.302-12.618,3.798-18.151l77.374-3.063
		C205.275,191.147,207.198,198.096,207.267,205.496z"/>
	<path display="inline" d="M175.797,212.392c0.374,6.758-4.796,12.538-11.551,12.914c-6.755,0.375-12.537-4.796-12.913-11.553
		c-0.375-6.753,4.796-12.534,11.551-12.91C169.64,200.467,175.42,205.639,175.797,212.392z"/>
	<path display="inline" fill="#FFFFFF" d="M267.642,218.453c-1.824,15.636-15.978,26.83-31.61,25.006
		c-15.635-1.825-26.829-15.979-25.004-31.613c0.506-4.335,1.958-8.326,4.126-11.794l51.118,5.763
		C267.637,209.747,268.157,214.041,267.642,218.453z"/>
	<circle display="inline" cx="238.702" cy="219.341" r="11.25"/>
	<path display="inline" fill="#FDFDFE" d="M222.167,263.833c0,0-3.533,19.245-4.818,20.489l-8.43-21.881
		C208.919,262.441,216.957,263.06,222.167,263.833z"/>
	<g display="inline">
		<path fill="#FFFFFF" d="M736.607,173.374c13.137,9.59,16.013,28.012,6.423,41.15c-9.589,13.137-28.013,16.012-41.149,6.422
			c-8.977-6.553-13.162-17.229-11.854-27.525l41.434-23.063C733.24,171.171,734.965,172.175,736.607,173.374z"/>
		<path d="M720.888,178.405c4.958,3.621,6.045,10.574,2.425,15.533s-10.575,6.045-15.533,2.426
			c-3.389-2.475-4.969-6.504-4.475-10.391l15.641-8.707C719.617,177.575,720.268,177.953,720.888,178.405z"/>
	</g>
	<g display="inline">
		<path fill="#FFFFFF" d="M659.805,226.735c-19.008,13.562-45.411,9.148-58.974-9.859s-9.148-45.412,9.858-58.975l66.791,36.418
			C676.881,206.808,670.771,218.909,659.805,226.735z"/>
		<path d="M641.663,176.671c-4.997,3.564-6.291,10.32-2.89,15.086c3.401,4.768,10.209,5.74,15.206,2.176
			c3.415-2.438,5.101-6.363,4.741-10.127l-15.109-8.262C642.941,175.85,642.288,176.225,641.663,176.671z"/>
	</g>
	<path display="inline" d="M635.547,254.335c14.174-8.723,4.333,21.334,44.333,15.334s25.667-13.334,41.667-17.334
		s22.797,50.809,16,74c-5.667,19.334-26.189-4.748-27-5.334c-12-8.666-50-8.666-68,6.334s-22,10-23,0
		S622.547,262.335,635.547,254.335z"/>
	<path display="inline" fill="#FDFDFE" d="M647.881,260.335c0,0,1.512,34.414,2.863,32.252c1.588-2.541,12.803-13.127,12.803-13.127
		c5.94,3.279,9.289,16.031,9.68,16.08c0.883,0.107,8.861-15.977,13.32-18.539c0.784-0.449,18.56,12.492,20.062,13.834
		c1.706,1.521,0.904-23.66,1.042-28.893C696.7,264.784,661.66,280.394,647.881,260.335z"/>
	<path display="inline" fill="#FDFDFE" d="M642.672,327.194c0,0,3.743-20.414,3.973-23.883c0.16-2.416,12.961,13.434,14.008,10.816
		c1.883-4.707,5.061-8.943,5.061-8.943c1.588,2.043,9.415,7.414,9.415,7.414c5.94-2.633,11.378-8.67,11.769-8.709
		c0.883-0.086,6.25,7.594,10.709,9.65c0.784,0.361,14.028-8.621,15.064-10.004c1.059-1.412-0.021,15.336,0.117,19.537
		C695.017,309.54,659.338,314.944,642.672,327.194z"/>
</g>
<g id="Layer_4" display="none">
	<g display="inline">
		<g opacity="0.7">
			<g>
				<path fill="#74AFD1" d="M-791.925,127.497c1.935,0,1.935-3,0-3S-793.86,127.497-791.925,127.497L-791.925,127.497z"/>
			</g>
		</g>
		<g opacity="0.7">
			<g>
				<path fill="#74AFD1" d="M-803.075,122.115c1.935,0,1.935-3,0-3S-805.009,122.115-803.075,122.115L-803.075,122.115z"/>
			</g>
		</g>
		<g opacity="0.7">
			<g>
				<path fill="#74AFD1" d="M-799.71,116.732c1.935,0,1.935-3,0-3S-801.645,116.732-799.71,116.732L-799.71,116.732z"/>
			</g>
		</g>
		<g opacity="0.7">
			<g>
				<path fill="#74AFD1" d="M-801.537,131.438c1.935,0,1.935-3,0-3S-803.471,131.438-801.537,131.438L-801.537,131.438z"/>
			</g>
		</g>
		<g opacity="0.7">
			<g>
				<path fill="#74AFD1" d="M-822.009,98.759c1.935,0,1.935-3,0-3S-823.944,98.759-822.009,98.759L-822.009,98.759z"/>
			</g>
		</g>
		<g opacity="0.7">
			<g>
				<path fill="#74AFD1" d="M-814.705,103.469c1.935,0,1.935-3,0-3S-816.639,103.469-814.705,103.469L-814.705,103.469z"/>
			</g>
		</g>
		<g opacity="0.7">
			<g>
				<path fill="#74AFD1" d="M-811.917,109.524c1.935,0,1.935-3,0-3S-813.852,109.524-811.917,109.524L-811.917,109.524z"/>
			</g>
		</g>
		<g opacity="0.7">
			<g>
				<path fill="#74AFD1" d="M-813.839,115.483c1.935,0,1.935-3,0-3S-815.774,115.483-813.839,115.483L-813.839,115.483z"/>
			</g>
		</g>
		<g opacity="0.7">
			<g>
				<path fill="#74AFD1" d="M-804.516,111.927c1.935,0,1.935-3,0-3S-806.451,111.927-804.516,111.927L-804.516,111.927z"/>
			</g>
		</g>
		<g opacity="0.7">
			<g>
				<path fill="#74AFD1" d="M-818.453,107.025c1.935,0,1.935-3,0-3S-820.388,107.025-818.453,107.025L-818.453,107.025z"/>
			</g>
		</g>
		<g opacity="0.7">
			<g>
				<path fill="#74AFD1" d="M-821.433,102.7c1.935,0,1.935-3,0-3S-823.367,102.7-821.433,102.7L-821.433,102.7z"/>
			</g>
		</g>
		<g opacity="0.7">
			<g>
				<path fill="#74AFD1" d="M-789.234,123.557c1.935,0,1.935-3,0-3S-791.169,123.557-789.234,123.557L-789.234,123.557z"/>
			</g>
		</g>
		<g opacity="0.7">
			<g>
				<path fill="#74AFD1" d="M-796.347,119.808c1.935,0,1.935-3,0-3S-798.281,119.808-796.347,119.808L-796.347,119.808z"/>
			</g>
		</g>
		<g opacity="0.7">
			<g>
				<path fill="#74AFD1" d="M-797.98,124.806c1.935,0,1.935-3,0-3S-799.915,124.806-797.98,124.806L-797.98,124.806z"/>
			</g>
		</g>
		<g opacity="0.7">
			<g>
				<path fill="#74AFD1" d="M-807.977,116.925c1.935,0,1.935-3,0-3S-809.911,116.925-807.977,116.925L-807.977,116.925z"/>
			</g>
		</g>
		<g opacity="0.7">
			<g>
				<path fill="#74AFD1" d="M-808.649,121.923c1.935,0,1.935-3,0-3S-810.584,121.923-808.649,121.923L-808.649,121.923z"/>
			</g>
		</g>
		<g opacity="0.7">
			<g>
				<path fill="#74AFD1" d="M-819.222,101.643c1.935,0,1.935-3,0-3S-821.156,101.643-819.222,101.643L-819.222,101.643z"/>
			</g>
		</g>
		<g opacity="0.7">
			<g>
				<path fill="#74AFD1" d="M-824.316,96.933c1.935,0,1.935-3,0-3S-826.25,96.933-824.316,96.933L-824.316,96.933z"/>
			</g>
		</g>
		<g opacity="0.7">
			<g>
				<path fill="#74AFD1" d="M-822.874,101.066c1.935,0,1.935-3,0-3S-824.809,101.066-822.874,101.066L-822.874,101.066z"/>
			</g>
		</g>
		<g opacity="0.7">
			<g>
				<path fill="#74AFD1" d="M-816.819,101.546c1.935,0,1.935-3,0-3S-818.753,101.546-816.819,101.546L-816.819,101.546z"/>
			</g>
		</g>
		<g opacity="0.7">
			<g>
				<path fill="#74AFD1" d="M-818.837,104.526c1.935,0,1.935-3,0-3S-820.772,104.526-818.837,104.526L-818.837,104.526z"/>
			</g>
		</g>
		<g opacity="0.7">
			<g>
				<path fill="#74AFD1" d="M-816.435,105.199c1.935,0,1.935-3,0-3S-818.369,105.199-816.435,105.199L-816.435,105.199z"/>
			</g>
		</g>
		<g opacity="0.7">
			<g>
				<path fill="#74AFD1" d="M-812.59,104.911c1.935,0,1.935-3,0-3S-814.524,104.911-812.59,104.911L-812.59,104.911z"/>
			</g>
		</g>
		<g opacity="0.7">
			<g>
				<path fill="#74AFD1" d="M-817.204,109.14c1.935,0,1.935-3,0-3S-819.138,109.14-817.204,109.14L-817.204,109.14z"/>
			</g>
		</g>
		<g opacity="0.7">
			<g>
				<path fill="#74AFD1" d="M-814.32,105.583c1.935,0,1.935-3,0-3S-816.254,105.583-814.32,105.583L-814.32,105.583z"/>
			</g>
		</g>
		<g opacity="0.7">
			<g>
				<path fill="#74AFD1" d="M-810.187,107.025c1.935,0,1.935-3,0-3S-812.122,107.025-810.187,107.025L-810.187,107.025z"/>
			</g>
		</g>
		<g opacity="0.7">
			<g>
				<path fill="#74AFD1" d="M-814.512,108.178c1.935,0,1.935-3,0-3S-816.447,108.178-814.512,108.178L-814.512,108.178z"/>
			</g>
		</g>
		<g opacity="0.7">
			<g>
				<path fill="#74AFD1" d="M-814.32,111.446c1.935,0,1.935-3,0-3S-816.254,111.446-814.32,111.446L-814.32,111.446z"/>
			</g>
		</g>
		<g opacity="0.7">
			<g>
				<path fill="#74AFD1" d="M-811.629,112.6c1.935,0,1.935-3,0-3S-813.563,112.6-811.629,112.6L-811.629,112.6z"/>
			</g>
		</g>
		<g opacity="0.7">
			<g>
				<path fill="#74AFD1" d="M-808.553,110.87c1.935,0,1.935-3,0-3S-810.488,110.87-808.553,110.87L-808.553,110.87z"/>
			</g>
		</g>
		<g opacity="0.7">
			<g>
				<path fill="#74AFD1" d="M-806.535,113.753c1.935,0,1.935-3,0-3S-808.469,113.753-806.535,113.753L-806.535,113.753z"/>
			</g>
		</g>
		<g opacity="0.7">
			<g>
				<path fill="#74AFD1" d="M-811.34,118.078c1.935,0,1.935-3,0-3S-813.275,118.078-811.34,118.078L-811.34,118.078z"/>
			</g>
		</g>
		<g opacity="0.7">
			<g>
				<path fill="#74AFD1" d="M-810.86,114.714c1.935,0,1.935-3,0-3S-812.794,114.714-810.86,114.714L-810.86,114.714z"/>
			</g>
		</g>
		<g opacity="0.7">
			<g>
				<path fill="#74AFD1" d="M-802.306,113.657c1.935,0,1.935-3,0-3S-804.24,113.657-802.306,113.657L-802.306,113.657z"/>
			</g>
		</g>
		<g opacity="0.7">
			<g>
				<path fill="#74AFD1" d="M-804.516,118.078c1.935,0,1.935-3,0-3S-806.451,118.078-804.516,118.078L-804.516,118.078z"/>
			</g>
		</g>
		<g opacity="0.7">
			<g>
				<path fill="#74AFD1" d="M-806.631,123.749c1.935,0,1.935-3,0-3S-808.565,123.749-806.631,123.749L-806.631,123.749z"/>
			</g>
		</g>
		<g opacity="0.7">
			<g>
				<path fill="#74AFD1" d="M-804.805,128.266c1.935,0,1.935-3,0-3S-806.739,128.266-804.805,128.266L-804.805,128.266z"/>
			</g>
		</g>
		<g opacity="0.7">
			<g>
				<path fill="#74AFD1" d="M-801.537,126.152c1.935,0,1.935-3,0-3S-803.471,126.152-801.537,126.152L-801.537,126.152z"/>
			</g>
		</g>
		<g opacity="0.7">
			<g>
				<path fill="#74AFD1" d="M-799.519,137.301c1.935,0,1.935-3,0-3S-801.453,137.301-799.519,137.301L-799.519,137.301z"/>
			</g>
		</g>
		<g opacity="0.7">
			<g>
				<path fill="#74AFD1" d="M-795.193,129.9c1.935,0,1.935-3,0-3S-797.128,129.9-795.193,129.9L-795.193,129.9z"/>
			</g>
		</g>
		<g opacity="0.7">
			<g>
				<path fill="#74AFD1" d="M-792.791,134.898c1.935,0,1.935-3,0-3S-794.725,134.898-792.791,134.898L-792.791,134.898z"/>
			</g>
		</g>
		<g opacity="0.7">
			<g>
				<path fill="#74AFD1" d="M-786.832,129.708c1.935,0,1.935-3,0-3S-788.766,129.708-786.832,129.708L-786.832,129.708z"/>
			</g>
		</g>
		<g opacity="0.7">
			<g>
				<path fill="#74AFD1" d="M-784.813,127.305c1.935,0,1.935-3,0-3S-786.748,127.305-784.813,127.305L-784.813,127.305z"/>
			</g>
		</g>
		<g opacity="0.7">
			<g>
				<path fill="#74AFD1" d="M-793.271,122.98c1.935,0,1.935-3,0-3S-795.206,122.98-793.271,122.98L-793.271,122.98z"/>
			</g>
		</g>
		<g opacity="0.7">
			<g>
				<path fill="#74AFD1" d="M-781.064,129.9c1.935,0,1.935-3,0-3S-782.999,129.9-781.064,129.9L-781.064,129.9z"/>
			</g>
		</g>
		<g opacity="0.7">
			<g>
				<path fill="#74AFD1" d="M-775.105,129.035c1.935,0,1.935-3,0-3S-777.04,129.035-775.105,129.035L-775.105,129.035z"/>
			</g>
		</g>
		<g opacity="0.7">
			<g>
				<path fill="#74AFD1" d="M-786.735,134.417c1.935,0,1.935-3,0-3S-788.67,134.417-786.735,134.417L-786.735,134.417z"/>
			</g>
		</g>
		<g opacity="0.7">
			<g>
				<path fill="#74AFD1" d="M-780.392,136.436c1.935,0,1.935-3,0-3S-782.326,136.436-780.392,136.436L-780.392,136.436z"/>
			</g>
		</g>
		<g opacity="0.7">
			<g>
				<path fill="#74AFD1" d="M-796.25,139.416c1.935,0,1.935-3,0-3S-798.185,139.416-796.25,139.416L-796.25,139.416z"/>
			</g>
		</g>
		<g opacity="0.7">
			<g>
				<path fill="#74AFD1" d="M-797.308,146.335c1.935,0,1.935-3,0-3S-799.242,146.335-797.308,146.335L-797.308,146.335z"/>
			</g>
		</g>
		<g opacity="0.7">
			<g>
				<path fill="#74AFD1" d="M-789.522,140.473c1.935,0,1.935-3,0-3S-791.457,140.473-789.522,140.473L-789.522,140.473z"/>
			</g>
		</g>
		<g opacity="0.7">
			<g>
				<path fill="#74AFD1" d="M-792.791,145.086c1.935,0,1.935-3,0-3S-794.725,145.086-792.791,145.086L-792.791,145.086z"/>
			</g>
		</g>
		<g opacity="0.7">
			<g>
				<path fill="#74AFD1" d="M-782.122,142.875c1.935,0,1.935-3,0-3S-784.056,142.875-782.122,142.875L-782.122,142.875z"/>
			</g>
		</g>
	</g>
	<g display="inline">
		<g opacity="0.7">
			<g>
				<path fill="#74AFD1" d="M-710.781,107.178c1.935,0,1.935-3,0-3S-712.716,107.178-710.781,107.178L-710.781,107.178z"/>
			</g>
		</g>
		<g opacity="0.7">
			<g>
				<path fill="#74AFD1" d="M-715.616,95.779c1.935,0,1.935-3,0-3C-717.55,92.779-717.55,95.779-715.616,95.779L-715.616,95.779z"/>
			</g>
		</g>
		<g opacity="0.7">
			<g>
				<path fill="#74AFD1" d="M-709.537,93.951c1.935,0,1.935-3,0-3S-711.472,93.951-709.537,93.951L-709.537,93.951z"/>
			</g>
		</g>
		<g opacity="0.7">
			<g>
				<path fill="#74AFD1" d="M-720.606,103.805c1.935,0,1.935-3,0-3S-722.541,103.805-720.606,103.805L-720.606,103.805z"/>
			</g>
		</g>
		<g opacity="0.7">
			<g>
				<path fill="#74AFD1" d="M-714.453,65.736c1.935,0,1.935-3,0-3S-716.388,65.736-714.453,65.736L-714.453,65.736z"/>
			</g>
		</g>
		<g opacity="0.7">
			<g>
				<path fill="#74AFD1" d="M-712.066,74.093c1.935,0,1.935-3,0-3S-714.001,74.093-712.066,74.093L-712.066,74.093z"/>
			</g>
		</g>
		<g opacity="0.7">
			<g>
				<path fill="#74AFD1" d="M-713.963,80.484c1.935,0,1.935-3,0-3S-715.897,80.484-713.963,80.484L-713.963,80.484z"/>
			</g>
		</g>
		<g opacity="0.7">
			<g>
				<path fill="#74AFD1" d="M-719.337,83.697c1.935,0,1.935-3,0-3S-721.271,83.697-719.337,83.697L-719.337,83.697z"/>
			</g>
		</g>
		<g opacity="0.7">
			<g>
				<path fill="#74AFD1" d="M-709.983,87.169c1.935,0,1.935-3,0-3S-711.918,87.169-709.983,87.169L-709.983,87.169z"/>
			</g>
		</g>
		<g opacity="0.7">
			<g>
				<path fill="#74AFD1" d="M-717.229,74.295c1.935,0,1.935-3,0-3C-719.164,71.295-719.164,74.295-717.229,74.295L-717.229,74.295z"
					/>
			</g>
		</g>
		<g opacity="0.7">
			<g>
				<path fill="#74AFD1" d="M-716.618,69.079c1.935,0,1.935-3,0-3S-718.553,69.079-716.618,69.079L-716.618,69.079z"/>
			</g>
		</g>
		<g opacity="0.7">
			<g>
				<path fill="#74AFD1" d="M-706.16,105.989c1.935,0,1.935-3,0-3S-708.095,105.989-706.16,105.989L-706.16,105.989z"/>
			</g>
		</g>
		<g opacity="0.7">
			<g>
				<path fill="#74AFD1" d="M-709.035,98.481c1.935,0,1.935-3,0-3S-710.97,98.481-709.035,98.481L-709.035,98.481z"/>
			</g>
		</g>
		<g opacity="0.7">
			<g>
				<path fill="#74AFD1" d="M-713.56,101.162c1.935,0,1.935-3,0-3S-715.494,101.162-713.56,101.162L-713.56,101.162z"/>
			</g>
		</g>
		<g opacity="0.7">
			<g>
				<path fill="#74AFD1" d="M-715.88,88.646c1.935,0,1.935-3,0-3S-717.814,88.646-715.88,88.646L-715.88,88.646z"/>
			</g>
		</g>
		<g opacity="0.7">
			<g>
				<path fill="#74AFD1" d="M-719.681,91.96c1.935,0,1.935-3,0-3S-721.615,91.96-719.681,91.96L-719.681,91.96z"/>
			</g>
		</g>
		<g opacity="0.7">
			<g>
				<path fill="#74AFD1" d="M-714.259,69.741c1.935,0,1.935-3,0-3S-716.193,69.741-714.259,69.741L-714.259,69.741z"/>
			</g>
		</g>
		<g opacity="0.7">
			<g>
				<path fill="#74AFD1" d="M-714.983,62.842c1.935,0,1.935-3,0-3S-716.918,62.842-714.983,62.842L-714.983,62.842z"/>
			</g>
		</g>
		<g opacity="0.7">
			<g>
				<path fill="#74AFD1" d="M-716.625,66.899c1.935,0,1.935-3,0-3C-718.559,63.899-718.559,66.899-716.625,66.899L-716.625,66.899z"
					/>
			</g>
		</g>
		<g opacity="0.7">
			<g>
				<path fill="#74AFD1" d="M-712.389,71.253c1.935,0,1.935-3,0-3S-714.323,71.253-712.389,71.253L-712.389,71.253z"/>
			</g>
		</g>
		<g opacity="0.7">
			<g>
				<path fill="#74AFD1" d="M-715.871,72.164c1.935,0,1.935-3,0-3C-717.805,69.164-717.805,72.164-715.871,72.164L-715.871,72.164z"
					/>
			</g>
		</g>
		<g opacity="0.7">
			<g>
				<path fill="#74AFD1" d="M-714.508,74.252c1.935,0,1.935-3,0-3S-716.442,74.252-714.508,74.252L-714.508,74.252z"/>
			</g>
		</g>
		<g opacity="0.7">
			<g>
				<path fill="#74AFD1" d="M-711.428,76.572c1.935,0,1.935-3,0-3S-713.362,76.572-711.428,76.572L-711.428,76.572z"/>
			</g>
		</g>
		<g opacity="0.7">
			<g>
				<path fill="#74AFD1" d="M-717.685,76.708c1.935,0,1.935-3,0-3S-719.619,76.708-717.685,76.708L-717.685,76.708z"/>
			</g>
		</g>
		<g opacity="0.7">
			<g>
				<path fill="#74AFD1" d="M-713.171,75.937c1.935,0,1.935-3,0-3S-715.105,75.937-713.171,75.937L-713.171,75.937z"/>
			</g>
		</g>
		<g opacity="0.7">
			<g>
				<path fill="#74AFD1" d="M-711.014,79.745c1.935,0,1.935-3,0-3S-712.948,79.745-711.014,79.745L-711.014,79.745z"/>
			</g>
		</g>
		<g opacity="0.7">
			<g>
				<path fill="#74AFD1" d="M-715.028,77.761c1.935,0,1.935-3,0-3S-716.963,77.761-715.028,77.761L-715.028,77.761z"/>
			</g>
		</g>
		<g opacity="0.7">
			<g>
				<path fill="#74AFD1" d="M-717.037,80.345c1.935,0,1.935-3,0-3C-718.971,77.345-718.971,80.345-717.037,80.345L-717.037,80.345z"
					/>
			</g>
		</g>
		<g opacity="0.7">
			<g>
				<path fill="#74AFD1" d="M-715.774,82.986c1.935,0,1.935-3,0-3C-717.708,79.986-717.708,82.986-715.774,82.986L-715.774,82.986z"
					/>
			</g>
		</g>
		<g opacity="0.7">
			<g>
				<path fill="#74AFD1" d="M-712.321,83.713c1.935,0,1.935-3,0-3S-714.256,83.713-712.321,83.713L-712.321,83.713z"/>
			</g>
		</g>
		<g opacity="0.7">
			<g>
				<path fill="#74AFD1" d="M-712.704,87.212c1.935,0,1.935-3,0-3S-714.639,87.212-712.704,87.212L-712.704,87.212z"/>
			</g>
		</g>
		<g opacity="0.7">
			<g>
				<path fill="#74AFD1" d="M-719.169,87.295c1.935,0,1.935-3,0-3S-721.104,87.295-719.169,87.295L-719.169,87.295z"/>
			</g>
		</g>
		<g opacity="0.7">
			<g>
				<path fill="#74AFD1" d="M-716.59,85.083c1.935,0,1.935-3,0-3S-718.524,85.083-716.59,85.083L-716.59,85.083z"/>
			</g>
		</g>
		<g opacity="0.7">
			<g>
				<path fill="#74AFD1" d="M-709.461,89.928c1.935,0,1.935-3,0-3S-711.396,89.928-709.461,89.928L-709.461,89.928z"/>
			</g>
		</g>
		<g opacity="0.7">
			<g>
				<path fill="#74AFD1" d="M-714.039,91.794c1.935,0,1.935-3,0-3S-715.974,91.794-714.039,91.794L-714.039,91.794z"/>
			</g>
		</g>
		<g opacity="0.7">
			<g>
				<path fill="#74AFD1" d="M-719.367,94.664c1.935,0,1.935-3,0-3S-721.301,94.664-719.367,94.664L-719.367,94.664z"/>
			</g>
		</g>
		<g opacity="0.7">
			<g>
				<path fill="#74AFD1" d="M-720.973,99.265c1.935,0,1.935-3,0-3S-722.907,99.265-720.973,99.265L-720.973,99.265z"/>
			</g>
		</g>
		<g opacity="0.7">
			<g>
				<path fill="#74AFD1" d="M-717.12,99.829c1.935,0,1.935-3,0-3S-719.055,99.829-717.12,99.829L-717.12,99.829z"/>
			</g>
		</g>
		<g opacity="0.7">
			<g>
				<path fill="#74AFD1" d="M-722.954,109.542c1.935,0,1.935-3,0-3S-724.889,109.542-722.954,109.542L-722.954,109.542z"/>
			</g>
		</g>
		<g opacity="0.7">
			<g>
				<path fill="#74AFD1" d="M-714.821,106.829c1.935,0,1.935-3,0-3S-716.756,106.829-714.821,106.829L-714.821,106.829z"/>
			</g>
		</g>
		<g opacity="0.7">
			<g>
				<path fill="#74AFD1" d="M-716.311,112.172c1.935,0,1.935-3,0-3S-718.245,112.172-716.311,112.172L-716.311,112.172z"/>
			</g>
		</g>
		<g opacity="0.7">
			<g>
				<path fill="#74AFD1" d="M-708.408,112.198c1.935,0,1.935-3,0-3S-710.343,112.198-708.408,112.198L-708.408,112.198z"/>
			</g>
		</g>
		<g opacity="0.7">
			<g>
				<path fill="#74AFD1" d="M-705.308,111.722c1.935,0,1.935-3,0-3S-707.242,111.722-705.308,111.722L-705.308,111.722z"/>
			</g>
		</g>
		<g opacity="0.7">
			<g>
				<path fill="#74AFD1" d="M-708.814,102.894c1.935,0,1.935-3,0-3S-710.749,102.894-708.814,102.894L-708.814,102.894z"/>
			</g>
		</g>
		<g opacity="0.7">
			<g>
				<path fill="#74AFD1" d="M-704.199,116.145c1.935,0,1.935-3,0-3S-706.134,116.145-704.199,116.145L-704.199,116.145z"/>
			</g>
		</g>
		<g opacity="0.7">
			<g>
				<path fill="#74AFD1" d="M-699.148,119.423c1.935,0,1.935-3,0-3S-701.083,119.423-699.148,119.423L-699.148,119.423z"/>
			</g>
		</g>
		<g opacity="0.7">
			<g>
				<path fill="#74AFD1" d="M-711.441,115.802c1.935,0,1.935-3,0-3S-713.376,115.802-711.441,115.802L-711.441,115.802z"/>
			</g>
		</g>
		<g opacity="0.7">
			<g>
				<path fill="#74AFD1" d="M-708.003,121.503c1.935,0,1.935-3,0-3S-709.938,121.503-708.003,121.503L-708.003,121.503z"/>
			</g>
		</g>
		<g opacity="0.7">
			<g>
				<path fill="#74AFD1" d="M-721.891,113.286c1.935,0,1.935-3,0-3S-723.826,113.286-721.891,113.286L-721.891,113.286z"/>
			</g>
		</g>
		<g opacity="0.7">
			<g>
				<path fill="#74AFD1" d="M-727.248,117.792c1.935,0,1.935-3,0-3S-729.183,117.792-727.248,117.792L-727.248,117.792z"/>
			</g>
		</g>
		<g opacity="0.7">
			<g>
				<path fill="#74AFD1" d="M-717.53,118.518c1.935,0,1.935-3,0-3S-719.464,118.518-717.53,118.518L-717.53,118.518z"/>
			</g>
		</g>
		<g opacity="0.7">
			<g>
				<path fill="#74AFD1" d="M-723.028,119.832c1.935,0,1.935-3,0-3S-724.962,119.832-723.028,119.832L-723.028,119.832z"/>
			</g>
		</g>
		<g opacity="0.7">
			<g>
				<path fill="#74AFD1" d="M-713.549,125.204c1.935,0,1.935-3,0-3S-715.483,125.204-713.549,125.204L-713.549,125.204z"/>
			</g>
		</g>
	</g>
	<g display="inline">
		<g opacity="0.7">
			<g>
				<path fill="#74AFD1" d="M-632.559,139.211c1.935,0,1.935-3,0-3S-634.493,139.211-632.559,139.211L-632.559,139.211z"/>
			</g>
		</g>
		<g opacity="0.7">
			<g>
				<path fill="#74AFD1" d="M-627.969,127.712c1.935,0,1.935-3,0-3S-629.903,127.712-627.969,127.712L-627.969,127.712z"/>
			</g>
		</g>
		<g opacity="0.7">
			<g>
				<path fill="#74AFD1" d="M-622.364,130.693c1.935,0,1.935-3,0-3S-624.299,130.693-622.364,130.693L-622.364,130.693z"/>
			</g>
		</g>
		<g opacity="0.7">
			<g>
				<path fill="#74AFD1" d="M-637.162,129.899c1.935,0,1.935-3,0-3S-639.097,129.899-637.162,129.899L-637.162,129.899z"/>
			</g>
		</g>
		<g opacity="0.7">
			<g>
				<path fill="#74AFD1" d="M-605.993,107.193c1.935,0,1.935-3,0-3S-607.928,107.193-605.993,107.193L-605.993,107.193z"/>
			</g>
		</g>
		<g opacity="0.7">
			<g>
				<path fill="#74AFD1" d="M-610.181,114.809c1.935,0,1.935-3,0-3S-612.115,114.809-610.181,114.809L-610.181,114.809z"/>
			</g>
		</g>
		<g opacity="0.7">
			<g>
				<path fill="#74AFD1" d="M-616.026,118.012c1.935,0,1.935-3,0-3S-617.961,118.012-616.026,118.012L-616.026,118.012z"/>
			</g>
		</g>
		<g opacity="0.7">
			<g>
				<path fill="#74AFD1" d="M-622.105,116.511c1.935,0,1.935-3,0-3S-624.04,116.511-622.105,116.511L-622.105,116.511z"/>
			</g>
		</g>
		<g opacity="0.7">
			<g>
				<path fill="#74AFD1" d="M-617.906,125.562c1.935,0,1.935-3,0-3S-619.841,125.562-617.906,125.562L-617.906,125.562z"/>
			</g>
		</g>
		<g opacity="0.7">
			<g>
				<path fill="#74AFD1" d="M-613.99,111.317c1.935,0,1.935-3,0-3S-615.925,111.317-613.99,111.317L-613.99,111.317z"/>
			</g>
		</g>
		<g opacity="0.7">
			<g>
				<path fill="#74AFD1" d="M-609.884,108.043c1.935,0,1.935-3,0-3S-611.818,108.043-609.884,108.043L-609.884,108.043z"/>
			</g>
		</g>
		<g opacity="0.7">
			<g>
				<path fill="#74AFD1" d="M-628.44,141.62c1.935,0,1.935-3,0-3S-630.375,141.62-628.44,141.62L-628.44,141.62z"/>
			</g>
		</g>
		<g opacity="0.7">
			<g>
				<path fill="#74AFD1" d="M-625.197,134.263c1.935,0,1.935-3,0-3S-627.132,134.263-625.197,134.263L-625.197,134.263z"/>
			</g>
		</g>
		<g opacity="0.7">
			<g>
				<path fill="#74AFD1" d="M-630.298,132.982c1.935,0,1.935-3,0-3S-632.232,132.982-630.298,132.982L-630.298,132.982z"/>
			</g>
		</g>
		<g opacity="0.7">
			<g>
				<path fill="#74AFD1" d="M-623.134,122.46c1.935,0,1.935-3,0-3S-625.068,122.46-623.134,122.46L-623.134,122.46z"/>
			</g>
		</g>
		<g opacity="0.7">
			<g>
				<path fill="#74AFD1" d="M-628.167,122.138c1.935,0,1.935-3,0-3S-630.102,122.138-628.167,122.138L-628.167,122.138z"/>
			</g>
		</g>
		<g opacity="0.7">
			<g>
				<path fill="#74AFD1" d="M-608.675,110.174c1.935,0,1.935-3,0-3S-610.609,110.174-608.675,110.174L-608.675,110.174z"/>
			</g>
		</g>
		<g opacity="0.7">
			<g>
				<path fill="#74AFD1" d="M-604.333,104.764c1.935,0,1.935-3,0-3S-606.268,104.764-604.333,104.764L-604.333,104.764z"/>
			</g>
		</g>
		<g opacity="0.7">
			<g>
				<path fill="#74AFD1" d="M-608.355,106.491c1.935,0,1.935-3,0-3S-610.29,106.491-608.355,106.491L-608.355,106.491z"/>
			</g>
		</g>
		<g opacity="0.7">
			<g>
				<path fill="#74AFD1" d="M-608.411,112.564c1.935,0,1.935-3,0-3S-610.346,112.564-608.411,112.564L-608.411,112.564z"/>
			</g>
		</g>
		<g opacity="0.7">
			<g>
				<path fill="#74AFD1" d="M-611.524,110.76c1.935,0,1.935-3,0-3S-613.459,110.76-611.524,110.76L-611.524,110.76z"/>
			</g>
		</g>
		<g opacity="0.7">
			<g>
				<path fill="#74AFD1" d="M-612.027,113.204c1.935,0,1.935-3,0-3S-613.962,113.204-612.027,113.204L-612.027,113.204z"/>
			</g>
		</g>
		<g opacity="0.7">
			<g>
				<path fill="#74AFD1" d="M-611.472,117.019c1.935,0,1.935-3,0-3S-613.406,117.019-611.472,117.019L-611.472,117.019z"/>
			</g>
		</g>
		<g opacity="0.7">
			<g>
				<path fill="#74AFD1" d="M-616.013,112.711c1.935,0,1.935-3,0-3S-617.947,112.711-616.013,112.711L-616.013,112.711z"/>
			</g>
		</g>
		<g opacity="0.7">
			<g>
				<path fill="#74AFD1" d="M-612.264,115.34c1.935,0,1.935-3,0-3S-614.198,115.34-612.264,115.34L-612.264,115.34z"/>
			</g>
		</g>
		<g opacity="0.7">
			<g>
				<path fill="#74AFD1" d="M-613.413,119.564c1.935,0,1.935-3,0-3S-615.348,119.564-613.413,119.564L-613.413,119.564z"/>
			</g>
		</g>
		<g opacity="0.7">
			<g>
				<path fill="#74AFD1" d="M-614.865,115.329c1.935,0,1.935-3,0-3S-616.8,115.329-614.865,115.329L-614.865,115.329z"/>
			</g>
		</g>
		<g opacity="0.7">
			<g>
				<path fill="#74AFD1" d="M-618.112,115.75c1.935,0,1.935-3,0-3S-620.047,115.75-618.112,115.75L-618.112,115.75z"/>
			</g>
		</g>
		<g opacity="0.7">
			<g>
				<path fill="#74AFD1" d="M-619.074,118.515c1.935,0,1.935-3,0-3S-621.009,118.515-619.074,118.515L-619.074,118.515z"/>
			</g>
		</g>
		<g opacity="0.7">
			<g>
				<path fill="#74AFD1" d="M-617.134,121.461c1.935,0,1.935-3,0-3S-619.068,121.461-617.134,121.461L-617.134,121.461z"/>
			</g>
		</g>
		<g opacity="0.7">
			<g>
				<path fill="#74AFD1" d="M-619.869,123.677c1.935,0,1.935-3,0-3S-621.804,123.677-619.869,123.677L-619.869,123.677z"/>
			</g>
		</g>
		<g opacity="0.7">
			<g>
				<path fill="#74AFD1" d="M-624.52,119.185c1.935,0,1.935-3,0-3S-626.454,119.185-624.52,119.185L-624.52,119.185z"/>
			</g>
		</g>
		<g opacity="0.7">
			<g>
				<path fill="#74AFD1" d="M-621.13,119.429c1.935,0,1.935-3,0-3S-623.064,119.429-621.13,119.429L-621.13,119.429z"/>
			</g>
		</g>
		<g opacity="0.7">
			<g>
				<path fill="#74AFD1" d="M-619.478,127.889c1.935,0,1.935-3,0-3S-621.412,127.889-619.478,127.889L-619.478,127.889z"/>
			</g>
		</g>
		<g opacity="0.7">
			<g>
				<path fill="#74AFD1" d="M-624.043,125.992c1.935,0,1.935-3,0-3S-625.978,125.992-624.043,125.992L-624.043,125.992z"/>
			</g>
		</g>
		<g opacity="0.7">
			<g>
				<path fill="#74AFD1" d="M-629.848,124.279c1.935,0,1.935-3,0-3S-631.782,124.279-629.848,124.279L-629.848,124.279z"/>
			</g>
		</g>
		<g opacity="0.7">
			<g>
				<path fill="#74AFD1" d="M-634.226,126.417c1.935,0,1.935-3,0-3S-636.16,126.417-634.226,126.417L-634.226,126.417z"/>
			</g>
		</g>
		<g opacity="0.7">
			<g>
				<path fill="#74AFD1" d="M-631.889,129.53c1.935,0,1.935-3,0-3S-633.823,129.53-631.889,129.53L-631.889,129.53z"/>
			</g>
		</g>
		<g opacity="0.7">
			<g>
				<path fill="#74AFD1" d="M-642.869,132.321c1.935,0,1.935-3,0-3S-644.804,132.321-642.869,132.321L-642.869,132.321z"/>
			</g>
		</g>
		<g opacity="0.7">
			<g>
				<path fill="#74AFD1" d="M-635.185,136.119c1.935,0,1.935-3,0-3S-637.119,136.119-635.185,136.119L-635.185,136.119z"/>
			</g>
		</g>
		<g opacity="0.7">
			<g>
				<path fill="#74AFD1" d="M-640.002,138.866c1.935,0,1.935-3,0-3S-641.937,138.866-640.002,138.866L-640.002,138.866z"/>
			</g>
		</g>
		<g opacity="0.7">
			<g>
				<path fill="#74AFD1" d="M-634.408,144.447c1.935,0,1.935-3,0-3S-636.343,144.447-634.408,144.447L-634.408,144.447z"/>
			</g>
		</g>
		<g opacity="0.7">
			<g>
				<path fill="#74AFD1" d="M-631.87,146.292c1.935,0,1.935-3,0-3S-633.805,146.292-631.87,146.292L-631.87,146.292z"/>
			</g>
		</g>
		<g opacity="0.7">
			<g>
				<path fill="#74AFD1" d="M-628.146,137.553c1.935,0,1.935-3,0-3S-630.081,137.553-628.146,137.553L-628.146,137.553z"/>
			</g>
		</g>
		<g opacity="0.7">
			<g>
				<path fill="#74AFD1" d="M-634.197,150.213c1.935,0,1.935-3,0-3S-636.132,150.213-634.197,150.213L-634.197,150.213z"/>
			</g>
		</g>
		<g opacity="0.7">
			<g>
				<path fill="#74AFD1" d="M-632.918,156.097c1.935,0,1.935-3,0-3S-634.853,156.097-632.918,156.097L-632.918,156.097z"/>
			</g>
		</g>
		<g opacity="0.7">
			<g>
				<path fill="#74AFD1" d="M-639.1,144.872c1.935,0,1.935-3,0-3S-641.034,144.872-639.1,144.872L-639.1,144.872z"/>
			</g>
		</g>
		<g opacity="0.7">
			<g>
				<path fill="#74AFD1" d="M-640.67,151.341c1.935,0,1.935-3,0-3S-642.604,151.341-640.67,151.341L-640.67,151.341z"/>
			</g>
		</g>
		<g opacity="0.7">
			<g>
				<path fill="#74AFD1" d="M-644.75,135.729c1.935,0,1.935-3,0-3S-646.685,135.729-644.75,135.729L-644.75,135.729z"/>
			</g>
		</g>
		<g opacity="0.7">
			<g>
				<path fill="#74AFD1" d="M-651.728,135.158c1.935,0,1.935-3,0-3S-653.662,135.158-651.728,135.158L-651.728,135.158z"/>
			</g>
		</g>
		<g opacity="0.7">
			<g>
				<path fill="#74AFD1" d="M-645.335,142.515c1.935,0,1.935-3,0-3S-647.27,142.515-645.335,142.515L-645.335,142.515z"/>
			</g>
		</g>
		<g opacity="0.7">
			<g>
				<path fill="#74AFD1" d="M-650.165,139.578c1.935,0,1.935-3,0-3S-652.1,139.578-650.165,139.578L-650.165,139.578z"/>
			</g>
		</g>
		<g opacity="0.7">
			<g>
				<path fill="#74AFD1" d="M-647.215,150.065c1.935,0,1.935-3,0-3S-649.149,150.065-647.215,150.065L-647.215,150.065z"/>
			</g>
		</g>
	</g>
	<g display="inline">
		<g>
			<path fill="#74AFD1" d="M-708.55,82.701c1.935,0,1.935-3,0-3S-710.484,82.701-708.55,82.701L-708.55,82.701z"/>
		</g>
	</g>
	<g display="inline">
		<g>
			<path fill="#74AFD1" d="M-712.243,67.276c1.935,0,1.935-3,0-3S-714.178,67.276-712.243,67.276L-712.243,67.276z"/>
		</g>
	</g>
	<g display="inline">
		<g>
			<path fill="#74AFD1" d="M-720.064,79.876c1.935,0,1.935-3,0-3S-721.999,79.876-720.064,79.876L-720.064,79.876z"/>
		</g>
	</g>
	<g display="inline">
		<g>
			<path fill="#74AFD1" d="M-720.933,86.177c1.935,0,1.935-3,0-3S-722.868,86.177-720.933,86.177L-720.933,86.177z"/>
		</g>
	</g>
	<g display="inline">
		<g>
			<path fill="#74AFD1" d="M-722.671,94.432c1.935,0,1.935-3,0-3S-724.606,94.432-722.671,94.432L-722.671,94.432z"/>
		</g>
	</g>
	<g display="inline">
		<g>
			<path fill="#74AFD1" d="M-724.409,102.253c1.935,0,1.935-3,0-3S-726.344,102.253-724.409,102.253L-724.409,102.253z"/>
		</g>
	</g>
	<g display="inline">
		<g>
			<path fill="#74AFD1" d="M-725.496,108.988c1.935,0,1.935-3,0-3S-727.43,108.988-725.496,108.988L-725.496,108.988z"/>
		</g>
	</g>
	<g display="inline">
		<g>
			<path fill="#74AFD1" d="M-712.461,96.605c1.935,0,1.935-3,0-3S-714.396,96.605-712.461,96.605L-712.461,96.605z"/>
		</g>
	</g>
	<g display="inline">
		<g>
			<path fill="#74AFD1" d="M-707.029,87.263c1.935,0,1.935-3,0-3S-708.964,87.263-707.029,87.263L-707.029,87.263z"/>
		</g>
	</g>
	<g display="inline">
		<g>
			<path fill="#74AFD1" d="M-706.16,92.042c1.935,0,1.935-3,0-3S-708.095,92.042-706.16,92.042L-706.16,92.042z"/>
		</g>
	</g>
	<g display="inline">
		<g>
			<path fill="#74AFD1" d="M-704.64,97.691c1.935,0,1.935-3,0-3S-706.574,97.691-704.64,97.691L-704.64,97.691z"/>
		</g>
	</g>
	<g display="inline">
		<g>
			<path fill="#74AFD1" d="M-703.771,102.905c1.935,0,1.935-3,0-3S-705.705,102.905-703.771,102.905L-703.771,102.905z"/>
		</g>
	</g>
	<g display="inline">
		<g>
			<path fill="#74AFD1" d="M-701.598,109.64c1.935,0,1.935-3,0-3S-703.532,109.64-701.598,109.64L-701.598,109.64z"/>
		</g>
	</g>
	<g display="inline">
		<g>
			<path fill="#74AFD1" d="M-697.905,113.768c1.935,0,1.935-3,0-3S-699.84,113.768-697.905,113.768L-697.905,113.768z"/>
		</g>
	</g>
	<g display="inline">
		<g>
			<path fill="#74AFD1" d="M-692.039,116.592c1.935,0,1.935-3,0-3S-693.974,116.592-692.039,116.592L-692.039,116.592z"/>
		</g>
	</g>
	<g display="inline">
		<g>
			<path fill="#74AFD1" d="M-685.956,118.33c1.935,0,1.935-3,0-3S-687.891,118.33-685.956,118.33L-685.956,118.33z"/>
		</g>
	</g>
	<g display="inline">
		<g>
			<path fill="#74AFD1" d="M-692.039,122.023c1.935,0,1.935-3,0-3S-693.974,122.023-692.039,122.023L-692.039,122.023z"/>
		</g>
	</g>
	<g display="inline">
		<g>
			<path fill="#74AFD1" d="M-674.659,121.806c1.935,0,1.935-3,0-3S-676.594,121.806-674.659,121.806L-674.659,121.806z"/>
		</g>
	</g>
	<g display="inline">
		<g>
			<path fill="#74AFD1" d="M-667.272,125.282c1.935,0,1.935-3,0-3S-669.207,125.282-667.272,125.282L-667.272,125.282z"/>
		</g>
	</g>
	<g display="inline">
		<g>
			<path fill="#74AFD1" d="M-659.018,127.454c1.935,0,1.935-3,0-3S-660.952,127.454-659.018,127.454L-659.018,127.454z"/>
		</g>
	</g>
	<g display="inline">
		<g>
			<path fill="#74AFD1" d="M-651.196,130.713c1.935,0,1.935-3,0-3S-653.131,130.713-651.196,130.713L-651.196,130.713z"/>
		</g>
	</g>
	<g display="inline">
		<g>
			<path fill="#74AFD1" d="M-655.759,132.885c1.935,0,1.935-3,0-3S-657.693,132.885-655.759,132.885L-655.759,132.885z"/>
		</g>
	</g>
	<g display="inline">
		<g>
			<path fill="#74AFD1" d="M-662.928,129.192c1.935,0,1.935-3,0-3S-664.862,129.192-662.928,129.192L-662.928,129.192z"/>
		</g>
	</g>
	<g display="inline">
		<g>
			<path fill="#74AFD1" d="M-680.525,122.458c1.935,0,1.935-3,0-3S-682.46,122.458-680.525,122.458L-680.525,122.458z"/>
		</g>
	</g>
	<g display="inline">
		<g>
			<path fill="#74AFD1" d="M-629.254,148.961c1.935,0,1.935-3,0-3S-631.188,148.961-629.254,148.961L-629.254,148.961z"/>
		</g>
	</g>
	<g display="inline">
		<g>
			<path fill="#74AFD1" d="M-623.605,155.479c1.935,0,1.935-3,0-3S-625.54,155.479-623.605,155.479L-623.605,155.479z"/>
		</g>
	</g>
	<g display="inline">
		<g>
			<path fill="#74AFD1" d="M-619.478,161.779c1.935,0,1.935-3,0-3S-621.412,161.779-619.478,161.779L-619.478,161.779z"/>
		</g>
	</g>
	<g display="inline">
		<g>
			<path fill="#74AFD1" d="M-611.005,176.552c1.935,0,1.935-3,0-3S-612.939,176.552-611.005,176.552L-611.005,176.552z"/>
		</g>
	</g>
	<g display="inline">
		<g>
			<path fill="#74AFD1" d="M-614.047,170.687c1.935,0,1.935-3,0-3S-615.981,170.687-614.047,170.687L-614.047,170.687z"/>
		</g>
	</g>
	<g display="inline">
		<g>
			<path fill="#74AFD1" d="M-616.002,165.69c1.935,0,1.935-3,0-3S-617.937,165.69-616.002,165.69L-616.002,165.69z"/>
		</g>
	</g>
	<g display="inline">
		<g>
			<path fill="#74AFD1" d="M-625.778,159.607c1.935,0,1.935-3,0-3S-627.713,159.607-625.778,159.607L-625.778,159.607z"/>
		</g>
	</g>
	<g display="inline">
		<g>
			<path fill="#74AFD1" d="M-629.254,154.176c1.935,0,1.935-3,0-3S-631.188,154.176-629.254,154.176L-629.254,154.176z"/>
		</g>
	</g>
	<g display="inline">
		<g>
			<path fill="#74AFD1" d="M-801.316,148.092c1.935,0,1.935-3,0-3S-803.25,148.092-801.316,148.092L-801.316,148.092z"/>
		</g>
	</g>
	<g display="inline">
		<g>
			<path fill="#74AFD1" d="M-807.182,155.044c1.935,0,1.935-3,0-3S-809.116,155.044-807.182,155.044L-807.182,155.044z"/>
		</g>
	</g>
	<g display="inline">
		<g>
			<path fill="#74AFD1" d="M-812.396,163.299c1.935,0,1.935-3,0-3S-814.331,163.299-812.396,163.299L-812.396,163.299z"/>
		</g>
	</g>
	<g display="inline">
		<g>
			<path fill="#74AFD1" d="M-810.006,158.52c1.935,0,1.935-3,0-3S-811.94,158.52-810.006,158.52L-810.006,158.52z"/>
		</g>
	</g>
	<g display="inline">
		<g>
			<path fill="#74AFD1" d="M-804.575,151.568c1.935,0,1.935-3,0-3S-806.509,151.568-804.575,151.568L-804.575,151.568z"/>
		</g>
	</g>
	<g display="inline">
		<g>
			<path fill="#74AFD1" d="M-796.754,150.264c1.935,0,1.935-3,0-3S-798.688,150.264-796.754,150.264L-796.754,150.264z"/>
		</g>
	</g>
	<g display="inline">
		<g>
			<path fill="#74AFD1" d="M-802.837,154.175c1.935,0,1.935-3,0-3S-804.771,154.175-802.837,154.175L-802.837,154.175z"/>
		</g>
	</g>
	<g display="inline">
		<g>
			<path fill="#74AFD1" d="M-806.748,159.389c1.935,0,1.935-3,0-3S-808.682,159.389-806.748,159.389L-806.748,159.389z"/>
		</g>
	</g>
	<g display="inline">
		<g>
			<path fill="#74AFD1" d="M-816.089,169.165c1.935,0,1.935-3,0-3S-818.023,169.165-816.089,169.165L-816.089,169.165z"/>
		</g>
	</g>
	<g display="inline">
		<g>
			<path fill="#74AFD1" d="M-789.367,147.44c1.935,0,1.935-3,0-3S-791.302,147.44-789.367,147.44L-789.367,147.44z"/>
		</g>
	</g>
	<g display="inline">
		<g>
			<path fill="#74AFD1" d="M-775.463,133.319c1.935,0,1.935-3,0-3S-777.398,133.319-775.463,133.319L-775.463,133.319z"/>
		</g>
	</g>
	<g display="inline">
		<g>
			<path fill="#74AFD1" d="M-768.511,126.584c1.935,0,1.935-3,0-3S-770.446,126.584-768.511,126.584L-768.511,126.584z"/>
		</g>
	</g>
	<g display="inline">
		<g>
			<path fill="#74AFD1" d="M-758.953,124.194c1.935,0,1.935-3,0-3S-760.887,124.194-758.953,124.194L-758.953,124.194z"/>
		</g>
	</g>
	<g display="inline">
		<g>
			<path fill="#74AFD1" d="M-747.004,124.629c1.935,0,1.935-3,0-3S-748.938,124.629-747.004,124.629L-747.004,124.629z"/>
		</g>
	</g>
	<g display="inline">
		<g>
			<path fill="#74AFD1" d="M-743.093,119.85c1.935,0,1.935-3,0-3S-745.028,119.85-743.093,119.85L-743.093,119.85z"/>
		</g>
	</g>
	<g display="inline">
		<g>
			<path fill="#74AFD1" d="M-735.707,114.635c1.935,0,1.935-3,0-3S-737.641,114.635-735.707,114.635L-735.707,114.635z"/>
		</g>
	</g>
	<g display="inline">
		<g>
			<path fill="#74AFD1" d="M-735.055,120.284c1.935,0,1.935-3,0-3S-736.99,120.284-735.055,120.284L-735.055,120.284z"/>
		</g>
	</g>
	<g display="inline">
		<g>
			<path fill="#74AFD1" d="M-752,121.153c1.935,0,1.935-3,0-3S-753.935,121.153-752,121.153L-752,121.153z"/>
		</g>
	</g>
	<g display="inline">
		<g>
			<path fill="#74AFD1" d="M-755.477,126.801c1.935,0,1.935-3,0-3S-757.411,126.801-755.477,126.801L-755.477,126.801z"/>
		</g>
	</g>
	<g display="inline">
		<g>
			<path fill="#74AFD1" d="M-767.208,131.146c1.935,0,1.935-3,0-3S-769.143,131.146-767.208,131.146L-767.208,131.146z"/>
		</g>
	</g>
	<g display="inline">
		<g>
			<path fill="#74AFD1" d="M-775.029,138.533c1.935,0,1.935-3,0-3S-776.963,138.533-775.029,138.533L-775.029,138.533z"/>
		</g>
	</g>
	<g display="inline">
		<g>
			<path fill="#74AFD1" d="M-761.994,127.67c1.935,0,1.935-3,0-3S-763.929,127.67-761.994,127.67L-761.994,127.67z"/>
		</g>
	</g>
	<g display="inline">
		<g>
			<path fill="#74AFD1" d="M-747.873,117.242c1.935,0,1.935-3,0-3S-749.807,117.242-747.873,117.242L-747.873,117.242z"/>
		</g>
	</g>
</g>
</svg>
