<?xml version="1.0" encoding="utf-8"?>
<!-- Generator: Adobe Illustrator 15.1.0, SVG Export Plug-In . SVG Version: 6.00 Build 0)  -->
<!DOCTYPE svg PUBLIC "-//W3C//DTD SVG 1.1//EN" "http://www.w3.org/Graphics/SVG/1.1/DTD/svg11.dtd">
<svg version="1.1" xmlns="http://www.w3.org/2000/svg" xmlns:xlink="http://www.w3.org/1999/xlink" x="0px" y="0px" width="400px"
	 height="400px" viewBox="0 0 400 400" enable-background="new 0 0 400 400" xml:space="preserve">
<g id="guide_lines_layer" display="none">
	
		<rect x="-459.309" y="411.488" display="inline" fill="#FFFFFF" stroke="#000000" stroke-miterlimit="10" width="75" height="400"/>
	
		<rect x="-135.059" y="407.489" display="inline" fill="#FFFFFF" stroke="#000000" stroke-miterlimit="10" width="75" height="400"/>
	<rect x="-135.059" y="4.5" display="inline" fill="#FFFFFF" stroke="#000000" stroke-miterlimit="10" width="75" height="400"/>
	<rect x="-459.309" y="4.5" display="inline" fill="#FFFFFF" stroke="#000000" stroke-miterlimit="10" width="75" height="400"/>
	<rect display="inline" fill="#FFFFFF" stroke="#000000" stroke-miterlimit="10" width="75" height="400"/>
	<rect x="325" y="-1" display="inline" fill="#FFFFFF" stroke="#000000" stroke-miterlimit="10" width="75" height="400"/>
	<rect x="324.999" y="407.035" display="inline" fill="#FFFFFF" stroke="#000000" stroke-miterlimit="10" width="75" height="400"/>
	<rect x="-0.001" y="407.035" display="inline" fill="#FFFFFF" stroke="#000000" stroke-miterlimit="10" width="75" height="400"/>
	
		<rect x="-459.309" y="813.053" display="inline" fill="#FFFFFF" stroke="#000000" stroke-miterlimit="10" width="75" height="400"/>
	
		<rect x="-135.059" y="813.053" display="inline" fill="#FFFFFF" stroke="#000000" stroke-miterlimit="10" width="75" height="400"/>
	<rect x="326.499" y="813.053" display="inline" fill="#FFFFFF" stroke="#000000" stroke-miterlimit="10" width="75" height="400"/>
	<rect x="1.499" y="813.053" display="inline" fill="#FFFFFF" stroke="#000000" stroke-miterlimit="10" width="75" height="400"/>
	<rect x="456.274" y="1.167" display="inline" fill="#FFFFFF" stroke="#000000" stroke-miterlimit="10" width="75" height="400"/>
	
		<rect x="781.274" y="1.167" display="inline" fill="#FFFFFF" stroke="#000000" stroke-miterlimit="10" width="75" height="399.999"/>
	<rect x="779.941" y="414.5" display="inline" fill="#FFFFFF" stroke="#000000" stroke-miterlimit="10" width="75" height="400"/>
	<rect x="454.941" y="414.5" display="inline" fill="#FFFFFF" stroke="#000000" stroke-miterlimit="10" width="75" height="400"/>
	<rect x="781.274" y="821.5" display="inline" fill="#FFFFFF" stroke="#000000" stroke-miterlimit="10" width="75" height="400"/>
	<rect x="456.274" y="822.5" display="inline" fill="#FFFFFF" stroke="#000000" stroke-miterlimit="10" width="75" height="400"/>
	<rect x="929.547" y="0.531" display="inline" fill="#FFFFFF" stroke="#000000" stroke-miterlimit="10" width="75" height="400"/>
	
		<rect x="1254.547" y="0.531" display="inline" fill="#FFFFFF" stroke="#000000" stroke-miterlimit="10" width="75" height="399.999"/>
	<rect x="1253.214" y="415.5" display="inline" fill="#FFFFFF" stroke="#000000" stroke-miterlimit="10" width="75" height="400"/>
	<rect x="928.941" y="415.5" display="inline" fill="#FFFFFF" stroke="#000000" stroke-miterlimit="10" width="75" height="400"/>
	
		<rect x="1253.214" y="820.864" display="inline" fill="#FFFFFF" stroke="#000000" stroke-miterlimit="10" width="75" height="400"/>
	<rect x="928.214" y="821.864" display="inline" fill="#FFFFFF" stroke="#000000" stroke-miterlimit="10" width="75" height="400"/>
</g>
<g id="body_layer">
	<path fill="#DBCD7D" d="M1051.276,138.167c0,0-63.33-68.667-118.667-8.667c62.715-18,76.856-2,88.539,29.334
		C1032.45,189.144,1051.276,138.167,1051.276,138.167z"/>
	<path fill="#DBCD7D" d="M1195.941,140.167c0,0,63.33-68.667,118.667-8.667c-62.715-18-76.856-2-88.539,29.333
		C1214.768,191.144,1195.941,140.167,1195.941,140.167z"/>
	<path fill="#7DC6DD" d="M-384.392,401.501c-2.883-20-6.001-94.502-1.501-143.002c3.743-40.334,17.835-96.814,42.335-118.185
		c3.563-3.109-30.615-46.477-26.834-49.162c3.812-2.707,45.584,35.273,49.586,33.007c14.496-8.207,30.145-13.495,46.222-15.626
		c5.358-0.71,10.294-53.233,15.722-53.233c6.436,0,13.158,52.65,19.217,53.576c18.174,2.776,34.613,9.508,49.126,18.933
		c2.902,1.885,44.048-32.705,46.795-30.614c3.355,2.554-31.726,41.835-28.608,44.662c29.753,26.976,31.94,73.644,35.44,119.144
		c2.627,34.148,4.752,126.445,1.92,140.279L-384.392,401.501z"/>
	<path fill="#79C2EA" stroke="#FFFFFF" stroke-miterlimit="10" d="M-684.059,207.5"/>
	<path fill="#7DC6DD" d="M-385.059,407.5v46c0,0-4,30-21,37s-27,11-27,31s11,36-6,41s-14,15,0,15s25.353-13.575,26.774-25.657
		c1.963-16.687-8.344-22.576,7.853-32.883c9.972-6.346,19.141-5.399,19.141-5.399l-0.492,53.985c0,0-28.436,6.475-36.318,25.523
		c-11.779,28.464,4.968,47.216,1.042,62.431c-6.039,23.4-23.395,19.503-22.5,28c1,9.5,37.038,0.956,39-28
		c1.114-16.443-2.814-21.393-3.309-29.06c-0.982-15.214,9.325-26.993,23.067-25.519l-0.258,88.578c0,0,0.629,17.897-13.484,28.718
		c-14.724,11.288-18.65,9.815-26.012,16.688c-17.939,16.744-6.871,35.827-15.706,41.718c-14.062,9.377-15.214,21.595-2.945,16.687
		c22.104-8.843,21.777-16.334,24.54-33.374c2.944-18.159,29.607-22.436,29.607-22.436h4l0.903,70.988h111.097l7-400L-385.059,407.5z
		"/>
	<path fill="#7DC6DD" d="M-389.059,737.5"/>
	<circle fill="#36A1BA" cx="-407.891" cy="496.667" r="7.833"/>
	<circle fill="#36A1BA" cx="-406.891" cy="517.667" r="6.167"/>
	<circle fill="#36A1BA" cx="-424.558" cy="514.333" r="5.833"/>
	<circle fill="#36A1BA" cx="-416.058" cy="531.5" r="4.333"/>
	<circle fill="#36A1BA" cx="-428.724" cy="525.5" r="4.667"/>
	<circle fill="#36A1BA" cx="-426.058" cy="538.833" r="4"/>
	<circle fill="#36A1BA" cx="-414.558" cy="545.667" r="3.5"/>
	<circle fill="#36A1BA" cx="-425.558" cy="551.667" r="3.833"/>
	<circle fill="#36A1BA" cx="-418.724" cy="561.5" r="3.667"/>
	<circle fill="#36A1BA" cx="-431.724" cy="563.166" r="3.333"/>
	<circle fill="#36A1BA" cx="-427.891" cy="572" r="2.833"/>
	<circle fill="#36A1BA" cx="-441.725" cy="570.5" r="3"/>
	<circle fill="#36A1BA" cx="-389.058" cy="576.167" r="9"/>
	<circle fill="#36A1BA" cx="-400.391" cy="598.833" r="8"/>
	<circle fill="#36A1BA" cx="-410.224" cy="585.333" r="6.833"/>
	<circle fill="#36A1BA" cx="-420.891" cy="597" r="6.167"/>
	<circle fill="#36A1BA" cx="-424.058" cy="613.5" r="6.167"/>
	<circle fill="#36A1BA" cx="-409.558" cy="614.333" r="6.5"/>
	<circle fill="#36A1BA" cx="-420.558" cy="629.333" r="4.833"/>
	<circle fill="#36A1BA" cx="-408.725" cy="633.833" r="4"/>
	<circle fill="#36A1BA" cx="-416.224" cy="644.667" r="3.833"/>
	<circle fill="#36A1BA" cx="-407.558" cy="648.333" r="3.833"/>
	<circle fill="#36A1BA" cx="-417.891" cy="657" r="4.167"/>
	<circle fill="#36A1BA" cx="-415.391" cy="673" r="3.5"/>
	<circle fill="#36A1BA" cx="-422.391" cy="666.5" r="3.333"/>
	<circle fill="#36A1BA" cx="-407.391" cy="663.833" r="4.333"/>
	<circle fill="#36A1BA" cx="-426.224" cy="681" r="3.833"/>
	<circle fill="#36A1BA" cx="-395.891" cy="721.667" r="6.167"/>
	<circle fill="#36A1BA" cx="-406.557" cy="740.666" r="4.167"/>
	<circle fill="#36A1BA" cx="-406.224" cy="728.333" r="3.833"/>
	<circle fill="#36A1BA" cx="-418.057" cy="735.833" r="4.333"/>
	<circle fill="#36A1BA" cx="-432.058" cy="760.166" r="3"/>
	<circle fill="#36A1BA" cx="-427.224" cy="746.999" r="4.167"/>
	<circle fill="#36A1BA" cx="-416.558" cy="749.333" r="4.833"/>
	<circle fill="#36A1BA" cx="-394.391" cy="735.166" r="5.667"/>
	<circle fill="#36A1BA" cx="-425.558" cy="778.666" r="3.5"/>
	<circle fill="#36A1BA" cx="-436.224" cy="779.333" r="3.5"/>
	<circle fill="#36A1BA" cx="-424.558" cy="765.999" r="3.5"/>
	<circle fill="#36A1BA" cx="-422.558" cy="757.666" r="3.5"/>
	<circle fill="#36A1BA" cx="-433.724" cy="771.499" r="3"/>
	<circle fill="#36A1BA" cx="-439.224" cy="787.333" r="3.167"/>
	<path fill="#7DC6DD" d="M-135.075,408.489l-0.941,45.012c0,0,4.405,30,23.125,37c18.721,7,29.732,11,29.732,31s-12.113,36,6.607,41
		c18.72,5,15.416,15,0,15c-15.417,0-27.919-13.575-29.484-25.657c-2.161-16.687,9.188-22.576-8.646-32.883
		c-10.982-6.346-21.078-5.399-21.078-5.399l0.541,53.985c0,0,31.313,6.475,39.993,25.523c12.972,28.464-5.47,47.216-1.146,62.431
		c6.649,23.4,25.762,19.503,24.776,28c-1.102,9.5-40.785,0.956-42.946-28c-1.228-16.443,3.099-21.393,3.644-29.06
		c1.081-15.214-10.269-26.993-25.401-25.519l0.284,88.578c0,0-0.692,17.897,14.849,28.718c16.215,11.288,20.538,9.815,28.645,16.688
		c19.755,16.744,7.566,35.827,17.295,41.718c15.486,9.377,16.754,21.595,3.242,16.687c-24.34-8.843-23.98-16.334-27.021-33.374
		c-3.244-18.159-32.604-22.436-32.604-22.436h-4.405l1.381,70.988h-139.676l7.253-400H-135.075z"/>
	<path fill="#7DC6DD" d="M-131.611,737.5"/>
	<ellipse fill="#36A1BA" cx="-110.874" cy="496.667" rx="8.626" ry="7.833"/>
	<ellipse fill="#36A1BA" cx="-111.975" cy="517.667" rx="6.791" ry="6.166"/>
	<ellipse fill="#36A1BA" cx="-92.521" cy="514.333" rx="6.423" ry="5.834"/>
	<ellipse fill="#36A1BA" cx="-101.881" cy="531.5" rx="4.771" ry="4.333"/>
	<ellipse fill="#36A1BA" cx="-87.933" cy="525.5" rx="5.139" ry="4.667"/>
	<ellipse fill="#36A1BA" cx="-90.869" cy="538.833" rx="4.405" ry="4"/>
	<ellipse fill="#36A1BA" cx="-103.532" cy="545.667" rx="3.854" ry="3.5"/>
	<ellipse fill="#36A1BA" cx="-91.419" cy="551.667" rx="4.221" ry="3.833"/>
	<ellipse fill="#36A1BA" cx="-98.944" cy="561.5" rx="4.038" ry="3.667"/>
	<ellipse fill="#36A1BA" cx="-84.629" cy="563.166" rx="3.671" ry="3.333"/>
	<ellipse fill="#36A1BA" cx="-88.85" cy="572" rx="3.12" ry="2.833"/>
	<ellipse fill="#36A1BA" cx="-73.616" cy="570.5" rx="3.304" ry="3"/>
	<ellipse fill="#36A1BA" cx="-131.613" cy="576.167" rx="9.911" ry="9"/>
	<ellipse fill="#36A1BA" cx="-119.133" cy="598.833" rx="8.81" ry="8"/>
	<ellipse fill="#36A1BA" cx="-108.304" cy="585.333" rx="7.525" ry="6.834"/>
	<ellipse fill="#36A1BA" cx="-96.558" cy="597" rx="6.791" ry="6.167"/>
	<ellipse fill="#36A1BA" cx="-93.071" cy="613.5" rx="6.791" ry="6.167"/>
	<ellipse fill="#36A1BA" cx="-109.039" cy="614.333" rx="7.158" ry="6.5"/>
	<ellipse fill="#36A1BA" cx="-96.925" cy="629.333" rx="5.322" ry="4.834"/>
	<ellipse fill="#36A1BA" cx="-109.956" cy="633.833" rx="4.405" ry="4"/>
	<ellipse fill="#36A1BA" cx="-101.697" cy="644.667" rx="4.222" ry="3.833"/>
	<ellipse fill="#36A1BA" cx="-111.241" cy="648.333" rx="4.221" ry="3.834"/>
	<ellipse fill="#36A1BA" cx="-99.862" cy="657" rx="4.589" ry="4.167"/>
	<ellipse fill="#36A1BA" cx="-102.615" cy="673" rx="3.854" ry="3.5"/>
	<ellipse fill="#36A1BA" cx="-94.906" cy="666.5" rx="3.671" ry="3.334"/>
	<ellipse fill="#36A1BA" cx="-111.424" cy="663.833" rx="4.771" ry="4.333"/>
	<ellipse fill="#36A1BA" cx="-90.685" cy="681" rx="4.221" ry="3.834"/>
	<ellipse fill="#36A1BA" cx="-124.087" cy="721.667" rx="6.791" ry="6.167"/>
	<ellipse fill="#36A1BA" cx="-112.342" cy="740.666" rx="4.588" ry="4.166"/>
	<ellipse fill="#36A1BA" cx="-112.709" cy="728.333" rx="4.222" ry="3.833"/>
	<ellipse fill="#36A1BA" cx="-99.678" cy="735.833" rx="4.771" ry="4.334"/>
	<ellipse fill="#36A1BA" cx="-84.262" cy="760.166" rx="3.304" ry="3"/>
	<ellipse fill="#36A1BA" cx="-89.584" cy="746.999" rx="4.588" ry="4.167"/>
	<ellipse fill="#36A1BA" cx="-101.33" cy="749.333" rx="5.322" ry="4.833"/>
	<ellipse fill="#36A1BA" cx="-125.74" cy="735.166" rx="6.239" ry="5.666"/>
	<ellipse fill="#36A1BA" cx="-91.419" cy="778.666" rx="3.854" ry="3.5"/>
	<ellipse fill="#36A1BA" cx="-79.673" cy="779.333" rx="3.854" ry="3.5"/>
	<ellipse fill="#36A1BA" cx="-92.521" cy="765.999" rx="3.854" ry="3.5"/>
	<ellipse fill="#36A1BA" cx="-94.723" cy="757.666" rx="3.854" ry="3.5"/>
	<ellipse fill="#36A1BA" cx="-82.426" cy="771.499" rx="3.304" ry="3"/>
	<ellipse fill="#36A1BA" cx="-76.37" cy="787.333" rx="3.487" ry="3.166"/>
	<path fill="#52BFD1" d="M-159.726,603.512c0,99.408-43.169,179.988-96.417,179.988s-96.417-80.58-96.417-179.988
		c0-99.43,43.168-180.012,96.417-180.012S-159.726,504.083-159.726,603.512z"/>
	<path fill="#52BFD1" d="M-141.727,256.503c0,19.33-16.977,34.998-37.917,34.998c-20.939,0-37.916-15.668-37.916-34.998
		c0-19.334,16.977-35.002,37.916-35.002C-158.703,221.501-141.727,237.169-141.727,256.503z"/>
	<path fill="#52BFD1" d="M-297.727,259.503c0,19.33-16.977,34.998-37.917,34.998c-20.939,0-37.916-15.668-37.916-34.998
		c0-19.334,16.977-35.002,37.916-35.002C-314.703,224.501-297.727,240.169-297.727,259.503z"/>
	<g>
		<g>
			<path fill="#7DC6DD" d="M-340.45,121.494c0.65,0,2.082-0.987,0.781-0.987C-340.319,120.506-341.751,121.494-340.45,121.494
				L-340.45,121.494z"/>
		</g>
	</g>
	<g>
		<g>
			<path fill="none" stroke="#F2E4D2" stroke-miterlimit="10" d="M-173.56,122"/>
		</g>
	</g>
	<g>
		<g>
			<path fill="none" stroke="#F2E4D2" stroke-miterlimit="10" d="M-261.56,121"/>
		</g>
	</g>
	<path fill="#6FC5D8" d="M-133.582,813.053l2.023,127.449c-2.206,25.478,41-4,41,29c0,32.062-120,28-119,14
		c0.778-10.892-6-128-59-122c-32.804,3.714-43.046,125.093-45,129c-3,6-115,30-117-12c-1.813-38.075,46,0,44.168-36.008
		c0,0,2.881-125.732,3.77-129.441H-133.582z"/>
	<path fill="#D6C370" d="M-427.55,966.899c0,0-4.187,4.983-2.193,10.965c0,0-12.559-7.376-16.347,0.996
		C-446.488,967.297-437.717,965.902-427.55,966.899z"/>
	<path fill="#D6C370" d="M-427.749,979.857c0,0-0.199,4.386,5.98,7.975c0,0-13.755-3.189-17.543,5.183
		C-439.71,981.452-437.916,978.86-427.749,979.857z"/>
	<path fill="#D6C370" d="M-420.475,990.56l7.841,2.83c0,0-8.394,3.072-11.97,13.587C-427.51,999.985-426.603,994.182-420.475,990.56
		z"/>
	<path fill="#D6C370" d="M-94.802,956.899c0,0,4.069,4.983,2.131,10.965c0,0,12.207-7.376,15.89,0.996
		C-76.395,957.297-84.92,955.902-94.802,956.899z"/>
	<path fill="#D6C370" d="M-94.608,969.857c0,0,0.193,4.386-5.812,7.975c0,0,13.369-3.189,17.051,5.183
		C-82.982,971.452-84.727,968.86-94.608,969.857z"/>
	<path fill="#D6C370" d="M-101.679,980.56l-7.621,2.83c0,0,8.158,3.072,11.634,13.587
		C-94.841,989.985-95.723,984.182-101.679,980.56z"/>
	<path fill="#52BFD1" d="M-382.576,820.479c0,0,139.461,50.713-3.888,123.271L-382.576,820.479z"/>
	<path fill="#52BFD1" d="M-133.296,818.006c0,0-124.187,45.307,1.429,119.307L-133.296,818.006z"/>
	<path fill="#8BCEAB" d="M73.116,399.621c-2.881-20-6-94.502-1.5-143.002c3.742-40.336,17.835-96.814,42.335-118.185
		c3.563-3.109-30.614-46.478-26.833-49.163c3.811-2.707,45.583,35.274,49.586,33.009c14.496-8.207,30.144-13.496,46.221-15.628
		c5.359-0.709,10.294-53.232,15.722-53.232c6.436,0,13.158,52.648,19.217,53.574c18.174,2.778,34.613,9.509,49.126,18.935
		c2.902,1.885,44.048-32.706,46.795-30.616c3.355,2.555-31.726,41.837-28.608,44.663c29.753,26.976,31.94,73.642,35.44,119.144
		c2.627,34.148,4.752,126.445,1.92,140.279L73.116,399.621z"/>
	<path fill="#8BCEAB" d="M73.948,407.119v46c0,0-4,30-21,37s-27,11-27,31s11,36-6,41s-14,15,0,15s25.353-13.574,26.774-25.656
		c1.963-16.688-8.344-22.576,7.853-32.883c9.972-6.346,19.142-5.4,19.142-5.4l-0.492,53.986c0,0-28.436,6.475-36.318,25.523
		c-11.779,28.463,4.969,47.215,1.042,62.43c-6.038,23.4-23.395,19.504-22.5,28c1,9.5,37.038,0.957,39-28
		c1.114-16.443-2.813-21.393-3.309-29.059c-0.981-15.215,9.325-26.994,23.067-25.52l-0.259,88.578c0,0,0.63,17.898-13.484,28.719
		c-14.724,11.287-18.649,9.814-26.013,16.688c-17.938,16.744-6.871,35.826-15.705,41.717c-14.062,9.377-15.215,21.596-2.945,16.688
		c22.105-8.844,21.777-16.334,24.541-33.375c2.943-18.158,29.606-22.436,29.606-22.436h4l0.903,70.988h111.097l7-400L73.948,407.119
		z"/>
	<path fill="#7DC6DD" d="M69.948,737.119"/>
	<circle fill="#60A37B" cx="51.116" cy="496.285" r="7.833"/>
	<circle fill="#60A37B" cx="52.116" cy="517.285" r="6.167"/>
	<circle fill="#60A37B" cx="34.449" cy="513.951" r="5.834"/>
	<circle fill="#60A37B" cx="42.949" cy="531.119" r="4.333"/>
	<circle fill="#60A37B" cx="30.282" cy="525.119" r="4.667"/>
	<circle fill="#60A37B" cx="32.949" cy="538.451" r="4"/>
	<circle fill="#60A37B" cx="44.449" cy="545.285" r="3.5"/>
	<circle fill="#60A37B" cx="33.449" cy="551.285" r="3.834"/>
	<circle fill="#60A37B" cx="40.282" cy="561.119" r="3.667"/>
	<circle fill="#60A37B" cx="27.282" cy="562.785" r="3.333"/>
	<circle fill="#60A37B" cx="31.116" cy="571.619" r="2.833"/>
	<circle fill="#60A37B" cx="17.282" cy="570.119" r="3"/>
	<circle fill="#60A37B" cx="69.949" cy="575.785" r="9"/>
	<circle fill="#60A37B" cx="58.615" cy="598.451" r="8"/>
	<circle fill="#60A37B" cx="48.782" cy="584.951" r="6.833"/>
	<circle fill="#60A37B" cx="38.116" cy="596.619" r="6.167"/>
	<circle fill="#60A37B" cx="34.949" cy="613.119" r="6.167"/>
	<circle fill="#60A37B" cx="49.449" cy="613.953" r="6.5"/>
	<circle fill="#60A37B" cx="38.449" cy="628.951" r="4.834"/>
	<circle fill="#60A37B" cx="50.282" cy="633.453" r="4"/>
	<circle fill="#60A37B" cx="42.783" cy="644.285" r="3.833"/>
	<circle fill="#60A37B" cx="51.449" cy="647.951" r="3.833"/>
	<circle fill="#60A37B" cx="41.116" cy="656.619" r="4.167"/>
	<circle fill="#60A37B" cx="43.615" cy="672.619" r="3.5"/>
	<circle fill="#60A37B" cx="36.616" cy="666.119" r="3.333"/>
	<circle fill="#60A37B" cx="51.616" cy="663.453" r="4.333"/>
	<circle fill="#60A37B" cx="32.782" cy="680.619" r="3.833"/>
	<circle fill="#60A37B" cx="63.116" cy="721.285" r="6.167"/>
	<circle fill="#60A37B" cx="52.45" cy="740.285" r="4.167"/>
	<circle fill="#60A37B" cx="52.783" cy="727.953" r="3.833"/>
	<circle fill="#60A37B" cx="40.95" cy="735.451" r="4.333"/>
	<circle fill="#60A37B" cx="26.949" cy="759.785" r="3"/>
	<circle fill="#60A37B" cx="31.783" cy="746.617" r="4.167"/>
	<circle fill="#60A37B" cx="42.449" cy="748.951" r="4.833"/>
	<circle fill="#60A37B" cx="64.616" cy="734.785" r="5.667"/>
	<circle fill="#60A37B" cx="33.449" cy="778.285" r="3.5"/>
	<circle fill="#60A37B" cx="22.783" cy="778.951" r="3.5"/>
	<circle fill="#60A37B" cx="34.449" cy="765.617" r="3.5"/>
	<circle fill="#60A37B" cx="36.449" cy="757.285" r="3.5"/>
	<circle fill="#60A37B" cx="25.283" cy="771.117" r="3"/>
	<circle fill="#60A37B" cx="19.783" cy="786.951" r="3.167"/>
	<path fill="#8BCEAB" d="M325.932,408.107l-2.941,45.012c0,0,4.405,30,23.125,37c18.721,7,29.732,11,29.732,31s-12.113,36,6.607,41
		c18.72,5,15.416,15,0,15c-15.417,0-27.919-13.574-29.484-25.656c-2.161-16.688,9.188-22.576-8.646-32.883
		c-10.982-6.346-21.078-5.4-21.078-5.4l0.541,53.986c0,0,31.313,6.475,39.993,25.523c12.972,28.463-5.47,47.215-1.146,62.43
		c6.649,23.4,25.762,19.504,24.776,28c-1.102,9.5-40.785,0.957-42.946-28c-1.228-16.443,3.099-21.393,3.644-29.059
		c1.081-15.215-10.269-26.994-25.401-25.52l0.284,88.578c0,0-0.692,17.898,14.849,28.719c16.215,11.287,20.538,9.814,28.645,16.688
		c19.755,16.744,7.566,35.826,17.295,41.717c15.486,9.377,16.754,21.596,3.242,16.688c-24.34-8.844-23.98-16.334-27.021-33.375
		c-3.244-18.158-32.604-22.436-32.604-22.436h-4.405l3.381,70.988H184.695l7.253-400H325.932z"/>
	<path fill="#7DC6DD" d="M327.396,737.119"/>
	<ellipse fill="#60A37B" cx="348.133" cy="496.285" rx="8.626" ry="7.834"/>
	<ellipse fill="#60A37B" cx="347.032" cy="517.285" rx="6.791" ry="6.166"/>
	<ellipse fill="#60A37B" cx="366.486" cy="513.951" rx="6.423" ry="5.834"/>
	<ellipse fill="#60A37B" cx="357.126" cy="531.119" rx="4.771" ry="4.332"/>
	<ellipse fill="#60A37B" cx="371.074" cy="525.119" rx="5.139" ry="4.666"/>
	<ellipse fill="#60A37B" cx="368.138" cy="538.451" rx="4.405" ry="4"/>
	<ellipse fill="#60A37B" cx="355.475" cy="545.285" rx="3.854" ry="3.5"/>
	<ellipse fill="#60A37B" cx="367.587" cy="551.285" rx="4.221" ry="3.834"/>
	<ellipse fill="#60A37B" cx="360.062" cy="561.119" rx="4.038" ry="3.666"/>
	<ellipse fill="#60A37B" cx="374.378" cy="562.785" rx="3.671" ry="3.332"/>
	<ellipse fill="#60A37B" cx="370.157" cy="571.619" rx="3.12" ry="2.834"/>
	<ellipse fill="#60A37B" cx="385.391" cy="570.119" rx="3.304" ry="3"/>
	<ellipse fill="#60A37B" cx="327.394" cy="575.785" rx="9.911" ry="9"/>
	<ellipse fill="#60A37B" cx="339.874" cy="598.451" rx="8.81" ry="8"/>
	<ellipse fill="#60A37B" cx="350.703" cy="584.951" rx="7.525" ry="6.834"/>
	<ellipse fill="#60A37B" cx="362.449" cy="596.619" rx="6.791" ry="6.166"/>
	<ellipse fill="#60A37B" cx="365.936" cy="613.119" rx="6.791" ry="6.168"/>
	<ellipse fill="#60A37B" cx="349.968" cy="613.953" rx="7.158" ry="6.5"/>
	<ellipse fill="#60A37B" cx="362.082" cy="628.951" rx="5.322" ry="4.834"/>
	<ellipse fill="#60A37B" cx="349.051" cy="633.453" rx="4.405" ry="4"/>
	<ellipse fill="#60A37B" cx="357.31" cy="644.285" rx="4.222" ry="3.834"/>
	<ellipse fill="#60A37B" cx="347.766" cy="647.951" rx="4.221" ry="3.834"/>
	<ellipse fill="#60A37B" cx="359.145" cy="656.619" rx="4.589" ry="4.168"/>
	<ellipse fill="#60A37B" cx="356.392" cy="672.619" rx="3.854" ry="3.5"/>
	<ellipse fill="#60A37B" cx="364.101" cy="666.119" rx="3.671" ry="3.334"/>
	<ellipse fill="#60A37B" cx="347.583" cy="663.453" rx="4.771" ry="4.332"/>
	<ellipse fill="#60A37B" cx="368.322" cy="680.619" rx="4.221" ry="3.834"/>
	<ellipse fill="#60A37B" cx="334.92" cy="721.285" rx="6.791" ry="6.168"/>
	<ellipse fill="#60A37B" cx="346.665" cy="740.285" rx="4.588" ry="4.166"/>
	<ellipse fill="#60A37B" cx="346.298" cy="727.953" rx="4.222" ry="3.832"/>
	<ellipse fill="#60A37B" cx="359.329" cy="735.451" rx="4.771" ry="4.334"/>
	<ellipse fill="#60A37B" cx="374.745" cy="759.785" rx="3.304" ry="3"/>
	<ellipse fill="#60A37B" cx="369.423" cy="746.617" rx="4.588" ry="4.168"/>
	<ellipse fill="#60A37B" cx="357.677" cy="748.951" rx="5.322" ry="4.834"/>
	<ellipse fill="#60A37B" cx="333.267" cy="734.785" rx="6.239" ry="5.666"/>
	<ellipse fill="#60A37B" cx="367.587" cy="778.285" rx="3.854" ry="3.5"/>
	<ellipse fill="#60A37B" cx="379.334" cy="778.951" rx="3.854" ry="3.5"/>
	<ellipse fill="#60A37B" cx="366.486" cy="765.617" rx="3.854" ry="3.5"/>
	<ellipse fill="#60A37B" cx="364.284" cy="757.285" rx="3.854" ry="3.5"/>
	<ellipse fill="#60A37B" cx="376.581" cy="771.117" rx="3.304" ry="3"/>
	<ellipse fill="#60A37B" cx="382.637" cy="786.951" rx="3.487" ry="3.166"/>
	<path fill="#72C596" d="M299.281,603.13c0,99.408-43.169,179.988-96.417,179.988s-96.417-80.58-96.417-179.988
		c0-99.43,43.169-180.012,96.417-180.012S299.281,503.701,299.281,603.13z"/>
	<path fill="#72C596" d="M315.782,254.623c0,19.33-16.977,34.998-37.917,34.998c-20.939,0-37.916-15.668-37.916-34.998
		c0-19.336,16.977-35.004,37.916-35.004C298.806,219.619,315.782,235.287,315.782,254.623z"/>
	<path fill="#72C596" d="M159.782,257.623c0,19.33-16.977,34.998-37.917,34.998c-20.939,0-37.916-15.668-37.916-34.998
		c0-19.336,16.977-35.004,37.916-35.004C142.806,222.619,159.782,238.287,159.782,257.623z"/>
	<g>
		<g>
			<path fill="#7DC6DD" d="M117.059,119.612c0.65,0,2.082-0.986,0.781-0.986C117.189,118.626,115.758,119.612,117.059,119.612
				L117.059,119.612z"/>
		</g>
	</g>
	<g>
		<g>
			<path fill="none" stroke="#F2E4D2" stroke-miterlimit="10" d="M283.949,120.119"/>
		</g>
	</g>
	<g>
		<g>
			<path fill="none" stroke="#F2E4D2" stroke-miterlimit="10" d="M195.949,119.119"/>
		</g>
	</g>
	<path fill="#8BCEAB" d="M326.425,813.671l2.023,127.449c-2.206,25.479,41-4,41,29c0,32.062-120,28-119,14
		c0.778-10.891-6-128-59-122c-32.804,3.715-43.046,125.094-45,129c-3,6-114,29-116-13c-1.813-38.074,45,1,43.169-35.008
		c0,0,2.881-125.732,3.77-129.441H326.425z"/>
	<path fill="#D6C370" d="M32.457,967.517c0,0-4.187,4.984-2.193,10.965c0,0-12.559-7.375-16.347,0.996
		C13.519,967.916,22.29,966.521,32.457,967.517z"/>
	<path fill="#D6C370" d="M33.258,979.476c0,0-1.199,5.385,4.98,8.975c0,0-12.755-4.189-16.543,4.182
		C21.297,981.07,23.091,978.478,33.258,979.476z"/>
	<path fill="#D6C370" d="M39.532,991.179l7.841,2.83c0,0-8.395,3.072-11.97,13.586C32.496,1000.603,33.404,994.8,39.532,991.179z"/>
	<path fill="#D6C370" d="M365.205,957.517c0,0,4.069,4.984,2.131,10.965c0,0,13.207-8.375,16.89-0.004
		C384.612,956.916,375.087,956.521,365.205,957.517z"/>
	<path fill="#D6C370" d="M365.398,970.476c0,0,0.193,4.385-5.812,7.975c0,0,14.369-4.189,18.051,4.182
		C378.024,971.07,375.28,969.478,365.398,970.476z"/>
	<path fill="#D6C370" d="M358.328,981.179l-7.621,2.83c0,0,8.158,3.072,11.634,13.586
		C365.166,990.603,364.284,984.8,358.328,981.179z"/>
	<path fill="#72C596" d="M77.432,821.097c0,0,139.461,50.713-3.889,123.271L77.432,821.097z"/>
	<path fill="#72C596" d="M326.711,818.625c0,0-124.187,45.307,1.429,119.307L326.711,818.625z"/>
	<path fill="#E06899" d="M531.449,401.677c-2.881-20-6-94.502-1.5-143.002c3.742-40.336,17.835-96.815,42.335-118.186
		c3.563-3.109-30.614-46.478-26.833-49.163c3.811-2.707,45.583,35.274,49.586,33.009c14.496-8.207,30.144-13.496,46.221-15.628
		c5.359-0.709,10.294-53.232,15.722-53.232c6.436,0,13.158,52.648,19.217,53.574c18.174,2.778,34.613,9.509,49.126,18.935
		c2.902,1.885,44.048-32.706,46.795-30.616c3.355,2.555-31.726,41.837-28.608,44.663c29.753,26.976,31.94,73.643,35.44,119.145
		c2.627,34.148,4.752,126.445,1.92,140.279L531.449,401.677z"/>
	<path fill="#E06899" d="M529.948,414.009v46c0,0-4,30-21,37s-27,11-27,31s11,36-6,41s-14,15,0,15s25.353-13.576,26.774-25.658
		c1.963-16.686-8.344-22.576,7.853-32.883c9.972-6.346,19.142-5.398,19.142-5.398l-0.492,53.984c0,0-28.436,6.475-36.318,25.523
		c-11.779,28.465,4.969,47.217,1.042,62.432c-6.038,23.4-23.395,19.502-22.5,28c1,9.5,37.038,0.955,39-28
		c1.114-16.443-2.813-21.393-3.309-29.061c-0.981-15.213,9.325-26.992,23.067-25.518l-0.259,88.578c0,0,0.63,17.896-13.484,28.717
		c-14.724,11.289-18.649,9.816-26.013,16.688c-17.938,16.744-6.871,35.828-15.705,41.719c-14.062,9.377-15.215,21.594-2.945,16.686
		c22.105-8.842,21.777-16.334,24.541-33.373c2.943-18.16,29.606-22.436,29.606-22.436h4l0.903,70.988h111.097l7-400L529.948,414.009
		z"/>
	<path fill="#7DC6DD" d="M525.948,744.009"/>
	<circle fill="#B63C79" cx="507.116" cy="503.175" r="7.833"/>
	<circle fill="#B63C79" cx="508.116" cy="524.175" r="6.167"/>
	<circle fill="#B63C79" cx="490.449" cy="520.841" r="5.834"/>
	<circle fill="#B63C79" cx="498.949" cy="538.007" r="4.333"/>
	<circle fill="#B63C79" cx="486.282" cy="532.007" r="4.667"/>
	<circle fill="#B63C79" cx="488.949" cy="545.341" r="4"/>
	<circle fill="#B63C79" cx="500.449" cy="552.175" r="3.5"/>
	<circle fill="#B63C79" cx="489.449" cy="558.175" r="3.834"/>
	<circle fill="#B63C79" cx="496.282" cy="568.007" r="3.667"/>
	<circle fill="#B63C79" cx="483.282" cy="569.673" r="3.333"/>
	<circle fill="#B63C79" cx="487.116" cy="578.509" r="2.833"/>
	<circle fill="#B63C79" cx="473.282" cy="577.007" r="3"/>
	<circle fill="#B63C79" cx="525.949" cy="582.675" r="9"/>
	<circle fill="#B63C79" cx="514.615" cy="605.341" r="8"/>
	<circle fill="#B63C79" cx="504.782" cy="591.841" r="6.833"/>
	<circle fill="#B63C79" cx="494.116" cy="603.507" r="6.167"/>
	<circle fill="#B63C79" cx="490.949" cy="620.009" r="6.167"/>
	<circle fill="#B63C79" cx="505.449" cy="620.841" r="6.5"/>
	<circle fill="#B63C79" cx="494.449" cy="635.841" r="4.834"/>
	<circle fill="#B63C79" cx="506.282" cy="640.341" r="4"/>
	<circle fill="#B63C79" cx="498.783" cy="651.175" r="3.833"/>
	<circle fill="#B63C79" cx="507.449" cy="654.841" r="3.833"/>
	<circle fill="#B63C79" cx="497.116" cy="663.509" r="4.167"/>
	<circle fill="#B63C79" cx="499.615" cy="679.509" r="3.5"/>
	<circle fill="#B63C79" cx="492.616" cy="673.009" r="3.333"/>
	<circle fill="#B63C79" cx="507.616" cy="670.341" r="4.333"/>
	<circle fill="#B63C79" cx="488.782" cy="687.509" r="3.833"/>
	<circle fill="#B63C79" cx="519.116" cy="728.175" r="6.167"/>
	<circle fill="#B63C79" cx="508.45" cy="747.173" r="4.167"/>
	<circle fill="#B63C79" cx="508.783" cy="734.841" r="3.833"/>
	<circle fill="#B63C79" cx="496.95" cy="742.341" r="4.333"/>
	<circle fill="#B63C79" cx="482.949" cy="766.673" r="3"/>
	<circle fill="#B63C79" cx="487.783" cy="753.507" r="4.167"/>
	<circle fill="#B63C79" cx="498.449" cy="755.841" r="4.833"/>
	<circle fill="#B63C79" cx="520.616" cy="741.673" r="5.667"/>
	<circle fill="#B63C79" cx="489.449" cy="785.173" r="3.5"/>
	<circle fill="#B63C79" cx="478.783" cy="785.841" r="3.5"/>
	<circle fill="#B63C79" cx="490.449" cy="772.507" r="3.5"/>
	<circle fill="#B63C79" cx="492.449" cy="764.173" r="3.5"/>
	<circle fill="#B63C79" cx="481.283" cy="778.007" r="3"/>
	<circle fill="#B63C79" cx="475.783" cy="793.841" r="3.167"/>
	<path fill="#E06899" d="M781.932,414.998l-2.941,45.012c0,0,4.405,30,23.125,37c18.721,7,29.732,11,29.732,31s-12.113,36,6.607,41
		c18.72,5,15.416,15,0,15c-15.417,0-27.919-13.576-29.484-25.658c-2.161-16.686,9.188-22.576-8.646-32.883
		c-10.982-6.346-21.078-5.398-21.078-5.398l0.541,53.984c0,0,31.313,6.475,39.993,25.523c12.972,28.465-5.47,47.217-1.146,62.432
		c6.649,23.4,25.762,19.502,24.776,28c-1.102,9.5-40.785,0.955-42.946-28c-1.228-16.443,3.099-21.393,3.644-29.061
		c1.081-15.213-10.269-26.992-25.401-25.518l0.284,88.578c0,0-0.692,17.896,14.849,28.717c16.215,11.289,20.538,9.816,28.645,16.688
		c19.755,16.744,7.566,35.828,17.295,41.719c15.486,9.377,16.754,21.594,3.242,16.686c-24.34-8.842-23.98-16.334-27.021-33.373
		c-3.244-18.16-32.604-22.436-32.604-22.436h-4.405l3.381,70.988H640.695l7.253-400H781.932z"/>
	<path fill="#7DC6DD" d="M783.396,744.009"/>
	<ellipse fill="#B63C79" cx="804.133" cy="503.175" rx="8.626" ry="7.832"/>
	<ellipse fill="#B63C79" cx="803.032" cy="524.175" rx="6.791" ry="6.166"/>
	<ellipse fill="#B63C79" cx="822.486" cy="520.841" rx="6.423" ry="5.834"/>
	<ellipse fill="#B63C79" cx="813.126" cy="538.007" rx="4.771" ry="4.334"/>
	<ellipse fill="#B63C79" cx="827.074" cy="532.007" rx="5.139" ry="4.668"/>
	<ellipse fill="#B63C79" cx="824.138" cy="545.341" rx="4.405" ry="4"/>
	<ellipse fill="#B63C79" cx="811.475" cy="552.175" rx="3.854" ry="3.5"/>
	<ellipse fill="#B63C79" cx="823.587" cy="558.175" rx="4.221" ry="3.832"/>
	<ellipse fill="#B63C79" cx="816.062" cy="568.007" rx="4.038" ry="3.668"/>
	<ellipse fill="#B63C79" cx="830.378" cy="569.673" rx="3.671" ry="3.334"/>
	<ellipse fill="#B63C79" cx="826.157" cy="578.509" rx="3.12" ry="2.832"/>
	<ellipse fill="#B63C79" cx="841.391" cy="577.007" rx="3.304" ry="3"/>
	<ellipse fill="#B63C79" cx="783.394" cy="582.675" rx="9.911" ry="9"/>
	<ellipse fill="#B63C79" cx="795.874" cy="605.341" rx="8.81" ry="8"/>
	<ellipse fill="#B63C79" cx="806.703" cy="591.841" rx="7.525" ry="6.834"/>
	<ellipse fill="#B63C79" cx="818.449" cy="603.507" rx="6.791" ry="6.168"/>
	<ellipse fill="#B63C79" cx="821.936" cy="620.009" rx="6.791" ry="6.166"/>
	<ellipse fill="#B63C79" cx="805.968" cy="620.841" rx="7.158" ry="6.5"/>
	<ellipse fill="#B63C79" cx="818.082" cy="635.841" rx="5.322" ry="4.834"/>
	<ellipse fill="#B63C79" cx="805.051" cy="640.341" rx="4.405" ry="4"/>
	<ellipse fill="#B63C79" cx="813.31" cy="651.175" rx="4.222" ry="3.832"/>
	<ellipse fill="#B63C79" cx="803.766" cy="654.841" rx="4.221" ry="3.834"/>
	<ellipse fill="#B63C79" cx="815.145" cy="663.509" rx="4.589" ry="4.166"/>
	<ellipse fill="#B63C79" cx="812.392" cy="679.509" rx="3.854" ry="3.5"/>
	<ellipse fill="#B63C79" cx="820.101" cy="673.009" rx="3.671" ry="3.334"/>
	<ellipse fill="#B63C79" cx="803.583" cy="670.341" rx="4.771" ry="4.334"/>
	<ellipse fill="#B63C79" cx="824.322" cy="687.509" rx="4.221" ry="3.834"/>
	<ellipse fill="#B63C79" cx="790.92" cy="728.175" rx="6.791" ry="6.166"/>
	<ellipse fill="#B63C79" cx="802.665" cy="747.173" rx="4.588" ry="4.166"/>
	<ellipse fill="#B63C79" cx="802.298" cy="734.841" rx="4.222" ry="3.834"/>
	<ellipse fill="#B63C79" cx="815.329" cy="742.341" rx="4.771" ry="4.334"/>
	<ellipse fill="#B63C79" cx="830.745" cy="766.673" rx="3.304" ry="3"/>
	<ellipse fill="#B63C79" cx="825.423" cy="753.507" rx="4.588" ry="4.166"/>
	<ellipse fill="#B63C79" cx="813.677" cy="755.841" rx="5.322" ry="4.832"/>
	<ellipse fill="#B63C79" cx="789.267" cy="741.673" rx="6.239" ry="5.666"/>
	<ellipse fill="#B63C79" cx="823.587" cy="785.173" rx="3.854" ry="3.5"/>
	<ellipse fill="#B63C79" cx="835.334" cy="785.841" rx="3.854" ry="3.5"/>
	<ellipse fill="#B63C79" cx="822.486" cy="772.507" rx="3.854" ry="3.5"/>
	<ellipse fill="#B63C79" cx="820.284" cy="764.173" rx="3.854" ry="3.5"/>
	<ellipse fill="#B63C79" cx="832.581" cy="778.007" rx="3.304" ry="3"/>
	<ellipse fill="#B63C79" cx="838.637" cy="793.841" rx="3.487" ry="3.166"/>
	<path fill="#D65490" d="M755.281,610.021c0,99.408-43.169,179.988-96.417,179.988s-96.417-80.58-96.417-179.988
		c0-99.43,43.169-180.012,96.417-180.012S755.281,510.591,755.281,610.021z"/>
	<path fill="#D65490" d="M774.115,256.679c0,19.33-16.977,34.998-37.917,34.998c-20.939,0-37.916-15.668-37.916-34.998
		c0-19.336,16.977-35.004,37.916-35.004C757.139,221.675,774.115,237.343,774.115,256.679z"/>
	<path fill="#D65490" d="M618.115,259.679c0,19.33-16.977,34.998-37.917,34.998c-20.939,0-37.916-15.668-37.916-34.998
		c0-19.336,16.977-35.004,37.916-35.004C601.139,224.675,618.115,240.343,618.115,259.679z"/>
	<g>
		<g>
			<path fill="#7DC6DD" d="M574.392,120.668c0.65,0,2.082-0.986,0.781-0.986C574.522,119.682,573.091,120.668,574.392,120.668
				L574.392,120.668z"/>
		</g>
	</g>
	<g>
		<g>
			<path fill="none" stroke="#F2E4D2" stroke-miterlimit="10" d="M742.282,122.175"/>
		</g>
	</g>
	<g>
		<g>
			<path fill="none" stroke="#F2E4D2" stroke-miterlimit="10" d="M653.282,120.175"/>
		</g>
	</g>
	<path fill="#E06899" d="M780.758,822.675l2.023,127.449c-2.206,25.479,41-4,41,29c0,32.062-120,28-119,14
		c0.778-10.891-6-128-59-122c-32.804,3.715-43.046,125.094-45,129c-3,6-114,29-116-13c-1.813-38.074,45,1,43.169-35.008
		c0,0,2.881-125.732,3.77-129.441H780.758z"/>
	<path fill="#D6C370" d="M486.79,976.521c0,0-4.187,4.984-2.193,10.965c0,0-12.559-7.375-16.347,0.996
		C467.852,976.919,476.623,975.525,486.79,976.521z"/>
	<path fill="#D6C370" d="M487.591,988.48c0,0-1.199,5.385,4.98,8.975c0,0-12.755-4.189-16.543,4.182
		C475.63,990.074,477.424,987.482,487.591,988.48z"/>
	<path fill="#D6C370" d="M493.865,1000.183l7.841,2.83c0,0-8.395,3.072-11.97,13.586
		C486.829,1009.607,487.737,1003.804,493.865,1000.183z"/>
	<path fill="#D6C370" d="M819.538,966.521c0,0,4.069,4.984,2.131,10.965c0,0,13.207-8.375,16.89-0.004
		C838.945,965.919,829.42,965.525,819.538,966.521z"/>
	<path fill="#D6C370" d="M819.731,979.48c0,0,0.193,4.385-5.812,7.975c0,0,14.369-4.189,18.051,4.182
		C832.357,980.074,829.613,978.482,819.731,979.48z"/>
	<path fill="#D6C370" d="M812.661,990.183l-7.621,2.83c0,0,8.158,3.072,11.634,13.586
		C819.499,999.607,818.617,993.804,812.661,990.183z"/>
	<path fill="#D65490" d="M531.765,830.101c0,0,139.461,50.713-3.889,123.271L531.765,830.101z"/>
	<path fill="#D65490" d="M781.044,827.628c0,0-124.187,45.307,1.429,119.307L781.044,827.628z"/>
	<path fill="#7DC6DD" d="M1004.489,400.501c-14.841-6.579-23.789-26.916-27.844-53.051c-1.788-11.528,1.847-27.787-13.702,0.717
		c0-18,17.333-89.334,4.667-56.667c-4.14,10.678,21.333-72.667,1.333-39.333c6.911-29.377,31.298-68.685,44.998-80.001
		c15.334-12.667-5.881-12.347-0.666-12.667c32.666-2,6.103-10.462,10.666-12.667c10.205-4.931,18.469,3.03,21.334-0.667
		c5.342-6.894-3.038-7.777-0.667-8.667c10.667-4,12.333,1.333,17.333,3.333c0,0,78.829,6.85,115.667,1.333
		c13.587-2.034,27.333-13.333,23.333-3.333c-2.984,7.46,14.86-1.998,14,4.667c-2.667,20.667,14.95,5.36,16.667,6.667
		c3.355,2.554-12.492,2.034,4,21.333c10.685,12.504,26.993,31.484,35.056,57.408c-7.459-5.424,5.215,15.9,9.275,33.497
		c-12.368-7.215,1.546,9.275,9.791,26.797c-36.072-20.613,5.669,18.036,1.547,51.018c-30.92-43.287,2.061,46.38-37.369,60.06
		L1004.489,400.501z"/>
	<path fill="#52BFD1" d="M1247.154,255.503c0,19.33-16.977,34.998-37.917,34.998c-20.939,0-37.916-15.668-37.916-34.998
		c0-19.334,16.977-35.002,37.916-35.002C1230.178,220.501,1247.154,236.169,1247.154,255.503z"/>
	<path fill="#52BFD1" d="M1091.154,258.503c0,19.33-16.977,34.998-37.917,34.998c-20.939,0-37.916-15.668-37.916-34.998
		c0-19.334,16.977-35.002,37.916-35.002C1074.178,223.501,1091.154,239.169,1091.154,258.503z"/>
	<g>
		<g>
			<path fill="#7DC6DD" d="M1048.431,120.493c0.65,0,2.082-0.986,0.781-0.986C1048.562,119.506,1047.13,120.493,1048.431,120.493
				L1048.431,120.493z"/>
		</g>
	</g>
	<g>
		<g>
			<path fill="none" stroke="#F2E4D2" stroke-miterlimit="10" d="M1215.321,121"/>
		</g>
	</g>
	<g>
		<g>
			<path fill="none" stroke="#F2E4D2" stroke-miterlimit="10" d="M1127.321,120"/>
		</g>
	</g>
	<path fill="#7DC6DD" d="M1252.299,821.864l-9.409,174.67c25.552,21.466-2.013,37.357-2.013,37.357l-16.269,154.276
		c25.5,13.5,54.5,3.667,100-13.333c-23.25,14.25,1.334,19,1.334,19s-24.265,14.294,1.271,23.601
		c8.55,3.116-136.272,7.064-143.272-14.436c0,0,54.5-349.5-66.619-332.687c-76.971,10.685-54.881,333.187-54.881,333.187
		c-6.593,13.185-92.896,20.783-130.5,15.5c0,0,27.5-11-1.75-18.25c21.5-7.75,7.557-13.524-1.978-20.25
		c0,0,90.308,26.873,97.808,7.873l-6.792-150.537c-17.173-8.485-15.362-28.296,0.566-39.05
		c-2.68-88.741-16.966-175.128-16.536-176.922H1252.299z"/>
	<g>
		<path fill="#7DC6DD" d="M1004.276,415.5L975.107,497c0,0-3.499,1.334-7.665,8.667c7.166-3.5,4.666,4.001,2.666,6.167
			s-15.021,13.084-16.619,19.779c11.453-8.28,9.911,2.613,5.453,6.054c-3.5,3.5-6.653,2.938-11.05,12.432
			c11.392-4.297,10.973-0.146,7.529,1.911c-4.747,2.835-5.341,3.898-6.479,7.823c11.181-7.685-1.332,14.001-1.332,14.001
			c-17.671,79.09-20.56,135.287-3.667,153.335c-14.824,10.15-21.368,28.406,8.453,35.778c17.5,1.5,14.692-14.629,5.026-24.963
			c-3.834-9.333,13.916,6.672,15.916,1.005s-12.396-20.487-12.396-20.487s-22.334-26.666,12.57-138.943
			c0,0,10.264-28.129,20.282-57.742c0,0-4.478,21.196-8.74,53.028c-0.855,6.389-13.153,37.169-9.446,30.991
			c8-13.334,6.085-2.729,5.684,1.357c-0.17,1.729-5.655,13.741-4.713,12.246c4.14-6.568,5.166-1.213,3.52,0.894
			c-2.89,3.696-9.015,21.556-7.299,18.723c7.738-12.777,8.188-2.879,5.933,0.462c-3.163,4.687-10.582,21.101-7.913,18.254
			c6.748-7.198,9.547,3.516,6.845,7.378c-9.958,14.234-10.776,25.878-8.431,22.894c10.611-13.498,10.493-2.161,8.335,1.698
			c-3.749,6.705-10.029,25.714-7.229,22.834c8.913-9.168,10.601,0.996,8.535,6.278c-1.063,2.72-4.433,16.26-3.44,14.605
			c3.819-6.367,6.741-1.925,4.863,0.593c-6.392,8.571-6.924,28.682-5.458,25.55c6.197-13.243,8.491-4.124,9.554,1.262
			c0.858,4.351-13.12,14.612-6.498,23.865c7.215-17.402,17.675,0.855,13.827,4.472c-3.642,3.422-3.787,19.461-2.453,16.834
			c8.234-16.214,12.568,7.439,13.674,9.465h122.667l-6.001-400H1004.276z"/>
		<path fill="#7DC6DD" d="M1253.088,415.5L1282.257,497c0,0,3.499,1.334,7.665,8.667c-7.166-3.5-4.666,4.001-2.666,6.167
			s15.021,13.084,16.619,19.779c-11.453-8.28-9.911,2.613-5.453,6.054c3.5,3.5,6.653,2.938,11.05,12.432
			c-11.392-4.297-10.973-0.146-7.529,1.911c4.747,2.835,5.341,3.898,6.479,7.823c-11.181-7.685,1.332,14.001,1.332,14.001
			c17.671,79.09,20.56,135.287,3.667,153.335c14.824,10.15,21.368,28.406-8.453,35.778c-17.5,1.5-14.692-14.629-5.026-24.963
			c3.834-9.333-13.916,6.672-15.916,1.005s12.396-20.487,12.396-20.487s22.334-26.666-12.57-138.943
			c0,0-10.264-28.129-20.282-57.742c0,0,4.478,21.196,8.74,53.028c0.855,6.389,13.153,37.169,9.446,30.991
			c-8-13.334-6.085-2.729-5.684,1.357c0.17,1.729,5.655,13.741,4.713,12.246c-4.14-6.568-5.166-1.213-3.52,0.894
			c2.89,3.696,9.015,21.556,7.299,18.723c-7.738-12.777-8.188-2.879-5.933,0.462c3.163,4.687,10.582,21.101,7.913,18.254
			c-6.748-7.198-9.547,3.516-6.845,7.378c9.958,14.234,10.776,25.878,8.431,22.894c-10.611-13.498-10.493-2.161-8.335,1.698
			c3.749,6.705,10.029,25.714,7.229,22.834c-8.913-9.168-10.601,0.996-8.535,6.278c1.063,2.72,4.433,16.26,3.44,14.605
			c-3.819-6.367-6.741-1.925-4.863,0.593c6.392,8.571,6.924,28.682,5.458,25.55c-6.197-13.243-8.491-4.124-9.554,1.262
			c-0.858,4.351,13.12,14.612,6.498,23.865c-7.215-17.402-17.675,0.855-13.827,4.472c3.642,3.422,3.787,19.461,2.453,16.834
			c-8.234-16.214-12.568,7.439-13.674,9.465h-135.48l-2.667-400H1253.088z"/>
	</g>
	<path fill="#D6C370" d="M935.26,752.652c0,0,4.053,5.093,10.311,4.325c0,0-9.722,10.845-2.268,16.22
		C931.891,771.292,932.264,762.418,935.26,752.652z"/>
	<path fill="#D6C370" d="M946.904,758.78c0,0,6.111,4.142,8.594,0.13c0,0-2.655,9.055,6.141,11.716
		C950.227,772.532,947.245,768.991,946.904,758.78z"/>
	<path fill="#D6C370" d="M958.612,755.37l3.968-7.332c0,0,1.787,8.758,11.651,13.861C966.885,763.73,961.281,761.968,958.612,755.37
		z"/>
	<path fill="#D6C370" d="M1323.134,749.773c0,0-4.046,5.002-10.296,4.329c0,0,9.717,10.439,2.275,15.757
		C1326.51,767.872,1326.132,759.242,1323.134,749.773z"/>
	<path fill="#D6C370" d="M1312.13,758.802c0,0-4.106,1.216-9.894-0.268c0,0,6.983,7.496,2.014,15.173
		C1314.121,767.675,1314.384,765.442,1312.13,758.802z"/>
	<path fill="#D6C370" d="M1299.68,759.049l-5.555-5.936c0,0,0.318,8.712-8.037,15.979
		C1293.629,768.998,1298.64,765.942,1299.68,759.049z"/>
	<path fill="#7DC6DD" d="M938.941,1233.75"/>
</g>
<g id="face_layer" display="none">
	<g display="inline">
		<path fill="#FFFFFF" d="M-196.999,175.54c13.137,9.59,16.013,28.012,6.423,41.151c-9.589,13.137-28.013,16.012-41.149,6.422
			c-8.977-6.553-13.162-17.229-11.854-27.526l41.434-23.063C-200.366,173.337-198.642,174.341-196.999,175.54z"/>
		<path d="M-212.719,180.572c4.958,3.62,6.045,10.573,2.425,15.532s-10.575,6.045-15.533,2.426
			c-3.389-2.475-4.969-6.504-4.475-10.391l15.641-8.706C-213.989,179.741-213.339,180.12-212.719,180.572z"/>
	</g>
	<g display="inline">
		<path fill="#FFFFFF" d="M-273.802,228.902c-19.008,13.562-45.411,9.148-58.974-9.859c-13.562-19.008-9.148-45.412,9.858-58.974
			l66.791,36.417C-256.726,208.974-262.835,221.076-273.802,228.902z"/>
		<path d="M-291.943,178.837c-4.997,3.565-6.291,10.32-2.89,15.086c3.401,4.768,10.209,5.74,15.206,2.176
			c3.415-2.438,5.101-6.363,4.741-10.126l-15.109-8.262C-290.665,178.016-291.318,178.391-291.943,178.837z"/>
	</g>
	<path display="inline" d="M-298.06,256.501c14.174-8.723,4.333,21.334,44.333,15.334s25.667-13.334,41.667-17.334
		s22.797,50.809,16,74c-5.667,19.334-26.189-4.748-27-5.334c-12-8.666-50-8.666-68,6.334s-22,10-23,0
		S-311.06,264.501-298.06,256.501z"/>
	<path display="inline" fill="#FDFDFE" d="M-285.726,262.501c0,0,1.512,34.414,2.863,32.252
		c1.588-2.541,12.803-13.127,12.803-13.127c5.94,3.279,9.289,16.031,9.68,16.08c0.883,0.107,8.861-15.977,13.32-18.539
		c0.784-0.449,18.56,12.492,20.062,13.834c1.706,1.521,0.904-23.66,1.042-28.893C-236.906,266.951-271.946,282.56-285.726,262.501z"
		/>
	<path display="inline" fill="#FDFDFE" d="M-290.935,329.361c0,0,3.743-20.414,3.973-23.883c0.16-2.416,12.961,13.434,14.008,10.816
		c1.883-4.707,5.061-8.943,5.061-8.943c1.588,2.043,9.415,7.414,9.415,7.414c5.94-2.633,11.378-8.67,11.769-8.709
		c0.883-0.086,6.25,7.594,10.709,9.65c0.784,0.361,14.028-8.621,15.064-10.004c1.059-1.412-0.021,15.336,0.117,19.537
		C-238.59,311.707-274.269,317.111-290.935,329.361z"/>
	<path display="inline" d="M165.25,261.47l71.849,1.467c0,0-12.613,48.428-37.971,48.428
		C173.77,311.365,165.25,261.47,165.25,261.47z"/>
	<path display="inline" fill="#FDFDFE" d="M180.361,261.841c0,0,2.937,19.846,4.177,21.133l9.35-20.863l16.197,0.334
		c0.549-0.182,6.787,18.557,6.787,18.557c0.454,0.074,5.187-16.428,5.282-18.518C221.325,262.691,180.361,261.841,180.361,261.841z"
		/>
	<circle display="inline" fill="#FFFFFF" cx="162.093" cy="204.955" r="43.25"/>
	<circle display="inline" cx="145.093" cy="198.955" r="12.25"/>
	<circle display="inline" fill="#FFFFFF" cx="240.343" cy="209.205" r="28.5"/>
	<circle display="inline" cx="232.343" cy="204.705" r="11.25"/>
	<path display="inline" d="M695.328,269.334l-71.798-2.698c0,0,12.762-3.942,38.103-3.037
		C686.976,264.504,695.328,269.334,695.328,269.334z"/>
	<path display="inline" fill="#FDFDFE" d="M638.816,264.125c0,0,2.814,19.619,4.055,20.906l9.18-21.578
		C652.051,263.453,644.051,263.531,638.816,264.125z"/>
	<path display="inline" fill="#FFFFFF" d="M663.541,206.663c0.224,23.887-18.957,43.43-42.844,43.652
		c-23.887,0.224-43.43-18.959-43.652-42.847c-0.06-6.469,1.302-12.618,3.798-18.151l77.374-3.063
		C661.55,192.314,663.473,199.262,663.541,206.663z"/>
	<path display="inline" d="M632.071,213.558c0.374,6.758-4.796,12.538-11.551,12.914c-6.755,0.375-12.537-4.796-12.913-11.553
		c-0.375-6.753,4.796-12.534,11.551-12.91C625.914,201.634,631.694,206.805,632.071,213.558z"/>
	<path display="inline" fill="#FFFFFF" d="M723.916,219.62c-1.824,15.636-15.978,26.83-31.61,25.006
		c-15.635-1.825-26.829-15.979-25.004-31.613c0.506-4.335,1.958-8.326,4.126-11.794l51.118,5.763
		C723.911,210.914,724.432,215.208,723.916,219.62z"/>
	<circle display="inline" cx="694.976" cy="220.508" r="11.25"/>
	<path display="inline" fill="#FDFDFE" d="M678.441,265c0,0-3.533,19.245-4.818,20.489l-8.43-21.881
		C665.193,263.608,673.231,264.226,678.441,265z"/>
	<g display="inline">
		<path fill="#FFFFFF" d="M1192.882,174.541c13.137,9.59,16.013,28.012,6.423,41.15c-9.589,13.137-28.013,16.012-41.149,6.422
			c-8.977-6.553-13.162-17.229-11.854-27.525l41.434-23.063C1189.515,172.337,1191.239,173.341,1192.882,174.541z"/>
		<path d="M1177.162,179.572c4.958,3.621,6.045,10.574,2.425,15.533s-10.575,6.045-15.533,2.426
			c-3.389-2.475-4.969-6.504-4.475-10.391l15.641-8.707C1175.892,178.742,1176.542,179.12,1177.162,179.572z"/>
	</g>
	<g display="inline">
		<path fill="#FFFFFF" d="M1116.079,227.902c-19.008,13.562-45.411,9.148-58.974-9.859s-9.148-45.412,9.858-58.975l66.791,36.418
			C1133.155,207.974,1127.046,220.076,1116.079,227.902z"/>
		<path d="M1097.938,177.837c-4.997,3.564-6.291,10.32-2.89,15.086c3.401,4.768,10.209,5.74,15.206,2.176
			c3.415-2.438,5.101-6.363,4.741-10.127l-15.109-8.262C1099.216,177.016,1098.562,177.391,1097.938,177.837z"/>
	</g>
	<path display="inline" d="M1091.821,255.501c14.174-8.723,4.333,21.334,44.333,15.334s25.667-13.334,41.667-17.334
		s22.797,50.809,16,74c-5.667,19.334-26.189-4.748-27-5.334c-12-8.666-50-8.666-68,6.334s-22,10-23,0
		S1078.821,263.501,1091.821,255.501z"/>
	<path display="inline" fill="#FDFDFE" d="M1104.155,261.501c0,0,1.512,34.414,2.863,32.252
		c1.588-2.541,12.803-13.127,12.803-13.127c5.94,3.279,9.289,16.031,9.68,16.08c0.883,0.107,8.861-15.977,13.32-18.539
		c0.784-0.449,18.56,12.492,20.062,13.834c1.706,1.521,0.904-23.66,1.042-28.893C1152.975,265.951,1117.935,281.56,1104.155,261.501
		z"/>
	<path display="inline" fill="#FDFDFE" d="M1098.946,328.361c0,0,3.743-20.414,3.973-23.883c0.16-2.416,12.961,13.434,14.008,10.816
		c1.883-4.707,5.061-8.943,5.061-8.943c1.588,2.043,9.415,7.414,9.415,7.414c5.94-2.633,11.378-8.67,11.769-8.709
		c0.883-0.086,6.25,7.594,10.709,9.65c0.784,0.361,14.028-8.621,15.064-10.004c1.059-1.412-0.021,15.336,0.117,19.537
		C1151.291,310.707,1115.612,316.111,1098.946,328.361z"/>
</g>
<g id="Layer_4" display="none">
	<g display="inline">
		<g opacity="0.7">
			<g>
				<path fill="#74AFD1" d="M-335.651,128.664c1.935,0,1.935-3,0-3S-337.585,128.664-335.651,128.664L-335.651,128.664z"/>
			</g>
		</g>
		<g opacity="0.7">
			<g>
				<path fill="#74AFD1" d="M-346.8,123.281c1.935,0,1.935-3,0-3S-348.735,123.281-346.8,123.281L-346.8,123.281z"/>
			</g>
		</g>
		<g opacity="0.7">
			<g>
				<path fill="#74AFD1" d="M-343.436,117.899c1.935,0,1.935-3,0-3S-345.371,117.899-343.436,117.899L-343.436,117.899z"/>
			</g>
		</g>
		<g opacity="0.7">
			<g>
				<path fill="#74AFD1" d="M-345.262,132.604c1.935,0,1.935-3,0-3S-347.197,132.604-345.262,132.604L-345.262,132.604z"/>
			</g>
		</g>
		<g opacity="0.7">
			<g>
				<path fill="#74AFD1" d="M-365.735,99.926c1.935,0,1.935-3,0-3S-367.669,99.926-365.735,99.926L-365.735,99.926z"/>
			</g>
		</g>
		<g opacity="0.7">
			<g>
				<path fill="#74AFD1" d="M-358.43,104.635c1.935,0,1.935-3,0-3S-360.365,104.635-358.43,104.635L-358.43,104.635z"/>
			</g>
		</g>
		<g opacity="0.7">
			<g>
				<path fill="#74AFD1" d="M-355.643,110.69c1.935,0,1.935-3,0-3S-357.577,110.69-355.643,110.69L-355.643,110.69z"/>
			</g>
		</g>
		<g opacity="0.7">
			<g>
				<path fill="#74AFD1" d="M-357.565,116.649c1.935,0,1.935-3,0-3S-359.5,116.649-357.565,116.649L-357.565,116.649z"/>
			</g>
		</g>
		<g opacity="0.7">
			<g>
				<path fill="#74AFD1" d="M-348.242,113.093c1.935,0,1.935-3,0-3S-350.176,113.093-348.242,113.093L-348.242,113.093z"/>
			</g>
		</g>
		<g opacity="0.7">
			<g>
				<path fill="#74AFD1" d="M-362.179,108.191c1.935,0,1.935-3,0-3S-364.113,108.191-362.179,108.191L-362.179,108.191z"/>
			</g>
		</g>
		<g opacity="0.7">
			<g>
				<path fill="#74AFD1" d="M-365.158,103.866c1.935,0,1.935-3,0-3S-367.093,103.866-365.158,103.866L-365.158,103.866z"/>
			</g>
		</g>
		<g opacity="0.7">
			<g>
				<path fill="#74AFD1" d="M-332.96,124.723c1.935,0,1.935-3,0-3S-334.895,124.723-332.96,124.723L-332.96,124.723z"/>
			</g>
		</g>
		<g opacity="0.7">
			<g>
				<path fill="#74AFD1" d="M-340.072,120.975c1.935,0,1.935-3,0-3S-342.007,120.975-340.072,120.975L-340.072,120.975z"/>
			</g>
		</g>
		<g opacity="0.7">
			<g>
				<path fill="#74AFD1" d="M-341.706,125.973c1.935,0,1.935-3,0-3S-343.641,125.973-341.706,125.973L-341.706,125.973z"/>
			</g>
		</g>
		<g opacity="0.7">
			<g>
				<path fill="#74AFD1" d="M-351.702,118.091c1.935,0,1.935-3,0-3S-353.637,118.091-351.702,118.091L-351.702,118.091z"/>
			</g>
		</g>
		<g opacity="0.7">
			<g>
				<path fill="#74AFD1" d="M-352.375,123.089c1.935,0,1.935-3,0-3S-354.31,123.089-352.375,123.089L-352.375,123.089z"/>
			</g>
		</g>
		<g opacity="0.7">
			<g>
				<path fill="#74AFD1" d="M-362.947,102.809c1.935,0,1.935-3,0-3S-364.882,102.809-362.947,102.809L-362.947,102.809z"/>
			</g>
		</g>
		<g opacity="0.7">
			<g>
				<path fill="#74AFD1" d="M-368.042,98.1c1.935,0,1.935-3,0-3S-369.976,98.1-368.042,98.1L-368.042,98.1z"/>
			</g>
		</g>
		<g opacity="0.7">
			<g>
				<path fill="#74AFD1" d="M-366.6,102.232c1.935,0,1.935-3,0-3S-368.534,102.232-366.6,102.232L-366.6,102.232z"/>
			</g>
		</g>
		<g opacity="0.7">
			<g>
				<path fill="#74AFD1" d="M-360.544,102.713c1.935,0,1.935-3,0-3S-362.479,102.713-360.544,102.713L-360.544,102.713z"/>
			</g>
		</g>
		<g opacity="0.7">
			<g>
				<path fill="#74AFD1" d="M-362.563,105.692c1.935,0,1.935-3,0-3S-364.498,105.692-362.563,105.692L-362.563,105.692z"/>
			</g>
		</g>
		<g opacity="0.7">
			<g>
				<path fill="#74AFD1" d="M-360.16,106.365c1.935,0,1.935-3,0-3S-362.095,106.365-360.16,106.365L-360.16,106.365z"/>
			</g>
		</g>
		<g opacity="0.7">
			<g>
				<path fill="#74AFD1" d="M-356.315,106.077c1.935,0,1.935-3,0-3S-358.25,106.077-356.315,106.077L-356.315,106.077z"/>
			</g>
		</g>
		<g opacity="0.7">
			<g>
				<path fill="#74AFD1" d="M-360.929,110.306c1.935,0,1.935-3,0-3S-362.864,110.306-360.929,110.306L-360.929,110.306z"/>
			</g>
		</g>
		<g opacity="0.7">
			<g>
				<path fill="#74AFD1" d="M-358.045,106.75c1.935,0,1.935-3,0-3S-359.98,106.75-358.045,106.75L-358.045,106.75z"/>
			</g>
		</g>
		<g opacity="0.7">
			<g>
				<path fill="#74AFD1" d="M-353.913,108.191c1.935,0,1.935-3,0-3S-355.847,108.191-353.913,108.191L-353.913,108.191z"/>
			</g>
		</g>
		<g opacity="0.7">
			<g>
				<path fill="#74AFD1" d="M-358.238,109.345c1.935,0,1.935-3,0-3S-360.172,109.345-358.238,109.345L-358.238,109.345z"/>
			</g>
		</g>
		<g opacity="0.7">
			<g>
				<path fill="#74AFD1" d="M-358.045,112.613c1.935,0,1.935-3,0-3S-359.98,112.613-358.045,112.613L-358.045,112.613z"/>
			</g>
		</g>
		<g opacity="0.7">
			<g>
				<path fill="#74AFD1" d="M-355.354,113.766c1.935,0,1.935-3,0-3S-357.289,113.766-355.354,113.766L-355.354,113.766z"/>
			</g>
		</g>
		<g opacity="0.7">
			<g>
				<path fill="#74AFD1" d="M-352.279,112.036c1.935,0,1.935-3,0-3S-354.213,112.036-352.279,112.036L-352.279,112.036z"/>
			</g>
		</g>
		<g opacity="0.7">
			<g>
				<path fill="#74AFD1" d="M-350.26,114.919c1.935,0,1.935-3,0-3S-352.195,114.919-350.26,114.919L-350.26,114.919z"/>
			</g>
		</g>
		<g opacity="0.7">
			<g>
				<path fill="#74AFD1" d="M-355.066,119.245c1.935,0,1.935-3,0-3S-357,119.245-355.066,119.245L-355.066,119.245z"/>
			</g>
		</g>
		<g opacity="0.7">
			<g>
				<path fill="#74AFD1" d="M-354.585,115.88c1.935,0,1.935-3,0-3S-356.52,115.88-354.585,115.88L-354.585,115.88z"/>
			</g>
		</g>
		<g opacity="0.7">
			<g>
				<path fill="#74AFD1" d="M-346.031,114.823c1.935,0,1.935-3,0-3S-347.966,114.823-346.031,114.823L-346.031,114.823z"/>
			</g>
		</g>
		<g opacity="0.7">
			<g>
				<path fill="#74AFD1" d="M-348.242,119.245c1.935,0,1.935-3,0-3S-350.176,119.245-348.242,119.245L-348.242,119.245z"/>
			</g>
		</g>
		<g opacity="0.7">
			<g>
				<path fill="#74AFD1" d="M-350.356,124.916c1.935,0,1.935-3,0-3S-352.291,124.916-350.356,124.916L-350.356,124.916z"/>
			</g>
		</g>
		<g opacity="0.7">
			<g>
				<path fill="#74AFD1" d="M-348.53,129.433c1.935,0,1.935-3,0-3S-350.465,129.433-348.53,129.433L-348.53,129.433z"/>
			</g>
		</g>
		<g opacity="0.7">
			<g>
				<path fill="#74AFD1" d="M-345.262,127.318c1.935,0,1.935-3,0-3S-347.197,127.318-345.262,127.318L-345.262,127.318z"/>
			</g>
		</g>
		<g opacity="0.7">
			<g>
				<path fill="#74AFD1" d="M-343.244,138.467c1.935,0,1.935-3,0-3S-345.179,138.467-343.244,138.467L-343.244,138.467z"/>
			</g>
		</g>
		<g opacity="0.7">
			<g>
				<path fill="#74AFD1" d="M-338.919,131.066c1.935,0,1.935-3,0-3S-340.854,131.066-338.919,131.066L-338.919,131.066z"/>
			</g>
		</g>
		<g opacity="0.7">
			<g>
				<path fill="#74AFD1" d="M-336.516,136.064c1.935,0,1.935-3,0-3S-338.451,136.064-336.516,136.064L-336.516,136.064z"/>
			</g>
		</g>
		<g opacity="0.7">
			<g>
				<path fill="#74AFD1" d="M-330.557,130.875c1.935,0,1.935-3,0-3S-332.492,130.875-330.557,130.875L-330.557,130.875z"/>
			</g>
		</g>
		<g opacity="0.7">
			<g>
				<path fill="#74AFD1" d="M-328.539,128.472c1.935,0,1.935-3,0-3S-330.473,128.472-328.539,128.472L-328.539,128.472z"/>
			</g>
		</g>
		<g opacity="0.7">
			<g>
				<path fill="#74AFD1" d="M-336.997,124.146c1.935,0,1.935-3,0-3S-338.931,124.146-336.997,124.146L-336.997,124.146z"/>
			</g>
		</g>
		<g opacity="0.7">
			<g>
				<path fill="#74AFD1" d="M-324.79,131.066c1.935,0,1.935-3,0-3S-326.725,131.066-324.79,131.066L-324.79,131.066z"/>
			</g>
		</g>
		<g opacity="0.7">
			<g>
				<path fill="#74AFD1" d="M-318.831,130.202c1.935,0,1.935-3,0-3S-320.766,130.202-318.831,130.202L-318.831,130.202z"/>
			</g>
		</g>
		<g opacity="0.7">
			<g>
				<path fill="#74AFD1" d="M-330.461,135.584c1.935,0,1.935-3,0-3S-332.396,135.584-330.461,135.584L-330.461,135.584z"/>
			</g>
		</g>
		<g opacity="0.7">
			<g>
				<path fill="#74AFD1" d="M-324.117,137.603c1.935,0,1.935-3,0-3S-326.052,137.603-324.117,137.603L-324.117,137.603z"/>
			</g>
		</g>
		<g opacity="0.7">
			<g>
				<path fill="#74AFD1" d="M-339.976,140.582c1.935,0,1.935-3,0-3S-341.911,140.582-339.976,140.582L-339.976,140.582z"/>
			</g>
		</g>
		<g opacity="0.7">
			<g>
				<path fill="#74AFD1" d="M-341.033,147.502c1.935,0,1.935-3,0-3S-342.968,147.502-341.033,147.502L-341.033,147.502z"/>
			</g>
		</g>
		<g opacity="0.7">
			<g>
				<path fill="#74AFD1" d="M-333.248,141.639c1.935,0,1.935-3,0-3S-335.183,141.639-333.248,141.639L-333.248,141.639z"/>
			</g>
		</g>
		<g opacity="0.7">
			<g>
				<path fill="#74AFD1" d="M-336.516,146.252c1.935,0,1.935-3,0-3S-338.451,146.252-336.516,146.252L-336.516,146.252z"/>
			</g>
		</g>
		<g opacity="0.7">
			<g>
				<path fill="#74AFD1" d="M-325.847,144.042c1.935,0,1.935-3,0-3S-327.782,144.042-325.847,144.042L-325.847,144.042z"/>
			</g>
		</g>
	</g>
	<g display="inline">
		<g opacity="0.7">
			<g>
				<path fill="#74AFD1" d="M-254.507,108.344c1.935,0,1.935-3,0-3S-256.441,108.344-254.507,108.344L-254.507,108.344z"/>
			</g>
		</g>
		<g opacity="0.7">
			<g>
				<path fill="#74AFD1" d="M-259.341,96.945c1.935,0,1.935-3,0-3C-261.276,93.945-261.276,96.945-259.341,96.945L-259.341,96.945z"
					/>
			</g>
		</g>
		<g opacity="0.7">
			<g>
				<path fill="#74AFD1" d="M-253.263,95.118c1.935,0,1.935-3,0-3S-255.197,95.118-253.263,95.118L-253.263,95.118z"/>
			</g>
		</g>
		<g opacity="0.7">
			<g>
				<path fill="#74AFD1" d="M-264.332,104.971c1.935,0,1.935-3,0-3S-266.266,104.971-264.332,104.971L-264.332,104.971z"/>
			</g>
		</g>
		<g opacity="0.7">
			<g>
				<path fill="#74AFD1" d="M-258.179,66.902c1.935,0,1.935-3,0-3S-260.113,66.902-258.179,66.902L-258.179,66.902z"/>
			</g>
		</g>
		<g opacity="0.7">
			<g>
				<path fill="#74AFD1" d="M-255.792,75.259c1.935,0,1.935-3,0-3S-257.727,75.259-255.792,75.259L-255.792,75.259z"/>
			</g>
		</g>
		<g opacity="0.7">
			<g>
				<path fill="#74AFD1" d="M-257.688,81.65c1.935,0,1.935-3,0-3S-259.623,81.65-257.688,81.65L-257.688,81.65z"/>
			</g>
		</g>
		<g opacity="0.7">
			<g>
				<path fill="#74AFD1" d="M-263.062,84.864c1.935,0,1.935-3,0-3S-264.997,84.864-263.062,84.864L-263.062,84.864z"/>
			</g>
		</g>
		<g opacity="0.7">
			<g>
				<path fill="#74AFD1" d="M-253.709,88.335c1.935,0,1.935-3,0-3S-255.644,88.335-253.709,88.335L-253.709,88.335z"/>
			</g>
		</g>
		<g opacity="0.7">
			<g>
				<path fill="#74AFD1" d="M-260.955,75.461c1.935,0,1.935-3,0-3C-262.889,72.461-262.889,75.461-260.955,75.461L-260.955,75.461z"
					/>
			</g>
		</g>
		<g opacity="0.7">
			<g>
				<path fill="#74AFD1" d="M-260.344,70.246c1.935,0,1.935-3,0-3S-262.278,70.246-260.344,70.246L-260.344,70.246z"/>
			</g>
		</g>
		<g opacity="0.7">
			<g>
				<path fill="#74AFD1" d="M-249.886,107.155c1.935,0,1.935-3,0-3S-251.82,107.155-249.886,107.155L-249.886,107.155z"/>
			</g>
		</g>
		<g opacity="0.7">
			<g>
				<path fill="#74AFD1" d="M-252.761,99.647c1.935,0,1.935-3,0-3S-254.695,99.647-252.761,99.647L-252.761,99.647z"/>
			</g>
		</g>
		<g opacity="0.7">
			<g>
				<path fill="#74AFD1" d="M-257.285,102.328c1.935,0,1.935-3,0-3S-259.22,102.328-257.285,102.328L-257.285,102.328z"/>
			</g>
		</g>
		<g opacity="0.7">
			<g>
				<path fill="#74AFD1" d="M-259.605,89.812c1.935,0,1.935-3,0-3S-261.54,89.812-259.605,89.812L-259.605,89.812z"/>
			</g>
		</g>
		<g opacity="0.7">
			<g>
				<path fill="#74AFD1" d="M-263.406,93.126c1.935,0,1.935-3,0-3S-265.341,93.126-263.406,93.126L-263.406,93.126z"/>
			</g>
		</g>
		<g opacity="0.7">
			<g>
				<path fill="#74AFD1" d="M-257.984,70.908c1.935,0,1.935-3,0-3S-259.919,70.908-257.984,70.908L-257.984,70.908z"/>
			</g>
		</g>
		<g opacity="0.7">
			<g>
				<path fill="#74AFD1" d="M-258.709,64.008c1.935,0,1.935-3,0-3S-260.644,64.008-258.709,64.008L-258.709,64.008z"/>
			</g>
		</g>
		<g opacity="0.7">
			<g>
				<path fill="#74AFD1" d="M-260.35,68.066c1.935,0,1.935-3,0-3C-262.285,65.066-262.285,68.066-260.35,68.066L-260.35,68.066z"/>
			</g>
		</g>
		<g opacity="0.7">
			<g>
				<path fill="#74AFD1" d="M-256.114,72.419c1.935,0,1.935-3,0-3S-258.049,72.419-256.114,72.419L-256.114,72.419z"/>
			</g>
		</g>
		<g opacity="0.7">
			<g>
				<path fill="#74AFD1" d="M-259.596,73.33c1.935,0,1.935-3,0-3C-261.531,70.33-261.531,73.33-259.596,73.33L-259.596,73.33z"/>
			</g>
		</g>
		<g opacity="0.7">
			<g>
				<path fill="#74AFD1" d="M-258.233,75.419c1.935,0,1.935-3,0-3S-260.168,75.419-258.233,75.419L-258.233,75.419z"/>
			</g>
		</g>
		<g opacity="0.7">
			<g>
				<path fill="#74AFD1" d="M-255.153,77.738c1.935,0,1.935-3,0-3S-257.088,77.738-255.153,77.738L-255.153,77.738z"/>
			</g>
		</g>
		<g opacity="0.7">
			<g>
				<path fill="#74AFD1" d="M-261.41,77.875c1.935,0,1.935-3,0-3S-263.345,77.875-261.41,77.875L-261.41,77.875z"/>
			</g>
		</g>
		<g opacity="0.7">
			<g>
				<path fill="#74AFD1" d="M-256.896,77.103c1.935,0,1.935-3,0-3S-258.831,77.103-256.896,77.103L-256.896,77.103z"/>
			</g>
		</g>
		<g opacity="0.7">
			<g>
				<path fill="#74AFD1" d="M-254.739,80.912c1.935,0,1.935-3,0-3S-256.674,80.912-254.739,80.912L-254.739,80.912z"/>
			</g>
		</g>
		<g opacity="0.7">
			<g>
				<path fill="#74AFD1" d="M-258.754,78.927c1.935,0,1.935-3,0-3S-260.688,78.927-258.754,78.927L-258.754,78.927z"/>
			</g>
		</g>
		<g opacity="0.7">
			<g>
				<path fill="#74AFD1" d="M-260.762,81.511c1.935,0,1.935-3,0-3C-262.697,78.511-262.697,81.511-260.762,81.511L-260.762,81.511z"
					/>
			</g>
		</g>
		<g opacity="0.7">
			<g>
				<path fill="#74AFD1" d="M-259.5,84.152c1.935,0,1.935-3,0-3C-261.434,81.152-261.434,84.152-259.5,84.152L-259.5,84.152z"/>
			</g>
		</g>
		<g opacity="0.7">
			<g>
				<path fill="#74AFD1" d="M-256.047,84.879c1.935,0,1.935-3,0-3S-257.981,84.879-256.047,84.879L-256.047,84.879z"/>
			</g>
		</g>
		<g opacity="0.7">
			<g>
				<path fill="#74AFD1" d="M-256.43,88.378c1.935,0,1.935-3,0-3S-258.364,88.378-256.43,88.378L-256.43,88.378z"/>
			</g>
		</g>
		<g opacity="0.7">
			<g>
				<path fill="#74AFD1" d="M-262.895,88.461c1.935,0,1.935-3,0-3S-264.83,88.461-262.895,88.461L-262.895,88.461z"/>
			</g>
		</g>
		<g opacity="0.7">
			<g>
				<path fill="#74AFD1" d="M-260.315,86.249c1.935,0,1.935-3,0-3S-262.25,86.249-260.315,86.249L-260.315,86.249z"/>
			</g>
		</g>
		<g opacity="0.7">
			<g>
				<path fill="#74AFD1" d="M-253.187,91.094c1.935,0,1.935-3,0-3S-255.121,91.094-253.187,91.094L-253.187,91.094z"/>
			</g>
		</g>
		<g opacity="0.7">
			<g>
				<path fill="#74AFD1" d="M-257.765,92.961c1.935,0,1.935-3,0-3S-259.699,92.961-257.765,92.961L-257.765,92.961z"/>
			</g>
		</g>
		<g opacity="0.7">
			<g>
				<path fill="#74AFD1" d="M-263.092,95.831c1.935,0,1.935-3,0-3S-265.027,95.831-263.092,95.831L-263.092,95.831z"/>
			</g>
		</g>
		<g opacity="0.7">
			<g>
				<path fill="#74AFD1" d="M-264.698,100.431c1.935,0,1.935-3,0-3S-266.633,100.431-264.698,100.431L-264.698,100.431z"/>
			</g>
		</g>
		<g opacity="0.7">
			<g>
				<path fill="#74AFD1" d="M-260.846,100.996c1.935,0,1.935-3,0-3S-262.78,100.996-260.846,100.996L-260.846,100.996z"/>
			</g>
		</g>
		<g opacity="0.7">
			<g>
				<path fill="#74AFD1" d="M-266.68,110.709c1.935,0,1.935-3,0-3S-268.614,110.709-266.68,110.709L-266.68,110.709z"/>
			</g>
		</g>
		<g opacity="0.7">
			<g>
				<path fill="#74AFD1" d="M-258.547,107.996c1.935,0,1.935-3,0-3S-260.481,107.996-258.547,107.996L-258.547,107.996z"/>
			</g>
		</g>
		<g opacity="0.7">
			<g>
				<path fill="#74AFD1" d="M-260.036,113.338c1.935,0,1.935-3,0-3S-261.971,113.338-260.036,113.338L-260.036,113.338z"/>
			</g>
		</g>
		<g opacity="0.7">
			<g>
				<path fill="#74AFD1" d="M-252.134,113.365c1.935,0,1.935-3,0-3S-254.068,113.365-252.134,113.365L-252.134,113.365z"/>
			</g>
		</g>
		<g opacity="0.7">
			<g>
				<path fill="#74AFD1" d="M-249.033,112.889c1.935,0,1.935-3,0-3S-250.968,112.889-249.033,112.889L-249.033,112.889z"/>
			</g>
		</g>
		<g opacity="0.7">
			<g>
				<path fill="#74AFD1" d="M-252.54,104.06c1.935,0,1.935-3,0-3S-254.475,104.06-252.54,104.06L-252.54,104.06z"/>
			</g>
		</g>
		<g opacity="0.7">
			<g>
				<path fill="#74AFD1" d="M-247.925,117.311c1.935,0,1.935-3,0-3S-249.859,117.311-247.925,117.311L-247.925,117.311z"/>
			</g>
		</g>
		<g opacity="0.7">
			<g>
				<path fill="#74AFD1" d="M-242.874,120.59c1.935,0,1.935-3,0-3S-244.809,120.59-242.874,120.59L-242.874,120.59z"/>
			</g>
		</g>
		<g opacity="0.7">
			<g>
				<path fill="#74AFD1" d="M-255.167,116.969c1.935,0,1.935-3,0-3S-257.102,116.969-255.167,116.969L-255.167,116.969z"/>
			</g>
		</g>
		<g opacity="0.7">
			<g>
				<path fill="#74AFD1" d="M-251.729,122.669c1.935,0,1.935-3,0-3S-253.663,122.669-251.729,122.669L-251.729,122.669z"/>
			</g>
		</g>
		<g opacity="0.7">
			<g>
				<path fill="#74AFD1" d="M-265.617,114.453c1.935,0,1.935-3,0-3S-267.551,114.453-265.617,114.453L-265.617,114.453z"/>
			</g>
		</g>
		<g opacity="0.7">
			<g>
				<path fill="#74AFD1" d="M-270.974,118.959c1.935,0,1.935-3,0-3S-272.908,118.959-270.974,118.959L-270.974,118.959z"/>
			</g>
		</g>
		<g opacity="0.7">
			<g>
				<path fill="#74AFD1" d="M-261.255,119.685c1.935,0,1.935-3,0-3S-263.19,119.685-261.255,119.685L-261.255,119.685z"/>
			</g>
		</g>
		<g opacity="0.7">
			<g>
				<path fill="#74AFD1" d="M-266.753,120.999c1.935,0,1.935-3,0-3S-268.688,120.999-266.753,120.999L-266.753,120.999z"/>
			</g>
		</g>
		<g opacity="0.7">
			<g>
				<path fill="#74AFD1" d="M-257.274,126.37c1.935,0,1.935-3,0-3S-259.209,126.37-257.274,126.37L-257.274,126.37z"/>
			</g>
		</g>
	</g>
	<g display="inline">
		<g opacity="0.7">
			<g>
				<path fill="#74AFD1" d="M-176.284,140.378c1.935,0,1.935-3,0-3S-178.219,140.378-176.284,140.378L-176.284,140.378z"/>
			</g>
		</g>
		<g opacity="0.7">
			<g>
				<path fill="#74AFD1" d="M-171.694,128.879c1.935,0,1.935-3,0-3S-173.629,128.879-171.694,128.879L-171.694,128.879z"/>
			</g>
		</g>
		<g opacity="0.7">
			<g>
				<path fill="#74AFD1" d="M-166.09,131.859c1.935,0,1.935-3,0-3S-168.024,131.859-166.09,131.859L-166.09,131.859z"/>
			</g>
		</g>
		<g opacity="0.7">
			<g>
				<path fill="#74AFD1" d="M-180.888,131.065c1.935,0,1.935-3,0-3S-182.822,131.065-180.888,131.065L-180.888,131.065z"/>
			</g>
		</g>
		<g opacity="0.7">
			<g>
				<path fill="#74AFD1" d="M-149.719,108.359c1.935,0,1.935-3,0-3S-151.653,108.359-149.719,108.359L-149.719,108.359z"/>
			</g>
		</g>
		<g opacity="0.7">
			<g>
				<path fill="#74AFD1" d="M-153.906,115.975c1.935,0,1.935-3,0-3S-155.841,115.975-153.906,115.975L-153.906,115.975z"/>
			</g>
		</g>
		<g opacity="0.7">
			<g>
				<path fill="#74AFD1" d="M-159.752,119.179c1.935,0,1.935-3,0-3S-161.687,119.179-159.752,119.179L-159.752,119.179z"/>
			</g>
		</g>
		<g opacity="0.7">
			<g>
				<path fill="#74AFD1" d="M-165.831,117.678c1.935,0,1.935-3,0-3S-167.766,117.678-165.831,117.678L-165.831,117.678z"/>
			</g>
		</g>
		<g opacity="0.7">
			<g>
				<path fill="#74AFD1" d="M-161.632,126.729c1.935,0,1.935-3,0-3S-163.566,126.729-161.632,126.729L-161.632,126.729z"/>
			</g>
		</g>
		<g opacity="0.7">
			<g>
				<path fill="#74AFD1" d="M-157.716,112.484c1.935,0,1.935-3,0-3S-159.65,112.484-157.716,112.484L-157.716,112.484z"/>
			</g>
		</g>
		<g opacity="0.7">
			<g>
				<path fill="#74AFD1" d="M-153.609,109.209c1.935,0,1.935-3,0-3S-155.544,109.209-153.609,109.209L-153.609,109.209z"/>
			</g>
		</g>
		<g opacity="0.7">
			<g>
				<path fill="#74AFD1" d="M-172.166,142.787c1.935,0,1.935-3,0-3S-174.101,142.787-172.166,142.787L-172.166,142.787z"/>
			</g>
		</g>
		<g opacity="0.7">
			<g>
				<path fill="#74AFD1" d="M-168.923,135.43c1.935,0,1.935-3,0-3S-170.857,135.43-168.923,135.43L-168.923,135.43z"/>
			</g>
		</g>
		<g opacity="0.7">
			<g>
				<path fill="#74AFD1" d="M-174.023,134.149c1.935,0,1.935-3,0-3S-175.958,134.149-174.023,134.149L-174.023,134.149z"/>
			</g>
		</g>
		<g opacity="0.7">
			<g>
				<path fill="#74AFD1" d="M-166.859,123.626c1.935,0,1.935-3,0-3S-168.794,123.626-166.859,123.626L-166.859,123.626z"/>
			</g>
		</g>
		<g opacity="0.7">
			<g>
				<path fill="#74AFD1" d="M-171.893,123.305c1.935,0,1.935-3,0-3S-173.827,123.305-171.893,123.305L-171.893,123.305z"/>
			</g>
		</g>
		<g opacity="0.7">
			<g>
				<path fill="#74AFD1" d="M-152.4,111.341c1.935,0,1.935-3,0-3S-154.335,111.341-152.4,111.341L-152.4,111.341z"/>
			</g>
		</g>
		<g opacity="0.7">
			<g>
				<path fill="#74AFD1" d="M-148.059,105.931c1.935,0,1.935-3,0-3S-149.993,105.931-148.059,105.931L-148.059,105.931z"/>
			</g>
		</g>
		<g opacity="0.7">
			<g>
				<path fill="#74AFD1" d="M-152.081,107.657c1.935,0,1.935-3,0-3S-154.016,107.657-152.081,107.657L-152.081,107.657z"/>
			</g>
		</g>
		<g opacity="0.7">
			<g>
				<path fill="#74AFD1" d="M-152.137,113.731c1.935,0,1.935-3,0-3S-154.071,113.731-152.137,113.731L-152.137,113.731z"/>
			</g>
		</g>
		<g opacity="0.7">
			<g>
				<path fill="#74AFD1" d="M-155.25,111.926c1.935,0,1.935-3,0-3S-157.185,111.926-155.25,111.926L-155.25,111.926z"/>
			</g>
		</g>
		<g opacity="0.7">
			<g>
				<path fill="#74AFD1" d="M-155.753,114.37c1.935,0,1.935-3,0-3S-157.688,114.37-155.753,114.37L-155.753,114.37z"/>
			</g>
		</g>
		<g opacity="0.7">
			<g>
				<path fill="#74AFD1" d="M-155.197,118.185c1.935,0,1.935-3,0-3S-157.132,118.185-155.197,118.185L-155.197,118.185z"/>
			</g>
		</g>
		<g opacity="0.7">
			<g>
				<path fill="#74AFD1" d="M-159.738,113.877c1.935,0,1.935-3,0-3S-161.673,113.877-159.738,113.877L-159.738,113.877z"/>
			</g>
		</g>
		<g opacity="0.7">
			<g>
				<path fill="#74AFD1" d="M-155.989,116.507c1.935,0,1.935-3,0-3S-157.924,116.507-155.989,116.507L-155.989,116.507z"/>
			</g>
		</g>
		<g opacity="0.7">
			<g>
				<path fill="#74AFD1" d="M-157.139,120.73c1.935,0,1.935-3,0-3S-159.073,120.73-157.139,120.73L-157.139,120.73z"/>
			</g>
		</g>
		<g opacity="0.7">
			<g>
				<path fill="#74AFD1" d="M-158.591,116.495c1.935,0,1.935-3,0-3S-160.525,116.495-158.591,116.495L-158.591,116.495z"/>
			</g>
		</g>
		<g opacity="0.7">
			<g>
				<path fill="#74AFD1" d="M-161.838,116.917c1.935,0,1.935-3,0-3S-163.772,116.917-161.838,116.917L-161.838,116.917z"/>
			</g>
		</g>
		<g opacity="0.7">
			<g>
				<path fill="#74AFD1" d="M-162.8,119.681c1.935,0,1.935-3,0-3S-164.734,119.681-162.8,119.681L-162.8,119.681z"/>
			</g>
		</g>
		<g opacity="0.7">
			<g>
				<path fill="#74AFD1" d="M-160.859,122.628c1.935,0,1.935-3,0-3S-162.794,122.628-160.859,122.628L-160.859,122.628z"/>
			</g>
		</g>
		<g opacity="0.7">
			<g>
				<path fill="#74AFD1" d="M-163.595,124.844c1.935,0,1.935-3,0-3S-165.529,124.844-163.595,124.844L-163.595,124.844z"/>
			</g>
		</g>
		<g opacity="0.7">
			<g>
				<path fill="#74AFD1" d="M-168.245,120.351c1.935,0,1.935-3,0-3S-170.18,120.351-168.245,120.351L-168.245,120.351z"/>
			</g>
		</g>
		<g opacity="0.7">
			<g>
				<path fill="#74AFD1" d="M-164.855,120.595c1.935,0,1.935-3,0-3S-166.79,120.595-164.855,120.595L-164.855,120.595z"/>
			</g>
		</g>
		<g opacity="0.7">
			<g>
				<path fill="#74AFD1" d="M-163.203,129.055c1.935,0,1.935-3,0-3S-165.138,129.055-163.203,129.055L-163.203,129.055z"/>
			</g>
		</g>
		<g opacity="0.7">
			<g>
				<path fill="#74AFD1" d="M-167.769,127.159c1.935,0,1.935-3,0-3S-169.703,127.159-167.769,127.159L-167.769,127.159z"/>
			</g>
		</g>
		<g opacity="0.7">
			<g>
				<path fill="#74AFD1" d="M-173.573,125.446c1.935,0,1.935-3,0-3S-175.508,125.446-173.573,125.446L-173.573,125.446z"/>
			</g>
		</g>
		<g opacity="0.7">
			<g>
				<path fill="#74AFD1" d="M-177.951,127.583c1.935,0,1.935-3,0-3S-179.886,127.583-177.951,127.583L-177.951,127.583z"/>
			</g>
		</g>
		<g opacity="0.7">
			<g>
				<path fill="#74AFD1" d="M-175.614,130.696c1.935,0,1.935-3,0-3S-177.549,130.696-175.614,130.696L-175.614,130.696z"/>
			</g>
		</g>
		<g opacity="0.7">
			<g>
				<path fill="#74AFD1" d="M-186.595,133.488c1.935,0,1.935-3,0-3S-188.529,133.488-186.595,133.488L-186.595,133.488z"/>
			</g>
		</g>
		<g opacity="0.7">
			<g>
				<path fill="#74AFD1" d="M-178.91,137.285c1.935,0,1.935-3,0-3S-180.845,137.285-178.91,137.285L-178.91,137.285z"/>
			</g>
		</g>
		<g opacity="0.7">
			<g>
				<path fill="#74AFD1" d="M-183.728,140.032c1.935,0,1.935-3,0-3S-185.662,140.032-183.728,140.032L-183.728,140.032z"/>
			</g>
		</g>
		<g opacity="0.7">
			<g>
				<path fill="#74AFD1" d="M-178.134,145.614c1.935,0,1.935-3,0-3S-180.068,145.614-178.134,145.614L-178.134,145.614z"/>
			</g>
		</g>
		<g opacity="0.7">
			<g>
				<path fill="#74AFD1" d="M-175.596,147.458c1.935,0,1.935-3,0-3S-177.53,147.458-175.596,147.458L-175.596,147.458z"/>
			</g>
		</g>
		<g opacity="0.7">
			<g>
				<path fill="#74AFD1" d="M-171.872,138.72c1.935,0,1.935-3,0-3S-173.807,138.72-171.872,138.72L-171.872,138.72z"/>
			</g>
		</g>
		<g opacity="0.7">
			<g>
				<path fill="#74AFD1" d="M-177.923,151.38c1.935,0,1.935-3,0-3S-179.857,151.38-177.923,151.38L-177.923,151.38z"/>
			</g>
		</g>
		<g opacity="0.7">
			<g>
				<path fill="#74AFD1" d="M-176.644,157.264c1.935,0,1.935-3,0-3S-178.578,157.264-176.644,157.264L-176.644,157.264z"/>
			</g>
		</g>
		<g opacity="0.7">
			<g>
				<path fill="#74AFD1" d="M-182.825,146.039c1.935,0,1.935-3,0-3S-184.76,146.039-182.825,146.039L-182.825,146.039z"/>
			</g>
		</g>
		<g opacity="0.7">
			<g>
				<path fill="#74AFD1" d="M-184.396,152.508c1.935,0,1.935-3,0-3S-186.33,152.508-184.396,152.508L-184.396,152.508z"/>
			</g>
		</g>
		<g opacity="0.7">
			<g>
				<path fill="#74AFD1" d="M-188.476,136.896c1.935,0,1.935-3,0-3S-190.41,136.896-188.476,136.896L-188.476,136.896z"/>
			</g>
		</g>
		<g opacity="0.7">
			<g>
				<path fill="#74AFD1" d="M-195.453,136.325c1.935,0,1.935-3,0-3S-197.388,136.325-195.453,136.325L-195.453,136.325z"/>
			</g>
		</g>
		<g opacity="0.7">
			<g>
				<path fill="#74AFD1" d="M-189.061,143.681c1.935,0,1.935-3,0-3S-190.995,143.681-189.061,143.681L-189.061,143.681z"/>
			</g>
		</g>
		<g opacity="0.7">
			<g>
				<path fill="#74AFD1" d="M-193.891,140.744c1.935,0,1.935-3,0-3S-195.825,140.744-193.891,140.744L-193.891,140.744z"/>
			</g>
		</g>
		<g opacity="0.7">
			<g>
				<path fill="#74AFD1" d="M-190.94,151.231c1.935,0,1.935-3,0-3S-192.875,151.231-190.94,151.231L-190.94,151.231z"/>
			</g>
		</g>
	</g>
	<g display="inline">
		<g>
			<path fill="#74AFD1" d="M-252.275,83.867c1.935,0,1.935-3,0-3S-254.21,83.867-252.275,83.867L-252.275,83.867z"/>
		</g>
	</g>
	<g display="inline">
		<g>
			<path fill="#74AFD1" d="M-255.969,68.442c1.935,0,1.935-3,0-3S-257.903,68.442-255.969,68.442L-255.969,68.442z"/>
		</g>
	</g>
	<g display="inline">
		<g>
			<path fill="#74AFD1" d="M-263.79,81.043c1.935,0,1.935-3,0-3S-265.725,81.043-263.79,81.043L-263.79,81.043z"/>
		</g>
	</g>
	<g display="inline">
		<g>
			<path fill="#74AFD1" d="M-264.659,87.343c1.935,0,1.935-3,0-3S-266.593,87.343-264.659,87.343L-264.659,87.343z"/>
		</g>
	</g>
	<g display="inline">
		<g>
			<path fill="#74AFD1" d="M-266.397,95.599c1.935,0,1.935-3,0-3S-268.332,95.599-266.397,95.599L-266.397,95.599z"/>
		</g>
	</g>
	<g display="inline">
		<g>
			<path fill="#74AFD1" d="M-268.135,103.42c1.935,0,1.935-3,0-3S-270.069,103.42-268.135,103.42L-268.135,103.42z"/>
		</g>
	</g>
	<g display="inline">
		<g>
			<path fill="#74AFD1" d="M-269.221,110.154c1.935,0,1.935-3,0-3S-271.156,110.154-269.221,110.154L-269.221,110.154z"/>
		</g>
	</g>
	<g display="inline">
		<g>
			<path fill="#74AFD1" d="M-256.187,97.771c1.935,0,1.935-3,0-3S-258.121,97.771-256.187,97.771L-256.187,97.771z"/>
		</g>
	</g>
	<g display="inline">
		<g>
			<path fill="#74AFD1" d="M-250.755,88.43c1.935,0,1.935-3,0-3S-252.689,88.43-250.755,88.43L-250.755,88.43z"/>
		</g>
	</g>
	<g display="inline">
		<g>
			<path fill="#74AFD1" d="M-249.886,93.209c1.935,0,1.935-3,0-3S-251.82,93.209-249.886,93.209L-249.886,93.209z"/>
		</g>
	</g>
	<g display="inline">
		<g>
			<path fill="#74AFD1" d="M-248.365,98.857c1.935,0,1.935-3,0-3S-250.3,98.857-248.365,98.857L-248.365,98.857z"/>
		</g>
	</g>
	<g display="inline">
		<g>
			<path fill="#74AFD1" d="M-247.496,104.071c1.935,0,1.935-3,0-3S-249.431,104.071-247.496,104.071L-247.496,104.071z"/>
		</g>
	</g>
	<g display="inline">
		<g>
			<path fill="#74AFD1" d="M-245.323,110.806c1.935,0,1.935-3,0-3S-247.258,110.806-245.323,110.806L-245.323,110.806z"/>
		</g>
	</g>
	<g display="inline">
		<g>
			<path fill="#74AFD1" d="M-241.631,114.934c1.935,0,1.935-3,0-3S-243.565,114.934-241.631,114.934L-241.631,114.934z"/>
		</g>
	</g>
	<g display="inline">
		<g>
			<path fill="#74AFD1" d="M-235.765,117.758c1.935,0,1.935-3,0-3S-237.699,117.758-235.765,117.758L-235.765,117.758z"/>
		</g>
	</g>
	<g display="inline">
		<g>
			<path fill="#74AFD1" d="M-229.682,119.496c1.935,0,1.935-3,0-3S-231.616,119.496-229.682,119.496L-229.682,119.496z"/>
		</g>
	</g>
	<g display="inline">
		<g>
			<path fill="#74AFD1" d="M-235.765,123.189c1.935,0,1.935-3,0-3S-237.699,123.189-235.765,123.189L-235.765,123.189z"/>
		</g>
	</g>
	<g display="inline">
		<g>
			<path fill="#74AFD1" d="M-218.385,122.972c1.935,0,1.935-3,0-3S-220.319,122.972-218.385,122.972L-218.385,122.972z"/>
		</g>
	</g>
	<g display="inline">
		<g>
			<path fill="#74AFD1" d="M-210.998,126.448c1.935,0,1.935-3,0-3S-212.933,126.448-210.998,126.448L-210.998,126.448z"/>
		</g>
	</g>
	<g display="inline">
		<g>
			<path fill="#74AFD1" d="M-202.743,128.621c1.935,0,1.935-3,0-3S-204.678,128.621-202.743,128.621L-202.743,128.621z"/>
		</g>
	</g>
	<g display="inline">
		<g>
			<path fill="#74AFD1" d="M-194.922,131.879c1.935,0,1.935-3,0-3S-196.856,131.879-194.922,131.879L-194.922,131.879z"/>
		</g>
	</g>
	<g display="inline">
		<g>
			<path fill="#74AFD1" d="M-199.484,134.052c1.935,0,1.935-3,0-3S-201.419,134.052-199.484,134.052L-199.484,134.052z"/>
		</g>
	</g>
	<g display="inline">
		<g>
			<path fill="#74AFD1" d="M-206.653,130.359c1.935,0,1.935-3,0-3S-208.588,130.359-206.653,130.359L-206.653,130.359z"/>
		</g>
	</g>
	<g display="inline">
		<g>
			<path fill="#74AFD1" d="M-224.251,123.624c1.935,0,1.935-3,0-3S-226.186,123.624-224.251,123.624L-224.251,123.624z"/>
		</g>
	</g>
	<g display="inline">
		<g>
			<path fill="#74AFD1" d="M-172.979,150.128c1.935,0,1.935-3,0-3S-174.914,150.128-172.979,150.128L-172.979,150.128z"/>
		</g>
	</g>
	<g display="inline">
		<g>
			<path fill="#74AFD1" d="M-167.331,156.646c1.935,0,1.935-3,0-3S-169.266,156.646-167.331,156.646L-167.331,156.646z"/>
		</g>
	</g>
	<g display="inline">
		<g>
			<path fill="#74AFD1" d="M-163.203,162.946c1.935,0,1.935-3,0-3S-165.138,162.946-163.203,162.946L-163.203,162.946z"/>
		</g>
	</g>
	<g display="inline">
		<g>
			<path fill="#74AFD1" d="M-154.73,177.719c1.935,0,1.935-3,0-3S-156.665,177.719-154.73,177.719L-154.73,177.719z"/>
		</g>
	</g>
	<g display="inline">
		<g>
			<path fill="#74AFD1" d="M-157.772,171.853c1.935,0,1.935-3,0-3S-159.707,171.853-157.772,171.853L-157.772,171.853z"/>
		</g>
	</g>
	<g display="inline">
		<g>
			<path fill="#74AFD1" d="M-159.728,166.856c1.935,0,1.935-3,0-3S-161.662,166.856-159.728,166.856L-159.728,166.856z"/>
		</g>
	</g>
	<g display="inline">
		<g>
			<path fill="#74AFD1" d="M-169.504,160.773c1.935,0,1.935-3,0-3S-171.438,160.773-169.504,160.773L-169.504,160.773z"/>
		</g>
	</g>
	<g display="inline">
		<g>
			<path fill="#74AFD1" d="M-172.979,155.342c1.935,0,1.935-3,0-3S-174.914,155.342-172.979,155.342L-172.979,155.342z"/>
		</g>
	</g>
	<g display="inline">
		<g>
			<path fill="#74AFD1" d="M-345.042,149.258c1.935,0,1.935-3,0-3S-346.976,149.258-345.042,149.258L-345.042,149.258z"/>
		</g>
	</g>
	<g display="inline">
		<g>
			<path fill="#74AFD1" d="M-350.907,156.21c1.935,0,1.935-3,0-3S-352.842,156.21-350.907,156.21L-350.907,156.21z"/>
		</g>
	</g>
	<g display="inline">
		<g>
			<path fill="#74AFD1" d="M-356.122,164.466c1.935,0,1.935-3,0-3S-358.056,164.466-356.122,164.466L-356.122,164.466z"/>
		</g>
	</g>
	<g display="inline">
		<g>
			<path fill="#74AFD1" d="M-353.731,159.687c1.935,0,1.935-3,0-3S-355.666,159.687-353.731,159.687L-353.731,159.687z"/>
		</g>
	</g>
	<g display="inline">
		<g>
			<path fill="#74AFD1" d="M-348.3,152.734c1.935,0,1.935-3,0-3S-350.235,152.734-348.3,152.734L-348.3,152.734z"/>
		</g>
	</g>
	<g display="inline">
		<g>
			<path fill="#74AFD1" d="M-340.479,151.431c1.935,0,1.935-3,0-3S-342.414,151.431-340.479,151.431L-340.479,151.431z"/>
		</g>
	</g>
	<g display="inline">
		<g>
			<path fill="#74AFD1" d="M-346.562,155.341c1.935,0,1.935-3,0-3S-348.497,155.341-346.562,155.341L-346.562,155.341z"/>
		</g>
	</g>
	<g display="inline">
		<g>
			<path fill="#74AFD1" d="M-350.473,160.555c1.935,0,1.935-3,0-3S-352.408,160.555-350.473,160.555L-350.473,160.555z"/>
		</g>
	</g>
	<g display="inline">
		<g>
			<path fill="#74AFD1" d="M-359.814,170.332c1.935,0,1.935-3,0-3S-361.749,170.332-359.814,170.332L-359.814,170.332z"/>
		</g>
	</g>
	<g display="inline">
		<g>
			<path fill="#74AFD1" d="M-333.093,148.606c1.935,0,1.935-3,0-3S-335.027,148.606-333.093,148.606L-333.093,148.606z"/>
		</g>
	</g>
	<g display="inline">
		<g>
			<path fill="#74AFD1" d="M-319.189,134.485c1.935,0,1.935-3,0-3S-321.124,134.485-319.189,134.485L-319.189,134.485z"/>
		</g>
	</g>
	<g display="inline">
		<g>
			<path fill="#74AFD1" d="M-312.237,127.75c1.935,0,1.935-3,0-3S-314.171,127.75-312.237,127.75L-312.237,127.75z"/>
		</g>
	</g>
	<g display="inline">
		<g>
			<path fill="#74AFD1" d="M-302.678,125.361c1.935,0,1.935-3,0-3S-304.613,125.361-302.678,125.361L-302.678,125.361z"/>
		</g>
	</g>
	<g display="inline">
		<g>
			<path fill="#74AFD1" d="M-290.729,125.795c1.935,0,1.935-3,0-3S-292.664,125.795-290.729,125.795L-290.729,125.795z"/>
		</g>
	</g>
	<g display="inline">
		<g>
			<path fill="#74AFD1" d="M-286.819,121.016c1.935,0,1.935-3,0-3S-288.753,121.016-286.819,121.016L-286.819,121.016z"/>
		</g>
	</g>
	<g display="inline">
		<g>
			<path fill="#74AFD1" d="M-279.432,115.802c1.935,0,1.935-3,0-3S-281.367,115.802-279.432,115.802L-279.432,115.802z"/>
		</g>
	</g>
	<g display="inline">
		<g>
			<path fill="#74AFD1" d="M-278.781,121.45c1.935,0,1.935-3,0-3S-280.715,121.45-278.781,121.45L-278.781,121.45z"/>
		</g>
	</g>
	<g display="inline">
		<g>
			<path fill="#74AFD1" d="M-295.726,122.319c1.935,0,1.935-3,0-3S-297.661,122.319-295.726,122.319L-295.726,122.319z"/>
		</g>
	</g>
	<g display="inline">
		<g>
			<path fill="#74AFD1" d="M-299.202,127.968c1.935,0,1.935-3,0-3S-301.137,127.968-299.202,127.968L-299.202,127.968z"/>
		</g>
	</g>
	<g display="inline">
		<g>
			<path fill="#74AFD1" d="M-310.934,132.313c1.935,0,1.935-3,0-3S-312.868,132.313-310.934,132.313L-310.934,132.313z"/>
		</g>
	</g>
	<g display="inline">
		<g>
			<path fill="#74AFD1" d="M-318.754,139.699c1.935,0,1.935-3,0-3S-320.689,139.699-318.754,139.699L-318.754,139.699z"/>
		</g>
	</g>
	<g display="inline">
		<g>
			<path fill="#74AFD1" d="M-305.72,128.837c1.935,0,1.935-3,0-3S-307.654,128.837-305.72,128.837L-305.72,128.837z"/>
		</g>
	</g>
	<g display="inline">
		<g>
			<path fill="#74AFD1" d="M-291.598,118.409c1.935,0,1.935-3,0-3S-293.533,118.409-291.598,118.409L-291.598,118.409z"/>
		</g>
	</g>
</g>
</svg>
