<?xml version="1.0" encoding="utf-8"?>
<!-- Generator: Adobe Illustrator 15.1.0, SVG Export Plug-In . SVG Version: 6.00 Build 0)  -->
<!DOCTYPE svg PUBLIC "-//W3C//DTD SVG 1.1//EN" "http://www.w3.org/Graphics/SVG/1.1/DTD/svg11.dtd">
<svg version="1.1" xmlns="http://www.w3.org/2000/svg" xmlns:xlink="http://www.w3.org/1999/xlink" x="0px" y="0px" width="400px"
	 height="400px" viewBox="0 0 400 400" enable-background="new 0 0 400 400" xml:space="preserve">
<g id="guide_lines_layer" display="none">
</g>
<g id="body_layer">
	<path fill="#6FC5D8" d="M328.912,173.063c35.311,77.808,73.312,209.899-138.917,203.626
		C-21.901,370.425,16.366,243.743,64.138,169.438c68.58-106.673,144.279-94.899,144.279-94.899S282.4,70.576,328.912,173.063z"/>
	
		<ellipse transform="matrix(0.7257 -0.6881 0.6881 0.7257 -52.3861 110.0855)" fill="#6FC5D8" cx="111.856" cy="120.736" rx="15.749" ry="41.248"/>
	<path fill="#6FC5D8" d="M296.789,130.593c15.674-16.532,23.264-34.783,16.951-40.769c-6.311-5.984-24.135,2.563-39.809,19.096
		c-15.674,16.531-23.262,34.785-16.953,40.77C263.293,155.674,281.115,147.125,296.789,130.593z"/>
	<path fill="#52BFD1" d="M349.016,289.262c0,27.487-24.141,49.767-53.917,49.767c-29.775,0-53.916-22.279-53.916-49.767
		c0-27.492,24.141-49.771,53.916-49.771C324.875,239.49,349.016,261.77,349.016,289.262z"/>
	<path fill="#52BFD1" d="M146.516,287.262c0,27.487-24.141,49.767-53.917,49.767c-29.775,0-53.916-22.279-53.916-49.767
		c0-27.492,24.141-49.771,53.916-49.771C122.375,237.49,146.516,259.77,146.516,287.262z"/>
</g>
</svg>
