<?xml version="1.0" encoding="utf-8"?>
<!-- Generator: Adobe Illustrator 15.1.0, SVG Export Plug-In . SVG Version: 6.00 Build 0)  -->
<!DOCTYPE svg PUBLIC "-//W3C//DTD SVG 1.1//EN" "http://www.w3.org/Graphics/SVG/1.1/DTD/svg11.dtd">
<svg version="1.1" xmlns="http://www.w3.org/2000/svg" xmlns:xlink="http://www.w3.org/1999/xlink" x="0px" y="0px" width="400px"
	 height="400px" viewBox="0 0 400 400" enable-background="new 0 0 400 400" xml:space="preserve">
<g id="guide_lines_layer" display="none">
</g>
<g id="body_layer">
	<path fill="#8BCEAB" d="M340.877,166.052c35.311,77.808,73.313,209.899-138.917,203.626
		C-9.936,363.413,28.331,236.731,76.104,162.426c68.58-106.673,144.279-94.899,144.279-94.899S294.366,63.564,340.877,166.052z"/>
	
		<ellipse transform="matrix(0.7257 -0.6881 0.6881 0.7257 -44.2791 116.3947)" fill="#8BCEAB" cx="123.821" cy="113.724" rx="15.749" ry="41.248"/>
	
		<ellipse transform="matrix(0.7257 0.6881 -0.6881 0.7257 156.6675 -173.4359)" fill="#8BCEAB" cx="295.825" cy="109.746" rx="15.749" ry="41.248"/>
	<path fill="#8BCEAB" d="M340.877,166.052c35.311,77.808,73.313,209.899-138.917,203.626
		C-9.936,363.413,28.331,236.731,76.104,162.426c68.58-106.673,144.279-94.899,144.279-94.899S294.366,63.564,340.877,166.052z"/>
	
		<ellipse transform="matrix(0.7257 -0.6881 0.6881 0.7257 -44.2791 116.3947)" fill="#8BCEAB" cx="123.821" cy="113.724" rx="15.749" ry="41.248"/>
	
		<ellipse transform="matrix(0.7257 0.6881 -0.6881 0.7257 156.6675 -173.4359)" fill="#8BCEAB" cx="295.825" cy="109.746" rx="15.749" ry="41.248"/>
	<path fill="#72C596" d="M359.016,289.262c0,27.487-24.141,49.767-53.917,49.767c-29.775,0-53.916-22.279-53.916-49.767
		c0-27.492,24.141-49.771,53.916-49.771C334.875,239.49,359.016,261.77,359.016,289.262z"/>
	<path fill="#72C596" d="M156.516,287.262c0,27.487-24.141,49.767-53.917,49.767c-29.775,0-53.916-22.279-53.916-49.767
		c0-27.492,24.141-49.771,53.916-49.771C132.375,237.49,156.516,259.77,156.516,287.262z"/>
</g>
</svg>
