<?xml version="1.0" encoding="utf-8"?>
<!-- Generator: Adobe Illustrator 15.1.0, SVG Export Plug-In . SVG Version: 6.00 Build 0)  -->
<!DOCTYPE svg PUBLIC "-//W3C//DTD SVG 1.1//EN" "http://www.w3.org/Graphics/SVG/1.1/DTD/svg11.dtd">
<svg version="1.1" xmlns="http://www.w3.org/2000/svg" xmlns:xlink="http://www.w3.org/1999/xlink" x="0px" y="0px" width="400px"
	 height="400px" viewBox="0 0 400 400" enable-background="new 0 0 400 400" xml:space="preserve">
<g id="guide_lines_layer" display="none">
</g>
<g id="body_layer">
	<path fill="#E06899" d="M329.864,172.563c35.311,77.808,73.313,209.899-138.917,203.626
		C-20.948,369.925,17.318,243.243,65.091,168.938C133.671,62.265,209.37,74.038,209.37,74.038S283.354,70.076,329.864,172.563z"/>
	
		<ellipse transform="matrix(0.7257 -0.6881 0.6881 0.7257 -51.7808 110.6038)" fill="#E06899" cx="112.809" cy="120.236" rx="15.749" ry="41.248"/>
	
		<ellipse transform="matrix(0.7257 0.6881 -0.6881 0.7257 158.1266 -164.0722)" fill="#E06899" cx="284.812" cy="116.257" rx="15.749" ry="41.248"/>
	<path fill="#D65490" d="M348.016,293.262c0,27.487-24.141,49.767-53.917,49.767c-29.775,0-53.916-22.279-53.916-49.767
		c0-27.492,24.141-49.771,53.916-49.771C323.875,243.49,348.016,265.77,348.016,293.262z"/>
	<path fill="#D65490" d="M145.516,291.262c0,27.487-24.141,49.767-53.917,49.767c-29.775,0-53.916-22.279-53.916-49.767
		c0-27.492,24.141-49.771,53.916-49.771C121.375,241.49,145.516,263.77,145.516,291.262z"/>
</g>
</svg>
