<?xml version="1.0" encoding="utf-8"?>
<!-- Generator: Adobe Illustrator 15.1.0, SVG Export Plug-In . SVG Version: 6.00 Build 0)  -->
<!DOCTYPE svg PUBLIC "-//W3C//DTD SVG 1.1//EN" "http://www.w3.org/Graphics/SVG/1.1/DTD/svg11.dtd">
<svg version="1.1" xmlns="http://www.w3.org/2000/svg" xmlns:xlink="http://www.w3.org/1999/xlink" x="0px" y="0px" width="2280px"
	 height="820px" viewBox="0 0 2280 820" enable-background="new 0 0 2280 820" xml:space="preserve">
<g id="guide_lines_layer" display="none">
	<rect x="7.75" y="-846.012" display="inline" fill="#FFFFFF" stroke="#000000" stroke-miterlimit="10" width="75" height="400"/>
	<rect x="332" y="-850.011" display="inline" fill="#FFFFFF" stroke="#000000" stroke-miterlimit="10" width="75" height="400"/>
	<rect x="332" y="-1253" display="inline" fill="#FFFFFF" stroke="#000000" stroke-miterlimit="10" width="75" height="400"/>
	<rect x="7.75" y="-1253" display="inline" fill="#FFFFFF" stroke="#000000" stroke-miterlimit="10" width="75" height="400"/>
	<rect x="467.059" y="-1257.5" display="inline" fill="#FFFFFF" stroke="#000000" stroke-miterlimit="10" width="75" height="400"/>
	<rect x="792.059" y="-1258.5" display="inline" fill="#FFFFFF" stroke="#000000" stroke-miterlimit="10" width="75" height="400"/>
	
		<rect x="792.058" y="-850.465" display="inline" fill="#FFFFFF" stroke="#000000" stroke-miterlimit="10" width="75" height="400"/>
	
		<rect x="467.058" y="-850.465" display="inline" fill="#FFFFFF" stroke="#000000" stroke-miterlimit="10" width="75" height="400"/>
	<rect x="7.75" y="-444.446" display="inline" fill="#FFFFFF" stroke="#000000" stroke-miterlimit="10" width="75" height="400"/>
	<rect x="332" y="-444.446" display="inline" fill="#FFFFFF" stroke="#000000" stroke-miterlimit="10" width="75" height="400"/>
	
		<rect x="793.558" y="-444.446" display="inline" fill="#FFFFFF" stroke="#000000" stroke-miterlimit="10" width="75" height="400"/>
	
		<rect x="468.558" y="-444.446" display="inline" fill="#FFFFFF" stroke="#000000" stroke-miterlimit="10" width="75" height="400"/>
	
		<rect x="923.333" y="-1256.333" display="inline" fill="#FFFFFF" stroke="#000000" stroke-miterlimit="10" width="75" height="400"/>
	
		<rect x="1248.333" y="-1256.333" display="inline" fill="#FFFFFF" stroke="#000000" stroke-miterlimit="10" width="75" height="399.999"/>
	<rect x="1247" y="-843" display="inline" fill="#FFFFFF" stroke="#000000" stroke-miterlimit="10" width="75" height="400"/>
	<rect x="922" y="-843" display="inline" fill="#FFFFFF" stroke="#000000" stroke-miterlimit="10" width="75" height="400"/>
	<rect x="1248.333" y="-436" display="inline" fill="#FFFFFF" stroke="#000000" stroke-miterlimit="10" width="75" height="400"/>
	<rect x="923.333" y="-435" display="inline" fill="#FFFFFF" stroke="#000000" stroke-miterlimit="10" width="75" height="400"/>
	
		<rect x="1396.605" y="-1256.969" display="inline" fill="#FFFFFF" stroke="#000000" stroke-miterlimit="10" width="75" height="400"/>
	
		<rect x="1721.605" y="-1256.969" display="inline" fill="#FFFFFF" stroke="#000000" stroke-miterlimit="10" width="75" height="399.999"/>
	<rect x="1720.272" y="-842" display="inline" fill="#FFFFFF" stroke="#000000" stroke-miterlimit="10" width="75" height="400"/>
	<rect x="1396" y="-842" display="inline" fill="#FFFFFF" stroke="#000000" stroke-miterlimit="10" width="75" height="400"/>
	
		<rect x="1720.272" y="-436.636" display="inline" fill="#FFFFFF" stroke="#000000" stroke-miterlimit="10" width="75" height="400"/>
	
		<rect x="1395.272" y="-435.636" display="inline" fill="#FFFFFF" stroke="#000000" stroke-miterlimit="10" width="75" height="400"/>
</g>
<g id="Layer_5">
	<rect fill="#FFFFFF" width="2280" height="817.995"/>
</g>
<g id="body_layer">
	<path fill="#DBCD7D" d="M1518.335-1119.333c0,0-63.33-68.667-118.667-8.667c62.715-18,76.856-2,88.539,29.334
		C1499.509-1068.355,1518.335-1119.333,1518.335-1119.333z"/>
	<path fill="#DBCD7D" d="M1663-1117.333c0,0,63.33-68.667,118.667-8.667c-62.715-18-76.856-2-88.539,29.333
		C1681.826-1066.356,1663-1117.333,1663-1117.333z"/>
	<path fill="#7DC6DD" d="M82.667-855.998c-2.883-20-6.001-94.502-1.501-143.002c3.743-40.334,17.835-96.814,42.335-118.185
		c3.563-3.109-30.615-46.477-26.834-49.162c3.812-2.707,45.584,35.273,49.586,33.007c14.496-8.207,30.145-13.495,46.222-15.626
		c5.358-0.71,10.294-53.233,15.722-53.233c6.436,0,13.158,52.65,19.217,53.576c18.174,2.776,34.613,9.508,49.126,18.933
		c2.902,1.885,44.048-32.705,46.795-30.614c3.355,2.554-31.726,41.835-28.608,44.662c29.753,26.976,31.94,73.644,35.44,119.144
		c2.627,34.148,4.752,126.445,1.92,140.279L82.667-855.998z"/>
	<path fill="#79C2EA" stroke="#FFFFFF" stroke-miterlimit="10" d="M-217-1050"/>
	<path fill="#7DC6DD" d="M82-849.999v46c0,0-4,30-21,37s-27,11-27,31s11,36-6,41s-14,15,0,15s25.353-13.575,26.774-25.657
		c1.963-16.687-8.344-22.576,7.853-32.883c9.972-6.346,19.141-5.399,19.141-5.399l-0.492,53.985c0,0-28.436,6.475-36.318,25.523
		c-11.779,28.464,4.968,47.216,1.042,62.431c-6.039,23.4-23.395,19.503-22.5,28c1,9.5,37.038,0.956,39-28
		c1.114-16.443-2.814-21.393-3.309-29.06c-0.982-15.214,9.325-26.993,23.067-25.519L82-567.999c0,0,0.629,17.897-13.484,28.718
		c-14.724,11.288-18.65,9.815-26.012,16.688c-17.939,16.744-6.871,35.827-15.706,41.718c-14.062,9.377-15.214,21.595-2.945,16.687
		c22.104-8.843,21.777-16.334,24.54-33.374C51.337-515.723,78-519.999,78-519.999h4l0.903,70.988H194l7-400L82-849.999z"/>
	<path fill="#7DC6DD" d="M78-519.999"/>
	<circle fill="#36A1BA" cx="59.167" cy="-760.833" r="7.833"/>
	<circle fill="#36A1BA" cx="60.167" cy="-739.833" r="6.167"/>
	<circle fill="#36A1BA" cx="42.501" cy="-743.167" r="5.833"/>
	<circle fill="#36A1BA" cx="51.001" cy="-726" r="4.333"/>
	<circle fill="#36A1BA" cx="38.334" cy="-732" r="4.667"/>
	<circle fill="#36A1BA" cx="41.001" cy="-718.667" r="4"/>
	<circle fill="#36A1BA" cx="52.501" cy="-711.833" r="3.5"/>
	<circle fill="#36A1BA" cx="41.501" cy="-705.833" r="3.833"/>
	<circle fill="#36A1BA" cx="48.334" cy="-696" r="3.667"/>
	<circle fill="#36A1BA" cx="35.334" cy="-694.334" r="3.333"/>
	<circle fill="#36A1BA" cx="39.167" cy="-685.499" r="2.833"/>
	<circle fill="#36A1BA" cx="25.334" cy="-687" r="3"/>
	<circle fill="#36A1BA" cx="78.001" cy="-681.333" r="9"/>
	<circle fill="#36A1BA" cx="66.667" cy="-658.667" r="8"/>
	<circle fill="#36A1BA" cx="56.834" cy="-672.167" r="6.833"/>
	<circle fill="#36A1BA" cx="46.167" cy="-660.5" r="6.167"/>
	<circle fill="#36A1BA" cx="43.001" cy="-643.999" r="6.167"/>
	<circle fill="#36A1BA" cx="57.501" cy="-643.166" r="6.5"/>
	<circle fill="#36A1BA" cx="46.501" cy="-628.167" r="4.833"/>
	<circle fill="#36A1BA" cx="58.334" cy="-623.666" r="4"/>
	<circle fill="#36A1BA" cx="50.834" cy="-612.833" r="3.833"/>
	<circle fill="#36A1BA" cx="59.501" cy="-609.167" r="3.833"/>
	<circle fill="#36A1BA" cx="49.168" cy="-600.499" r="4.167"/>
	<circle fill="#36A1BA" cx="51.667" cy="-584.499" r="3.5"/>
	<circle fill="#36A1BA" cx="44.668" cy="-590.999" r="3.333"/>
	<circle fill="#36A1BA" cx="59.667" cy="-593.666" r="4.333"/>
	<circle fill="#36A1BA" cx="40.834" cy="-576.499" r="3.833"/>
	<circle fill="#36A1BA" cx="71.167" cy="-535.833" r="6.167"/>
	<circle fill="#36A1BA" cx="60.501" cy="-516.834" r="4.167"/>
	<circle fill="#36A1BA" cx="60.834" cy="-529.166" r="3.833"/>
	<circle fill="#36A1BA" cx="49.001" cy="-521.667" r="4.333"/>
	<circle fill="#36A1BA" cx="35.001" cy="-497.334" r="3"/>
	<circle fill="#36A1BA" cx="39.834" cy="-510.501" r="4.167"/>
	<circle fill="#36A1BA" cx="50.501" cy="-508.167" r="4.833"/>
	<circle fill="#36A1BA" cx="72.668" cy="-522.334" r="5.667"/>
	<circle fill="#36A1BA" cx="41.501" cy="-478.834" r="3.5"/>
	<circle fill="#36A1BA" cx="30.834" cy="-478.167" r="3.5"/>
	<circle fill="#36A1BA" cx="42.501" cy="-491.501" r="3.5"/>
	<circle fill="#36A1BA" cx="44.501" cy="-499.834" r="3.5"/>
	<circle fill="#36A1BA" cx="33.334" cy="-486.001" r="3"/>
	<circle fill="#36A1BA" cx="27.834" cy="-470.167" r="3.167"/>
	<path fill="#7DC6DD" d="M331.983-849.011l-0.941,45.012c0,0,4.405,30,23.125,37c18.721,7,29.732,11,29.732,31s-12.113,36,6.607,41
		c18.72,5,15.416,15,0,15c-15.417,0-27.919-13.575-29.484-25.657c-2.161-16.687,9.188-22.576-8.646-32.883
		c-10.982-6.346-21.078-5.399-21.078-5.399l0.541,53.985c0,0,31.313,6.475,39.993,25.523c12.972,28.464-5.47,47.216-1.146,62.431
		c6.649,23.4,25.762,19.503,24.776,28c-1.102,9.5-40.785,0.956-42.946-28c-1.228-16.443,3.099-21.393,3.644-29.06
		c1.081-15.214-10.269-26.993-25.401-25.519l0.284,88.578c0,0-0.692,17.897,14.849,28.718c16.215,11.288,20.538,9.815,28.645,16.688
		c19.755,16.744,7.566,35.827,17.295,41.718c15.486,9.377,16.754,21.595,3.242,16.687c-24.34-8.843-23.98-16.334-27.021-33.374
		c-3.244-18.159-32.604-22.436-32.604-22.436h-4.405l1.381,70.988H192.747l7.253-400H331.983z"/>
	<path fill="#7DC6DD" d="M335.447-519.999"/>
	<ellipse fill="#36A1BA" cx="356.185" cy="-760.833" rx="8.626" ry="7.833"/>
	<ellipse fill="#36A1BA" cx="355.083" cy="-739.833" rx="6.791" ry="6.166"/>
	<ellipse fill="#36A1BA" cx="374.538" cy="-743.167" rx="6.423" ry="5.834"/>
	<ellipse fill="#36A1BA" cx="365.178" cy="-726" rx="4.771" ry="4.333"/>
	<ellipse fill="#36A1BA" cx="379.126" cy="-732" rx="5.139" ry="4.667"/>
	<ellipse fill="#36A1BA" cx="376.19" cy="-718.667" rx="4.405" ry="4"/>
	<ellipse fill="#36A1BA" cx="363.526" cy="-711.833" rx="3.854" ry="3.5"/>
	<ellipse fill="#36A1BA" cx="375.639" cy="-705.833" rx="4.221" ry="3.833"/>
	<ellipse fill="#36A1BA" cx="368.114" cy="-696" rx="4.038" ry="3.667"/>
	<ellipse fill="#36A1BA" cx="382.43" cy="-694.334" rx="3.671" ry="3.333"/>
	<ellipse fill="#36A1BA" cx="378.209" cy="-685.499" rx="3.12" ry="2.833"/>
	<ellipse fill="#36A1BA" cx="393.442" cy="-687" rx="3.304" ry="3"/>
	<ellipse fill="#36A1BA" cx="335.446" cy="-681.333" rx="9.911" ry="9"/>
	<ellipse fill="#36A1BA" cx="347.926" cy="-658.667" rx="8.81" ry="8"/>
	<ellipse fill="#36A1BA" cx="358.754" cy="-672.167" rx="7.525" ry="6.834"/>
	<ellipse fill="#36A1BA" cx="370.501" cy="-660.5" rx="6.791" ry="6.167"/>
	<ellipse fill="#36A1BA" cx="373.987" cy="-643.999" rx="6.791" ry="6.167"/>
	<ellipse fill="#36A1BA" cx="358.02" cy="-643.166" rx="7.158" ry="6.5"/>
	<ellipse fill="#36A1BA" cx="370.133" cy="-628.167" rx="5.322" ry="4.834"/>
	<ellipse fill="#36A1BA" cx="357.103" cy="-623.666" rx="4.405" ry="4"/>
	<ellipse fill="#36A1BA" cx="365.361" cy="-612.833" rx="4.222" ry="3.833"/>
	<ellipse fill="#36A1BA" cx="355.818" cy="-609.167" rx="4.221" ry="3.834"/>
	<ellipse fill="#36A1BA" cx="367.196" cy="-600.499" rx="4.589" ry="4.167"/>
	<ellipse fill="#36A1BA" cx="364.444" cy="-584.499" rx="3.854" ry="3.5"/>
	<ellipse fill="#36A1BA" cx="372.152" cy="-590.999" rx="3.671" ry="3.334"/>
	<ellipse fill="#36A1BA" cx="355.635" cy="-593.666" rx="4.771" ry="4.333"/>
	<ellipse fill="#36A1BA" cx="376.374" cy="-576.499" rx="4.221" ry="3.834"/>
	<ellipse fill="#36A1BA" cx="342.972" cy="-535.833" rx="6.791" ry="6.167"/>
	<ellipse fill="#36A1BA" cx="354.716" cy="-516.834" rx="4.588" ry="4.166"/>
	<ellipse fill="#36A1BA" cx="354.35" cy="-529.166" rx="4.222" ry="3.833"/>
	<ellipse fill="#36A1BA" cx="367.381" cy="-521.667" rx="4.771" ry="4.334"/>
	<ellipse fill="#36A1BA" cx="382.797" cy="-497.334" rx="3.304" ry="3"/>
	<ellipse fill="#36A1BA" cx="377.475" cy="-510.501" rx="4.588" ry="4.167"/>
	<ellipse fill="#36A1BA" cx="365.729" cy="-508.167" rx="5.322" ry="4.833"/>
	<ellipse fill="#36A1BA" cx="341.318" cy="-522.334" rx="6.239" ry="5.666"/>
	<ellipse fill="#36A1BA" cx="375.639" cy="-478.834" rx="3.854" ry="3.5"/>
	<ellipse fill="#36A1BA" cx="387.386" cy="-478.167" rx="3.854" ry="3.5"/>
	<ellipse fill="#36A1BA" cx="374.538" cy="-491.501" rx="3.854" ry="3.5"/>
	<ellipse fill="#36A1BA" cx="372.335" cy="-499.834" rx="3.854" ry="3.5"/>
	<ellipse fill="#36A1BA" cx="384.633" cy="-486.001" rx="3.304" ry="3"/>
	<ellipse fill="#36A1BA" cx="390.689" cy="-470.167" rx="3.487" ry="3.166"/>
	<path fill="#52BFD1" d="M307.333-653.987c0,99.408-43.169,179.988-96.417,179.988S114.5-554.579,114.5-653.987
		c0-99.43,43.168-180.012,96.417-180.012S307.333-753.417,307.333-653.987z"/>
	<path fill="#52BFD1" d="M325.332-1000.996c0,19.33-16.977,34.998-37.917,34.998c-20.939,0-37.916-15.668-37.916-34.998
		c0-19.334,16.977-35.002,37.916-35.002C308.355-1035.998,325.332-1020.33,325.332-1000.996z"/>
	<path fill="#52BFD1" d="M169.332-997.996c0,19.33-16.977,34.998-37.917,34.998c-20.939,0-37.916-15.668-37.916-34.998
		c0-19.334,16.977-35.002,37.916-35.002C152.355-1032.998,169.332-1017.33,169.332-997.996z"/>
	<g>
		<g>
			<path fill="#7DC6DD" d="M126.608-1136.006c0.65,0,2.082-0.987,0.781-0.987C126.739-1136.993,125.308-1136.006,126.608-1136.006
				L126.608-1136.006z"/>
		</g>
	</g>
	<g>
		<g>
			<path fill="none" stroke="#F2E4D2" stroke-miterlimit="10" d="M293.499-1135.5"/>
		</g>
	</g>
	<g>
		<g>
			<path fill="none" stroke="#F2E4D2" stroke-miterlimit="10" d="M205.499-1136.5"/>
		</g>
	</g>
	<path fill="#6FC5D8" d="M333.477-444.446l2.023,127.449c-2.206,25.478,41-4,41,29c0,32.062-120,28-119,14
		c0.778-10.892-6-128-59-122c-32.804,3.714-43.046,125.093-45,129c-3,6-115,30-117-12c-1.813-38.075,46,0,44.168-36.008
		c0,0,2.881-125.732,3.77-129.441H333.477z"/>
	<path fill="#D6C370" d="M39.509-290.601c0,0-4.187,4.983-2.193,10.965c0,0-12.559-7.376-16.347,0.996
		C20.57-290.202,29.342-291.598,39.509-290.601z"/>
	<path fill="#D6C370" d="M39.31-277.643c0,0-0.199,4.386,5.98,7.975c0,0-13.755-3.189-17.543,5.183
		C27.349-276.048,29.143-278.64,39.31-277.643z"/>
	<path fill="#D6C370" d="M46.584-266.939l7.841,2.83c0,0-8.394,3.072-11.97,13.587C39.548-257.515,40.456-263.317,46.584-266.939z"
		/>
	<path fill="#D6C370" d="M372.257-300.601c0,0,4.069,4.983,2.131,10.965c0,0,12.207-7.376,15.89,0.996
		C390.664-300.202,382.139-301.598,372.257-300.601z"/>
	<path fill="#D6C370" d="M372.45-287.643c0,0,0.193,4.386-5.812,7.975c0,0,13.369-3.189,17.051,5.183
		C384.076-286.048,382.332-288.64,372.45-287.643z"/>
	<path fill="#D6C370" d="M365.38-276.939l-7.621,2.83c0,0,8.158,3.072,11.634,13.587
		C372.218-267.515,371.336-273.317,365.38-276.939z"/>
	<path fill="#52BFD1" d="M84.483-437.021c0,0,139.461,50.713-3.888,123.271L84.483-437.021z"/>
	<path fill="#52BFD1" d="M333.763-439.493c0,0-124.187,45.307,1.429,119.307L333.763-439.493z"/>
	<path fill="#8BCEAB" d="M540.175-857.879c-2.881-20-6-94.502-1.5-143.002c3.742-40.336,17.835-96.814,42.335-118.185
		c3.563-3.109-30.614-46.478-26.833-49.163c3.811-2.707,45.583,35.274,49.586,33.009c14.496-8.207,30.144-13.496,46.221-15.628
		c5.359-0.709,10.294-53.232,15.722-53.232c6.436,0,13.158,52.648,19.217,53.574c18.174,2.778,34.613,9.509,49.126,18.935
		c2.902,1.885,44.048-32.706,46.795-30.616c3.355,2.555-31.726,41.837-28.608,44.663c29.753,26.976,31.94,73.642,35.44,119.144
		c2.627,34.148,4.752,126.445,1.92,140.279L540.175-857.879z"/>
	<path fill="#8BCEAB" d="M541.007-850.381v46c0,0-4,30-21,37s-27,11-27,31s11,36-6,41s-14,15,0,15s25.353-13.574,26.774-25.656
		c1.963-16.688-8.344-22.576,7.853-32.883c9.972-6.346,19.142-5.4,19.142-5.4l-0.492,53.986c0,0-28.436,6.475-36.318,25.523
		c-11.779,28.463,4.969,47.215,1.042,62.43c-6.038,23.4-23.395,19.504-22.5,28c1,9.5,37.038,0.957,39-28
		c1.114-16.443-2.813-21.393-3.309-29.059c-0.981-15.215,9.325-26.994,23.067-25.52l-0.259,88.578c0,0,0.63,17.898-13.484,28.719
		c-14.724,11.287-18.649,9.814-26.013,16.688c-17.938,16.744-6.871,35.826-15.705,41.717c-14.062,9.377-15.215,21.596-2.945,16.688
		c22.105-8.844,21.777-16.334,24.541-33.375c2.943-18.158,29.606-22.436,29.606-22.436h4l0.903,70.988h111.097l7-400
		L541.007-850.381z"/>
	<path fill="#7DC6DD" d="M537.007-520.381"/>
	<circle fill="#60A37B" cx="518.174" cy="-761.215" r="7.833"/>
	<circle fill="#60A37B" cx="519.174" cy="-740.215" r="6.167"/>
	<circle fill="#60A37B" cx="501.508" cy="-743.549" r="5.834"/>
	<circle fill="#60A37B" cx="510.007" cy="-726.381" r="4.333"/>
	<circle fill="#60A37B" cx="497.341" cy="-732.381" r="4.667"/>
	<circle fill="#60A37B" cx="500.008" cy="-719.049" r="4"/>
	<circle fill="#60A37B" cx="511.508" cy="-712.215" r="3.5"/>
	<circle fill="#60A37B" cx="500.508" cy="-706.215" r="3.834"/>
	<circle fill="#60A37B" cx="507.341" cy="-696.381" r="3.667"/>
	<circle fill="#60A37B" cx="494.341" cy="-694.715" r="3.333"/>
	<circle fill="#60A37B" cx="498.174" cy="-685.881" r="2.833"/>
	<circle fill="#60A37B" cx="484.341" cy="-687.381" r="3"/>
	<circle fill="#60A37B" cx="537.008" cy="-681.715" r="9"/>
	<circle fill="#60A37B" cx="525.674" cy="-659.049" r="8"/>
	<circle fill="#60A37B" cx="515.841" cy="-672.549" r="6.833"/>
	<circle fill="#60A37B" cx="505.175" cy="-660.881" r="6.167"/>
	<circle fill="#60A37B" cx="502.008" cy="-644.381" r="6.167"/>
	<circle fill="#60A37B" cx="516.508" cy="-643.547" r="6.5"/>
	<circle fill="#60A37B" cx="505.508" cy="-628.549" r="4.834"/>
	<circle fill="#60A37B" cx="517.341" cy="-624.047" r="4"/>
	<circle fill="#60A37B" cx="509.841" cy="-613.215" r="3.833"/>
	<circle fill="#60A37B" cx="518.507" cy="-609.549" r="3.833"/>
	<circle fill="#60A37B" cx="508.175" cy="-600.881" r="4.167"/>
	<circle fill="#60A37B" cx="510.674" cy="-584.881" r="3.5"/>
	<circle fill="#60A37B" cx="503.675" cy="-591.381" r="3.333"/>
	<circle fill="#60A37B" cx="518.675" cy="-594.047" r="4.333"/>
	<circle fill="#60A37B" cx="499.841" cy="-576.881" r="3.833"/>
	<circle fill="#60A37B" cx="530.175" cy="-536.215" r="6.167"/>
	<circle fill="#60A37B" cx="519.508" cy="-517.215" r="4.167"/>
	<circle fill="#60A37B" cx="519.841" cy="-529.547" r="3.833"/>
	<circle fill="#60A37B" cx="508.008" cy="-522.049" r="4.333"/>
	<circle fill="#60A37B" cx="494.008" cy="-497.715" r="3"/>
	<circle fill="#60A37B" cx="498.841" cy="-510.883" r="4.167"/>
	<circle fill="#60A37B" cx="509.508" cy="-508.549" r="4.833"/>
	<circle fill="#60A37B" cx="531.675" cy="-522.715" r="5.667"/>
	<circle fill="#60A37B" cx="500.508" cy="-479.215" r="3.5"/>
	<circle fill="#60A37B" cx="489.842" cy="-478.549" r="3.5"/>
	<circle fill="#60A37B" cx="501.508" cy="-491.883" r="3.5"/>
	<circle fill="#60A37B" cx="503.508" cy="-500.215" r="3.5"/>
	<circle fill="#60A37B" cx="492.342" cy="-486.383" r="3"/>
	<circle fill="#60A37B" cx="486.841" cy="-470.549" r="3.167"/>
	<path fill="#8BCEAB" d="M792.99-849.393l-2.941,45.012c0,0,4.405,30,23.125,37c18.721,7,29.732,11,29.732,31s-12.113,36,6.607,41
		c18.72,5,15.416,15,0,15c-15.417,0-27.919-13.574-29.484-25.656c-2.161-16.688,9.188-22.576-8.646-32.883
		c-10.982-6.346-21.078-5.4-21.078-5.4l0.541,53.986c0,0,31.313,6.475,39.993,25.523c12.972,28.463-5.47,47.215-1.146,62.43
		c6.649,23.4,25.762,19.504,24.776,28c-1.102,9.5-40.785,0.957-42.946-28c-1.228-16.443,3.099-21.393,3.644-29.059
		c1.081-15.215-10.269-26.994-25.401-25.52l0.284,88.578c0,0-0.692,17.898,14.849,28.719c16.215,11.287,20.538,9.814,28.645,16.688
		c19.755,16.744,7.566,35.826,17.295,41.717c15.486,9.377,16.754,21.596,3.242,16.688c-24.34-8.844-23.98-16.334-27.021-33.375
		c-3.244-18.158-32.604-22.436-32.604-22.436h-4.405l3.381,70.988H651.754l7.253-400H792.99z"/>
	<path fill="#7DC6DD" d="M794.454-520.381"/>
	<ellipse fill="#60A37B" cx="815.192" cy="-761.215" rx="8.626" ry="7.834"/>
	<ellipse fill="#60A37B" cx="814.09" cy="-740.215" rx="6.791" ry="6.166"/>
	<ellipse fill="#60A37B" cx="833.545" cy="-743.549" rx="6.423" ry="5.834"/>
	<ellipse fill="#60A37B" cx="824.185" cy="-726.381" rx="4.771" ry="4.332"/>
	<ellipse fill="#60A37B" cx="838.133" cy="-732.381" rx="5.139" ry="4.666"/>
	<ellipse fill="#60A37B" cx="835.197" cy="-719.049" rx="4.405" ry="4"/>
	<ellipse fill="#60A37B" cx="822.533" cy="-712.215" rx="3.854" ry="3.5"/>
	<ellipse fill="#60A37B" cx="834.646" cy="-706.215" rx="4.221" ry="3.834"/>
	<ellipse fill="#60A37B" cx="827.121" cy="-696.381" rx="4.038" ry="3.666"/>
	<ellipse fill="#60A37B" cx="841.437" cy="-694.715" rx="3.671" ry="3.332"/>
	<ellipse fill="#60A37B" cx="837.216" cy="-685.881" rx="3.12" ry="2.834"/>
	<ellipse fill="#60A37B" cx="852.449" cy="-687.381" rx="3.304" ry="3"/>
	<ellipse fill="#60A37B" cx="794.453" cy="-681.715" rx="9.911" ry="9"/>
	<ellipse fill="#60A37B" cx="806.933" cy="-659.049" rx="8.81" ry="8"/>
	<ellipse fill="#60A37B" cx="817.761" cy="-672.549" rx="7.525" ry="6.834"/>
	<ellipse fill="#60A37B" cx="829.508" cy="-660.881" rx="6.791" ry="6.166"/>
	<ellipse fill="#60A37B" cx="832.994" cy="-644.381" rx="6.791" ry="6.168"/>
	<ellipse fill="#60A37B" cx="817.027" cy="-643.547" rx="7.158" ry="6.5"/>
	<ellipse fill="#60A37B" cx="829.14" cy="-628.549" rx="5.322" ry="4.834"/>
	<ellipse fill="#60A37B" cx="816.11" cy="-624.047" rx="4.405" ry="4"/>
	<ellipse fill="#60A37B" cx="824.368" cy="-613.215" rx="4.222" ry="3.834"/>
	<ellipse fill="#60A37B" cx="814.825" cy="-609.549" rx="4.221" ry="3.834"/>
	<ellipse fill="#60A37B" cx="826.203" cy="-600.881" rx="4.589" ry="4.168"/>
	<ellipse fill="#60A37B" cx="823.451" cy="-584.881" rx="3.854" ry="3.5"/>
	<ellipse fill="#60A37B" cx="831.159" cy="-591.381" rx="3.671" ry="3.334"/>
	<ellipse fill="#60A37B" cx="814.642" cy="-594.047" rx="4.771" ry="4.332"/>
	<ellipse fill="#60A37B" cx="835.38" cy="-576.881" rx="4.221" ry="3.834"/>
	<ellipse fill="#60A37B" cx="801.979" cy="-536.215" rx="6.791" ry="6.168"/>
	<ellipse fill="#60A37B" cx="813.723" cy="-517.215" rx="4.588" ry="4.166"/>
	<ellipse fill="#60A37B" cx="813.356" cy="-529.547" rx="4.222" ry="3.832"/>
	<ellipse fill="#60A37B" cx="826.388" cy="-522.049" rx="4.771" ry="4.334"/>
	<ellipse fill="#60A37B" cx="841.804" cy="-497.715" rx="3.304" ry="3"/>
	<ellipse fill="#60A37B" cx="836.481" cy="-510.883" rx="4.588" ry="4.168"/>
	<ellipse fill="#60A37B" cx="824.735" cy="-508.549" rx="5.322" ry="4.834"/>
	<ellipse fill="#60A37B" cx="800.325" cy="-522.715" rx="6.239" ry="5.666"/>
	<ellipse fill="#60A37B" cx="834.646" cy="-479.215" rx="3.854" ry="3.5"/>
	<ellipse fill="#60A37B" cx="846.393" cy="-478.549" rx="3.854" ry="3.5"/>
	<ellipse fill="#60A37B" cx="833.545" cy="-491.883" rx="3.854" ry="3.5"/>
	<ellipse fill="#60A37B" cx="831.342" cy="-500.215" rx="3.854" ry="3.5"/>
	<ellipse fill="#60A37B" cx="843.64" cy="-486.383" rx="3.304" ry="3"/>
	<ellipse fill="#60A37B" cx="849.696" cy="-470.549" rx="3.487" ry="3.166"/>
	<path fill="#72C596" d="M766.34-654.369c0,99.408-43.169,179.988-96.417,179.988s-96.417-80.58-96.417-179.988
		c0-99.43,43.169-180.012,96.417-180.012S766.34-753.799,766.34-654.369z"/>
	<path fill="#72C596" d="M782.841-1002.877c0,19.33-16.977,34.998-37.917,34.998c-20.939,0-37.916-15.668-37.916-34.998
		c0-19.336,16.977-35.004,37.916-35.004C765.864-1037.881,782.841-1022.213,782.841-1002.877z"/>
	<path fill="#72C596" d="M626.841-999.877c0,19.33-16.977,34.998-37.917,34.998c-20.939,0-37.916-15.668-37.916-34.998
		c0-19.336,16.977-35.004,37.916-35.004C609.864-1034.881,626.841-1019.213,626.841-999.877z"/>
	<g>
		<g>
			<path fill="#7DC6DD" d="M584.117-1137.887c0.65,0,2.082-0.986,0.781-0.986C584.248-1138.874,582.816-1137.887,584.117-1137.887
				L584.117-1137.887z"/>
		</g>
	</g>
	<g>
		<g>
			<path fill="none" stroke="#F2E4D2" stroke-miterlimit="10" d="M751.008-1137.38"/>
		</g>
	</g>
	<g>
		<g>
			<path fill="none" stroke="#F2E4D2" stroke-miterlimit="10" d="M663.008-1138.38"/>
		</g>
	</g>
	<path fill="#8BCEAB" d="M793.483-443.828l2.023,127.449c-2.206,25.479,41-4,41,29c0,32.062-120,28-119,14
		c0.778-10.891-6-128-59-122c-32.804,3.715-43.046,125.094-45,129c-3,6-114,29-116-13c-1.813-38.074,45,1,43.169-35.008
		c0,0,2.881-125.732,3.77-129.441H793.483z"/>
	<path fill="#D6C370" d="M499.516-289.982c0,0-4.187,4.984-2.193,10.965c0,0-12.559-7.375-16.347,0.996
		C480.577-289.584,489.349-290.979,499.516-289.982z"/>
	<path fill="#D6C370" d="M500.316-278.023c0,0-1.199,5.385,4.98,8.975c0,0-12.755-4.189-16.543,4.182
		C488.355-276.43,490.149-279.021,500.316-278.023z"/>
	<path fill="#D6C370" d="M506.591-266.32l7.841,2.83c0,0-8.395,3.072-11.97,13.586C499.555-256.896,500.463-262.699,506.591-266.32z
		"/>
	<path fill="#D6C370" d="M832.264-299.982c0,0,4.069,4.984,2.131,10.965c0,0,13.207-8.375,16.89-0.004
		C851.671-300.584,842.146-300.979,832.264-299.982z"/>
	<path fill="#D6C370" d="M832.457-287.023c0,0,0.193,4.385-5.812,7.975c0,0,14.369-4.189,18.051,4.182
		C845.083-286.43,842.339-288.021,832.457-287.023z"/>
	<path fill="#D6C370" d="M825.387-276.32l-7.621,2.83c0,0,8.158,3.072,11.634,13.586
		C832.225-266.896,831.343-272.699,825.387-276.32z"/>
	<path fill="#72C596" d="M544.49-436.402c0,0,139.461,50.713-3.889,123.271L544.49-436.402z"/>
	<path fill="#72C596" d="M793.77-438.875c0,0-124.187,45.307,1.429,119.307L793.77-438.875z"/>
	<path fill="#E06899" d="M998.508-855.822c-2.881-20-6-94.502-1.5-143.002c3.742-40.336,17.835-96.815,42.335-118.186
		c3.563-3.109-30.614-46.478-26.833-49.163c3.811-2.707,45.583,35.274,49.586,33.009c14.496-8.207,30.144-13.496,46.221-15.628
		c5.359-0.709,10.294-53.232,15.722-53.232c6.436,0,13.158,52.648,19.217,53.574c18.174,2.778,34.613,9.509,49.126,18.935
		c2.902,1.885,44.048-32.706,46.795-30.616c3.355,2.555-31.726,41.837-28.608,44.663c29.753,26.976,31.94,73.643,35.44,119.145
		c2.627,34.148,4.752,126.445,1.92,140.279L998.508-855.822z"/>
	<path fill="#E06899" d="M997.007-843.49v46c0,0-4,30-21,37s-27,11-27,31s11,36-6,41s-14,15,0,15s25.353-13.576,26.774-25.658
		c1.963-16.686-8.344-22.576,7.853-32.883c9.972-6.346,19.142-5.398,19.142-5.398l-0.492,53.984c0,0-28.436,6.475-36.318,25.523
		c-11.779,28.465,4.969,47.217,1.042,62.432c-6.038,23.4-23.395,19.502-22.5,28c1,9.5,37.038,0.955,39-28
		c1.114-16.443-2.813-21.393-3.309-29.061c-0.981-15.213,9.325-26.992,23.067-25.518l-0.259,88.578c0,0,0.63,17.896-13.484,28.717
		c-14.724,11.289-18.649,9.816-26.013,16.688c-17.938,16.744-6.871,35.828-15.705,41.719c-14.062,9.377-15.215,21.594-2.945,16.686
		c22.105-8.842,21.777-16.334,24.541-33.373c2.943-18.16,29.606-22.436,29.606-22.436h4l0.903,70.988h111.097l7-400L997.007-843.49z
		"/>
	<path fill="#7DC6DD" d="M993.007-513.49"/>
	<circle fill="#B63C79" cx="974.174" cy="-754.324" r="7.833"/>
	<circle fill="#B63C79" cx="975.174" cy="-733.324" r="6.167"/>
	<circle fill="#B63C79" cx="957.508" cy="-736.658" r="5.834"/>
	<circle fill="#B63C79" cx="966.007" cy="-719.492" r="4.333"/>
	<circle fill="#B63C79" cx="953.341" cy="-725.492" r="4.667"/>
	<circle fill="#B63C79" cx="956.008" cy="-712.158" r="4"/>
	<circle fill="#B63C79" cx="967.508" cy="-705.324" r="3.5"/>
	<circle fill="#B63C79" cx="956.508" cy="-699.324" r="3.834"/>
	<circle fill="#B63C79" cx="963.341" cy="-689.492" r="3.667"/>
	<circle fill="#B63C79" cx="950.341" cy="-687.826" r="3.333"/>
	<circle fill="#B63C79" cx="954.174" cy="-678.99" r="2.833"/>
	<circle fill="#B63C79" cx="940.341" cy="-680.492" r="3"/>
	<circle fill="#B63C79" cx="993.008" cy="-674.824" r="9"/>
	<circle fill="#B63C79" cx="981.674" cy="-652.158" r="8"/>
	<circle fill="#B63C79" cx="971.841" cy="-665.658" r="6.833"/>
	<circle fill="#B63C79" cx="961.175" cy="-653.992" r="6.167"/>
	<circle fill="#B63C79" cx="958.008" cy="-637.49" r="6.167"/>
	<circle fill="#B63C79" cx="972.508" cy="-636.658" r="6.5"/>
	<circle fill="#B63C79" cx="961.508" cy="-621.658" r="4.834"/>
	<circle fill="#B63C79" cx="973.341" cy="-617.158" r="4"/>
	<circle fill="#B63C79" cx="965.841" cy="-606.324" r="3.833"/>
	<circle fill="#B63C79" cx="974.507" cy="-602.658" r="3.833"/>
	<circle fill="#B63C79" cx="964.175" cy="-593.99" r="4.167"/>
	<circle fill="#B63C79" cx="966.674" cy="-577.99" r="3.5"/>
	<circle fill="#B63C79" cx="959.675" cy="-584.49" r="3.333"/>
	<circle fill="#B63C79" cx="974.675" cy="-587.158" r="4.333"/>
	<circle fill="#B63C79" cx="955.841" cy="-569.99" r="3.833"/>
	<circle fill="#B63C79" cx="986.175" cy="-529.324" r="6.167"/>
	<circle fill="#B63C79" cx="975.508" cy="-510.326" r="4.167"/>
	<circle fill="#B63C79" cx="975.841" cy="-522.658" r="3.833"/>
	<circle fill="#B63C79" cx="964.008" cy="-515.158" r="4.333"/>
	<circle fill="#B63C79" cx="950.008" cy="-490.826" r="3"/>
	<circle fill="#B63C79" cx="954.841" cy="-503.992" r="4.167"/>
	<circle fill="#B63C79" cx="965.508" cy="-501.658" r="4.833"/>
	<circle fill="#B63C79" cx="987.675" cy="-515.826" r="5.667"/>
	<circle fill="#B63C79" cx="956.508" cy="-472.326" r="3.5"/>
	<circle fill="#B63C79" cx="945.842" cy="-471.658" r="3.5"/>
	<circle fill="#B63C79" cx="957.508" cy="-484.992" r="3.5"/>
	<circle fill="#B63C79" cx="959.508" cy="-493.326" r="3.5"/>
	<circle fill="#B63C79" cx="948.342" cy="-479.492" r="3"/>
	<circle fill="#B63C79" cx="942.841" cy="-463.658" r="3.167"/>
	<path fill="#E06899" d="M1248.99-842.502l-2.941,45.012c0,0,4.405,30,23.125,37c18.721,7,29.732,11,29.732,31s-12.113,36,6.607,41
		c18.72,5,15.416,15,0,15c-15.417,0-27.919-13.576-29.484-25.658c-2.161-16.686,9.188-22.576-8.646-32.883
		c-10.982-6.346-21.078-5.398-21.078-5.398l0.541,53.984c0,0,31.313,6.475,39.993,25.523c12.972,28.465-5.47,47.217-1.146,62.432
		c6.649,23.4,25.762,19.502,24.776,28c-1.102,9.5-40.785,0.955-42.946-28c-1.228-16.443,3.099-21.393,3.644-29.061
		c1.081-15.213-10.269-26.992-25.401-25.518l0.284,88.578c0,0-0.692,17.896,14.849,28.717c16.215,11.289,20.538,9.816,28.645,16.688
		c19.755,16.744,7.566,35.828,17.295,41.719c15.486,9.377,16.754,21.594,3.242,16.686c-24.34-8.842-23.98-16.334-27.021-33.373
		c-3.244-18.16-32.604-22.436-32.604-22.436h-4.405l3.381,70.988h-141.676l7.253-400H1248.99z"/>
	<path fill="#7DC6DD" d="M1250.454-513.49"/>
	<ellipse fill="#B63C79" cx="1271.192" cy="-754.324" rx="8.626" ry="7.832"/>
	<ellipse fill="#B63C79" cx="1270.09" cy="-733.324" rx="6.791" ry="6.166"/>
	<ellipse fill="#B63C79" cx="1289.545" cy="-736.658" rx="6.423" ry="5.834"/>
	<ellipse fill="#B63C79" cx="1280.185" cy="-719.492" rx="4.771" ry="4.334"/>
	<ellipse fill="#B63C79" cx="1294.133" cy="-725.492" rx="5.139" ry="4.668"/>
	<ellipse fill="#B63C79" cx="1291.197" cy="-712.158" rx="4.405" ry="4"/>
	<ellipse fill="#B63C79" cx="1278.533" cy="-705.324" rx="3.854" ry="3.5"/>
	<ellipse fill="#B63C79" cx="1290.646" cy="-699.324" rx="4.221" ry="3.832"/>
	<ellipse fill="#B63C79" cx="1283.121" cy="-689.492" rx="4.038" ry="3.668"/>
	<ellipse fill="#B63C79" cx="1297.437" cy="-687.826" rx="3.671" ry="3.334"/>
	<ellipse fill="#B63C79" cx="1293.216" cy="-678.99" rx="3.12" ry="2.832"/>
	<ellipse fill="#B63C79" cx="1308.449" cy="-680.492" rx="3.304" ry="3"/>
	<ellipse fill="#B63C79" cx="1250.453" cy="-674.824" rx="9.911" ry="9"/>
	<ellipse fill="#B63C79" cx="1262.933" cy="-652.158" rx="8.81" ry="8"/>
	<ellipse fill="#B63C79" cx="1273.761" cy="-665.658" rx="7.525" ry="6.834"/>
	<ellipse fill="#B63C79" cx="1285.508" cy="-653.992" rx="6.791" ry="6.168"/>
	<ellipse fill="#B63C79" cx="1288.994" cy="-637.49" rx="6.791" ry="6.166"/>
	<ellipse fill="#B63C79" cx="1273.027" cy="-636.658" rx="7.158" ry="6.5"/>
	<ellipse fill="#B63C79" cx="1285.14" cy="-621.658" rx="5.322" ry="4.834"/>
	<ellipse fill="#B63C79" cx="1272.11" cy="-617.158" rx="4.405" ry="4"/>
	<ellipse fill="#B63C79" cx="1280.368" cy="-606.324" rx="4.222" ry="3.832"/>
	<ellipse fill="#B63C79" cx="1270.825" cy="-602.658" rx="4.221" ry="3.834"/>
	<ellipse fill="#B63C79" cx="1282.203" cy="-593.99" rx="4.589" ry="4.166"/>
	<ellipse fill="#B63C79" cx="1279.451" cy="-577.99" rx="3.854" ry="3.5"/>
	<ellipse fill="#B63C79" cx="1287.159" cy="-584.49" rx="3.671" ry="3.334"/>
	<ellipse fill="#B63C79" cx="1270.642" cy="-587.158" rx="4.771" ry="4.334"/>
	<ellipse fill="#B63C79" cx="1291.38" cy="-569.99" rx="4.221" ry="3.834"/>
	<ellipse fill="#B63C79" cx="1257.979" cy="-529.324" rx="6.791" ry="6.166"/>
	<ellipse fill="#B63C79" cx="1269.723" cy="-510.326" rx="4.588" ry="4.166"/>
	<ellipse fill="#B63C79" cx="1269.356" cy="-522.658" rx="4.222" ry="3.834"/>
	<ellipse fill="#B63C79" cx="1282.388" cy="-515.158" rx="4.771" ry="4.334"/>
	<ellipse fill="#B63C79" cx="1297.804" cy="-490.826" rx="3.304" ry="3"/>
	<ellipse fill="#B63C79" cx="1292.481" cy="-503.992" rx="4.588" ry="4.166"/>
	<ellipse fill="#B63C79" cx="1280.735" cy="-501.658" rx="5.322" ry="4.832"/>
	<ellipse fill="#B63C79" cx="1256.325" cy="-515.826" rx="6.239" ry="5.666"/>
	<ellipse fill="#B63C79" cx="1290.646" cy="-472.326" rx="3.854" ry="3.5"/>
	<ellipse fill="#B63C79" cx="1302.393" cy="-471.658" rx="3.854" ry="3.5"/>
	<ellipse fill="#B63C79" cx="1289.545" cy="-484.992" rx="3.854" ry="3.5"/>
	<ellipse fill="#B63C79" cx="1287.342" cy="-493.326" rx="3.854" ry="3.5"/>
	<ellipse fill="#B63C79" cx="1299.64" cy="-479.492" rx="3.304" ry="3"/>
	<ellipse fill="#B63C79" cx="1305.696" cy="-463.658" rx="3.487" ry="3.166"/>
	<path fill="#D65490" d="M1222.34-647.479c0,99.408-43.169,179.988-96.417,179.988s-96.417-80.58-96.417-179.988
		c0-99.43,43.169-180.012,96.417-180.012S1222.34-746.908,1222.34-647.479z"/>
	<path fill="#D65490" d="M1241.174-1000.82c0,19.33-16.977,34.998-37.917,34.998c-20.939,0-37.916-15.668-37.916-34.998
		c0-19.336,16.977-35.004,37.916-35.004C1224.197-1035.824,1241.174-1020.156,1241.174-1000.82z"/>
	<path fill="#D65490" d="M1085.174-997.82c0,19.33-16.977,34.998-37.917,34.998c-20.939,0-37.916-15.668-37.916-34.998
		c0-19.336,16.977-35.004,37.916-35.004C1068.197-1032.824,1085.174-1017.156,1085.174-997.82z"/>
	<g>
		<g>
			<path fill="#7DC6DD" d="M1041.45-1136.832c0.65,0,2.082-0.986,0.781-0.986C1041.581-1137.818,1040.149-1136.832,1041.45-1136.832
				L1041.45-1136.832z"/>
		</g>
	</g>
	<g>
		<g>
			<path fill="none" stroke="#F2E4D2" stroke-miterlimit="10" d="M1209.341-1135.325"/>
		</g>
	</g>
	<g>
		<g>
			<path fill="none" stroke="#F2E4D2" stroke-miterlimit="10" d="M1120.341-1137.325"/>
		</g>
	</g>
	<path fill="#E06899" d="M1247.816-434.824l2.023,127.449c-2.206,25.479,41-4,41,29c0,32.062-120,28-119,14
		c0.778-10.891-6-128-59-122c-32.804,3.715-43.046,125.094-45,129c-3,6-114,29-116-13c-1.813-38.074,45,1,43.169-35.008
		c0,0,2.881-125.732,3.77-129.441H1247.816z"/>
	<path fill="#D6C370" d="M953.849-280.979c0,0-4.187,4.984-2.193,10.965c0,0-12.559-7.375-16.347,0.996
		C934.91-280.58,943.682-281.975,953.849-280.979z"/>
	<path fill="#D6C370" d="M954.649-269.02c0,0-1.199,5.385,4.98,8.975c0,0-12.755-4.189-16.543,4.182
		C942.688-267.426,944.482-270.018,954.649-269.02z"/>
	<path fill="#D6C370" d="M960.924-257.316l7.841,2.83c0,0-8.395,3.072-11.97,13.586
		C953.888-247.893,954.796-253.695,960.924-257.316z"/>
	<path fill="#D6C370" d="M1286.597-290.979c0,0,4.069,4.984,2.131,10.965c0,0,13.207-8.375,16.89-0.004
		C1306.004-291.58,1296.479-291.975,1286.597-290.979z"/>
	<path fill="#D6C370" d="M1286.79-278.02c0,0,0.193,4.385-5.812,7.975c0,0,14.369-4.189,18.051,4.182
		C1299.416-277.426,1296.672-279.018,1286.79-278.02z"/>
	<path fill="#D6C370" d="M1279.72-267.316l-7.621,2.83c0,0,8.158,3.072,11.634,13.586
		C1286.558-257.893,1285.676-263.695,1279.72-267.316z"/>
	<path fill="#D65490" d="M998.823-427.398c0,0,139.461,50.713-3.889,123.271L998.823-427.398z"/>
	<path fill="#D65490" d="M1248.103-429.871c0,0-124.187,45.307,1.429,119.307L1248.103-429.871z"/>
	<path fill="#7DC6DD" d="M1471.548-856.998c-14.841-6.579-23.789-26.916-27.844-53.051c-1.788-11.528,1.847-27.787-13.702,0.717
		c0-18,17.333-89.334,4.667-56.667c-4.14,10.678,21.333-72.667,1.333-39.333c6.911-29.377,31.298-68.685,44.998-80.001
		c15.334-12.667-5.881-12.347-0.666-12.667c32.666-2,6.103-10.462,10.666-12.667c10.205-4.931,18.469,3.03,21.334-0.667
		c5.342-6.894-3.038-7.777-0.667-8.667c10.667-4,12.333,1.333,17.333,3.333c0,0,78.829,6.85,115.667,1.333
		c13.587-2.034,27.333-13.333,23.333-3.333c-2.984,7.46,14.86-1.998,14,4.667c-2.667,20.667,14.95,5.36,16.667,6.667
		c3.355,2.554-12.492,2.034,4,21.333c10.685,12.504,26.993,31.484,35.056,57.408c-7.459-5.424,5.215,15.9,9.275,33.497
		c-12.368-7.215,1.546,9.275,9.791,26.797c-36.072-20.613,5.669,18.036,1.547,51.018c-30.92-43.287,2.061,46.38-37.369,60.06
		L1471.548-856.998z"/>
	<path fill="#52BFD1" d="M1714.213-1001.996c0,19.33-16.977,34.998-37.917,34.998c-20.939,0-37.916-15.668-37.916-34.998
		c0-19.334,16.977-35.002,37.916-35.002C1697.236-1036.998,1714.213-1021.33,1714.213-1001.996z"/>
	<path fill="#52BFD1" d="M1558.213-998.996c0,19.33-16.977,34.998-37.917,34.998c-20.939,0-37.916-15.668-37.916-34.998
		c0-19.334,16.977-35.002,37.916-35.002C1541.236-1033.998,1558.213-1018.33,1558.213-998.996z"/>
	<g>
		<g>
			<path fill="#7DC6DD" d="M1515.489-1137.007c0.65,0,2.082-0.986,0.781-0.986
				C1515.62-1137.993,1514.188-1137.007,1515.489-1137.007L1515.489-1137.007z"/>
		</g>
	</g>
	<g>
		<g>
			<path fill="none" stroke="#F2E4D2" stroke-miterlimit="10" d="M1682.38-1136.5"/>
		</g>
	</g>
	<g>
		<g>
			<path fill="none" stroke="#F2E4D2" stroke-miterlimit="10" d="M1594.38-1137.5"/>
		</g>
	</g>
	<path fill="#7DC6DD" d="M1719.357-435.636l-9.409,174.67c25.552,21.466-2.013,37.357-2.013,37.357l-16.269,154.276
		c25.5,13.5,54.5,3.667,100-13.333c-23.25,14.25,1.334,19,1.334,19s-24.265,14.294,1.271,23.601C1802.822-36.948,1658-33,1651-54.5
		c0,0,54.5-349.5-66.619-332.687C1507.41-376.502,1529.5-54,1529.5-54c-6.593,13.185-92.896,20.783-130.5,15.5
		c0,0,27.5-11-1.75-18.25c21.5-7.75,7.557-13.524-1.978-20.25c0,0,90.308,26.873,97.808,7.873l-6.792-150.537
		c-17.173-8.485-15.362-28.296,0.566-39.05c-2.68-88.741-16.966-175.128-16.536-176.922H1719.357z"/>
	<g>
		<path fill="#7DC6DD" d="M1471.335-842l-29.169,81.501c0,0-3.499,1.334-7.665,8.667c7.166-3.5,4.666,4.001,2.666,6.167
			s-15.021,13.084-16.619,19.779c11.453-8.28,9.911,2.613,5.453,6.054c-3.5,3.5-6.653,2.938-11.05,12.432
			c11.392-4.297,10.973-0.146,7.529,1.911c-4.747,2.835-5.341,3.898-6.479,7.823c11.181-7.685-1.332,14.001-1.332,14.001
			c-17.671,79.09-20.56,135.287-3.667,153.335c-14.824,10.15-21.368,28.406,8.453,35.778c17.5,1.5,14.692-14.629,5.026-24.963
			c-3.834-9.333,13.916,6.672,15.916,1.005s-12.396-20.487-12.396-20.487s-22.334-26.666,12.57-138.943
			c0,0,10.264-28.129,20.282-57.742c0,0-4.478,21.196-8.74,53.028c-0.855,6.389-13.153,37.169-9.446,30.991
			c8-13.334,6.085-2.729,5.684,1.357c-0.17,1.729-5.655,13.741-4.713,12.246c4.14-6.568,5.166-1.213,3.52,0.894
			c-2.89,3.696-9.015,21.556-7.299,18.723c7.738-12.777,8.188-2.879,5.933,0.462c-3.163,4.687-10.582,21.101-7.913,18.254
			c6.748-7.198,9.547,3.516,6.845,7.378c-9.958,14.234-10.776,25.878-8.431,22.894c10.611-13.498,10.493-2.161,8.335,1.698
			c-3.749,6.705-10.029,25.714-7.229,22.834c8.913-9.168,10.601,0.996,8.535,6.278c-1.063,2.72-4.433,16.26-3.44,14.605
			c3.819-6.367,6.741-1.925,4.863,0.593c-6.392,8.571-6.924,28.682-5.458,25.55c6.197-13.243,8.491-4.124,9.554,1.262
			c0.858,4.351-13.12,14.612-6.498,23.865c7.215-17.402,17.675,0.855,13.827,4.472c-3.642,3.422-3.787,19.461-2.453,16.834
			c8.234-16.214,12.568,7.439,13.674,9.465h122.667l-6.001-400H1471.335z"/>
		<path fill="#7DC6DD" d="M1720.146-842l29.169,81.501c0,0,3.499,1.334,7.665,8.667c-7.166-3.5-4.666,4.001-2.666,6.167
			s15.021,13.084,16.619,19.779c-11.453-8.28-9.911,2.613-5.453,6.054c3.5,3.5,6.653,2.938,11.05,12.432
			c-11.392-4.297-10.973-0.146-7.529,1.911c4.747,2.835,5.341,3.898,6.479,7.823c-11.181-7.685,1.332,14.001,1.332,14.001
			c17.671,79.09,20.56,135.287,3.667,153.335c14.824,10.15,21.368,28.406-8.453,35.778c-17.5,1.5-14.692-14.629-5.026-24.963
			c3.834-9.333-13.916,6.672-15.916,1.005s12.396-20.487,12.396-20.487s22.334-26.666-12.57-138.943
			c0,0-10.264-28.129-20.282-57.742c0,0,4.478,21.196,8.74,53.028c0.855,6.389,13.153,37.169,9.446,30.991
			c-8-13.334-6.085-2.729-5.684,1.357c0.17,1.729,5.655,13.741,4.713,12.246c-4.14-6.568-5.166-1.213-3.52,0.894
			c2.89,3.696,9.015,21.556,7.299,18.723c-7.738-12.777-8.188-2.879-5.933,0.462c3.163,4.687,10.582,21.101,7.913,18.254
			c-6.748-7.198-9.547,3.516-6.845,7.378c9.958,14.234,10.776,25.878,8.431,22.894c-10.611-13.498-10.493-2.161-8.335,1.698
			c3.749,6.705,10.029,25.714,7.229,22.834c-8.913-9.168-10.601,0.996-8.535,6.278c1.063,2.72,4.433,16.26,3.44,14.605
			c-3.819-6.367-6.741-1.925-4.863,0.593c6.392,8.571,6.924,28.682,5.458,25.55c-6.197-13.243-8.491-4.124-9.554,1.262
			c-0.858,4.351,13.12,14.612,6.498,23.865c-7.215-17.402-17.675,0.855-13.827,4.472c3.642,3.422,3.787,19.461,2.453,16.834
			c-8.234-16.214-12.568,7.439-13.674,9.465h-135.48l-2.667-400H1720.146z"/>
	</g>
	<path fill="#D6C370" d="M1402.318-504.848c0,0,4.053,5.093,10.311,4.325c0,0-9.722,10.845-2.268,16.22
		C1398.949-486.207,1399.322-495.081,1402.318-504.848z"/>
	<path fill="#D6C370" d="M1413.963-498.72c0,0,6.111,4.142,8.594,0.13c0,0-2.655,9.055,6.141,11.716
		C1417.285-484.968,1414.304-488.509,1413.963-498.72z"/>
	<path fill="#D6C370" d="M1425.671-502.13l3.968-7.332c0,0,1.787,8.758,11.651,13.861
		C1433.943-493.77,1428.34-495.531,1425.671-502.13z"/>
	<path fill="#D6C370" d="M1790.192-507.727c0,0-4.046,5.002-10.296,4.329c0,0,9.717,10.439,2.275,15.757
		C1793.568-489.628,1793.19-498.258,1790.192-507.727z"/>
	<path fill="#D6C370" d="M1779.188-498.697c0,0-4.106,1.216-9.894-0.268c0,0,6.983,7.496,2.014,15.173
		C1781.18-489.824,1781.442-492.058,1779.188-498.697z"/>
	<path fill="#D6C370" d="M1766.738-498.45l-5.555-5.936c0,0,0.318,8.712-8.037,15.979
		C1760.688-488.502,1765.698-491.558,1766.738-498.45z"/>
	<path fill="#7DC6DD" d="M1406-23.75"/>
</g>
<g id="face_layer">
	<g>
		<path fill="#FFFFFF" d="M270.06-1081.959c13.137,9.59,16.013,28.012,6.423,41.151c-9.589,13.137-28.013,16.012-41.149,6.422
			c-8.977-6.553-13.162-17.229-11.854-27.526l41.434-23.063C266.692-1084.162,268.417-1083.158,270.06-1081.959z"/>
		<path d="M254.34-1076.927c4.958,3.62,6.045,10.573,2.425,15.532s-10.575,6.045-15.533,2.426
			c-3.389-2.475-4.969-6.504-4.475-10.391l15.641-8.706C253.069-1077.758,253.72-1077.38,254.34-1076.927z"/>
	</g>
	<g>
		<path fill="#FFFFFF" d="M193.257-1028.598c-19.008,13.562-45.411,9.148-58.974-9.859c-13.562-19.008-9.148-45.412,9.858-58.974
			l66.791,36.417C210.333-1048.525,204.224-1036.424,193.257-1028.598z"/>
		<path d="M175.115-1078.663c-4.997,3.565-6.291,10.32-2.89,15.086c3.401,4.768,10.209,5.74,15.206,2.176
			c3.415-2.438,5.101-6.363,4.741-10.126l-15.109-8.262C176.394-1079.483,175.74-1079.108,175.115-1078.663z"/>
	</g>
	<path d="M168.999-1000.998c14.174-8.723,4.333,21.334,44.333,15.334s25.667-13.334,41.667-17.334s22.797,50.809,16,74
		c-5.667,19.334-26.189-4.748-27-5.334c-12-8.666-50-8.666-68,6.334s-22,10-23,0S155.999-992.998,168.999-1000.998z"/>
	<path fill="#FDFDFE" d="M181.333-994.998c0,0,1.512,34.414,2.863,32.252c1.588-2.541,12.803-13.127,12.803-13.127
		c5.94,3.279,9.289,16.031,9.68,16.08c0.883,0.107,8.861-15.977,13.32-18.539c0.784-0.449,18.56,12.492,20.062,13.834
		c1.706,1.521,0.904-23.66,1.042-28.893C230.152-990.549,195.112-974.939,181.333-994.998z"/>
	<path fill="#FDFDFE" d="M176.124-928.139c0,0,3.743-20.414,3.973-23.883c0.16-2.416,12.961,13.434,14.008,10.816
		c1.883-4.707,5.061-8.943,5.061-8.943c1.588,2.043,9.415,7.414,9.415,7.414c5.94-2.633,11.378-8.67,11.769-8.709
		c0.883-0.086,6.25,7.594,10.709,9.65c0.784,0.361,14.028-8.621,15.064-10.004c1.059-1.412-0.021,15.336,0.117,19.537
		C228.469-945.793,192.79-940.389,176.124-928.139z"/>
	<path d="M632.309-996.029l71.849,1.467c0,0-12.613,48.428-37.971,48.428C640.828-946.135,632.309-996.029,632.309-996.029z"/>
	<path fill="#FDFDFE" d="M647.42-995.658c0,0,2.937,19.846,4.177,21.133l9.35-20.863l16.197,0.334
		c0.549-0.182,6.787,18.557,6.787,18.557c0.454,0.074,5.187-16.428,5.282-18.518C688.384-994.809,647.42-995.658,647.42-995.658z"/>
	<circle fill="#FFFFFF" cx="629.151" cy="-1052.545" r="43.25"/>
	<circle cx="612.151" cy="-1058.545" r="12.25"/>
	<circle fill="#FFFFFF" cx="707.401" cy="-1048.295" r="28.5"/>
	<circle cx="699.401" cy="-1052.795" r="11.25"/>
	<path d="M1162.387-988.165l-71.798-2.698c0,0,12.762-3.942,38.103-3.037C1154.034-992.995,1162.387-988.165,1162.387-988.165z"/>
	<path fill="#FDFDFE" d="M1105.875-993.375c0,0,2.814,19.619,4.055,20.906l9.18-21.578
		C1119.109-994.047,1111.109-993.969,1105.875-993.375z"/>
	<path fill="#FFFFFF" d="M1130.6-1050.837c0.224,23.887-18.957,43.43-42.844,43.652c-23.887,0.224-43.43-18.959-43.652-42.847
		c-0.06-6.469,1.302-12.618,3.798-18.151l77.374-3.063C1128.608-1065.186,1130.531-1058.237,1130.6-1050.837z"/>
	<path d="M1099.13-1043.941c0.374,6.758-4.796,12.538-11.551,12.914c-6.755,0.375-12.537-4.796-12.913-11.553
		c-0.375-6.753,4.796-12.534,11.551-12.91C1092.973-1055.866,1098.753-1050.694,1099.13-1043.941z"/>
	<path fill="#FFFFFF" d="M1190.975-1037.88c-1.824,15.636-15.978,26.83-31.61,25.006c-15.635-1.825-26.829-15.979-25.004-31.613
		c0.506-4.335,1.958-8.326,4.126-11.794l51.118,5.763C1190.97-1046.586,1191.49-1042.292,1190.975-1037.88z"/>
	<circle cx="1162.035" cy="-1036.992" r="11.25"/>
	<path fill="#FDFDFE" d="M1145.5-992.5c0,0-3.533,19.245-4.818,20.489l-8.43-21.881C1132.252-993.892,1140.29-993.273,1145.5-992.5z
		"/>
	<g>
		<path fill="#FFFFFF" d="M1659.94-1082.959c13.137,9.59,16.013,28.012,6.423,41.15c-9.589,13.137-28.013,16.012-41.149,6.422
			c-8.977-6.553-13.162-17.229-11.854-27.525l41.434-23.063C1656.573-1085.162,1658.298-1084.158,1659.94-1082.959z"/>
		<path d="M1644.221-1077.928c4.958,3.621,6.045,10.574,2.425,15.533s-10.575,6.045-15.533,2.426
			c-3.389-2.475-4.969-6.504-4.475-10.391l15.641-8.707C1642.95-1078.758,1643.601-1078.38,1644.221-1077.928z"/>
	</g>
	<g>
		<path fill="#FFFFFF" d="M1583.138-1029.598c-19.008,13.562-45.411,9.148-58.974-9.859s-9.148-45.412,9.858-58.975l66.791,36.418
			C1600.214-1049.525,1594.104-1037.424,1583.138-1029.598z"/>
		<path d="M1564.996-1079.662c-4.997,3.564-6.291,10.32-2.89,15.086c3.401,4.768,10.209,5.74,15.206,2.176
			c3.415-2.438,5.101-6.363,4.741-10.127l-15.109-8.262C1566.274-1080.483,1565.621-1080.108,1564.996-1079.662z"/>
	</g>
	<path d="M1558.88-1001.998c14.174-8.723,4.333,21.334,44.333,15.334s25.667-13.334,41.667-17.334s22.797,50.809,16,74
		c-5.667,19.334-26.189-4.748-27-5.334c-12-8.666-50-8.666-68,6.334s-22,10-23,0S1545.88-993.998,1558.88-1001.998z"/>
	<path fill="#FDFDFE" d="M1571.214-995.998c0,0,1.512,34.414,2.863,32.252c1.588-2.541,12.803-13.127,12.803-13.127
		c5.94,3.279,9.289,16.031,9.68,16.08c0.883,0.107,8.861-15.977,13.32-18.539c0.784-0.449,18.56,12.492,20.062,13.834
		c1.706,1.521,0.904-23.66,1.042-28.893C1620.033-991.549,1584.993-975.939,1571.214-995.998z"/>
	<path fill="#FDFDFE" d="M1566.005-929.139c0,0,3.743-20.414,3.973-23.883c0.16-2.416,12.961,13.434,14.008,10.816
		c1.883-4.707,5.061-8.943,5.061-8.943c1.588,2.043,9.415,7.414,9.415,7.414c5.94-2.633,11.378-8.67,11.769-8.709
		c0.883-0.086,6.25,7.594,10.709,9.65c0.784,0.361,14.028-8.621,15.064-10.004c1.059-1.412-0.021,15.336,0.117,19.537
		C1618.35-946.793,1582.671-941.389,1566.005-929.139z"/>
	<path fill="#DBCD7D" d="M1542.262,365.347c0,0-109.757-119.008-205.662-15.022c108.691-31.195,133.201-3.465,153.447,50.84
		C1509.635,453.695,1542.262,365.347,1542.262,365.347z"/>
	<path fill="#DBCD7D" d="M1792.982,368.812c0,0,109.758-119.008,205.662-15.021c-108.691-31.195-133.2-3.467-153.448,50.839
		C1825.609,457.162,1792.982,368.812,1792.982,368.812z"/>
	<path fill="#7DC6DD" d="M1461.175,820c-25.721-11.403-41.229-46.648-48.256-91.943c-3.1-19.979,3.201-48.157-23.748,1.242
		c0-31.195,30.041-154.824,8.09-98.209c-7.175,18.505,36.972-125.939,2.31-68.168c11.978-50.914,54.242-119.038,77.986-138.652
		c26.576-21.952-10.192-21.398-1.153-21.952c56.613-3.466,10.576-18.131,18.484-21.953c17.688-8.545,32.008,5.253,36.975-1.155
		c9.258-11.947-5.266-13.479-1.156-15.019c18.486-6.934,21.374,2.312,30.039,5.776c0,0,136.62,11.871,200.464,2.311
		c23.547-3.524,47.37-23.107,40.438-5.777c-5.172,12.929,25.755-3.461,24.264,8.088c-4.622,35.818,25.91,9.289,28.886,11.553
		c5.815,4.429-21.65,3.527,6.933,36.975c18.518,21.672,46.781,54.565,60.755,99.494c-12.927-9.399,9.037,27.559,16.075,58.054
		c-21.436-12.503,2.68,16.075,16.968,46.443c-62.517-35.727,9.825,31.258,2.682,88.419c-53.587-75.021,3.571,80.38-64.765,104.089
		L1461.175,820z"/>
	<path fill="#52BFD1" d="M1881.74,568.703c0,33.501-29.423,60.655-65.716,60.655c-36.289,0-65.712-27.154-65.712-60.655
		c0-33.508,29.423-60.663,65.712-60.663C1852.317,508.04,1881.74,535.195,1881.74,568.703z"/>
	<path fill="#52BFD1" d="M1611.375,573.902c0,33.502-29.423,60.655-65.714,60.655s-65.713-27.153-65.713-60.655
		c0-33.508,29.422-60.662,65.713-60.662S1611.375,540.395,1611.375,573.902z"/>
	<g>
		<g>
			<path fill="#7DC6DD" d="M1537.616,334.354c0.65,0,2.082-0.986,0.781-0.986C1537.747,333.367,1536.315,334.354,1537.616,334.354
				L1537.616,334.354z"/>
		</g>
	</g>
	<g>
		<g>
			<path fill="none" stroke="#F2E4D2" stroke-miterlimit="10" d="M1826.569,335.594"/>
		</g>
	</g>
	<g>
		<g>
			<path fill="none" stroke="#F2E4D2" stroke-miterlimit="10" d="M1674.056,333.86"/>
		</g>
	</g>
	<g>
		<path fill="#FFFFFF" d="M1787.68,428.385c22.767,16.621,27.751,48.548,11.131,71.318c-16.618,22.769-48.548,27.751-71.315,11.131
			c-15.558-11.356-22.812-29.859-20.543-47.705l71.809-39.971C1781.844,424.567,1784.832,426.308,1787.68,428.385z"/>
		<path d="M1760.435,437.104c8.594,6.276,10.478,18.327,4.204,26.921c-6.275,8.596-18.328,10.478-26.921,4.205
			c-5.874-4.289-8.611-11.272-7.756-18.009l27.107-15.089C1758.233,435.667,1759.36,436.321,1760.435,437.104z"/>
	</g>
	<g>
		<path fill="#FFFFFF" d="M1654.572,520.867c-32.943,23.505-78.702,15.854-102.207-17.088
			c-23.506-32.943-15.855-78.703,17.085-102.209l115.757,63.116C1684.167,486.33,1673.579,507.303,1654.572,520.867z"/>
		<path d="M1623.131,434.099c-8.661,6.179-10.902,17.887-5.008,26.146c5.894,8.263,17.692,9.948,26.354,3.771
			c5.919-4.225,8.84-11.028,8.217-17.551l-26.186-14.319C1625.347,432.676,1624.214,433.326,1623.131,434.099z"/>
	</g>
	<path d="M1612.53,568.699c24.566-15.117,7.51,36.975,76.835,26.576c69.323-10.399,44.483-23.109,72.213-30.042
		c27.729-6.932,39.51,88.057,27.729,128.25c-9.821,33.507-45.388-8.229-46.794-9.245c-20.797-15.019-86.654-15.019-117.85,10.979
		c-31.196,25.996-38.128,17.331-39.862,0C1583.067,677.885,1590,582.565,1612.53,568.699z"/>
	<path fill="#FDFDFE" d="M1633.907,579.099c0,0,2.619,59.643,4.962,55.896c2.752-4.403,22.189-22.75,22.189-22.75
		c10.294,5.684,16.099,27.784,16.776,27.868c1.529,0.187,15.356-27.688,23.084-32.13c1.359-0.779,32.166,21.65,34.771,23.976
		c2.957,2.638,1.567-41.006,1.806-50.073C1718.516,586.81,1657.788,613.862,1633.907,579.099z"/>
	<path fill="#FDFDFE" d="M1624.879,694.973c0,0,6.488-35.381,6.885-41.393c0.278-4.187,22.464,23.283,24.278,18.748
		c3.263-8.159,8.77-15.501,8.77-15.501c2.752,3.541,16.317,12.851,16.317,12.851c10.296-4.564,19.72-15.027,20.396-15.096
		c1.53-0.148,10.833,13.162,18.561,16.727c1.358,0.626,24.312-14.941,26.109-17.338c1.834-2.447-0.037,26.578,0.202,33.859
		C1715.599,664.376,1653.764,673.742,1624.879,694.973z"/>
	<path fill="#8BCEAB" d="M2280,569.979c-12.848-15.597-193.225-237.528-214.563-281.314c-17.746-36.415-35.029-92-25.188-122.986
		c1.431-4.507-50.296-23.822-48.459-28.081c1.851-4.292,57.271,6.476,59.517,2.461c8.127-14.541,18.752-27.187,31.387-37.355
		c4.211-3.389-18.845-50.839-14.206-53.657c5.5-3.342,38.583,38.162,44.241,35.808c16.975-7.063,34.519-9.849,51.815-9.329
		c3.46,0.104,20.662-50.821,24.095-50.463c4.193,0.441-5.39,52.229-1.258,53.024c39.436,7.605,65.535,46.351,92.154,83.421
		c19.978,27.818,69.72,105.594,74.482,118.888L2280,569.979z"/>
	<path fill="#72C596" d="M2273.069,160.174c10.037,16.521,3.664,38.726-14.232,49.599c-17.895,10.873-40.539,6.299-50.576-10.222
		c-10.04-16.525-3.668-38.729,14.228-49.604C2240.384,139.074,2263.028,143.649,2273.069,160.174z"/>
	<path fill="#72C596" d="M2141.307,243.741c10.037,16.521,3.664,38.727-14.231,49.6c-17.895,10.873-40.539,6.299-50.577-10.222
		c-10.04-16.525-3.667-38.731,14.228-49.603C2108.622,222.644,2131.267,227.218,2141.307,243.741z"/>
	<g>
		<g>
			<path fill="#7DC6DD" d="M2032.817,147.85c0.65,0,2.082-0.986,0.781-0.986C2032.948,146.863,2031.517,147.85,2032.817,147.85
				L2032.817,147.85z"/>
		</g>
	</g>
	<g>
		<g>
			<path fill="none" stroke="#F2E4D2" stroke-miterlimit="10" d="M2176.021,61.755"/>
		</g>
	</g>
	<g>
		<g>
			<path fill="none" stroke="#F2E4D2" stroke-miterlimit="10" d="M2100.296,106.595"/>
		</g>
	</g>
	<path d="M2147.978,244.191l62.165-36.055c0,0,14.366,47.937-7.304,61.104C2181.167,282.408,2147.978,244.191,2147.978,244.191z"/>
	<path fill="#FDFDFE" d="M2161.084,236.661c0,0,12.815,15.437,14.544,15.893l-2.844-22.686l14.016-8.125
		c0.375-0.44,15.436,12.334,15.436,12.334c0.427-0.172-4.098-16.732-5.1-18.567C2196.534,216.117,2161.084,236.661,2161.084,236.661
		z"/>
	<circle fill="#FFFFFF" cx="2115.933" cy="197.531" r="43.251"/>
	<circle cx="2098.289" cy="201.231" r="12.25"/>
	<circle fill="#FFFFFF" cx="2185.014" cy="160.531" r="28.5"/>
	<circle cx="2175.84" cy="160.839" r="11.25"/>
	<path fill="#E06899" d="M-70.226,768.271c8.001-18.555,44.295-83.693,73.489-122.683c24.279-32.428,65.822-73.202,97.88-78.61
		c4.664-0.786-1.796-55.626,2.832-55.938c4.663-0.315,20.413,53.902,25.009,54.064c16.648,0.583,32.752,4.256,47.573,10.843
		c4.938,2.198,36.606-39.994,41.232-37.155c5.486,3.364-16.309,51.758-11.631,55.715c14.041,11.871,24.535,26.204,31.977,41.826
		c1.492,3.123,54.648-4.851,55.898-1.632c1.525,3.931-48.918,19.075-47.74,23.115c11.262,38.55-11.275,79.475-32.083,120.091
		c-15.614,30.482-62.059,110.271-71.707,120.582"/>
	<path fill="#D65490" d="M212.44,771.548c-10.105,16.479-32.77,20.957-50.619,10.009c-17.85-10.949-24.129-33.181-14.023-49.657
		c10.11-16.483,32.774-20.962,50.623-10.014C216.271,732.833,222.551,755.065,212.44,771.548z"/>
	<path fill="#D65490" d="M77.894,692.541c-10.106,16.478-32.77,20.958-50.62,10.009c-17.849-10.947-24.129-33.18-14.022-49.657
		c10.11-16.482,32.772-20.963,50.622-10.015C81.724,653.826,88.003,676.059,77.894,692.541z"/>
	<g>
		<g>
			<path fill="#7DC6DD" d="M113.504,551.462c0.65,0,2.081-0.986,0.78-0.986C113.634,550.476,112.204,551.462,113.504,551.462
				L113.504,551.462z"/>
		</g>
	</g>
	<g>
		<g>
			<path fill="none" stroke="#F2E4D2" stroke-miterlimit="10" d="M255.629,640.249"/>
		</g>
	</g>
	<g>
		<g>
			<path fill="none" stroke="#F2E4D2" stroke-miterlimit="10" d="M180.81,592.011"/>
		</g>
	</g>
	<path d="M138.664,741.143l-59.792-39.84c0,0,12.939,3.312,34.067,17.333C134.07,732.658,138.664,741.143,138.664,741.143z"/>
	<path fill="#FDFDFE" d="M93.216,707.153c0,0-7.858,18.196-7.475,19.941l19.107-13.594
		C104.849,713.501,97.989,709.386,93.216,707.153z"/>
	<path fill="#FFFFFF" d="M144.336,671.1c-12.299,20.479-38.867,27.108-59.346,14.81c-20.478-12.299-27.107-38.868-14.809-59.348
		c3.333-5.545,7.708-10.074,12.728-13.486l67.558,37.843C150.14,657.827,148.146,664.755,144.336,671.1z"/>
	<path d="M113.905,660.523c-3.215,5.956-10.644,8.18-16.599,4.969c-5.954-3.212-8.18-10.643-4.967-16.599
		c3.211-5.953,10.642-8.177,16.596-4.967C114.89,647.14,117.114,654.569,113.905,660.523z"/>
	<path fill="#FFFFFF" d="M189.025,713.711c-9.729,12.374-27.647,14.517-40.019,4.788c-12.373-9.73-14.516-27.647-4.785-40.021
		c2.698-3.431,6.021-6.074,9.683-7.897l40.562,31.64C193.574,706.287,191.773,710.22,189.025,713.711z"/>
	<path d="M172.736,706.291c-3.838,4.884-10.915,5.731-15.799,1.891c-4.884-3.84-5.728-10.915-1.888-15.799
		c3.843-4.883,10.915-5.73,15.799-1.889C175.73,694.334,176.577,701.408,172.736,706.291z"/>
	<path fill="#FDFDFE" d="M126.536,728.618c0,0-13.074,14.558-14.82,14.946l4.255-23.06
		C115.971,720.505,122.499,725.234,126.536,728.618z"/>
</g>
<g id="Layer_4" display="none">
	<g display="inline">
		<g opacity="0.7">
			<g>
				<path fill="#74AFD1" d="M131.408-1128.836c1.935,0,1.935-3,0-3S129.473-1128.836,131.408-1128.836L131.408-1128.836z"/>
			</g>
		</g>
		<g opacity="0.7">
			<g>
				<path fill="#74AFD1" d="M120.258-1134.218c1.935,0,1.935-3,0-3S118.324-1134.218,120.258-1134.218L120.258-1134.218z"/>
			</g>
		</g>
		<g opacity="0.7">
			<g>
				<path fill="#74AFD1" d="M123.623-1139.601c1.935,0,1.935-3,0-3S121.688-1139.601,123.623-1139.601L123.623-1139.601z"/>
			</g>
		</g>
		<g opacity="0.7">
			<g>
				<path fill="#74AFD1" d="M121.796-1124.895c1.935,0,1.935-3,0-3S119.862-1124.895,121.796-1124.895L121.796-1124.895z"/>
			</g>
		</g>
		<g opacity="0.7">
			<g>
				<path fill="#74AFD1" d="M101.324-1157.574c1.935,0,1.935-3,0-3S99.389-1157.574,101.324-1157.574L101.324-1157.574z"/>
			</g>
		</g>
		<g opacity="0.7">
			<g>
				<path fill="#74AFD1" d="M108.628-1152.864c1.935,0,1.935-3,0-3S106.694-1152.864,108.628-1152.864L108.628-1152.864z"/>
			</g>
		</g>
		<g opacity="0.7">
			<g>
				<path fill="#74AFD1" d="M111.416-1146.809c1.935,0,1.935-3,0-3S109.481-1146.809,111.416-1146.809L111.416-1146.809z"/>
			</g>
		</g>
		<g opacity="0.7">
			<g>
				<path fill="#74AFD1" d="M109.494-1140.85c1.935,0,1.935-3,0-3S107.559-1140.85,109.494-1140.85L109.494-1140.85z"/>
			</g>
		</g>
		<g opacity="0.7">
			<g>
				<path fill="#74AFD1" d="M118.817-1144.406c1.935,0,1.935-3,0-3S116.882-1144.406,118.817-1144.406L118.817-1144.406z"/>
			</g>
		</g>
		<g opacity="0.7">
			<g>
				<path fill="#74AFD1" d="M104.88-1149.308c1.935,0,1.935-3,0-3S102.945-1149.308,104.88-1149.308L104.88-1149.308z"/>
			</g>
		</g>
		<g opacity="0.7">
			<g>
				<path fill="#74AFD1" d="M101.9-1153.633c1.935,0,1.935-3,0-3S99.966-1153.633,101.9-1153.633L101.9-1153.633z"/>
			</g>
		</g>
		<g opacity="0.7">
			<g>
				<path fill="#74AFD1" d="M134.099-1132.776c1.935,0,1.935-3,0-3S132.164-1132.776,134.099-1132.776L134.099-1132.776z"/>
			</g>
		</g>
		<g opacity="0.7">
			<g>
				<path fill="#74AFD1" d="M126.986-1136.525c1.935,0,1.935-3,0-3S125.052-1136.525,126.986-1136.525L126.986-1136.525z"/>
			</g>
		</g>
		<g opacity="0.7">
			<g>
				<path fill="#74AFD1" d="M125.353-1131.527c1.935,0,1.935-3,0-3S123.418-1131.527,125.353-1131.527L125.353-1131.527z"/>
			</g>
		</g>
		<g opacity="0.7">
			<g>
				<path fill="#74AFD1" d="M115.356-1139.408c1.935,0,1.935-3,0-3S113.422-1139.408,115.356-1139.408L115.356-1139.408z"/>
			</g>
		</g>
		<g opacity="0.7">
			<g>
				<path fill="#74AFD1" d="M114.684-1134.41c1.935,0,1.935-3,0-3S112.749-1134.41,114.684-1134.41L114.684-1134.41z"/>
			</g>
		</g>
		<g opacity="0.7">
			<g>
				<path fill="#74AFD1" d="M104.111-1154.69c1.935,0,1.935-3,0-3S102.177-1154.69,104.111-1154.69L104.111-1154.69z"/>
			</g>
		</g>
		<g opacity="0.7">
			<g>
				<path fill="#74AFD1" d="M99.017-1159.4c1.935,0,1.935-3,0-3S97.083-1159.4,99.017-1159.4L99.017-1159.4z"/>
			</g>
		</g>
		<g opacity="0.7">
			<g>
				<path fill="#74AFD1" d="M100.459-1155.267c1.935,0,1.935-3,0-3S98.524-1155.267,100.459-1155.267L100.459-1155.267z"/>
			</g>
		</g>
		<g opacity="0.7">
			<g>
				<path fill="#74AFD1" d="M106.514-1154.787c1.935,0,1.935-3,0-3S104.58-1154.787,106.514-1154.787L106.514-1154.787z"/>
			</g>
		</g>
		<g opacity="0.7">
			<g>
				<path fill="#74AFD1" d="M104.496-1151.807c1.935,0,1.935-3,0-3S102.561-1151.807,104.496-1151.807L104.496-1151.807z"/>
			</g>
		</g>
		<g opacity="0.7">
			<g>
				<path fill="#74AFD1" d="M106.898-1151.134c1.935,0,1.935-3,0-3S104.964-1151.134,106.898-1151.134L106.898-1151.134z"/>
			</g>
		</g>
		<g opacity="0.7">
			<g>
				<path fill="#74AFD1" d="M110.743-1151.422c1.935,0,1.935-3,0-3S108.809-1151.422,110.743-1151.422L110.743-1151.422z"/>
			</g>
		</g>
		<g opacity="0.7">
			<g>
				<path fill="#74AFD1" d="M106.129-1147.193c1.935,0,1.935-3,0-3S104.195-1147.193,106.129-1147.193L106.129-1147.193z"/>
			</g>
		</g>
		<g opacity="0.7">
			<g>
				<path fill="#74AFD1" d="M109.013-1150.75c1.935,0,1.935-3,0-3S107.079-1150.75,109.013-1150.75L109.013-1150.75z"/>
			</g>
		</g>
		<g opacity="0.7">
			<g>
				<path fill="#74AFD1" d="M113.146-1149.308c1.935,0,1.935-3,0-3S111.211-1149.308,113.146-1149.308L113.146-1149.308z"/>
			</g>
		</g>
		<g opacity="0.7">
			<g>
				<path fill="#74AFD1" d="M108.821-1148.155c1.935,0,1.935-3,0-3S106.886-1148.155,108.821-1148.155L108.821-1148.155z"/>
			</g>
		</g>
		<g opacity="0.7">
			<g>
				<path fill="#74AFD1" d="M109.013-1144.887c1.935,0,1.935-3,0-3S107.079-1144.887,109.013-1144.887L109.013-1144.887z"/>
			</g>
		</g>
		<g opacity="0.7">
			<g>
				<path fill="#74AFD1" d="M111.704-1143.733c1.935,0,1.935-3,0-3S109.77-1143.733,111.704-1143.733L111.704-1143.733z"/>
			</g>
		</g>
		<g opacity="0.7">
			<g>
				<path fill="#74AFD1" d="M114.78-1145.463c1.935,0,1.935-3,0-3S112.845-1145.463,114.78-1145.463L114.78-1145.463z"/>
			</g>
		</g>
		<g opacity="0.7">
			<g>
				<path fill="#74AFD1" d="M116.798-1142.58c1.935,0,1.935-3,0-3S114.864-1142.58,116.798-1142.58L116.798-1142.58z"/>
			</g>
		</g>
		<g opacity="0.7">
			<g>
				<path fill="#74AFD1" d="M111.993-1138.255c1.935,0,1.935-3,0-3S110.058-1138.255,111.993-1138.255L111.993-1138.255z"/>
			</g>
		</g>
		<g opacity="0.7">
			<g>
				<path fill="#74AFD1" d="M112.473-1141.619c1.935,0,1.935-3,0-3S110.539-1141.619,112.473-1141.619L112.473-1141.619z"/>
			</g>
		</g>
		<g opacity="0.7">
			<g>
				<path fill="#74AFD1" d="M121.027-1142.676c1.935,0,1.935-3,0-3S119.093-1142.676,121.027-1142.676L121.027-1142.676z"/>
			</g>
		</g>
		<g opacity="0.7">
			<g>
				<path fill="#74AFD1" d="M118.817-1138.255c1.935,0,1.935-3,0-3S116.882-1138.255,118.817-1138.255L118.817-1138.255z"/>
			</g>
		</g>
		<g opacity="0.7">
			<g>
				<path fill="#74AFD1" d="M116.702-1132.584c1.935,0,1.935-3,0-3S114.768-1132.584,116.702-1132.584L116.702-1132.584z"/>
			</g>
		</g>
		<g opacity="0.7">
			<g>
				<path fill="#74AFD1" d="M118.528-1128.067c1.935,0,1.935-3,0-3S116.594-1128.067,118.528-1128.067L118.528-1128.067z"/>
			</g>
		</g>
		<g opacity="0.7">
			<g>
				<path fill="#74AFD1" d="M121.796-1130.181c1.935,0,1.935-3,0-3S119.862-1130.181,121.796-1130.181L121.796-1130.181z"/>
			</g>
		</g>
		<g opacity="0.7">
			<g>
				<path fill="#74AFD1" d="M123.814-1119.032c1.935,0,1.935-3,0-3S121.88-1119.032,123.814-1119.032L123.814-1119.032z"/>
			</g>
		</g>
		<g opacity="0.7">
			<g>
				<path fill="#74AFD1" d="M128.14-1126.433c1.935,0,1.935-3,0-3S126.205-1126.433,128.14-1126.433L128.14-1126.433z"/>
			</g>
		</g>
		<g opacity="0.7">
			<g>
				<path fill="#74AFD1" d="M130.542-1121.435c1.935,0,1.935-3,0-3S128.608-1121.435,130.542-1121.435L130.542-1121.435z"/>
			</g>
		</g>
		<g opacity="0.7">
			<g>
				<path fill="#74AFD1" d="M136.501-1126.625c1.935,0,1.935-3,0-3S134.567-1126.625,136.501-1126.625L136.501-1126.625z"/>
			</g>
		</g>
		<g opacity="0.7">
			<g>
				<path fill="#74AFD1" d="M138.52-1129.028c1.935,0,1.935-3,0-3S136.585-1129.028,138.52-1129.028L138.52-1129.028z"/>
			</g>
		</g>
		<g opacity="0.7">
			<g>
				<path fill="#74AFD1" d="M130.062-1133.353c1.935,0,1.935-3,0-3S128.127-1133.353,130.062-1133.353L130.062-1133.353z"/>
			</g>
		</g>
		<g opacity="0.7">
			<g>
				<path fill="#74AFD1" d="M142.269-1126.433c1.935,0,1.935-3,0-3S140.334-1126.433,142.269-1126.433L142.269-1126.433z"/>
			</g>
		</g>
		<g opacity="0.7">
			<g>
				<path fill="#74AFD1" d="M148.228-1127.298c1.935,0,1.935-3,0-3S146.293-1127.298,148.228-1127.298L148.228-1127.298z"/>
			</g>
		</g>
		<g opacity="0.7">
			<g>
				<path fill="#74AFD1" d="M136.598-1121.916c1.935,0,1.935-3,0-3S134.663-1121.916,136.598-1121.916L136.598-1121.916z"/>
			</g>
		</g>
		<g opacity="0.7">
			<g>
				<path fill="#74AFD1" d="M142.941-1119.897c1.935,0,1.935-3,0-3S141.007-1119.897,142.941-1119.897L142.941-1119.897z"/>
			</g>
		</g>
		<g opacity="0.7">
			<g>
				<path fill="#74AFD1" d="M127.083-1116.917c1.935,0,1.935-3,0-3S125.148-1116.917,127.083-1116.917L127.083-1116.917z"/>
			</g>
		</g>
		<g opacity="0.7">
			<g>
				<path fill="#74AFD1" d="M126.025-1109.998c1.935,0,1.935-3,0-3S124.091-1109.998,126.025-1109.998L126.025-1109.998z"/>
			</g>
		</g>
		<g opacity="0.7">
			<g>
				<path fill="#74AFD1" d="M133.811-1115.86c1.935,0,1.935-3,0-3S131.876-1115.86,133.811-1115.86L133.811-1115.86z"/>
			</g>
		</g>
		<g opacity="0.7">
			<g>
				<path fill="#74AFD1" d="M130.542-1111.247c1.935,0,1.935-3,0-3S128.608-1111.247,130.542-1111.247L130.542-1111.247z"/>
			</g>
		</g>
		<g opacity="0.7">
			<g>
				<path fill="#74AFD1" d="M141.211-1113.458c1.935,0,1.935-3,0-3S139.277-1113.458,141.211-1113.458L141.211-1113.458z"/>
			</g>
		</g>
	</g>
	<g display="inline">
		<g opacity="0.7">
			<g>
				<path fill="#74AFD1" d="M212.552-1149.155c1.935,0,1.935-3,0-3S210.617-1149.155,212.552-1149.155L212.552-1149.155z"/>
			</g>
		</g>
		<g opacity="0.7">
			<g>
				<path fill="#74AFD1" d="M207.717-1160.554c1.935,0,1.935-3,0-3C205.783-1163.554,205.783-1160.554,207.717-1160.554
					L207.717-1160.554z"/>
			</g>
		</g>
		<g opacity="0.7">
			<g>
				<path fill="#74AFD1" d="M213.796-1162.382c1.935,0,1.935-3,0-3S211.861-1162.382,213.796-1162.382L213.796-1162.382z"/>
			</g>
		</g>
		<g opacity="0.7">
			<g>
				<path fill="#74AFD1" d="M202.727-1152.528c1.935,0,1.935-3,0-3S200.792-1152.528,202.727-1152.528L202.727-1152.528z"/>
			</g>
		</g>
		<g opacity="0.7">
			<g>
				<path fill="#74AFD1" d="M208.88-1190.597c1.935,0,1.935-3,0-3S206.945-1190.597,208.88-1190.597L208.88-1190.597z"/>
			</g>
		</g>
		<g opacity="0.7">
			<g>
				<path fill="#74AFD1" d="M211.267-1182.24c1.935,0,1.935-3,0-3S209.332-1182.24,211.267-1182.24L211.267-1182.24z"/>
			</g>
		</g>
		<g opacity="0.7">
			<g>
				<path fill="#74AFD1" d="M209.37-1175.849c1.935,0,1.935-3,0-3S207.436-1175.849,209.37-1175.849L209.37-1175.849z"/>
			</g>
		</g>
		<g opacity="0.7">
			<g>
				<path fill="#74AFD1" d="M203.996-1172.636c1.935,0,1.935-3,0-3S202.062-1172.636,203.996-1172.636L203.996-1172.636z"/>
			</g>
		</g>
		<g opacity="0.7">
			<g>
				<path fill="#74AFD1" d="M213.35-1169.164c1.935,0,1.935-3,0-3S211.415-1169.164,213.35-1169.164L213.35-1169.164z"/>
			</g>
		</g>
		<g opacity="0.7">
			<g>
				<path fill="#74AFD1" d="M206.104-1182.038c1.935,0,1.935-3,0-3C204.169-1185.038,204.169-1182.038,206.104-1182.038
					L206.104-1182.038z"/>
			</g>
		</g>
		<g opacity="0.7">
			<g>
				<path fill="#74AFD1" d="M206.715-1187.254c1.935,0,1.935-3,0-3S204.78-1187.254,206.715-1187.254L206.715-1187.254z"/>
			</g>
		</g>
		<g opacity="0.7">
			<g>
				<path fill="#74AFD1" d="M217.173-1150.344c1.935,0,1.935-3,0-3S215.238-1150.344,217.173-1150.344L217.173-1150.344z"/>
			</g>
		</g>
		<g opacity="0.7">
			<g>
				<path fill="#74AFD1" d="M214.298-1157.852c1.935,0,1.935-3,0-3S212.363-1157.852,214.298-1157.852L214.298-1157.852z"/>
			</g>
		</g>
		<g opacity="0.7">
			<g>
				<path fill="#74AFD1" d="M209.773-1155.171c1.935,0,1.935-3,0-3S207.839-1155.171,209.773-1155.171L209.773-1155.171z"/>
			</g>
		</g>
		<g opacity="0.7">
			<g>
				<path fill="#74AFD1" d="M207.453-1167.687c1.935,0,1.935-3,0-3S205.519-1167.687,207.453-1167.687L207.453-1167.687z"/>
			</g>
		</g>
		<g opacity="0.7">
			<g>
				<path fill="#74AFD1" d="M203.652-1164.373c1.935,0,1.935-3,0-3S201.718-1164.373,203.652-1164.373L203.652-1164.373z"/>
			</g>
		</g>
		<g opacity="0.7">
			<g>
				<path fill="#74AFD1" d="M209.074-1186.592c1.935,0,1.935-3,0-3S207.14-1186.592,209.074-1186.592L209.074-1186.592z"/>
			</g>
		</g>
		<g opacity="0.7">
			<g>
				<path fill="#74AFD1" d="M208.35-1193.491c1.935,0,1.935-3,0-3S206.415-1193.491,208.35-1193.491L208.35-1193.491z"/>
			</g>
		</g>
		<g opacity="0.7">
			<g>
				<path fill="#74AFD1" d="M206.708-1189.434c1.935,0,1.935-3,0-3C204.774-1192.434,204.774-1189.434,206.708-1189.434
					L206.708-1189.434z"/>
			</g>
		</g>
		<g opacity="0.7">
			<g>
				<path fill="#74AFD1" d="M210.944-1185.08c1.935,0,1.935-3,0-3S209.01-1185.08,210.944-1185.08L210.944-1185.08z"/>
			</g>
		</g>
		<g opacity="0.7">
			<g>
				<path fill="#74AFD1" d="M207.462-1184.169c1.935,0,1.935-3,0-3C205.528-1187.169,205.528-1184.169,207.462-1184.169
					L207.462-1184.169z"/>
			</g>
		</g>
		<g opacity="0.7">
			<g>
				<path fill="#74AFD1" d="M208.825-1182.081c1.935,0,1.935-3,0-3S206.891-1182.081,208.825-1182.081L208.825-1182.081z"/>
			</g>
		</g>
		<g opacity="0.7">
			<g>
				<path fill="#74AFD1" d="M211.905-1179.761c1.935,0,1.935-3,0-3S209.971-1179.761,211.905-1179.761L211.905-1179.761z"/>
			</g>
		</g>
		<g opacity="0.7">
			<g>
				<path fill="#74AFD1" d="M205.648-1179.625c1.935,0,1.935-3,0-3S203.714-1179.625,205.648-1179.625L205.648-1179.625z"/>
			</g>
		</g>
		<g opacity="0.7">
			<g>
				<path fill="#74AFD1" d="M210.162-1180.396c1.935,0,1.935-3,0-3S208.228-1180.396,210.162-1180.396L210.162-1180.396z"/>
			</g>
		</g>
		<g opacity="0.7">
			<g>
				<path fill="#74AFD1" d="M212.319-1176.588c1.935,0,1.935-3,0-3S210.385-1176.588,212.319-1176.588L212.319-1176.588z"/>
			</g>
		</g>
		<g opacity="0.7">
			<g>
				<path fill="#74AFD1" d="M208.305-1178.572c1.935,0,1.935-3,0-3S206.37-1178.572,208.305-1178.572L208.305-1178.572z"/>
			</g>
		</g>
		<g opacity="0.7">
			<g>
				<path fill="#74AFD1" d="M206.296-1175.988c1.935,0,1.935-3,0-3C204.362-1178.988,204.362-1175.988,206.296-1175.988
					L206.296-1175.988z"/>
			</g>
		</g>
		<g opacity="0.7">
			<g>
				<path fill="#74AFD1" d="M207.559-1173.347c1.935,0,1.935-3,0-3C205.625-1176.347,205.625-1173.347,207.559-1173.347
					L207.559-1173.347z"/>
			</g>
		</g>
		<g opacity="0.7">
			<g>
				<path fill="#74AFD1" d="M211.012-1172.62c1.935,0,1.935-3,0-3S209.077-1172.62,211.012-1172.62L211.012-1172.62z"/>
			</g>
		</g>
		<g opacity="0.7">
			<g>
				<path fill="#74AFD1" d="M210.629-1169.121c1.935,0,1.935-3,0-3S208.694-1169.121,210.629-1169.121L210.629-1169.121z"/>
			</g>
		</g>
		<g opacity="0.7">
			<g>
				<path fill="#74AFD1" d="M204.164-1169.038c1.935,0,1.935-3,0-3S202.229-1169.038,204.164-1169.038L204.164-1169.038z"/>
			</g>
		</g>
		<g opacity="0.7">
			<g>
				<path fill="#74AFD1" d="M206.743-1171.25c1.935,0,1.935-3,0-3S204.809-1171.25,206.743-1171.25L206.743-1171.25z"/>
			</g>
		</g>
		<g opacity="0.7">
			<g>
				<path fill="#74AFD1" d="M213.872-1166.405c1.935,0,1.935-3,0-3S211.938-1166.405,213.872-1166.405L213.872-1166.405z"/>
			</g>
		</g>
		<g opacity="0.7">
			<g>
				<path fill="#74AFD1" d="M209.294-1164.539c1.935,0,1.935-3,0-3S207.359-1164.539,209.294-1164.539L209.294-1164.539z"/>
			</g>
		</g>
		<g opacity="0.7">
			<g>
				<path fill="#74AFD1" d="M203.966-1161.669c1.935,0,1.935-3,0-3S202.032-1161.669,203.966-1161.669L203.966-1161.669z"/>
			</g>
		</g>
		<g opacity="0.7">
			<g>
				<path fill="#74AFD1" d="M202.36-1157.068c1.935,0,1.935-3,0-3S200.426-1157.068,202.36-1157.068L202.36-1157.068z"/>
			</g>
		</g>
		<g opacity="0.7">
			<g>
				<path fill="#74AFD1" d="M206.213-1156.504c1.935,0,1.935-3,0-3S204.278-1156.504,206.213-1156.504L206.213-1156.504z"/>
			</g>
		</g>
		<g opacity="0.7">
			<g>
				<path fill="#74AFD1" d="M200.379-1146.791c1.935,0,1.935-3,0-3S198.444-1146.791,200.379-1146.791L200.379-1146.791z"/>
			</g>
		</g>
		<g opacity="0.7">
			<g>
				<path fill="#74AFD1" d="M208.512-1149.504c1.935,0,1.935-3,0-3S206.577-1149.504,208.512-1149.504L208.512-1149.504z"/>
			</g>
		</g>
		<g opacity="0.7">
			<g>
				<path fill="#74AFD1" d="M207.022-1144.161c1.935,0,1.935-3,0-3S205.088-1144.161,207.022-1144.161L207.022-1144.161z"/>
			</g>
		</g>
		<g opacity="0.7">
			<g>
				<path fill="#74AFD1" d="M214.925-1144.135c1.935,0,1.935-3,0-3S212.99-1144.135,214.925-1144.135L214.925-1144.135z"/>
			</g>
		</g>
		<g opacity="0.7">
			<g>
				<path fill="#74AFD1" d="M218.025-1144.611c1.935,0,1.935-3,0-3S216.091-1144.611,218.025-1144.611L218.025-1144.611z"/>
			</g>
		</g>
		<g opacity="0.7">
			<g>
				<path fill="#74AFD1" d="M214.519-1153.439c1.935,0,1.935-3,0-3S212.584-1153.439,214.519-1153.439L214.519-1153.439z"/>
			</g>
		</g>
		<g opacity="0.7">
			<g>
				<path fill="#74AFD1" d="M219.134-1140.188c1.935,0,1.935-3,0-3S217.199-1140.188,219.134-1140.188L219.134-1140.188z"/>
			</g>
		</g>
		<g opacity="0.7">
			<g>
				<path fill="#74AFD1" d="M224.185-1136.91c1.935,0,1.935-3,0-3S222.25-1136.91,224.185-1136.91L224.185-1136.91z"/>
			</g>
		</g>
		<g opacity="0.7">
			<g>
				<path fill="#74AFD1" d="M211.892-1140.531c1.935,0,1.935-3,0-3S209.957-1140.531,211.892-1140.531L211.892-1140.531z"/>
			</g>
		</g>
		<g opacity="0.7">
			<g>
				<path fill="#74AFD1" d="M215.33-1134.83c1.935,0,1.935-3,0-3S213.396-1134.83,215.33-1134.83L215.33-1134.83z"/>
			</g>
		</g>
		<g opacity="0.7">
			<g>
				<path fill="#74AFD1" d="M201.442-1143.047c1.935,0,1.935-3,0-3S199.507-1143.047,201.442-1143.047L201.442-1143.047z"/>
			</g>
		</g>
		<g opacity="0.7">
			<g>
				<path fill="#74AFD1" d="M196.085-1138.541c1.935,0,1.935-3,0-3S194.15-1138.541,196.085-1138.541L196.085-1138.541z"/>
			</g>
		</g>
		<g opacity="0.7">
			<g>
				<path fill="#74AFD1" d="M205.803-1137.815c1.935,0,1.935-3,0-3S203.869-1137.815,205.803-1137.815L205.803-1137.815z"/>
			</g>
		</g>
		<g opacity="0.7">
			<g>
				<path fill="#74AFD1" d="M200.305-1136.501c1.935,0,1.935-3,0-3S198.371-1136.501,200.305-1136.501L200.305-1136.501z"/>
			</g>
		</g>
		<g opacity="0.7">
			<g>
				<path fill="#74AFD1" d="M209.784-1131.129c1.935,0,1.935-3,0-3S207.85-1131.129,209.784-1131.129L209.784-1131.129z"/>
			</g>
		</g>
	</g>
	<g display="inline">
		<g opacity="0.7">
			<g>
				<path fill="#74AFD1" d="M290.774-1117.122c1.935,0,1.935-3,0-3S288.84-1117.122,290.774-1117.122L290.774-1117.122z"/>
			</g>
		</g>
		<g opacity="0.7">
			<g>
				<path fill="#74AFD1" d="M295.364-1128.621c1.935,0,1.935-3,0-3S293.43-1128.621,295.364-1128.621L295.364-1128.621z"/>
			</g>
		</g>
		<g opacity="0.7">
			<g>
				<path fill="#74AFD1" d="M300.969-1125.64c1.935,0,1.935-3,0-3S299.034-1125.64,300.969-1125.64L300.969-1125.64z"/>
			</g>
		</g>
		<g opacity="0.7">
			<g>
				<path fill="#74AFD1" d="M286.171-1126.434c1.935,0,1.935-3,0-3S284.236-1126.434,286.171-1126.434L286.171-1126.434z"/>
			</g>
		</g>
		<g opacity="0.7">
			<g>
				<path fill="#74AFD1" d="M317.34-1149.14c1.935,0,1.935-3,0-3S315.405-1149.14,317.34-1149.14L317.34-1149.14z"/>
			</g>
		</g>
		<g opacity="0.7">
			<g>
				<path fill="#74AFD1" d="M313.152-1141.524c1.935,0,1.935-3,0-3S311.218-1141.524,313.152-1141.524L313.152-1141.524z"/>
			</g>
		</g>
		<g opacity="0.7">
			<g>
				<path fill="#74AFD1" d="M307.307-1138.321c1.935,0,1.935-3,0-3S305.372-1138.321,307.307-1138.321L307.307-1138.321z"/>
			</g>
		</g>
		<g opacity="0.7">
			<g>
				<path fill="#74AFD1" d="M301.228-1139.822c1.935,0,1.935-3,0-3S299.293-1139.822,301.228-1139.822L301.228-1139.822z"/>
			</g>
		</g>
		<g opacity="0.7">
			<g>
				<path fill="#74AFD1" d="M305.427-1130.771c1.935,0,1.935-3,0-3S303.492-1130.771,305.427-1130.771L305.427-1130.771z"/>
			</g>
		</g>
		<g opacity="0.7">
			<g>
				<path fill="#74AFD1" d="M309.343-1145.016c1.935,0,1.935-3,0-3S307.408-1145.016,309.343-1145.016L309.343-1145.016z"/>
			</g>
		</g>
		<g opacity="0.7">
			<g>
				<path fill="#74AFD1" d="M313.449-1148.29c1.935,0,1.935-3,0-3S311.515-1148.29,313.449-1148.29L313.449-1148.29z"/>
			</g>
		</g>
		<g opacity="0.7">
			<g>
				<path fill="#74AFD1" d="M294.893-1114.713c1.935,0,1.935-3,0-3S292.958-1114.713,294.893-1114.713L294.893-1114.713z"/>
			</g>
		</g>
		<g opacity="0.7">
			<g>
				<path fill="#74AFD1" d="M298.136-1122.07c1.935,0,1.935-3,0-3S296.201-1122.07,298.136-1122.07L298.136-1122.07z"/>
			</g>
		</g>
		<g opacity="0.7">
			<g>
				<path fill="#74AFD1" d="M293.035-1123.351c1.935,0,1.935-3,0-3S291.101-1123.351,293.035-1123.351L293.035-1123.351z"/>
			</g>
		</g>
		<g opacity="0.7">
			<g>
				<path fill="#74AFD1" d="M300.199-1133.873c1.935,0,1.935-3,0-3S298.265-1133.873,300.199-1133.873L300.199-1133.873z"/>
			</g>
		</g>
		<g opacity="0.7">
			<g>
				<path fill="#74AFD1" d="M295.166-1134.195c1.935,0,1.935-3,0-3S293.231-1134.195,295.166-1134.195L295.166-1134.195z"/>
			</g>
		</g>
		<g opacity="0.7">
			<g>
				<path fill="#74AFD1" d="M314.658-1146.159c1.935,0,1.935-3,0-3S312.724-1146.159,314.658-1146.159L314.658-1146.159z"/>
			</g>
		</g>
		<g opacity="0.7">
			<g>
				<path fill="#74AFD1" d="M319-1151.569c1.935,0,1.935-3,0-3S317.065-1151.569,319-1151.569L319-1151.569z"/>
			</g>
		</g>
		<g opacity="0.7">
			<g>
				<path fill="#74AFD1" d="M314.978-1149.842c1.935,0,1.935-3,0-3S313.043-1149.842,314.978-1149.842L314.978-1149.842z"/>
			</g>
		</g>
		<g opacity="0.7">
			<g>
				<path fill="#74AFD1" d="M314.922-1143.769c1.935,0,1.935-3,0-3S312.987-1143.769,314.922-1143.769L314.922-1143.769z"/>
			</g>
		</g>
		<g opacity="0.7">
			<g>
				<path fill="#74AFD1" d="M311.809-1145.573c1.935,0,1.935-3,0-3S309.874-1145.573,311.809-1145.573L311.809-1145.573z"/>
			</g>
		</g>
		<g opacity="0.7">
			<g>
				<path fill="#74AFD1" d="M311.306-1143.129c1.935,0,1.935-3,0-3S309.371-1143.129,311.306-1143.129L311.306-1143.129z"/>
			</g>
		</g>
		<g opacity="0.7">
			<g>
				<path fill="#74AFD1" d="M311.861-1139.314c1.935,0,1.935-3,0-3S309.927-1139.314,311.861-1139.314L311.861-1139.314z"/>
			</g>
		</g>
		<g opacity="0.7">
			<g>
				<path fill="#74AFD1" d="M307.32-1143.622c1.935,0,1.935-3,0-3S305.386-1143.622,307.32-1143.622L307.32-1143.622z"/>
			</g>
		</g>
		<g opacity="0.7">
			<g>
				<path fill="#74AFD1" d="M311.069-1140.993c1.935,0,1.935-3,0-3S309.135-1140.993,311.069-1140.993L311.069-1140.993z"/>
			</g>
		</g>
		<g opacity="0.7">
			<g>
				<path fill="#74AFD1" d="M309.92-1136.769c1.935,0,1.935-3,0-3S307.985-1136.769,309.92-1136.769L309.92-1136.769z"/>
			</g>
		</g>
		<g opacity="0.7">
			<g>
				<path fill="#74AFD1" d="M308.468-1141.004c1.935,0,1.935-3,0-3S306.533-1141.004,308.468-1141.004L308.468-1141.004z"/>
			</g>
		</g>
		<g opacity="0.7">
			<g>
				<path fill="#74AFD1" d="M305.221-1140.583c1.935,0,1.935-3,0-3S303.286-1140.583,305.221-1140.583L305.221-1140.583z"/>
			</g>
		</g>
		<g opacity="0.7">
			<g>
				<path fill="#74AFD1" d="M304.259-1137.818c1.935,0,1.935-3,0-3S302.324-1137.818,304.259-1137.818L304.259-1137.818z"/>
			</g>
		</g>
		<g opacity="0.7">
			<g>
				<path fill="#74AFD1" d="M306.199-1134.872c1.935,0,1.935-3,0-3S304.265-1134.872,306.199-1134.872L306.199-1134.872z"/>
			</g>
		</g>
		<g opacity="0.7">
			<g>
				<path fill="#74AFD1" d="M303.464-1132.656c1.935,0,1.935-3,0-3S301.529-1132.656,303.464-1132.656L303.464-1132.656z"/>
			</g>
		</g>
		<g opacity="0.7">
			<g>
				<path fill="#74AFD1" d="M298.813-1137.148c1.935,0,1.935-3,0-3S296.879-1137.148,298.813-1137.148L298.813-1137.148z"/>
			</g>
		</g>
		<g opacity="0.7">
			<g>
				<path fill="#74AFD1" d="M302.203-1136.904c1.935,0,1.935-3,0-3S300.269-1136.904,302.203-1136.904L302.203-1136.904z"/>
			</g>
		</g>
		<g opacity="0.7">
			<g>
				<path fill="#74AFD1" d="M303.855-1128.444c1.935,0,1.935-3,0-3S301.921-1128.444,303.855-1128.444L303.855-1128.444z"/>
			</g>
		</g>
		<g opacity="0.7">
			<g>
				<path fill="#74AFD1" d="M299.29-1130.341c1.935,0,1.935-3,0-3S297.355-1130.341,299.29-1130.341L299.29-1130.341z"/>
			</g>
		</g>
		<g opacity="0.7">
			<g>
				<path fill="#74AFD1" d="M293.485-1132.054c1.935,0,1.935-3,0-3S291.551-1132.054,293.485-1132.054L293.485-1132.054z"/>
			</g>
		</g>
		<g opacity="0.7">
			<g>
				<path fill="#74AFD1" d="M289.107-1129.916c1.935,0,1.935-3,0-3S287.173-1129.916,289.107-1129.916L289.107-1129.916z"/>
			</g>
		</g>
		<g opacity="0.7">
			<g>
				<path fill="#74AFD1" d="M291.444-1126.803c1.935,0,1.935-3,0-3S289.51-1126.803,291.444-1126.803L291.444-1126.803z"/>
			</g>
		</g>
		<g opacity="0.7">
			<g>
				<path fill="#74AFD1" d="M280.464-1124.012c1.935,0,1.935-3,0-3S278.529-1124.012,280.464-1124.012L280.464-1124.012z"/>
			</g>
		</g>
		<g opacity="0.7">
			<g>
				<path fill="#74AFD1" d="M288.148-1120.214c1.935,0,1.935-3,0-3S286.214-1120.214,288.148-1120.214L288.148-1120.214z"/>
			</g>
		</g>
		<g opacity="0.7">
			<g>
				<path fill="#74AFD1" d="M283.331-1117.467c1.935,0,1.935-3,0-3S281.396-1117.467,283.331-1117.467L283.331-1117.467z"/>
			</g>
		</g>
		<g opacity="0.7">
			<g>
				<path fill="#74AFD1" d="M288.925-1111.886c1.935,0,1.935-3,0-3S286.99-1111.886,288.925-1111.886L288.925-1111.886z"/>
			</g>
		</g>
		<g opacity="0.7">
			<g>
				<path fill="#74AFD1" d="M291.463-1110.041c1.935,0,1.935-3,0-3S289.528-1110.041,291.463-1110.041L291.463-1110.041z"/>
			</g>
		</g>
		<g opacity="0.7">
			<g>
				<path fill="#74AFD1" d="M295.187-1118.78c1.935,0,1.935-3,0-3S293.252-1118.78,295.187-1118.78L295.187-1118.78z"/>
			</g>
		</g>
		<g opacity="0.7">
			<g>
				<path fill="#74AFD1" d="M289.136-1106.12c1.935,0,1.935-3,0-3S287.201-1106.12,289.136-1106.12L289.136-1106.12z"/>
			</g>
		</g>
		<g opacity="0.7">
			<g>
				<path fill="#74AFD1" d="M290.415-1100.236c1.935,0,1.935-3,0-3S288.48-1100.236,290.415-1100.236L290.415-1100.236z"/>
			</g>
		</g>
		<g opacity="0.7">
			<g>
				<path fill="#74AFD1" d="M284.233-1111.461c1.935,0,1.935-3,0-3S282.299-1111.461,284.233-1111.461L284.233-1111.461z"/>
			</g>
		</g>
		<g opacity="0.7">
			<g>
				<path fill="#74AFD1" d="M282.663-1104.992c1.935,0,1.935-3,0-3S280.729-1104.992,282.663-1104.992L282.663-1104.992z"/>
			</g>
		</g>
		<g opacity="0.7">
			<g>
				<path fill="#74AFD1" d="M278.583-1120.604c1.935,0,1.935-3,0-3S276.648-1120.604,278.583-1120.604L278.583-1120.604z"/>
			</g>
		</g>
		<g opacity="0.7">
			<g>
				<path fill="#74AFD1" d="M271.605-1121.175c1.935,0,1.935-3,0-3S269.671-1121.175,271.605-1121.175L271.605-1121.175z"/>
			</g>
		</g>
		<g opacity="0.7">
			<g>
				<path fill="#74AFD1" d="M277.998-1113.818c1.935,0,1.935-3,0-3S276.063-1113.818,277.998-1113.818L277.998-1113.818z"/>
			</g>
		</g>
		<g opacity="0.7">
			<g>
				<path fill="#74AFD1" d="M273.168-1116.755c1.935,0,1.935-3,0-3S271.233-1116.755,273.168-1116.755L273.168-1116.755z"/>
			</g>
		</g>
		<g opacity="0.7">
			<g>
				<path fill="#74AFD1" d="M276.118-1106.268c1.935,0,1.935-3,0-3S274.184-1106.268,276.118-1106.268L276.118-1106.268z"/>
			</g>
		</g>
	</g>
	<g display="inline">
		<g>
			<path fill="#74AFD1" d="M214.783-1173.632c1.935,0,1.935-3,0-3S212.849-1173.632,214.783-1173.632L214.783-1173.632z"/>
		</g>
	</g>
	<g display="inline">
		<g>
			<path fill="#74AFD1" d="M211.09-1189.057c1.935,0,1.935-3,0-3S209.155-1189.057,211.09-1189.057L211.09-1189.057z"/>
		</g>
	</g>
	<g display="inline">
		<g>
			<path fill="#74AFD1" d="M203.269-1176.457c1.935,0,1.935-3,0-3S201.334-1176.457,203.269-1176.457L203.269-1176.457z"/>
		</g>
	</g>
	<g display="inline">
		<g>
			<path fill="#74AFD1" d="M202.4-1170.156c1.935,0,1.935-3,0-3S200.465-1170.156,202.4-1170.156L202.4-1170.156z"/>
		</g>
	</g>
	<g display="inline">
		<g>
			<path fill="#74AFD1" d="M200.662-1161.901c1.935,0,1.935-3,0-3S198.727-1161.901,200.662-1161.901L200.662-1161.901z"/>
		</g>
	</g>
	<g display="inline">
		<g>
			<path fill="#74AFD1" d="M198.924-1154.08c1.935,0,1.935-3,0-3S196.989-1154.08,198.924-1154.08L198.924-1154.08z"/>
		</g>
	</g>
	<g display="inline">
		<g>
			<path fill="#74AFD1" d="M197.837-1147.345c1.935,0,1.935-3,0-3S195.903-1147.345,197.837-1147.345L197.837-1147.345z"/>
		</g>
	</g>
	<g display="inline">
		<g>
			<path fill="#74AFD1" d="M210.872-1159.728c1.935,0,1.935-3,0-3S208.938-1159.728,210.872-1159.728L210.872-1159.728z"/>
		</g>
	</g>
	<g display="inline">
		<g>
			<path fill="#74AFD1" d="M216.304-1169.07c1.935,0,1.935-3,0-3S214.369-1169.07,216.304-1169.07L216.304-1169.07z"/>
		</g>
	</g>
	<g display="inline">
		<g>
			<path fill="#74AFD1" d="M217.173-1164.291c1.935,0,1.935-3,0-3S215.238-1164.291,217.173-1164.291L217.173-1164.291z"/>
		</g>
	</g>
	<g display="inline">
		<g>
			<path fill="#74AFD1" d="M218.693-1158.642c1.935,0,1.935-3,0-3S216.759-1158.642,218.693-1158.642L218.693-1158.642z"/>
		</g>
	</g>
	<g display="inline">
		<g>
			<path fill="#74AFD1" d="M219.562-1153.428c1.935,0,1.935-3,0-3S217.628-1153.428,219.562-1153.428L219.562-1153.428z"/>
		</g>
	</g>
	<g display="inline">
		<g>
			<path fill="#74AFD1" d="M221.735-1146.693c1.935,0,1.935-3,0-3S219.801-1146.693,221.735-1146.693L221.735-1146.693z"/>
		</g>
	</g>
	<g display="inline">
		<g>
			<path fill="#74AFD1" d="M225.428-1142.565c1.935,0,1.935-3,0-3S223.493-1142.565,225.428-1142.565L225.428-1142.565z"/>
		</g>
	</g>
	<g display="inline">
		<g>
			<path fill="#74AFD1" d="M231.294-1139.741c1.935,0,1.935-3,0-3S229.359-1139.741,231.294-1139.741L231.294-1139.741z"/>
		</g>
	</g>
	<g display="inline">
		<g>
			<path fill="#74AFD1" d="M237.377-1138.003c1.935,0,1.935-3,0-3S235.442-1138.003,237.377-1138.003L237.377-1138.003z"/>
		</g>
	</g>
	<g display="inline">
		<g>
			<path fill="#74AFD1" d="M231.294-1134.31c1.935,0,1.935-3,0-3S229.359-1134.31,231.294-1134.31L231.294-1134.31z"/>
		</g>
	</g>
	<g display="inline">
		<g>
			<path fill="#74AFD1" d="M248.674-1134.527c1.935,0,1.935-3,0-3S246.739-1134.527,248.674-1134.527L248.674-1134.527z"/>
		</g>
	</g>
	<g display="inline">
		<g>
			<path fill="#74AFD1" d="M256.061-1131.051c1.935,0,1.935-3,0-3S254.126-1131.051,256.061-1131.051L256.061-1131.051z"/>
		</g>
	</g>
	<g display="inline">
		<g>
			<path fill="#74AFD1" d="M264.315-1128.879c1.935,0,1.935-3,0-3S262.381-1128.879,264.315-1128.879L264.315-1128.879z"/>
		</g>
	</g>
	<g display="inline">
		<g>
			<path fill="#74AFD1" d="M272.137-1125.62c1.935,0,1.935-3,0-3S270.202-1125.62,272.137-1125.62L272.137-1125.62z"/>
		</g>
	</g>
	<g display="inline">
		<g>
			<path fill="#74AFD1" d="M267.574-1123.448c1.935,0,1.935-3,0-3S265.64-1123.448,267.574-1123.448L267.574-1123.448z"/>
		</g>
	</g>
	<g display="inline">
		<g>
			<path fill="#74AFD1" d="M260.405-1127.141c1.935,0,1.935-3,0-3S258.471-1127.141,260.405-1127.141L260.405-1127.141z"/>
		</g>
	</g>
	<g display="inline">
		<g>
			<path fill="#74AFD1" d="M242.808-1133.875c1.935,0,1.935-3,0-3S240.873-1133.875,242.808-1133.875L242.808-1133.875z"/>
		</g>
	</g>
	<g display="inline">
		<g>
			<path fill="#74AFD1" d="M294.079-1107.372c1.935,0,1.935-3,0-3S292.145-1107.372,294.079-1107.372L294.079-1107.372z"/>
		</g>
	</g>
	<g display="inline">
		<g>
			<path fill="#74AFD1" d="M299.728-1100.854c1.935,0,1.935-3,0-3S297.793-1100.854,299.728-1100.854L299.728-1100.854z"/>
		</g>
	</g>
	<g display="inline">
		<g>
			<path fill="#74AFD1" d="M303.855-1094.554c1.935,0,1.935-3,0-3S301.921-1094.554,303.855-1094.554L303.855-1094.554z"/>
		</g>
	</g>
	<g display="inline">
		<g>
			<path fill="#74AFD1" d="M312.328-1079.781c1.935,0,1.935-3,0-3S310.394-1079.781,312.328-1079.781L312.328-1079.781z"/>
		</g>
	</g>
	<g display="inline">
		<g>
			<path fill="#74AFD1" d="M309.286-1085.646c1.935,0,1.935-3,0-3S307.352-1085.646,309.286-1085.646L309.286-1085.646z"/>
		</g>
	</g>
	<g display="inline">
		<g>
			<path fill="#74AFD1" d="M307.331-1090.643c1.935,0,1.935-3,0-3S305.396-1090.643,307.331-1090.643L307.331-1090.643z"/>
		</g>
	</g>
	<g display="inline">
		<g>
			<path fill="#74AFD1" d="M297.555-1096.726c1.935,0,1.935-3,0-3S295.62-1096.726,297.555-1096.726L297.555-1096.726z"/>
		</g>
	</g>
	<g display="inline">
		<g>
			<path fill="#74AFD1" d="M294.079-1102.157c1.935,0,1.935-3,0-3S292.145-1102.157,294.079-1102.157L294.079-1102.157z"/>
		</g>
	</g>
	<g display="inline">
		<g>
			<path fill="#74AFD1" d="M122.017-1108.241c1.935,0,1.935-3,0-3S120.083-1108.241,122.017-1108.241L122.017-1108.241z"/>
		</g>
	</g>
	<g display="inline">
		<g>
			<path fill="#74AFD1" d="M116.151-1101.289c1.935,0,1.935-3,0-3S114.217-1101.289,116.151-1101.289L116.151-1101.289z"/>
		</g>
	</g>
	<g display="inline">
		<g>
			<path fill="#74AFD1" d="M110.937-1093.034c1.935,0,1.935-3,0-3S109.002-1093.034,110.937-1093.034L110.937-1093.034z"/>
		</g>
	</g>
	<g display="inline">
		<g>
			<path fill="#74AFD1" d="M113.327-1097.813c1.935,0,1.935-3,0-3S111.393-1097.813,113.327-1097.813L113.327-1097.813z"/>
		</g>
	</g>
	<g display="inline">
		<g>
			<path fill="#74AFD1" d="M118.758-1104.765c1.935,0,1.935-3,0-3S116.824-1104.765,118.758-1104.765L118.758-1104.765z"/>
		</g>
	</g>
	<g display="inline">
		<g>
			<path fill="#74AFD1" d="M126.579-1106.069c1.935,0,1.935-3,0-3S124.645-1106.069,126.579-1106.069L126.579-1106.069z"/>
		</g>
	</g>
	<g display="inline">
		<g>
			<path fill="#74AFD1" d="M120.496-1102.158c1.935,0,1.935-3,0-3S118.562-1102.158,120.496-1102.158L120.496-1102.158z"/>
		</g>
	</g>
	<g display="inline">
		<g>
			<path fill="#74AFD1" d="M116.585-1096.944c1.935,0,1.935-3,0-3S114.651-1096.944,116.585-1096.944L116.585-1096.944z"/>
		</g>
	</g>
	<g display="inline">
		<g>
			<path fill="#74AFD1" d="M107.244-1087.168c1.935,0,1.935-3,0-3S105.31-1087.168,107.244-1087.168L107.244-1087.168z"/>
		</g>
	</g>
	<g display="inline">
		<g>
			<path fill="#74AFD1" d="M133.966-1108.893c1.935,0,1.935-3,0-3S132.031-1108.893,133.966-1108.893L133.966-1108.893z"/>
		</g>
	</g>
	<g display="inline">
		<g>
			<path fill="#74AFD1" d="M147.87-1123.014c1.935,0,1.935-3,0-3S145.935-1123.014,147.87-1123.014L147.87-1123.014z"/>
		</g>
	</g>
	<g display="inline">
		<g>
			<path fill="#74AFD1" d="M154.822-1129.749c1.935,0,1.935-3,0-3S152.887-1129.749,154.822-1129.749L154.822-1129.749z"/>
		</g>
	</g>
	<g display="inline">
		<g>
			<path fill="#74AFD1" d="M164.38-1132.139c1.935,0,1.935-3,0-3S162.446-1132.139,164.38-1132.139L164.38-1132.139z"/>
		</g>
	</g>
	<g display="inline">
		<g>
			<path fill="#74AFD1" d="M176.329-1131.704c1.935,0,1.935-3,0-3S174.395-1131.704,176.329-1131.704L176.329-1131.704z"/>
		</g>
	</g>
	<g display="inline">
		<g>
			<path fill="#74AFD1" d="M180.24-1136.483c1.935,0,1.935-3,0-3S178.305-1136.483,180.24-1136.483L180.24-1136.483z"/>
		</g>
	</g>
	<g display="inline">
		<g>
			<path fill="#74AFD1" d="M187.626-1141.698c1.935,0,1.935-3,0-3S185.692-1141.698,187.626-1141.698L187.626-1141.698z"/>
		</g>
	</g>
	<g display="inline">
		<g>
			<path fill="#74AFD1" d="M188.278-1136.049c1.935,0,1.935-3,0-3S186.343-1136.049,188.278-1136.049L188.278-1136.049z"/>
		</g>
	</g>
	<g display="inline">
		<g>
			<path fill="#74AFD1" d="M171.333-1135.18c1.935,0,1.935-3,0-3S169.398-1135.18,171.333-1135.18L171.333-1135.18z"/>
		</g>
	</g>
	<g display="inline">
		<g>
			<path fill="#74AFD1" d="M167.856-1129.532c1.935,0,1.935-3,0-3S165.922-1129.532,167.856-1129.532L167.856-1129.532z"/>
		</g>
	</g>
	<g display="inline">
		<g>
			<path fill="#74AFD1" d="M156.125-1125.187c1.935,0,1.935-3,0-3S154.19-1125.187,156.125-1125.187L156.125-1125.187z"/>
		</g>
	</g>
	<g display="inline">
		<g>
			<path fill="#74AFD1" d="M148.304-1117.8c1.935,0,1.935-3,0-3S146.37-1117.8,148.304-1117.8L148.304-1117.8z"/>
		</g>
	</g>
	<g display="inline">
		<g>
			<path fill="#74AFD1" d="M161.339-1128.663c1.935,0,1.935-3,0-3S159.404-1128.663,161.339-1128.663L161.339-1128.663z"/>
		</g>
	</g>
	<g display="inline">
		<g>
			<path fill="#74AFD1" d="M175.46-1139.091c1.935,0,1.935-3,0-3S173.526-1139.091,175.46-1139.091L175.46-1139.091z"/>
		</g>
	</g>
</g>
</svg>
