<?xml version="1.0" encoding="utf-8"?>
<!-- Generator: Adobe Illustrator 15.1.0, SVG Export Plug-In . SVG Version: 6.00 Build 0)  -->
<!DOCTYPE svg PUBLIC "-//W3C//DTD SVG 1.1//EN" "http://www.w3.org/Graphics/SVG/1.1/DTD/svg11.dtd">
<svg version="1.1" id="Layer_1" xmlns="http://www.w3.org/2000/svg" xmlns:xlink="http://www.w3.org/1999/xlink" x="0px" y="0px"
	 width="32px" height="32px" viewBox="0 0 32 32" enable-background="new 0 0 32 32" xml:space="preserve">
<path fill="#010101" d="M1.789,10.656C3.162,1.782,11.953-0.135,16.895,0.081c6.802,0.297,11.891,3.901,13.47,10.348
	c2.578,10.534-2.436,21.131-5.442,20.989c-4.643-0.219-2.137-4.922-4.971-4.686c-2.903,0.242,0.443,5.229-3.876,5.201
	c-4.898-0.031-1.01-5.03-3.676-5.502c-3.886-0.688,0.275,6.1-4.403,5.27C3.26,30.86,0.289,20.349,1.789,10.656z"/>
<circle fill="#FFFFFF" cx="16.829" cy="7.251" r="5.551"/>
<circle fill="#010101" cx="16.829" cy="7.251" r="3.707"/>
<circle fill="#FFFFFF" cx="18.564" cy="6.293" r="0.953"/>
<circle fill="#FFFFFF" cx="19.349" cy="8.192" r="0.478"/>
<path fill="#FDFEFF" d="M11.279,16.702c0,0,0.44,3.678,0.66,3.42c0.258-0.303,2.081-1.563,2.081-1.563
	c0.965,0.391,1.509,1.91,1.573,1.915c0.144,0.014,1.44-1.902,2.165-2.208c0.127-0.054,3.017,1.488,3.26,1.648
	c0.278,0.181,0.147-2.819,0.17-3.442C19.407,16.81,13.518,19.093,11.279,16.702z"/>
<path fill="none" stroke="#FDFEFF" stroke-miterlimit="10" d="M9.683,15.853c1.583,1.934,9.361,2.576,13.083,0"/>
</svg>
