<?xml version="1.0" encoding="utf-8"?>
<!-- Generator: Adobe Illustrator 15.1.0, SVG Export Plug-In . SVG Version: 6.00 Build 0)  -->
<!DOCTYPE svg PUBLIC "-//W3C//DTD SVG 1.1//EN" "http://www.w3.org/Graphics/SVG/1.1/DTD/svg11.dtd">
<svg version="1.1" id="master-artboard" xmlns="http://www.w3.org/2000/svg" xmlns:xlink="http://www.w3.org/1999/xlink" x="0px"
	 y="0px" width="2850px" height="1531.5px" viewBox="0 268.5 2850 1531.5" enable-background="new 0 268.5 2850 1531.5"
	 xml:space="preserve">
<g>
	<g>
		<path fill="none" stroke="#F4E8DA" stroke-miterlimit="10" d="M2713.538-130.914"/>
	</g>
</g>
<path fill="#DBF4FF" d="M-0.447,268.5h2850V1800h-2850V268.5z"/>
<path opacity="0.08" fill="#E5EDD4" enable-background="new    " d="M2007.258,1059.666c0,329.742-267.309,597.051-597.05,597.051
	c-329.742,0-597.051-267.309-597.051-597.051c0-329.742,267.309-597.05,597.051-597.05
	C1739.949,462.616,2007.258,729.924,2007.258,1059.666z"/>
<path opacity="0.08" fill="#E5EDD4" enable-background="new    " d="M1839.877,990.666c0,237.299-192.369,429.67-429.669,429.67l0,0
	c-237.301,0-429.67-192.371-429.67-429.67l0,0c0-237.3,192.369-429.669,429.67-429.669l0,0
	C1647.508,560.997,1839.877,753.366,1839.877,990.666L1839.877,990.666z"/>
<path fill="#7CBF99" d="M2304.574,927.436c-86.219,31.25-166.127,113.84-225.008,120.535
	c-58.881,6.697-92.525-78.125-180.846-49.105c-88.322,29.018-342.768,180.803-485.764,187.5
	c-142.996,6.697-584.6-290.177-681.331-312.5c-80.531-18.584-314.261,71.519-390.299,102.226l-0.015-0.588
	c-35.241,13.707-71.024,26.035-107.239,36.943c-37.728,11.365-78.787,21.115-115.882,7.85
	c-45.161-16.15-73.293-62.465-117.064-82.043v531.592h2849.277v-283.369C2850.404,1186.475,2390.793,896.186,2304.574,927.436z"/>
<path fill="#8BCEAB" d="M2493.662,1265.232c-13.859-2.396-28.014,1.287-41.367,5.707
	c-107.211,35.486-203.426,121.207-315.877,110.781c-112.945-10.469-213.232-118.033-322.52-87.662
	c-40.359,11.217-77.385,41.064-118.955,35.92c-14.057-1.74-27.266-7.469-40.938-11.162
	c-68.658-18.549-139.229,15.018-204.174,44.002c-64.946,28.982-142.095,53.789-204.66,19.969
	c-18.812-10.17-36.252-25.596-57.613-26.584c-23.371-1.08-47.429,15.625-68.803,6.109c-10.824-4.818-17.837-15.322-24.018-25.434
	c-22.766-37.232-42.83-76.898-73.604-107.844c-30.772-30.945-75.674-52.23-117.994-41.58c-26.726,6.727-52.381,25.625-79.155,19.104
	c-17.409-4.242-30.366-18.396-42.202-31.848c-32.396-36.82-64.79-73.641-97.186-110.461c-8.487-9.646-17.462-19.641-29.46-24.24
	c-14.506-5.561-30.779-2.252-45.739,1.938c-81.451,22.811-153.92,69.197-230.565,104.975
	c-76.645,35.779-163.76,61.334-245.337,38.98c-56.063-15.363-91.953-55.426-132.369-97.209l-0.725,177.609
	c0,73.096,29.358,127.844,80.444,166.389c38.217,28.832,90.739,25.949,138.52,22.975c276.286-17.203,553.261,6.533,830.007,12.982
	c201.798,4.703,403.685,0.211,605.486-4.283c226.455-5.041,452.91-10.084,679.365-15.125c43.441-0.967,461.271,11.471,501.405-5.182
	c40.135-16.65-149.129-73.146-188.874-113.645C2625.338,1308.59,2523.793,1270.443,2493.662,1265.232z"/>
<path fill="#65C18E" d="M-141.255,1547.9c27.996-49.223,78.815-84.93,131.757-113.455
	c231.144-124.541,523.025-136.58,783.729-73.961c141.876,34.076,279.82,90.408,386.508,180.596"/>
<path fill="#65C18E" d="M937.955,1409.449c176.567,63.955,374.885,32.617,560.493-3.293
	c185.607-35.908,380.115-75.336,561.996-25.727c53.445,14.578,104.783,36.688,159.852,44.541
	c84.174,12.006,169.01-10.154,253.516-19.957c86.805-10.066,175.371-7.004,261.12,9.029
	c74.789,13.986,153.684,42.443,191.213,103.889c4.113,6.738,7.725,14.781,4.742,22.012c-3.473,8.428-14.113,11.879-23.514,14.271
	c-443.245,112.879-909.999,118.869-1369.185,98.02c-156.547-7.107-313.475-17.311-467.105-46.018
	c-40.468-7.562-82.128-17.037-114.451-40.795c-32.322-23.758-52.616-65.684-37.273-101.135"/>
<path fill="#7DC6DD" d="M-5.256,1539.422h2852.097V1800H-5.256V1539.422z"/>
<g transform="matrix(0.8545081179217417, 0, 0, 0.8545081179217417, 197.4922205457934, 261.88538774086487)" opacity="0.75">
	<path fill="#CFF1FF" d="M1272.4,1664.826c-127.876,16.13-260.081,28.292-394.428,36.294c-29.114,1.735-37.172,14.56-12.746,20.219
		c23.489,5.442,51.874,8.987,79.769,11.09c50.342,3.794,102.996,4.187,151.703,9.947c21.581,2.553,44.927,7.483,46.536,15.234
		c-163.96,21.488-342.833,25.156-512.032,41.22l1801.283-0.784c-7.207-5.435-24.226-10.329-40.674-13.202
		c-159.586-27.865-366.32-7.742-521.776-38.187c90.785-8.29,181.567-16.578,272.349-24.868c20.224-1.847,44.749-5.463,44.97-12.583
		c0.235-7.545-26.715-11.154-48.465-12.642c-148.432-10.157-298.39-17.739-449.087-22.708
		c97.342-6.324,194.684-12.651,292.022-18.978c19.824-1.287,45.345-5.353,40.491-12.016c-3.74-5.124-22.823-6.519-38.269-7.033
		c-103.941-3.46-206.527-11.602-304.237-24.148c37.515-12.146,103.242-11.673,148.079-18.651
		c20.391-3.17,13.842-13.581-8.567-13.746c-77.283-0.569-154.564-1.141-231.84-1.712c-15.762-0.114-37.142-2.121-34.015-7.854
		c1.298-2.382,6.599-4.288,13.319-5.095c53.265-6.388,106.524-12.779,159.785-19.168c8.352-1.001,14.128-3.76,13.314-6.759
		c-0.937-3.481-9.694-4.418-17.522-5.138c-34.118-3.127-68.239-6.256-102.362-9.383c0.48-4.91,13.083-8.48,22.47-12.212
		c11.536-4.59,18.139-12.93-5.938-14.772c-3.04-0.233-6.183-0.302-9.291-0.263c-54.868,0.649-55.501-0.288-38.797-2.299h-141.65
		c-6.057,2.034-50.983,1.634-52.262,3.755c-2.491,4.142,30.073,11.15,17.47,12.249c-27.263,2.373-61.078,4.818-74.845,7.042
		c-5.464,0.88-11.24,1.858-14.349,3.623c-13.448,7.634,35.021,13.209,33.851,22.1c-0.79,6.023-22.881,8.441-40.443,9.275
		c-23.971,1.141-47.947,2.279-71.922,3.419c-26.378,1.255-60.867,5.577-51.354,15.814c5.784,6.224,24.569,9.764,43.575,8.864
		c24.938-1.182,74.039,5.474,59.469,15.469c-2.888,1.979-7.788,3.55-13.615,4.528c-46.749,7.867-97.815,12.75-149.766,14.331
		c-25.084,0.763-59.4,4.183-55.549,12.644c3.472,7.63,34.089,8.542,56.792,8.494c54.081-0.117,108.154,5.673,152.208,16.349
		c3.904,0.946,6.838,2.329,7.899,3.92C1296.944,1660.972,1283.594,1663.413,1272.4,1664.826z"/>
</g>
<path opacity="0.42" fill="none" stroke="#FFFFFF" stroke-width="4" stroke-linecap="round" stroke-miterlimit="10" enable-background="new    " d="
	M1072.224,1757.33h29.654"/>
<path opacity="0.42" fill="none" stroke="#FFFFFF" stroke-width="4" stroke-linecap="round" stroke-miterlimit="10" enable-background="new    " d="
	M1103.669,1558.613h39.354"/>
<path opacity="0.42" fill="none" stroke="#FFFFFF" stroke-width="4" stroke-linecap="round" stroke-miterlimit="10" enable-background="new    " d="
	M1458.467,1558.613h132.826"/>
<path opacity="0.42" fill="none" stroke="#FFFFFF" stroke-width="4" stroke-linecap="round" stroke-miterlimit="10" enable-background="new    " d="
	M1718.774,1558.613h27.561"/>
<path opacity="0.42" fill="none" stroke="#FFFFFF" stroke-width="4" stroke-linecap="round" stroke-miterlimit="10" enable-background="new    " d="
	M1944.131,1558.613h68.371"/>
<path opacity="0.42" fill="none" stroke="#FFFFFF" stroke-width="4" stroke-linecap="round" stroke-miterlimit="10" enable-background="new    " d="
	M1576.752,1580.482h85.9"/>
<path opacity="0.42" fill="none" stroke="#FFFFFF" stroke-width="4" stroke-linecap="round" stroke-miterlimit="10" enable-background="new    " d="
	M1837.557,1580.482h35.777"/>
<path opacity="0.42" fill="none" stroke="#FFFFFF" stroke-width="4" stroke-linecap="round" stroke-miterlimit="10" enable-background="new    " d="
	M1430.694,1580.482h35.777"/>
<path opacity="0.42" fill="none" stroke="#FFFFFF" stroke-width="4" stroke-linecap="round" stroke-miterlimit="10" enable-background="new    " d="
	M1054.92,1649.482h281.562"/>
<path opacity="0.42" fill="none" stroke="#FFFFFF" stroke-width="4" stroke-linecap="round" stroke-miterlimit="10" enable-background="new    " d="
	M1040.968,1703.104h-85.9"/>
<path opacity="0.42" fill="none" stroke="#FFFFFF" stroke-width="4" stroke-linecap="round" stroke-miterlimit="10" enable-background="new    " d="
	M1187.026,1703.104h-35.776"/>
<path opacity="0.42" fill="none" stroke="#FFFFFF" stroke-width="4" stroke-linecap="round" stroke-miterlimit="10" enable-background="new    " d="
	M1130.621,1618.35h66.854"/>
<path opacity="0.42" fill="none" stroke="#FFFFFF" stroke-width="4" stroke-linecap="round" stroke-miterlimit="10" enable-background="new    " d="
	M1723.26,1618.35h16.281"/>
<path opacity="0.42" fill="none" stroke="#FFFFFF" stroke-width="4" stroke-linecap="round" stroke-miterlimit="10" enable-background="new    " d="
	M1294.343,1687.35h308.478"/>
<path opacity="0.42" fill="none" stroke="#FFFFFF" stroke-width="4" stroke-linecap="round" stroke-miterlimit="10" enable-background="new    " d="
	M1390.64,1656.219h67.828"/>
<path opacity="0.42" fill="none" stroke="#FFFFFF" stroke-width="4" stroke-linecap="round" stroke-miterlimit="10" enable-background="new    " d="
	M1579.766,1656.219h23.055"/>
<path fill="#65C18E" d="M689.327,1342.02c1.633-4.912,4.485-9.414,8.227-12.99c2.104,6.756,4.207,13.512,6.311,20.27
	c10.735-18.781,22.958-36.713,36.512-53.572c4.51,12.365,7.871,25.15,10.025,38.135c1.79-4.055,4.37-7.76,7.551-10.846
	c1.098,4.875,2.196,9.75,3.293,14.625c3.849-3.205,7.698-6.412,11.547-9.619c3.386,11.434,5.51,23.24,6.323,35.137
	c5.175-7.137,10.35-14.271,15.525-21.408c3.271,4.498,5.119,10.014,5.221,15.576c3.54-2.844,7.079-5.688,10.619-8.529
	c2.817,6.746,4.806,13.838,5.906,21.064"/>
<path fill="#65C18E" d="M936.824,1405.77c2.201-7.756,5.192-15.287,8.91-22.441c0.525,8.947,2.151,17.828,4.829,26.381
	c1.763-4.771,4.119-9.324,7-13.518c4.38,6.527-1.477,17.482,4.722,22.318c4.908-16.494,11.199-32.576,18.784-48.025
	c0.884-1.799,2.825-3.904,4.476-2.766c4.036,22.592,6.857,45.398,8.449,68.293c4.036-8.668,8.074-17.336,12.111-26.002
	c2.098,8.934,3.617,18.004,4.545,27.133c3.255-4.885,6.511-9.77,9.766-14.654c1.598,7.01,2.159,14.254,1.661,21.424"/>
<path fill="#672140" d="M1515.077,1318.924c0.213-0.656,0.418-1.314,0.631-1.973l-1.199,0.248
	C1514.698,1317.775,1514.891,1318.348,1515.077,1318.924z"/>
<g transform="matrix(1, 0, 0, 1, 0, 0)">
	<path fill="#672140" d="M1825.727,1285.672c0.348-1.262,0.711-2.52,1.076-3.775l-1.619-0.092
		C1825.35,1283.096,1825.518,1284.385,1825.727,1285.672z"/>
</g>
<g>
	<g transform="matrix(1, 0, 0, 1, 0, 0)">
		<path fill="#65C18E" d="M1523.194,1417.189l16.814-3.482c-3.094-9.412-6.768-18.633-11.01-27.586
			C1526.256,1396.303,1524.313,1406.703,1523.194,1417.189z"/>
	</g>
	<path fill="#65C18E" d="M1595.321,1402.246l15.74-3.26c-1.439-8.012-3.783-15.861-6.969-23.352
		c-3.033,8.486-6.064,16.971-9.096,25.457c-4.156-14.992-9.383-29.688-15.65-43.926c-2.27,8.859-4.365,17.762-6.309,26.697
		c-3.562-11.791-7.643-23.426-12.229-34.855c-6.158,21.594-12.699,43.08-19.602,64.449l31.568-6.541l21.125-3.729
		c0.062,0.15,0.123,0.301,0.186,0.449c0.061-0.172,0.123-0.344,0.184-0.514l1.234-0.219
		C1595.446,1402.686,1595.381,1402.467,1595.321,1402.246z"/>
	<g transform="matrix(1, 0, 0, 1, 0, 0)">
		<path fill="#65C18E" d="M1698.508,1362.131c-0.309-4.814-0.574-10.277-4.256-13.395c-2.504,6.533-4.865,13.121-7.096,19.754
			c-1.328-9.68-2.266-19.412-2.777-29.168c-0.293-5.584-0.545-11.484-3.582-16.18c-2.701,13.254-5.402,26.508-8.104,39.762
			c-1.896-6.309-4.424-12.352-8.424-17.541c-5.258,16.301-10.516,32.604-15.773,48.904l55.145-5.66
			C1700.815,1380.047,1699.086,1371.127,1698.508,1362.131z"/>
	</g>
	<path fill="#65C18E" d="M1741.899,1358.375c-0.164-1.559-1.096-3.65-2.576-3.135c-0.756,0.264-1.094,1.125-1.342,1.889
		c-3.045,9.432-6.092,18.865-9.139,28.297c-3.186-11.805-6.371-23.609-9.557-35.416c-3.945,12.824-7.891,25.648-11.836,38.473
		l37.148-4.613C1743.7,1375.371,1742.799,1366.873,1741.899,1358.375z"/>
	<path fill="#65C18E" d="M1847.606,1300.674c-8.316,25.361-16.635,50.723-24.949,76.084l28.027,1.555
		C1847.352,1352.643,1851.774,1326.264,1847.606,1300.674z"/>
	<path fill="#65C18E" d="M1875.055,1351.953c-3.736,7.287-6.791,14.924-9.113,22.777c-1.619-9.822-2.152-19.822-1.586-29.762
		c-4.723,10.873-8.746,22.049-12.053,33.434l25.533,1.416C1877.991,1370.463,1877.055,1361.092,1875.055,1351.953z"/>
	<path fill="#65C18E" d="M1821.653,1348.143c-0.23-7.785-0.527-15.85-3.986-22.83c-6.211,14.375-12.422,28.748-18.633,43.121
		c-1.035-5.076-2.072-10.152-3.109-15.229c-4.006,7.32-6.902,15.25-8.559,23.43l7.9,0.518c-0.174,0.402-0.348,0.809-0.523,1.213
		l26.148,0.564c0.279,0.172,0.578,0.314,0.924,0.385c0.039-0.121,0.08-0.24,0.119-0.361l0.635,0.014
		c-0.018-0.596-0.035-1.189-0.053-1.787c0.045-0.141,0.092-0.279,0.137-0.422l-0.15-0.008
		C1822.221,1367.215,1821.936,1357.68,1821.653,1348.143z"/>
</g>
<path opacity="0.42" fill="none" stroke="#FFFFFF" stroke-width="4" stroke-linecap="round" stroke-miterlimit="10" enable-background="new    " d="
	M154.436,1769.068h29.654"/>
<path opacity="0.42" fill="none" stroke="#FFFFFF" stroke-width="4" stroke-linecap="round" stroke-miterlimit="10" enable-background="new    " d="
	M185.881,1570.352h39.354"/>
<path opacity="0.42" fill="none" stroke="#FFFFFF" stroke-width="4" stroke-linecap="round" stroke-miterlimit="10" enable-background="new    " d="
	M778.972,1743.762h68.37"/>
<path opacity="0.42" fill="none" stroke="#FFFFFF" stroke-width="4" stroke-linecap="round" stroke-miterlimit="10" enable-background="new    " d="
	M658.965,1592.221h85.9"/>
<path opacity="0.42" fill="none" stroke="#FFFFFF" stroke-width="4" stroke-linecap="round" stroke-miterlimit="10" enable-background="new    " d="
	M919.768,1592.221h35.777"/>
<path opacity="0.42" fill="none" stroke="#FFFFFF" stroke-width="4" stroke-linecap="round" stroke-miterlimit="10" enable-background="new    " d="
	M512.906,1592.221h35.776"/>
<path opacity="0.42" fill="none" stroke="#FFFFFF" stroke-width="4" stroke-linecap="round" stroke-miterlimit="10" enable-background="new    " d="
	M137.132,1661.221h281.562"/>
<path opacity="0.42" fill="none" stroke="#FFFFFF" stroke-width="4" stroke-linecap="round" stroke-miterlimit="10" enable-background="new    " d="
	M123.18,1714.842h-85.9"/>
<path opacity="0.42" fill="none" stroke="#FFFFFF" stroke-width="4" stroke-linecap="round" stroke-miterlimit="10" enable-background="new    " d="
	M269.238,1714.842h-35.776"/>
<path opacity="0.42" fill="none" stroke="#FFFFFF" stroke-width="4" stroke-linecap="round" stroke-miterlimit="10" enable-background="new    " d="
	M212.833,1630.09h66.854"/>
<path opacity="0.42" fill="none" stroke="#FFFFFF" stroke-width="4" stroke-linecap="round" stroke-miterlimit="10" enable-background="new    " d="
	M805.472,1630.09h16.281"/>
<path opacity="0.42" fill="none" stroke="#FFFFFF" stroke-width="4" stroke-linecap="round" stroke-miterlimit="10" enable-background="new    " d="
	M376.555,1699.09h308.479"/>
<path opacity="0.42" fill="none" stroke="#FFFFFF" stroke-width="4" stroke-linecap="round" stroke-miterlimit="10" enable-background="new    " d="
	M472.851,1667.959h67.828"/>
<path opacity="0.42" fill="none" stroke="#FFFFFF" stroke-width="4" stroke-linecap="round" stroke-miterlimit="10" enable-background="new    " d="
	M1866.135,1769.07h29.654"/>
<path opacity="0.42" fill="none" stroke="#FFFFFF" stroke-width="4" stroke-linecap="round" stroke-miterlimit="10" enable-background="new    " d="
	M2698.689,1669.711h39.354"/>
<path opacity="0.42" fill="none" stroke="#FFFFFF" stroke-width="4" stroke-linecap="round" stroke-miterlimit="10" enable-background="new    " d="
	M2738.042,1570.354h68.369"/>
<path opacity="0.42" fill="none" stroke="#FFFFFF" stroke-width="4" stroke-linecap="round" stroke-miterlimit="10" enable-background="new    " d="
	M2370.663,1592.223h85.9"/>
<path opacity="0.42" fill="none" stroke="#FFFFFF" stroke-width="4" stroke-linecap="round" stroke-miterlimit="10" enable-background="new    " d="
	M2631.467,1592.223h35.777"/>
<path opacity="0.42" fill="none" stroke="#FFFFFF" stroke-width="4" stroke-linecap="round" stroke-miterlimit="10" enable-background="new    " d="
	M2224.604,1592.223h35.777"/>
<path opacity="0.42" fill="none" stroke="#FFFFFF" stroke-width="4" stroke-linecap="round" stroke-miterlimit="10" enable-background="new    " d="
	M2456.563,1757.33h281.562"/>
<path opacity="0.42" fill="none" stroke="#FFFFFF" stroke-width="4" stroke-linecap="round" stroke-miterlimit="10" enable-background="new    " d="
	M1834.877,1714.844h-85.9"/>
<path opacity="0.42" fill="none" stroke="#FFFFFF" stroke-width="4" stroke-linecap="round" stroke-miterlimit="10" enable-background="new    " d="
	M1980.936,1714.844h-35.775"/>
<path opacity="0.42" fill="none" stroke="#FFFFFF" stroke-width="4" stroke-linecap="round" stroke-miterlimit="10" enable-background="new    " d="
	M1924.532,1630.09h66.854"/>
<path opacity="0.42" fill="none" stroke="#FFFFFF" stroke-width="4" stroke-linecap="round" stroke-miterlimit="10" enable-background="new    " d="
	M2517.17,1630.09h16.281"/>
<path opacity="0.42" fill="none" stroke="#FFFFFF" stroke-width="4" stroke-linecap="round" stroke-miterlimit="10" enable-background="new    " d="
	M2088.252,1699.09h308.479"/>
<path opacity="0.42" fill="none" stroke="#FFFFFF" stroke-width="4" stroke-linecap="round" stroke-miterlimit="10" enable-background="new    " d="
	M2097.487,1618.35h67.828"/>
<g>
	<path fill="#8ACDAB" d="M2845.246,1026.166c-12.848-15.597-193.225-237.528-214.564-281.314
		c-17.745-36.415-35.028-92-25.188-122.986c1.431-4.507-50.297-23.822-48.459-28.081c1.851-4.292,57.271,6.476,59.517,2.461
		c8.127-14.541,18.752-27.187,31.387-37.355c4.21-3.389-18.845-50.839-14.206-53.657c5.5-3.342,38.582,38.162,44.241,35.808
		c16.974-7.063,34.519-9.849,51.815-9.329c3.459,0.104,20.662-50.821,24.095-50.463c4.193,0.441-5.39,52.229-1.258,53.024
		c39.435,7.605,65.535,46.351,92.154,83.421c19.978,27.818,69.72,105.594,74.482,118.888L2845.246,1026.166z"/>
	<path fill="#71C495" d="M2838.314,616.36c10.038,16.521,3.665,38.726-14.231,49.599c-17.895,10.873-40.539,6.299-50.576-10.222
		c-10.04-16.525-3.668-38.729,14.228-49.604C2805.629,595.261,2828.274,599.836,2838.314,616.36z"/>
	<path fill="#71C495" d="M2706.552,699.928c10.037,16.521,3.664,38.727-14.231,49.6c-17.895,10.873-40.54,6.299-50.577-10.222
		c-10.04-16.525-3.667-38.731,14.228-49.603C2673.868,678.83,2696.511,683.404,2706.552,699.928z"/>
	<g>
		<g>
			<path fill="#7DC5DC" d="M2598.063,604.036c0.65,0,2.082-0.986,0.781-0.986C2598.194,603.05,2596.762,604.036,2598.063,604.036
				L2598.063,604.036z"/>
		</g>
	</g>
	<g>
		<g>
			<path fill="none" stroke="#F4E8DA" stroke-miterlimit="10" d="M2741.267,517.941"/>
		</g>
	</g>
	<g>
		<g>
			<path fill="none" stroke="#F4E8DA" stroke-miterlimit="10" d="M2665.542,562.781"/>
		</g>
	</g>
	<path d="M2713.223,700.378l62.165-36.055c0,0,14.366,47.937-7.304,61.104C2746.414,738.595,2713.223,700.378,2713.223,700.378z"/>
	<path fill="#FCFDFF" d="M2726.33,692.848c0,0,12.814,15.437,14.544,15.893l-2.845-22.686l14.017-8.125
		c0.375-0.44,15.435,12.334,15.435,12.334c0.428-0.172-4.097-16.732-5.1-18.567C2761.78,672.304,2726.33,692.848,2726.33,692.848z"
		/>
	<path fill="#FFFFFF" d="M2718.141,631.26c12.403,20.416,5.91,47.019-14.504,59.422s-47.018,5.91-59.423-14.506
		c-12.4-20.412-5.907-47.016,14.507-59.418C2679.135,604.354,2705.738,610.848,2718.141,631.26z"/>
	<circle cx="2663.534" cy="657.417" r="12.251"/>
	<circle fill="#FFFFFF" cx="2750.259" cy="616.718" r="28.499"/>
	<circle cx="2741.085" cy="617.026" r="11.25"/>
</g>
<g>
	<g>
		<path fill="#7DC5DC" d="M91.91,1449.077c0.65,0,2.082-0.986,0.78-0.986C92.04,1448.091,90.609,1449.077,91.91,1449.077
			L91.91,1449.077z"/>
	</g>
</g>
<g>
	<g>
		<path fill="none" stroke="#F4E8DA" stroke-miterlimit="10" d="M144.512,1448.683"/>
	</g>
</g>
<g>
	<path fill="#DF6798" d="M137.923,1656.189c-1.891-13.305-3.872-62.862-0.817-95.115c2.54-26.822,11.985-64.37,28.307-78.555
		c2.374-2.062-20.304-30.951-17.786-32.732c2.538-1.796,30.274,23.519,32.939,22.018c9.652-5.439,20.067-8.938,30.762-10.337
		c3.566-0.465,6.915-35.393,10.524-35.385c4.281,0.007,8.686,35.033,12.713,35.657c12.085,1.87,23.011,6.368,32.651,12.655
		c1.93,1.256,29.338-21.699,31.164-20.305c2.228,1.702-21.154,27.786-19.085,29.671c19.757,17.979,21.152,49.021,23.422,79.29
		c1.704,22.716,3.002,84.108,1.1,93.306"/>
	<path fill="#D5538F" d="M299.508,1560.056c-0.023,12.856-11.336,23.257-25.264,23.23c-13.928-0.027-25.199-10.47-25.174-23.327
		c0.023-12.86,11.336-23.26,25.263-23.232C288.26,1536.752,299.532,1547.194,299.508,1560.056z"/>
	<path fill="#D5538F" d="M195.745,1561.853c-0.024,12.858-11.335,23.258-25.264,23.23c-13.926-0.026-25.2-10.468-25.174-23.325
		c0.024-12.86,11.334-23.261,25.262-23.233C184.498,1538.55,195.769,1548.993,195.745,1561.853z"/>
	<path d="M247.089,1568.373l-47.75-1.886c0,0,8.493-2.605,25.347-1.972C241.54,1565.149,247.089,1568.373,247.089,1568.373z"/>
	<path fill="#FCFDFF" d="M209.507,1564.836c0,0,1.849,13.053,2.671,13.91l6.133-14.34
		C218.311,1564.406,212.991,1564.448,209.507,1564.836z"/>
	<path fill="#FFFFFF" d="M226.026,1526.648c0.119,15.888-12.665,28.862-28.552,28.98c-15.888,0.118-28.862-12.665-28.98-28.554
		c-0.031-4.303,0.882-8.39,2.55-12.068l51.466-1.938C224.72,1517.103,225.989,1521.727,226.026,1526.648z"/>
	<circle cx="196.95" cy="1531.632" r="8.148"/>
	<path fill="#FFFFFF" d="M266.165,1535.344c-1.232,10.396-10.66,17.824-21.056,16.591c-10.396-1.234-17.824-10.661-16.589-21.058
		c0.342-2.883,1.312-5.536,2.758-7.84l33.993,3.897C266.174,1529.553,266.516,1532.409,266.165,1535.344z"/>
	<circle cx="246.917" cy="1535.897" r="7.483"/>
	<path fill="#FCFDFF" d="M235.863,1565.469c0,0-2.375,12.796-3.232,13.622l-5.578-14.564
		C227.053,1564.526,232.398,1564.947,235.863,1565.469z"/>
</g>
<g>
	<path fill="#51BED1" d="M1934.944,1179.727l-18.186,47.271c0,0-2.181,0.773-4.778,5.027c4.468-2.03,2.909,2.32,1.662,3.576
		c-1.247,1.257-9.364,7.589-10.36,11.473c7.14-4.803,6.179,1.516,3.398,3.511c-2.181,2.03-4.147,1.704-6.888,7.21
		c7.101-2.492,6.84-0.084,4.693,1.108c-2.96,1.645-3.33,2.262-4.04,4.538c6.972-4.457-0.83,8.12-0.83,8.12
		c-11.017,45.872-12.817,78.467-2.286,88.935c-9.241,5.888-13.322,16.476,5.271,20.751c10.909,0.87,9.16-8.484,3.134-14.478
		c-2.391-5.414,8.676,3.869,9.923,0.582c1.245-3.286-7.729-11.882-7.729-11.882s-13.924-15.467,7.836-80.588
		c0,0,6.399-16.314,12.646-33.49c0,0-2.792,12.294-5.448,30.757c-0.534,3.705-8.2,21.558-5.89,17.975
		c4.986-7.733,3.793-1.583,3.543,0.787c-0.105,1.003-3.525,7.97-2.938,7.103c2.58-3.81,3.221-0.703,2.193,0.519
		c-1.801,2.144-5.62,12.502-4.55,10.859c4.824-7.411,5.104-1.67,3.699,0.268c-1.973,2.719-6.598,12.238-4.934,10.587
		c4.207-4.175,5.951,2.039,4.267,4.279c-6.208,8.256-6.718,15.01-5.256,13.278c6.615-7.828,6.542-1.253,5.196,0.985
		c-2.337,3.889-6.252,14.914-4.507,13.243c5.557-5.317,6.608,0.578,5.321,3.642c-0.663,1.578-2.764,9.431-2.146,8.472
		c2.382-3.693,4.203-1.116,3.032,0.344c-3.984,4.972-4.316,16.635-3.403,14.818c3.864-7.681,5.294-2.392,5.956,0.732
		c0.536,2.523-8.179,8.475-4.051,13.842c4.498-10.094,11.019,0.496,8.62,2.594c-2.271,1.984-2.36,11.287-1.529,9.764
		c5.135-9.404,7.836,4.314,8.524,5.489h76.477l-3.741-232H1934.944z"/>
	<path fill="#51BED1" d="M2090.062,1179.727l18.186,47.271c0,0,2.181,0.773,4.779,5.027c-4.468-2.03-2.91,2.32-1.663,3.576
		c1.247,1.257,9.364,7.589,10.361,11.473c-7.141-4.803-6.18,1.516-3.399,3.511c2.182,2.03,4.148,1.704,6.889,7.21
		c-7.102-2.492-6.841-0.084-4.694,1.108c2.96,1.645,3.33,2.262,4.04,4.538c-6.971-4.457,0.83,8.12,0.83,8.12
		c11.017,45.872,12.817,78.467,2.286,88.935c9.242,5.888,13.321,16.476-5.27,20.751c-10.91,0.87-9.16-8.484-3.135-14.478
		c2.392-5.414-8.676,3.869-9.922,0.582c-1.247-3.286,7.729-11.882,7.729-11.882s13.923-15.467-7.837-80.588
		c0,0-6.399-16.314-12.646-33.49c0,0,2.792,12.294,5.449,30.757c0.533,3.705,8.2,21.558,5.889,17.975
		c-4.986-7.733-3.793-1.583-3.542,0.787c0.104,1.003,3.524,7.97,2.938,7.103c-2.581-3.81-3.222-0.703-2.194,0.519
		c1.801,2.144,5.62,12.502,4.55,10.859c-4.824-7.411-5.104-1.67-3.698,0.268c1.972,2.719,6.597,12.238,4.933,10.587
		c-4.206-4.175-5.951,2.039-4.267,4.279c6.208,8.256,6.718,15.01,5.256,13.278c-6.615-7.828-6.542-1.253-5.196,0.985
		c2.338,3.889,6.253,14.914,4.508,13.243c-5.558-5.317-6.609,0.578-5.321,3.642c0.662,1.578,2.763,9.431,2.145,8.472
		c-2.382-3.693-4.203-1.116-3.032,0.344c3.985,4.972,4.317,16.635,3.403,14.818c-3.863-7.681-5.294-2.392-5.956,0.732
		c-0.536,2.523,8.179,8.475,4.051,13.842c-4.498-10.094-11.019,0.496-8.62,2.594c2.271,1.984,2.36,11.287,1.529,9.764
		c-5.133-9.404-7.835,4.314-8.524,5.489h-84.465l-1.662-232H2090.062z"/>
</g>
<path fill="#D5C270" d="M1891.916,1375.275c0,0,2.526,2.953,6.427,2.508c0,0-6.061,6.29-1.412,9.408
	C1889.816,1386.087,1890.047,1380.939,1891.916,1375.275z"/>
<path fill="#D5C270" d="M1899.176,1378.829c0,0,3.81,2.402,5.357,0.075c0,0-1.655,5.252,3.828,6.795
	C1901.247,1386.806,1899.388,1384.752,1899.176,1378.829z"/>
<path fill="#D5C270" d="M1906.474,1376.852l2.475-4.253c0,0,1.113,5.079,7.264,8.04
	C1911.631,1381.7,1908.138,1380.679,1906.474,1376.852z"/>
<path fill="#D5C270" d="M2133.732,1373.605c0,0-2.522,2.9-6.419,2.511c0,0,6.058,6.055,1.418,9.139
	C2135.836,1384.103,2135.601,1379.097,2133.732,1373.605z"/>
<path fill="#D5C270" d="M2126.871,1378.842c0,0-2.56,0.705-6.168-0.155c0,0,4.354,4.349,1.256,8.801
	C2128.113,1383.988,2128.277,1382.693,2126.871,1378.842z"/>
<path fill="#D5C270" d="M2119.11,1378.985l-3.463-3.442c0,0,0.198,5.053-5.012,9.268
	C2115.337,1384.756,2118.46,1382.983,2119.11,1378.985z"/>
<polygon fill="#51BED1" points="2013.698,1067.562 2069.943,1074.412 2053.482,1076.401 2092.618,1094.481 2074.521,1096.237 
	2108.302,1127.251 2097.444,1126.081 2111.921,1168.213 2101.063,1160.605 2105.889,1202.153 2094.327,1184.305 2093.221,1226.729 
	2080.655,1204.59 2077.839,1240.481 2070.198,1222.536 2068.992,1253.745 2056.926,1238.53 2062.256,1260.669 2044.159,1241.944 
	2040.137,1268.472 2029.178,1244.772 2024.453,1271.202 2013.494,1248.283 2002.736,1272.763 1998.713,1248.381 1992.28,1268.862 
	1982.226,1250.526 1972.875,1268.959 1969.256,1244.383 1960.409,1256.477 1949.953,1231.118 1945.127,1248.284 1938.818,1215.498 
	1928.236,1233.068 1928.637,1196.398 1917.678,1202.153 1924.918,1163.531 1909.234,1168.798 1933.364,1124.911 1912.853,1124.325 
	1947.238,1097.407 1931.553,1093.896 1973.911,1076.401 1961.964,1072.07 "/>
<path fill="#51BED1" d="M1985.17,1160.975c0,13.936-12.238,25.23-27.335,25.23c-15.096,0-27.334-11.295-27.334-25.23
	c0-13.938,12.238-25.233,27.334-25.233C1972.932,1135.741,1985.17,1147.036,1985.17,1160.975z"/>
<path fill="#FFFFFF" d="M2042.369,1114.831c0,17.52-14.803,43.256-32.321,43.256s-31.48-24.655-31.48-42.175
	c0,0,20.993,10.956,31.501,10.159C2021.121,1125.234,2042.369,1114.831,2042.369,1114.831z"/>
<path d="M2025.991,1121.932c0,8.76-6.703,19.334-15.463,19.334s-15.824-9.539-15.824-18.299c0,0,12.224,3.188,15.364,3.104
	C2013.209,1125.988,2025.991,1121.932,2025.991,1121.932z"/>
<g>
	<path d="M1979.658,1158.092c10.218-6.288,3.124,15.381,31.961,11.055c28.837-4.325,18.504-9.612,30.038-12.496
		c11.535-2.884,16.435,36.629,11.535,53.349c-4.086,13.938-18.881-3.424-19.465-3.846c-8.651-6.248-36.047-6.248-49.023,4.566
		c-12.977,10.813-15.859,7.209-16.581,0C1967.402,1203.511,1970.286,1163.859,1979.658,1158.092z"/>
	<path fill="#FCFDFF" d="M1988.549,1162.418c0,0,1.09,24.81,2.064,23.251c1.145-1.832,9.229-9.464,9.229-9.464
		c4.282,2.364,6.697,11.558,6.979,11.593c0.637,0.077,6.389-11.518,9.603-13.365c0.565-0.324,13.38,9.006,14.464,9.974
		c1.229,1.097,0.651-17.058,0.751-20.83C2023.745,1165.625,1998.483,1176.878,1988.549,1162.418z"/>
	<path fill="#FCFDFF" d="M1984.794,1210.618c0,0,2.698-14.717,2.863-17.218c0.116-1.741,9.345,9.685,10.099,7.798
		c1.357-3.394,3.648-6.447,3.648-6.447c1.145,1.473,6.788,5.345,6.788,5.345c4.282-1.898,8.202-6.25,8.483-6.278
		c0.637-0.062,4.506,5.475,7.721,6.957c0.565,0.261,10.113-6.215,10.86-7.212c0.763-1.019-0.015,11.056,0.085,14.085
		C2022.531,1197.891,1996.809,1201.787,1984.794,1210.618z"/>
</g>
<g>
	<path fill="#51BED1" d="M2089.625,1378.312l1.232,93.818c-1.344,18.755,24.986-2.944,24.986,21.348
		c0,23.603-73.128,20.612-72.519,10.306c0.475-8.018-3.656-94.224-35.955-89.807c-19.989,2.733-26.231,92.084-27.422,94.96
		c-1.828,4.417-70.081,22.084-71.301-8.833c-1.104-28.028,28.034,0,26.916-26.507c0,0,1.757-92.555,2.298-95.285H2089.625z"/>
	<path fill="#D5C270" d="M1910.482,1491.562c0,0-2.551,3.668-1.336,8.071c0,0-7.654-5.43-9.962,0.733
		C1898.94,1491.855,1904.286,1490.828,1910.482,1491.562z"/>
	<path fill="#D5C270" d="M1910.361,1501.102c0,0-0.123,3.228,3.645,5.87c0,0-8.383-2.348-10.69,3.814
		C1903.073,1502.275,1904.164,1500.367,1910.361,1501.102z"/>
	<path fill="#D5C270" d="M1914.793,1508.979l4.779,2.084c0,0-5.115,2.262-7.295,10.001
		C1910.506,1515.918,1911.059,1511.646,1914.793,1508.979z"/>
	<path fill="#D5C270" d="M2113.258,1484.201c0,0,2.48,3.668,1.298,8.071c0,0,7.44-5.43,9.684,0.733
		C2124.476,1484.494,2119.282,1483.467,2113.258,1484.201z"/>
	<path fill="#D5C270" d="M2113.376,1493.74c0,0,0.118,3.229-3.542,5.87c0,0,8.146-2.348,10.391,3.814
		C2120.461,1494.914,2119.398,1493.006,2113.376,1493.74z"/>
	<path fill="#D5C270" d="M2109.068,1501.619l-4.645,2.083c0,0,4.972,2.262,7.089,10.002
		C2113.235,1508.557,2112.697,1504.285,2109.068,1501.619z"/>
</g>
</svg>
