<?xml version="1.0" encoding="utf-8"?>
<!-- Generator: Adobe Illustrator 15.1.0, SVG Export Plug-In . SVG Version: 6.00 Build 0)  -->
<!DOCTYPE svg PUBLIC "-//W3C//DTD SVG 1.1//EN" "http://www.w3.org/Graphics/SVG/1.1/DTD/svg11.dtd">
<svg version="1.1" id="master-artboard" xmlns="http://www.w3.org/2000/svg" xmlns:xlink="http://www.w3.org/1999/xlink" x="0px"
	 y="0px" width="2850px" height="1856.947px" viewBox="0 -56.947 2850 1856.947" enable-background="new 0 -56.947 2850 1856.947"
	 xml:space="preserve">
<g>
	<g>
		<path fill="none" stroke="#F4E8DA" stroke-miterlimit="10" d="M2713.538-130.914"/>
	</g>
</g>
<path fill="#DBF4FF" d="M-0.447-56.947h2850V1800h-2850V-56.947z"/>
<path opacity="0.08" fill="#E5EDD4" enable-background="new    " d="M2007.258,1059.666c0,329.742-267.309,597.051-597.05,597.051
	c-329.742,0-597.051-267.309-597.051-597.051c0-329.742,267.309-597.05,597.051-597.05
	C1739.949,462.616,2007.258,729.924,2007.258,1059.666z"/>
<path opacity="0.08" fill="#E5EDD4" enable-background="new    " d="M1839.877,990.666c0,237.299-192.369,429.67-429.669,429.67l0,0
	c-237.301,0-429.67-192.371-429.67-429.67l0,0c0-237.3,192.369-429.669,429.67-429.669l0,0
	C1647.508,560.997,1839.877,753.366,1839.877,990.666L1839.877,990.666z"/>
<path fill="#7CBF99" d="M2304.574,927.436c-86.219,31.25-166.127,113.84-225.008,120.535
	c-58.881,6.697-92.525-78.125-180.846-49.105c-88.322,29.018-342.768,180.803-485.764,187.5
	c-142.996,6.697-584.6-290.177-681.331-312.5c-80.531-18.584-314.261,71.519-390.299,102.226l-0.015-0.588
	c-35.241,13.707-71.024,26.035-107.239,36.943c-37.728,11.365-78.787,21.115-115.882,7.85
	c-45.161-16.15-73.293-62.465-117.064-82.043v531.592h2849.277v-283.369C2850.404,1186.475,2390.793,896.186,2304.574,927.436z"/>
<path fill="#8BCEAB" d="M2493.662,1265.232c-13.859-2.396-28.014,1.287-41.367,5.707
	c-107.211,35.486-203.426,121.207-315.877,110.781c-112.945-10.469-213.232-118.033-322.52-87.662
	c-40.359,11.217-77.385,41.064-118.955,35.92c-14.057-1.74-27.266-7.469-40.938-11.162
	c-68.658-18.549-139.229,15.018-204.174,44.002c-64.946,28.982-142.095,53.789-204.66,19.969
	c-18.812-10.17-36.252-25.596-57.613-26.584c-23.371-1.08-47.429,15.625-68.803,6.109c-10.824-4.818-17.837-15.322-24.018-25.434
	c-22.766-37.232-42.83-76.898-73.604-107.844c-30.772-30.945-75.674-52.23-117.994-41.58c-26.726,6.727-52.381,25.625-79.155,19.104
	c-17.409-4.242-30.366-18.396-42.202-31.848c-32.396-36.82-64.79-73.641-97.186-110.461c-8.487-9.646-17.462-19.641-29.46-24.24
	c-14.506-5.561-30.779-2.252-45.739,1.938c-81.451,22.811-153.92,69.197-230.565,104.975
	c-76.645,35.779-163.76,61.334-245.337,38.98c-56.063-15.363-91.953-55.426-132.369-97.209l-0.725,177.609
	c0,73.096,29.358,127.844,80.444,166.389c38.217,28.832,90.739,25.949,138.52,22.975c276.286-17.203,553.261,6.533,830.007,12.982
	c201.798,4.703,403.685,0.211,605.486-4.283c226.455-5.041,452.91-10.084,679.365-15.125c43.441-0.967,461.271,11.471,501.405-5.182
	c40.135-16.65-149.129-73.146-188.874-113.645C2625.338,1308.59,2523.793,1270.443,2493.662,1265.232z"/>
<path fill="#65C18E" d="M-141.255,1547.9c27.996-49.223,78.815-84.93,131.757-113.455
	c231.144-124.541,523.025-136.58,783.729-73.961c141.876,34.076,279.82,90.408,386.508,180.596"/>
<path fill="#65C18E" d="M937.955,1409.449c176.567,63.955,374.885,32.617,560.493-3.293
	c185.607-35.908,380.115-75.336,561.996-25.727c53.445,14.578,104.783,36.688,159.852,44.541
	c84.174,12.006,169.01-10.154,253.516-19.957c86.805-10.066,175.371-7.004,261.12,9.029
	c74.789,13.986,153.684,42.443,191.213,103.889c4.113,6.738,7.725,14.781,4.742,22.012c-3.473,8.428-14.113,11.879-23.514,14.271
	c-443.245,112.879-909.999,118.869-1369.185,98.02c-156.547-7.107-313.475-17.311-467.105-46.018
	c-40.468-7.562-82.128-17.037-114.451-40.795c-32.322-23.758-52.616-65.684-37.273-101.135"/>
<path fill="#7DC6DD" d="M-5.256,1539.422h2852.097V1800H-5.256V1539.422z"/>
<g transform="matrix(0.8545081179217417, 0, 0, 0.8545081179217417, 197.4922205457934, 261.88538774086487)" opacity="0.75">
	<path fill="#CFF1FF" d="M1272.4,1664.826c-127.876,16.13-260.081,28.292-394.428,36.294c-29.114,1.735-37.172,14.56-12.746,20.219
		c23.489,5.442,51.874,8.987,79.769,11.09c50.342,3.794,102.996,4.187,151.703,9.947c21.581,2.553,44.927,7.483,46.536,15.234
		c-163.96,21.488-342.833,25.156-512.032,41.22l1801.283-0.784c-7.207-5.435-24.226-10.329-40.674-13.202
		c-159.586-27.865-366.32-7.742-521.776-38.187c90.785-8.29,181.567-16.578,272.349-24.868c20.224-1.847,44.749-5.463,44.97-12.583
		c0.235-7.545-26.715-11.154-48.465-12.642c-148.432-10.157-298.39-17.739-449.087-22.708
		c97.342-6.324,194.684-12.651,292.022-18.978c19.824-1.287,45.345-5.353,40.491-12.016c-3.74-5.124-22.823-6.519-38.269-7.033
		c-103.941-3.46-206.527-11.602-304.237-24.148c37.515-12.146,103.242-11.673,148.079-18.651
		c20.391-3.17,13.842-13.581-8.567-13.746c-77.283-0.569-154.564-1.141-231.84-1.712c-15.762-0.114-37.142-2.121-34.015-7.854
		c1.298-2.382,6.599-4.288,13.319-5.095c53.265-6.388,106.524-12.779,159.785-19.168c8.352-1.001,14.128-3.76,13.314-6.759
		c-0.937-3.481-9.694-4.418-17.522-5.138c-34.118-3.127-68.239-6.256-102.362-9.383c0.48-4.91,13.083-8.48,22.47-12.212
		c11.536-4.59,18.139-12.93-5.938-14.772c-3.04-0.233-6.183-0.302-9.291-0.263c-54.868,0.649-55.501-0.288-38.797-2.299h-141.65
		c-6.057,2.034-50.983,1.634-52.262,3.755c-2.491,4.142,30.073,11.15,17.47,12.249c-27.263,2.373-61.078,4.818-74.845,7.042
		c-5.464,0.88-11.24,1.858-14.349,3.623c-13.448,7.634,35.021,13.209,33.851,22.1c-0.79,6.023-22.881,8.441-40.443,9.275
		c-23.971,1.141-47.947,2.279-71.922,3.419c-26.378,1.255-60.867,5.577-51.354,15.814c5.784,6.224,24.569,9.764,43.575,8.864
		c24.938-1.182,74.039,5.474,59.469,15.469c-2.888,1.979-7.788,3.55-13.615,4.528c-46.749,7.867-97.815,12.75-149.766,14.331
		c-25.084,0.763-59.4,4.183-55.549,12.644c3.472,7.63,34.089,8.542,56.792,8.494c54.081-0.117,108.154,5.673,152.208,16.349
		c3.904,0.946,6.838,2.329,7.899,3.92C1296.944,1660.972,1283.594,1663.413,1272.4,1664.826z"/>
</g>
<path opacity="0.42" fill="none" stroke="#FFFFFF" stroke-width="4" stroke-linecap="round" stroke-miterlimit="10" enable-background="new    " d="
	M1072.224,1757.33h29.654"/>
<path opacity="0.42" fill="none" stroke="#FFFFFF" stroke-width="4" stroke-linecap="round" stroke-miterlimit="10" enable-background="new    " d="
	M1103.669,1558.613h39.354"/>
<path opacity="0.42" fill="none" stroke="#FFFFFF" stroke-width="4" stroke-linecap="round" stroke-miterlimit="10" enable-background="new    " d="
	M1458.467,1558.613h132.826"/>
<path opacity="0.42" fill="none" stroke="#FFFFFF" stroke-width="4" stroke-linecap="round" stroke-miterlimit="10" enable-background="new    " d="
	M1718.774,1558.613h27.561"/>
<path opacity="0.42" fill="none" stroke="#FFFFFF" stroke-width="4" stroke-linecap="round" stroke-miterlimit="10" enable-background="new    " d="
	M1944.131,1558.613h68.371"/>
<path opacity="0.42" fill="none" stroke="#FFFFFF" stroke-width="4" stroke-linecap="round" stroke-miterlimit="10" enable-background="new    " d="
	M1576.752,1580.482h85.9"/>
<path opacity="0.42" fill="none" stroke="#FFFFFF" stroke-width="4" stroke-linecap="round" stroke-miterlimit="10" enable-background="new    " d="
	M1837.557,1580.482h35.777"/>
<path opacity="0.42" fill="none" stroke="#FFFFFF" stroke-width="4" stroke-linecap="round" stroke-miterlimit="10" enable-background="new    " d="
	M1430.694,1580.482h35.777"/>
<path opacity="0.42" fill="none" stroke="#FFFFFF" stroke-width="4" stroke-linecap="round" stroke-miterlimit="10" enable-background="new    " d="
	M1054.92,1649.482h281.562"/>
<path opacity="0.42" fill="none" stroke="#FFFFFF" stroke-width="4" stroke-linecap="round" stroke-miterlimit="10" enable-background="new    " d="
	M1040.968,1703.104h-85.9"/>
<path opacity="0.42" fill="none" stroke="#FFFFFF" stroke-width="4" stroke-linecap="round" stroke-miterlimit="10" enable-background="new    " d="
	M1187.026,1703.104h-35.776"/>
<path opacity="0.42" fill="none" stroke="#FFFFFF" stroke-width="4" stroke-linecap="round" stroke-miterlimit="10" enable-background="new    " d="
	M1130.621,1618.35h66.854"/>
<path opacity="0.42" fill="none" stroke="#FFFFFF" stroke-width="4" stroke-linecap="round" stroke-miterlimit="10" enable-background="new    " d="
	M1723.26,1618.35h16.281"/>
<path opacity="0.42" fill="none" stroke="#FFFFFF" stroke-width="4" stroke-linecap="round" stroke-miterlimit="10" enable-background="new    " d="
	M1294.343,1687.35h308.478"/>
<path opacity="0.42" fill="none" stroke="#FFFFFF" stroke-width="4" stroke-linecap="round" stroke-miterlimit="10" enable-background="new    " d="
	M1390.64,1656.219h67.828"/>
<path opacity="0.42" fill="none" stroke="#FFFFFF" stroke-width="4" stroke-linecap="round" stroke-miterlimit="10" enable-background="new    " d="
	M1579.766,1656.219h23.055"/>
<path fill="#65C18E" d="M689.327,1342.02c1.633-4.912,4.485-9.414,8.227-12.99c2.104,6.756,4.207,13.512,6.311,20.27
	c10.735-18.781,22.958-36.713,36.512-53.572c4.51,12.365,7.871,25.15,10.025,38.135c1.79-4.055,4.37-7.76,7.551-10.846
	c1.098,4.875,2.196,9.75,3.293,14.625c3.849-3.205,7.698-6.412,11.547-9.619c3.386,11.434,5.51,23.24,6.323,35.137
	c5.175-7.137,10.35-14.271,15.525-21.408c3.271,4.498,5.119,10.014,5.221,15.576c3.54-2.844,7.079-5.688,10.619-8.529
	c2.817,6.746,4.806,13.838,5.906,21.064"/>
<path fill="#65C18E" d="M936.824,1405.77c2.201-7.756,5.192-15.287,8.91-22.441c0.525,8.947,2.151,17.828,4.829,26.381
	c1.763-4.771,4.119-9.324,7-13.518c4.38,6.527-1.477,17.482,4.722,22.318c4.908-16.494,11.199-32.576,18.784-48.025
	c0.884-1.799,2.825-3.904,4.476-2.766c4.036,22.592,6.857,45.398,8.449,68.293c4.036-8.668,8.074-17.336,12.111-26.002
	c2.098,8.934,3.617,18.004,4.545,27.133c3.255-4.885,6.511-9.77,9.766-14.654c1.598,7.01,2.159,14.254,1.661,21.424"/>
<path fill="#672140" d="M1515.077,1318.924c0.213-0.656,0.418-1.314,0.631-1.973l-1.199,0.248
	C1514.698,1317.775,1514.891,1318.348,1515.077,1318.924z"/>
<g transform="matrix(1, 0, 0, 1, 0, 0)">
	<path fill="#672140" d="M1825.727,1285.672c0.348-1.262,0.711-2.52,1.076-3.775l-1.619-0.092
		C1825.35,1283.096,1825.518,1284.385,1825.727,1285.672z"/>
</g>
<g>
	<g transform="matrix(1, 0, 0, 1, 0, 0)">
		<path fill="#65C18E" d="M1523.194,1417.189l16.814-3.482c-3.094-9.412-6.768-18.633-11.01-27.586
			C1526.256,1396.303,1524.313,1406.703,1523.194,1417.189z"/>
	</g>
	<path fill="#65C18E" d="M1595.321,1402.246l15.74-3.26c-1.439-8.012-3.783-15.861-6.969-23.352
		c-3.033,8.486-6.064,16.971-9.096,25.457c-4.156-14.992-9.383-29.688-15.65-43.926c-2.27,8.859-4.365,17.762-6.309,26.697
		c-3.562-11.791-7.643-23.426-12.229-34.855c-6.158,21.594-12.699,43.08-19.602,64.449l31.568-6.541l21.125-3.729
		c0.062,0.15,0.123,0.301,0.186,0.449c0.061-0.172,0.123-0.344,0.184-0.514l1.234-0.219
		C1595.446,1402.686,1595.381,1402.467,1595.321,1402.246z"/>
	<g transform="matrix(1, 0, 0, 1, 0, 0)">
		<path fill="#65C18E" d="M1698.508,1362.131c-0.309-4.814-0.574-10.277-4.256-13.395c-2.504,6.533-4.865,13.121-7.096,19.754
			c-1.328-9.68-2.266-19.412-2.777-29.168c-0.293-5.584-0.545-11.484-3.582-16.18c-2.701,13.254-5.402,26.508-8.104,39.762
			c-1.896-6.309-4.424-12.352-8.424-17.541c-5.258,16.301-10.516,32.604-15.773,48.904l55.145-5.66
			C1700.815,1380.047,1699.086,1371.127,1698.508,1362.131z"/>
	</g>
	<path fill="#65C18E" d="M1741.899,1358.375c-0.164-1.559-1.096-3.65-2.576-3.135c-0.756,0.264-1.094,1.125-1.342,1.889
		c-3.045,9.432-6.092,18.865-9.139,28.297c-3.186-11.805-6.371-23.609-9.557-35.416c-3.945,12.824-7.891,25.648-11.836,38.473
		l37.148-4.613C1743.7,1375.371,1742.799,1366.873,1741.899,1358.375z"/>
	<path fill="#65C18E" d="M1847.606,1300.674c-8.316,25.361-16.635,50.723-24.949,76.084l28.027,1.555
		C1847.352,1352.643,1851.774,1326.264,1847.606,1300.674z"/>
	<path fill="#65C18E" d="M1875.055,1351.953c-3.736,7.287-6.791,14.924-9.113,22.777c-1.619-9.822-2.152-19.822-1.586-29.762
		c-4.723,10.873-8.746,22.049-12.053,33.434l25.533,1.416C1877.991,1370.463,1877.055,1361.092,1875.055,1351.953z"/>
	<path fill="#65C18E" d="M1821.653,1348.143c-0.23-7.785-0.527-15.85-3.986-22.83c-6.211,14.375-12.422,28.748-18.633,43.121
		c-1.035-5.076-2.072-10.152-3.109-15.229c-4.006,7.32-6.902,15.25-8.559,23.43l7.9,0.518c-0.174,0.402-0.348,0.809-0.523,1.213
		l26.148,0.564c0.279,0.172,0.578,0.314,0.924,0.385c0.039-0.121,0.08-0.24,0.119-0.361l0.635,0.014
		c-0.018-0.596-0.035-1.189-0.053-1.787c0.045-0.141,0.092-0.279,0.137-0.422l-0.15-0.008
		C1822.221,1367.215,1821.936,1357.68,1821.653,1348.143z"/>
</g>
<path opacity="0.42" fill="none" stroke="#FFFFFF" stroke-width="4" stroke-linecap="round" stroke-miterlimit="10" enable-background="new    " d="
	M154.436,1769.068h29.654"/>
<path opacity="0.42" fill="none" stroke="#FFFFFF" stroke-width="4" stroke-linecap="round" stroke-miterlimit="10" enable-background="new    " d="
	M185.881,1570.352h39.354"/>
<path opacity="0.42" fill="none" stroke="#FFFFFF" stroke-width="4" stroke-linecap="round" stroke-miterlimit="10" enable-background="new    " d="
	M778.972,1743.762h68.37"/>
<path opacity="0.42" fill="none" stroke="#FFFFFF" stroke-width="4" stroke-linecap="round" stroke-miterlimit="10" enable-background="new    " d="
	M658.965,1592.221h85.9"/>
<path opacity="0.42" fill="none" stroke="#FFFFFF" stroke-width="4" stroke-linecap="round" stroke-miterlimit="10" enable-background="new    " d="
	M919.768,1592.221h35.777"/>
<path opacity="0.42" fill="none" stroke="#FFFFFF" stroke-width="4" stroke-linecap="round" stroke-miterlimit="10" enable-background="new    " d="
	M512.906,1592.221h35.776"/>
<path opacity="0.42" fill="none" stroke="#FFFFFF" stroke-width="4" stroke-linecap="round" stroke-miterlimit="10" enable-background="new    " d="
	M137.132,1661.221h281.562"/>
<path opacity="0.42" fill="none" stroke="#FFFFFF" stroke-width="4" stroke-linecap="round" stroke-miterlimit="10" enable-background="new    " d="
	M123.18,1714.842h-85.9"/>
<path opacity="0.42" fill="none" stroke="#FFFFFF" stroke-width="4" stroke-linecap="round" stroke-miterlimit="10" enable-background="new    " d="
	M269.238,1714.842h-35.776"/>
<path opacity="0.42" fill="none" stroke="#FFFFFF" stroke-width="4" stroke-linecap="round" stroke-miterlimit="10" enable-background="new    " d="
	M212.833,1630.09h66.854"/>
<path opacity="0.42" fill="none" stroke="#FFFFFF" stroke-width="4" stroke-linecap="round" stroke-miterlimit="10" enable-background="new    " d="
	M805.472,1630.09h16.281"/>
<path opacity="0.42" fill="none" stroke="#FFFFFF" stroke-width="4" stroke-linecap="round" stroke-miterlimit="10" enable-background="new    " d="
	M376.555,1699.09h308.479"/>
<path opacity="0.42" fill="none" stroke="#FFFFFF" stroke-width="4" stroke-linecap="round" stroke-miterlimit="10" enable-background="new    " d="
	M472.851,1667.959h67.828"/>
<path opacity="0.42" fill="none" stroke="#FFFFFF" stroke-width="4" stroke-linecap="round" stroke-miterlimit="10" enable-background="new    " d="
	M1866.135,1769.07h29.654"/>
<path opacity="0.42" fill="none" stroke="#FFFFFF" stroke-width="4" stroke-linecap="round" stroke-miterlimit="10" enable-background="new    " d="
	M2698.689,1669.711h39.354"/>
<path opacity="0.42" fill="none" stroke="#FFFFFF" stroke-width="4" stroke-linecap="round" stroke-miterlimit="10" enable-background="new    " d="
	M2738.042,1570.354h68.369"/>
<path opacity="0.42" fill="none" stroke="#FFFFFF" stroke-width="4" stroke-linecap="round" stroke-miterlimit="10" enable-background="new    " d="
	M2370.663,1592.223h85.9"/>
<path opacity="0.42" fill="none" stroke="#FFFFFF" stroke-width="4" stroke-linecap="round" stroke-miterlimit="10" enable-background="new    " d="
	M2631.467,1592.223h35.777"/>
<path opacity="0.42" fill="none" stroke="#FFFFFF" stroke-width="4" stroke-linecap="round" stroke-miterlimit="10" enable-background="new    " d="
	M2224.604,1592.223h35.777"/>
<path opacity="0.42" fill="none" stroke="#FFFFFF" stroke-width="4" stroke-linecap="round" stroke-miterlimit="10" enable-background="new    " d="
	M2456.563,1757.33h281.562"/>
<path opacity="0.42" fill="none" stroke="#FFFFFF" stroke-width="4" stroke-linecap="round" stroke-miterlimit="10" enable-background="new    " d="
	M1834.877,1714.844h-85.9"/>
<path opacity="0.42" fill="none" stroke="#FFFFFF" stroke-width="4" stroke-linecap="round" stroke-miterlimit="10" enable-background="new    " d="
	M1980.936,1714.844h-35.775"/>
<path opacity="0.42" fill="none" stroke="#FFFFFF" stroke-width="4" stroke-linecap="round" stroke-miterlimit="10" enable-background="new    " d="
	M1924.532,1630.09h66.854"/>
<path opacity="0.42" fill="none" stroke="#FFFFFF" stroke-width="4" stroke-linecap="round" stroke-miterlimit="10" enable-background="new    " d="
	M2517.17,1630.09h16.281"/>
<path opacity="0.42" fill="none" stroke="#FFFFFF" stroke-width="4" stroke-linecap="round" stroke-miterlimit="10" enable-background="new    " d="
	M2088.252,1699.09h308.479"/>
<path opacity="0.42" fill="none" stroke="#FFFFFF" stroke-width="4" stroke-linecap="round" stroke-miterlimit="10" enable-background="new    " d="
	M2097.487,1618.35h67.828"/>
</svg>
