<?xml version="1.0" encoding="utf-8"?>
<!-- Generator: Adobe Illustrator 15.1.0, SVG Export Plug-In . SVG Version: 6.00 Build 0)  -->
<!DOCTYPE svg PUBLIC "-//W3C//DTD SVG 1.1//EN" "http://www.w3.org/Graphics/SVG/1.1/DTD/svg11.dtd">
<svg version="1.1" xmlns="http://www.w3.org/2000/svg" xmlns:xlink="http://www.w3.org/1999/xlink" x="0px" y="0px" width="2850px"
	 height="1531.5px" viewBox="0 268.5 2850 1531.5" enable-background="new 0 268.5 2850 1531.5" xml:space="preserve">
<g id="Layer_2">
</g>
<g id="master-artboard">
	<g>
		<g>
			<path fill="none" stroke="#F4E8DA" stroke-miterlimit="10" d="M2713.538-130.914"/>
		</g>
	</g>
	<path fill="#DBF4FF" d="M-0.447,268.5h2850V1800h-2850V268.5z"/>
	<path opacity="0.08" fill="#E5EDD4" enable-background="new    " d="M2007.258,1059.666c0,329.742-267.309,597.051-597.05,597.051
		c-329.742,0-597.051-267.309-597.051-597.051c0-329.742,267.309-597.05,597.051-597.05
		C1739.949,462.616,2007.258,729.924,2007.258,1059.666z"/>
	<path opacity="0.08" fill="#E5EDD4" enable-background="new    " d="M1839.877,990.666c0,237.299-192.369,429.67-429.669,429.67
		l0,0c-237.301,0-429.67-192.371-429.67-429.67l0,0c0-237.3,192.369-429.669,429.67-429.669l0,0
		C1647.508,560.997,1839.877,753.366,1839.877,990.666L1839.877,990.666z"/>
	<path fill="#7CBF99" d="M2304.574,927.436c-86.219,31.25-166.127,113.84-225.008,120.535
		c-58.881,6.697-92.525-78.125-180.846-49.105c-88.322,29.018-342.768,180.803-485.764,187.5
		c-142.996,6.697-584.6-290.177-681.331-312.5c-80.531-18.584-314.261,71.519-390.299,102.226l-0.015-0.588
		c-35.241,13.707-71.024,26.035-107.239,36.943c-37.728,11.365-78.787,21.115-115.882,7.85
		c-45.161-16.15-73.293-62.465-117.064-82.043v531.592h2849.277v-283.369C2850.404,1186.475,2390.793,896.186,2304.574,927.436z"/>
	<path fill="#8BCEAB" d="M2493.662,1265.232c-13.859-2.396-28.014,1.287-41.367,5.707
		c-107.211,35.486-203.426,121.207-315.877,110.781c-112.945-10.469-213.232-118.033-322.52-87.662
		c-40.359,11.217-77.385,41.064-118.955,35.92c-14.057-1.74-27.266-7.469-40.938-11.162
		c-68.658-18.549-139.229,15.018-204.174,44.002c-64.946,28.982-142.095,53.789-204.66,19.969
		c-18.812-10.17-36.252-25.596-57.613-26.584c-23.371-1.08-47.429,15.625-68.803,6.109c-10.824-4.818-17.837-15.322-24.018-25.434
		c-22.766-37.232-42.83-76.898-73.604-107.844c-30.772-30.945-75.674-52.23-117.994-41.58
		c-26.726,6.727-52.381,25.625-79.155,19.104c-17.409-4.242-30.366-18.396-42.202-31.848c-32.396-36.82-64.79-73.641-97.186-110.461
		c-8.487-9.646-17.462-19.641-29.46-24.24c-14.506-5.561-30.779-2.252-45.739,1.938c-81.451,22.811-153.92,69.197-230.565,104.975
		c-76.645,35.779-163.76,61.334-245.337,38.98c-56.063-15.363-91.953-55.426-132.369-97.209l-0.725,177.609
		c0,73.096,29.358,127.844,80.444,166.389c38.217,28.832,90.739,25.949,138.52,22.975c276.286-17.203,553.261,6.533,830.007,12.982
		c201.798,4.703,403.685,0.211,605.486-4.283c226.455-5.041,452.91-10.084,679.365-15.125
		c43.441-0.967,461.271,11.471,501.405-5.182c40.135-16.65-149.129-73.146-188.874-113.645
		C2625.338,1308.59,2523.793,1270.443,2493.662,1265.232z"/>
	<path fill="#65C18E" d="M-141.255,1547.9c27.996-49.223,78.815-84.93,131.757-113.455
		c231.144-124.541,523.025-136.58,783.729-73.961c141.876,34.076,279.82,90.408,386.508,180.596"/>
	
		<path opacity="0.42" fill="none" stroke="#FFFFFF" stroke-width="4" stroke-linecap="round" stroke-miterlimit="10" enable-background="new    " d="
		M1458.467,1558.613h132.826"/>
	
		<path opacity="0.42" fill="none" stroke="#FFFFFF" stroke-width="4" stroke-linecap="round" stroke-miterlimit="10" enable-background="new    " d="
		M1576.752,1580.482h85.9"/>
	
		<path opacity="0.42" fill="none" stroke="#FFFFFF" stroke-width="4" stroke-linecap="round" stroke-miterlimit="10" enable-background="new    " d="
		M1430.694,1580.482h35.777"/>
	
		<path opacity="0.42" fill="none" stroke="#FFFFFF" stroke-width="4" stroke-linecap="round" stroke-miterlimit="10" enable-background="new    " d="
		M1187.026,1703.104h-35.776"/>
	
		<path opacity="0.42" fill="none" stroke="#FFFFFF" stroke-width="4" stroke-linecap="round" stroke-miterlimit="10" enable-background="new    " d="
		M1723.26,1618.35h16.281"/>
	
		<path opacity="0.42" fill="none" stroke="#FFFFFF" stroke-width="4" stroke-linecap="round" stroke-miterlimit="10" enable-background="new    " d="
		M1294.343,1687.35h308.478"/>
	
		<path opacity="0.42" fill="none" stroke="#FFFFFF" stroke-width="4" stroke-linecap="round" stroke-miterlimit="10" enable-background="new    " d="
		M1390.639,1656.219h67.828"/>
	
		<path opacity="0.42" fill="none" stroke="#FFFFFF" stroke-width="4" stroke-linecap="round" stroke-miterlimit="10" enable-background="new    " d="
		M1579.766,1656.219h23.055"/>
	<path fill="#65C18E" d="M689.326,1342.02c1.633-4.912,4.485-9.414,8.227-12.99c2.104,6.756,4.207,13.512,6.311,20.27
		c10.735-18.781,22.958-36.713,36.512-53.572c4.51,12.365,7.871,25.15,10.025,38.135c1.79-4.055,4.37-7.76,7.551-10.846
		c1.098,4.875,2.196,9.75,3.293,14.625c3.849-3.205,7.698-6.412,11.547-9.619c3.386,11.434,5.51,23.24,6.323,35.137
		c5.175-7.137,10.35-14.271,15.525-21.408c3.271,4.498,5.119,10.014,5.221,15.576c3.54-2.844,7.079-5.688,10.619-8.529
		c2.817,6.746,4.806,13.838,5.906,21.064"/>
	<path fill="#65C18E" d="M936.823,1405.77c2.201-7.756,5.192-15.287,8.91-22.441c0.525,8.947,2.151,17.828,4.829,26.381
		c1.763-4.771,4.119-9.324,7-13.518c4.38,6.527-1.477,17.482,4.722,22.318c4.908-16.494,11.199-32.576,18.784-48.025
		c0.884-1.799,2.825-3.904,4.476-2.766c4.036,22.592,6.857,45.398,8.449,68.293c4.036-8.668,8.074-17.336,12.111-26.002
		c2.098,8.934,3.617,18.004,4.545,27.133c3.255-4.885,6.511-9.77,9.766-14.654c1.598,7.01,2.159,14.254,1.661,21.424"/>
	<path fill="#672140" d="M1515.076,1318.924c0.213-0.656,0.418-1.314,0.631-1.973l-1.199,0.248
		C1514.698,1317.775,1514.891,1318.348,1515.076,1318.924z"/>
	
		<path opacity="0.42" fill="none" stroke="#FFFFFF" stroke-width="4" stroke-linecap="round" stroke-miterlimit="10" enable-background="new    " d="
		M185.881,1570.352h39.354"/>
	<g>
		<path fill="#DACC7D" d="M1776.969,977.244c0,0-81.432-132.882-191.417-52.587c108.469-9.166,126.439,21.598,135.419,76.663
			C1729.662,1054.588,1776.969,977.244,1776.969,977.244z"/>
		<path fill="#DACC7D" d="M2013.098,1027.33c0,0,125.875-91.895,197.028,24.215c-96.821-49.756-125.145-28.145-154.405,19.359
			C2027.415,1116.858,2013.098,1027.33,2013.098,1027.33z"/>
		<path fill="#51BED1" d="M1615.503,1391.469c-22.161-15.57-30.228-51.752-28.406-95.838c0.804-19.446,12.015-44.881-22.657-3.263
			c5.824-29.46,57.277-140.604,25.975-91.236c-10.23,16.137,58.433-112.031,14.91-63.944
			c20.817-45.845,73.452-102.289,99.537-116.379c29.197-15.769-5.631-22.11,3.01-20.947c54.113,7.298,13.375-15.147,21.556-17.28
			c18.301-4.768,29.247,10.938,35.134,5.812c10.973-9.555-2.456-13.713,1.711-14.398c18.755-3.097,19.754,6.173,27.291,11.064
			c0,0,126.805,36.719,188.883,39.61c22.895,1.068,49.049-12.979,39.267,2.095c-7.298,11.243,24.97,1.54,21.406,12.168
			c-11.055,32.962,22.732,13.61,25.121,16.304c4.665,5.269-21.106-0.711-0.357,36.213c13.442,23.923,33.991,60.265,38.8,105.304
			c-10.454-11.291,3.388,27.713,4.341,57.825c-17.908-15.81-0.47,15.682,7.354,47.028c-52.37-45.412,3.44,31.354-13.977,84.002
			c-36.6-80.854-11.636,76.577-80.598,86.208L1615.503,1391.469z"/>
		<path fill="#4DABB5" d="M2059.597,1232.675c-6.255,31.639-39.111,51.788-73.387,45.012c-34.271-6.775-56.986-37.913-50.732-69.551
			c6.257-31.645,39.113-51.795,73.385-45.02C2043.137,1169.895,2065.854,1201.031,2059.597,1232.675z"/>
		<path fill="#4DABB5" d="M1803.298,1187.104c-6.255,31.639-39.112,51.789-73.384,45.012c-34.272-6.775-56.988-37.911-50.733-69.55
			c6.257-31.645,39.112-51.797,73.387-45.019C1786.838,1124.322,1809.555,1155.459,1803.298,1187.104z"/>
		<g>
			<path fill="#FFFFFF" d="M1996.966,1082.6c18.398,19.946,17.144,51.028-2.803,69.429c-19.945,18.399-51.029,17.144-69.426-2.803
				c-12.573-13.631-15.969-32.459-10.495-48.889l75.277-24.338C1992.168,1077.904,1994.665,1080.106,1996.966,1082.6z"/>
			<path d="M1969.609,1085.745c6.945,7.533,6.475,19.265-1.054,26.21c-7.532,6.946-19.268,6.472-26.212-1.054
				c-4.744-5.148-6.026-12.255-3.96-18.457l28.415-9.188C1967.799,1083.979,1968.74,1084.807,1969.609,1085.745z"/>
		</g>
		<g>
			<path fill="#FFFFFF" d="M1853.995,1145.085c-35.498,16.047-77.283,0.277-93.333-35.22c-16.046-35.501-0.277-77.288,35.222-93.335
				l97.532,81.218C1888.394,1117.994,1874.477,1135.823,1853.995,1145.085z"/>
			<path d="M1840.504,1057.271c-9.333,4.219-13.636,14.856-9.611,23.758c4.022,8.903,14.851,12.697,24.185,8.48
				c6.378-2.885,10.406-8.764,11.036-15.04l-22.058-18.411C1842.863,1056.341,1841.671,1056.745,1840.504,1057.271z"/>
		</g>
		<path d="M1805.361,1182.405c26.022-9.688,0.188,36.321,67.601,39.445c67.408,3.123,46.323-13.52,73.805-14.888
			c27.479-1.369,20.87,90.537,2.241,126.294c-15.531,29.809-41.327-16.248-42.466-17.469
			c-16.834-18.065-79.031-30.362-113.346-11.637c-34.314,18.727-39.241,9.249-37.643-7.441
			C1757.151,1280.019,1781.494,1191.294,1805.361,1182.405z"/>
		<path fill="#FCFDFF" d="M1823.608,1196.219c0,0-8.663,56.814-5.751,53.713c3.421-3.645,25.203-17.342,25.203-17.342
			c8.659,7.288,10.017,29.244,10.641,29.451c1.409,0.46,19.671-23.282,27.796-26.033c1.432-0.482,26.338,26.453,28.363,29.136
			c2.299,3.042,9.136-38.434,11.054-46.952C1902.07,1219.299,1839.668,1233.507,1823.608,1196.219z"/>
		<path fill="#FCFDFF" d="M1793.447,1303.962c0,0,12.733-32.201,14.229-37.805c1.045-3.901,16.866,26.183,19.428,22.238
			c4.605-7.096,11.176-13.001,11.176-13.001c1.938,3.857,13.012,15.183,13.012,15.183c10.574-2.388,21.427-10.51,22.078-10.448
			c1.476,0.145,7.773,14.452,14.407,19.263c1.164,0.844,25.748-9.572,27.893-11.5c2.19-1.968-4.997,25.094-6.131,32.015
			C1884.832,1292.005,1824.688,1289.306,1793.447,1303.962z"/>
	</g>
	
		<path opacity="0.42" fill="none" stroke="#FFFFFF" stroke-width="4" stroke-linecap="round" stroke-miterlimit="10" enable-background="new    " d="
		M269.238,1714.842h-35.776"/>
	
		<path opacity="0.42" fill="none" stroke="#FFFFFF" stroke-width="4" stroke-linecap="round" stroke-miterlimit="10" enable-background="new    " d="
		M212.833,1630.09h66.854"/>
	
		<path opacity="0.42" fill="none" stroke="#FFFFFF" stroke-width="4" stroke-linecap="round" stroke-miterlimit="10" enable-background="new    " d="
		M1866.135,1769.07h29.654"/>
	
		<path opacity="0.42" fill="none" stroke="#FFFFFF" stroke-width="4" stroke-linecap="round" stroke-miterlimit="10" enable-background="new    " d="
		M1834.877,1714.844h-85.9"/>
	
		<path opacity="0.42" fill="none" stroke="#FFFFFF" stroke-width="4" stroke-linecap="round" stroke-miterlimit="10" enable-background="new    " d="
		M1980.936,1714.844h-35.775"/>
	<g>
		<path fill="#8ACDAB" d="M2851.715,1036.115c-18.002-16.712-271.227-254.911-304.02-304.212
			c-27.271-41.002-57.087-105.174-50.244-144.098c0.994-5.662-64.452-20.563-62.927-25.992c1.536-5.47,70.047-1.464,72.104-6.665
			c7.438-18.833,18.193-35.788,31.771-50.083c4.523-4.764-30.93-58.201-25.798-62.348c6.087-4.916,52.658,39.735,59.096,35.983
			c19.308-11.256,39.994-17.45,60.917-19.623c4.185-0.434,16.672-64.572,20.865-64.696c5.124-0.147,1.957,63.797,7.063,64.087
			c48.741,2.783,86.455,45.24,124.523,85.595c28.57,30.284,101.082,115.939,108.972,131.185L2851.715,1036.115z"/>
		<path fill="#71C495" d="M2777.062,543.505c14.767,18.279,10.681,46.063-9.122,62.059c-19.8,15.995-47.822,14.147-62.588-4.132
			c-14.77-18.285-10.685-46.067,9.117-62.064C2734.27,523.372,2762.291,525.221,2777.062,543.505z"/>
		<path fill="#71C495" d="M2631.836,665.504c14.766,18.28,10.68,46.065-9.121,62.06c-19.801,15.995-47.824,14.148-62.59-4.132
			c-14.769-18.285-10.684-46.07,9.117-62.062C2589.044,645.374,2617.065,647.221,2631.836,665.504z"/>
		<g>
			<g>
				<path fill="#7DC5DC" d="M2485.615,567.363c0.65,0,2.082-0.987,0.781-0.987C2485.746,566.376,2484.315,567.363,2485.615,567.363
					L2485.615,567.363z"/>
			</g>
		</g>
		<g>
			<g>
				<path fill="none" stroke="#F4E8DA" stroke-miterlimit="10" d="M2644.216,440.632"/>
			</g>
		</g>
		<g>
			<g>
				<path fill="none" stroke="#F4E8DA" stroke-miterlimit="10" d="M2560.237,506.906"/>
			</g>
		</g>
		<path d="M2639.946,664.967l69.063-53.497c0,0,25.063,55.43,1.086,74.8C2686.116,705.641,2639.946,664.967,2639.946,664.967z"/>
		<path fill="#FCFDFF" d="M2654.518,653.774c0,0,17.937,16.524,20.095,16.794l-7.098-26.872l15.571-12.057
			c0.381-0.591,20.592,12.363,20.592,12.363c0.487-0.276-7.644-19.497-9.148-21.545
			C2693.905,623.288,2654.518,653.774,2654.518,653.774z"/>
		<path fill="#FFFFFF" d="M2634.689,580.898c18.246,22.59,14.727,55.691-7.861,73.938c-22.588,18.246-55.689,14.727-73.938-7.863
			c-18.242-22.586-14.724-55.688,7.864-73.934C2583.342,554.794,2616.442,558.312,2634.689,580.898z"/>
		<circle cx="2573.13" cy="621.248" r="14.892"/>
		<circle fill="#FFFFFF" cx="2671.031" cy="558.182" r="34.645"/>
		<path d="M2670.666,551.444c4.746,5.875,3.833,14.487-2.044,19.234c-5.873,4.746-14.486,3.828-19.231-2.048
			c-4.747-5.874-3.831-14.484,2.045-19.231C2657.31,544.654,2665.92,545.569,2670.666,551.444z"/>
	</g>
	<g>
		<g>
			<path fill="#7DC5DC" d="M91.91,1449.077c0.65,0,2.082-0.986,0.78-0.986C92.04,1448.091,90.609,1449.077,91.91,1449.077
				L91.91,1449.077z"/>
		</g>
	</g>
	<g>
		<g>
			<path fill="none" stroke="#F4E8DA" stroke-miterlimit="10" d="M144.511,1448.683"/>
		</g>
	</g>
	<path d="M-1550.72,378.687c1.198-9.735,10.687-10.486,15.626-10.216c7.885,0.431,11.37,3.542,12.949,9.99
		c2.578,10.534-2.436,21.132-5.443,20.989c-4.642-0.22-2.136-4.923-4.97-4.687c-2.903,0.243,0.444,5.229-3.876,5.202
		c-4.898-0.031-1.01-5.03-3.676-5.502c-3.886-0.687,0.275,6.1-4.403,5.269C-1549.249,398.892-1551.919,388.422-1550.72,378.687z"/>
	<circle fill="#FFFFFF" cx="-1535.615" cy="375.363" r="5.55"/>
	<circle cx="-1535.615" cy="375.363" r="3.707"/>
	<circle fill="#FFFFFF" cx="-1533.88" cy="374.406" r="0.952"/>
	<circle fill="#FFFFFF" cx="-1533.095" cy="376.304" r="0.478"/>
	<path fill="#FCFDFF" d="M-1540.97,384.393c0,0,0.245,4.1,0.465,3.842c0.258-0.303,2.081-1.564,2.081-1.564
		c0.965,0.391,1.509,1.91,1.573,1.916c0.144,0.013,1.44-1.903,2.165-2.208c0.126-0.054,3.016,1.488,3.26,1.648
		c0.278,0.181,0.147-2.819,0.17-3.443C-1533.037,384.922-1538.731,386.783-1540.97,384.393z"/>
	<path fill="none" stroke="#FCFDFF" stroke-miterlimit="10" d="M-1542.761,383.965c1.583,1.934,9.361,2.576,13.083,0"/>
	<g>
		<g>
			<path fill="#7DC5DC" d="M2183.915,1314.55c1.092,0,1.493-1.379,0.182-1.379C2183.005,1313.171,2182.604,1314.55,2183.915,1314.55
				L2183.915,1314.55z"/>
		</g>
	</g>
	<g>
		<g>
			<path fill="none" stroke="#F4E8DA" stroke-miterlimit="10" d="M2472.568,1315.594"/>
		</g>
	</g>
	<g>
		<g>
			<path fill="none" stroke="#F4E8DA" stroke-miterlimit="10" d="M2320.055,1313.86"/>
		</g>
	</g>
	<path fill="#65C18E" d="M937.955,1409.449c176.567,63.955,374.885,32.617,560.493-3.293
		c185.607-35.908,380.115-75.336,561.996-25.727c53.445,14.578,104.783,36.688,159.852,44.541
		c84.174,12.006,169.01-10.154,253.516-19.957c86.805-10.066,175.371-7.004,261.12,9.029
		c74.789,13.986,153.684,42.443,191.213,103.889c4.113,6.738,7.725,14.781,4.742,22.012c-3.473,8.428-14.113,11.879-23.514,14.271
		c-443.245,112.879-909.999,118.869-1369.185,98.02c-156.547-7.107-313.475-17.311-467.105-46.018
		c-40.468-7.562-82.128-17.037-114.451-40.795c-32.322-23.758-52.616-65.684-37.273-101.135"/>
	<g>
		<g transform="matrix(1, 0, 0, 1, 0, 0)">
			<path fill="#65C18E" d="M1523.194,1417.189l16.814-3.482c-3.094-9.412-6.768-18.633-11.01-27.586
				C1526.256,1396.303,1524.313,1406.703,1523.194,1417.189z"/>
		</g>
		<path fill="#65C18E" d="M1595.321,1402.246l15.74-3.26c-1.439-8.012-3.783-15.861-6.969-23.352
			c-3.033,8.486-6.064,16.971-9.096,25.457c-4.156-14.992-9.383-29.688-15.65-43.926c-2.27,8.859-4.365,17.762-6.309,26.697
			c-3.562-11.791-7.643-23.426-12.229-34.855c-6.158,21.594-12.699,43.08-19.602,64.449l31.568-6.541l21.125-3.729
			c0.062,0.15,0.123,0.301,0.186,0.449c0.061-0.172,0.123-0.344,0.184-0.514l1.234-0.219
			C1595.446,1402.686,1595.381,1402.467,1595.321,1402.246z"/>
		<g transform="matrix(1, 0, 0, 1, 0, 0)">
			<path fill="#65C18E" d="M1698.508,1362.131c-0.309-4.814-0.574-10.277-4.256-13.395c-2.504,6.533-4.865,13.121-7.096,19.754
				c-1.328-9.68-2.266-19.412-2.777-29.168c-0.293-5.584-0.545-11.484-3.582-16.18c-2.701,13.254-5.402,26.508-8.104,39.762
				c-1.896-6.309-4.424-12.352-8.424-17.541c-5.258,16.301-10.516,32.604-15.773,48.904l55.145-5.66
				C1700.815,1380.047,1699.086,1371.127,1698.508,1362.131z"/>
		</g>
		<path fill="#65C18E" d="M1741.899,1358.375c-0.164-1.559-1.096-3.65-2.576-3.135c-0.756,0.264-1.094,1.125-1.342,1.889
			c-3.045,9.432-6.092,18.865-9.139,28.297c-3.186-11.805-6.371-23.609-9.557-35.416c-3.945,12.824-7.891,25.648-11.836,38.473
			l37.148-4.613C1743.699,1375.371,1742.799,1366.873,1741.899,1358.375z"/>
		<path fill="#65C18E" d="M1847.606,1300.674c-8.316,25.361-16.635,50.723-24.949,76.084l28.027,1.555
			C1847.352,1352.643,1851.774,1326.264,1847.606,1300.674z"/>
		<path fill="#65C18E" d="M1875.055,1351.953c-3.736,7.287-6.791,14.924-9.113,22.777c-1.619-9.822-2.152-19.822-1.586-29.762
			c-4.723,10.873-8.746,22.049-12.053,33.434l25.533,1.416C1877.99,1370.463,1877.055,1361.092,1875.055,1351.953z"/>
		<path fill="#65C18E" d="M1821.653,1348.143c-0.23-7.785-0.527-15.85-3.986-22.83c-6.211,14.375-12.422,28.748-18.633,43.121
			c-1.035-5.076-2.072-10.152-3.109-15.229c-4.006,7.32-6.902,15.25-8.559,23.43l7.9,0.518c-0.174,0.402-0.348,0.809-0.523,1.213
			l26.148,0.564c0.279,0.172,0.578,0.314,0.924,0.385c0.039-0.121,0.08-0.24,0.119-0.361l0.635,0.014
			c-0.018-0.596-0.035-1.189-0.053-1.787c0.045-0.141,0.092-0.279,0.137-0.422l-0.15-0.008
			C1822.221,1367.215,1821.936,1357.68,1821.653,1348.143z"/>
	</g>
	<g>
		<path fill="#7DC6DD" d="M-5.256,1539.422h2852.097V1800H-5.256V1539.422z"/>
		<g transform="matrix(0.8545081179217417, 0, 0, 0.8545081179217417, 197.4922205457934, 261.88538774086487)" opacity="0.75">
			<path fill="#CFF1FF" d="M1272.4,1664.826c-127.876,16.13-260.081,28.292-394.428,36.294
				c-29.114,1.735-37.172,14.56-12.746,20.219c23.489,5.442,51.874,8.987,79.769,11.09c50.342,3.794,102.996,4.187,151.703,9.947
				c21.581,2.553,44.927,7.483,46.536,15.234c-163.96,21.488-342.833,25.156-512.032,41.22l1801.283-0.784
				c-7.207-5.435-24.226-10.329-40.674-13.202c-159.586-27.865-366.32-7.742-521.776-38.187
				c90.785-8.29,181.567-16.578,272.349-24.868c20.224-1.847,44.749-5.463,44.97-12.583c0.235-7.545-26.715-11.154-48.465-12.642
				c-148.432-10.157-298.39-17.739-449.087-22.708c97.342-6.324,194.684-12.651,292.022-18.978
				c19.824-1.287,45.345-5.353,40.491-12.016c-3.74-5.124-22.823-6.519-38.269-7.033c-103.941-3.46-206.527-11.602-304.237-24.148
				c37.515-12.146,103.242-11.673,148.079-18.651c20.391-3.17,13.842-13.581-8.567-13.746c-77.283-0.569-154.564-1.141-231.84-1.712
				c-15.762-0.114-37.142-2.121-34.015-7.854c1.298-2.382,6.599-4.288,13.319-5.095c53.265-6.388,106.524-12.779,159.785-19.168
				c8.352-1.001,14.128-3.76,13.314-6.759c-0.937-3.481-9.694-4.418-17.522-5.138c-34.118-3.127-68.239-6.256-102.362-9.383
				c0.48-4.91,13.083-8.48,22.47-12.212c11.536-4.59,18.139-12.93-5.938-14.772c-3.04-0.233-6.183-0.302-9.291-0.263
				c-54.868,0.649-55.501-0.288-38.797-2.299h-141.65c-6.057,2.034-50.983,1.634-52.262,3.755
				c-2.491,4.142,30.073,11.15,17.47,12.249c-27.263,2.373-61.078,4.818-74.845,7.042c-5.464,0.88-11.24,1.858-14.349,3.623
				c-13.448,7.634,35.021,13.209,33.851,22.1c-0.79,6.023-22.881,8.441-40.443,9.275c-23.971,1.141-47.947,2.279-71.922,3.419
				c-26.378,1.255-60.867,5.577-51.354,15.814c5.784,6.224,24.569,9.764,43.575,8.864c24.938-1.182,74.039,5.474,59.469,15.469
				c-2.888,1.979-7.788,3.55-13.615,4.528c-46.749,7.867-97.815,12.75-149.766,14.331c-25.084,0.763-59.4,4.183-55.549,12.644
				c3.472,7.63,34.089,8.542,56.792,8.494c54.081-0.117,108.154,5.673,152.208,16.349c3.904,0.946,6.838,2.329,7.899,3.92
				C1296.944,1660.972,1283.594,1663.413,1272.4,1664.826z"/>
		</g>
		
			<path opacity="0.42" fill="none" stroke="#FFFFFF" stroke-width="4" stroke-linecap="round" stroke-miterlimit="10" enable-background="new    " d="
			M1072.224,1757.33h29.654"/>
		
			<path opacity="0.42" fill="none" stroke="#FFFFFF" stroke-width="4" stroke-linecap="round" stroke-miterlimit="10" enable-background="new    " d="
			M1103.669,1558.613h39.354"/>
		
			<path opacity="0.42" fill="none" stroke="#FFFFFF" stroke-width="4" stroke-linecap="round" stroke-miterlimit="10" enable-background="new    " d="
			M1718.774,1558.613h27.561"/>
		
			<path opacity="0.42" fill="none" stroke="#FFFFFF" stroke-width="4" stroke-linecap="round" stroke-miterlimit="10" enable-background="new    " d="
			M1944.131,1558.613h68.371"/>
		
			<path opacity="0.42" fill="none" stroke="#FFFFFF" stroke-width="4" stroke-linecap="round" stroke-miterlimit="10" enable-background="new    " d="
			M1837.557,1580.482h35.777"/>
		
			<path opacity="0.42" fill="none" stroke="#FFFFFF" stroke-width="4" stroke-linecap="round" stroke-miterlimit="10" enable-background="new    " d="
			M1054.92,1649.482h281.562"/>
		
			<path opacity="0.42" fill="none" stroke="#FFFFFF" stroke-width="4" stroke-linecap="round" stroke-miterlimit="10" enable-background="new    " d="
			M1040.968,1703.104h-85.9"/>
		
			<path opacity="0.42" fill="none" stroke="#FFFFFF" stroke-width="4" stroke-linecap="round" stroke-miterlimit="10" enable-background="new    " d="
			M1130.621,1618.35h66.854"/>
		
			<path opacity="0.42" fill="none" stroke="#FFFFFF" stroke-width="4" stroke-linecap="round" stroke-miterlimit="10" enable-background="new    " d="
			M154.436,1769.068h29.654"/>
		
			<path opacity="0.42" fill="none" stroke="#FFFFFF" stroke-width="4" stroke-linecap="round" stroke-miterlimit="10" enable-background="new    " d="
			M778.972,1743.762h68.37"/>
		
			<path opacity="0.42" fill="none" stroke="#FFFFFF" stroke-width="4" stroke-linecap="round" stroke-miterlimit="10" enable-background="new    " d="
			M658.965,1592.221h85.9"/>
		
			<path opacity="0.42" fill="none" stroke="#FFFFFF" stroke-width="4" stroke-linecap="round" stroke-miterlimit="10" enable-background="new    " d="
			M919.768,1592.221h35.777"/>
		
			<path opacity="0.42" fill="none" stroke="#FFFFFF" stroke-width="4" stroke-linecap="round" stroke-miterlimit="10" enable-background="new    " d="
			M512.906,1592.221h35.776"/>
		
			<path opacity="0.42" fill="none" stroke="#FFFFFF" stroke-width="4" stroke-linecap="round" stroke-miterlimit="10" enable-background="new    " d="
			M137.132,1661.221h281.562"/>
		
			<path opacity="0.42" fill="none" stroke="#FFFFFF" stroke-width="4" stroke-linecap="round" stroke-miterlimit="10" enable-background="new    " d="
			M123.18,1714.842h-85.9"/>
		
			<path opacity="0.42" fill="none" stroke="#FFFFFF" stroke-width="4" stroke-linecap="round" stroke-miterlimit="10" enable-background="new    " d="
			M805.472,1630.09h16.281"/>
		
			<path opacity="0.42" fill="none" stroke="#FFFFFF" stroke-width="4" stroke-linecap="round" stroke-miterlimit="10" enable-background="new    " d="
			M376.555,1699.09h308.479"/>
		
			<path opacity="0.42" fill="none" stroke="#FFFFFF" stroke-width="4" stroke-linecap="round" stroke-miterlimit="10" enable-background="new    " d="
			M472.851,1667.959h67.828"/>
		
			<path opacity="0.42" fill="none" stroke="#FFFFFF" stroke-width="4" stroke-linecap="round" stroke-miterlimit="10" enable-background="new    " d="
			M2698.689,1669.711h39.354"/>
		
			<path opacity="0.42" fill="none" stroke="#FFFFFF" stroke-width="4" stroke-linecap="round" stroke-miterlimit="10" enable-background="new    " d="
			M2738.042,1570.354h68.369"/>
		
			<path opacity="0.42" fill="none" stroke="#FFFFFF" stroke-width="4" stroke-linecap="round" stroke-miterlimit="10" enable-background="new    " d="
			M2370.663,1592.223h85.9"/>
		
			<path opacity="0.42" fill="none" stroke="#FFFFFF" stroke-width="4" stroke-linecap="round" stroke-miterlimit="10" enable-background="new    " d="
			M2631.467,1592.223h35.777"/>
		
			<path opacity="0.42" fill="none" stroke="#FFFFFF" stroke-width="4" stroke-linecap="round" stroke-miterlimit="10" enable-background="new    " d="
			M2224.604,1592.223h35.777"/>
		
			<path opacity="0.42" fill="none" stroke="#FFFFFF" stroke-width="4" stroke-linecap="round" stroke-miterlimit="10" enable-background="new    " d="
			M2456.563,1757.33h281.562"/>
		
			<path opacity="0.42" fill="none" stroke="#FFFFFF" stroke-width="4" stroke-linecap="round" stroke-miterlimit="10" enable-background="new    " d="
			M1924.532,1630.09h66.854"/>
		
			<path opacity="0.42" fill="none" stroke="#FFFFFF" stroke-width="4" stroke-linecap="round" stroke-miterlimit="10" enable-background="new    " d="
			M2517.17,1630.09h16.281"/>
		
			<path opacity="0.42" fill="none" stroke="#FFFFFF" stroke-width="4" stroke-linecap="round" stroke-miterlimit="10" enable-background="new    " d="
			M2088.252,1699.09h308.479"/>
		
			<path opacity="0.42" fill="none" stroke="#FFFFFF" stroke-width="4" stroke-linecap="round" stroke-miterlimit="10" enable-background="new    " d="
			M2097.487,1618.35h67.828"/>
	</g>
	<g>
		<path fill="#DF6798" d="M138.579,1656.144c-2.409-16.945-4.931-80.062-1.041-121.141c3.235-34.161,15.265-81.982,36.052-100.048
			c3.023-2.627-25.859-39.42-22.652-41.689c3.232-2.287,38.558,29.954,41.951,28.042c12.293-6.928,25.558-11.384,39.179-13.165
			c4.542-0.592,8.807-45.076,13.404-45.066c5.452,0.009,11.062,44.619,16.192,45.414c15.392,2.382,29.307,8.11,41.584,16.117
			c2.458,1.6,37.366-27.636,39.691-25.86c2.837,2.168-26.942,35.39-24.308,37.79c25.163,22.897,26.939,62.435,29.831,100.984
			c2.17,28.932,3.823,107.122,1.4,118.836"/>
		<path fill="#D5538F" d="M344.377,1533.706c-0.03,16.374-14.438,29.62-32.176,29.587c-17.739-0.035-32.094-13.335-32.062-29.71
			c0.03-16.379,14.438-29.624,32.175-29.59C330.052,1504.026,344.408,1517.325,344.377,1533.706z"/>
		<path fill="#D5538F" d="M212.223,1535.994c-0.031,16.377-14.437,29.622-32.176,29.587c-17.736-0.033-32.095-13.332-32.062-29.707
			c0.03-16.379,14.436-29.625,32.174-29.591C197.898,1506.315,212.254,1519.616,212.223,1535.994z"/>
		<path d="M277.615,1544.299l-60.816-2.401c0,0,10.816-3.318,32.282-2.511C270.549,1540.193,277.615,1544.299,277.615,1544.299z"/>
		<path fill="#FCFDFF" d="M229.75,1539.794c0,0,2.354,16.624,3.402,17.717l7.812-18.264
			C240.964,1539.247,234.187,1539.301,229.75,1539.794z"/>
		<path fill="#FFFFFF" d="M250.789,1491.158c0.151,20.234-16.13,36.759-36.365,36.91c-20.235,0.15-36.759-16.131-36.91-36.367
			c-0.04-5.479,1.124-10.685,3.247-15.37l65.548-2.469C249.125,1479,250.742,1484.89,250.789,1491.158z"/>
		<circle cx="213.757" cy="1497.506" r="10.377"/>
		<path fill="#FFFFFF" d="M301.911,1502.232c-1.569,13.241-13.576,22.701-26.817,21.131c-13.24-1.572-22.701-13.579-21.128-26.82
			c0.436-3.671,1.671-7.051,3.513-9.984l43.294,4.964C301.922,1494.856,302.357,1498.495,301.911,1502.232z"/>
		<path d="M286.86,1504.06c-0.619,5.225-5.362,8.964-10.587,8.343c-5.227-0.62-8.961-5.361-8.341-10.588
			c0.622-5.227,5.36-8.963,10.588-8.342C283.744,1494.093,287.479,1498.833,286.86,1504.06z"/>
		<path fill="#FCFDFF" d="M263.317,1540.601c0,0-3.024,16.297-4.116,17.349l-7.104-18.549
			C252.097,1539.4,258.905,1539.936,263.317,1540.601z"/>
	</g>
</g>
</svg>
