<?xml version="1.0" encoding="utf-8"?>
<!-- Generator: Adobe Illustrator 15.1.0, SVG Export Plug-In . SVG Version: 6.00 Build 0)  -->
<!DOCTYPE svg PUBLIC "-//W3C//DTD SVG 1.1//EN" "http://www.w3.org/Graphics/SVG/1.1/DTD/svg11.dtd">
<svg version="1.1" xmlns="http://www.w3.org/2000/svg" xmlns:xlink="http://www.w3.org/1999/xlink" x="0px" y="0px" width="400px"
	 height="400px" viewBox="0 0 400 400" enable-background="new 0 0 400 400" xml:space="preserve">
<g id="guide_lines_layer" display="none">
	<rect x="-1388.25" y="-4.012" display="inline" fill="#FFFFFF" stroke="#000000" stroke-miterlimit="10" width="75" height="400"/>
	<rect x="-1064" y="-8.011" display="inline" fill="#FFFFFF" stroke="#000000" stroke-miterlimit="10" width="75" height="400"/>
	<rect x="-1064" y="-411" display="inline" fill="#FFFFFF" stroke="#000000" stroke-miterlimit="10" width="75" height="400"/>
	<rect x="-1388.25" y="-411" display="inline" fill="#FFFFFF" stroke="#000000" stroke-miterlimit="10" width="75" height="400"/>
	<rect x="-928.941" y="-415.5" display="inline" fill="#FFFFFF" stroke="#000000" stroke-miterlimit="10" width="75" height="400"/>
	<rect x="-603.941" y="-416.5" display="inline" fill="#FFFFFF" stroke="#000000" stroke-miterlimit="10" width="75" height="400"/>
	<rect x="-603.942" y="-8.465" display="inline" fill="#FFFFFF" stroke="#000000" stroke-miterlimit="10" width="75" height="400"/>
	<rect x="-928.942" y="-8.465" display="inline" fill="#FFFFFF" stroke="#000000" stroke-miterlimit="10" width="75" height="400"/>
	
		<rect x="-1388.25" y="397.554" display="inline" fill="#FFFFFF" stroke="#000000" stroke-miterlimit="10" width="75" height="400"/>
	<rect x="-1064" y="397.554" display="inline" fill="#FFFFFF" stroke="#000000" stroke-miterlimit="10" width="75" height="400"/>
	
		<rect x="-602.442" y="397.554" display="inline" fill="#FFFFFF" stroke="#000000" stroke-miterlimit="10" width="75" height="400"/>
	
		<rect x="-927.442" y="397.554" display="inline" fill="#FFFFFF" stroke="#000000" stroke-miterlimit="10" width="75" height="400"/>
	
		<rect x="-472.667" y="-414.333" display="inline" fill="#FFFFFF" stroke="#000000" stroke-miterlimit="10" width="75" height="400"/>
	
		<rect x="-147.667" y="-414.333" display="inline" fill="#FFFFFF" stroke="#000000" stroke-miterlimit="10" width="75" height="399.999"/>
	<rect x="-149" y="-1" display="inline" fill="#FFFFFF" stroke="#000000" stroke-miterlimit="10" width="75" height="400"/>
	<rect x="-474" y="-1" display="inline" fill="#FFFFFF" stroke="#000000" stroke-miterlimit="10" width="75" height="400"/>
	<rect x="-147.667" y="406" display="inline" fill="#FFFFFF" stroke="#000000" stroke-miterlimit="10" width="75" height="400"/>
	<rect x="-472.667" y="407" display="inline" fill="#FFFFFF" stroke="#000000" stroke-miterlimit="10" width="75" height="400"/>
	<rect x="0.605" y="-414.969" display="inline" fill="#FFFFFF" stroke="#000000" stroke-miterlimit="10" width="75" height="400"/>
	
		<rect x="325.605" y="-414.969" display="inline" fill="#FFFFFF" stroke="#000000" stroke-miterlimit="10" width="75" height="399.999"/>
	<rect x="324.272" display="inline" fill="#FFFFFF" stroke="#000000" stroke-miterlimit="10" width="75" height="400"/>
	<rect display="inline" fill="#FFFFFF" stroke="#000000" stroke-miterlimit="10" width="75" height="400"/>
	<rect x="324.272" y="405.364" display="inline" fill="#FFFFFF" stroke="#000000" stroke-miterlimit="10" width="75" height="400"/>
	<rect x="-0.728" y="406.364" display="inline" fill="#FFFFFF" stroke="#000000" stroke-miterlimit="10" width="75" height="400"/>
</g>
<g id="body_layer">
	<path fill="#DBCD7D" d="M122.335-277.333c0,0-63.33-68.667-118.667-8.667c62.715-18,76.856-2,88.539,29.334
		C103.509-226.355,122.335-277.333,122.335-277.333z"/>
	<path fill="#DBCD7D" d="M267-275.333c0,0,63.33-68.667,118.667-8.667c-62.715-18-76.856-2-88.539,29.333
		C285.826-224.356,267-275.333,267-275.333z"/>
	<path fill="#7DC6DD" d="M-1313.333-13.998c-2.883-20-6.001-94.502-1.501-143.002c3.743-40.334,17.835-96.814,42.335-118.185
		c3.563-3.109-30.615-46.477-26.834-49.162c3.812-2.707,45.584,35.273,49.586,33.007c14.496-8.207,30.145-13.495,46.222-15.626
		c5.358-0.71,10.294-53.233,15.722-53.233c6.436,0,13.158,52.65,19.217,53.576c18.174,2.776,34.613,9.508,49.126,18.933
		c2.902,1.885,44.048-32.705,46.795-30.614c3.355,2.554-31.726,41.835-28.608,44.662c29.753,26.976,31.94,73.644,35.44,119.144
		c2.627,34.148,4.752,126.445,1.92,140.279L-1313.333-13.998z"/>
	<path fill="#79C2EA" stroke="#FFFFFF" stroke-miterlimit="10" d="M-1613-208"/>
	<path fill="#7DC6DD" d="M-1314-7.999v46c0,0-4,30-21,37s-27,11-27,31s11,36-6,41s-14,15,0,15s25.353-13.575,26.774-25.657
		c1.963-16.687-8.344-22.576,7.853-32.883c9.972-6.346,19.141-5.399,19.141-5.399l-0.492,53.985c0,0-28.436,6.475-36.318,25.523
		c-11.779,28.464,4.968,47.216,1.042,62.431c-6.039,23.4-23.395,19.503-22.5,28c1,9.5,37.038,0.956,39-28
		c1.114-16.443-2.814-21.393-3.309-29.06c-0.982-15.214,9.325-26.993,23.067-25.519l-0.258,88.578c0,0,0.629,17.897-13.484,28.718
		c-14.724,11.288-18.65,9.815-26.012,16.688c-17.939,16.744-6.871,35.827-15.706,41.718c-14.062,9.377-15.214,21.595-2.945,16.687
		c22.104-8.843,21.777-16.334,24.54-33.374c2.944-18.159,29.607-22.436,29.607-22.436h4l0.903,70.988H-1202l7-400L-1314-7.999z"/>
	<path fill="#7DC6DD" d="M-1318,322.001"/>
	<circle fill="#36A1BA" cx="-1336.833" cy="81.167" r="7.833"/>
	<circle fill="#36A1BA" cx="-1335.833" cy="102.167" r="6.167"/>
	<circle fill="#36A1BA" cx="-1353.499" cy="98.833" r="5.833"/>
	<circle fill="#36A1BA" cx="-1344.999" cy="116" r="4.333"/>
	<circle fill="#36A1BA" cx="-1357.666" cy="110" r="4.667"/>
	<circle fill="#36A1BA" cx="-1354.999" cy="123.333" r="4"/>
	<circle fill="#36A1BA" cx="-1343.499" cy="130.167" r="3.5"/>
	<circle fill="#36A1BA" cx="-1354.499" cy="136.167" r="3.833"/>
	<circle fill="#36A1BA" cx="-1347.666" cy="146" r="3.667"/>
	<circle fill="#36A1BA" cx="-1360.666" cy="147.666" r="3.333"/>
	<circle fill="#36A1BA" cx="-1356.833" cy="156.501" r="2.833"/>
	<circle fill="#36A1BA" cx="-1370.666" cy="155" r="3"/>
	<circle fill="#36A1BA" cx="-1317.999" cy="160.667" r="9"/>
	<circle fill="#36A1BA" cx="-1329.333" cy="183.333" r="8"/>
	<circle fill="#36A1BA" cx="-1339.166" cy="169.833" r="6.833"/>
	<circle fill="#36A1BA" cx="-1349.833" cy="181.5" r="6.167"/>
	<circle fill="#36A1BA" cx="-1352.999" cy="198.001" r="6.167"/>
	<circle fill="#36A1BA" cx="-1338.499" cy="198.834" r="6.5"/>
	<circle fill="#36A1BA" cx="-1349.499" cy="213.833" r="4.833"/>
	<circle fill="#36A1BA" cx="-1337.666" cy="218.334" r="4"/>
	<circle fill="#36A1BA" cx="-1345.166" cy="229.167" r="3.833"/>
	<circle fill="#36A1BA" cx="-1336.499" cy="232.833" r="3.833"/>
	<circle fill="#36A1BA" cx="-1346.832" cy="241.501" r="4.167"/>
	<circle fill="#36A1BA" cx="-1344.333" cy="257.501" r="3.5"/>
	<circle fill="#36A1BA" cx="-1351.332" cy="251.001" r="3.333"/>
	<circle fill="#36A1BA" cx="-1336.333" cy="248.334" r="4.333"/>
	<circle fill="#36A1BA" cx="-1355.166" cy="265.501" r="3.833"/>
	<circle fill="#36A1BA" cx="-1324.833" cy="306.167" r="6.167"/>
	<circle fill="#36A1BA" cx="-1335.499" cy="325.166" r="4.167"/>
	<circle fill="#36A1BA" cx="-1335.166" cy="312.834" r="3.833"/>
	<circle fill="#36A1BA" cx="-1346.999" cy="320.333" r="4.333"/>
	<circle fill="#36A1BA" cx="-1360.999" cy="344.666" r="3"/>
	<circle fill="#36A1BA" cx="-1356.166" cy="331.499" r="4.167"/>
	<circle fill="#36A1BA" cx="-1345.499" cy="333.833" r="4.833"/>
	<circle fill="#36A1BA" cx="-1323.332" cy="319.666" r="5.667"/>
	<circle fill="#36A1BA" cx="-1354.499" cy="363.166" r="3.5"/>
	<circle fill="#36A1BA" cx="-1365.166" cy="363.833" r="3.5"/>
	<circle fill="#36A1BA" cx="-1353.499" cy="350.499" r="3.5"/>
	<circle fill="#36A1BA" cx="-1351.499" cy="342.166" r="3.5"/>
	<circle fill="#36A1BA" cx="-1362.666" cy="355.999" r="3"/>
	<circle fill="#36A1BA" cx="-1368.166" cy="371.833" r="3.167"/>
	<path fill="#7DC6DD" d="M-1064.017-7.011l-0.941,45.012c0,0,4.405,30,23.125,37c18.721,7,29.732,11,29.732,31s-12.113,36,6.607,41
		c18.72,5,15.416,15,0,15c-15.417,0-27.919-13.575-29.484-25.657c-2.161-16.687,9.188-22.576-8.646-32.883
		c-10.982-6.346-21.078-5.399-21.078-5.399l0.541,53.985c0,0,31.313,6.475,39.993,25.523c12.972,28.464-5.47,47.216-1.146,62.431
		c6.649,23.4,25.762,19.503,24.776,28c-1.102,9.5-40.785,0.956-42.946-28c-1.228-16.443,3.099-21.393,3.644-29.06
		c1.081-15.214-10.269-26.993-25.401-25.519l0.284,88.578c0,0-0.692,17.897,14.849,28.718c16.215,11.288,20.538,9.815,28.645,16.688
		c19.755,16.744,7.566,35.827,17.295,41.718c15.486,9.377,16.754,21.595,3.242,16.687c-24.34-8.843-23.98-16.334-27.021-33.374
		c-3.244-18.159-32.604-22.436-32.604-22.436h-4.405l1.381,70.988h-139.676l7.253-400H-1064.017z"/>
	<path fill="#7DC6DD" d="M-1060.553,322.001"/>
	<ellipse fill="#36A1BA" cx="-1039.815" cy="81.167" rx="8.626" ry="7.833"/>
	<ellipse fill="#36A1BA" cx="-1040.917" cy="102.167" rx="6.791" ry="6.166"/>
	<ellipse fill="#36A1BA" cx="-1021.462" cy="98.833" rx="6.423" ry="5.834"/>
	<ellipse fill="#36A1BA" cx="-1030.822" cy="116" rx="4.771" ry="4.333"/>
	<ellipse fill="#36A1BA" cx="-1016.874" cy="110" rx="5.139" ry="4.667"/>
	<ellipse fill="#36A1BA" cx="-1019.81" cy="123.333" rx="4.405" ry="4"/>
	<ellipse fill="#36A1BA" cx="-1032.474" cy="130.167" rx="3.854" ry="3.5"/>
	<ellipse fill="#36A1BA" cx="-1020.361" cy="136.167" rx="4.221" ry="3.833"/>
	<ellipse fill="#36A1BA" cx="-1027.886" cy="146" rx="4.038" ry="3.667"/>
	<ellipse fill="#36A1BA" cx="-1013.57" cy="147.666" rx="3.671" ry="3.333"/>
	<ellipse fill="#36A1BA" cx="-1017.791" cy="156.501" rx="3.12" ry="2.833"/>
	<ellipse fill="#36A1BA" cx="-1002.558" cy="155" rx="3.304" ry="3"/>
	<ellipse fill="#36A1BA" cx="-1060.554" cy="160.667" rx="9.911" ry="9"/>
	<ellipse fill="#36A1BA" cx="-1048.074" cy="183.333" rx="8.81" ry="8"/>
	<ellipse fill="#36A1BA" cx="-1037.246" cy="169.833" rx="7.525" ry="6.834"/>
	<ellipse fill="#36A1BA" cx="-1025.499" cy="181.5" rx="6.791" ry="6.167"/>
	<ellipse fill="#36A1BA" cx="-1022.013" cy="198.001" rx="6.791" ry="6.167"/>
	<ellipse fill="#36A1BA" cx="-1037.98" cy="198.834" rx="7.158" ry="6.5"/>
	<ellipse fill="#36A1BA" cx="-1025.867" cy="213.833" rx="5.322" ry="4.834"/>
	<ellipse fill="#36A1BA" cx="-1038.897" cy="218.334" rx="4.405" ry="4"/>
	<ellipse fill="#36A1BA" cx="-1030.639" cy="229.167" rx="4.222" ry="3.833"/>
	<ellipse fill="#36A1BA" cx="-1040.182" cy="232.833" rx="4.221" ry="3.834"/>
	<ellipse fill="#36A1BA" cx="-1028.804" cy="241.501" rx="4.589" ry="4.167"/>
	<ellipse fill="#36A1BA" cx="-1031.556" cy="257.501" rx="3.854" ry="3.5"/>
	<ellipse fill="#36A1BA" cx="-1023.848" cy="251.001" rx="3.671" ry="3.334"/>
	<ellipse fill="#36A1BA" cx="-1040.365" cy="248.334" rx="4.771" ry="4.333"/>
	<ellipse fill="#36A1BA" cx="-1019.626" cy="265.501" rx="4.221" ry="3.834"/>
	<ellipse fill="#36A1BA" cx="-1053.028" cy="306.167" rx="6.791" ry="6.167"/>
	<ellipse fill="#36A1BA" cx="-1041.284" cy="325.166" rx="4.588" ry="4.166"/>
	<ellipse fill="#36A1BA" cx="-1041.65" cy="312.834" rx="4.222" ry="3.833"/>
	<ellipse fill="#36A1BA" cx="-1028.619" cy="320.333" rx="4.771" ry="4.334"/>
	<ellipse fill="#36A1BA" cx="-1013.203" cy="344.666" rx="3.304" ry="3"/>
	<ellipse fill="#36A1BA" cx="-1018.525" cy="331.499" rx="4.588" ry="4.167"/>
	<ellipse fill="#36A1BA" cx="-1030.271" cy="333.833" rx="5.322" ry="4.833"/>
	<ellipse fill="#36A1BA" cx="-1054.682" cy="319.666" rx="6.239" ry="5.666"/>
	<ellipse fill="#36A1BA" cx="-1020.361" cy="363.166" rx="3.854" ry="3.5"/>
	<ellipse fill="#36A1BA" cx="-1008.614" cy="363.833" rx="3.854" ry="3.5"/>
	<ellipse fill="#36A1BA" cx="-1021.462" cy="350.499" rx="3.854" ry="3.5"/>
	<ellipse fill="#36A1BA" cx="-1023.665" cy="342.166" rx="3.854" ry="3.5"/>
	<ellipse fill="#36A1BA" cx="-1011.367" cy="355.999" rx="3.304" ry="3"/>
	<ellipse fill="#36A1BA" cx="-1005.311" cy="371.833" rx="3.487" ry="3.166"/>
	<path fill="#52BFD1" d="M-1088.667,188.013c0,99.408-43.169,179.988-96.417,179.988s-96.417-80.58-96.417-179.988
		c0-99.43,43.168-180.012,96.417-180.012S-1088.667,88.583-1088.667,188.013z"/>
	<path fill="#52BFD1" d="M-1070.668-158.996c0,19.33-16.977,34.998-37.917,34.998c-20.939,0-37.916-15.668-37.916-34.998
		c0-19.334,16.977-35.002,37.916-35.002C-1087.645-193.998-1070.668-178.33-1070.668-158.996z"/>
	<path fill="#52BFD1" d="M-1226.668-155.996c0,19.33-16.977,34.998-37.917,34.998c-20.939,0-37.916-15.668-37.916-34.998
		c0-19.334,16.977-35.002,37.916-35.002C-1243.645-190.998-1226.668-175.33-1226.668-155.996z"/>
	<g>
		<g>
			<path fill="#7DC6DD" d="M-1269.392-294.006c0.65,0,2.082-0.987,0.781-0.987C-1269.261-294.993-1270.692-294.006-1269.392-294.006
				L-1269.392-294.006z"/>
		</g>
	</g>
	<g>
		<g>
			<path fill="none" stroke="#F2E4D2" stroke-miterlimit="10" d="M-1102.501-293.5"/>
		</g>
	</g>
	<g>
		<g>
			<path fill="none" stroke="#F2E4D2" stroke-miterlimit="10" d="M-1190.501-294.5"/>
		</g>
	</g>
	<path fill="#6FC5D8" d="M-1062.523,397.554l2.023,127.449c-2.206,25.478,41-4,41,29c0,32.062-120,28-119,14
		c0.778-10.892-6-128-59-122c-32.804,3.714-43.046,125.093-45,129c-3,6-115,30-117-12c-1.813-38.075,46,0,44.168-36.008
		c0,0,2.881-125.732,3.77-129.441H-1062.523z"/>
	<path fill="#D6C370" d="M-1356.491,551.399c0,0-4.187,4.983-2.193,10.965c0,0-12.559-7.376-16.347,0.996
		C-1375.43,551.798-1366.658,550.402-1356.491,551.399z"/>
	<path fill="#D6C370" d="M-1356.69,564.357c0,0-0.199,4.386,5.98,7.975c0,0-13.755-3.189-17.543,5.183
		C-1368.651,565.952-1366.857,563.36-1356.69,564.357z"/>
	<path fill="#D6C370" d="M-1349.416,575.061l7.841,2.83c0,0-8.394,3.072-11.97,13.587
		C-1356.452,584.485-1355.544,578.683-1349.416,575.061z"/>
	<path fill="#D6C370" d="M-1023.743,541.399c0,0,4.069,4.983,2.131,10.965c0,0,12.207-7.376,15.89,0.996
		C-1005.336,541.798-1013.861,540.402-1023.743,541.399z"/>
	<path fill="#D6C370" d="M-1023.55,554.357c0,0,0.193,4.386-5.812,7.975c0,0,13.369-3.189,17.051,5.183
		C-1011.924,555.952-1013.668,553.36-1023.55,554.357z"/>
	<path fill="#D6C370" d="M-1030.62,565.061l-7.621,2.83c0,0,8.158,3.072,11.634,13.587
		C-1023.782,574.485-1024.664,568.683-1030.62,565.061z"/>
	<path fill="#52BFD1" d="M-1311.517,404.979c0,0,139.461,50.713-3.888,123.271L-1311.517,404.979z"/>
	<path fill="#52BFD1" d="M-1062.237,402.507c0,0-124.187,45.307,1.429,119.307L-1062.237,402.507z"/>
	<path fill="#8BCEAB" d="M-855.825-15.879c-2.881-20-6-94.502-1.5-143.002c3.742-40.336,17.835-96.814,42.335-118.185
		c3.563-3.109-30.614-46.478-26.833-49.163c3.811-2.707,45.583,35.274,49.586,33.009c14.496-8.207,30.144-13.496,46.221-15.628
		c5.359-0.709,10.294-53.232,15.722-53.232c6.436,0,13.158,52.648,19.217,53.574c18.174,2.778,34.613,9.509,49.126,18.935
		c2.902,1.885,44.048-32.706,46.795-30.616c3.355,2.555-31.726,41.837-28.608,44.663c29.753,26.976,31.94,73.642,35.44,119.144
		c2.627,34.148,4.752,126.445,1.92,140.279L-855.825-15.879z"/>
	<path fill="#8BCEAB" d="M-854.993-8.381v46c0,0-4,30-21,37s-27,11-27,31s11,36-6,41s-14,15,0,15s25.353-13.574,26.774-25.656
		c1.963-16.688-8.344-22.576,7.853-32.883c9.972-6.346,19.142-5.4,19.142-5.4l-0.492,53.986c0,0-28.436,6.475-36.318,25.523
		c-11.779,28.463,4.969,47.215,1.042,62.43c-6.038,23.4-23.395,19.504-22.5,28c1,9.5,37.038,0.957,39-28
		c1.114-16.443-2.813-21.393-3.309-29.059c-0.981-15.215,9.325-26.994,23.067-25.52l-0.259,88.578c0,0,0.63,17.898-13.484,28.719
		c-14.724,11.287-18.649,9.814-26.013,16.688c-17.938,16.744-6.871,35.826-15.705,41.717c-14.062,9.377-15.215,21.596-2.945,16.688
		c22.105-8.844,21.777-16.334,24.541-33.375c2.943-18.158,29.606-22.436,29.606-22.436h4l0.903,70.988h111.097l7-400L-854.993-8.381
		z"/>
	<path fill="#7DC6DD" d="M-858.993,321.619"/>
	<circle fill="#60A37B" cx="-877.826" cy="80.785" r="7.833"/>
	<circle fill="#60A37B" cx="-876.826" cy="101.785" r="6.167"/>
	<circle fill="#60A37B" cx="-894.492" cy="98.451" r="5.834"/>
	<circle fill="#60A37B" cx="-885.993" cy="115.619" r="4.333"/>
	<circle fill="#60A37B" cx="-898.659" cy="109.619" r="4.667"/>
	<circle fill="#60A37B" cx="-895.992" cy="122.951" r="4"/>
	<circle fill="#60A37B" cx="-884.492" cy="129.785" r="3.5"/>
	<circle fill="#60A37B" cx="-895.492" cy="135.785" r="3.834"/>
	<circle fill="#60A37B" cx="-888.659" cy="145.619" r="3.667"/>
	<circle fill="#60A37B" cx="-901.659" cy="147.285" r="3.333"/>
	<circle fill="#60A37B" cx="-897.826" cy="156.119" r="2.833"/>
	<circle fill="#60A37B" cx="-911.659" cy="154.619" r="3"/>
	<circle fill="#60A37B" cx="-858.992" cy="160.285" r="9"/>
	<circle fill="#60A37B" cx="-870.326" cy="182.951" r="8"/>
	<circle fill="#60A37B" cx="-880.159" cy="169.451" r="6.833"/>
	<circle fill="#60A37B" cx="-890.825" cy="181.119" r="6.167"/>
	<circle fill="#60A37B" cx="-893.992" cy="197.619" r="6.167"/>
	<circle fill="#60A37B" cx="-879.492" cy="198.453" r="6.5"/>
	<circle fill="#60A37B" cx="-890.492" cy="213.451" r="4.834"/>
	<circle fill="#60A37B" cx="-878.659" cy="217.953" r="4"/>
	<circle fill="#60A37B" cx="-886.159" cy="228.785" r="3.833"/>
	<circle fill="#60A37B" cx="-877.493" cy="232.451" r="3.833"/>
	<circle fill="#60A37B" cx="-887.825" cy="241.119" r="4.167"/>
	<circle fill="#60A37B" cx="-885.326" cy="257.119" r="3.5"/>
	<circle fill="#60A37B" cx="-892.325" cy="250.619" r="3.333"/>
	<circle fill="#60A37B" cx="-877.325" cy="247.953" r="4.333"/>
	<circle fill="#60A37B" cx="-896.159" cy="265.119" r="3.833"/>
	<circle fill="#60A37B" cx="-865.825" cy="305.785" r="6.167"/>
	<circle fill="#60A37B" cx="-876.492" cy="324.785" r="4.167"/>
	<circle fill="#60A37B" cx="-876.159" cy="312.453" r="3.833"/>
	<circle fill="#60A37B" cx="-887.992" cy="319.951" r="4.333"/>
	<circle fill="#60A37B" cx="-901.992" cy="344.285" r="3"/>
	<circle fill="#60A37B" cx="-897.159" cy="331.117" r="4.167"/>
	<circle fill="#60A37B" cx="-886.492" cy="333.451" r="4.833"/>
	<circle fill="#60A37B" cx="-864.325" cy="319.285" r="5.667"/>
	<circle fill="#60A37B" cx="-895.492" cy="362.785" r="3.5"/>
	<circle fill="#60A37B" cx="-906.158" cy="363.451" r="3.5"/>
	<circle fill="#60A37B" cx="-894.492" cy="350.117" r="3.5"/>
	<circle fill="#60A37B" cx="-892.492" cy="341.785" r="3.5"/>
	<circle fill="#60A37B" cx="-903.658" cy="355.617" r="3"/>
	<circle fill="#60A37B" cx="-909.159" cy="371.451" r="3.167"/>
	<path fill="#8BCEAB" d="M-603.01-7.393l-2.941,45.012c0,0,4.405,30,23.125,37c18.721,7,29.732,11,29.732,31s-12.113,36,6.607,41
		c18.72,5,15.416,15,0,15c-15.417,0-27.919-13.574-29.484-25.656c-2.161-16.688,9.188-22.576-8.646-32.883
		c-10.982-6.346-21.078-5.4-21.078-5.4l0.541,53.986c0,0,31.313,6.475,39.993,25.523c12.972,28.463-5.47,47.215-1.146,62.43
		c6.649,23.4,25.762,19.504,24.776,28c-1.102,9.5-40.785,0.957-42.946-28c-1.228-16.443,3.099-21.393,3.644-29.059
		c1.081-15.215-10.269-26.994-25.401-25.52l0.284,88.578c0,0-0.692,17.898,14.849,28.719c16.215,11.287,20.538,9.814,28.645,16.688
		c19.755,16.744,7.566,35.826,17.295,41.717c15.486,9.377,16.754,21.596,3.242,16.688c-24.34-8.844-23.98-16.334-27.021-33.375
		c-3.244-18.158-32.604-22.436-32.604-22.436h-4.405l3.381,70.988h-141.676l7.253-400H-603.01z"/>
	<path fill="#7DC6DD" d="M-601.546,321.619"/>
	<ellipse fill="#60A37B" cx="-580.808" cy="80.785" rx="8.626" ry="7.834"/>
	<ellipse fill="#60A37B" cx="-581.91" cy="101.785" rx="6.791" ry="6.166"/>
	<ellipse fill="#60A37B" cx="-562.455" cy="98.451" rx="6.423" ry="5.834"/>
	<ellipse fill="#60A37B" cx="-571.815" cy="115.619" rx="4.771" ry="4.332"/>
	<ellipse fill="#60A37B" cx="-557.867" cy="109.619" rx="5.139" ry="4.666"/>
	<ellipse fill="#60A37B" cx="-560.803" cy="122.951" rx="4.405" ry="4"/>
	<ellipse fill="#60A37B" cx="-573.467" cy="129.785" rx="3.854" ry="3.5"/>
	<ellipse fill="#60A37B" cx="-561.354" cy="135.785" rx="4.221" ry="3.834"/>
	<ellipse fill="#60A37B" cx="-568.879" cy="145.619" rx="4.038" ry="3.666"/>
	<ellipse fill="#60A37B" cx="-554.563" cy="147.285" rx="3.671" ry="3.332"/>
	<ellipse fill="#60A37B" cx="-558.784" cy="156.119" rx="3.12" ry="2.834"/>
	<ellipse fill="#60A37B" cx="-543.551" cy="154.619" rx="3.304" ry="3"/>
	<ellipse fill="#60A37B" cx="-601.547" cy="160.285" rx="9.911" ry="9"/>
	<ellipse fill="#60A37B" cx="-589.067" cy="182.951" rx="8.81" ry="8"/>
	<ellipse fill="#60A37B" cx="-578.239" cy="169.451" rx="7.525" ry="6.834"/>
	<ellipse fill="#60A37B" cx="-566.492" cy="181.119" rx="6.791" ry="6.166"/>
	<ellipse fill="#60A37B" cx="-563.006" cy="197.619" rx="6.791" ry="6.168"/>
	<ellipse fill="#60A37B" cx="-578.973" cy="198.453" rx="7.158" ry="6.5"/>
	<ellipse fill="#60A37B" cx="-566.86" cy="213.451" rx="5.322" ry="4.834"/>
	<ellipse fill="#60A37B" cx="-579.89" cy="217.953" rx="4.405" ry="4"/>
	<ellipse fill="#60A37B" cx="-571.632" cy="228.785" rx="4.222" ry="3.834"/>
	<ellipse fill="#60A37B" cx="-581.175" cy="232.451" rx="4.221" ry="3.834"/>
	<ellipse fill="#60A37B" cx="-569.797" cy="241.119" rx="4.589" ry="4.168"/>
	<ellipse fill="#60A37B" cx="-572.549" cy="257.119" rx="3.854" ry="3.5"/>
	<ellipse fill="#60A37B" cx="-564.841" cy="250.619" rx="3.671" ry="3.334"/>
	<ellipse fill="#60A37B" cx="-581.358" cy="247.953" rx="4.771" ry="4.332"/>
	<ellipse fill="#60A37B" cx="-560.62" cy="265.119" rx="4.221" ry="3.834"/>
	<ellipse fill="#60A37B" cx="-594.021" cy="305.785" rx="6.791" ry="6.168"/>
	<ellipse fill="#60A37B" cx="-582.277" cy="324.785" rx="4.588" ry="4.166"/>
	<ellipse fill="#60A37B" cx="-582.644" cy="312.453" rx="4.222" ry="3.832"/>
	<ellipse fill="#60A37B" cx="-569.612" cy="319.951" rx="4.771" ry="4.334"/>
	<ellipse fill="#60A37B" cx="-554.196" cy="344.285" rx="3.304" ry="3"/>
	<ellipse fill="#60A37B" cx="-559.519" cy="331.117" rx="4.588" ry="4.168"/>
	<ellipse fill="#60A37B" cx="-571.265" cy="333.451" rx="5.322" ry="4.834"/>
	<ellipse fill="#60A37B" cx="-595.675" cy="319.285" rx="6.239" ry="5.666"/>
	<ellipse fill="#60A37B" cx="-561.354" cy="362.785" rx="3.854" ry="3.5"/>
	<ellipse fill="#60A37B" cx="-549.607" cy="363.451" rx="3.854" ry="3.5"/>
	<ellipse fill="#60A37B" cx="-562.455" cy="350.117" rx="3.854" ry="3.5"/>
	<ellipse fill="#60A37B" cx="-564.658" cy="341.785" rx="3.854" ry="3.5"/>
	<ellipse fill="#60A37B" cx="-552.36" cy="355.617" rx="3.304" ry="3"/>
	<ellipse fill="#60A37B" cx="-546.304" cy="371.451" rx="3.487" ry="3.166"/>
	<path fill="#72C596" d="M-629.66,187.631c0,99.408-43.169,179.988-96.417,179.988s-96.417-80.58-96.417-179.988
		c0-99.43,43.169-180.012,96.417-180.012S-629.66,88.201-629.66,187.631z"/>
	<path fill="#72C596" d="M-613.159-160.877c0,19.33-16.977,34.998-37.917,34.998c-20.939,0-37.916-15.668-37.916-34.998
		c0-19.336,16.977-35.004,37.916-35.004C-630.136-195.881-613.159-180.213-613.159-160.877z"/>
	<path fill="#72C596" d="M-769.159-157.877c0,19.33-16.977,34.998-37.917,34.998c-20.939,0-37.916-15.668-37.916-34.998
		c0-19.336,16.977-35.004,37.916-35.004C-786.136-192.881-769.159-177.213-769.159-157.877z"/>
	<g>
		<g>
			<path fill="#7DC6DD" d="M-811.883-295.887c0.65,0,2.082-0.986,0.781-0.986C-811.752-296.874-813.184-295.887-811.883-295.887
				L-811.883-295.887z"/>
		</g>
	</g>
	<g>
		<g>
			<path fill="none" stroke="#F2E4D2" stroke-miterlimit="10" d="M-644.992-295.38"/>
		</g>
	</g>
	<g>
		<g>
			<path fill="none" stroke="#F2E4D2" stroke-miterlimit="10" d="M-732.992-296.38"/>
		</g>
	</g>
	<path fill="#8BCEAB" d="M-602.517,398.172l2.023,127.449c-2.206,25.479,41-4,41,29c0,32.062-120,28-119,14
		c0.778-10.891-6-128-59-122c-32.804,3.715-43.046,125.094-45,129c-3,6-114,29-116-13c-1.813-38.074,45,1,43.169-35.008
		c0,0,2.881-125.732,3.77-129.441H-602.517z"/>
	<path fill="#D6C370" d="M-896.484,552.018c0,0-4.187,4.984-2.193,10.965c0,0-12.559-7.375-16.347,0.996
		C-915.423,552.416-906.651,551.021-896.484,552.018z"/>
	<path fill="#D6C370" d="M-895.684,563.977c0,0-1.199,5.385,4.98,8.975c0,0-12.755-4.189-16.543,4.182
		C-907.645,565.57-905.851,562.979-895.684,563.977z"/>
	<path fill="#D6C370" d="M-889.409,575.68l7.841,2.83c0,0-8.395,3.072-11.97,13.586
		C-896.445,585.104-895.537,579.301-889.409,575.68z"/>
	<path fill="#D6C370" d="M-563.736,542.018c0,0,4.069,4.984,2.131,10.965c0,0,13.207-8.375,16.89-0.004
		C-544.329,541.416-553.854,541.021-563.736,542.018z"/>
	<path fill="#D6C370" d="M-563.543,554.977c0,0,0.193,4.385-5.812,7.975c0,0,14.369-4.189,18.051,4.182
		C-550.917,555.57-553.661,553.979-563.543,554.977z"/>
	<path fill="#D6C370" d="M-570.613,565.68l-7.621,2.83c0,0,8.158,3.072,11.634,13.586
		C-563.775,575.104-564.657,569.301-570.613,565.68z"/>
	<path fill="#72C596" d="M-851.51,405.598c0,0,139.461,50.713-3.889,123.271L-851.51,405.598z"/>
	<path fill="#72C596" d="M-602.23,403.125c0,0-124.187,45.307,1.429,119.307L-602.23,403.125z"/>
	<path fill="#E06899" d="M-397.492-13.822c-2.881-20-6-94.502-1.5-143.002c3.742-40.336,17.835-96.815,42.335-118.186
		c3.563-3.109-30.614-46.478-26.833-49.163c3.811-2.707,45.583,35.274,49.586,33.009c14.496-8.207,30.144-13.496,46.221-15.628
		c5.359-0.709,10.294-53.232,15.722-53.232c6.436,0,13.158,52.648,19.217,53.574c18.174,2.778,34.613,9.509,49.126,18.935
		c2.902,1.885,44.048-32.706,46.795-30.616c3.355,2.555-31.726,41.837-28.608,44.663c29.753,26.976,31.94,73.643,35.44,119.145
		c2.627,34.148,4.752,126.445,1.92,140.279L-397.492-13.822z"/>
	<path fill="#E06899" d="M-398.993-1.49v46c0,0-4,30-21,37s-27,11-27,31s11,36-6,41s-14,15,0,15s25.353-13.576,26.774-25.658
		c1.963-16.686-8.344-22.576,7.853-32.883c9.972-6.346,19.142-5.398,19.142-5.398l-0.492,53.984c0,0-28.436,6.475-36.318,25.523
		c-11.779,28.465,4.969,47.217,1.042,62.432c-6.038,23.4-23.395,19.502-22.5,28c1,9.5,37.038,0.955,39-28
		c1.114-16.443-2.813-21.393-3.309-29.061c-0.981-15.213,9.325-26.992,23.067-25.518l-0.259,88.578c0,0,0.63,17.896-13.484,28.717
		c-14.724,11.289-18.649,9.816-26.013,16.688c-17.938,16.744-6.871,35.828-15.705,41.719c-14.062,9.377-15.215,21.594-2.945,16.686
		c22.105-8.842,21.777-16.334,24.541-33.373c2.943-18.16,29.606-22.436,29.606-22.436h4l0.903,70.988h111.097l7-400L-398.993-1.49z"
		/>
	<path fill="#7DC6DD" d="M-402.993,328.51"/>
	<circle fill="#B63C79" cx="-421.826" cy="87.676" r="7.833"/>
	<circle fill="#B63C79" cx="-420.826" cy="108.676" r="6.167"/>
	<circle fill="#B63C79" cx="-438.492" cy="105.342" r="5.834"/>
	<circle fill="#B63C79" cx="-429.993" cy="122.508" r="4.333"/>
	<circle fill="#B63C79" cx="-442.659" cy="116.508" r="4.667"/>
	<circle fill="#B63C79" cx="-439.992" cy="129.842" r="4"/>
	<circle fill="#B63C79" cx="-428.492" cy="136.676" r="3.5"/>
	<circle fill="#B63C79" cx="-439.492" cy="142.676" r="3.834"/>
	<circle fill="#B63C79" cx="-432.659" cy="152.508" r="3.667"/>
	<circle fill="#B63C79" cx="-445.659" cy="154.174" r="3.333"/>
	<circle fill="#B63C79" cx="-441.826" cy="163.01" r="2.833"/>
	<circle fill="#B63C79" cx="-455.659" cy="161.508" r="3"/>
	<circle fill="#B63C79" cx="-402.992" cy="167.176" r="9"/>
	<circle fill="#B63C79" cx="-414.326" cy="189.842" r="8"/>
	<circle fill="#B63C79" cx="-424.159" cy="176.342" r="6.833"/>
	<circle fill="#B63C79" cx="-434.825" cy="188.008" r="6.167"/>
	<circle fill="#B63C79" cx="-437.992" cy="204.51" r="6.167"/>
	<circle fill="#B63C79" cx="-423.492" cy="205.342" r="6.5"/>
	<circle fill="#B63C79" cx="-434.492" cy="220.342" r="4.834"/>
	<circle fill="#B63C79" cx="-422.659" cy="224.842" r="4"/>
	<circle fill="#B63C79" cx="-430.159" cy="235.676" r="3.833"/>
	<circle fill="#B63C79" cx="-421.493" cy="239.342" r="3.833"/>
	<circle fill="#B63C79" cx="-431.825" cy="248.01" r="4.167"/>
	<circle fill="#B63C79" cx="-429.326" cy="264.01" r="3.5"/>
	<circle fill="#B63C79" cx="-436.325" cy="257.51" r="3.333"/>
	<circle fill="#B63C79" cx="-421.325" cy="254.842" r="4.333"/>
	<circle fill="#B63C79" cx="-440.159" cy="272.01" r="3.833"/>
	<circle fill="#B63C79" cx="-409.825" cy="312.676" r="6.167"/>
	<circle fill="#B63C79" cx="-420.492" cy="331.674" r="4.167"/>
	<circle fill="#B63C79" cx="-420.159" cy="319.342" r="3.833"/>
	<circle fill="#B63C79" cx="-431.992" cy="326.842" r="4.333"/>
	<circle fill="#B63C79" cx="-445.992" cy="351.174" r="3"/>
	<circle fill="#B63C79" cx="-441.159" cy="338.008" r="4.167"/>
	<circle fill="#B63C79" cx="-430.492" cy="340.342" r="4.833"/>
	<circle fill="#B63C79" cx="-408.325" cy="326.174" r="5.667"/>
	<circle fill="#B63C79" cx="-439.492" cy="369.674" r="3.5"/>
	<circle fill="#B63C79" cx="-450.158" cy="370.342" r="3.5"/>
	<circle fill="#B63C79" cx="-438.492" cy="357.008" r="3.5"/>
	<circle fill="#B63C79" cx="-436.492" cy="348.674" r="3.5"/>
	<circle fill="#B63C79" cx="-447.658" cy="362.508" r="3"/>
	<circle fill="#B63C79" cx="-453.159" cy="378.342" r="3.167"/>
	<path fill="#E06899" d="M-147.01-0.502l-2.941,45.012c0,0,4.405,30,23.125,37c18.721,7,29.732,11,29.732,31s-12.113,36,6.607,41
		c18.72,5,15.416,15,0,15c-15.417,0-27.919-13.576-29.484-25.658c-2.161-16.686,9.188-22.576-8.646-32.883
		c-10.982-6.346-21.078-5.398-21.078-5.398l0.541,53.984c0,0,31.313,6.475,39.993,25.523c12.972,28.465-5.47,47.217-1.146,62.432
		c6.649,23.4,25.762,19.502,24.776,28c-1.102,9.5-40.785,0.955-42.946-28c-1.228-16.443,3.099-21.393,3.644-29.061
		c1.081-15.213-10.269-26.992-25.401-25.518l0.284,88.578c0,0-0.692,17.896,14.849,28.717c16.215,11.289,20.538,9.816,28.645,16.688
		c19.755,16.744,7.566,35.828,17.295,41.719c15.486,9.377,16.754,21.594,3.242,16.686c-24.34-8.842-23.98-16.334-27.021-33.373
		c-3.244-18.16-32.604-22.436-32.604-22.436h-4.405l3.381,70.988h-141.676l7.253-400H-147.01z"/>
	<path fill="#7DC6DD" d="M-145.546,328.51"/>
	<ellipse fill="#B63C79" cx="-124.808" cy="87.676" rx="8.626" ry="7.832"/>
	<ellipse fill="#B63C79" cx="-125.91" cy="108.676" rx="6.791" ry="6.166"/>
	<ellipse fill="#B63C79" cx="-106.455" cy="105.342" rx="6.423" ry="5.834"/>
	<ellipse fill="#B63C79" cx="-115.815" cy="122.508" rx="4.771" ry="4.334"/>
	<ellipse fill="#B63C79" cx="-101.867" cy="116.508" rx="5.139" ry="4.668"/>
	<ellipse fill="#B63C79" cx="-104.803" cy="129.842" rx="4.405" ry="4"/>
	<ellipse fill="#B63C79" cx="-117.467" cy="136.676" rx="3.854" ry="3.5"/>
	<ellipse fill="#B63C79" cx="-105.354" cy="142.676" rx="4.221" ry="3.832"/>
	<ellipse fill="#B63C79" cx="-112.879" cy="152.508" rx="4.038" ry="3.668"/>
	<ellipse fill="#B63C79" cx="-98.563" cy="154.174" rx="3.671" ry="3.334"/>
	<ellipse fill="#B63C79" cx="-102.784" cy="163.01" rx="3.12" ry="2.832"/>
	<ellipse fill="#B63C79" cx="-87.551" cy="161.508" rx="3.304" ry="3"/>
	<ellipse fill="#B63C79" cx="-145.547" cy="167.176" rx="9.911" ry="9"/>
	<ellipse fill="#B63C79" cx="-133.067" cy="189.842" rx="8.81" ry="8"/>
	<ellipse fill="#B63C79" cx="-122.239" cy="176.342" rx="7.525" ry="6.834"/>
	<ellipse fill="#B63C79" cx="-110.492" cy="188.008" rx="6.791" ry="6.168"/>
	<ellipse fill="#B63C79" cx="-107.006" cy="204.51" rx="6.791" ry="6.166"/>
	<ellipse fill="#B63C79" cx="-122.973" cy="205.342" rx="7.158" ry="6.5"/>
	<ellipse fill="#B63C79" cx="-110.86" cy="220.342" rx="5.322" ry="4.834"/>
	<ellipse fill="#B63C79" cx="-123.89" cy="224.842" rx="4.405" ry="4"/>
	<ellipse fill="#B63C79" cx="-115.632" cy="235.676" rx="4.222" ry="3.832"/>
	<ellipse fill="#B63C79" cx="-125.175" cy="239.342" rx="4.221" ry="3.834"/>
	<ellipse fill="#B63C79" cx="-113.797" cy="248.01" rx="4.589" ry="4.166"/>
	<ellipse fill="#B63C79" cx="-116.549" cy="264.01" rx="3.854" ry="3.5"/>
	<ellipse fill="#B63C79" cx="-108.841" cy="257.51" rx="3.671" ry="3.334"/>
	<ellipse fill="#B63C79" cx="-125.358" cy="254.842" rx="4.771" ry="4.334"/>
	<ellipse fill="#B63C79" cx="-104.62" cy="272.01" rx="4.221" ry="3.834"/>
	<ellipse fill="#B63C79" cx="-138.021" cy="312.676" rx="6.791" ry="6.166"/>
	<ellipse fill="#B63C79" cx="-126.277" cy="331.674" rx="4.588" ry="4.166"/>
	<ellipse fill="#B63C79" cx="-126.644" cy="319.342" rx="4.222" ry="3.834"/>
	<ellipse fill="#B63C79" cx="-113.612" cy="326.842" rx="4.771" ry="4.334"/>
	<ellipse fill="#B63C79" cx="-98.196" cy="351.174" rx="3.304" ry="3"/>
	<ellipse fill="#B63C79" cx="-103.519" cy="338.008" rx="4.588" ry="4.166"/>
	<ellipse fill="#B63C79" cx="-115.265" cy="340.342" rx="5.322" ry="4.832"/>
	<ellipse fill="#B63C79" cx="-139.675" cy="326.174" rx="6.239" ry="5.666"/>
	<ellipse fill="#B63C79" cx="-105.354" cy="369.674" rx="3.854" ry="3.5"/>
	<ellipse fill="#B63C79" cx="-93.607" cy="370.342" rx="3.854" ry="3.5"/>
	<ellipse fill="#B63C79" cx="-106.455" cy="357.008" rx="3.854" ry="3.5"/>
	<ellipse fill="#B63C79" cx="-108.658" cy="348.674" rx="3.854" ry="3.5"/>
	<ellipse fill="#B63C79" cx="-96.36" cy="362.508" rx="3.304" ry="3"/>
	<ellipse fill="#B63C79" cx="-90.304" cy="378.342" rx="3.487" ry="3.166"/>
	<path fill="#D65490" d="M-173.66,194.521c0,99.408-43.169,179.988-96.417,179.988s-96.417-80.58-96.417-179.988
		c0-99.43,43.169-180.012,96.417-180.012S-173.66,95.092-173.66,194.521z"/>
	<path fill="#D65490" d="M-154.826-158.82c0,19.33-16.977,34.998-37.917,34.998c-20.939,0-37.916-15.668-37.916-34.998
		c0-19.336,16.977-35.004,37.916-35.004C-171.803-193.824-154.826-178.156-154.826-158.82z"/>
	<path fill="#D65490" d="M-310.826-155.82c0,19.33-16.977,34.998-37.917,34.998c-20.939,0-37.916-15.668-37.916-34.998
		c0-19.336,16.977-35.004,37.916-35.004C-327.803-190.824-310.826-175.156-310.826-155.82z"/>
	<g>
		<g>
			<path fill="#7DC6DD" d="M-354.55-294.832c0.65,0,2.082-0.986,0.781-0.986C-354.419-295.818-355.851-294.832-354.55-294.832
				L-354.55-294.832z"/>
		</g>
	</g>
	<g>
		<g>
			<path fill="none" stroke="#F2E4D2" stroke-miterlimit="10" d="M-186.659-293.325"/>
		</g>
	</g>
	<g>
		<g>
			<path fill="none" stroke="#F2E4D2" stroke-miterlimit="10" d="M-275.659-295.325"/>
		</g>
	</g>
	<path fill="#E06899" d="M-148.184,407.176l2.023,127.449c-2.206,25.479,41-4,41,29c0,32.062-120,28-119,14
		c0.778-10.891-6-128-59-122c-32.804,3.715-43.046,125.094-45,129c-3,6-114,29-116-13c-1.813-38.074,45,1,43.169-35.008
		c0,0,2.881-125.732,3.77-129.441H-148.184z"/>
	<path fill="#D6C370" d="M-442.151,561.021c0,0-4.187,4.984-2.193,10.965c0,0-12.559-7.375-16.347,0.996
		C-461.09,561.42-452.318,560.025-442.151,561.021z"/>
	<path fill="#D6C370" d="M-441.351,572.98c0,0-1.199,5.385,4.98,8.975c0,0-12.755-4.189-16.543,4.182
		C-453.312,574.574-451.518,571.982-441.351,572.98z"/>
	<path fill="#D6C370" d="M-435.076,584.684l7.841,2.83c0,0-8.395,3.072-11.97,13.586
		C-442.112,594.107-441.204,588.305-435.076,584.684z"/>
	<path fill="#D6C370" d="M-109.403,551.021c0,0,4.069,4.984,2.131,10.965c0,0,13.207-8.375,16.89-0.004
		C-89.996,550.42-99.521,550.025-109.403,551.021z"/>
	<path fill="#D6C370" d="M-109.21,563.98c0,0,0.193,4.385-5.812,7.975c0,0,14.369-4.189,18.051,4.182
		C-96.584,564.574-99.328,562.982-109.21,563.98z"/>
	<path fill="#D6C370" d="M-116.28,574.684l-7.621,2.83c0,0,8.158,3.072,11.634,13.586
		C-109.442,584.107-110.324,578.305-116.28,574.684z"/>
	<path fill="#D65490" d="M-397.177,414.602c0,0,139.461,50.713-3.889,123.271L-397.177,414.602z"/>
	<path fill="#D65490" d="M-147.897,412.129c0,0-124.187,45.307,1.429,119.307L-147.897,412.129z"/>
	<path fill="#7DC6DD" d="M75.548-14.998c-14.841-6.579-23.789-26.916-27.844-53.051c-1.788-11.528,1.847-27.787-13.702,0.717
		c0-18,17.333-89.334,4.667-56.667c-4.14,10.678,21.333-72.667,1.333-39.333C46.913-192.709,71.3-232.017,85-243.333
		C100.334-256,79.119-255.681,84.334-256C117-258,90.437-266.462,95-268.667c10.205-4.931,18.469,3.03,21.334-0.667
		c5.342-6.894-3.038-7.777-0.667-8.667c10.667-4,12.333,1.333,17.333,3.333c0,0,78.829,6.85,115.667,1.333
		c13.587-2.034,27.333-13.333,23.333-3.333c-2.984,7.46,14.86-1.998,14,4.667c-2.667,20.667,14.95,5.36,16.667,6.667
		c3.355,2.554-12.492,2.034,4,21.333c10.685,12.504,26.993,31.484,35.056,57.408c-7.459-5.424,5.215,15.9,9.275,33.497
		c-12.368-7.215,1.546,9.275,9.791,26.797c-36.072-20.613,5.669,18.036,1.547,51.018c-30.92-43.287,2.061,46.38-37.369,60.06
		L75.548-14.998z"/>
	<path fill="#52BFD1" d="M318.213-159.996c0,19.33-16.977,34.998-37.917,34.998c-20.939,0-37.916-15.668-37.916-34.998
		c0-19.334,16.977-35.002,37.916-35.002C301.236-194.998,318.213-179.33,318.213-159.996z"/>
	<path fill="#52BFD1" d="M162.213-156.996c0,19.33-16.977,34.998-37.917,34.998c-20.939,0-37.916-15.668-37.916-34.998
		c0-19.334,16.977-35.002,37.916-35.002C145.236-191.998,162.213-176.33,162.213-156.996z"/>
	<g>
		<g>
			<path fill="#7DC6DD" d="M119.489-295.007c0.65,0,2.082-0.986,0.781-0.986C119.62-295.993,118.188-295.007,119.489-295.007
				L119.489-295.007z"/>
		</g>
	</g>
	<g>
		<g>
			<path fill="none" stroke="#F2E4D2" stroke-miterlimit="10" d="M286.38-294.5"/>
		</g>
	</g>
	<g>
		<g>
			<path fill="none" stroke="#F2E4D2" stroke-miterlimit="10" d="M198.38-295.5"/>
		</g>
	</g>
	<path fill="#7DC6DD" d="M323.357,406.364l-9.409,174.67c25.552,21.466-2.013,37.357-2.013,37.357l-16.269,154.276
		c25.5,13.5,54.5,3.667,100-13.333c-23.25,14.25,1.334,19,1.334,19s-24.265,14.294,1.271,23.601C406.822,805.052,262,809,255,787.5
		c0,0,54.5-349.5-66.619-332.687C111.41,465.498,133.5,788,133.5,788c-6.593,13.185-92.896,20.783-130.5,15.5
		c0,0,27.5-11-1.75-18.25c21.5-7.75,7.557-13.524-1.978-20.25c0,0,90.308,26.873,97.808,7.873l-6.792-150.537
		c-17.173-8.485-15.362-28.296,0.566-39.05c-2.68-88.741-16.966-175.128-16.536-176.922H323.357z"/>
	<g>
		<path fill="#7DC6DD" d="M75.335,0L46.166,81.501c0,0-3.499,1.334-7.665,8.667c7.166-3.5,4.666,4.001,2.666,6.167
			s-15.021,13.084-16.619,19.779c11.453-8.28,9.911,2.613,5.453,6.054c-3.5,3.5-6.653,2.938-11.05,12.432
			c11.392-4.297,10.973-0.146,7.529,1.911c-4.747,2.835-5.341,3.898-6.479,7.823c11.181-7.685-1.332,14.001-1.332,14.001
			c-17.671,79.09-20.56,135.287-3.667,153.335c-14.824,10.15-21.368,28.406,8.453,35.778c17.5,1.5,14.692-14.629,5.026-24.963
			c-3.834-9.333,13.916,6.672,15.916,1.005s-12.396-20.487-12.396-20.487S9.668,276.337,44.572,164.06
			c0,0,10.264-28.129,20.282-57.742c0,0-4.478,21.196-8.74,53.028c-0.855,6.389-13.153,37.169-9.446,30.991
			c8-13.334,6.085-2.729,5.684,1.357c-0.17,1.729-5.655,13.741-4.713,12.246c4.14-6.568,5.166-1.213,3.52,0.894
			c-2.89,3.696-9.015,21.556-7.299,18.723c7.738-12.777,8.188-2.879,5.933,0.462c-3.163,4.687-10.582,21.101-7.913,18.254
			c6.748-7.198,9.547,3.516,6.845,7.378c-9.958,14.234-10.776,25.878-8.431,22.894c10.611-13.498,10.493-2.161,8.335,1.698
			c-3.749,6.705-10.029,25.714-7.229,22.834c8.913-9.168,10.601,0.996,8.535,6.278c-1.063,2.72-4.433,16.26-3.44,14.605
			c3.819-6.367,6.741-1.925,4.863,0.593c-6.392,8.571-6.924,28.682-5.458,25.55c6.197-13.243,8.491-4.124,9.554,1.262
			c0.858,4.351-13.12,14.612-6.498,23.865c7.215-17.402,17.675,0.855,13.827,4.472c-3.642,3.422-3.787,19.461-2.453,16.834
			c8.234-16.214,12.568,7.439,13.674,9.465h122.667L190.668,0H75.335z"/>
		<path fill="#7DC6DD" d="M324.146,0l29.169,81.501c0,0,3.499,1.334,7.665,8.667c-7.166-3.5-4.666,4.001-2.666,6.167
			s15.021,13.084,16.619,19.779c-11.453-8.28-9.911,2.613-5.453,6.054c3.5,3.5,6.653,2.938,11.05,12.432
			c-11.392-4.297-10.973-0.146-7.529,1.911c4.747,2.835,5.341,3.898,6.479,7.823c-11.181-7.685,1.332,14.001,1.332,14.001
			c17.671,79.09,20.56,135.287,3.667,153.335c14.824,10.15,21.368,28.406-8.453,35.778c-17.5,1.5-14.692-14.629-5.026-24.963
			c3.834-9.333-13.916,6.672-15.916,1.005s12.396-20.487,12.396-20.487s22.334-26.666-12.57-138.943
			c0,0-10.264-28.129-20.282-57.742c0,0,4.478,21.196,8.74,53.028c0.855,6.389,13.153,37.169,9.446,30.991
			c-8-13.334-6.085-2.729-5.684,1.357c0.17,1.729,5.655,13.741,4.713,12.246c-4.14-6.568-5.166-1.213-3.52,0.894
			c2.89,3.696,9.015,21.556,7.299,18.723c-7.738-12.777-8.188-2.879-5.933,0.462c3.163,4.687,10.582,21.101,7.913,18.254
			c-6.748-7.198-9.547,3.516-6.845,7.378c9.958,14.234,10.776,25.878,8.431,22.894c-10.611-13.498-10.493-2.161-8.335,1.698
			c3.749,6.705,10.029,25.714,7.229,22.834c-8.913-9.168-10.601,0.996-8.535,6.278c1.063,2.72,4.433,16.26,3.44,14.605
			c-3.819-6.367-6.741-1.925-4.863,0.593c6.392,8.571,6.924,28.682,5.458,25.55c-6.197-13.243-8.491-4.124-9.554,1.262
			c-0.858,4.351,13.12,14.612,6.498,23.865c-7.215-17.402-17.675,0.855-13.827,4.472c3.642,3.422,3.787,19.461,2.453,16.834
			c-8.234-16.214-12.568,7.439-13.674,9.465h-135.48L187.332,0H324.146z"/>
	</g>
	<path fill="#D6C370" d="M6.318,337.152c0,0,4.053,5.093,10.311,4.325c0,0-9.722,10.845-2.268,16.22
		C2.949,355.793,3.322,346.919,6.318,337.152z"/>
	<path fill="#D6C370" d="M17.963,343.28c0,0,6.111,4.142,8.594,0.13c0,0-2.655,9.055,6.141,11.716
		C21.285,357.032,18.304,353.491,17.963,343.28z"/>
	<path fill="#D6C370" d="M29.671,339.87l3.968-7.332c0,0,1.787,8.758,11.651,13.861C37.943,348.23,32.34,346.469,29.671,339.87z"/>
	<path fill="#D6C370" d="M394.192,334.273c0,0-4.046,5.002-10.296,4.329c0,0,9.717,10.439,2.275,15.757
		C397.568,352.372,397.19,343.742,394.192,334.273z"/>
	<path fill="#D6C370" d="M383.188,343.303c0,0-4.106,1.216-9.894-0.268c0,0,6.983,7.496,2.014,15.173
		C385.18,352.176,385.442,349.942,383.188,343.303z"/>
	<path fill="#D6C370" d="M370.738,343.55l-5.555-5.936c0,0,0.318,8.712-8.037,15.979
		C364.688,353.498,369.698,350.442,370.738,343.55z"/>
	<path fill="#7DC6DD" d="M10,818.25"/>
</g>
<g id="face_layer" display="none">
	<g display="inline">
		<path fill="#FFFFFF" d="M-1125.94-239.959c13.137,9.59,16.013,28.012,6.423,41.151c-9.589,13.137-28.013,16.012-41.149,6.422
			c-8.977-6.553-13.162-17.229-11.854-27.526l41.434-23.063C-1129.308-242.162-1127.583-241.158-1125.94-239.959z"/>
		<path d="M-1141.66-234.927c4.958,3.62,6.045,10.573,2.425,15.532s-10.575,6.045-15.533,2.426
			c-3.389-2.475-4.969-6.504-4.475-10.391l15.641-8.706C-1142.931-235.758-1142.28-235.38-1141.66-234.927z"/>
	</g>
	<g display="inline">
		<path fill="#FFFFFF" d="M-1202.743-186.598c-19.008,13.562-45.411,9.148-58.974-9.859c-13.562-19.008-9.148-45.412,9.858-58.974
			l66.791,36.417C-1185.667-206.525-1191.776-194.424-1202.743-186.598z"/>
		<path d="M-1220.885-236.663c-4.997,3.565-6.291,10.32-2.89,15.086c3.401,4.768,10.209,5.74,15.206,2.176
			c3.415-2.438,5.101-6.363,4.741-10.126l-15.109-8.262C-1219.606-237.483-1220.26-237.108-1220.885-236.663z"/>
	</g>
	<path display="inline" d="M-1227.001-158.998c14.174-8.723,4.333,21.334,44.333,15.334s25.667-13.334,41.667-17.334
		s22.797,50.809,16,74c-5.667,19.334-26.189-4.748-27-5.334c-12-8.666-50-8.666-68,6.334s-22,10-23,0
		S-1240.001-150.998-1227.001-158.998z"/>
	<path display="inline" fill="#FDFDFE" d="M-1214.667-152.998c0,0,1.512,34.414,2.863,32.252
		c1.588-2.541,12.803-13.127,12.803-13.127c5.94,3.279,9.289,16.031,9.68,16.08c0.883,0.107,8.861-15.977,13.32-18.539
		c0.784-0.449,18.56,12.492,20.062,13.834c1.706,1.521,0.904-23.66,1.042-28.893
		C-1165.848-148.549-1200.888-132.939-1214.667-152.998z"/>
	<path display="inline" fill="#FDFDFE" d="M-1219.876-86.139c0,0,3.743-20.414,3.973-23.883c0.16-2.416,12.961,13.434,14.008,10.816
		c1.883-4.707,5.061-8.943,5.061-8.943c1.588,2.043,9.415,7.414,9.415,7.414c5.94-2.633,11.378-8.67,11.769-8.709
		c0.883-0.086,6.25,7.594,10.709,9.65c0.784,0.361,14.028-8.621,15.064-10.004c1.059-1.412-0.021,15.336,0.117,19.537
		C-1167.531-103.793-1203.21-98.389-1219.876-86.139z"/>
	<path display="inline" d="M-763.691-154.029l71.849,1.467c0,0-12.613,48.428-37.971,48.428
		C-755.172-104.135-763.691-154.029-763.691-154.029z"/>
	<path display="inline" fill="#FDFDFE" d="M-748.58-153.658c0,0,2.937,19.846,4.177,21.133l9.35-20.863l16.197,0.334
		c0.549-0.182,6.787,18.557,6.787,18.557c0.454,0.074,5.187-16.428,5.282-18.518C-707.616-152.809-748.58-153.658-748.58-153.658z"
		/>
	<circle display="inline" fill="#FFFFFF" cx="-766.849" cy="-210.545" r="43.25"/>
	<circle display="inline" cx="-783.849" cy="-216.545" r="12.25"/>
	<circle display="inline" fill="#FFFFFF" cx="-688.599" cy="-206.295" r="28.5"/>
	<circle display="inline" cx="-696.599" cy="-210.795" r="11.25"/>
	<path display="inline" d="M-233.613-146.165l-71.798-2.698c0,0,12.762-3.942,38.103-3.037
		C-241.966-150.995-233.613-146.165-233.613-146.165z"/>
	<path display="inline" fill="#FDFDFE" d="M-290.125-151.375c0,0,2.814,19.619,4.055,20.906l9.18-21.578
		C-276.891-152.047-284.891-151.969-290.125-151.375z"/>
	<path display="inline" fill="#FFFFFF" d="M-265.4-208.837c0.224,23.887-18.957,43.43-42.844,43.652
		c-23.887,0.224-43.43-18.959-43.652-42.847c-0.06-6.469,1.302-12.618,3.798-18.151l77.374-3.063
		C-267.392-223.186-265.469-216.237-265.4-208.837z"/>
	<path display="inline" d="M-296.87-201.941c0.374,6.758-4.796,12.538-11.551,12.914c-6.755,0.375-12.537-4.796-12.913-11.553
		c-0.375-6.753,4.796-12.534,11.551-12.91C-303.027-213.866-297.247-208.694-296.87-201.941z"/>
	<path display="inline" fill="#FFFFFF" d="M-205.025-195.88c-1.824,15.636-15.978,26.83-31.61,25.006
		c-15.635-1.825-26.829-15.979-25.004-31.613c0.506-4.335,1.958-8.326,4.126-11.794l51.118,5.763
		C-205.03-204.586-204.51-200.292-205.025-195.88z"/>
	<circle display="inline" cx="-233.965" cy="-194.992" r="11.25"/>
	<path display="inline" fill="#FDFDFE" d="M-250.5-150.5c0,0-3.533,19.245-4.818,20.489l-8.43-21.881
		C-263.748-151.892-255.71-151.273-250.5-150.5z"/>
	<g display="inline">
		<path fill="#FFFFFF" d="M263.94-240.959c13.137,9.59,16.013,28.012,6.423,41.15c-9.589,13.137-28.013,16.012-41.149,6.422
			c-8.977-6.553-13.162-17.229-11.854-27.525l41.434-23.063C260.573-243.162,262.298-242.158,263.94-240.959z"/>
		<path d="M248.221-235.928c4.958,3.621,6.045,10.574,2.425,15.533s-10.575,6.045-15.533,2.426
			c-3.389-2.475-4.969-6.504-4.475-10.391l15.641-8.707C246.95-236.758,247.601-236.38,248.221-235.928z"/>
	</g>
	<g display="inline">
		<path fill="#FFFFFF" d="M187.138-187.598c-19.008,13.562-45.411,9.148-58.974-9.859s-9.148-45.412,9.858-58.975l66.791,36.418
			C204.214-207.525,198.104-195.424,187.138-187.598z"/>
		<path d="M168.996-237.662c-4.997,3.564-6.291,10.32-2.89,15.086c3.401,4.768,10.209,5.74,15.206,2.176
			c3.415-2.438,5.101-6.363,4.741-10.127l-15.109-8.262C170.274-238.483,169.621-238.108,168.996-237.662z"/>
	</g>
	<path display="inline" d="M162.88-159.998c14.174-8.723,4.333,21.334,44.333,15.334s25.667-13.334,41.667-17.334
		s22.797,50.809,16,74c-5.667,19.334-26.189-4.748-27-5.334c-12-8.666-50-8.666-68,6.334s-22,10-23,0S149.88-151.998,162.88-159.998
		z"/>
	<path display="inline" fill="#FDFDFE" d="M175.214-153.998c0,0,1.512,34.414,2.863,32.252c1.588-2.541,12.803-13.127,12.803-13.127
		c5.94,3.279,9.289,16.031,9.68,16.08c0.883,0.107,8.861-15.977,13.32-18.539c0.784-0.449,18.56,12.492,20.062,13.834
		c1.706,1.521,0.904-23.66,1.042-28.893C224.033-149.549,188.993-133.939,175.214-153.998z"/>
	<path display="inline" fill="#FDFDFE" d="M170.005-87.139c0,0,3.743-20.414,3.973-23.883c0.16-2.416,12.961,13.434,14.008,10.816
		c1.883-4.707,5.061-8.943,5.061-8.943c1.588,2.043,9.415,7.414,9.415,7.414c5.94-2.633,11.378-8.67,11.769-8.709
		c0.883-0.086,6.25,7.594,10.709,9.65c0.784,0.361,14.028-8.621,15.064-10.004c1.059-1.412-0.021,15.336,0.117,19.537
		C222.35-104.793,186.671-99.389,170.005-87.139z"/>
</g>
<g id="Layer_4" display="none">
	<g display="inline">
		<g opacity="0.7">
			<g>
				<path fill="#74AFD1" d="M-1264.592-286.836c1.935,0,1.935-3,0-3S-1266.527-286.836-1264.592-286.836L-1264.592-286.836z"/>
			</g>
		</g>
		<g opacity="0.7">
			<g>
				<path fill="#74AFD1" d="M-1275.742-292.218c1.935,0,1.935-3,0-3S-1277.676-292.218-1275.742-292.218L-1275.742-292.218z"/>
			</g>
		</g>
		<g opacity="0.7">
			<g>
				<path fill="#74AFD1" d="M-1272.377-297.601c1.935,0,1.935-3,0-3S-1274.312-297.601-1272.377-297.601L-1272.377-297.601z"/>
			</g>
		</g>
		<g opacity="0.7">
			<g>
				<path fill="#74AFD1" d="M-1274.204-282.895c1.935,0,1.935-3,0-3S-1276.138-282.895-1274.204-282.895L-1274.204-282.895z"/>
			</g>
		</g>
		<g opacity="0.7">
			<g>
				<path fill="#74AFD1" d="M-1294.676-315.574c1.935,0,1.935-3,0-3S-1296.611-315.574-1294.676-315.574L-1294.676-315.574z"/>
			</g>
		</g>
		<g opacity="0.7">
			<g>
				<path fill="#74AFD1" d="M-1287.372-310.864c1.935,0,1.935-3,0-3S-1289.306-310.864-1287.372-310.864L-1287.372-310.864z"/>
			</g>
		</g>
		<g opacity="0.7">
			<g>
				<path fill="#74AFD1" d="M-1284.584-304.809c1.935,0,1.935-3,0-3S-1286.519-304.809-1284.584-304.809L-1284.584-304.809z"/>
			</g>
		</g>
		<g opacity="0.7">
			<g>
				<path fill="#74AFD1" d="M-1286.506-298.85c1.935,0,1.935-3,0-3S-1288.441-298.85-1286.506-298.85L-1286.506-298.85z"/>
			</g>
		</g>
		<g opacity="0.7">
			<g>
				<path fill="#74AFD1" d="M-1277.183-302.406c1.935,0,1.935-3,0-3S-1279.118-302.406-1277.183-302.406L-1277.183-302.406z"/>
			</g>
		</g>
		<g opacity="0.7">
			<g>
				<path fill="#74AFD1" d="M-1291.12-307.308c1.935,0,1.935-3,0-3S-1293.055-307.308-1291.12-307.308L-1291.12-307.308z"/>
			</g>
		</g>
		<g opacity="0.7">
			<g>
				<path fill="#74AFD1" d="M-1294.1-311.633c1.935,0,1.935-3,0-3S-1296.034-311.633-1294.1-311.633L-1294.1-311.633z"/>
			</g>
		</g>
		<g opacity="0.7">
			<g>
				<path fill="#74AFD1" d="M-1261.901-290.776c1.935,0,1.935-3,0-3S-1263.836-290.776-1261.901-290.776L-1261.901-290.776z"/>
			</g>
		</g>
		<g opacity="0.7">
			<g>
				<path fill="#74AFD1" d="M-1269.014-294.525c1.935,0,1.935-3,0-3S-1270.948-294.525-1269.014-294.525L-1269.014-294.525z"/>
			</g>
		</g>
		<g opacity="0.7">
			<g>
				<path fill="#74AFD1" d="M-1270.647-289.527c1.935,0,1.935-3,0-3S-1272.582-289.527-1270.647-289.527L-1270.647-289.527z"/>
			</g>
		</g>
		<g opacity="0.7">
			<g>
				<path fill="#74AFD1" d="M-1280.644-297.408c1.935,0,1.935-3,0-3S-1282.578-297.408-1280.644-297.408L-1280.644-297.408z"/>
			</g>
		</g>
		<g opacity="0.7">
			<g>
				<path fill="#74AFD1" d="M-1281.316-292.41c1.935,0,1.935-3,0-3S-1283.251-292.41-1281.316-292.41L-1281.316-292.41z"/>
			</g>
		</g>
		<g opacity="0.7">
			<g>
				<path fill="#74AFD1" d="M-1291.889-312.69c1.935,0,1.935-3,0-3S-1293.823-312.69-1291.889-312.69L-1291.889-312.69z"/>
			</g>
		</g>
		<g opacity="0.7">
			<g>
				<path fill="#74AFD1" d="M-1296.983-317.4c1.935,0,1.935-3,0-3S-1298.917-317.4-1296.983-317.4L-1296.983-317.4z"/>
			</g>
		</g>
		<g opacity="0.7">
			<g>
				<path fill="#74AFD1" d="M-1295.541-313.267c1.935,0,1.935-3,0-3S-1297.476-313.267-1295.541-313.267L-1295.541-313.267z"/>
			</g>
		</g>
		<g opacity="0.7">
			<g>
				<path fill="#74AFD1" d="M-1289.486-312.787c1.935,0,1.935-3,0-3S-1291.42-312.787-1289.486-312.787L-1289.486-312.787z"/>
			</g>
		</g>
		<g opacity="0.7">
			<g>
				<path fill="#74AFD1" d="M-1291.504-309.807c1.935,0,1.935-3,0-3S-1293.439-309.807-1291.504-309.807L-1291.504-309.807z"/>
			</g>
		</g>
		<g opacity="0.7">
			<g>
				<path fill="#74AFD1" d="M-1289.102-309.134c1.935,0,1.935-3,0-3S-1291.036-309.134-1289.102-309.134L-1289.102-309.134z"/>
			</g>
		</g>
		<g opacity="0.7">
			<g>
				<path fill="#74AFD1" d="M-1285.257-309.422c1.935,0,1.935-3,0-3S-1287.191-309.422-1285.257-309.422L-1285.257-309.422z"/>
			</g>
		</g>
		<g opacity="0.7">
			<g>
				<path fill="#74AFD1" d="M-1289.871-305.193c1.935,0,1.935-3,0-3S-1291.805-305.193-1289.871-305.193L-1289.871-305.193z"/>
			</g>
		</g>
		<g opacity="0.7">
			<g>
				<path fill="#74AFD1" d="M-1286.987-308.75c1.935,0,1.935-3,0-3S-1288.921-308.75-1286.987-308.75L-1286.987-308.75z"/>
			</g>
		</g>
		<g opacity="0.7">
			<g>
				<path fill="#74AFD1" d="M-1282.854-307.308c1.935,0,1.935-3,0-3S-1284.789-307.308-1282.854-307.308L-1282.854-307.308z"/>
			</g>
		</g>
		<g opacity="0.7">
			<g>
				<path fill="#74AFD1" d="M-1287.179-306.155c1.935,0,1.935-3,0-3S-1289.114-306.155-1287.179-306.155L-1287.179-306.155z"/>
			</g>
		</g>
		<g opacity="0.7">
			<g>
				<path fill="#74AFD1" d="M-1286.987-302.887c1.935,0,1.935-3,0-3S-1288.921-302.887-1286.987-302.887L-1286.987-302.887z"/>
			</g>
		</g>
		<g opacity="0.7">
			<g>
				<path fill="#74AFD1" d="M-1284.296-301.733c1.935,0,1.935-3,0-3S-1286.23-301.733-1284.296-301.733L-1284.296-301.733z"/>
			</g>
		</g>
		<g opacity="0.7">
			<g>
				<path fill="#74AFD1" d="M-1281.22-303.463c1.935,0,1.935-3,0-3S-1283.155-303.463-1281.22-303.463L-1281.22-303.463z"/>
			</g>
		</g>
		<g opacity="0.7">
			<g>
				<path fill="#74AFD1" d="M-1279.202-300.58c1.935,0,1.935-3,0-3S-1281.136-300.58-1279.202-300.58L-1279.202-300.58z"/>
			</g>
		</g>
		<g opacity="0.7">
			<g>
				<path fill="#74AFD1" d="M-1284.007-296.255c1.935,0,1.935-3,0-3S-1285.942-296.255-1284.007-296.255L-1284.007-296.255z"/>
			</g>
		</g>
		<g opacity="0.7">
			<g>
				<path fill="#74AFD1" d="M-1283.527-299.619c1.935,0,1.935-3,0-3S-1285.461-299.619-1283.527-299.619L-1283.527-299.619z"/>
			</g>
		</g>
		<g opacity="0.7">
			<g>
				<path fill="#74AFD1" d="M-1274.973-300.676c1.935,0,1.935-3,0-3S-1276.907-300.676-1274.973-300.676L-1274.973-300.676z"/>
			</g>
		</g>
		<g opacity="0.7">
			<g>
				<path fill="#74AFD1" d="M-1277.183-296.255c1.935,0,1.935-3,0-3S-1279.118-296.255-1277.183-296.255L-1277.183-296.255z"/>
			</g>
		</g>
		<g opacity="0.7">
			<g>
				<path fill="#74AFD1" d="M-1279.298-290.584c1.935,0,1.935-3,0-3S-1281.232-290.584-1279.298-290.584L-1279.298-290.584z"/>
			</g>
		</g>
		<g opacity="0.7">
			<g>
				<path fill="#74AFD1" d="M-1277.472-286.067c1.935,0,1.935-3,0-3S-1279.406-286.067-1277.472-286.067L-1277.472-286.067z"/>
			</g>
		</g>
		<g opacity="0.7">
			<g>
				<path fill="#74AFD1" d="M-1274.204-288.181c1.935,0,1.935-3,0-3S-1276.138-288.181-1274.204-288.181L-1274.204-288.181z"/>
			</g>
		</g>
		<g opacity="0.7">
			<g>
				<path fill="#74AFD1" d="M-1272.186-277.032c1.935,0,1.935-3,0-3S-1274.12-277.032-1272.186-277.032L-1272.186-277.032z"/>
			</g>
		</g>
		<g opacity="0.7">
			<g>
				<path fill="#74AFD1" d="M-1267.86-284.433c1.935,0,1.935-3,0-3S-1269.795-284.433-1267.86-284.433L-1267.86-284.433z"/>
			</g>
		</g>
		<g opacity="0.7">
			<g>
				<path fill="#74AFD1" d="M-1265.458-279.435c1.935,0,1.935-3,0-3S-1267.392-279.435-1265.458-279.435L-1265.458-279.435z"/>
			</g>
		</g>
		<g opacity="0.7">
			<g>
				<path fill="#74AFD1" d="M-1259.499-284.625c1.935,0,1.935-3,0-3S-1261.433-284.625-1259.499-284.625L-1259.499-284.625z"/>
			</g>
		</g>
		<g opacity="0.7">
			<g>
				<path fill="#74AFD1" d="M-1257.48-287.028c1.935,0,1.935-3,0-3S-1259.415-287.028-1257.48-287.028L-1257.48-287.028z"/>
			</g>
		</g>
		<g opacity="0.7">
			<g>
				<path fill="#74AFD1" d="M-1265.938-291.353c1.935,0,1.935-3,0-3S-1267.873-291.353-1265.938-291.353L-1265.938-291.353z"/>
			</g>
		</g>
		<g opacity="0.7">
			<g>
				<path fill="#74AFD1" d="M-1253.731-284.433c1.935,0,1.935-3,0-3S-1255.666-284.433-1253.731-284.433L-1253.731-284.433z"/>
			</g>
		</g>
		<g opacity="0.7">
			<g>
				<path fill="#74AFD1" d="M-1247.772-285.298c1.935,0,1.935-3,0-3S-1249.707-285.298-1247.772-285.298L-1247.772-285.298z"/>
			</g>
		</g>
		<g opacity="0.7">
			<g>
				<path fill="#74AFD1" d="M-1259.402-279.916c1.935,0,1.935-3,0-3S-1261.337-279.916-1259.402-279.916L-1259.402-279.916z"/>
			</g>
		</g>
		<g opacity="0.7">
			<g>
				<path fill="#74AFD1" d="M-1253.059-277.897c1.935,0,1.935-3,0-3S-1254.993-277.897-1253.059-277.897L-1253.059-277.897z"/>
			</g>
		</g>
		<g opacity="0.7">
			<g>
				<path fill="#74AFD1" d="M-1268.917-274.917c1.935,0,1.935-3,0-3S-1270.852-274.917-1268.917-274.917L-1268.917-274.917z"/>
			</g>
		</g>
		<g opacity="0.7">
			<g>
				<path fill="#74AFD1" d="M-1269.975-267.998c1.935,0,1.935-3,0-3S-1271.909-267.998-1269.975-267.998L-1269.975-267.998z"/>
			</g>
		</g>
		<g opacity="0.7">
			<g>
				<path fill="#74AFD1" d="M-1262.189-273.86c1.935,0,1.935-3,0-3S-1264.124-273.86-1262.189-273.86L-1262.189-273.86z"/>
			</g>
		</g>
		<g opacity="0.7">
			<g>
				<path fill="#74AFD1" d="M-1265.458-269.247c1.935,0,1.935-3,0-3S-1267.392-269.247-1265.458-269.247L-1265.458-269.247z"/>
			</g>
		</g>
		<g opacity="0.7">
			<g>
				<path fill="#74AFD1" d="M-1254.789-271.458c1.935,0,1.935-3,0-3S-1256.723-271.458-1254.789-271.458L-1254.789-271.458z"/>
			</g>
		</g>
	</g>
	<g display="inline">
		<g opacity="0.7">
			<g>
				<path fill="#74AFD1" d="M-1183.448-307.155c1.935,0,1.935-3,0-3S-1185.383-307.155-1183.448-307.155L-1183.448-307.155z"/>
			</g>
		</g>
		<g opacity="0.7">
			<g>
				<path fill="#74AFD1" d="M-1188.283-318.554c1.935,0,1.935-3,0-3C-1190.217-321.554-1190.217-318.554-1188.283-318.554
					L-1188.283-318.554z"/>
			</g>
		</g>
		<g opacity="0.7">
			<g>
				<path fill="#74AFD1" d="M-1182.204-320.382c1.935,0,1.935-3,0-3S-1184.139-320.382-1182.204-320.382L-1182.204-320.382z"/>
			</g>
		</g>
		<g opacity="0.7">
			<g>
				<path fill="#74AFD1" d="M-1193.273-310.528c1.935,0,1.935-3,0-3S-1195.208-310.528-1193.273-310.528L-1193.273-310.528z"/>
			</g>
		</g>
		<g opacity="0.7">
			<g>
				<path fill="#74AFD1" d="M-1187.12-348.597c1.935,0,1.935-3,0-3S-1189.055-348.597-1187.12-348.597L-1187.12-348.597z"/>
			</g>
		</g>
		<g opacity="0.7">
			<g>
				<path fill="#74AFD1" d="M-1184.733-340.24c1.935,0,1.935-3,0-3S-1186.668-340.24-1184.733-340.24L-1184.733-340.24z"/>
			</g>
		</g>
		<g opacity="0.7">
			<g>
				<path fill="#74AFD1" d="M-1186.63-333.849c1.935,0,1.935-3,0-3S-1188.564-333.849-1186.63-333.849L-1186.63-333.849z"/>
			</g>
		</g>
		<g opacity="0.7">
			<g>
				<path fill="#74AFD1" d="M-1192.004-330.636c1.935,0,1.935-3,0-3S-1193.938-330.636-1192.004-330.636L-1192.004-330.636z"/>
			</g>
		</g>
		<g opacity="0.7">
			<g>
				<path fill="#74AFD1" d="M-1182.65-327.164c1.935,0,1.935-3,0-3S-1184.585-327.164-1182.65-327.164L-1182.65-327.164z"/>
			</g>
		</g>
		<g opacity="0.7">
			<g>
				<path fill="#74AFD1" d="M-1189.896-340.038c1.935,0,1.935-3,0-3C-1191.831-343.038-1191.831-340.038-1189.896-340.038
					L-1189.896-340.038z"/>
			</g>
		</g>
		<g opacity="0.7">
			<g>
				<path fill="#74AFD1" d="M-1189.285-345.254c1.935,0,1.935-3,0-3S-1191.22-345.254-1189.285-345.254L-1189.285-345.254z"/>
			</g>
		</g>
		<g opacity="0.7">
			<g>
				<path fill="#74AFD1" d="M-1178.827-308.344c1.935,0,1.935-3,0-3S-1180.762-308.344-1178.827-308.344L-1178.827-308.344z"/>
			</g>
		</g>
		<g opacity="0.7">
			<g>
				<path fill="#74AFD1" d="M-1181.702-315.852c1.935,0,1.935-3,0-3S-1183.637-315.852-1181.702-315.852L-1181.702-315.852z"/>
			</g>
		</g>
		<g opacity="0.7">
			<g>
				<path fill="#74AFD1" d="M-1186.227-313.171c1.935,0,1.935-3,0-3S-1188.161-313.171-1186.227-313.171L-1186.227-313.171z"/>
			</g>
		</g>
		<g opacity="0.7">
			<g>
				<path fill="#74AFD1" d="M-1188.547-325.687c1.935,0,1.935-3,0-3S-1190.481-325.687-1188.547-325.687L-1188.547-325.687z"/>
			</g>
		</g>
		<g opacity="0.7">
			<g>
				<path fill="#74AFD1" d="M-1192.348-322.373c1.935,0,1.935-3,0-3S-1194.282-322.373-1192.348-322.373L-1192.348-322.373z"/>
			</g>
		</g>
		<g opacity="0.7">
			<g>
				<path fill="#74AFD1" d="M-1186.926-344.592c1.935,0,1.935-3,0-3S-1188.86-344.592-1186.926-344.592L-1186.926-344.592z"/>
			</g>
		</g>
		<g opacity="0.7">
			<g>
				<path fill="#74AFD1" d="M-1187.65-351.491c1.935,0,1.935-3,0-3S-1189.585-351.491-1187.65-351.491L-1187.65-351.491z"/>
			</g>
		</g>
		<g opacity="0.7">
			<g>
				<path fill="#74AFD1" d="M-1189.292-347.434c1.935,0,1.935-3,0-3C-1191.226-350.434-1191.226-347.434-1189.292-347.434
					L-1189.292-347.434z"/>
			</g>
		</g>
		<g opacity="0.7">
			<g>
				<path fill="#74AFD1" d="M-1185.056-343.08c1.935,0,1.935-3,0-3S-1186.99-343.08-1185.056-343.08L-1185.056-343.08z"/>
			</g>
		</g>
		<g opacity="0.7">
			<g>
				<path fill="#74AFD1" d="M-1188.538-342.169c1.935,0,1.935-3,0-3C-1190.472-345.169-1190.472-342.169-1188.538-342.169
					L-1188.538-342.169z"/>
			</g>
		</g>
		<g opacity="0.7">
			<g>
				<path fill="#74AFD1" d="M-1187.175-340.081c1.935,0,1.935-3,0-3S-1189.109-340.081-1187.175-340.081L-1187.175-340.081z"/>
			</g>
		</g>
		<g opacity="0.7">
			<g>
				<path fill="#74AFD1" d="M-1184.095-337.761c1.935,0,1.935-3,0-3S-1186.029-337.761-1184.095-337.761L-1184.095-337.761z"/>
			</g>
		</g>
		<g opacity="0.7">
			<g>
				<path fill="#74AFD1" d="M-1190.352-337.625c1.935,0,1.935-3,0-3S-1192.286-337.625-1190.352-337.625L-1190.352-337.625z"/>
			</g>
		</g>
		<g opacity="0.7">
			<g>
				<path fill="#74AFD1" d="M-1185.838-338.396c1.935,0,1.935-3,0-3S-1187.772-338.396-1185.838-338.396L-1185.838-338.396z"/>
			</g>
		</g>
		<g opacity="0.7">
			<g>
				<path fill="#74AFD1" d="M-1183.681-334.588c1.935,0,1.935-3,0-3S-1185.615-334.588-1183.681-334.588L-1183.681-334.588z"/>
			</g>
		</g>
		<g opacity="0.7">
			<g>
				<path fill="#74AFD1" d="M-1187.695-336.572c1.935,0,1.935-3,0-3S-1189.63-336.572-1187.695-336.572L-1187.695-336.572z"/>
			</g>
		</g>
		<g opacity="0.7">
			<g>
				<path fill="#74AFD1" d="M-1189.704-333.988c1.935,0,1.935-3,0-3C-1191.638-336.988-1191.638-333.988-1189.704-333.988
					L-1189.704-333.988z"/>
			</g>
		</g>
		<g opacity="0.7">
			<g>
				<path fill="#74AFD1" d="M-1188.441-331.347c1.935,0,1.935-3,0-3C-1190.375-334.347-1190.375-331.347-1188.441-331.347
					L-1188.441-331.347z"/>
			</g>
		</g>
		<g opacity="0.7">
			<g>
				<path fill="#74AFD1" d="M-1184.988-330.62c1.935,0,1.935-3,0-3S-1186.923-330.62-1184.988-330.62L-1184.988-330.62z"/>
			</g>
		</g>
		<g opacity="0.7">
			<g>
				<path fill="#74AFD1" d="M-1185.371-327.121c1.935,0,1.935-3,0-3S-1187.306-327.121-1185.371-327.121L-1185.371-327.121z"/>
			</g>
		</g>
		<g opacity="0.7">
			<g>
				<path fill="#74AFD1" d="M-1191.836-327.038c1.935,0,1.935-3,0-3S-1193.771-327.038-1191.836-327.038L-1191.836-327.038z"/>
			</g>
		</g>
		<g opacity="0.7">
			<g>
				<path fill="#74AFD1" d="M-1189.257-329.25c1.935,0,1.935-3,0-3S-1191.191-329.25-1189.257-329.25L-1189.257-329.25z"/>
			</g>
		</g>
		<g opacity="0.7">
			<g>
				<path fill="#74AFD1" d="M-1182.128-324.405c1.935,0,1.935-3,0-3S-1184.062-324.405-1182.128-324.405L-1182.128-324.405z"/>
			</g>
		</g>
		<g opacity="0.7">
			<g>
				<path fill="#74AFD1" d="M-1186.706-322.539c1.935,0,1.935-3,0-3S-1188.641-322.539-1186.706-322.539L-1186.706-322.539z"/>
			</g>
		</g>
		<g opacity="0.7">
			<g>
				<path fill="#74AFD1" d="M-1192.034-319.669c1.935,0,1.935-3,0-3S-1193.968-319.669-1192.034-319.669L-1192.034-319.669z"/>
			</g>
		</g>
		<g opacity="0.7">
			<g>
				<path fill="#74AFD1" d="M-1193.64-315.068c1.935,0,1.935-3,0-3S-1195.574-315.068-1193.64-315.068L-1193.64-315.068z"/>
			</g>
		</g>
		<g opacity="0.7">
			<g>
				<path fill="#74AFD1" d="M-1189.787-314.504c1.935,0,1.935-3,0-3S-1191.722-314.504-1189.787-314.504L-1189.787-314.504z"/>
			</g>
		</g>
		<g opacity="0.7">
			<g>
				<path fill="#74AFD1" d="M-1195.621-304.791c1.935,0,1.935-3,0-3S-1197.556-304.791-1195.621-304.791L-1195.621-304.791z"/>
			</g>
		</g>
		<g opacity="0.7">
			<g>
				<path fill="#74AFD1" d="M-1187.488-307.504c1.935,0,1.935-3,0-3S-1189.423-307.504-1187.488-307.504L-1187.488-307.504z"/>
			</g>
		</g>
		<g opacity="0.7">
			<g>
				<path fill="#74AFD1" d="M-1188.978-302.161c1.935,0,1.935-3,0-3S-1190.912-302.161-1188.978-302.161L-1188.978-302.161z"/>
			</g>
		</g>
		<g opacity="0.7">
			<g>
				<path fill="#74AFD1" d="M-1181.075-302.135c1.935,0,1.935-3,0-3S-1183.01-302.135-1181.075-302.135L-1181.075-302.135z"/>
			</g>
		</g>
		<g opacity="0.7">
			<g>
				<path fill="#74AFD1" d="M-1177.975-302.611c1.935,0,1.935-3,0-3S-1179.909-302.611-1177.975-302.611L-1177.975-302.611z"/>
			</g>
		</g>
		<g opacity="0.7">
			<g>
				<path fill="#74AFD1" d="M-1181.481-311.439c1.935,0,1.935-3,0-3S-1183.416-311.439-1181.481-311.439L-1181.481-311.439z"/>
			</g>
		</g>
		<g opacity="0.7">
			<g>
				<path fill="#74AFD1" d="M-1176.866-298.188c1.935,0,1.935-3,0-3S-1178.801-298.188-1176.866-298.188L-1176.866-298.188z"/>
			</g>
		</g>
		<g opacity="0.7">
			<g>
				<path fill="#74AFD1" d="M-1171.815-294.91c1.935,0,1.935-3,0-3S-1173.75-294.91-1171.815-294.91L-1171.815-294.91z"/>
			</g>
		</g>
		<g opacity="0.7">
			<g>
				<path fill="#74AFD1" d="M-1184.108-298.531c1.935,0,1.935-3,0-3S-1186.043-298.531-1184.108-298.531L-1184.108-298.531z"/>
			</g>
		</g>
		<g opacity="0.7">
			<g>
				<path fill="#74AFD1" d="M-1180.67-292.83c1.935,0,1.935-3,0-3S-1182.604-292.83-1180.67-292.83L-1180.67-292.83z"/>
			</g>
		</g>
		<g opacity="0.7">
			<g>
				<path fill="#74AFD1" d="M-1194.558-301.047c1.935,0,1.935-3,0-3S-1196.493-301.047-1194.558-301.047L-1194.558-301.047z"/>
			</g>
		</g>
		<g opacity="0.7">
			<g>
				<path fill="#74AFD1" d="M-1199.915-296.541c1.935,0,1.935-3,0-3S-1201.85-296.541-1199.915-296.541L-1199.915-296.541z"/>
			</g>
		</g>
		<g opacity="0.7">
			<g>
				<path fill="#74AFD1" d="M-1190.197-295.815c1.935,0,1.935-3,0-3S-1192.131-295.815-1190.197-295.815L-1190.197-295.815z"/>
			</g>
		</g>
		<g opacity="0.7">
			<g>
				<path fill="#74AFD1" d="M-1195.695-294.501c1.935,0,1.935-3,0-3S-1197.629-294.501-1195.695-294.501L-1195.695-294.501z"/>
			</g>
		</g>
		<g opacity="0.7">
			<g>
				<path fill="#74AFD1" d="M-1186.216-289.129c1.935,0,1.935-3,0-3S-1188.15-289.129-1186.216-289.129L-1186.216-289.129z"/>
			</g>
		</g>
	</g>
	<g display="inline">
		<g opacity="0.7">
			<g>
				<path fill="#74AFD1" d="M-1105.226-275.122c1.935,0,1.935-3,0-3S-1107.16-275.122-1105.226-275.122L-1105.226-275.122z"/>
			</g>
		</g>
		<g opacity="0.7">
			<g>
				<path fill="#74AFD1" d="M-1100.636-286.621c1.935,0,1.935-3,0-3S-1102.57-286.621-1100.636-286.621L-1100.636-286.621z"/>
			</g>
		</g>
		<g opacity="0.7">
			<g>
				<path fill="#74AFD1" d="M-1095.031-283.64c1.935,0,1.935-3,0-3S-1096.966-283.64-1095.031-283.64L-1095.031-283.64z"/>
			</g>
		</g>
		<g opacity="0.7">
			<g>
				<path fill="#74AFD1" d="M-1109.829-284.434c1.935,0,1.935-3,0-3S-1111.764-284.434-1109.829-284.434L-1109.829-284.434z"/>
			</g>
		</g>
		<g opacity="0.7">
			<g>
				<path fill="#74AFD1" d="M-1078.66-307.14c1.935,0,1.935-3,0-3S-1080.595-307.14-1078.66-307.14L-1078.66-307.14z"/>
			</g>
		</g>
		<g opacity="0.7">
			<g>
				<path fill="#74AFD1" d="M-1082.848-299.524c1.935,0,1.935-3,0-3S-1084.782-299.524-1082.848-299.524L-1082.848-299.524z"/>
			</g>
		</g>
		<g opacity="0.7">
			<g>
				<path fill="#74AFD1" d="M-1088.693-296.321c1.935,0,1.935-3,0-3S-1090.628-296.321-1088.693-296.321L-1088.693-296.321z"/>
			</g>
		</g>
		<g opacity="0.7">
			<g>
				<path fill="#74AFD1" d="M-1094.772-297.822c1.935,0,1.935-3,0-3S-1096.707-297.822-1094.772-297.822L-1094.772-297.822z"/>
			</g>
		</g>
		<g opacity="0.7">
			<g>
				<path fill="#74AFD1" d="M-1090.573-288.771c1.935,0,1.935-3,0-3S-1092.508-288.771-1090.573-288.771L-1090.573-288.771z"/>
			</g>
		</g>
		<g opacity="0.7">
			<g>
				<path fill="#74AFD1" d="M-1086.657-303.016c1.935,0,1.935-3,0-3S-1088.592-303.016-1086.657-303.016L-1086.657-303.016z"/>
			</g>
		</g>
		<g opacity="0.7">
			<g>
				<path fill="#74AFD1" d="M-1082.551-306.29c1.935,0,1.935-3,0-3S-1084.485-306.29-1082.551-306.29L-1082.551-306.29z"/>
			</g>
		</g>
		<g opacity="0.7">
			<g>
				<path fill="#74AFD1" d="M-1101.107-272.713c1.935,0,1.935-3,0-3S-1103.042-272.713-1101.107-272.713L-1101.107-272.713z"/>
			</g>
		</g>
		<g opacity="0.7">
			<g>
				<path fill="#74AFD1" d="M-1097.864-280.07c1.935,0,1.935-3,0-3S-1099.799-280.07-1097.864-280.07L-1097.864-280.07z"/>
			</g>
		</g>
		<g opacity="0.7">
			<g>
				<path fill="#74AFD1" d="M-1102.965-281.351c1.935,0,1.935-3,0-3S-1104.899-281.351-1102.965-281.351L-1102.965-281.351z"/>
			</g>
		</g>
		<g opacity="0.7">
			<g>
				<path fill="#74AFD1" d="M-1095.801-291.873c1.935,0,1.935-3,0-3S-1097.735-291.873-1095.801-291.873L-1095.801-291.873z"/>
			</g>
		</g>
		<g opacity="0.7">
			<g>
				<path fill="#74AFD1" d="M-1100.834-292.195c1.935,0,1.935-3,0-3S-1102.769-292.195-1100.834-292.195L-1100.834-292.195z"/>
			</g>
		</g>
		<g opacity="0.7">
			<g>
				<path fill="#74AFD1" d="M-1081.342-304.159c1.935,0,1.935-3,0-3S-1083.276-304.159-1081.342-304.159L-1081.342-304.159z"/>
			</g>
		</g>
		<g opacity="0.7">
			<g>
				<path fill="#74AFD1" d="M-1077-309.569c1.935,0,1.935-3,0-3S-1078.935-309.569-1077-309.569L-1077-309.569z"/>
			</g>
		</g>
		<g opacity="0.7">
			<g>
				<path fill="#74AFD1" d="M-1081.022-307.842c1.935,0,1.935-3,0-3S-1082.957-307.842-1081.022-307.842L-1081.022-307.842z"/>
			</g>
		</g>
		<g opacity="0.7">
			<g>
				<path fill="#74AFD1" d="M-1081.078-301.769c1.935,0,1.935-3,0-3S-1083.013-301.769-1081.078-301.769L-1081.078-301.769z"/>
			</g>
		</g>
		<g opacity="0.7">
			<g>
				<path fill="#74AFD1" d="M-1084.191-303.573c1.935,0,1.935-3,0-3S-1086.126-303.573-1084.191-303.573L-1084.191-303.573z"/>
			</g>
		</g>
		<g opacity="0.7">
			<g>
				<path fill="#74AFD1" d="M-1084.694-301.129c1.935,0,1.935-3,0-3S-1086.629-301.129-1084.694-301.129L-1084.694-301.129z"/>
			</g>
		</g>
		<g opacity="0.7">
			<g>
				<path fill="#74AFD1" d="M-1084.139-297.314c1.935,0,1.935-3,0-3S-1086.073-297.314-1084.139-297.314L-1084.139-297.314z"/>
			</g>
		</g>
		<g opacity="0.7">
			<g>
				<path fill="#74AFD1" d="M-1088.68-301.622c1.935,0,1.935-3,0-3S-1090.614-301.622-1088.68-301.622L-1088.68-301.622z"/>
			</g>
		</g>
		<g opacity="0.7">
			<g>
				<path fill="#74AFD1" d="M-1084.931-298.993c1.935,0,1.935-3,0-3S-1086.865-298.993-1084.931-298.993L-1084.931-298.993z"/>
			</g>
		</g>
		<g opacity="0.7">
			<g>
				<path fill="#74AFD1" d="M-1086.08-294.769c1.935,0,1.935-3,0-3S-1088.015-294.769-1086.08-294.769L-1086.08-294.769z"/>
			</g>
		</g>
		<g opacity="0.7">
			<g>
				<path fill="#74AFD1" d="M-1087.532-299.004c1.935,0,1.935-3,0-3S-1089.467-299.004-1087.532-299.004L-1087.532-299.004z"/>
			</g>
		</g>
		<g opacity="0.7">
			<g>
				<path fill="#74AFD1" d="M-1090.779-298.583c1.935,0,1.935-3,0-3S-1092.714-298.583-1090.779-298.583L-1090.779-298.583z"/>
			</g>
		</g>
		<g opacity="0.7">
			<g>
				<path fill="#74AFD1" d="M-1091.741-295.818c1.935,0,1.935-3,0-3S-1093.676-295.818-1091.741-295.818L-1091.741-295.818z"/>
			</g>
		</g>
		<g opacity="0.7">
			<g>
				<path fill="#74AFD1" d="M-1089.801-292.872c1.935,0,1.935-3,0-3S-1091.735-292.872-1089.801-292.872L-1089.801-292.872z"/>
			</g>
		</g>
		<g opacity="0.7">
			<g>
				<path fill="#74AFD1" d="M-1092.536-290.656c1.935,0,1.935-3,0-3S-1094.471-290.656-1092.536-290.656L-1092.536-290.656z"/>
			</g>
		</g>
		<g opacity="0.7">
			<g>
				<path fill="#74AFD1" d="M-1097.187-295.148c1.935,0,1.935-3,0-3S-1099.121-295.148-1097.187-295.148L-1097.187-295.148z"/>
			</g>
		</g>
		<g opacity="0.7">
			<g>
				<path fill="#74AFD1" d="M-1093.797-294.904c1.935,0,1.935-3,0-3S-1095.731-294.904-1093.797-294.904L-1093.797-294.904z"/>
			</g>
		</g>
		<g opacity="0.7">
			<g>
				<path fill="#74AFD1" d="M-1092.145-286.444c1.935,0,1.935-3,0-3S-1094.079-286.444-1092.145-286.444L-1092.145-286.444z"/>
			</g>
		</g>
		<g opacity="0.7">
			<g>
				<path fill="#74AFD1" d="M-1096.71-288.341c1.935,0,1.935-3,0-3S-1098.645-288.341-1096.71-288.341L-1096.71-288.341z"/>
			</g>
		</g>
		<g opacity="0.7">
			<g>
				<path fill="#74AFD1" d="M-1102.515-290.054c1.935,0,1.935-3,0-3S-1104.449-290.054-1102.515-290.054L-1102.515-290.054z"/>
			</g>
		</g>
		<g opacity="0.7">
			<g>
				<path fill="#74AFD1" d="M-1106.893-287.916c1.935,0,1.935-3,0-3S-1108.827-287.916-1106.893-287.916L-1106.893-287.916z"/>
			</g>
		</g>
		<g opacity="0.7">
			<g>
				<path fill="#74AFD1" d="M-1104.556-284.803c1.935,0,1.935-3,0-3S-1106.49-284.803-1104.556-284.803L-1104.556-284.803z"/>
			</g>
		</g>
		<g opacity="0.7">
			<g>
				<path fill="#74AFD1" d="M-1115.536-282.012c1.935,0,1.935-3,0-3S-1117.471-282.012-1115.536-282.012L-1115.536-282.012z"/>
			</g>
		</g>
		<g opacity="0.7">
			<g>
				<path fill="#74AFD1" d="M-1107.852-278.214c1.935,0,1.935-3,0-3S-1109.786-278.214-1107.852-278.214L-1107.852-278.214z"/>
			</g>
		</g>
		<g opacity="0.7">
			<g>
				<path fill="#74AFD1" d="M-1112.669-275.467c1.935,0,1.935-3,0-3S-1114.604-275.467-1112.669-275.467L-1112.669-275.467z"/>
			</g>
		</g>
		<g opacity="0.7">
			<g>
				<path fill="#74AFD1" d="M-1107.075-269.886c1.935,0,1.935-3,0-3S-1109.01-269.886-1107.075-269.886L-1107.075-269.886z"/>
			</g>
		</g>
		<g opacity="0.7">
			<g>
				<path fill="#74AFD1" d="M-1104.537-268.041c1.935,0,1.935-3,0-3S-1106.472-268.041-1104.537-268.041L-1104.537-268.041z"/>
			</g>
		</g>
		<g opacity="0.7">
			<g>
				<path fill="#74AFD1" d="M-1100.813-276.78c1.935,0,1.935-3,0-3S-1102.748-276.78-1100.813-276.78L-1100.813-276.78z"/>
			</g>
		</g>
		<g opacity="0.7">
			<g>
				<path fill="#74AFD1" d="M-1106.864-264.12c1.935,0,1.935-3,0-3S-1108.799-264.12-1106.864-264.12L-1106.864-264.12z"/>
			</g>
		</g>
		<g opacity="0.7">
			<g>
				<path fill="#74AFD1" d="M-1105.585-258.236c1.935,0,1.935-3,0-3S-1107.52-258.236-1105.585-258.236L-1105.585-258.236z"/>
			</g>
		</g>
		<g opacity="0.7">
			<g>
				<path fill="#74AFD1" d="M-1111.767-269.461c1.935,0,1.935-3,0-3S-1113.701-269.461-1111.767-269.461L-1111.767-269.461z"/>
			</g>
		</g>
		<g opacity="0.7">
			<g>
				<path fill="#74AFD1" d="M-1113.337-262.992c1.935,0,1.935-3,0-3S-1115.271-262.992-1113.337-262.992L-1113.337-262.992z"/>
			</g>
		</g>
		<g opacity="0.7">
			<g>
				<path fill="#74AFD1" d="M-1117.417-278.604c1.935,0,1.935-3,0-3S-1119.352-278.604-1117.417-278.604L-1117.417-278.604z"/>
			</g>
		</g>
		<g opacity="0.7">
			<g>
				<path fill="#74AFD1" d="M-1124.395-279.175c1.935,0,1.935-3,0-3S-1126.329-279.175-1124.395-279.175L-1124.395-279.175z"/>
			</g>
		</g>
		<g opacity="0.7">
			<g>
				<path fill="#74AFD1" d="M-1118.002-271.818c1.935,0,1.935-3,0-3S-1119.937-271.818-1118.002-271.818L-1118.002-271.818z"/>
			</g>
		</g>
		<g opacity="0.7">
			<g>
				<path fill="#74AFD1" d="M-1122.832-274.755c1.935,0,1.935-3,0-3S-1124.767-274.755-1122.832-274.755L-1122.832-274.755z"/>
			</g>
		</g>
		<g opacity="0.7">
			<g>
				<path fill="#74AFD1" d="M-1119.882-264.268c1.935,0,1.935-3,0-3S-1121.816-264.268-1119.882-264.268L-1119.882-264.268z"/>
			</g>
		</g>
	</g>
	<g display="inline">
		<g>
			<path fill="#74AFD1" d="M-1181.217-331.632c1.935,0,1.935-3,0-3S-1183.151-331.632-1181.217-331.632L-1181.217-331.632z"/>
		</g>
	</g>
	<g display="inline">
		<g>
			<path fill="#74AFD1" d="M-1184.91-347.057c1.935,0,1.935-3,0-3S-1186.845-347.057-1184.91-347.057L-1184.91-347.057z"/>
		</g>
	</g>
	<g display="inline">
		<g>
			<path fill="#74AFD1" d="M-1192.731-334.457c1.935,0,1.935-3,0-3S-1194.666-334.457-1192.731-334.457L-1192.731-334.457z"/>
		</g>
	</g>
	<g display="inline">
		<g>
			<path fill="#74AFD1" d="M-1193.6-328.156c1.935,0,1.935-3,0-3S-1195.535-328.156-1193.6-328.156L-1193.6-328.156z"/>
		</g>
	</g>
	<g display="inline">
		<g>
			<path fill="#74AFD1" d="M-1195.338-319.901c1.935,0,1.935-3,0-3S-1197.273-319.901-1195.338-319.901L-1195.338-319.901z"/>
		</g>
	</g>
	<g display="inline">
		<g>
			<path fill="#74AFD1" d="M-1197.076-312.08c1.935,0,1.935-3,0-3S-1199.011-312.08-1197.076-312.08L-1197.076-312.08z"/>
		</g>
	</g>
	<g display="inline">
		<g>
			<path fill="#74AFD1" d="M-1198.163-305.345c1.935,0,1.935-3,0-3S-1200.097-305.345-1198.163-305.345L-1198.163-305.345z"/>
		</g>
	</g>
	<g display="inline">
		<g>
			<path fill="#74AFD1" d="M-1185.128-317.728c1.935,0,1.935-3,0-3S-1187.062-317.728-1185.128-317.728L-1185.128-317.728z"/>
		</g>
	</g>
	<g display="inline">
		<g>
			<path fill="#74AFD1" d="M-1179.696-327.07c1.935,0,1.935-3,0-3S-1181.631-327.07-1179.696-327.07L-1179.696-327.07z"/>
		</g>
	</g>
	<g display="inline">
		<g>
			<path fill="#74AFD1" d="M-1178.827-322.291c1.935,0,1.935-3,0-3S-1180.762-322.291-1178.827-322.291L-1178.827-322.291z"/>
		</g>
	</g>
	<g display="inline">
		<g>
			<path fill="#74AFD1" d="M-1177.307-316.642c1.935,0,1.935-3,0-3S-1179.241-316.642-1177.307-316.642L-1177.307-316.642z"/>
		</g>
	</g>
	<g display="inline">
		<g>
			<path fill="#74AFD1" d="M-1176.438-311.428c1.935,0,1.935-3,0-3S-1178.372-311.428-1176.438-311.428L-1176.438-311.428z"/>
		</g>
	</g>
	<g display="inline">
		<g>
			<path fill="#74AFD1" d="M-1174.265-304.693c1.935,0,1.935-3,0-3S-1176.199-304.693-1174.265-304.693L-1174.265-304.693z"/>
		</g>
	</g>
	<g display="inline">
		<g>
			<path fill="#74AFD1" d="M-1170.572-300.565c1.935,0,1.935-3,0-3S-1172.507-300.565-1170.572-300.565L-1170.572-300.565z"/>
		</g>
	</g>
	<g display="inline">
		<g>
			<path fill="#74AFD1" d="M-1164.706-297.741c1.935,0,1.935-3,0-3S-1166.641-297.741-1164.706-297.741L-1164.706-297.741z"/>
		</g>
	</g>
	<g display="inline">
		<g>
			<path fill="#74AFD1" d="M-1158.623-296.003c1.935,0,1.935-3,0-3S-1160.558-296.003-1158.623-296.003L-1158.623-296.003z"/>
		</g>
	</g>
	<g display="inline">
		<g>
			<path fill="#74AFD1" d="M-1164.706-292.31c1.935,0,1.935-3,0-3S-1166.641-292.31-1164.706-292.31L-1164.706-292.31z"/>
		</g>
	</g>
	<g display="inline">
		<g>
			<path fill="#74AFD1" d="M-1147.326-292.527c1.935,0,1.935-3,0-3S-1149.261-292.527-1147.326-292.527L-1147.326-292.527z"/>
		</g>
	</g>
	<g display="inline">
		<g>
			<path fill="#74AFD1" d="M-1139.939-289.051c1.935,0,1.935-3,0-3S-1141.874-289.051-1139.939-289.051L-1139.939-289.051z"/>
		</g>
	</g>
	<g display="inline">
		<g>
			<path fill="#74AFD1" d="M-1131.685-286.879c1.935,0,1.935-3,0-3S-1133.619-286.879-1131.685-286.879L-1131.685-286.879z"/>
		</g>
	</g>
	<g display="inline">
		<g>
			<path fill="#74AFD1" d="M-1123.863-283.62c1.935,0,1.935-3,0-3S-1125.798-283.62-1123.863-283.62L-1123.863-283.62z"/>
		</g>
	</g>
	<g display="inline">
		<g>
			<path fill="#74AFD1" d="M-1128.426-281.448c1.935,0,1.935-3,0-3S-1130.36-281.448-1128.426-281.448L-1128.426-281.448z"/>
		</g>
	</g>
	<g display="inline">
		<g>
			<path fill="#74AFD1" d="M-1135.595-285.141c1.935,0,1.935-3,0-3S-1137.529-285.141-1135.595-285.141L-1135.595-285.141z"/>
		</g>
	</g>
	<g display="inline">
		<g>
			<path fill="#74AFD1" d="M-1153.192-291.875c1.935,0,1.935-3,0-3S-1155.127-291.875-1153.192-291.875L-1153.192-291.875z"/>
		</g>
	</g>
	<g display="inline">
		<g>
			<path fill="#74AFD1" d="M-1101.921-265.372c1.935,0,1.935-3,0-3S-1103.855-265.372-1101.921-265.372L-1101.921-265.372z"/>
		</g>
	</g>
	<g display="inline">
		<g>
			<path fill="#74AFD1" d="M-1096.272-258.854c1.935,0,1.935-3,0-3S-1098.207-258.854-1096.272-258.854L-1096.272-258.854z"/>
		</g>
	</g>
	<g display="inline">
		<g>
			<path fill="#74AFD1" d="M-1092.145-252.554c1.935,0,1.935-3,0-3S-1094.079-252.554-1092.145-252.554L-1092.145-252.554z"/>
		</g>
	</g>
	<g display="inline">
		<g>
			<path fill="#74AFD1" d="M-1083.672-237.781c1.935,0,1.935-3,0-3S-1085.606-237.781-1083.672-237.781L-1083.672-237.781z"/>
		</g>
	</g>
	<g display="inline">
		<g>
			<path fill="#74AFD1" d="M-1086.714-243.646c1.935,0,1.935-3,0-3S-1088.648-243.646-1086.714-243.646L-1086.714-243.646z"/>
		</g>
	</g>
	<g display="inline">
		<g>
			<path fill="#74AFD1" d="M-1088.669-248.643c1.935,0,1.935-3,0-3S-1090.604-248.643-1088.669-248.643L-1088.669-248.643z"/>
		</g>
	</g>
	<g display="inline">
		<g>
			<path fill="#74AFD1" d="M-1098.445-254.726c1.935,0,1.935-3,0-3S-1100.38-254.726-1098.445-254.726L-1098.445-254.726z"/>
		</g>
	</g>
	<g display="inline">
		<g>
			<path fill="#74AFD1" d="M-1101.921-260.157c1.935,0,1.935-3,0-3S-1103.855-260.157-1101.921-260.157L-1101.921-260.157z"/>
		</g>
	</g>
	<g display="inline">
		<g>
			<path fill="#74AFD1" d="M-1273.983-266.241c1.935,0,1.935-3,0-3S-1275.917-266.241-1273.983-266.241L-1273.983-266.241z"/>
		</g>
	</g>
	<g display="inline">
		<g>
			<path fill="#74AFD1" d="M-1279.849-259.289c1.935,0,1.935-3,0-3S-1281.783-259.289-1279.849-259.289L-1279.849-259.289z"/>
		</g>
	</g>
	<g display="inline">
		<g>
			<path fill="#74AFD1" d="M-1285.063-251.034c1.935,0,1.935-3,0-3S-1286.998-251.034-1285.063-251.034L-1285.063-251.034z"/>
		</g>
	</g>
	<g display="inline">
		<g>
			<path fill="#74AFD1" d="M-1282.673-255.813c1.935,0,1.935-3,0-3S-1284.607-255.813-1282.673-255.813L-1282.673-255.813z"/>
		</g>
	</g>
	<g display="inline">
		<g>
			<path fill="#74AFD1" d="M-1277.242-262.765c1.935,0,1.935-3,0-3S-1279.176-262.765-1277.242-262.765L-1277.242-262.765z"/>
		</g>
	</g>
	<g display="inline">
		<g>
			<path fill="#74AFD1" d="M-1269.421-264.069c1.935,0,1.935-3,0-3S-1271.355-264.069-1269.421-264.069L-1269.421-264.069z"/>
		</g>
	</g>
	<g display="inline">
		<g>
			<path fill="#74AFD1" d="M-1275.504-260.158c1.935,0,1.935-3,0-3S-1277.438-260.158-1275.504-260.158L-1275.504-260.158z"/>
		</g>
	</g>
	<g display="inline">
		<g>
			<path fill="#74AFD1" d="M-1279.415-254.944c1.935,0,1.935-3,0-3S-1281.349-254.944-1279.415-254.944L-1279.415-254.944z"/>
		</g>
	</g>
	<g display="inline">
		<g>
			<path fill="#74AFD1" d="M-1288.756-245.168c1.935,0,1.935-3,0-3S-1290.69-245.168-1288.756-245.168L-1288.756-245.168z"/>
		</g>
	</g>
	<g display="inline">
		<g>
			<path fill="#74AFD1" d="M-1262.034-266.893c1.935,0,1.935-3,0-3S-1263.969-266.893-1262.034-266.893L-1262.034-266.893z"/>
		</g>
	</g>
	<g display="inline">
		<g>
			<path fill="#74AFD1" d="M-1248.13-281.014c1.935,0,1.935-3,0-3S-1250.065-281.014-1248.13-281.014L-1248.13-281.014z"/>
		</g>
	</g>
	<g display="inline">
		<g>
			<path fill="#74AFD1" d="M-1241.178-287.749c1.935,0,1.935-3,0-3S-1243.113-287.749-1241.178-287.749L-1241.178-287.749z"/>
		</g>
	</g>
	<g display="inline">
		<g>
			<path fill="#74AFD1" d="M-1231.62-290.139c1.935,0,1.935-3,0-3S-1233.554-290.139-1231.62-290.139L-1231.62-290.139z"/>
		</g>
	</g>
	<g display="inline">
		<g>
			<path fill="#74AFD1" d="M-1219.671-289.704c1.935,0,1.935-3,0-3S-1221.605-289.704-1219.671-289.704L-1219.671-289.704z"/>
		</g>
	</g>
	<g display="inline">
		<g>
			<path fill="#74AFD1" d="M-1215.76-294.483c1.935,0,1.935-3,0-3S-1217.695-294.483-1215.76-294.483L-1215.76-294.483z"/>
		</g>
	</g>
	<g display="inline">
		<g>
			<path fill="#74AFD1" d="M-1208.374-299.698c1.935,0,1.935-3,0-3S-1210.308-299.698-1208.374-299.698L-1208.374-299.698z"/>
		</g>
	</g>
	<g display="inline">
		<g>
			<path fill="#74AFD1" d="M-1207.722-294.049c1.935,0,1.935-3,0-3S-1209.657-294.049-1207.722-294.049L-1207.722-294.049z"/>
		</g>
	</g>
	<g display="inline">
		<g>
			<path fill="#74AFD1" d="M-1224.667-293.18c1.935,0,1.935-3,0-3S-1226.602-293.18-1224.667-293.18L-1224.667-293.18z"/>
		</g>
	</g>
	<g display="inline">
		<g>
			<path fill="#74AFD1" d="M-1228.144-287.532c1.935,0,1.935-3,0-3S-1230.078-287.532-1228.144-287.532L-1228.144-287.532z"/>
		</g>
	</g>
	<g display="inline">
		<g>
			<path fill="#74AFD1" d="M-1239.875-283.187c1.935,0,1.935-3,0-3S-1241.81-283.187-1239.875-283.187L-1239.875-283.187z"/>
		</g>
	</g>
	<g display="inline">
		<g>
			<path fill="#74AFD1" d="M-1247.696-275.8c1.935,0,1.935-3,0-3S-1249.63-275.8-1247.696-275.8L-1247.696-275.8z"/>
		</g>
	</g>
	<g display="inline">
		<g>
			<path fill="#74AFD1" d="M-1234.661-286.663c1.935,0,1.935-3,0-3S-1236.596-286.663-1234.661-286.663L-1234.661-286.663z"/>
		</g>
	</g>
	<g display="inline">
		<g>
			<path fill="#74AFD1" d="M-1220.54-297.091c1.935,0,1.935-3,0-3S-1222.474-297.091-1220.54-297.091L-1220.54-297.091z"/>
		</g>
	</g>
</g>
</svg>
