<?xml version="1.0" encoding="utf-8"?>
<!-- Generator: Adobe Illustrator 15.1.0, SVG Export Plug-In . SVG Version: 6.00 Build 0)  -->
<!DOCTYPE svg PUBLIC "-//W3C//DTD SVG 1.1//EN" "http://www.w3.org/Graphics/SVG/1.1/DTD/svg11.dtd">
<svg version="1.1" xmlns="http://www.w3.org/2000/svg" xmlns:xlink="http://www.w3.org/1999/xlink" x="0px" y="0px" width="400px"
	 height="400px" viewBox="0 0 400 400" enable-background="new 0 0 400 400" xml:space="preserve">
<g id="guide_lines_layer" display="none">
</g>
<g id="body_layer">
	<polygon fill="#E06899" points="201.663,9.027 305.447,21.667 275.072,25.338 347.286,58.7 313.894,61.939 376.227,119.166 
		356.191,117.007 382.905,194.749 362.869,180.712 371.774,257.375 350.44,224.442 348.399,302.724 325.211,261.873 
		320.018,328.099 305.917,294.985 303.692,352.573 281.429,324.498 291.262,365.35 257.869,330.798 250.448,379.747 
		230.227,336.017 221.508,384.785 201.286,342.495 181.437,387.665 174.015,342.675 162.142,380.467 143.591,346.635 
		126.338,380.646 119.659,335.297 103.334,357.612 84.04,310.822 75.136,342.496 63.495,282 43.969,314.421 44.71,246.756 
		24.489,257.375 37.847,186.111 8.906,195.828 53.431,114.848 15.585,113.768 79.031,64.099 50.091,57.62 128.249,25.338 
		106.204,17.348 	"/>
</g>
</svg>
