<?xml version="1.0" encoding="utf-8"?>
<!-- Generator: Adobe Illustrator 15.1.0, SVG Export Plug-In . SVG Version: 6.00 Build 0)  -->
<!DOCTYPE svg PUBLIC "-//W3C//DTD SVG 1.1//EN" "http://www.w3.org/Graphics/SVG/1.1/DTD/svg11.dtd">
<svg version="1.1" xmlns="http://www.w3.org/2000/svg" xmlns:xlink="http://www.w3.org/1999/xlink" x="0px" y="0px" width="400px"
	 height="400px" viewBox="0 0 400 400" enable-background="new 0 0 400 400" xml:space="preserve">
<g id="guide_lines_layer" display="none">
</g>
<g id="body_layer">
	<polygon fill="#7DC6DD" points="206.757,26.029 310.541,38.669 280.166,42.34 352.38,75.702 318.987,78.941 381.32,136.168 
		361.285,134.009 387.999,211.751 367.963,197.714 376.868,274.377 355.534,241.444 353.493,319.726 330.305,278.875 
		325.111,345.101 311.011,311.987 308.786,369.575 286.522,341.5 296.355,382.352 262.963,347.8 255.542,396.749 235.32,353.019 
		226.602,401.787 206.38,359.497 186.53,404.667 179.108,359.677 167.235,397.469 148.685,363.637 131.432,397.647 124.753,352.299 
		108.428,374.614 89.134,327.824 80.229,359.498 68.589,299.002 49.062,331.423 49.804,263.758 29.583,274.377 42.94,203.113 
		14,212.83 58.524,131.85 20.679,130.77 84.125,81.101 55.185,74.622 133.343,42.34 111.297,34.35 	"/>
</g>
</svg>
