<?xml version="1.0" encoding="utf-8"?>
<!-- Generator: Adobe Illustrator 15.1.0, SVG Export Plug-In . SVG Version: 6.00 Build 0)  -->
<!DOCTYPE svg PUBLIC "-//W3C//DTD SVG 1.1//EN" "http://www.w3.org/Graphics/SVG/1.1/DTD/svg11.dtd">
<svg version="1.1" xmlns="http://www.w3.org/2000/svg" xmlns:xlink="http://www.w3.org/1999/xlink" x="0px" y="0px" width="400px"
	 height="400px" viewBox="0 0 400 400" enable-background="new 0 0 400 400" xml:space="preserve">
<g id="guide_lines_layer" display="none">
</g>
<g id="body_layer">
	<polygon fill="#8BCEAB" points="208.709,7.028 312.493,19.668 282.118,23.339 354.332,56.701 320.939,59.94 383.272,117.167 
		363.237,115.008 389.951,192.75 369.915,178.713 378.82,255.376 357.486,222.443 355.445,300.725 332.257,259.874 327.063,326.1 
		312.963,292.986 310.738,350.574 288.475,322.499 298.308,363.351 264.915,328.799 257.494,377.748 237.272,334.018 
		228.554,382.786 208.332,340.496 188.482,385.666 181.061,340.676 169.188,378.468 150.637,344.636 133.384,378.646 
		126.705,333.298 110.38,355.613 91.086,308.823 82.182,340.497 70.541,280.001 51.015,312.422 51.756,244.757 31.535,255.376 
		44.893,184.112 15.952,193.829 60.477,112.849 22.631,111.769 86.077,62.1 57.137,55.621 135.295,23.339 113.25,15.349 	"/>
</g>
</svg>
