<?xml version="1.0" encoding="utf-8"?>
<!-- Generator: Adobe Illustrator 15.1.0, SVG Export Plug-In . SVG Version: 6.00 Build 0)  -->
<!DOCTYPE svg PUBLIC "-//W3C//DTD SVG 1.1//EN" "http://www.w3.org/Graphics/SVG/1.1/DTD/svg11.dtd">
<svg version="1.1" xmlns="http://www.w3.org/2000/svg" xmlns:xlink="http://www.w3.org/1999/xlink" x="0px" y="0px" width="400px"
	 height="400px" viewBox="0 0 400 400" enable-background="new 0 0 400 400" xml:space="preserve">
<g id="guide_lines_layer" display="none">
</g>
<g id="body_layer">
	<path fill="#6FC5D8" d="M0,218.281"/>
	<polyline fill="#8BCEAB" points="111.849,0 59.816,119.295 50.883,294.062 37.225,293.365 46.119,119.383 95.614,0 	"/>
	<path fill="#6FC5D8" d="M41.506,221.948"/>
	<path fill="#8BCEAB" d="M29.91,289.802c-6.002,10.085-38.735,75.248-11.662,59.48c12.967-7.554,30.436-22.314,30.004-34.163
		c-1.331-37.786,3.74-5.542,8.002-5.786C70.91,308.493,49.199,257.39,29.91,289.802z"/>
	<path fill="#F3B673" d="M13.551,348.173c0,0,3.273,0.412,6.33-4.085c0,0-3.212,10.294,2.832,13.672
		C14.029,357.385,12.197,355.864,13.551,348.173z"/>
	<path fill="#F3B673" d="M22.786,342.382l4.368-4.622c0,0-0.482,6.801,5.637,12.494C27.088,350.164,23.38,347.765,22.786,342.382z"
		/>
	<path fill="#F3B673" d="M59.423,307.51l-5.671-2.883c0,0,2.747,6.24-1.098,13.663C57.994,316.285,60.678,312.777,59.423,307.51z"/>
	<path fill="#F3B673" d="M34.848,331.767l4.369-4.62c0,0-0.482,6.8,5.635,12.493C39.148,339.55,35.442,337.151,34.848,331.767z"/>
	<polyline fill="#8BCEAB" points="289.75,0 341.782,119.295 350.716,294.062 364.374,293.365 355.479,119.383 305.984,0 	"/>
	<path fill="#6FC5D8" d="M360.093,221.948"/>
	<path fill="#8BCEAB" d="M371.688,289.802c6.002,10.085,38.735,75.248,11.662,59.48c-12.966-7.554-30.437-22.314-30.005-34.163
		c1.332-37.786-3.739-5.542-8.001-5.786C330.688,308.493,352.398,257.39,371.688,289.802z"/>
	<path fill="#F3B673" d="M388.047,348.173c0,0-3.271,0.412-6.328-4.085c0,0,3.211,10.294-2.834,13.672
		C387.569,357.385,389.402,355.864,388.047,348.173z"/>
	<path fill="#F3B673" d="M378.812,342.382l-4.368-4.622c0,0,0.483,6.801-5.637,12.494
		C374.511,350.164,378.219,347.765,378.812,342.382z"/>
	<path fill="#F3B673" d="M342.176,307.51l5.67-2.883c0,0-2.746,6.24,1.098,13.663C343.604,316.285,340.922,312.777,342.176,307.51z"
		/>
	<path fill="#F3B673" d="M366.751,331.767l-4.369-4.62c0,0,0.483,6.8-5.636,12.493C362.449,339.55,366.156,337.151,366.751,331.767z
		"/>
</g>
</svg>
