<?xml version="1.0" encoding="utf-8"?>
<!-- Generator: Adobe Illustrator 15.1.0, SVG Export Plug-In . SVG Version: 6.00 Build 0)  -->
<!DOCTYPE svg PUBLIC "-//W3C//DTD SVG 1.1//EN" "http://www.w3.org/Graphics/SVG/1.1/DTD/svg11.dtd">
<svg version="1.1" xmlns="http://www.w3.org/2000/svg" xmlns:xlink="http://www.w3.org/1999/xlink" x="0px" y="0px" width="400px"
	 height="400px" viewBox="0 0 400 400" enable-background="new 0 0 400 400" xml:space="preserve">
<g id="guide_lines_layer" display="none">
</g>
<g id="body_layer">
	<polyline fill="#6FC5D8" points="109.849,0 57.816,119.295 48.883,294.062 35.225,293.365 44.119,119.383 93.614,0 	"/>
	<path fill="#6FC5D8" d="M39.506,221.948"/>
	<path fill="#6FC5D8" d="M27.91,289.802c-6.002,10.085-38.735,75.248-11.662,59.48c12.966-7.554,30.436-22.314,30.004-34.163
		c-1.332-37.786,3.74-5.542,8.001-5.786C68.911,308.493,47.2,257.39,27.91,289.802z"/>
	<path fill="#F3B673" d="M11.551,348.173c0,0,3.272,0.412,6.329-4.085c0,0-3.211,10.294,2.833,13.672
		C12.029,357.385,10.197,355.864,11.551,348.173z"/>
	<path fill="#F3B673" d="M20.786,342.382l4.368-4.622c0,0-0.483,6.801,5.637,12.494C25.088,350.164,21.38,347.765,20.786,342.382z"
		/>
	<path fill="#F3B673" d="M57.423,307.51l-5.67-2.883c0,0,2.747,6.24-1.098,13.663C55.994,316.285,58.677,312.777,57.423,307.51z"/>
	<path fill="#F3B673" d="M32.848,331.767l4.369-4.62c0,0-0.483,6.8,5.635,12.493C37.149,339.55,33.442,337.151,32.848,331.767z"/>
	<polyline fill="#6FC5D8" points="287.75,0 339.782,119.295 348.716,294.062 362.374,293.365 353.479,119.383 303.984,0 	"/>
	<path fill="#6FC5D8" d="M358.093,221.948"/>
	<path fill="#6FC5D8" d="M369.688,289.802c6.002,10.085,38.735,75.248,11.662,59.48c-12.966-7.554-30.437-22.314-30.005-34.163
		c1.332-37.786-3.739-5.542-8.001-5.786C328.688,308.493,350.398,257.39,369.688,289.802z"/>
	<path fill="#F3B673" d="M386.047,348.173c0,0-3.271,0.412-6.328-4.085c0,0,3.211,10.294-2.834,13.672
		C385.569,357.385,387.402,355.864,386.047,348.173z"/>
	<path fill="#F3B673" d="M376.812,342.382l-4.368-4.622c0,0,0.483,6.801-5.637,12.494
		C372.511,350.164,376.219,347.765,376.812,342.382z"/>
	<path fill="#F3B673" d="M340.176,307.51l5.67-2.883c0,0-2.746,6.24,1.098,13.663C341.604,316.285,338.922,312.777,340.176,307.51z"
		/>
	<path fill="#F3B673" d="M364.751,331.767l-4.369-4.62c0,0,0.483,6.8-5.636,12.493C360.449,339.55,364.156,337.151,364.751,331.767z
		"/>
</g>
</svg>
