<?xml version="1.0" encoding="utf-8"?>
<!-- Generator: Adobe Illustrator 15.1.0, SVG Export Plug-In . SVG Version: 6.00 Build 0)  -->
<!DOCTYPE svg PUBLIC "-//W3C//DTD SVG 1.1//EN" "http://www.w3.org/Graphics/SVG/1.1/DTD/svg11.dtd">
<svg version="1.1" xmlns="http://www.w3.org/2000/svg" xmlns:xlink="http://www.w3.org/1999/xlink" x="0px" y="0px" width="400px"
	 height="400px" viewBox="0 0 400 400" enable-background="new 0 0 400 400" xml:space="preserve">
<g id="guide_lines_layer" display="none">
</g>
<g id="body_layer">
	<path fill="#6FC5D8" d="M0,221.801"/>
	<polyline fill="#E06899" points="111.849,3.52 59.816,122.814 50.883,297.582 37.225,296.885 46.119,122.902 95.614,3.52 	"/>
	<path fill="#6FC5D8" d="M41.506,225.468"/>
	<path fill="#E06899" d="M29.91,293.321c-6.002,10.085-38.735,75.248-11.662,59.48c12.967-7.554,30.436-22.314,30.004-34.163
		c-1.331-37.786,3.74-5.542,8.002-5.786C70.91,312.013,49.199,260.909,29.91,293.321z"/>
	<path fill="#F3B673" d="M13.551,351.692c0,0,3.273,0.412,6.33-4.085c0,0-3.212,10.294,2.832,13.672
		C14.029,360.904,12.197,359.384,13.551,351.692z"/>
	<path fill="#F3B673" d="M22.786,345.901l4.368-4.622c0,0-0.482,6.801,5.637,12.494C27.088,353.684,23.38,351.284,22.786,345.901z"
		/>
	<path fill="#F3B673" d="M59.423,311.029l-5.671-2.883c0,0,2.747,6.24-1.098,13.663C57.994,319.805,60.678,316.297,59.423,311.029z"
		/>
	<path fill="#F3B673" d="M34.848,335.286l4.369-4.62c0,0-0.482,6.8,5.635,12.493C39.148,343.069,35.442,340.671,34.848,335.286z"/>
	<polyline fill="#E06899" points="289.75,3.52 341.782,122.814 350.716,297.582 364.374,296.885 355.479,122.902 305.984,3.52 	"/>
	<path fill="#6FC5D8" d="M360.093,225.468"/>
	<path fill="#E06899" d="M371.688,293.321c6.002,10.085,38.735,75.248,11.662,59.48c-12.966-7.554-30.437-22.314-30.005-34.163
		c1.332-37.786-3.739-5.542-8.001-5.786C330.688,312.013,352.398,260.909,371.688,293.321z"/>
	<path fill="#F3B673" d="M388.047,351.692c0,0-3.271,0.412-6.328-4.085c0,0,3.211,10.294-2.834,13.672
		C387.569,360.904,389.402,359.384,388.047,351.692z"/>
	<path fill="#F3B673" d="M378.812,345.901l-4.368-4.622c0,0,0.483,6.801-5.637,12.494
		C374.511,353.684,378.219,351.284,378.812,345.901z"/>
	<path fill="#F3B673" d="M342.176,311.029l5.67-2.883c0,0-2.746,6.24,1.098,13.663C343.604,319.805,340.922,316.297,342.176,311.029
		z"/>
	<path fill="#F3B673" d="M366.751,335.286l-4.369-4.62c0,0,0.483,6.8-5.636,12.493C362.449,343.069,366.156,340.671,366.751,335.286
		z"/>
</g>
</svg>
