<?xml version="1.0" encoding="utf-8"?>
<!-- Generator: Adobe Illustrator 15.1.0, SVG Export Plug-In . SVG Version: 6.00 Build 0)  -->
<!DOCTYPE svg PUBLIC "-//W3C//DTD SVG 1.1//EN" "http://www.w3.org/Graphics/SVG/1.1/DTD/svg11.dtd">
<svg version="1.1" xmlns="http://www.w3.org/2000/svg" xmlns:xlink="http://www.w3.org/1999/xlink" x="0px" y="0px" width="400px"
	 height="400px" viewBox="0 0 400 400" enable-background="new 0 0 400 400" xml:space="preserve">
<g id="guide_lines_layer" display="none">
</g>
<g id="body_layer">
	<path fill="#6FC5D8" d="M328.519,224.438c80.996,307.484,83.996-175.491-71.996-131.993
		C218.957,102.92,317.269,181.729,328.519,224.438z"/>
	<path fill="#6FC5D8" d="M344.972,209.624c0,80.365-65.149,145.515-145.515,145.515S53.942,289.989,53.942,209.624
		S72.031,63.946,199.457,64.109C329.206,64.275,344.972,129.259,344.972,209.624z"/>
	<path fill="#52BFD1" d="M324.005,236.678c0,64.198-55.038,116.231-122.924,116.231c-67.884,0-122.922-52.033-122.922-116.231
		c0-64.208,55.038-116.242,122.922-116.242C268.967,120.436,324.005,172.47,324.005,236.678z"/>
	<path fill="#6FC5D8" d="M70.819,222.454C-10.177,529.938-13.177,46.963,142.815,90.461
		C180.381,100.936,82.069,179.745,70.819,222.454z"/>
	<path fill="#F3B673" d="M373.301,323.825c0,0-3.254-0.529-4.916-5.707c0,0,0.172,10.782-6.582,12.313
		C370.24,332.526,372.428,331.586,373.301,323.825z"/>
	<path fill="#F3B673" d="M366.079,315.66l-2.884-5.668c0,0-1.458,6.66-8.938,10.393C359.754,321.91,363.988,320.656,366.079,315.66z
		"/>
	<path fill="#F3B673" d="M357.509,302.069l-2.886-5.666c0,0-1.457,6.659-8.936,10.392
		C351.184,308.32,355.417,307.066,357.509,302.069z"/>
	<path fill="#F3B673" d="M26.348,319.51c0,0,3.279-0.342,5.235-5.415c0,0-0.79,10.755,5.863,12.672
		C28.904,328.373,26.774,327.309,26.348,319.51z"/>
	<path fill="#F3B673" d="M34.026,311.773l3.204-5.492c0,0,1.074,6.731,8.326,10.887C39.982,318.375,35.827,316.881,34.026,311.773z"
		/>
	<path fill="#F3B673" d="M43.362,298.697l3.207-5.492c0,0,1.072,6.732,8.325,10.888C49.318,305.3,45.164,303.807,43.362,298.697z"/>
</g>
</svg>
