<?xml version="1.0" encoding="utf-8"?>
<!-- Generator: Adobe Illustrator 15.1.0, SVG Export Plug-In . SVG Version: 6.00 Build 0)  -->
<!DOCTYPE svg PUBLIC "-//W3C//DTD SVG 1.1//EN" "http://www.w3.org/Graphics/SVG/1.1/DTD/svg11.dtd">
<svg version="1.1" id="body_layer" xmlns="http://www.w3.org/2000/svg" xmlns:xlink="http://www.w3.org/1999/xlink" x="0px" y="0px"
	 width="400px" height="400px" viewBox="0 0 400 400" enable-background="new 0 0 400 400" xml:space="preserve">
<path fill="#8BCEAB" d="M325.509,229.953c80.996,307.484,83.996-175.491-71.996-131.993
	C215.947,108.435,314.259,187.244,325.509,229.953z"/>
<path fill="#8BCEAB" d="M50.933,215.139c0-80.365,18.089-145.678,145.515-145.515c129.749,0.166,145.515,65.149,145.515,145.515
	s-65.149,145.515-145.515,145.515S50.933,295.504,50.933,215.139"/>
<path fill="#72C596" d="M320.995,242.192c0,64.198-55.038,116.231-122.924,116.231c-67.884,0-122.922-52.033-122.922-116.231
	c0-64.208,55.038-116.242,122.922-116.242C265.957,125.95,320.995,177.984,320.995,242.192z"/>
<path fill="#8BCEAB" d="M67.81,227.969C-13.187,535.453-16.187,52.478,139.806,95.976C177.371,106.45,79.06,185.26,67.81,227.969z"
	/>
<path fill="#F3B673" d="M369.301,331.825c0,0-3.254-0.529-4.916-5.707c0,0,0.172,10.782-6.582,12.313
	C366.24,340.526,368.428,339.586,369.301,331.825z"/>
<path fill="#F3B673" d="M362.079,323.66l-2.884-5.668c0,0-1.458,6.66-8.938,10.393C355.754,329.91,359.988,328.656,362.079,323.66z"
	/>
<path fill="#F3B673" d="M353.509,310.069l-2.886-5.666c0,0-1.457,6.659-8.936,10.392
	C347.184,316.32,351.417,315.066,353.509,310.069z"/>
<path fill="#F3B673" d="M22.348,327.51c0,0,3.279-0.342,5.235-5.415c0,0-0.79,10.755,5.863,12.672
	C24.904,336.373,22.774,335.309,22.348,327.51z"/>
<path fill="#F3B673" d="M30.026,319.773l3.204-5.492c0,0,1.074,6.731,8.326,10.887C35.982,326.375,31.827,324.881,30.026,319.773z"
	/>
<path fill="#F3B673" d="M39.362,306.697l3.207-5.492c0,0,1.072,6.732,8.325,10.888C45.318,313.3,41.164,311.807,39.362,306.697z"/>
</svg>
