<?xml version="1.0" encoding="utf-8"?>
<!-- Generator: Adobe Illustrator 15.1.0, SVG Export Plug-In . SVG Version: 6.00 Build 0)  -->
<!DOCTYPE svg PUBLIC "-//W3C//DTD SVG 1.1//EN" "http://www.w3.org/Graphics/SVG/1.1/DTD/svg11.dtd">
<svg version="1.1" id="body_layer" xmlns="http://www.w3.org/2000/svg" xmlns:xlink="http://www.w3.org/1999/xlink" x="0px" y="0px"
	 width="400px" height="400px" viewBox="0 0 400 400" enable-background="new 0 0 400 400" xml:space="preserve">
<path fill="#E06899" d="M327.507,238.952c80.996,307.484,83.996-175.491-71.996-131.993
	C217.945,117.434,316.257,196.243,327.507,238.952z"/>
<path fill="#E06899" d="M52.931,224.138c0-80.365,18.089-145.678,145.515-145.515c129.749,0.166,145.515,65.149,145.515,145.515
	s-65.149,145.515-145.515,145.515S52.931,304.503,52.931,224.138"/>
<path fill="#D65490" d="M322.993,251.191c0,64.198-55.038,116.231-122.924,116.231c-67.884,0-122.922-52.033-122.922-116.231
	c0-64.208,55.038-116.242,122.922-116.242C267.955,134.949,322.993,186.983,322.993,251.191z"/>
<path fill="#E06899" d="M69.808,236.968c-80.996,307.484-83.996-175.491,71.996-131.993
	C179.369,115.449,81.058,194.259,69.808,236.968z"/>
<path fill="#F3B673" d="M370.667,340c0,0-3.254-0.529-4.916-5.707c0,0,0.172,10.782-6.582,12.313
	C367.606,348.701,369.794,347.761,370.667,340z"/>
<path fill="#F3B673" d="M363.445,331.835l-2.884-5.668c0,0-1.458,6.66-8.938,10.393C357.12,338.085,361.354,336.831,363.445,331.835
	z"/>
<path fill="#F3B673" d="M354.875,318.244l-2.886-5.666c0,0-1.457,6.659-8.936,10.392
	C348.55,324.495,352.783,323.241,354.875,318.244z"/>
<path fill="#F3B673" d="M23.714,335.685c0,0,3.279-0.342,5.235-5.415c0,0-0.79,10.755,5.863,12.672
	C26.271,344.548,24.141,343.483,23.714,335.685z"/>
<path fill="#F3B673" d="M31.393,327.948l3.204-5.492c0,0,1.074,6.731,8.326,10.887C37.349,334.55,33.193,333.056,31.393,327.948z"/>
<path fill="#F3B673" d="M40.729,314.872l3.207-5.492c0,0,1.072,6.732,8.325,10.888C46.685,321.475,42.53,319.981,40.729,314.872z"/>
</svg>
