<?xml version="1.0" encoding="utf-8"?>
<!-- Generator: Adobe Illustrator 15.1.0, SVG Export Plug-In . SVG Version: 6.00 Build 0)  -->
<!DOCTYPE svg PUBLIC "-//W3C//DTD SVG 1.1//EN" "http://www.w3.org/Graphics/SVG/1.1/DTD/svg11.dtd">
<svg version="1.1" xmlns="http://www.w3.org/2000/svg" xmlns:xlink="http://www.w3.org/1999/xlink" x="0px" y="0px" width="400px"
	 height="400px" viewBox="0 0 400 400" enable-background="new 0 0 400 400" xml:space="preserve">
<g id="guide_lines_layer" display="none">
	<rect x="325" display="inline" fill="#FFFFFF" stroke="#000000" stroke-miterlimit="10" width="75" height="400"/>
	<rect display="inline" fill="#FFFFFF" stroke="#000000" stroke-miterlimit="10" width="75" height="400"/>
</g>
<g id="body_layer">
	<path fill="#8BCEAB" d="M73.949,0.084v46c0,0-4,30-21,37s-27,11-27,31s11,36-6,41s-14,15,0,15s25.353-13.574,26.774-25.656
		c1.963-16.688-8.344-22.576,7.853-32.883c9.972-6.346,19.142-5.4,19.142-5.4l-0.492,53.986c0,0-28.436,6.475-36.318,25.523
		c-11.779,28.463,4.969,47.215,1.042,62.43c-6.038,23.4-23.395,19.504-22.5,28c1,9.5,37.038,0.957,39-28
		c1.114-16.443-2.813-21.393-3.309-29.059c-0.981-15.215,9.325-26.994,23.067-25.52l-0.259,88.578c0,0,0.63,17.898-13.484,28.719
		c-14.724,11.287-18.649,9.814-26.013,16.688c-17.938,16.744-6.871,35.826-15.705,41.717c-14.062,9.377-15.215,21.596-2.945,16.688
		c22.105-8.844,21.777-16.334,24.541-33.375c2.943-18.158,29.606-22.436,29.606-22.436h4l0.903,70.988h111.097l7-400L73.949,0.084z"
		/>
	<path fill="#7DC6DD" d="M69.949,330.084"/>
	<circle fill="#60A37B" cx="51.117" cy="89.25" r="7.833"/>
	<circle fill="#60A37B" cx="52.117" cy="110.25" r="6.167"/>
	<circle fill="#60A37B" cx="34.45" cy="106.916" r="5.834"/>
	<circle fill="#60A37B" cx="42.95" cy="124.084" r="4.333"/>
	<circle fill="#60A37B" cx="30.283" cy="118.084" r="4.667"/>
	<circle fill="#60A37B" cx="32.95" cy="131.416" r="4"/>
	<circle fill="#60A37B" cx="44.45" cy="138.25" r="3.5"/>
	<circle fill="#60A37B" cx="33.45" cy="144.25" r="3.834"/>
	<circle fill="#60A37B" cx="40.283" cy="154.084" r="3.667"/>
	<circle fill="#60A37B" cx="27.283" cy="155.75" r="3.333"/>
	<circle fill="#60A37B" cx="31.117" cy="164.584" r="2.833"/>
	<circle fill="#60A37B" cx="17.283" cy="163.084" r="3"/>
	<circle fill="#60A37B" cx="69.95" cy="168.75" r="9"/>
	<circle fill="#60A37B" cx="58.616" cy="191.416" r="8"/>
	<circle fill="#60A37B" cx="48.783" cy="177.916" r="6.833"/>
	<circle fill="#60A37B" cx="38.117" cy="189.584" r="6.167"/>
	<circle fill="#60A37B" cx="34.95" cy="206.084" r="6.167"/>
	<circle fill="#60A37B" cx="49.45" cy="206.918" r="6.5"/>
	<circle fill="#60A37B" cx="38.45" cy="221.916" r="4.834"/>
	<circle fill="#60A37B" cx="50.283" cy="226.418" r="4"/>
	<circle fill="#60A37B" cx="42.784" cy="237.25" r="3.833"/>
	<circle fill="#60A37B" cx="51.45" cy="240.916" r="3.833"/>
	<circle fill="#60A37B" cx="41.117" cy="249.584" r="4.167"/>
	<circle fill="#60A37B" cx="43.616" cy="265.584" r="3.5"/>
	<circle fill="#60A37B" cx="36.617" cy="259.084" r="3.333"/>
	<circle fill="#60A37B" cx="51.617" cy="256.418" r="4.333"/>
	<circle fill="#60A37B" cx="32.783" cy="273.584" r="3.833"/>
	<circle fill="#60A37B" cx="63.117" cy="314.25" r="6.167"/>
	<circle fill="#60A37B" cx="52.451" cy="333.25" r="4.167"/>
	<circle fill="#60A37B" cx="52.784" cy="320.918" r="3.833"/>
	<circle fill="#60A37B" cx="40.951" cy="328.416" r="4.333"/>
	<circle fill="#60A37B" cx="26.95" cy="352.75" r="3"/>
	<circle fill="#60A37B" cx="31.784" cy="339.582" r="4.167"/>
	<circle fill="#60A37B" cx="42.45" cy="341.916" r="4.833"/>
	<circle fill="#60A37B" cx="64.617" cy="327.75" r="5.667"/>
	<circle fill="#60A37B" cx="33.45" cy="371.25" r="3.5"/>
	<circle fill="#60A37B" cx="22.784" cy="371.916" r="3.5"/>
	<circle fill="#60A37B" cx="34.45" cy="358.582" r="3.5"/>
	<circle fill="#60A37B" cx="36.45" cy="350.25" r="3.5"/>
	<circle fill="#60A37B" cx="25.284" cy="364.082" r="3"/>
	<circle fill="#60A37B" cx="19.784" cy="379.916" r="3.167"/>
	<path fill="#8BCEAB" d="M325.933,1.072l-2.941,45.012c0,0,4.405,30,23.125,37c18.721,7,29.732,11,29.732,31s-12.113,36,6.607,41
		c18.72,5,15.416,15,0,15c-15.417,0-27.919-13.574-29.484-25.656c-2.161-16.688,9.188-22.576-8.646-32.883
		c-10.982-6.346-21.078-5.4-21.078-5.4l0.541,53.986c0,0,31.313,6.475,39.993,25.523c12.972,28.463-5.47,47.215-1.146,62.43
		c6.649,23.4,25.762,19.504,24.776,28c-1.102,9.5-40.785,0.957-42.946-28c-1.228-16.443,3.099-21.393,3.644-29.059
		c1.081-15.215-10.269-26.994-25.401-25.52l0.284,88.578c0,0-0.692,17.898,14.849,28.719c16.215,11.287,20.538,9.814,28.645,16.688
		c19.755,16.744,7.566,35.826,17.295,41.717c15.486,9.377,16.754,21.596,3.242,16.688c-24.34-8.844-23.98-16.334-27.021-33.375
		c-3.244-18.158-32.604-22.436-32.604-22.436h-4.405l3.381,70.988H184.696l7.253-400H325.933z"/>
	<path fill="#7DC6DD" d="M327.396,330.084"/>
	<ellipse fill="#60A37B" cx="348.134" cy="89.25" rx="8.626" ry="7.834"/>
	<ellipse fill="#60A37B" cx="347.033" cy="110.25" rx="6.791" ry="6.166"/>
	<ellipse fill="#60A37B" cx="366.487" cy="106.916" rx="6.423" ry="5.834"/>
	<ellipse fill="#60A37B" cx="357.127" cy="124.084" rx="4.771" ry="4.332"/>
	<ellipse fill="#60A37B" cx="371.075" cy="118.084" rx="5.139" ry="4.666"/>
	<ellipse fill="#60A37B" cx="368.139" cy="131.416" rx="4.405" ry="4"/>
	<ellipse fill="#60A37B" cx="355.476" cy="138.25" rx="3.854" ry="3.5"/>
	<ellipse fill="#60A37B" cx="367.588" cy="144.25" rx="4.221" ry="3.834"/>
	<ellipse fill="#60A37B" cx="360.063" cy="154.084" rx="4.038" ry="3.666"/>
	<ellipse fill="#60A37B" cx="374.379" cy="155.75" rx="3.671" ry="3.332"/>
	<ellipse fill="#60A37B" cx="370.158" cy="164.584" rx="3.12" ry="2.834"/>
	<ellipse fill="#60A37B" cx="385.392" cy="163.084" rx="3.304" ry="3"/>
	<ellipse fill="#60A37B" cx="327.395" cy="168.75" rx="9.911" ry="9"/>
	<ellipse fill="#60A37B" cx="339.875" cy="191.416" rx="8.81" ry="8"/>
	<ellipse fill="#60A37B" cx="350.704" cy="177.916" rx="7.525" ry="6.834"/>
	<ellipse fill="#60A37B" cx="362.45" cy="189.584" rx="6.791" ry="6.166"/>
	<ellipse fill="#60A37B" cx="365.937" cy="206.084" rx="6.791" ry="6.168"/>
	<ellipse fill="#60A37B" cx="349.969" cy="206.918" rx="7.158" ry="6.5"/>
	<ellipse fill="#60A37B" cx="362.083" cy="221.916" rx="5.322" ry="4.834"/>
	<ellipse fill="#60A37B" cx="349.052" cy="226.418" rx="4.405" ry="4"/>
	<ellipse fill="#60A37B" cx="357.311" cy="237.25" rx="4.222" ry="3.834"/>
	<ellipse fill="#60A37B" cx="347.767" cy="240.916" rx="4.221" ry="3.834"/>
	<ellipse fill="#60A37B" cx="359.146" cy="249.584" rx="4.589" ry="4.168"/>
	<ellipse fill="#60A37B" cx="356.393" cy="265.584" rx="3.854" ry="3.5"/>
	<ellipse fill="#60A37B" cx="364.102" cy="259.084" rx="3.671" ry="3.334"/>
	<ellipse fill="#60A37B" cx="347.584" cy="256.418" rx="4.771" ry="4.332"/>
	<ellipse fill="#60A37B" cx="368.323" cy="273.584" rx="4.221" ry="3.834"/>
	<ellipse fill="#60A37B" cx="334.921" cy="314.25" rx="6.791" ry="6.168"/>
	<ellipse fill="#60A37B" cx="346.666" cy="333.25" rx="4.588" ry="4.166"/>
	<ellipse fill="#60A37B" cx="346.299" cy="320.918" rx="4.222" ry="3.832"/>
	<ellipse fill="#60A37B" cx="359.33" cy="328.416" rx="4.771" ry="4.334"/>
	<ellipse fill="#60A37B" cx="374.746" cy="352.75" rx="3.304" ry="3"/>
	<ellipse fill="#60A37B" cx="369.424" cy="339.582" rx="4.588" ry="4.168"/>
	<ellipse fill="#60A37B" cx="357.678" cy="341.916" rx="5.322" ry="4.834"/>
	<ellipse fill="#60A37B" cx="333.268" cy="327.75" rx="6.239" ry="5.666"/>
	<ellipse fill="#60A37B" cx="367.588" cy="371.25" rx="3.854" ry="3.5"/>
	<ellipse fill="#60A37B" cx="379.335" cy="371.916" rx="3.854" ry="3.5"/>
	<ellipse fill="#60A37B" cx="366.487" cy="358.582" rx="3.854" ry="3.5"/>
	<ellipse fill="#60A37B" cx="364.285" cy="350.25" rx="3.854" ry="3.5"/>
	<ellipse fill="#60A37B" cx="376.582" cy="364.082" rx="3.304" ry="3"/>
	<ellipse fill="#60A37B" cx="382.638" cy="379.916" rx="3.487" ry="3.166"/>
	<path fill="#72C596" d="M299.282,196.096c0,99.408-43.169,179.988-96.417,179.988s-96.417-80.58-96.417-179.988
		c0-99.43,43.169-180.012,96.417-180.012S299.282,96.666,299.282,196.096z"/>
</g>
<g id="face_layer" display="none">
</g>
</svg>
