<?xml version="1.0" encoding="utf-8"?>
<!-- Generator: Adobe Illustrator 15.1.0, SVG Export Plug-In . SVG Version: 6.00 Build 0)  -->
<!DOCTYPE svg PUBLIC "-//W3C//DTD SVG 1.1//EN" "http://www.w3.org/Graphics/SVG/1.1/DTD/svg11.dtd">
<svg version="1.1" xmlns="http://www.w3.org/2000/svg" xmlns:xlink="http://www.w3.org/1999/xlink" x="0px" y="0px" width="400px"
	 height="400px" viewBox="0 0 400 400" enable-background="new 0 0 400 400" xml:space="preserve">
<g id="guide_lines_layer" display="none">
	<rect x="0.75" y="2.999" display="inline" fill="#FFFFFF" stroke="#000000" stroke-miterlimit="10" width="75" height="400"/>
	<rect x="325" y="-1" display="inline" fill="#FFFFFF" stroke="#000000" stroke-miterlimit="10" width="75" height="400"/>
</g>
<g id="body_layer">
	<path fill="#7DC6DD" d="M75-0.988v46c0,0-4,30-21,37s-27,11-27,31s11,36-6,41s-14,15,0,15s25.353-13.575,26.774-25.657
		c1.963-16.687-8.344-22.576,7.853-32.883c9.972-6.346,19.141-5.399,19.141-5.399l-0.492,53.985c0,0-28.436,6.475-36.318,25.523
		c-11.779,28.464,4.968,47.216,1.042,62.431c-6.039,23.4-23.395,19.503-22.5,28c1,9.5,37.038,0.956,39-28
		c1.114-16.443-2.814-21.393-3.309-29.06c-0.982-15.214,9.325-26.993,23.067-25.519L75,281.012c0,0,0.629,17.897-13.484,28.718
		c-14.724,11.288-18.65,9.815-26.012,16.688c-17.939,16.744-6.871,35.827-15.706,41.718c-14.062,9.377-15.214,21.595-2.945,16.687
		c22.104-8.843,21.777-16.334,24.54-33.374C44.337,333.288,71,329.012,71,329.012h4L75.903,400H187l7-400L75-0.988z"/>
	<path fill="#7DC6DD" d="M71,329.012"/>
	<circle fill="#36A1BA" cx="52.167" cy="88.178" r="7.833"/>
	<circle fill="#36A1BA" cx="53.167" cy="109.178" r="6.167"/>
	<circle fill="#36A1BA" cx="35.501" cy="105.844" r="5.833"/>
	<circle fill="#36A1BA" cx="44.001" cy="123.011" r="4.333"/>
	<circle fill="#36A1BA" cx="31.334" cy="117.011" r="4.667"/>
	<circle fill="#36A1BA" cx="34.001" cy="130.344" r="4"/>
	<circle fill="#36A1BA" cx="45.501" cy="137.178" r="3.5"/>
	<circle fill="#36A1BA" cx="34.501" cy="143.178" r="3.833"/>
	<circle fill="#36A1BA" cx="41.334" cy="153.011" r="3.667"/>
	<circle fill="#36A1BA" cx="28.334" cy="154.677" r="3.333"/>
	<circle fill="#36A1BA" cx="32.167" cy="163.512" r="2.833"/>
	<circle fill="#36A1BA" cx="18.334" cy="162.011" r="3"/>
	<circle fill="#36A1BA" cx="71.001" cy="167.678" r="9"/>
	<circle fill="#36A1BA" cx="59.667" cy="190.344" r="8"/>
	<circle fill="#36A1BA" cx="49.834" cy="176.844" r="6.833"/>
	<circle fill="#36A1BA" cx="39.167" cy="188.511" r="6.167"/>
	<circle fill="#36A1BA" cx="36.001" cy="205.012" r="6.167"/>
	<circle fill="#36A1BA" cx="50.501" cy="205.845" r="6.5"/>
	<circle fill="#36A1BA" cx="39.501" cy="220.844" r="4.833"/>
	<circle fill="#36A1BA" cx="51.334" cy="225.345" r="4"/>
	<circle fill="#36A1BA" cx="43.834" cy="236.178" r="3.833"/>
	<circle fill="#36A1BA" cx="52.501" cy="239.844" r="3.833"/>
	<circle fill="#36A1BA" cx="42.168" cy="248.512" r="4.167"/>
	<circle fill="#36A1BA" cx="44.667" cy="264.512" r="3.5"/>
	<circle fill="#36A1BA" cx="37.668" cy="258.012" r="3.333"/>
	<circle fill="#36A1BA" cx="52.667" cy="255.345" r="4.333"/>
	<circle fill="#36A1BA" cx="33.834" cy="272.512" r="3.833"/>
	<circle fill="#36A1BA" cx="64.167" cy="313.178" r="6.167"/>
	<circle fill="#36A1BA" cx="53.501" cy="332.177" r="4.167"/>
	<circle fill="#36A1BA" cx="53.834" cy="319.845" r="3.833"/>
	<circle fill="#36A1BA" cx="42.001" cy="327.344" r="4.333"/>
	<circle fill="#36A1BA" cx="28.001" cy="351.677" r="3"/>
	<circle fill="#36A1BA" cx="32.834" cy="338.51" r="4.167"/>
	<circle fill="#36A1BA" cx="43.501" cy="340.844" r="4.833"/>
	<circle fill="#36A1BA" cx="65.668" cy="326.677" r="5.667"/>
	<circle fill="#36A1BA" cx="34.501" cy="370.177" r="3.5"/>
	<circle fill="#36A1BA" cx="23.834" cy="370.844" r="3.5"/>
	<circle fill="#36A1BA" cx="35.501" cy="357.51" r="3.5"/>
	<circle fill="#36A1BA" cx="37.501" cy="349.177" r="3.5"/>
	<circle fill="#36A1BA" cx="26.334" cy="363.01" r="3"/>
	<circle fill="#36A1BA" cx="20.834" cy="378.844" r="3.167"/>
	<path fill="#7DC6DD" d="M324.983,0l-0.941,45.012c0,0,4.405,30,23.125,37c18.721,7,29.732,11,29.732,31s-12.113,36,6.607,41
		c18.72,5,15.416,15,0,15c-15.417,0-27.919-13.575-29.484-25.657c-2.161-16.687,9.188-22.576-8.646-32.883
		c-10.982-6.346-21.078-5.399-21.078-5.399l0.541,53.985c0,0,31.313,6.475,39.993,25.523c12.972,28.464-5.47,47.216-1.146,62.431
		c6.649,23.4,25.762,19.503,24.776,28c-1.102,9.5-40.785,0.956-42.946-28c-1.228-16.443,3.099-21.393,3.644-29.06
		c1.081-15.214-10.269-26.993-25.401-25.519l0.284,88.578c0,0-0.692,17.897,14.849,28.718c16.215,11.288,20.538,9.815,28.645,16.688
		c19.755,16.744,7.566,35.827,17.295,41.718c15.486,9.377,16.754,21.595,3.242,16.687c-24.34-8.843-23.98-16.334-27.021-33.374
		c-3.244-18.159-32.604-22.436-32.604-22.436h-4.405L325.423,400H185.747L193,0H324.983z"/>
	<path fill="#7DC6DD" d="M328.447,329.012"/>
	<ellipse fill="#36A1BA" cx="349.185" cy="88.178" rx="8.626" ry="7.833"/>
	<ellipse fill="#36A1BA" cx="348.083" cy="109.178" rx="6.791" ry="6.166"/>
	<ellipse fill="#36A1BA" cx="367.538" cy="105.844" rx="6.423" ry="5.834"/>
	<ellipse fill="#36A1BA" cx="358.178" cy="123.011" rx="4.771" ry="4.333"/>
	<ellipse fill="#36A1BA" cx="372.126" cy="117.011" rx="5.139" ry="4.667"/>
	<ellipse fill="#36A1BA" cx="369.19" cy="130.344" rx="4.405" ry="4"/>
	<ellipse fill="#36A1BA" cx="356.526" cy="137.178" rx="3.854" ry="3.5"/>
	<ellipse fill="#36A1BA" cx="368.639" cy="143.178" rx="4.221" ry="3.833"/>
	<ellipse fill="#36A1BA" cx="361.114" cy="153.011" rx="4.038" ry="3.667"/>
	<ellipse fill="#36A1BA" cx="375.43" cy="154.677" rx="3.671" ry="3.333"/>
	<ellipse fill="#36A1BA" cx="371.209" cy="163.512" rx="3.12" ry="2.833"/>
	<ellipse fill="#36A1BA" cx="386.442" cy="162.011" rx="3.304" ry="3"/>
	<ellipse fill="#36A1BA" cx="328.446" cy="167.678" rx="9.911" ry="9"/>
	<ellipse fill="#36A1BA" cx="340.926" cy="190.344" rx="8.81" ry="8"/>
	<ellipse fill="#36A1BA" cx="351.754" cy="176.844" rx="7.525" ry="6.834"/>
	<ellipse fill="#36A1BA" cx="363.501" cy="188.511" rx="6.791" ry="6.167"/>
	<ellipse fill="#36A1BA" cx="366.987" cy="205.012" rx="6.791" ry="6.167"/>
	<ellipse fill="#36A1BA" cx="351.02" cy="205.845" rx="7.158" ry="6.5"/>
	<ellipse fill="#36A1BA" cx="363.133" cy="220.844" rx="5.322" ry="4.834"/>
	<ellipse fill="#36A1BA" cx="350.103" cy="225.345" rx="4.405" ry="4"/>
	<ellipse fill="#36A1BA" cx="358.361" cy="236.178" rx="4.222" ry="3.833"/>
	<ellipse fill="#36A1BA" cx="348.818" cy="239.844" rx="4.221" ry="3.834"/>
	<ellipse fill="#36A1BA" cx="360.196" cy="248.512" rx="4.589" ry="4.167"/>
	<ellipse fill="#36A1BA" cx="357.444" cy="264.512" rx="3.854" ry="3.5"/>
	<ellipse fill="#36A1BA" cx="365.152" cy="258.012" rx="3.671" ry="3.334"/>
	<ellipse fill="#36A1BA" cx="348.635" cy="255.345" rx="4.771" ry="4.333"/>
	<ellipse fill="#36A1BA" cx="369.374" cy="272.512" rx="4.221" ry="3.834"/>
	<ellipse fill="#36A1BA" cx="335.972" cy="313.178" rx="6.791" ry="6.167"/>
	<ellipse fill="#36A1BA" cx="347.716" cy="332.177" rx="4.588" ry="4.166"/>
	<ellipse fill="#36A1BA" cx="347.35" cy="319.845" rx="4.222" ry="3.833"/>
	<ellipse fill="#36A1BA" cx="360.381" cy="327.344" rx="4.771" ry="4.334"/>
	<ellipse fill="#36A1BA" cx="375.797" cy="351.677" rx="3.304" ry="3"/>
	<ellipse fill="#36A1BA" cx="370.475" cy="338.51" rx="4.588" ry="4.167"/>
	<ellipse fill="#36A1BA" cx="358.729" cy="340.844" rx="5.322" ry="4.833"/>
	<ellipse fill="#36A1BA" cx="334.318" cy="326.677" rx="6.239" ry="5.666"/>
	<ellipse fill="#36A1BA" cx="368.639" cy="370.177" rx="3.854" ry="3.5"/>
	<ellipse fill="#36A1BA" cx="380.386" cy="370.844" rx="3.854" ry="3.5"/>
	<ellipse fill="#36A1BA" cx="367.538" cy="357.51" rx="3.854" ry="3.5"/>
	<ellipse fill="#36A1BA" cx="365.335" cy="349.177" rx="3.854" ry="3.5"/>
	<ellipse fill="#36A1BA" cx="377.633" cy="363.01" rx="3.304" ry="3"/>
	<ellipse fill="#36A1BA" cx="383.689" cy="378.844" rx="3.487" ry="3.166"/>
	<path fill="#52BFD1" d="M300.333,195.023c0,99.408-43.169,179.988-96.417,179.988S107.5,294.432,107.5,195.023
		c0-99.43,43.168-180.012,96.417-180.012S300.333,95.594,300.333,195.023z"/>
</g>
<g id="face_layer" display="none">
</g>
</svg>
