<?xml version="1.0" encoding="utf-8"?>
<!-- Generator: Adobe Illustrator 15.1.0, SVG Export Plug-In . SVG Version: 6.00 Build 0)  -->
<!DOCTYPE svg PUBLIC "-//W3C//DTD SVG 1.1//EN" "http://www.w3.org/Graphics/SVG/1.1/DTD/svg11.dtd">
<svg version="1.1" xmlns="http://www.w3.org/2000/svg" xmlns:xlink="http://www.w3.org/1999/xlink" x="0px" y="0px" width="400px"
	 height="400px" viewBox="0 0 400 400" enable-background="new 0 0 400 400" xml:space="preserve">
<g id="guide_lines_layer" display="none">
	<rect x="0.75" y="2.999" display="inline" fill="#FFFFFF" stroke="#000000" stroke-miterlimit="10" width="75" height="400"/>
	<rect x="325" y="-1" display="inline" fill="#FFFFFF" stroke="#000000" stroke-miterlimit="10" width="75" height="400"/>
	<rect x="325" y="-403.989" display="inline" fill="#FFFFFF" stroke="#000000" stroke-miterlimit="10" width="75" height="400"/>
	<rect x="0.75" y="-403.989" display="inline" fill="#FFFFFF" stroke="#000000" stroke-miterlimit="10" width="75" height="400"/>
	
		<rect x="460.059" y="-408.489" display="inline" fill="#FFFFFF" stroke="#000000" stroke-miterlimit="10" width="75" height="400"/>
	
		<rect x="785.059" y="-409.489" display="inline" fill="#FFFFFF" stroke="#000000" stroke-miterlimit="10" width="75" height="400"/>
	<rect x="785.058" y="-1.454" display="inline" fill="#FFFFFF" stroke="#000000" stroke-miterlimit="10" width="75" height="400"/>
	<rect x="460.058" y="-1.454" display="inline" fill="#FFFFFF" stroke="#000000" stroke-miterlimit="10" width="75" height="400"/>
	<rect x="0.75" y="404.564" display="inline" fill="#FFFFFF" stroke="#000000" stroke-miterlimit="10" width="75" height="400"/>
	<rect x="325" y="404.564" display="inline" fill="#FFFFFF" stroke="#000000" stroke-miterlimit="10" width="75" height="400"/>
	<rect x="786.558" y="404.564" display="inline" fill="#FFFFFF" stroke="#000000" stroke-miterlimit="10" width="75" height="400"/>
	<rect x="461.558" y="404.564" display="inline" fill="#FFFFFF" stroke="#000000" stroke-miterlimit="10" width="75" height="400"/>
	
		<rect x="916.333" y="-407.322" display="inline" fill="#FFFFFF" stroke="#000000" stroke-miterlimit="10" width="75" height="400"/>
	
		<rect x="1241.333" y="-407.322" display="inline" fill="#FFFFFF" stroke="#000000" stroke-miterlimit="10" width="75" height="399.999"/>
	<rect x="1240" y="6.011" display="inline" fill="#FFFFFF" stroke="#000000" stroke-miterlimit="10" width="75" height="400"/>
	<rect x="915" y="6.011" display="inline" fill="#FFFFFF" stroke="#000000" stroke-miterlimit="10" width="75" height="400"/>
	
		<rect x="1241.333" y="413.011" display="inline" fill="#FFFFFF" stroke="#000000" stroke-miterlimit="10" width="75" height="400"/>
	<rect x="916.333" y="414.011" display="inline" fill="#FFFFFF" stroke="#000000" stroke-miterlimit="10" width="75" height="400"/>
	
		<rect x="1389.605" y="-407.958" display="inline" fill="#FFFFFF" stroke="#000000" stroke-miterlimit="10" width="75" height="400"/>
	
		<rect x="1714.605" y="-407.958" display="inline" fill="#FFFFFF" stroke="#000000" stroke-miterlimit="10" width="75" height="399.999"/>
	<rect x="1713.272" y="7.011" display="inline" fill="#FFFFFF" stroke="#000000" stroke-miterlimit="10" width="75" height="400"/>
	<rect x="1389" y="7.011" display="inline" fill="#FFFFFF" stroke="#000000" stroke-miterlimit="10" width="75" height="400"/>
	
		<rect x="1713.272" y="412.375" display="inline" fill="#FFFFFF" stroke="#000000" stroke-miterlimit="10" width="75" height="400"/>
	
		<rect x="1388.272" y="413.375" display="inline" fill="#FFFFFF" stroke="#000000" stroke-miterlimit="10" width="75" height="400"/>
</g>
<g id="body_layer">
	<path fill="#DBCD7D" d="M1511.335-270.322c0,0-63.33-68.667-118.667-8.667c62.715-18,76.856-2,88.539,29.334
		C1492.509-219.345,1511.335-270.322,1511.335-270.322z"/>
	<path fill="#DBCD7D" d="M1656-268.322c0,0,63.33-68.667,118.667-8.667c-62.715-18-76.856-2-88.539,29.333
		C1674.826-217.345,1656-268.322,1656-268.322z"/>
	<path fill="#7DC6DD" d="M75.667-6.987c-2.883-20-6.001-94.502-1.501-143.002c3.743-40.334,17.835-96.814,42.335-118.185
		c3.563-3.109-30.615-46.477-26.834-49.162c3.812-2.707,45.584,35.273,49.586,33.007c14.496-8.207,30.145-13.495,46.222-15.626
		c5.358-0.71,10.294-53.233,15.722-53.233c6.436,0,13.158,52.65,19.217,53.576c18.174,2.776,34.613,9.508,49.126,18.933
		c2.902,1.885,44.048-32.705,46.795-30.614c3.355,2.554-31.726,41.835-28.608,44.662c29.753,26.976,31.94,73.644,35.44,119.144
		c2.627,34.148,4.752,126.445,1.92,140.279L75.667-6.987z"/>
	<path fill="#79C2EA" stroke="#FFFFFF" stroke-miterlimit="10" d="M-224-200.989"/>
	<path fill="#7DC6DD" d="M75-0.988v46c0,0-4,30-21,37s-27,11-27,31s11,36-6,41s-14,15,0,15s25.353-13.575,26.774-25.657
		c1.963-16.687-8.344-22.576,7.853-32.883c9.972-6.346,19.141-5.399,19.141-5.399l-0.492,53.985c0,0-28.436,6.475-36.318,25.523
		c-11.779,28.464,4.968,47.216,1.042,62.431c-6.039,23.4-23.395,19.503-22.5,28c1,9.5,37.038,0.956,39-28
		c1.114-16.443-2.814-21.393-3.309-29.06c-0.982-15.214,9.325-26.993,23.067-25.519L75,281.012c0,0,0.629,17.897-13.484,28.718
		c-14.724,11.288-18.65,9.815-26.012,16.688c-17.939,16.744-6.871,35.827-15.706,41.718c-14.062,9.377-15.214,21.595-2.945,16.687
		c22.104-8.843,21.777-16.334,24.54-33.374C44.337,333.288,71,329.012,71,329.012h4L75.903,400H187l7-400L75-0.988z"/>
	<path fill="#7DC6DD" d="M71,329.012"/>
	<circle fill="#36A1BA" cx="52.167" cy="88.178" r="7.833"/>
	<circle fill="#36A1BA" cx="53.167" cy="109.178" r="6.167"/>
	<circle fill="#36A1BA" cx="35.501" cy="105.844" r="5.833"/>
	<circle fill="#36A1BA" cx="44.001" cy="123.011" r="4.333"/>
	<circle fill="#36A1BA" cx="31.334" cy="117.011" r="4.667"/>
	<circle fill="#36A1BA" cx="34.001" cy="130.344" r="4"/>
	<circle fill="#36A1BA" cx="45.501" cy="137.178" r="3.5"/>
	<circle fill="#36A1BA" cx="34.501" cy="143.178" r="3.833"/>
	<circle fill="#36A1BA" cx="41.334" cy="153.011" r="3.667"/>
	<circle fill="#36A1BA" cx="28.334" cy="154.677" r="3.333"/>
	<circle fill="#36A1BA" cx="32.167" cy="163.512" r="2.833"/>
	<circle fill="#36A1BA" cx="18.334" cy="162.011" r="3"/>
	<circle fill="#36A1BA" cx="71.001" cy="167.678" r="9"/>
	<circle fill="#36A1BA" cx="59.667" cy="190.344" r="8"/>
	<circle fill="#36A1BA" cx="49.834" cy="176.844" r="6.833"/>
	<circle fill="#36A1BA" cx="39.167" cy="188.511" r="6.167"/>
	<circle fill="#36A1BA" cx="36.001" cy="205.012" r="6.167"/>
	<circle fill="#36A1BA" cx="50.501" cy="205.845" r="6.5"/>
	<circle fill="#36A1BA" cx="39.501" cy="220.844" r="4.833"/>
	<circle fill="#36A1BA" cx="51.334" cy="225.345" r="4"/>
	<circle fill="#36A1BA" cx="43.834" cy="236.178" r="3.833"/>
	<circle fill="#36A1BA" cx="52.501" cy="239.844" r="3.833"/>
	<circle fill="#36A1BA" cx="42.168" cy="248.512" r="4.167"/>
	<circle fill="#36A1BA" cx="44.667" cy="264.512" r="3.5"/>
	<circle fill="#36A1BA" cx="37.668" cy="258.012" r="3.333"/>
	<circle fill="#36A1BA" cx="52.667" cy="255.345" r="4.333"/>
	<circle fill="#36A1BA" cx="33.834" cy="272.512" r="3.833"/>
	<circle fill="#36A1BA" cx="64.167" cy="313.178" r="6.167"/>
	<circle fill="#36A1BA" cx="53.501" cy="332.177" r="4.167"/>
	<circle fill="#36A1BA" cx="53.834" cy="319.845" r="3.833"/>
	<circle fill="#36A1BA" cx="42.001" cy="327.344" r="4.333"/>
	<circle fill="#36A1BA" cx="28.001" cy="351.677" r="3"/>
	<circle fill="#36A1BA" cx="32.834" cy="338.51" r="4.167"/>
	<circle fill="#36A1BA" cx="43.501" cy="340.844" r="4.833"/>
	<circle fill="#36A1BA" cx="65.668" cy="326.677" r="5.667"/>
	<circle fill="#36A1BA" cx="34.501" cy="370.177" r="3.5"/>
	<circle fill="#36A1BA" cx="23.834" cy="370.844" r="3.5"/>
	<circle fill="#36A1BA" cx="35.501" cy="357.51" r="3.5"/>
	<circle fill="#36A1BA" cx="37.501" cy="349.177" r="3.5"/>
	<circle fill="#36A1BA" cx="26.334" cy="363.01" r="3"/>
	<circle fill="#36A1BA" cx="20.834" cy="378.844" r="3.167"/>
	<path fill="#7DC6DD" d="M324.983,0l-0.941,45.012c0,0,4.405,30,23.125,37c18.721,7,29.732,11,29.732,31s-12.113,36,6.607,41
		c18.72,5,15.416,15,0,15c-15.417,0-27.919-13.575-29.484-25.657c-2.161-16.687,9.188-22.576-8.646-32.883
		c-10.982-6.346-21.078-5.399-21.078-5.399l0.541,53.985c0,0,31.313,6.475,39.993,25.523c12.972,28.464-5.47,47.216-1.146,62.431
		c6.649,23.4,25.762,19.503,24.776,28c-1.102,9.5-40.785,0.956-42.946-28c-1.228-16.443,3.099-21.393,3.644-29.06
		c1.081-15.214-10.269-26.993-25.401-25.519l0.284,88.578c0,0-0.692,17.897,14.849,28.718c16.215,11.288,20.538,9.815,28.645,16.688
		c19.755,16.744,7.566,35.827,17.295,41.718c15.486,9.377,16.754,21.595,3.242,16.687c-24.34-8.843-23.98-16.334-27.021-33.374
		c-3.244-18.159-32.604-22.436-32.604-22.436h-4.405L325.423,400H185.747L193,0H324.983z"/>
	<path fill="#7DC6DD" d="M328.447,329.012"/>
	<ellipse fill="#36A1BA" cx="349.185" cy="88.178" rx="8.626" ry="7.833"/>
	<ellipse fill="#36A1BA" cx="348.083" cy="109.178" rx="6.791" ry="6.166"/>
	<ellipse fill="#36A1BA" cx="367.538" cy="105.844" rx="6.423" ry="5.834"/>
	<ellipse fill="#36A1BA" cx="358.178" cy="123.011" rx="4.771" ry="4.333"/>
	<ellipse fill="#36A1BA" cx="372.126" cy="117.011" rx="5.139" ry="4.667"/>
	<ellipse fill="#36A1BA" cx="369.19" cy="130.344" rx="4.405" ry="4"/>
	<ellipse fill="#36A1BA" cx="356.526" cy="137.178" rx="3.854" ry="3.5"/>
	<ellipse fill="#36A1BA" cx="368.639" cy="143.178" rx="4.221" ry="3.833"/>
	<ellipse fill="#36A1BA" cx="361.114" cy="153.011" rx="4.038" ry="3.667"/>
	<ellipse fill="#36A1BA" cx="375.43" cy="154.677" rx="3.671" ry="3.333"/>
	<ellipse fill="#36A1BA" cx="371.209" cy="163.512" rx="3.12" ry="2.833"/>
	<ellipse fill="#36A1BA" cx="386.442" cy="162.011" rx="3.304" ry="3"/>
	<ellipse fill="#36A1BA" cx="328.446" cy="167.678" rx="9.911" ry="9"/>
	<ellipse fill="#36A1BA" cx="340.926" cy="190.344" rx="8.81" ry="8"/>
	<ellipse fill="#36A1BA" cx="351.754" cy="176.844" rx="7.525" ry="6.834"/>
	<ellipse fill="#36A1BA" cx="363.501" cy="188.511" rx="6.791" ry="6.167"/>
	<ellipse fill="#36A1BA" cx="366.987" cy="205.012" rx="6.791" ry="6.167"/>
	<ellipse fill="#36A1BA" cx="351.02" cy="205.845" rx="7.158" ry="6.5"/>
	<ellipse fill="#36A1BA" cx="363.133" cy="220.844" rx="5.322" ry="4.834"/>
	<ellipse fill="#36A1BA" cx="350.103" cy="225.345" rx="4.405" ry="4"/>
	<ellipse fill="#36A1BA" cx="358.361" cy="236.178" rx="4.222" ry="3.833"/>
	<ellipse fill="#36A1BA" cx="348.818" cy="239.844" rx="4.221" ry="3.834"/>
	<ellipse fill="#36A1BA" cx="360.196" cy="248.512" rx="4.589" ry="4.167"/>
	<ellipse fill="#36A1BA" cx="357.444" cy="264.512" rx="3.854" ry="3.5"/>
	<ellipse fill="#36A1BA" cx="365.152" cy="258.012" rx="3.671" ry="3.334"/>
	<ellipse fill="#36A1BA" cx="348.635" cy="255.345" rx="4.771" ry="4.333"/>
	<ellipse fill="#36A1BA" cx="369.374" cy="272.512" rx="4.221" ry="3.834"/>
	<ellipse fill="#36A1BA" cx="335.972" cy="313.178" rx="6.791" ry="6.167"/>
	<ellipse fill="#36A1BA" cx="347.716" cy="332.177" rx="4.588" ry="4.166"/>
	<ellipse fill="#36A1BA" cx="347.35" cy="319.845" rx="4.222" ry="3.833"/>
	<ellipse fill="#36A1BA" cx="360.381" cy="327.344" rx="4.771" ry="4.334"/>
	<ellipse fill="#36A1BA" cx="375.797" cy="351.677" rx="3.304" ry="3"/>
	<ellipse fill="#36A1BA" cx="370.475" cy="338.51" rx="4.588" ry="4.167"/>
	<ellipse fill="#36A1BA" cx="358.729" cy="340.844" rx="5.322" ry="4.833"/>
	<ellipse fill="#36A1BA" cx="334.318" cy="326.677" rx="6.239" ry="5.666"/>
	<ellipse fill="#36A1BA" cx="368.639" cy="370.177" rx="3.854" ry="3.5"/>
	<ellipse fill="#36A1BA" cx="380.386" cy="370.844" rx="3.854" ry="3.5"/>
	<ellipse fill="#36A1BA" cx="367.538" cy="357.51" rx="3.854" ry="3.5"/>
	<ellipse fill="#36A1BA" cx="365.335" cy="349.177" rx="3.854" ry="3.5"/>
	<ellipse fill="#36A1BA" cx="377.633" cy="363.01" rx="3.304" ry="3"/>
	<ellipse fill="#36A1BA" cx="383.689" cy="378.844" rx="3.487" ry="3.166"/>
	<path fill="#52BFD1" d="M300.333,195.023c0,99.408-43.169,179.988-96.417,179.988S107.5,294.432,107.5,195.023
		c0-99.43,43.168-180.012,96.417-180.012S300.333,95.594,300.333,195.023z"/>
	<path fill="#52BFD1" d="M318.332-151.985c0,19.33-16.977,34.998-37.917,34.998c-20.939,0-37.916-15.668-37.916-34.998
		c0-19.334,16.977-35.002,37.916-35.002C301.355-186.987,318.332-171.319,318.332-151.985z"/>
	<path fill="#52BFD1" d="M162.332-148.985c0,19.33-16.977,34.998-37.917,34.998c-20.939,0-37.916-15.668-37.916-34.998
		c0-19.334,16.977-35.002,37.916-35.002C145.355-183.987,162.332-168.319,162.332-148.985z"/>
	<g>
		<g>
			<path fill="#7DC6DD" d="M119.608-286.995c0.65,0,2.082-0.987,0.781-0.987C119.739-287.982,118.308-286.995,119.608-286.995
				L119.608-286.995z"/>
		</g>
	</g>
	<g>
		<g>
			<path fill="none" stroke="#F2E4D2" stroke-miterlimit="10" d="M286.499-286.489"/>
		</g>
	</g>
	<g>
		<g>
			<path fill="none" stroke="#F2E4D2" stroke-miterlimit="10" d="M198.499-287.489"/>
		</g>
	</g>
	<path fill="#6FC5D8" d="M326.477,404.564l2.023,127.449c-2.206,25.478,41-4,41,29c0,32.062-120,28-119,14
		c0.778-10.892-6-128-59-122c-32.804,3.714-43.046,125.093-45,129c-3,6-115,30-117-12c-1.813-38.075,46,0,44.168-36.008
		c0,0,2.881-125.732,3.77-129.441H326.477z"/>
	<path fill="#D6C370" d="M32.509,558.41c0,0-4.187,4.983-2.193,10.965c0,0-12.559-7.376-16.347,0.996
		C13.57,558.809,22.342,557.413,32.509,558.41z"/>
	<path fill="#D6C370" d="M32.31,571.368c0,0-0.199,4.386,5.98,7.975c0,0-13.755-3.189-17.543,5.183
		C20.349,572.963,22.143,570.371,32.31,571.368z"/>
	<path fill="#D6C370" d="M39.584,582.071l7.841,2.83c0,0-8.394,3.072-11.97,13.587C32.548,591.496,33.456,585.693,39.584,582.071z"
		/>
	<path fill="#D6C370" d="M365.257,548.41c0,0,4.069,4.983,2.131,10.965c0,0,12.207-7.376,15.89,0.996
		C383.664,548.809,375.139,547.413,365.257,548.41z"/>
	<path fill="#D6C370" d="M365.45,561.368c0,0,0.193,4.386-5.812,7.975c0,0,13.369-3.189,17.051,5.183
		C377.076,562.963,375.332,560.371,365.45,561.368z"/>
	<path fill="#D6C370" d="M358.38,572.071l-7.621,2.83c0,0,8.158,3.072,11.634,13.587
		C365.218,581.496,364.336,575.693,358.38,572.071z"/>
	<path fill="#52BFD1" d="M77.483,411.99c0,0,139.461,50.713-3.888,123.271L77.483,411.99z"/>
	<path fill="#52BFD1" d="M326.763,409.518c0,0-124.187,45.307,1.429,119.307L326.763,409.518z"/>
	<path fill="#8BCEAB" d="M533.175-8.868c-2.881-20-6-94.502-1.5-143.002c3.742-40.336,17.835-96.814,42.335-118.185
		c3.563-3.109-30.614-46.478-26.833-49.163c3.811-2.707,45.583,35.274,49.586,33.009c14.496-8.207,30.144-13.496,46.221-15.628
		c5.359-0.709,10.294-53.232,15.722-53.232c6.436,0,13.158,52.648,19.217,53.574c18.174,2.778,34.613,9.509,49.126,18.935
		c2.902,1.885,44.048-32.706,46.795-30.616c3.355,2.555-31.726,41.837-28.608,44.663c29.753,26.976,31.94,73.642,35.44,119.144
		c2.627,34.148,4.752,126.445,1.92,140.279L533.175-8.868z"/>
	<path fill="#8BCEAB" d="M534.007-1.37v46c0,0-4,30-21,37s-27,11-27,31s11,36-6,41s-14,15,0,15s25.353-13.574,26.774-25.656
		c1.963-16.688-8.344-22.576,7.853-32.883c9.972-6.346,19.142-5.4,19.142-5.4l-0.492,53.986c0,0-28.436,6.475-36.318,25.523
		c-11.779,28.463,4.969,47.215,1.042,62.43c-6.038,23.4-23.395,19.504-22.5,28c1,9.5,37.038,0.957,39-28
		c1.114-16.443-2.813-21.393-3.309-29.059c-0.981-15.215,9.325-26.994,23.067-25.52l-0.259,88.578c0,0,0.63,17.898-13.484,28.719
		c-14.724,11.287-18.649,9.814-26.013,16.688c-17.938,16.744-6.871,35.826-15.705,41.717c-14.062,9.377-15.215,21.596-2.945,16.688
		c22.105-8.844,21.777-16.334,24.541-33.375c2.943-18.158,29.606-22.436,29.606-22.436h4l0.903,70.988h111.097l7-400L534.007-1.37z"
		/>
	<path fill="#7DC6DD" d="M530.007,328.63"/>
	<circle fill="#60A37B" cx="511.174" cy="87.796" r="7.833"/>
	<circle fill="#60A37B" cx="512.174" cy="108.796" r="6.167"/>
	<circle fill="#60A37B" cx="494.508" cy="105.462" r="5.834"/>
	<circle fill="#60A37B" cx="503.007" cy="122.63" r="4.333"/>
	<circle fill="#60A37B" cx="490.341" cy="116.63" r="4.667"/>
	<circle fill="#60A37B" cx="493.008" cy="129.962" r="4"/>
	<circle fill="#60A37B" cx="504.508" cy="136.796" r="3.5"/>
	<circle fill="#60A37B" cx="493.508" cy="142.796" r="3.834"/>
	<circle fill="#60A37B" cx="500.341" cy="152.63" r="3.667"/>
	<circle fill="#60A37B" cx="487.341" cy="154.296" r="3.333"/>
	<circle fill="#60A37B" cx="491.174" cy="163.13" r="2.833"/>
	<circle fill="#60A37B" cx="477.341" cy="161.63" r="3"/>
	<circle fill="#60A37B" cx="530.008" cy="167.296" r="9"/>
	<circle fill="#60A37B" cx="518.674" cy="189.962" r="8"/>
	<circle fill="#60A37B" cx="508.841" cy="176.462" r="6.833"/>
	<circle fill="#60A37B" cx="498.175" cy="188.13" r="6.167"/>
	<circle fill="#60A37B" cx="495.008" cy="204.63" r="6.167"/>
	<circle fill="#60A37B" cx="509.508" cy="205.464" r="6.5"/>
	<circle fill="#60A37B" cx="498.508" cy="220.462" r="4.834"/>
	<circle fill="#60A37B" cx="510.341" cy="224.964" r="4"/>
	<circle fill="#60A37B" cx="502.841" cy="235.796" r="3.833"/>
	<circle fill="#60A37B" cx="511.507" cy="239.462" r="3.833"/>
	<circle fill="#60A37B" cx="501.175" cy="248.13" r="4.167"/>
	<circle fill="#60A37B" cx="503.674" cy="264.13" r="3.5"/>
	<circle fill="#60A37B" cx="496.675" cy="257.63" r="3.333"/>
	<circle fill="#60A37B" cx="511.675" cy="254.964" r="4.333"/>
	<circle fill="#60A37B" cx="492.841" cy="272.13" r="3.833"/>
	<circle fill="#60A37B" cx="523.175" cy="312.796" r="6.167"/>
	<circle fill="#60A37B" cx="512.508" cy="331.796" r="4.167"/>
	<circle fill="#60A37B" cx="512.841" cy="319.464" r="3.833"/>
	<circle fill="#60A37B" cx="501.008" cy="326.962" r="4.333"/>
	<circle fill="#60A37B" cx="487.008" cy="351.296" r="3"/>
	<circle fill="#60A37B" cx="491.841" cy="338.128" r="4.167"/>
	<circle fill="#60A37B" cx="502.508" cy="340.462" r="4.833"/>
	<circle fill="#60A37B" cx="524.675" cy="326.296" r="5.667"/>
	<circle fill="#60A37B" cx="493.508" cy="369.796" r="3.5"/>
	<circle fill="#60A37B" cx="482.842" cy="370.462" r="3.5"/>
	<circle fill="#60A37B" cx="494.508" cy="357.128" r="3.5"/>
	<circle fill="#60A37B" cx="496.508" cy="348.796" r="3.5"/>
	<circle fill="#60A37B" cx="485.342" cy="362.628" r="3"/>
	<circle fill="#60A37B" cx="479.841" cy="378.462" r="3.167"/>
	<path fill="#8BCEAB" d="M785.99-0.382l-2.941,45.012c0,0,4.405,30,23.125,37c18.721,7,29.732,11,29.732,31s-12.113,36,6.607,41
		c18.72,5,15.416,15,0,15c-15.417,0-27.919-13.574-29.484-25.656c-2.161-16.688,9.188-22.576-8.646-32.883
		c-10.982-6.346-21.078-5.4-21.078-5.4l0.541,53.986c0,0,31.313,6.475,39.993,25.523c12.972,28.463-5.47,47.215-1.146,62.43
		c6.649,23.4,25.762,19.504,24.776,28c-1.102,9.5-40.785,0.957-42.946-28c-1.228-16.443,3.099-21.393,3.644-29.059
		c1.081-15.215-10.269-26.994-25.401-25.52l0.284,88.578c0,0-0.692,17.898,14.849,28.719c16.215,11.287,20.538,9.814,28.645,16.688
		c19.755,16.744,7.566,35.826,17.295,41.717c15.486,9.377,16.754,21.596,3.242,16.688c-24.34-8.844-23.98-16.334-27.021-33.375
		c-3.244-18.158-32.604-22.436-32.604-22.436h-4.405l3.381,70.988H644.754l7.253-400H785.99z"/>
	<path fill="#7DC6DD" d="M787.454,328.63"/>
	<ellipse fill="#60A37B" cx="808.192" cy="87.796" rx="8.626" ry="7.834"/>
	<ellipse fill="#60A37B" cx="807.09" cy="108.796" rx="6.791" ry="6.166"/>
	<ellipse fill="#60A37B" cx="826.545" cy="105.462" rx="6.423" ry="5.834"/>
	<ellipse fill="#60A37B" cx="817.185" cy="122.63" rx="4.771" ry="4.332"/>
	<ellipse fill="#60A37B" cx="831.133" cy="116.63" rx="5.139" ry="4.666"/>
	<ellipse fill="#60A37B" cx="828.197" cy="129.962" rx="4.405" ry="4"/>
	<ellipse fill="#60A37B" cx="815.533" cy="136.796" rx="3.854" ry="3.5"/>
	<ellipse fill="#60A37B" cx="827.646" cy="142.796" rx="4.221" ry="3.834"/>
	<ellipse fill="#60A37B" cx="820.121" cy="152.63" rx="4.038" ry="3.666"/>
	<ellipse fill="#60A37B" cx="834.437" cy="154.296" rx="3.671" ry="3.332"/>
	<ellipse fill="#60A37B" cx="830.216" cy="163.13" rx="3.12" ry="2.834"/>
	<ellipse fill="#60A37B" cx="845.449" cy="161.63" rx="3.304" ry="3"/>
	<ellipse fill="#60A37B" cx="787.453" cy="167.296" rx="9.911" ry="9"/>
	<ellipse fill="#60A37B" cx="799.933" cy="189.962" rx="8.81" ry="8"/>
	<ellipse fill="#60A37B" cx="810.761" cy="176.462" rx="7.525" ry="6.834"/>
	<ellipse fill="#60A37B" cx="822.508" cy="188.13" rx="6.791" ry="6.166"/>
	<ellipse fill="#60A37B" cx="825.994" cy="204.63" rx="6.791" ry="6.168"/>
	<ellipse fill="#60A37B" cx="810.027" cy="205.464" rx="7.158" ry="6.5"/>
	<ellipse fill="#60A37B" cx="822.14" cy="220.462" rx="5.322" ry="4.834"/>
	<ellipse fill="#60A37B" cx="809.11" cy="224.964" rx="4.405" ry="4"/>
	<ellipse fill="#60A37B" cx="817.368" cy="235.796" rx="4.222" ry="3.834"/>
	<ellipse fill="#60A37B" cx="807.825" cy="239.462" rx="4.221" ry="3.834"/>
	<ellipse fill="#60A37B" cx="819.203" cy="248.13" rx="4.589" ry="4.168"/>
	<ellipse fill="#60A37B" cx="816.451" cy="264.13" rx="3.854" ry="3.5"/>
	<ellipse fill="#60A37B" cx="824.159" cy="257.63" rx="3.671" ry="3.334"/>
	<ellipse fill="#60A37B" cx="807.642" cy="254.964" rx="4.771" ry="4.332"/>
	<ellipse fill="#60A37B" cx="828.38" cy="272.13" rx="4.221" ry="3.834"/>
	<ellipse fill="#60A37B" cx="794.979" cy="312.796" rx="6.791" ry="6.168"/>
	<ellipse fill="#60A37B" cx="806.723" cy="331.796" rx="4.588" ry="4.166"/>
	<ellipse fill="#60A37B" cx="806.356" cy="319.464" rx="4.222" ry="3.832"/>
	<ellipse fill="#60A37B" cx="819.388" cy="326.962" rx="4.771" ry="4.334"/>
	<ellipse fill="#60A37B" cx="834.804" cy="351.296" rx="3.304" ry="3"/>
	<ellipse fill="#60A37B" cx="829.481" cy="338.128" rx="4.588" ry="4.168"/>
	<ellipse fill="#60A37B" cx="817.735" cy="340.462" rx="5.322" ry="4.834"/>
	<ellipse fill="#60A37B" cx="793.325" cy="326.296" rx="6.239" ry="5.666"/>
	<ellipse fill="#60A37B" cx="827.646" cy="369.796" rx="3.854" ry="3.5"/>
	<ellipse fill="#60A37B" cx="839.393" cy="370.462" rx="3.854" ry="3.5"/>
	<ellipse fill="#60A37B" cx="826.545" cy="357.128" rx="3.854" ry="3.5"/>
	<ellipse fill="#60A37B" cx="824.342" cy="348.796" rx="3.854" ry="3.5"/>
	<ellipse fill="#60A37B" cx="836.64" cy="362.628" rx="3.304" ry="3"/>
	<ellipse fill="#60A37B" cx="842.696" cy="378.462" rx="3.487" ry="3.166"/>
	<path fill="#72C596" d="M759.34,194.642c0,99.408-43.169,179.988-96.417,179.988s-96.417-80.58-96.417-179.988
		c0-99.43,43.169-180.012,96.417-180.012S759.34,95.212,759.34,194.642z"/>
	<path fill="#72C596" d="M775.841-153.866c0,19.33-16.977,34.998-37.917,34.998c-20.939,0-37.916-15.668-37.916-34.998
		c0-19.336,16.977-35.004,37.916-35.004C758.864-188.87,775.841-173.202,775.841-153.866z"/>
	<path fill="#72C596" d="M619.841-150.866c0,19.33-16.977,34.998-37.917,34.998c-20.939,0-37.916-15.668-37.916-34.998
		c0-19.336,16.977-35.004,37.916-35.004C602.864-185.87,619.841-170.202,619.841-150.866z"/>
	<g>
		<g>
			<path fill="#7DC6DD" d="M577.117-288.876c0.65,0,2.082-0.986,0.781-0.986C577.248-289.863,575.816-288.876,577.117-288.876
				L577.117-288.876z"/>
		</g>
	</g>
	<g>
		<g>
			<path fill="none" stroke="#F2E4D2" stroke-miterlimit="10" d="M744.008-288.37"/>
		</g>
	</g>
	<g>
		<g>
			<path fill="none" stroke="#F2E4D2" stroke-miterlimit="10" d="M656.008-289.37"/>
		</g>
	</g>
	<path fill="#8BCEAB" d="M786.483,405.183l2.023,127.449c-2.206,25.479,41-4,41,29c0,32.062-120,28-119,14
		c0.778-10.891-6-128-59-122c-32.804,3.715-43.046,125.094-45,129c-3,6-114,29-116-13c-1.813-38.074,45,1,43.169-35.008
		c0,0,2.881-125.732,3.77-129.441H786.483z"/>
	<path fill="#D6C370" d="M492.516,559.028c0,0-4.187,4.984-2.193,10.965c0,0-12.559-7.375-16.347,0.996
		C473.577,559.427,482.349,558.032,492.516,559.028z"/>
	<path fill="#D6C370" d="M493.316,570.987c0,0-1.199,5.385,4.98,8.975c0,0-12.755-4.189-16.543,4.182
		C481.355,572.581,483.149,569.989,493.316,570.987z"/>
	<path fill="#D6C370" d="M499.591,582.69l7.841,2.83c0,0-8.395,3.072-11.97,13.586C492.555,592.114,493.463,586.312,499.591,582.69z
		"/>
	<path fill="#D6C370" d="M825.264,549.028c0,0,4.069,4.984,2.131,10.965c0,0,13.207-8.375,16.89-0.004
		C844.671,548.427,835.146,548.032,825.264,549.028z"/>
	<path fill="#D6C370" d="M825.457,561.987c0,0,0.193,4.385-5.812,7.975c0,0,14.369-4.189,18.051,4.182
		C838.083,562.581,835.339,560.989,825.457,561.987z"/>
	<path fill="#D6C370" d="M818.387,572.69l-7.621,2.83c0,0,8.158,3.072,11.634,13.586
		C825.225,582.114,824.343,576.312,818.387,572.69z"/>
	<path fill="#72C596" d="M537.49,412.608c0,0,139.461,50.713-3.889,123.271L537.49,412.608z"/>
	<path fill="#72C596" d="M786.77,410.136c0,0-124.187,45.307,1.429,119.307L786.77,410.136z"/>
	<path fill="#E06899" d="M991.508-6.812c-2.881-20-6-94.502-1.5-143.002c3.742-40.336,17.835-96.815,42.335-118.186
		c3.563-3.109-30.614-46.478-26.833-49.163c3.811-2.707,45.583,35.274,49.586,33.009c14.496-8.207,30.144-13.496,46.221-15.628
		c5.359-0.709,10.294-53.232,15.722-53.232c6.436,0,13.158,52.648,19.217,53.574c18.174,2.778,34.613,9.509,49.126,18.935
		c2.902,1.885,44.048-32.706,46.795-30.616c3.355,2.555-31.726,41.837-28.608,44.663c29.753,26.976,31.94,73.643,35.44,119.145
		c2.627,34.148,4.752,126.445,1.92,140.279L991.508-6.812z"/>
	<path fill="#E06899" d="M990.007,5.521v46c0,0-4,30-21,37s-27,11-27,31s11,36-6,41s-14,15,0,15s25.353-13.576,26.774-25.658
		c1.963-16.686-8.344-22.576,7.853-32.883c9.972-6.346,19.142-5.398,19.142-5.398l-0.492,53.984c0,0-28.436,6.475-36.318,25.523
		c-11.779,28.465,4.969,47.217,1.042,62.432c-6.038,23.4-23.395,19.502-22.5,28c1,9.5,37.038,0.955,39-28
		c1.114-16.443-2.813-21.393-3.309-29.061c-0.981-15.213,9.325-26.992,23.067-25.518l-0.259,88.578c0,0,0.63,17.896-13.484,28.717
		c-14.724,11.289-18.649,9.816-26.013,16.688c-17.938,16.744-6.871,35.828-15.705,41.719c-14.062,9.377-15.215,21.594-2.945,16.686
		c22.105-8.842,21.777-16.334,24.541-33.373c2.943-18.16,29.606-22.436,29.606-22.436h4l0.903,70.988h111.097l7-400L990.007,5.521z"
		/>
	<path fill="#7DC6DD" d="M986.007,335.521"/>
	<circle fill="#B63C79" cx="967.174" cy="94.687" r="7.833"/>
	<circle fill="#B63C79" cx="968.174" cy="115.687" r="6.167"/>
	<circle fill="#B63C79" cx="950.508" cy="112.353" r="5.834"/>
	<circle fill="#B63C79" cx="959.007" cy="129.519" r="4.333"/>
	<circle fill="#B63C79" cx="946.341" cy="123.519" r="4.667"/>
	<circle fill="#B63C79" cx="949.008" cy="136.853" r="4"/>
	<circle fill="#B63C79" cx="960.508" cy="143.687" r="3.5"/>
	<circle fill="#B63C79" cx="949.508" cy="149.687" r="3.834"/>
	<circle fill="#B63C79" cx="956.341" cy="159.519" r="3.667"/>
	<circle fill="#B63C79" cx="943.341" cy="161.185" r="3.333"/>
	<circle fill="#B63C79" cx="947.174" cy="170.021" r="2.833"/>
	<circle fill="#B63C79" cx="933.341" cy="168.519" r="3"/>
	<circle fill="#B63C79" cx="986.008" cy="174.187" r="9"/>
	<circle fill="#B63C79" cx="974.674" cy="196.853" r="8"/>
	<circle fill="#B63C79" cx="964.841" cy="183.353" r="6.833"/>
	<circle fill="#B63C79" cx="954.175" cy="195.019" r="6.167"/>
	<circle fill="#B63C79" cx="951.008" cy="211.521" r="6.167"/>
	<circle fill="#B63C79" cx="965.508" cy="212.353" r="6.5"/>
	<circle fill="#B63C79" cx="954.508" cy="227.353" r="4.834"/>
	<circle fill="#B63C79" cx="966.341" cy="231.853" r="4"/>
	<circle fill="#B63C79" cx="958.841" cy="242.687" r="3.833"/>
	<circle fill="#B63C79" cx="967.507" cy="246.353" r="3.833"/>
	<circle fill="#B63C79" cx="957.175" cy="255.021" r="4.167"/>
	<circle fill="#B63C79" cx="959.674" cy="271.021" r="3.5"/>
	<circle fill="#B63C79" cx="952.675" cy="264.521" r="3.333"/>
	<circle fill="#B63C79" cx="967.675" cy="261.853" r="4.333"/>
	<circle fill="#B63C79" cx="948.841" cy="279.021" r="3.833"/>
	<circle fill="#B63C79" cx="979.175" cy="319.687" r="6.167"/>
	<circle fill="#B63C79" cx="968.508" cy="338.685" r="4.167"/>
	<circle fill="#B63C79" cx="968.841" cy="326.353" r="3.833"/>
	<circle fill="#B63C79" cx="957.008" cy="333.853" r="4.333"/>
	<circle fill="#B63C79" cx="943.008" cy="358.185" r="3"/>
	<circle fill="#B63C79" cx="947.841" cy="345.019" r="4.167"/>
	<circle fill="#B63C79" cx="958.508" cy="347.353" r="4.833"/>
	<circle fill="#B63C79" cx="980.675" cy="333.185" r="5.667"/>
	<circle fill="#B63C79" cx="949.508" cy="376.685" r="3.5"/>
	<circle fill="#B63C79" cx="938.842" cy="377.353" r="3.5"/>
	<circle fill="#B63C79" cx="950.508" cy="364.019" r="3.5"/>
	<circle fill="#B63C79" cx="952.508" cy="355.685" r="3.5"/>
	<circle fill="#B63C79" cx="941.342" cy="369.519" r="3"/>
	<circle fill="#B63C79" cx="935.841" cy="385.353" r="3.167"/>
	<path fill="#E06899" d="M1241.99,6.509l-2.941,45.012c0,0,4.405,30,23.125,37c18.721,7,29.732,11,29.732,31s-12.113,36,6.607,41
		c18.72,5,15.416,15,0,15c-15.417,0-27.919-13.576-29.484-25.658c-2.161-16.686,9.188-22.576-8.646-32.883
		c-10.982-6.346-21.078-5.398-21.078-5.398l0.541,53.984c0,0,31.313,6.475,39.993,25.523c12.972,28.465-5.47,47.217-1.146,62.432
		c6.649,23.4,25.762,19.502,24.776,28c-1.102,9.5-40.785,0.955-42.946-28c-1.228-16.443,3.099-21.393,3.644-29.061
		c1.081-15.213-10.269-26.992-25.401-25.518l0.284,88.578c0,0-0.692,17.896,14.849,28.717c16.215,11.289,20.538,9.816,28.645,16.688
		c19.755,16.744,7.566,35.828,17.295,41.719c15.486,9.377,16.754,21.594,3.242,16.686c-24.34-8.842-23.98-16.334-27.021-33.373
		c-3.244-18.16-32.604-22.436-32.604-22.436h-4.405l3.381,70.988h-141.676l7.253-400H1241.99z"/>
	<path fill="#7DC6DD" d="M1243.454,335.521"/>
	<ellipse fill="#B63C79" cx="1264.192" cy="94.687" rx="8.626" ry="7.832"/>
	<ellipse fill="#B63C79" cx="1263.09" cy="115.687" rx="6.791" ry="6.166"/>
	<ellipse fill="#B63C79" cx="1282.545" cy="112.353" rx="6.423" ry="5.834"/>
	<ellipse fill="#B63C79" cx="1273.185" cy="129.519" rx="4.771" ry="4.334"/>
	<ellipse fill="#B63C79" cx="1287.133" cy="123.519" rx="5.139" ry="4.668"/>
	<ellipse fill="#B63C79" cx="1284.197" cy="136.853" rx="4.405" ry="4"/>
	<ellipse fill="#B63C79" cx="1271.533" cy="143.687" rx="3.854" ry="3.5"/>
	<ellipse fill="#B63C79" cx="1283.646" cy="149.687" rx="4.221" ry="3.832"/>
	<ellipse fill="#B63C79" cx="1276.121" cy="159.519" rx="4.038" ry="3.668"/>
	<ellipse fill="#B63C79" cx="1290.437" cy="161.185" rx="3.671" ry="3.334"/>
	<ellipse fill="#B63C79" cx="1286.216" cy="170.021" rx="3.12" ry="2.832"/>
	<ellipse fill="#B63C79" cx="1301.449" cy="168.519" rx="3.304" ry="3"/>
	<ellipse fill="#B63C79" cx="1243.453" cy="174.187" rx="9.911" ry="9"/>
	<ellipse fill="#B63C79" cx="1255.933" cy="196.853" rx="8.81" ry="8"/>
	<ellipse fill="#B63C79" cx="1266.761" cy="183.353" rx="7.525" ry="6.834"/>
	<ellipse fill="#B63C79" cx="1278.508" cy="195.019" rx="6.791" ry="6.168"/>
	<ellipse fill="#B63C79" cx="1281.994" cy="211.521" rx="6.791" ry="6.166"/>
	<ellipse fill="#B63C79" cx="1266.027" cy="212.353" rx="7.158" ry="6.5"/>
	<ellipse fill="#B63C79" cx="1278.14" cy="227.353" rx="5.322" ry="4.834"/>
	<ellipse fill="#B63C79" cx="1265.11" cy="231.853" rx="4.405" ry="4"/>
	<ellipse fill="#B63C79" cx="1273.368" cy="242.687" rx="4.222" ry="3.832"/>
	<ellipse fill="#B63C79" cx="1263.825" cy="246.353" rx="4.221" ry="3.834"/>
	<ellipse fill="#B63C79" cx="1275.203" cy="255.021" rx="4.589" ry="4.166"/>
	<ellipse fill="#B63C79" cx="1272.451" cy="271.021" rx="3.854" ry="3.5"/>
	<ellipse fill="#B63C79" cx="1280.159" cy="264.521" rx="3.671" ry="3.334"/>
	<ellipse fill="#B63C79" cx="1263.642" cy="261.853" rx="4.771" ry="4.334"/>
	<ellipse fill="#B63C79" cx="1284.38" cy="279.021" rx="4.221" ry="3.834"/>
	<ellipse fill="#B63C79" cx="1250.979" cy="319.687" rx="6.791" ry="6.166"/>
	<ellipse fill="#B63C79" cx="1262.723" cy="338.685" rx="4.588" ry="4.166"/>
	<ellipse fill="#B63C79" cx="1262.356" cy="326.353" rx="4.222" ry="3.834"/>
	<ellipse fill="#B63C79" cx="1275.388" cy="333.853" rx="4.771" ry="4.334"/>
	<ellipse fill="#B63C79" cx="1290.804" cy="358.185" rx="3.304" ry="3"/>
	<ellipse fill="#B63C79" cx="1285.481" cy="345.019" rx="4.588" ry="4.166"/>
	<ellipse fill="#B63C79" cx="1273.735" cy="347.353" rx="5.322" ry="4.832"/>
	<ellipse fill="#B63C79" cx="1249.325" cy="333.185" rx="6.239" ry="5.666"/>
	<ellipse fill="#B63C79" cx="1283.646" cy="376.685" rx="3.854" ry="3.5"/>
	<ellipse fill="#B63C79" cx="1295.393" cy="377.353" rx="3.854" ry="3.5"/>
	<ellipse fill="#B63C79" cx="1282.545" cy="364.019" rx="3.854" ry="3.5"/>
	<ellipse fill="#B63C79" cx="1280.342" cy="355.685" rx="3.854" ry="3.5"/>
	<ellipse fill="#B63C79" cx="1292.64" cy="369.519" rx="3.304" ry="3"/>
	<ellipse fill="#B63C79" cx="1298.696" cy="385.353" rx="3.487" ry="3.166"/>
	<path fill="#D65490" d="M1215.34,201.532c0,99.408-43.169,179.988-96.417,179.988s-96.417-80.58-96.417-179.988
		c0-99.43,43.169-180.012,96.417-180.012S1215.34,102.103,1215.34,201.532z"/>
	<path fill="#D65490" d="M1234.174-151.81c0,19.33-16.977,34.998-37.917,34.998c-20.939,0-37.916-15.668-37.916-34.998
		c0-19.336,16.977-35.004,37.916-35.004C1217.197-186.813,1234.174-171.146,1234.174-151.81z"/>
	<path fill="#D65490" d="M1078.174-148.81c0,19.33-16.977,34.998-37.917,34.998c-20.939,0-37.916-15.668-37.916-34.998
		c0-19.336,16.977-35.004,37.916-35.004C1061.197-183.813,1078.174-168.146,1078.174-148.81z"/>
	<g>
		<g>
			<path fill="#7DC6DD" d="M1034.45-287.821c0.65,0,2.082-0.986,0.781-0.986C1034.581-288.807,1033.149-287.821,1034.45-287.821
				L1034.45-287.821z"/>
		</g>
	</g>
	<g>
		<g>
			<path fill="none" stroke="#F2E4D2" stroke-miterlimit="10" d="M1202.341-286.314"/>
		</g>
	</g>
	<g>
		<g>
			<path fill="none" stroke="#F2E4D2" stroke-miterlimit="10" d="M1113.341-288.314"/>
		</g>
	</g>
	<path fill="#E06899" d="M1240.816,414.187l2.023,127.449c-2.206,25.479,41-4,41,29c0,32.062-120,28-119,14
		c0.778-10.891-6-128-59-122c-32.804,3.715-43.046,125.094-45,129c-3,6-114,29-116-13c-1.813-38.074,45,1,43.169-35.008
		c0,0,2.881-125.732,3.77-129.441H1240.816z"/>
	<path fill="#D6C370" d="M946.849,568.032c0,0-4.187,4.984-2.193,10.965c0,0-12.559-7.375-16.347,0.996
		C927.91,568.431,936.682,567.036,946.849,568.032z"/>
	<path fill="#D6C370" d="M947.649,579.991c0,0-1.199,5.385,4.98,8.975c0,0-12.755-4.189-16.543,4.182
		C935.688,581.585,937.482,578.993,947.649,579.991z"/>
	<path fill="#D6C370" d="M953.924,591.694l7.841,2.83c0,0-8.395,3.072-11.97,13.586
		C946.888,601.118,947.796,595.315,953.924,591.694z"/>
	<path fill="#D6C370" d="M1279.597,558.032c0,0,4.069,4.984,2.131,10.965c0,0,13.207-8.375,16.89-0.004
		C1299.004,557.431,1289.479,557.036,1279.597,558.032z"/>
	<path fill="#D6C370" d="M1279.79,570.991c0,0,0.193,4.385-5.812,7.975c0,0,14.369-4.189,18.051,4.182
		C1292.416,571.585,1289.672,569.993,1279.79,570.991z"/>
	<path fill="#D6C370" d="M1272.72,581.694l-7.621,2.83c0,0,8.158,3.072,11.634,13.586
		C1279.558,591.118,1278.676,585.315,1272.72,581.694z"/>
	<path fill="#D65490" d="M991.823,421.612c0,0,139.461,50.713-3.889,123.271L991.823,421.612z"/>
	<path fill="#D65490" d="M1241.103,419.14c0,0-124.187,45.307,1.429,119.307L1241.103,419.14z"/>
	<path fill="#7DC6DD" d="M1464.548-7.987c-14.841-6.579-23.789-26.916-27.844-53.051c-1.788-11.528,1.847-27.787-13.702,0.717
		c0-18,17.333-89.334,4.667-56.667c-4.14,10.678,21.333-72.667,1.333-39.333c6.911-29.377,31.298-68.685,44.998-80.001
		c15.334-12.667-5.881-12.347-0.666-12.667c32.666-2,6.103-10.462,10.666-12.667c10.205-4.931,18.469,3.03,21.334-0.667
		c5.342-6.894-3.038-7.777-0.667-8.667c10.667-4,12.333,1.333,17.333,3.333c0,0,78.829,6.85,115.667,1.333
		c13.587-2.034,27.333-13.333,23.333-3.333c-2.984,7.46,14.86-1.998,14,4.667c-2.667,20.667,14.95,5.36,16.667,6.667
		c3.355,2.554-12.492,2.034,4,21.333c10.685,12.504,26.993,31.484,35.056,57.408c-7.459-5.424,5.215,15.9,9.275,33.497
		c-12.368-7.215,1.546,9.275,9.791,26.797c-36.072-20.613,5.669,18.036,1.547,51.018c-30.92-43.287,2.061,46.38-37.369,60.06
		L1464.548-7.987z"/>
	<path fill="#52BFD1" d="M1707.213-152.985c0,19.33-16.977,34.998-37.917,34.998c-20.939,0-37.916-15.668-37.916-34.998
		c0-19.334,16.977-35.002,37.916-35.002C1690.236-187.987,1707.213-172.319,1707.213-152.985z"/>
	<path fill="#52BFD1" d="M1551.213-149.985c0,19.33-16.977,34.998-37.917,34.998c-20.939,0-37.916-15.668-37.916-34.998
		c0-19.334,16.977-35.002,37.916-35.002C1534.236-184.987,1551.213-169.319,1551.213-149.985z"/>
	<g>
		<g>
			<path fill="#7DC6DD" d="M1508.489-287.996c0.65,0,2.082-0.986,0.781-0.986C1508.62-288.982,1507.188-287.996,1508.489-287.996
				L1508.489-287.996z"/>
		</g>
	</g>
	<g>
		<g>
			<path fill="none" stroke="#F2E4D2" stroke-miterlimit="10" d="M1675.38-287.489"/>
		</g>
	</g>
	<g>
		<g>
			<path fill="none" stroke="#F2E4D2" stroke-miterlimit="10" d="M1587.38-288.489"/>
		</g>
	</g>
	<path fill="#7DC6DD" d="M1712.357,413.375l-9.409,174.67c25.552,21.466-2.013,37.357-2.013,37.357l-16.269,154.276
		c25.5,13.5,54.5,3.667,100-13.333c-23.25,14.25,1.334,19,1.334,19s-24.265,14.294,1.271,23.601
		c8.55,3.116-136.272,7.064-143.272-14.436c0,0,54.5-349.5-66.619-332.687c-76.971,10.685-54.881,333.187-54.881,333.187
		c-6.593,13.185-92.896,20.783-130.5,15.5c0,0,27.5-11-1.75-18.25c21.5-7.75,7.557-13.524-1.978-20.25
		c0,0,90.308,26.873,97.808,7.873l-6.792-150.537c-17.173-8.485-15.362-28.296,0.566-39.05
		c-2.68-88.741-16.966-175.128-16.536-176.922H1712.357z"/>
	<g>
		<path fill="#7DC6DD" d="M1464.335,7.011l-29.169,81.501c0,0-3.499,1.334-7.665,8.667c7.166-3.5,4.666,4.001,2.666,6.167
			s-15.021,13.084-16.619,19.779c11.453-8.28,9.911,2.613,5.453,6.054c-3.5,3.5-6.653,2.938-11.05,12.432
			c11.392-4.297,10.973-0.146,7.529,1.911c-4.747,2.835-5.341,3.898-6.479,7.823c11.181-7.685-1.332,14.001-1.332,14.001
			c-17.671,79.09-20.56,135.287-3.667,153.335c-14.824,10.15-21.368,28.406,8.453,35.778c17.5,1.5,14.692-14.629,5.026-24.963
			c-3.834-9.333,13.916,6.672,15.916,1.005s-12.396-20.487-12.396-20.487s-22.334-26.666,12.57-138.943
			c0,0,10.264-28.129,20.282-57.742c0,0-4.478,21.196-8.74,53.028c-0.855,6.389-13.153,37.169-9.446,30.991
			c8-13.334,6.085-2.729,5.684,1.357c-0.17,1.729-5.655,13.741-4.713,12.246c4.14-6.568,5.166-1.213,3.52,0.894
			c-2.89,3.696-9.015,21.556-7.299,18.723c7.738-12.777,8.188-2.879,5.933,0.462c-3.163,4.687-10.582,21.101-7.913,18.254
			c6.748-7.198,9.547,3.516,6.845,7.378c-9.958,14.234-10.776,25.878-8.431,22.894c10.611-13.498,10.493-2.161,8.335,1.698
			c-3.749,6.705-10.029,25.714-7.229,22.834c8.913-9.168,10.601,0.996,8.535,6.278c-1.063,2.72-4.433,16.26-3.44,14.605
			c3.819-6.367,6.741-1.925,4.863,0.593c-6.392,8.571-6.924,28.682-5.458,25.55c6.197-13.243,8.491-4.124,9.554,1.262
			c0.858,4.351-13.12,14.612-6.498,23.865c7.215-17.402,17.675,0.855,13.827,4.472c-3.642,3.422-3.787,19.461-2.453,16.834
			c8.234-16.214,12.568,7.439,13.674,9.465h122.667l-6.001-400H1464.335z"/>
		<path fill="#7DC6DD" d="M1713.146,7.011l29.169,81.501c0,0,3.499,1.334,7.665,8.667c-7.166-3.5-4.666,4.001-2.666,6.167
			s15.021,13.084,16.619,19.779c-11.453-8.28-9.911,2.613-5.453,6.054c3.5,3.5,6.653,2.938,11.05,12.432
			c-11.392-4.297-10.973-0.146-7.529,1.911c4.747,2.835,5.341,3.898,6.479,7.823c-11.181-7.685,1.332,14.001,1.332,14.001
			c17.671,79.09,20.56,135.287,3.667,153.335c14.824,10.15,21.368,28.406-8.453,35.778c-17.5,1.5-14.692-14.629-5.026-24.963
			c3.834-9.333-13.916,6.672-15.916,1.005s12.396-20.487,12.396-20.487s22.334-26.666-12.57-138.943
			c0,0-10.264-28.129-20.282-57.742c0,0,4.478,21.196,8.74,53.028c0.855,6.389,13.153,37.169,9.446,30.991
			c-8-13.334-6.085-2.729-5.684,1.357c0.17,1.729,5.655,13.741,4.713,12.246c-4.14-6.568-5.166-1.213-3.52,0.894
			c2.89,3.696,9.015,21.556,7.299,18.723c-7.738-12.777-8.188-2.879-5.933,0.462c3.163,4.687,10.582,21.101,7.913,18.254
			c-6.748-7.198-9.547,3.516-6.845,7.378c9.958,14.234,10.776,25.878,8.431,22.894c-10.611-13.498-10.493-2.161-8.335,1.698
			c3.749,6.705,10.029,25.714,7.229,22.834c-8.913-9.168-10.601,0.996-8.535,6.278c1.063,2.72,4.433,16.26,3.44,14.605
			c-3.819-6.367-6.741-1.925-4.863,0.593c6.392,8.571,6.924,28.682,5.458,25.55c-6.197-13.243-8.491-4.124-9.554,1.262
			c-0.858,4.351,13.12,14.612,6.498,23.865c-7.215-17.402-17.675,0.855-13.827,4.472c3.642,3.422,3.787,19.461,2.453,16.834
			c-8.234-16.214-12.568,7.439-13.674,9.465h-135.48l-2.667-400H1713.146z"/>
	</g>
	<path fill="#D6C370" d="M1395.318,344.163c0,0,4.053,5.093,10.311,4.325c0,0-9.722,10.845-2.268,16.22
		C1391.949,362.804,1392.322,353.93,1395.318,344.163z"/>
	<path fill="#D6C370" d="M1406.963,350.291c0,0,6.111,4.142,8.594,0.13c0,0-2.655,9.055,6.141,11.716
		C1410.285,364.043,1407.304,360.502,1406.963,350.291z"/>
	<path fill="#D6C370" d="M1418.671,346.881l3.968-7.332c0,0,1.787,8.758,11.651,13.861
		C1426.943,355.241,1421.34,353.479,1418.671,346.881z"/>
	<path fill="#D6C370" d="M1783.192,341.284c0,0-4.046,5.002-10.296,4.329c0,0,9.717,10.439,2.275,15.757
		C1786.568,359.383,1786.19,350.753,1783.192,341.284z"/>
	<path fill="#D6C370" d="M1772.188,350.313c0,0-4.106,1.216-9.894-0.268c0,0,6.983,7.496,2.014,15.173
		C1774.18,359.187,1774.442,356.953,1772.188,350.313z"/>
	<path fill="#D6C370" d="M1759.738,350.561l-5.555-5.936c0,0,0.318,8.712-8.037,15.979
		C1753.688,360.509,1758.698,357.453,1759.738,350.561z"/>
	<path fill="#7DC6DD" d="M1399,825.261"/>
</g>
<g id="face_layer" display="none">
	<g display="inline">
		<path fill="#FFFFFF" d="M263.06-232.949c13.137,9.59,16.013,28.012,6.423,41.151c-9.589,13.137-28.013,16.012-41.149,6.422
			c-8.977-6.553-13.162-17.229-11.854-27.526l41.434-23.063C259.692-235.151,261.417-234.147,263.06-232.949z"/>
		<path d="M247.34-227.917c4.958,3.62,6.045,10.573,2.425,15.532s-10.575,6.045-15.533,2.426c-3.389-2.475-4.969-6.504-4.475-10.391
			l15.641-8.706C246.069-228.748,246.72-228.369,247.34-227.917z"/>
	</g>
	<g display="inline">
		<path fill="#FFFFFF" d="M186.257-179.587c-19.008,13.562-45.411,9.148-58.974-9.859c-13.562-19.008-9.148-45.412,9.858-58.974
			l66.791,36.417C203.333-199.515,197.224-187.413,186.257-179.587z"/>
		<path d="M168.115-229.652c-4.997,3.565-6.291,10.32-2.89,15.086c3.401,4.768,10.209,5.74,15.206,2.176
			c3.415-2.438,5.101-6.363,4.741-10.126l-15.109-8.262C169.394-230.473,168.74-230.098,168.115-229.652z"/>
	</g>
	<path display="inline" d="M161.999-151.987c14.174-8.723,4.333,21.334,44.333,15.334s25.667-13.334,41.667-17.334
		s22.797,50.809,16,74c-5.667,19.334-26.189-4.748-27-5.334c-12-8.666-50-8.666-68,6.334s-22,10-23,0
		S148.999-143.987,161.999-151.987z"/>
	<path display="inline" fill="#FDFDFE" d="M174.333-145.987c0,0,1.512,34.414,2.863,32.252c1.588-2.541,12.803-13.127,12.803-13.127
		c5.94,3.279,9.289,16.031,9.68,16.08c0.883,0.107,8.861-15.977,13.32-18.539c0.784-0.449,18.56,12.492,20.062,13.834
		c1.706,1.521,0.904-23.66,1.042-28.893C223.152-141.538,188.112-125.929,174.333-145.987z"/>
	<path display="inline" fill="#FDFDFE" d="M169.124-79.128c0,0,3.743-20.414,3.973-23.883c0.16-2.416,12.961,13.434,14.008,10.816
		c1.883-4.707,5.061-8.943,5.061-8.943c1.588,2.043,9.415,7.414,9.415,7.414c5.94-2.633,11.378-8.67,11.769-8.709
		c0.883-0.086,6.25,7.594,10.709,9.65c0.784,0.361,14.028-8.621,15.064-10.004c1.059-1.412-0.021,15.336,0.117,19.537
		C221.469-96.782,185.79-91.378,169.124-79.128z"/>
	<path display="inline" d="M625.309-147.019l71.849,1.467c0,0-12.613,48.428-37.971,48.428
		C633.828-97.124,625.309-147.019,625.309-147.019z"/>
	<path display="inline" fill="#FDFDFE" d="M640.42-146.647c0,0,2.937,19.846,4.177,21.133l9.35-20.863l16.197,0.334
		c0.549-0.182,6.787,18.557,6.787,18.557c0.454,0.074,5.187-16.428,5.282-18.518C681.384-145.798,640.42-146.647,640.42-146.647z"/>
	<circle display="inline" fill="#FFFFFF" cx="622.151" cy="-203.534" r="43.25"/>
	<circle display="inline" cx="605.151" cy="-209.534" r="12.25"/>
	<circle display="inline" fill="#FFFFFF" cx="700.401" cy="-199.284" r="28.5"/>
	<circle display="inline" cx="692.401" cy="-203.784" r="11.25"/>
	<path display="inline" d="M1155.387-139.154l-71.798-2.698c0,0,12.762-3.942,38.103-3.037
		C1147.034-143.984,1155.387-139.154,1155.387-139.154z"/>
	<path display="inline" fill="#FDFDFE" d="M1098.875-144.364c0,0,2.814,19.619,4.055,20.906l9.18-21.578
		C1112.109-145.036,1104.109-144.958,1098.875-144.364z"/>
	<path display="inline" fill="#FFFFFF" d="M1123.6-201.826c0.224,23.887-18.957,43.43-42.844,43.652
		c-23.887,0.224-43.43-18.959-43.652-42.847c-0.06-6.469,1.302-12.618,3.798-18.151l77.374-3.063
		C1121.608-216.175,1123.531-209.227,1123.6-201.826z"/>
	<path display="inline" d="M1092.13-194.931c0.374,6.758-4.796,12.538-11.551,12.914c-6.755,0.375-12.537-4.796-12.913-11.553
		c-0.375-6.753,4.796-12.534,11.551-12.91C1085.973-206.855,1091.753-201.684,1092.13-194.931z"/>
	<path display="inline" fill="#FFFFFF" d="M1183.975-188.869c-1.824,15.636-15.978,26.83-31.61,25.006
		c-15.635-1.825-26.829-15.979-25.004-31.613c0.506-4.335,1.958-8.326,4.126-11.794l51.118,5.763
		C1183.97-197.575,1184.49-193.281,1183.975-188.869z"/>
	<circle display="inline" cx="1155.035" cy="-187.981" r="11.25"/>
	<path display="inline" fill="#FDFDFE" d="M1138.5-143.489c0,0-3.533,19.245-4.818,20.489l-8.43-21.881
		C1125.252-144.881,1133.29-144.263,1138.5-143.489z"/>
	<g display="inline">
		<path fill="#FFFFFF" d="M1652.94-233.948c13.137,9.59,16.013,28.012,6.423,41.15c-9.589,13.137-28.013,16.012-41.149,6.422
			c-8.977-6.553-13.162-17.229-11.854-27.525l41.434-23.063C1649.573-236.151,1651.298-235.147,1652.94-233.948z"/>
		<path d="M1637.221-228.917c4.958,3.621,6.045,10.574,2.425,15.533s-10.575,6.045-15.533,2.426
			c-3.389-2.475-4.969-6.504-4.475-10.391l15.641-8.707C1635.95-229.747,1636.601-229.369,1637.221-228.917z"/>
	</g>
	<g display="inline">
		<path fill="#FFFFFF" d="M1576.138-180.587c-19.008,13.562-45.411,9.148-58.974-9.859s-9.148-45.412,9.858-58.975l66.791,36.418
			C1593.214-200.515,1587.104-188.413,1576.138-180.587z"/>
		<path d="M1557.996-230.651c-4.997,3.564-6.291,10.32-2.89,15.086c3.401,4.768,10.209,5.74,15.206,2.176
			c3.415-2.438,5.101-6.363,4.741-10.127l-15.109-8.262C1559.274-231.473,1558.621-231.098,1557.996-230.651z"/>
	</g>
	<path display="inline" d="M1551.88-152.987c14.174-8.723,4.333,21.334,44.333,15.334s25.667-13.334,41.667-17.334
		s22.797,50.809,16,74c-5.667,19.334-26.189-4.748-27-5.334c-12-8.666-50-8.666-68,6.334s-22,10-23,0
		S1538.88-144.987,1551.88-152.987z"/>
	<path display="inline" fill="#FDFDFE" d="M1564.214-146.987c0,0,1.512,34.414,2.863,32.252
		c1.588-2.541,12.803-13.127,12.803-13.127c5.94,3.279,9.289,16.031,9.68,16.08c0.883,0.107,8.861-15.977,13.32-18.539
		c0.784-0.449,18.56,12.492,20.062,13.834c1.706,1.521,0.904-23.66,1.042-28.893
		C1613.033-142.538,1577.993-126.929,1564.214-146.987z"/>
	<path display="inline" fill="#FDFDFE" d="M1559.005-80.128c0,0,3.743-20.414,3.973-23.883c0.16-2.416,12.961,13.434,14.008,10.816
		c1.883-4.707,5.061-8.943,5.061-8.943c1.588,2.043,9.415,7.414,9.415,7.414c5.94-2.633,11.378-8.67,11.769-8.709
		c0.883-0.086,6.25,7.594,10.709,9.65c0.784,0.361,14.028-8.621,15.064-10.004c1.059-1.412-0.021,15.336,0.117,19.537
		C1611.35-97.782,1575.671-92.378,1559.005-80.128z"/>
</g>
<g id="Layer_4" display="none">
	<g display="inline">
		<g opacity="0.7">
			<g>
				<path fill="#74AFD1" d="M124.408-279.825c1.935,0,1.935-3,0-3S122.473-279.825,124.408-279.825L124.408-279.825z"/>
			</g>
		</g>
		<g opacity="0.7">
			<g>
				<path fill="#74AFD1" d="M113.258-285.208c1.935,0,1.935-3,0-3S111.324-285.208,113.258-285.208L113.258-285.208z"/>
			</g>
		</g>
		<g opacity="0.7">
			<g>
				<path fill="#74AFD1" d="M116.623-290.59c1.935,0,1.935-3,0-3S114.688-290.59,116.623-290.59L116.623-290.59z"/>
			</g>
		</g>
		<g opacity="0.7">
			<g>
				<path fill="#74AFD1" d="M114.796-275.884c1.935,0,1.935-3,0-3S112.862-275.884,114.796-275.884L114.796-275.884z"/>
			</g>
		</g>
		<g opacity="0.7">
			<g>
				<path fill="#74AFD1" d="M94.324-308.563c1.935,0,1.935-3,0-3S92.389-308.563,94.324-308.563L94.324-308.563z"/>
			</g>
		</g>
		<g opacity="0.7">
			<g>
				<path fill="#74AFD1" d="M101.628-303.854c1.935,0,1.935-3,0-3S99.694-303.854,101.628-303.854L101.628-303.854z"/>
			</g>
		</g>
		<g opacity="0.7">
			<g>
				<path fill="#74AFD1" d="M104.416-297.798c1.935,0,1.935-3,0-3S102.481-297.798,104.416-297.798L104.416-297.798z"/>
			</g>
		</g>
		<g opacity="0.7">
			<g>
				<path fill="#74AFD1" d="M102.494-291.839c1.935,0,1.935-3,0-3S100.559-291.839,102.494-291.839L102.494-291.839z"/>
			</g>
		</g>
		<g opacity="0.7">
			<g>
				<path fill="#74AFD1" d="M111.817-295.396c1.935,0,1.935-3,0-3S109.882-295.396,111.817-295.396L111.817-295.396z"/>
			</g>
		</g>
		<g opacity="0.7">
			<g>
				<path fill="#74AFD1" d="M97.88-300.297c1.935,0,1.935-3,0-3S95.945-300.297,97.88-300.297L97.88-300.297z"/>
			</g>
		</g>
		<g opacity="0.7">
			<g>
				<path fill="#74AFD1" d="M94.9-304.623c1.935,0,1.935-3,0-3S92.966-304.623,94.9-304.623L94.9-304.623z"/>
			</g>
		</g>
		<g opacity="0.7">
			<g>
				<path fill="#74AFD1" d="M127.099-283.766c1.935,0,1.935-3,0-3S125.164-283.766,127.099-283.766L127.099-283.766z"/>
			</g>
		</g>
		<g opacity="0.7">
			<g>
				<path fill="#74AFD1" d="M119.986-287.514c1.935,0,1.935-3,0-3S118.052-287.514,119.986-287.514L119.986-287.514z"/>
			</g>
		</g>
		<g opacity="0.7">
			<g>
				<path fill="#74AFD1" d="M118.353-282.516c1.935,0,1.935-3,0-3S116.418-282.516,118.353-282.516L118.353-282.516z"/>
			</g>
		</g>
		<g opacity="0.7">
			<g>
				<path fill="#74AFD1" d="M108.356-290.397c1.935,0,1.935-3,0-3S106.422-290.397,108.356-290.397L108.356-290.397z"/>
			</g>
		</g>
		<g opacity="0.7">
			<g>
				<path fill="#74AFD1" d="M107.684-285.399c1.935,0,1.935-3,0-3S105.749-285.399,107.684-285.399L107.684-285.399z"/>
			</g>
		</g>
		<g opacity="0.7">
			<g>
				<path fill="#74AFD1" d="M97.111-305.68c1.935,0,1.935-3,0-3S95.177-305.68,97.111-305.68L97.111-305.68z"/>
			</g>
		</g>
		<g opacity="0.7">
			<g>
				<path fill="#74AFD1" d="M92.017-310.389c1.935,0,1.935-3,0-3S90.083-310.389,92.017-310.389L92.017-310.389z"/>
			</g>
		</g>
		<g opacity="0.7">
			<g>
				<path fill="#74AFD1" d="M93.459-306.256c1.935,0,1.935-3,0-3S91.524-306.256,93.459-306.256L93.459-306.256z"/>
			</g>
		</g>
		<g opacity="0.7">
			<g>
				<path fill="#74AFD1" d="M99.514-305.776c1.935,0,1.935-3,0-3S97.58-305.776,99.514-305.776L99.514-305.776z"/>
			</g>
		</g>
		<g opacity="0.7">
			<g>
				<path fill="#74AFD1" d="M97.496-302.796c1.935,0,1.935-3,0-3S95.561-302.796,97.496-302.796L97.496-302.796z"/>
			</g>
		</g>
		<g opacity="0.7">
			<g>
				<path fill="#74AFD1" d="M99.898-302.124c1.935,0,1.935-3,0-3S97.964-302.124,99.898-302.124L99.898-302.124z"/>
			</g>
		</g>
		<g opacity="0.7">
			<g>
				<path fill="#74AFD1" d="M103.743-302.412c1.935,0,1.935-3,0-3S101.809-302.412,103.743-302.412L103.743-302.412z"/>
			</g>
		</g>
		<g opacity="0.7">
			<g>
				<path fill="#74AFD1" d="M99.129-298.183c1.935,0,1.935-3,0-3S97.195-298.183,99.129-298.183L99.129-298.183z"/>
			</g>
		</g>
		<g opacity="0.7">
			<g>
				<path fill="#74AFD1" d="M102.013-301.739c1.935,0,1.935-3,0-3S100.079-301.739,102.013-301.739L102.013-301.739z"/>
			</g>
		</g>
		<g opacity="0.7">
			<g>
				<path fill="#74AFD1" d="M106.146-300.297c1.935,0,1.935-3,0-3S104.211-300.297,106.146-300.297L106.146-300.297z"/>
			</g>
		</g>
		<g opacity="0.7">
			<g>
				<path fill="#74AFD1" d="M101.821-299.144c1.935,0,1.935-3,0-3S99.886-299.144,101.821-299.144L101.821-299.144z"/>
			</g>
		</g>
		<g opacity="0.7">
			<g>
				<path fill="#74AFD1" d="M102.013-295.876c1.935,0,1.935-3,0-3S100.079-295.876,102.013-295.876L102.013-295.876z"/>
			</g>
		</g>
		<g opacity="0.7">
			<g>
				<path fill="#74AFD1" d="M104.704-294.723c1.935,0,1.935-3,0-3S102.77-294.723,104.704-294.723L104.704-294.723z"/>
			</g>
		</g>
		<g opacity="0.7">
			<g>
				<path fill="#74AFD1" d="M107.78-296.453c1.935,0,1.935-3,0-3S105.845-296.453,107.78-296.453L107.78-296.453z"/>
			</g>
		</g>
		<g opacity="0.7">
			<g>
				<path fill="#74AFD1" d="M109.798-293.569c1.935,0,1.935-3,0-3S107.864-293.569,109.798-293.569L109.798-293.569z"/>
			</g>
		</g>
		<g opacity="0.7">
			<g>
				<path fill="#74AFD1" d="M104.993-289.244c1.935,0,1.935-3,0-3S103.058-289.244,104.993-289.244L104.993-289.244z"/>
			</g>
		</g>
		<g opacity="0.7">
			<g>
				<path fill="#74AFD1" d="M105.473-292.608c1.935,0,1.935-3,0-3S103.539-292.608,105.473-292.608L105.473-292.608z"/>
			</g>
		</g>
		<g opacity="0.7">
			<g>
				<path fill="#74AFD1" d="M114.027-293.666c1.935,0,1.935-3,0-3S112.093-293.666,114.027-293.666L114.027-293.666z"/>
			</g>
		</g>
		<g opacity="0.7">
			<g>
				<path fill="#74AFD1" d="M111.817-289.244c1.935,0,1.935-3,0-3S109.882-289.244,111.817-289.244L111.817-289.244z"/>
			</g>
		</g>
		<g opacity="0.7">
			<g>
				<path fill="#74AFD1" d="M109.702-283.573c1.935,0,1.935-3,0-3S107.768-283.573,109.702-283.573L109.702-283.573z"/>
			</g>
		</g>
		<g opacity="0.7">
			<g>
				<path fill="#74AFD1" d="M111.528-279.056c1.935,0,1.935-3,0-3S109.594-279.056,111.528-279.056L111.528-279.056z"/>
			</g>
		</g>
		<g opacity="0.7">
			<g>
				<path fill="#74AFD1" d="M114.796-281.17c1.935,0,1.935-3,0-3S112.862-281.17,114.796-281.17L114.796-281.17z"/>
			</g>
		</g>
		<g opacity="0.7">
			<g>
				<path fill="#74AFD1" d="M116.814-270.021c1.935,0,1.935-3,0-3S114.88-270.021,116.814-270.021L116.814-270.021z"/>
			</g>
		</g>
		<g opacity="0.7">
			<g>
				<path fill="#74AFD1" d="M121.14-277.422c1.935,0,1.935-3,0-3S119.205-277.422,121.14-277.422L121.14-277.422z"/>
			</g>
		</g>
		<g opacity="0.7">
			<g>
				<path fill="#74AFD1" d="M123.542-272.424c1.935,0,1.935-3,0-3S121.608-272.424,123.542-272.424L123.542-272.424z"/>
			</g>
		</g>
		<g opacity="0.7">
			<g>
				<path fill="#74AFD1" d="M129.501-277.614c1.935,0,1.935-3,0-3S127.567-277.614,129.501-277.614L129.501-277.614z"/>
			</g>
		</g>
		<g opacity="0.7">
			<g>
				<path fill="#74AFD1" d="M131.52-280.017c1.935,0,1.935-3,0-3S129.585-280.017,131.52-280.017L131.52-280.017z"/>
			</g>
		</g>
		<g opacity="0.7">
			<g>
				<path fill="#74AFD1" d="M123.062-284.342c1.935,0,1.935-3,0-3S121.127-284.342,123.062-284.342L123.062-284.342z"/>
			</g>
		</g>
		<g opacity="0.7">
			<g>
				<path fill="#74AFD1" d="M135.269-277.422c1.935,0,1.935-3,0-3S133.334-277.422,135.269-277.422L135.269-277.422z"/>
			</g>
		</g>
		<g opacity="0.7">
			<g>
				<path fill="#74AFD1" d="M141.228-278.287c1.935,0,1.935-3,0-3S139.293-278.287,141.228-278.287L141.228-278.287z"/>
			</g>
		</g>
		<g opacity="0.7">
			<g>
				<path fill="#74AFD1" d="M129.598-272.905c1.935,0,1.935-3,0-3S127.663-272.905,129.598-272.905L129.598-272.905z"/>
			</g>
		</g>
		<g opacity="0.7">
			<g>
				<path fill="#74AFD1" d="M135.941-270.886c1.935,0,1.935-3,0-3S134.007-270.886,135.941-270.886L135.941-270.886z"/>
			</g>
		</g>
		<g opacity="0.7">
			<g>
				<path fill="#74AFD1" d="M120.083-267.907c1.935,0,1.935-3,0-3S118.148-267.907,120.083-267.907L120.083-267.907z"/>
			</g>
		</g>
		<g opacity="0.7">
			<g>
				<path fill="#74AFD1" d="M119.025-260.987c1.935,0,1.935-3,0-3S117.091-260.987,119.025-260.987L119.025-260.987z"/>
			</g>
		</g>
		<g opacity="0.7">
			<g>
				<path fill="#74AFD1" d="M126.811-266.85c1.935,0,1.935-3,0-3S124.876-266.85,126.811-266.85L126.811-266.85z"/>
			</g>
		</g>
		<g opacity="0.7">
			<g>
				<path fill="#74AFD1" d="M123.542-262.236c1.935,0,1.935-3,0-3S121.608-262.236,123.542-262.236L123.542-262.236z"/>
			</g>
		</g>
		<g opacity="0.7">
			<g>
				<path fill="#74AFD1" d="M134.211-264.447c1.935,0,1.935-3,0-3S132.277-264.447,134.211-264.447L134.211-264.447z"/>
			</g>
		</g>
	</g>
	<g display="inline">
		<g opacity="0.7">
			<g>
				<path fill="#74AFD1" d="M205.552-300.145c1.935,0,1.935-3,0-3S203.617-300.145,205.552-300.145L205.552-300.145z"/>
			</g>
		</g>
		<g opacity="0.7">
			<g>
				<path fill="#74AFD1" d="M200.717-311.543c1.935,0,1.935-3,0-3C198.783-314.543,198.783-311.543,200.717-311.543L200.717-311.543
					z"/>
			</g>
		</g>
		<g opacity="0.7">
			<g>
				<path fill="#74AFD1" d="M206.796-313.371c1.935,0,1.935-3,0-3S204.861-313.371,206.796-313.371L206.796-313.371z"/>
			</g>
		</g>
		<g opacity="0.7">
			<g>
				<path fill="#74AFD1" d="M195.727-303.518c1.935,0,1.935-3,0-3S193.792-303.518,195.727-303.518L195.727-303.518z"/>
			</g>
		</g>
		<g opacity="0.7">
			<g>
				<path fill="#74AFD1" d="M201.88-341.586c1.935,0,1.935-3,0-3S199.945-341.586,201.88-341.586L201.88-341.586z"/>
			</g>
		</g>
		<g opacity="0.7">
			<g>
				<path fill="#74AFD1" d="M204.267-333.229c1.935,0,1.935-3,0-3S202.332-333.229,204.267-333.229L204.267-333.229z"/>
			</g>
		</g>
		<g opacity="0.7">
			<g>
				<path fill="#74AFD1" d="M202.37-326.838c1.935,0,1.935-3,0-3S200.436-326.838,202.37-326.838L202.37-326.838z"/>
			</g>
		</g>
		<g opacity="0.7">
			<g>
				<path fill="#74AFD1" d="M196.996-323.625c1.935,0,1.935-3,0-3S195.062-323.625,196.996-323.625L196.996-323.625z"/>
			</g>
		</g>
		<g opacity="0.7">
			<g>
				<path fill="#74AFD1" d="M206.35-320.153c1.935,0,1.935-3,0-3S204.415-320.153,206.35-320.153L206.35-320.153z"/>
			</g>
		</g>
		<g opacity="0.7">
			<g>
				<path fill="#74AFD1" d="M199.104-333.027c1.935,0,1.935-3,0-3C197.169-336.027,197.169-333.027,199.104-333.027L199.104-333.027
					z"/>
			</g>
		</g>
		<g opacity="0.7">
			<g>
				<path fill="#74AFD1" d="M199.715-338.243c1.935,0,1.935-3,0-3S197.78-338.243,199.715-338.243L199.715-338.243z"/>
			</g>
		</g>
		<g opacity="0.7">
			<g>
				<path fill="#74AFD1" d="M210.173-301.333c1.935,0,1.935-3,0-3S208.238-301.333,210.173-301.333L210.173-301.333z"/>
			</g>
		</g>
		<g opacity="0.7">
			<g>
				<path fill="#74AFD1" d="M207.298-308.841c1.935,0,1.935-3,0-3S205.363-308.841,207.298-308.841L207.298-308.841z"/>
			</g>
		</g>
		<g opacity="0.7">
			<g>
				<path fill="#74AFD1" d="M202.773-306.161c1.935,0,1.935-3,0-3S200.839-306.161,202.773-306.161L202.773-306.161z"/>
			</g>
		</g>
		<g opacity="0.7">
			<g>
				<path fill="#74AFD1" d="M200.453-318.676c1.935,0,1.935-3,0-3S198.519-318.676,200.453-318.676L200.453-318.676z"/>
			</g>
		</g>
		<g opacity="0.7">
			<g>
				<path fill="#74AFD1" d="M196.652-315.362c1.935,0,1.935-3,0-3S194.718-315.362,196.652-315.362L196.652-315.362z"/>
			</g>
		</g>
		<g opacity="0.7">
			<g>
				<path fill="#74AFD1" d="M202.074-337.581c1.935,0,1.935-3,0-3S200.14-337.581,202.074-337.581L202.074-337.581z"/>
			</g>
		</g>
		<g opacity="0.7">
			<g>
				<path fill="#74AFD1" d="M201.35-344.48c1.935,0,1.935-3,0-3S199.415-344.48,201.35-344.48L201.35-344.48z"/>
			</g>
		</g>
		<g opacity="0.7">
			<g>
				<path fill="#74AFD1" d="M199.708-340.423c1.935,0,1.935-3,0-3C197.774-343.423,197.774-340.423,199.708-340.423L199.708-340.423
					z"/>
			</g>
		</g>
		<g opacity="0.7">
			<g>
				<path fill="#74AFD1" d="M203.944-336.069c1.935,0,1.935-3,0-3S202.01-336.069,203.944-336.069L203.944-336.069z"/>
			</g>
		</g>
		<g opacity="0.7">
			<g>
				<path fill="#74AFD1" d="M200.462-335.159c1.935,0,1.935-3,0-3C198.528-338.159,198.528-335.159,200.462-335.159L200.462-335.159
					z"/>
			</g>
		</g>
		<g opacity="0.7">
			<g>
				<path fill="#74AFD1" d="M201.825-333.07c1.935,0,1.935-3,0-3S199.891-333.07,201.825-333.07L201.825-333.07z"/>
			</g>
		</g>
		<g opacity="0.7">
			<g>
				<path fill="#74AFD1" d="M204.905-330.75c1.935,0,1.935-3,0-3S202.971-330.75,204.905-330.75L204.905-330.75z"/>
			</g>
		</g>
		<g opacity="0.7">
			<g>
				<path fill="#74AFD1" d="M198.648-330.614c1.935,0,1.935-3,0-3S196.714-330.614,198.648-330.614L198.648-330.614z"/>
			</g>
		</g>
		<g opacity="0.7">
			<g>
				<path fill="#74AFD1" d="M203.162-331.386c1.935,0,1.935-3,0-3S201.228-331.386,203.162-331.386L203.162-331.386z"/>
			</g>
		</g>
		<g opacity="0.7">
			<g>
				<path fill="#74AFD1" d="M205.319-327.577c1.935,0,1.935-3,0-3S203.385-327.577,205.319-327.577L205.319-327.577z"/>
			</g>
		</g>
		<g opacity="0.7">
			<g>
				<path fill="#74AFD1" d="M201.305-329.562c1.935,0,1.935-3,0-3S199.37-329.562,201.305-329.562L201.305-329.562z"/>
			</g>
		</g>
		<g opacity="0.7">
			<g>
				<path fill="#74AFD1" d="M199.296-326.978c1.935,0,1.935-3,0-3C197.362-329.978,197.362-326.978,199.296-326.978L199.296-326.978
					z"/>
			</g>
		</g>
		<g opacity="0.7">
			<g>
				<path fill="#74AFD1" d="M200.559-324.336c1.935,0,1.935-3,0-3C198.625-327.336,198.625-324.336,200.559-324.336L200.559-324.336
					z"/>
			</g>
		</g>
		<g opacity="0.7">
			<g>
				<path fill="#74AFD1" d="M204.012-323.609c1.935,0,1.935-3,0-3S202.077-323.609,204.012-323.609L204.012-323.609z"/>
			</g>
		</g>
		<g opacity="0.7">
			<g>
				<path fill="#74AFD1" d="M203.629-320.11c1.935,0,1.935-3,0-3S201.694-320.11,203.629-320.11L203.629-320.11z"/>
			</g>
		</g>
		<g opacity="0.7">
			<g>
				<path fill="#74AFD1" d="M197.164-320.027c1.935,0,1.935-3,0-3S195.229-320.027,197.164-320.027L197.164-320.027z"/>
			</g>
		</g>
		<g opacity="0.7">
			<g>
				<path fill="#74AFD1" d="M199.743-322.24c1.935,0,1.935-3,0-3S197.809-322.24,199.743-322.24L199.743-322.24z"/>
			</g>
		</g>
		<g opacity="0.7">
			<g>
				<path fill="#74AFD1" d="M206.872-317.395c1.935,0,1.935-3,0-3S204.938-317.395,206.872-317.395L206.872-317.395z"/>
			</g>
		</g>
		<g opacity="0.7">
			<g>
				<path fill="#74AFD1" d="M202.294-315.528c1.935,0,1.935-3,0-3S200.359-315.528,202.294-315.528L202.294-315.528z"/>
			</g>
		</g>
		<g opacity="0.7">
			<g>
				<path fill="#74AFD1" d="M196.966-312.658c1.935,0,1.935-3,0-3S195.032-312.658,196.966-312.658L196.966-312.658z"/>
			</g>
		</g>
		<g opacity="0.7">
			<g>
				<path fill="#74AFD1" d="M195.36-308.058c1.935,0,1.935-3,0-3S193.426-308.058,195.36-308.058L195.36-308.058z"/>
			</g>
		</g>
		<g opacity="0.7">
			<g>
				<path fill="#74AFD1" d="M199.213-307.493c1.935,0,1.935-3,0-3S197.278-307.493,199.213-307.493L199.213-307.493z"/>
			</g>
		</g>
		<g opacity="0.7">
			<g>
				<path fill="#74AFD1" d="M193.379-297.78c1.935,0,1.935-3,0-3S191.444-297.78,193.379-297.78L193.379-297.78z"/>
			</g>
		</g>
		<g opacity="0.7">
			<g>
				<path fill="#74AFD1" d="M201.512-300.493c1.935,0,1.935-3,0-3S199.577-300.493,201.512-300.493L201.512-300.493z"/>
			</g>
		</g>
		<g opacity="0.7">
			<g>
				<path fill="#74AFD1" d="M200.022-295.15c1.935,0,1.935-3,0-3S198.088-295.15,200.022-295.15L200.022-295.15z"/>
			</g>
		</g>
		<g opacity="0.7">
			<g>
				<path fill="#74AFD1" d="M207.925-295.124c1.935,0,1.935-3,0-3S205.99-295.124,207.925-295.124L207.925-295.124z"/>
			</g>
		</g>
		<g opacity="0.7">
			<g>
				<path fill="#74AFD1" d="M211.025-295.6c1.935,0,1.935-3,0-3S209.091-295.6,211.025-295.6L211.025-295.6z"/>
			</g>
		</g>
		<g opacity="0.7">
			<g>
				<path fill="#74AFD1" d="M207.519-304.429c1.935,0,1.935-3,0-3S205.584-304.429,207.519-304.429L207.519-304.429z"/>
			</g>
		</g>
		<g opacity="0.7">
			<g>
				<path fill="#74AFD1" d="M212.134-291.178c1.935,0,1.935-3,0-3S210.199-291.178,212.134-291.178L212.134-291.178z"/>
			</g>
		</g>
		<g opacity="0.7">
			<g>
				<path fill="#74AFD1" d="M217.185-287.899c1.935,0,1.935-3,0-3S215.25-287.899,217.185-287.899L217.185-287.899z"/>
			</g>
		</g>
		<g opacity="0.7">
			<g>
				<path fill="#74AFD1" d="M204.892-291.52c1.935,0,1.935-3,0-3S202.957-291.52,204.892-291.52L204.892-291.52z"/>
			</g>
		</g>
		<g opacity="0.7">
			<g>
				<path fill="#74AFD1" d="M208.33-285.819c1.935,0,1.935-3,0-3S206.396-285.819,208.33-285.819L208.33-285.819z"/>
			</g>
		</g>
		<g opacity="0.7">
			<g>
				<path fill="#74AFD1" d="M194.442-294.036c1.935,0,1.935-3,0-3S192.507-294.036,194.442-294.036L194.442-294.036z"/>
			</g>
		</g>
		<g opacity="0.7">
			<g>
				<path fill="#74AFD1" d="M189.085-289.53c1.935,0,1.935-3,0-3S187.15-289.53,189.085-289.53L189.085-289.53z"/>
			</g>
		</g>
		<g opacity="0.7">
			<g>
				<path fill="#74AFD1" d="M198.803-288.804c1.935,0,1.935-3,0-3S196.869-288.804,198.803-288.804L198.803-288.804z"/>
			</g>
		</g>
		<g opacity="0.7">
			<g>
				<path fill="#74AFD1" d="M193.305-287.49c1.935,0,1.935-3,0-3S191.371-287.49,193.305-287.49L193.305-287.49z"/>
			</g>
		</g>
		<g opacity="0.7">
			<g>
				<path fill="#74AFD1" d="M202.784-282.119c1.935,0,1.935-3,0-3S200.85-282.119,202.784-282.119L202.784-282.119z"/>
			</g>
		</g>
	</g>
	<g display="inline">
		<g opacity="0.7">
			<g>
				<path fill="#74AFD1" d="M283.774-268.111c1.935,0,1.935-3,0-3S281.84-268.111,283.774-268.111L283.774-268.111z"/>
			</g>
		</g>
		<g opacity="0.7">
			<g>
				<path fill="#74AFD1" d="M288.364-279.61c1.935,0,1.935-3,0-3S286.43-279.61,288.364-279.61L288.364-279.61z"/>
			</g>
		</g>
		<g opacity="0.7">
			<g>
				<path fill="#74AFD1" d="M293.969-276.629c1.935,0,1.935-3,0-3S292.034-276.629,293.969-276.629L293.969-276.629z"/>
			</g>
		</g>
		<g opacity="0.7">
			<g>
				<path fill="#74AFD1" d="M279.171-277.423c1.935,0,1.935-3,0-3S277.236-277.423,279.171-277.423L279.171-277.423z"/>
			</g>
		</g>
		<g opacity="0.7">
			<g>
				<path fill="#74AFD1" d="M310.34-300.129c1.935,0,1.935-3,0-3S308.405-300.129,310.34-300.129L310.34-300.129z"/>
			</g>
		</g>
		<g opacity="0.7">
			<g>
				<path fill="#74AFD1" d="M306.152-292.514c1.935,0,1.935-3,0-3S304.218-292.514,306.152-292.514L306.152-292.514z"/>
			</g>
		</g>
		<g opacity="0.7">
			<g>
				<path fill="#74AFD1" d="M300.307-289.31c1.935,0,1.935-3,0-3S298.372-289.31,300.307-289.31L300.307-289.31z"/>
			</g>
		</g>
		<g opacity="0.7">
			<g>
				<path fill="#74AFD1" d="M294.228-290.811c1.935,0,1.935-3,0-3S292.293-290.811,294.228-290.811L294.228-290.811z"/>
			</g>
		</g>
		<g opacity="0.7">
			<g>
				<path fill="#74AFD1" d="M298.427-281.76c1.935,0,1.935-3,0-3S296.492-281.76,298.427-281.76L298.427-281.76z"/>
			</g>
		</g>
		<g opacity="0.7">
			<g>
				<path fill="#74AFD1" d="M302.343-296.005c1.935,0,1.935-3,0-3S300.408-296.005,302.343-296.005L302.343-296.005z"/>
			</g>
		</g>
		<g opacity="0.7">
			<g>
				<path fill="#74AFD1" d="M306.449-299.279c1.935,0,1.935-3,0-3S304.515-299.279,306.449-299.279L306.449-299.279z"/>
			</g>
		</g>
		<g opacity="0.7">
			<g>
				<path fill="#74AFD1" d="M287.893-265.702c1.935,0,1.935-3,0-3S285.958-265.702,287.893-265.702L287.893-265.702z"/>
			</g>
		</g>
		<g opacity="0.7">
			<g>
				<path fill="#74AFD1" d="M291.136-273.059c1.935,0,1.935-3,0-3S289.201-273.059,291.136-273.059L291.136-273.059z"/>
			</g>
		</g>
		<g opacity="0.7">
			<g>
				<path fill="#74AFD1" d="M286.035-274.34c1.935,0,1.935-3,0-3S284.101-274.34,286.035-274.34L286.035-274.34z"/>
			</g>
		</g>
		<g opacity="0.7">
			<g>
				<path fill="#74AFD1" d="M293.199-284.862c1.935,0,1.935-3,0-3S291.265-284.862,293.199-284.862L293.199-284.862z"/>
			</g>
		</g>
		<g opacity="0.7">
			<g>
				<path fill="#74AFD1" d="M288.166-285.184c1.935,0,1.935-3,0-3S286.231-285.184,288.166-285.184L288.166-285.184z"/>
			</g>
		</g>
		<g opacity="0.7">
			<g>
				<path fill="#74AFD1" d="M307.658-297.148c1.935,0,1.935-3,0-3S305.724-297.148,307.658-297.148L307.658-297.148z"/>
			</g>
		</g>
		<g opacity="0.7">
			<g>
				<path fill="#74AFD1" d="M312-302.558c1.935,0,1.935-3,0-3S310.065-302.558,312-302.558L312-302.558z"/>
			</g>
		</g>
		<g opacity="0.7">
			<g>
				<path fill="#74AFD1" d="M307.978-300.832c1.935,0,1.935-3,0-3S306.043-300.832,307.978-300.832L307.978-300.832z"/>
			</g>
		</g>
		<g opacity="0.7">
			<g>
				<path fill="#74AFD1" d="M307.922-294.758c1.935,0,1.935-3,0-3S305.987-294.758,307.922-294.758L307.922-294.758z"/>
			</g>
		</g>
		<g opacity="0.7">
			<g>
				<path fill="#74AFD1" d="M304.809-296.562c1.935,0,1.935-3,0-3S302.874-296.562,304.809-296.562L304.809-296.562z"/>
			</g>
		</g>
		<g opacity="0.7">
			<g>
				<path fill="#74AFD1" d="M304.306-294.119c1.935,0,1.935-3,0-3S302.371-294.119,304.306-294.119L304.306-294.119z"/>
			</g>
		</g>
		<g opacity="0.7">
			<g>
				<path fill="#74AFD1" d="M304.861-290.304c1.935,0,1.935-3,0-3S302.927-290.304,304.861-290.304L304.861-290.304z"/>
			</g>
		</g>
		<g opacity="0.7">
			<g>
				<path fill="#74AFD1" d="M300.32-294.611c1.935,0,1.935-3,0-3S298.386-294.611,300.32-294.611L300.32-294.611z"/>
			</g>
		</g>
		<g opacity="0.7">
			<g>
				<path fill="#74AFD1" d="M304.069-291.982c1.935,0,1.935-3,0-3S302.135-291.982,304.069-291.982L304.069-291.982z"/>
			</g>
		</g>
		<g opacity="0.7">
			<g>
				<path fill="#74AFD1" d="M302.92-287.758c1.935,0,1.935-3,0-3S300.985-287.758,302.92-287.758L302.92-287.758z"/>
			</g>
		</g>
		<g opacity="0.7">
			<g>
				<path fill="#74AFD1" d="M301.468-291.994c1.935,0,1.935-3,0-3S299.533-291.994,301.468-291.994L301.468-291.994z"/>
			</g>
		</g>
		<g opacity="0.7">
			<g>
				<path fill="#74AFD1" d="M298.221-291.572c1.935,0,1.935-3,0-3S296.286-291.572,298.221-291.572L298.221-291.572z"/>
			</g>
		</g>
		<g opacity="0.7">
			<g>
				<path fill="#74AFD1" d="M297.259-288.808c1.935,0,1.935-3,0-3S295.324-288.808,297.259-288.808L297.259-288.808z"/>
			</g>
		</g>
		<g opacity="0.7">
			<g>
				<path fill="#74AFD1" d="M299.199-285.861c1.935,0,1.935-3,0-3S297.265-285.861,299.199-285.861L299.199-285.861z"/>
			</g>
		</g>
		<g opacity="0.7">
			<g>
				<path fill="#74AFD1" d="M296.464-283.645c1.935,0,1.935-3,0-3S294.529-283.645,296.464-283.645L296.464-283.645z"/>
			</g>
		</g>
		<g opacity="0.7">
			<g>
				<path fill="#74AFD1" d="M291.813-288.138c1.935,0,1.935-3,0-3S289.879-288.138,291.813-288.138L291.813-288.138z"/>
			</g>
		</g>
		<g opacity="0.7">
			<g>
				<path fill="#74AFD1" d="M295.203-287.894c1.935,0,1.935-3,0-3S293.269-287.894,295.203-287.894L295.203-287.894z"/>
			</g>
		</g>
		<g opacity="0.7">
			<g>
				<path fill="#74AFD1" d="M296.855-279.434c1.935,0,1.935-3,0-3S294.921-279.434,296.855-279.434L296.855-279.434z"/>
			</g>
		</g>
		<g opacity="0.7">
			<g>
				<path fill="#74AFD1" d="M292.29-281.33c1.935,0,1.935-3,0-3S290.355-281.33,292.29-281.33L292.29-281.33z"/>
			</g>
		</g>
		<g opacity="0.7">
			<g>
				<path fill="#74AFD1" d="M286.485-283.043c1.935,0,1.935-3,0-3S284.551-283.043,286.485-283.043L286.485-283.043z"/>
			</g>
		</g>
		<g opacity="0.7">
			<g>
				<path fill="#74AFD1" d="M282.107-280.905c1.935,0,1.935-3,0-3S280.173-280.905,282.107-280.905L282.107-280.905z"/>
			</g>
		</g>
		<g opacity="0.7">
			<g>
				<path fill="#74AFD1" d="M284.444-277.792c1.935,0,1.935-3,0-3S282.51-277.792,284.444-277.792L284.444-277.792z"/>
			</g>
		</g>
		<g opacity="0.7">
			<g>
				<path fill="#74AFD1" d="M273.464-275.001c1.935,0,1.935-3,0-3S271.529-275.001,273.464-275.001L273.464-275.001z"/>
			</g>
		</g>
		<g opacity="0.7">
			<g>
				<path fill="#74AFD1" d="M281.148-271.204c1.935,0,1.935-3,0-3S279.214-271.204,281.148-271.204L281.148-271.204z"/>
			</g>
		</g>
		<g opacity="0.7">
			<g>
				<path fill="#74AFD1" d="M276.331-268.457c1.935,0,1.935-3,0-3S274.396-268.457,276.331-268.457L276.331-268.457z"/>
			</g>
		</g>
		<g opacity="0.7">
			<g>
				<path fill="#74AFD1" d="M281.925-262.875c1.935,0,1.935-3,0-3S279.99-262.875,281.925-262.875L281.925-262.875z"/>
			</g>
		</g>
		<g opacity="0.7">
			<g>
				<path fill="#74AFD1" d="M284.463-261.03c1.935,0,1.935-3,0-3S282.528-261.03,284.463-261.03L284.463-261.03z"/>
			</g>
		</g>
		<g opacity="0.7">
			<g>
				<path fill="#74AFD1" d="M288.187-269.769c1.935,0,1.935-3,0-3S286.252-269.769,288.187-269.769L288.187-269.769z"/>
			</g>
		</g>
		<g opacity="0.7">
			<g>
				<path fill="#74AFD1" d="M282.136-257.109c1.935,0,1.935-3,0-3S280.201-257.109,282.136-257.109L282.136-257.109z"/>
			</g>
		</g>
		<g opacity="0.7">
			<g>
				<path fill="#74AFD1" d="M283.415-251.225c1.935,0,1.935-3,0-3S281.48-251.225,283.415-251.225L283.415-251.225z"/>
			</g>
		</g>
		<g opacity="0.7">
			<g>
				<path fill="#74AFD1" d="M277.233-262.45c1.935,0,1.935-3,0-3S275.299-262.45,277.233-262.45L277.233-262.45z"/>
			</g>
		</g>
		<g opacity="0.7">
			<g>
				<path fill="#74AFD1" d="M275.663-255.981c1.935,0,1.935-3,0-3S273.729-255.981,275.663-255.981L275.663-255.981z"/>
			</g>
		</g>
		<g opacity="0.7">
			<g>
				<path fill="#74AFD1" d="M271.583-271.593c1.935,0,1.935-3,0-3S269.648-271.593,271.583-271.593L271.583-271.593z"/>
			</g>
		</g>
		<g opacity="0.7">
			<g>
				<path fill="#74AFD1" d="M264.605-272.164c1.935,0,1.935-3,0-3S262.671-272.164,264.605-272.164L264.605-272.164z"/>
			</g>
		</g>
		<g opacity="0.7">
			<g>
				<path fill="#74AFD1" d="M270.998-264.808c1.935,0,1.935-3,0-3S269.063-264.808,270.998-264.808L270.998-264.808z"/>
			</g>
		</g>
		<g opacity="0.7">
			<g>
				<path fill="#74AFD1" d="M266.168-267.745c1.935,0,1.935-3,0-3S264.233-267.745,266.168-267.745L266.168-267.745z"/>
			</g>
		</g>
		<g opacity="0.7">
			<g>
				<path fill="#74AFD1" d="M269.118-257.257c1.935,0,1.935-3,0-3S267.184-257.257,269.118-257.257L269.118-257.257z"/>
			</g>
		</g>
	</g>
	<g display="inline">
		<g>
			<path fill="#74AFD1" d="M207.783-324.622c1.935,0,1.935-3,0-3S205.849-324.622,207.783-324.622L207.783-324.622z"/>
		</g>
	</g>
	<g display="inline">
		<g>
			<path fill="#74AFD1" d="M204.09-340.046c1.935,0,1.935-3,0-3S202.155-340.046,204.09-340.046L204.09-340.046z"/>
		</g>
	</g>
	<g display="inline">
		<g>
			<path fill="#74AFD1" d="M196.269-327.446c1.935,0,1.935-3,0-3S194.334-327.446,196.269-327.446L196.269-327.446z"/>
		</g>
	</g>
	<g display="inline">
		<g>
			<path fill="#74AFD1" d="M195.4-321.146c1.935,0,1.935-3,0-3S193.465-321.146,195.4-321.146L195.4-321.146z"/>
		</g>
	</g>
	<g display="inline">
		<g>
			<path fill="#74AFD1" d="M193.662-312.89c1.935,0,1.935-3,0-3S191.727-312.89,193.662-312.89L193.662-312.89z"/>
		</g>
	</g>
	<g display="inline">
		<g>
			<path fill="#74AFD1" d="M191.924-305.069c1.935,0,1.935-3,0-3S189.989-305.069,191.924-305.069L191.924-305.069z"/>
		</g>
	</g>
	<g display="inline">
		<g>
			<path fill="#74AFD1" d="M190.837-298.334c1.935,0,1.935-3,0-3S188.903-298.334,190.837-298.334L190.837-298.334z"/>
		</g>
	</g>
	<g display="inline">
		<g>
			<path fill="#74AFD1" d="M203.872-310.717c1.935,0,1.935-3,0-3S201.938-310.717,203.872-310.717L203.872-310.717z"/>
		</g>
	</g>
	<g display="inline">
		<g>
			<path fill="#74AFD1" d="M209.304-320.059c1.935,0,1.935-3,0-3S207.369-320.059,209.304-320.059L209.304-320.059z"/>
		</g>
	</g>
	<g display="inline">
		<g>
			<path fill="#74AFD1" d="M210.173-315.28c1.935,0,1.935-3,0-3S208.238-315.28,210.173-315.28L210.173-315.28z"/>
		</g>
	</g>
	<g display="inline">
		<g>
			<path fill="#74AFD1" d="M211.693-309.631c1.935,0,1.935-3,0-3S209.759-309.631,211.693-309.631L211.693-309.631z"/>
		</g>
	</g>
	<g display="inline">
		<g>
			<path fill="#74AFD1" d="M212.562-304.417c1.935,0,1.935-3,0-3S210.628-304.417,212.562-304.417L212.562-304.417z"/>
		</g>
	</g>
	<g display="inline">
		<g>
			<path fill="#74AFD1" d="M214.735-297.683c1.935,0,1.935-3,0-3S212.801-297.683,214.735-297.683L214.735-297.683z"/>
		</g>
	</g>
	<g display="inline">
		<g>
			<path fill="#74AFD1" d="M218.428-293.555c1.935,0,1.935-3,0-3S216.493-293.555,218.428-293.555L218.428-293.555z"/>
		</g>
	</g>
	<g display="inline">
		<g>
			<path fill="#74AFD1" d="M224.294-290.73c1.935,0,1.935-3,0-3S222.359-290.73,224.294-290.73L224.294-290.73z"/>
		</g>
	</g>
	<g display="inline">
		<g>
			<path fill="#74AFD1" d="M230.377-288.993c1.935,0,1.935-3,0-3S228.442-288.993,230.377-288.993L230.377-288.993z"/>
		</g>
	</g>
	<g display="inline">
		<g>
			<path fill="#74AFD1" d="M224.294-285.299c1.935,0,1.935-3,0-3S222.359-285.299,224.294-285.299L224.294-285.299z"/>
		</g>
	</g>
	<g display="inline">
		<g>
			<path fill="#74AFD1" d="M241.674-285.517c1.935,0,1.935-3,0-3S239.739-285.517,241.674-285.517L241.674-285.517z"/>
		</g>
	</g>
	<g display="inline">
		<g>
			<path fill="#74AFD1" d="M249.061-282.041c1.935,0,1.935-3,0-3S247.126-282.041,249.061-282.041L249.061-282.041z"/>
		</g>
	</g>
	<g display="inline">
		<g>
			<path fill="#74AFD1" d="M257.315-279.868c1.935,0,1.935-3,0-3S255.381-279.868,257.315-279.868L257.315-279.868z"/>
		</g>
	</g>
	<g display="inline">
		<g>
			<path fill="#74AFD1" d="M265.137-276.609c1.935,0,1.935-3,0-3S263.202-276.609,265.137-276.609L265.137-276.609z"/>
		</g>
	</g>
	<g display="inline">
		<g>
			<path fill="#74AFD1" d="M260.574-274.437c1.935,0,1.935-3,0-3S258.64-274.437,260.574-274.437L260.574-274.437z"/>
		</g>
	</g>
	<g display="inline">
		<g>
			<path fill="#74AFD1" d="M253.405-278.13c1.935,0,1.935-3,0-3S251.471-278.13,253.405-278.13L253.405-278.13z"/>
		</g>
	</g>
	<g display="inline">
		<g>
			<path fill="#74AFD1" d="M235.808-284.865c1.935,0,1.935-3,0-3S233.873-284.865,235.808-284.865L235.808-284.865z"/>
		</g>
	</g>
	<g display="inline">
		<g>
			<path fill="#74AFD1" d="M287.079-258.361c1.935,0,1.935-3,0-3S285.145-258.361,287.079-258.361L287.079-258.361z"/>
		</g>
	</g>
	<g display="inline">
		<g>
			<path fill="#74AFD1" d="M292.728-251.843c1.935,0,1.935-3,0-3S290.793-251.843,292.728-251.843L292.728-251.843z"/>
		</g>
	</g>
	<g display="inline">
		<g>
			<path fill="#74AFD1" d="M296.855-245.543c1.935,0,1.935-3,0-3S294.921-245.543,296.855-245.543L296.855-245.543z"/>
		</g>
	</g>
	<g display="inline">
		<g>
			<path fill="#74AFD1" d="M305.328-230.77c1.935,0,1.935-3,0-3S303.394-230.77,305.328-230.77L305.328-230.77z"/>
		</g>
	</g>
	<g display="inline">
		<g>
			<path fill="#74AFD1" d="M302.286-236.636c1.935,0,1.935-3,0-3S300.352-236.636,302.286-236.636L302.286-236.636z"/>
		</g>
	</g>
	<g display="inline">
		<g>
			<path fill="#74AFD1" d="M300.331-241.632c1.935,0,1.935-3,0-3S298.396-241.632,300.331-241.632L300.331-241.632z"/>
		</g>
	</g>
	<g display="inline">
		<g>
			<path fill="#74AFD1" d="M290.555-247.715c1.935,0,1.935-3,0-3S288.62-247.715,290.555-247.715L290.555-247.715z"/>
		</g>
	</g>
	<g display="inline">
		<g>
			<path fill="#74AFD1" d="M287.079-253.146c1.935,0,1.935-3,0-3S285.145-253.146,287.079-253.146L287.079-253.146z"/>
		</g>
	</g>
	<g display="inline">
		<g>
			<path fill="#74AFD1" d="M115.017-259.23c1.935,0,1.935-3,0-3S113.083-259.23,115.017-259.23L115.017-259.23z"/>
		</g>
	</g>
	<g display="inline">
		<g>
			<path fill="#74AFD1" d="M109.151-252.278c1.935,0,1.935-3,0-3S107.217-252.278,109.151-252.278L109.151-252.278z"/>
		</g>
	</g>
	<g display="inline">
		<g>
			<path fill="#74AFD1" d="M103.937-244.023c1.935,0,1.935-3,0-3S102.002-244.023,103.937-244.023L103.937-244.023z"/>
		</g>
	</g>
	<g display="inline">
		<g>
			<path fill="#74AFD1" d="M106.327-248.802c1.935,0,1.935-3,0-3S104.393-248.802,106.327-248.802L106.327-248.802z"/>
		</g>
	</g>
	<g display="inline">
		<g>
			<path fill="#74AFD1" d="M111.758-255.754c1.935,0,1.935-3,0-3S109.824-255.754,111.758-255.754L111.758-255.754z"/>
		</g>
	</g>
	<g display="inline">
		<g>
			<path fill="#74AFD1" d="M119.579-257.058c1.935,0,1.935-3,0-3S117.645-257.058,119.579-257.058L119.579-257.058z"/>
		</g>
	</g>
	<g display="inline">
		<g>
			<path fill="#74AFD1" d="M113.496-253.147c1.935,0,1.935-3,0-3S111.562-253.147,113.496-253.147L113.496-253.147z"/>
		</g>
	</g>
	<g display="inline">
		<g>
			<path fill="#74AFD1" d="M109.585-247.934c1.935,0,1.935-3,0-3S107.651-247.934,109.585-247.934L109.585-247.934z"/>
		</g>
	</g>
	<g display="inline">
		<g>
			<path fill="#74AFD1" d="M100.244-238.157c1.935,0,1.935-3,0-3S98.31-238.157,100.244-238.157L100.244-238.157z"/>
		</g>
	</g>
	<g display="inline">
		<g>
			<path fill="#74AFD1" d="M126.966-259.882c1.935,0,1.935-3,0-3S125.031-259.882,126.966-259.882L126.966-259.882z"/>
		</g>
	</g>
	<g display="inline">
		<g>
			<path fill="#74AFD1" d="M140.87-274.003c1.935,0,1.935-3,0-3S138.935-274.003,140.87-274.003L140.87-274.003z"/>
		</g>
	</g>
	<g display="inline">
		<g>
			<path fill="#74AFD1" d="M147.822-280.738c1.935,0,1.935-3,0-3S145.887-280.738,147.822-280.738L147.822-280.738z"/>
		</g>
	</g>
	<g display="inline">
		<g>
			<path fill="#74AFD1" d="M157.38-283.128c1.935,0,1.935-3,0-3S155.446-283.128,157.38-283.128L157.38-283.128z"/>
		</g>
	</g>
	<g display="inline">
		<g>
			<path fill="#74AFD1" d="M169.329-282.693c1.935,0,1.935-3,0-3S167.395-282.693,169.329-282.693L169.329-282.693z"/>
		</g>
	</g>
	<g display="inline">
		<g>
			<path fill="#74AFD1" d="M173.24-287.473c1.935,0,1.935-3,0-3S171.305-287.473,173.24-287.473L173.24-287.473z"/>
		</g>
	</g>
	<g display="inline">
		<g>
			<path fill="#74AFD1" d="M180.626-292.687c1.935,0,1.935-3,0-3S178.692-292.687,180.626-292.687L180.626-292.687z"/>
		</g>
	</g>
	<g display="inline">
		<g>
			<path fill="#74AFD1" d="M181.278-287.039c1.935,0,1.935-3,0-3S179.343-287.039,181.278-287.039L181.278-287.039z"/>
		</g>
	</g>
	<g display="inline">
		<g>
			<path fill="#74AFD1" d="M164.333-286.169c1.935,0,1.935-3,0-3S162.398-286.169,164.333-286.169L164.333-286.169z"/>
		</g>
	</g>
	<g display="inline">
		<g>
			<path fill="#74AFD1" d="M160.856-280.521c1.935,0,1.935-3,0-3S158.922-280.521,160.856-280.521L160.856-280.521z"/>
		</g>
	</g>
	<g display="inline">
		<g>
			<path fill="#74AFD1" d="M149.125-276.176c1.935,0,1.935-3,0-3S147.19-276.176,149.125-276.176L149.125-276.176z"/>
		</g>
	</g>
	<g display="inline">
		<g>
			<path fill="#74AFD1" d="M141.304-268.79c1.935,0,1.935-3,0-3S139.37-268.79,141.304-268.79L141.304-268.79z"/>
		</g>
	</g>
	<g display="inline">
		<g>
			<path fill="#74AFD1" d="M154.339-279.652c1.935,0,1.935-3,0-3S152.404-279.652,154.339-279.652L154.339-279.652z"/>
		</g>
	</g>
	<g display="inline">
		<g>
			<path fill="#74AFD1" d="M168.46-290.08c1.935,0,1.935-3,0-3S166.526-290.08,168.46-290.08L168.46-290.08z"/>
		</g>
	</g>
</g>
</svg>
