<?xml version="1.0" encoding="utf-8"?>
<!-- Generator: Adobe Illustrator 15.1.0, SVG Export Plug-In . SVG Version: 6.00 Build 0)  -->
<!DOCTYPE svg PUBLIC "-//W3C//DTD SVG 1.1//EN" "http://www.w3.org/Graphics/SVG/1.1/DTD/svg11.dtd">
<svg version="1.1" xmlns="http://www.w3.org/2000/svg" xmlns:xlink="http://www.w3.org/1999/xlink" x="0px" y="0px" width="400px"
	 height="400px" viewBox="0 0 400 400" enable-background="new 0 0 400 400" xml:space="preserve">
<g id="guide_lines_layer" display="none">
	<rect x="0.751" y="409.988" display="inline" fill="#FFFFFF" stroke="#000000" stroke-miterlimit="10" width="75" height="400"/>
	<rect x="325.001" y="405.989" display="inline" fill="#FFFFFF" stroke="#000000" stroke-miterlimit="10" width="75" height="400"/>
	<rect x="325.001" y="3" display="inline" fill="#FFFFFF" stroke="#000000" stroke-miterlimit="10" width="75" height="400"/>
	<rect x="0.751" y="3" display="inline" fill="#FFFFFF" stroke="#000000" stroke-miterlimit="10" width="75" height="400"/>
	<rect x="460.06" y="-1.5" display="inline" fill="#FFFFFF" stroke="#000000" stroke-miterlimit="10" width="75" height="400"/>
	<rect x="785.06" y="-2.5" display="inline" fill="#FFFFFF" stroke="#000000" stroke-miterlimit="10" width="75" height="400"/>
	<rect x="785.059" y="405.535" display="inline" fill="#FFFFFF" stroke="#000000" stroke-miterlimit="10" width="75" height="400"/>
	<rect x="460.059" y="405.535" display="inline" fill="#FFFFFF" stroke="#000000" stroke-miterlimit="10" width="75" height="400"/>
	<rect x="0.751" y="811.553" display="inline" fill="#FFFFFF" stroke="#000000" stroke-miterlimit="10" width="75" height="400"/>
	<rect x="325.001" y="811.553" display="inline" fill="#FFFFFF" stroke="#000000" stroke-miterlimit="10" width="75" height="400"/>
	<rect x="786.559" y="811.553" display="inline" fill="#FFFFFF" stroke="#000000" stroke-miterlimit="10" width="75" height="400"/>
	<rect x="461.559" y="811.553" display="inline" fill="#FFFFFF" stroke="#000000" stroke-miterlimit="10" width="75" height="400"/>
	<rect x="916.334" y="-0.333" display="inline" fill="#FFFFFF" stroke="#000000" stroke-miterlimit="10" width="75" height="400"/>
	
		<rect x="1241.334" y="-0.333" display="inline" fill="#FFFFFF" stroke="#000000" stroke-miterlimit="10" width="75" height="399.999"/>
	<rect x="1240.001" y="413" display="inline" fill="#FFFFFF" stroke="#000000" stroke-miterlimit="10" width="75" height="400"/>
	<rect x="915.001" y="413" display="inline" fill="#FFFFFF" stroke="#000000" stroke-miterlimit="10" width="75" height="400"/>
	<rect x="1241.334" y="820" display="inline" fill="#FFFFFF" stroke="#000000" stroke-miterlimit="10" width="75" height="400"/>
	<rect x="916.334" y="821" display="inline" fill="#FFFFFF" stroke="#000000" stroke-miterlimit="10" width="75" height="400"/>
	<rect x="1389.606" y="-0.969" display="inline" fill="#FFFFFF" stroke="#000000" stroke-miterlimit="10" width="75" height="400"/>
	
		<rect x="1714.606" y="-0.969" display="inline" fill="#FFFFFF" stroke="#000000" stroke-miterlimit="10" width="75" height="399.999"/>
	<rect x="1713.273" y="414" display="inline" fill="#FFFFFF" stroke="#000000" stroke-miterlimit="10" width="75" height="400"/>
	<rect x="1389.001" y="414" display="inline" fill="#FFFFFF" stroke="#000000" stroke-miterlimit="10" width="75" height="400"/>
	
		<rect x="1713.273" y="819.364" display="inline" fill="#FFFFFF" stroke="#000000" stroke-miterlimit="10" width="75" height="400"/>
	
		<rect x="1388.273" y="820.364" display="inline" fill="#FFFFFF" stroke="#000000" stroke-miterlimit="10" width="75" height="400"/>
</g>
<g id="body_layer">
	<path fill="#DBCD7D" d="M1511.336,136.667c0,0-63.33-68.667-118.667-8.667c62.715-18,76.856-2,88.539,29.334
		C1492.51,187.644,1511.336,136.667,1511.336,136.667z"/>
	<path fill="#DBCD7D" d="M1656.001,138.667c0,0,63.33-68.667,118.667-8.667c-62.715-18-76.856-2-88.539,29.333
		C1674.827,189.644,1656.001,138.667,1656.001,138.667z"/>
	<path fill="#7DC6DD" d="M75.668,400.001c-2.883-20-6.001-94.502-1.501-143.002c3.743-40.334,17.835-96.814,42.335-118.185
		c3.563-3.109-30.615-46.477-26.834-49.162c3.812-2.707,45.584,35.273,49.586,33.007c14.496-8.207,30.145-13.495,46.222-15.626
		c5.358-0.71,10.294-53.233,15.722-53.233c6.436,0,13.158,52.65,19.217,53.576c18.174,2.776,34.613,9.508,49.126,18.933
		c2.902,1.885,44.048-32.705,46.795-30.614c3.355,2.554-31.726,41.835-28.608,44.662c29.753,26.976,31.94,73.644,35.44,119.144
		c2.627,34.148,4.752,126.445,1.92,140.279L75.668,400.001z"/>
	<path fill="#79C2EA" stroke="#FFFFFF" stroke-miterlimit="10" d="M-223.999,206"/>
	<path fill="#7DC6DD" d="M75.001,406v46c0,0-4,30-21,37s-27,11-27,31s11,36-6,41s-14,15,0,15s25.353-13.575,26.774-25.657
		c1.963-16.687-8.344-22.576,7.853-32.883c9.972-6.346,19.141-5.399,19.141-5.399l-0.492,53.985c0,0-28.436,6.475-36.318,25.523
		C26.18,620.034,42.927,638.786,39.001,654c-6.039,23.4-23.395,19.503-22.5,28c1,9.5,37.038,0.956,39-28
		c1.114-16.443-2.814-21.393-3.309-29.06c-0.982-15.214,9.325-26.993,23.067-25.519L75.001,688c0,0,0.629,17.897-13.484,28.718
		c-14.724,11.288-18.65,9.815-26.012,16.688c-17.939,16.744-6.871,35.827-15.706,41.718C5.736,784.5,4.584,796.718,16.854,791.81
		c22.104-8.843,21.777-16.334,24.54-33.374C44.338,740.277,71.001,736,71.001,736h4l0.903,70.988h111.097l7-400L75.001,406z"/>
	<path fill="#7DC6DD" d="M71.001,736"/>
	<circle fill="#36A1BA" cx="52.168" cy="495.167" r="7.833"/>
	<circle fill="#36A1BA" cx="53.168" cy="516.167" r="6.167"/>
	<circle fill="#36A1BA" cx="35.502" cy="512.833" r="5.833"/>
	<circle fill="#36A1BA" cx="44.002" cy="530" r="4.333"/>
	<circle fill="#36A1BA" cx="31.335" cy="524" r="4.667"/>
	<circle fill="#36A1BA" cx="34.002" cy="537.333" r="4"/>
	<circle fill="#36A1BA" cx="45.502" cy="544.167" r="3.5"/>
	<circle fill="#36A1BA" cx="34.502" cy="550.167" r="3.833"/>
	<circle fill="#36A1BA" cx="41.335" cy="560" r="3.667"/>
	<circle fill="#36A1BA" cx="28.335" cy="561.666" r="3.333"/>
	<circle fill="#36A1BA" cx="32.168" cy="570.5" r="2.833"/>
	<circle fill="#36A1BA" cx="18.335" cy="569" r="3"/>
	<circle fill="#36A1BA" cx="71.002" cy="574.667" r="9"/>
	<circle fill="#36A1BA" cx="59.668" cy="597.333" r="8"/>
	<circle fill="#36A1BA" cx="49.835" cy="583.833" r="6.833"/>
	<circle fill="#36A1BA" cx="39.168" cy="595.5" r="6.167"/>
	<circle fill="#36A1BA" cx="36.002" cy="612" r="6.167"/>
	<circle fill="#36A1BA" cx="50.502" cy="612.833" r="6.5"/>
	<circle fill="#36A1BA" cx="39.502" cy="627.833" r="4.833"/>
	<circle fill="#36A1BA" cx="51.335" cy="632.333" r="4"/>
	<circle fill="#36A1BA" cx="43.835" cy="643.167" r="3.833"/>
	<circle fill="#36A1BA" cx="52.502" cy="646.833" r="3.833"/>
	<circle fill="#36A1BA" cx="42.169" cy="655.5" r="4.167"/>
	<circle fill="#36A1BA" cx="44.668" cy="671.5" r="3.5"/>
	<circle fill="#36A1BA" cx="37.669" cy="665" r="3.333"/>
	<circle fill="#36A1BA" cx="52.668" cy="662.333" r="4.333"/>
	<circle fill="#36A1BA" cx="33.835" cy="679.5" r="3.833"/>
	<circle fill="#36A1BA" cx="64.168" cy="720.167" r="6.167"/>
	<circle fill="#36A1BA" cx="53.502" cy="739.166" r="4.167"/>
	<circle fill="#36A1BA" cx="53.835" cy="726.833" r="3.833"/>
	<circle fill="#36A1BA" cx="42.002" cy="734.333" r="4.333"/>
	<circle fill="#36A1BA" cx="28.002" cy="758.666" r="3"/>
	<circle fill="#36A1BA" cx="32.835" cy="745.499" r="4.167"/>
	<circle fill="#36A1BA" cx="43.502" cy="747.833" r="4.833"/>
	<circle fill="#36A1BA" cx="65.669" cy="733.666" r="5.667"/>
	<circle fill="#36A1BA" cx="34.502" cy="777.166" r="3.5"/>
	<circle fill="#36A1BA" cx="23.835" cy="777.833" r="3.5"/>
	<circle fill="#36A1BA" cx="35.502" cy="764.499" r="3.5"/>
	<circle fill="#36A1BA" cx="37.502" cy="756.166" r="3.5"/>
	<circle fill="#36A1BA" cx="26.335" cy="769.999" r="3"/>
	<circle fill="#36A1BA" cx="20.835" cy="785.833" r="3.167"/>
	<path fill="#7DC6DD" d="M324.984,406.989L324.043,452c0,0,4.405,30,23.125,37c18.721,7,29.732,11,29.732,31s-12.113,36,6.607,41
		c18.72,5,15.416,15,0,15c-15.417,0-27.919-13.575-29.484-25.657c-2.161-16.687,9.188-22.576-8.646-32.883
		c-10.982-6.346-21.078-5.399-21.078-5.399l0.541,53.985c0,0,31.313,6.475,39.993,25.523c12.972,28.464-5.47,47.216-1.146,62.431
		c6.649,23.4,25.762,19.503,24.776,28c-1.102,9.5-40.785,0.956-42.946-28c-1.228-16.443,3.099-21.393,3.644-29.06
		c1.081-15.214-10.269-26.993-25.401-25.519L324.043,688c0,0-0.692,17.897,14.849,28.718c16.215,11.288,20.538,9.815,28.645,16.688
		c19.755,16.744,7.566,35.827,17.295,41.718c15.486,9.377,16.754,21.595,3.242,16.687c-24.34-8.843-23.98-16.334-27.021-33.374
		C357.808,740.277,328.448,736,328.448,736h-4.405l1.381,70.988H185.748l7.253-400H324.984z"/>
	<path fill="#7DC6DD" d="M328.448,736"/>
	<ellipse fill="#36A1BA" cx="349.186" cy="495.167" rx="8.626" ry="7.833"/>
	<ellipse fill="#36A1BA" cx="348.084" cy="516.167" rx="6.791" ry="6.166"/>
	<ellipse fill="#36A1BA" cx="367.539" cy="512.833" rx="6.423" ry="5.834"/>
	<ellipse fill="#36A1BA" cx="358.179" cy="530" rx="4.771" ry="4.333"/>
	<ellipse fill="#36A1BA" cx="372.127" cy="524" rx="5.139" ry="4.667"/>
	<ellipse fill="#36A1BA" cx="369.191" cy="537.333" rx="4.405" ry="4"/>
	<ellipse fill="#36A1BA" cx="356.527" cy="544.167" rx="3.854" ry="3.5"/>
	<ellipse fill="#36A1BA" cx="368.64" cy="550.167" rx="4.221" ry="3.833"/>
	<ellipse fill="#36A1BA" cx="361.115" cy="560" rx="4.038" ry="3.667"/>
	<ellipse fill="#36A1BA" cx="375.431" cy="561.666" rx="3.671" ry="3.333"/>
	<ellipse fill="#36A1BA" cx="371.21" cy="570.5" rx="3.12" ry="2.833"/>
	<ellipse fill="#36A1BA" cx="386.443" cy="569" rx="3.304" ry="3"/>
	<ellipse fill="#36A1BA" cx="328.447" cy="574.667" rx="9.911" ry="9"/>
	<ellipse fill="#36A1BA" cx="340.927" cy="597.333" rx="8.81" ry="8"/>
	<ellipse fill="#36A1BA" cx="351.755" cy="583.833" rx="7.525" ry="6.834"/>
	<ellipse fill="#36A1BA" cx="363.502" cy="595.5" rx="6.791" ry="6.167"/>
	<ellipse fill="#36A1BA" cx="366.988" cy="612" rx="6.791" ry="6.167"/>
	<ellipse fill="#36A1BA" cx="351.021" cy="612.833" rx="7.158" ry="6.5"/>
	<ellipse fill="#36A1BA" cx="363.134" cy="627.833" rx="5.322" ry="4.834"/>
	<ellipse fill="#36A1BA" cx="350.104" cy="632.333" rx="4.405" ry="4"/>
	<ellipse fill="#36A1BA" cx="358.362" cy="643.167" rx="4.222" ry="3.833"/>
	<ellipse fill="#36A1BA" cx="348.819" cy="646.833" rx="4.221" ry="3.834"/>
	<ellipse fill="#36A1BA" cx="360.197" cy="655.5" rx="4.589" ry="4.167"/>
	<ellipse fill="#36A1BA" cx="357.445" cy="671.5" rx="3.854" ry="3.5"/>
	<ellipse fill="#36A1BA" cx="365.153" cy="665" rx="3.671" ry="3.334"/>
	<ellipse fill="#36A1BA" cx="348.636" cy="662.333" rx="4.771" ry="4.333"/>
	<ellipse fill="#36A1BA" cx="369.375" cy="679.5" rx="4.221" ry="3.834"/>
	<ellipse fill="#36A1BA" cx="335.973" cy="720.167" rx="6.791" ry="6.167"/>
	<ellipse fill="#36A1BA" cx="347.717" cy="739.166" rx="4.588" ry="4.166"/>
	<ellipse fill="#36A1BA" cx="347.351" cy="726.833" rx="4.222" ry="3.833"/>
	<ellipse fill="#36A1BA" cx="360.382" cy="734.333" rx="4.771" ry="4.334"/>
	<ellipse fill="#36A1BA" cx="375.798" cy="758.666" rx="3.304" ry="3"/>
	<ellipse fill="#36A1BA" cx="370.476" cy="745.499" rx="4.588" ry="4.167"/>
	<ellipse fill="#36A1BA" cx="358.729" cy="747.833" rx="5.322" ry="4.833"/>
	<ellipse fill="#36A1BA" cx="334.319" cy="733.666" rx="6.239" ry="5.666"/>
	<ellipse fill="#36A1BA" cx="368.64" cy="777.166" rx="3.854" ry="3.5"/>
	<ellipse fill="#36A1BA" cx="380.387" cy="777.833" rx="3.854" ry="3.5"/>
	<ellipse fill="#36A1BA" cx="367.539" cy="764.499" rx="3.854" ry="3.5"/>
	<ellipse fill="#36A1BA" cx="365.336" cy="756.166" rx="3.854" ry="3.5"/>
	<ellipse fill="#36A1BA" cx="377.634" cy="769.999" rx="3.304" ry="3"/>
	<ellipse fill="#36A1BA" cx="383.69" cy="785.833" rx="3.487" ry="3.166"/>
	<path fill="#52BFD1" d="M300.334,602.012c0,99.408-43.169,179.988-96.417,179.988S107.5,701.42,107.5,602.012
		c0-99.43,43.168-180.012,96.417-180.012S300.334,502.583,300.334,602.012z"/>
	<path fill="#52BFD1" d="M318.333,255.003c0,19.33-16.977,34.998-37.917,34.998c-20.939,0-37.916-15.668-37.916-34.998
		c0-19.334,16.977-35.002,37.916-35.002C301.356,220.001,318.333,235.669,318.333,255.003z"/>
	<path fill="#52BFD1" d="M162.333,258.003c0,19.33-16.977,34.998-37.917,34.998c-20.939,0-37.916-15.668-37.916-34.998
		c0-19.334,16.977-35.002,37.916-35.002C145.356,223.001,162.333,238.669,162.333,258.003z"/>
	<g>
		<g>
			<path fill="#7DC6DD" d="M119.609,119.994c0.65,0,2.082-0.987,0.781-0.987C119.74,119.006,118.309,119.994,119.609,119.994
				L119.609,119.994z"/>
		</g>
	</g>
	<g>
		<g>
			<path fill="none" stroke="#F2E4D2" stroke-miterlimit="10" d="M286.5,120.5"/>
		</g>
	</g>
	<g>
		<g>
			<path fill="none" stroke="#F2E4D2" stroke-miterlimit="10" d="M198.5,119.5"/>
		</g>
	</g>
	<path fill="#6FC5D8" d="M326.478,811.553l2.023,127.449c-2.206,25.478,41-4,41,29c0,32.062-120,28-119,14
		c0.778-10.892-6-128-59-122c-32.804,3.714-43.046,125.093-45,129c-3,6-115,30-117-12c-1.813-38.075,46,0,44.168-36.008
		c0,0,2.881-125.732,3.77-129.441H326.478z"/>
	<path fill="#D6C370" d="M32.51,965.399c0,0-4.187,4.983-2.193,10.965c0,0-12.559-7.376-16.347,0.996
		C13.571,965.797,22.343,964.402,32.51,965.399z"/>
	<path fill="#D6C370" d="M32.311,978.357c0,0-0.199,4.386,5.98,7.975c0,0-13.755-3.189-17.543,5.183
		C20.35,979.952,22.144,977.36,32.311,978.357z"/>
	<path fill="#D6C370" d="M39.585,989.06l7.841,2.83c0,0-8.394,3.072-11.97,13.587C32.549,998.485,33.457,992.682,39.585,989.06z"/>
	<path fill="#D6C370" d="M365.258,955.399c0,0,4.069,4.983,2.131,10.965c0,0,12.207-7.376,15.89,0.996
		C383.665,955.797,375.14,954.402,365.258,955.399z"/>
	<path fill="#D6C370" d="M365.451,968.357c0,0,0.193,4.386-5.812,7.975c0,0,13.369-3.189,17.051,5.183
		C377.077,969.952,375.333,967.36,365.451,968.357z"/>
	<path fill="#D6C370" d="M358.381,979.06l-7.621,2.83c0,0,8.158,3.072,11.634,13.587
		C365.219,988.485,364.337,982.682,358.381,979.06z"/>
	<path fill="#52BFD1" d="M77.484,818.979c0,0,139.461,50.713-3.888,123.271L77.484,818.979z"/>
	<path fill="#52BFD1" d="M326.764,816.506c0,0-124.187,45.307,1.429,119.307L326.764,816.506z"/>
	<path fill="#8BCEAB" d="M533.176,398.121c-2.881-20-6-94.502-1.5-143.002c3.742-40.336,17.835-96.814,42.335-118.185
		c3.563-3.109-30.614-46.478-26.833-49.163c3.811-2.707,45.583,35.274,49.586,33.009c14.496-8.207,30.144-13.496,46.221-15.628
		c5.359-0.709,10.294-53.232,15.722-53.232c6.436,0,13.158,52.648,19.217,53.574c18.174,2.778,34.613,9.509,49.126,18.935
		c2.902,1.885,44.048-32.706,46.795-30.616c3.355,2.555-31.726,41.837-28.608,44.663c29.753,26.976,31.94,73.642,35.44,119.144
		c2.627,34.148,4.752,126.445,1.92,140.279L533.176,398.121z"/>
	<path fill="#8BCEAB" d="M534.008,405.619v46c0,0-4,30-21,37s-27,11-27,31s11,36-6,41s-14,15,0,15s25.353-13.574,26.774-25.656
		c1.963-16.688-8.344-22.576,7.853-32.883c9.972-6.346,19.142-5.4,19.142-5.4l-0.492,53.986c0,0-28.436,6.475-36.318,25.523
		c-11.779,28.463,4.969,47.215,1.042,62.43c-6.038,23.4-23.395,19.504-22.5,28c1,9.5,37.038,0.957,39-28
		c1.114-16.443-2.813-21.393-3.309-29.059c-0.981-15.215,9.325-26.994,23.067-25.52l-0.259,88.578c0,0,0.63,17.898-13.484,28.719
		c-14.724,11.287-18.649,9.814-26.013,16.688c-17.938,16.744-6.871,35.826-15.705,41.717c-14.062,9.377-15.215,21.596-2.945,16.688
		c22.105-8.844,21.777-16.334,24.541-33.375c2.943-18.158,29.606-22.436,29.606-22.436h4l0.903,70.988h111.097l7-400
		L534.008,405.619z"/>
	<path fill="#7DC6DD" d="M530.008,735.619"/>
	<circle fill="#60A37B" cx="511.175" cy="494.785" r="7.833"/>
	<circle fill="#60A37B" cx="512.175" cy="515.785" r="6.167"/>
	<circle fill="#60A37B" cx="494.509" cy="512.451" r="5.834"/>
	<circle fill="#60A37B" cx="503.008" cy="529.619" r="4.333"/>
	<circle fill="#60A37B" cx="490.342" cy="523.619" r="4.667"/>
	<circle fill="#60A37B" cx="493.009" cy="536.951" r="4"/>
	<circle fill="#60A37B" cx="504.509" cy="543.785" r="3.5"/>
	<circle fill="#60A37B" cx="493.509" cy="549.785" r="3.834"/>
	<circle fill="#60A37B" cx="500.342" cy="559.619" r="3.667"/>
	<circle fill="#60A37B" cx="487.342" cy="561.285" r="3.333"/>
	<circle fill="#60A37B" cx="491.175" cy="570.119" r="2.833"/>
	<circle fill="#60A37B" cx="477.342" cy="568.619" r="3"/>
	<circle fill="#60A37B" cx="530.009" cy="574.285" r="9"/>
	<circle fill="#60A37B" cx="518.675" cy="596.951" r="8"/>
	<circle fill="#60A37B" cx="508.842" cy="583.451" r="6.833"/>
	<circle fill="#60A37B" cx="498.176" cy="595.119" r="6.167"/>
	<circle fill="#60A37B" cx="495.009" cy="611.619" r="6.167"/>
	<circle fill="#60A37B" cx="509.509" cy="612.453" r="6.5"/>
	<circle fill="#60A37B" cx="498.509" cy="627.451" r="4.834"/>
	<circle fill="#60A37B" cx="510.342" cy="631.953" r="4"/>
	<circle fill="#60A37B" cx="502.842" cy="642.785" r="3.833"/>
	<circle fill="#60A37B" cx="511.508" cy="646.451" r="3.833"/>
	<circle fill="#60A37B" cx="501.176" cy="655.119" r="4.167"/>
	<circle fill="#60A37B" cx="503.675" cy="671.119" r="3.5"/>
	<circle fill="#60A37B" cx="496.676" cy="664.619" r="3.333"/>
	<circle fill="#60A37B" cx="511.676" cy="661.953" r="4.333"/>
	<circle fill="#60A37B" cx="492.842" cy="679.119" r="3.833"/>
	<circle fill="#60A37B" cx="523.176" cy="719.785" r="6.167"/>
	<circle fill="#60A37B" cx="512.509" cy="738.785" r="4.167"/>
	<circle fill="#60A37B" cx="512.842" cy="726.453" r="3.833"/>
	<circle fill="#60A37B" cx="501.009" cy="733.951" r="4.333"/>
	<circle fill="#60A37B" cx="487.009" cy="758.285" r="3"/>
	<circle fill="#60A37B" cx="491.842" cy="745.117" r="4.167"/>
	<circle fill="#60A37B" cx="502.509" cy="747.451" r="4.833"/>
	<circle fill="#60A37B" cx="524.676" cy="733.285" r="5.667"/>
	<circle fill="#60A37B" cx="493.509" cy="776.785" r="3.5"/>
	<circle fill="#60A37B" cx="482.843" cy="777.451" r="3.5"/>
	<circle fill="#60A37B" cx="494.509" cy="764.117" r="3.5"/>
	<circle fill="#60A37B" cx="496.509" cy="755.785" r="3.5"/>
	<circle fill="#60A37B" cx="485.343" cy="769.617" r="3"/>
	<circle fill="#60A37B" cx="479.842" cy="785.451" r="3.167"/>
	<path fill="#8BCEAB" d="M785.991,406.607l-2.941,45.012c0,0,4.405,30,23.125,37c18.721,7,29.732,11,29.732,31s-12.113,36,6.607,41
		c18.72,5,15.416,15,0,15c-15.417,0-27.919-13.574-29.484-25.656c-2.161-16.688,9.188-22.576-8.646-32.883
		c-10.982-6.346-21.078-5.4-21.078-5.4l0.541,53.986c0,0,31.313,6.475,39.993,25.523c12.972,28.463-5.47,47.215-1.146,62.43
		c6.649,23.4,25.762,19.504,24.776,28c-1.102,9.5-40.785,0.957-42.946-28c-1.228-16.443,3.099-21.393,3.644-29.059
		c1.081-15.215-10.269-26.994-25.401-25.52l0.284,88.578c0,0-0.692,17.898,14.849,28.719c16.215,11.287,20.538,9.814,28.645,16.688
		c19.755,16.744,7.566,35.826,17.295,41.717c15.486,9.377,16.754,21.596,3.242,16.688c-24.34-8.844-23.98-16.334-27.021-33.375
		c-3.244-18.158-32.604-22.436-32.604-22.436h-4.405l3.381,70.988H644.755l7.253-400H785.991z"/>
	<path fill="#7DC6DD" d="M787.455,735.619"/>
	<ellipse fill="#60A37B" cx="808.193" cy="494.785" rx="8.626" ry="7.834"/>
	<ellipse fill="#60A37B" cx="807.091" cy="515.785" rx="6.791" ry="6.166"/>
	<ellipse fill="#60A37B" cx="826.546" cy="512.451" rx="6.423" ry="5.834"/>
	<ellipse fill="#60A37B" cx="817.186" cy="529.619" rx="4.771" ry="4.332"/>
	<ellipse fill="#60A37B" cx="831.134" cy="523.619" rx="5.139" ry="4.666"/>
	<ellipse fill="#60A37B" cx="828.198" cy="536.951" rx="4.405" ry="4"/>
	<ellipse fill="#60A37B" cx="815.534" cy="543.785" rx="3.854" ry="3.5"/>
	<ellipse fill="#60A37B" cx="827.647" cy="549.785" rx="4.221" ry="3.834"/>
	<ellipse fill="#60A37B" cx="820.122" cy="559.619" rx="4.038" ry="3.666"/>
	<ellipse fill="#60A37B" cx="834.438" cy="561.285" rx="3.671" ry="3.332"/>
	<ellipse fill="#60A37B" cx="830.217" cy="570.119" rx="3.12" ry="2.834"/>
	<ellipse fill="#60A37B" cx="845.45" cy="568.619" rx="3.304" ry="3"/>
	<ellipse fill="#60A37B" cx="787.454" cy="574.285" rx="9.911" ry="9"/>
	<ellipse fill="#60A37B" cx="799.934" cy="596.951" rx="8.81" ry="8"/>
	<ellipse fill="#60A37B" cx="810.762" cy="583.451" rx="7.525" ry="6.834"/>
	<ellipse fill="#60A37B" cx="822.509" cy="595.119" rx="6.791" ry="6.166"/>
	<ellipse fill="#60A37B" cx="825.995" cy="611.619" rx="6.791" ry="6.168"/>
	<ellipse fill="#60A37B" cx="810.028" cy="612.453" rx="7.158" ry="6.5"/>
	<ellipse fill="#60A37B" cx="822.141" cy="627.451" rx="5.322" ry="4.834"/>
	<ellipse fill="#60A37B" cx="809.111" cy="631.953" rx="4.405" ry="4"/>
	<ellipse fill="#60A37B" cx="817.369" cy="642.785" rx="4.222" ry="3.834"/>
	<ellipse fill="#60A37B" cx="807.826" cy="646.451" rx="4.221" ry="3.834"/>
	<ellipse fill="#60A37B" cx="819.204" cy="655.119" rx="4.589" ry="4.168"/>
	<ellipse fill="#60A37B" cx="816.452" cy="671.119" rx="3.854" ry="3.5"/>
	<ellipse fill="#60A37B" cx="824.16" cy="664.619" rx="3.671" ry="3.334"/>
	<ellipse fill="#60A37B" cx="807.643" cy="661.953" rx="4.771" ry="4.332"/>
	<ellipse fill="#60A37B" cx="828.381" cy="679.119" rx="4.221" ry="3.834"/>
	<ellipse fill="#60A37B" cx="794.979" cy="719.785" rx="6.791" ry="6.168"/>
	<ellipse fill="#60A37B" cx="806.724" cy="738.785" rx="4.588" ry="4.166"/>
	<ellipse fill="#60A37B" cx="806.357" cy="726.453" rx="4.222" ry="3.832"/>
	<ellipse fill="#60A37B" cx="819.389" cy="733.951" rx="4.771" ry="4.334"/>
	<ellipse fill="#60A37B" cx="834.805" cy="758.285" rx="3.304" ry="3"/>
	<ellipse fill="#60A37B" cx="829.482" cy="745.117" rx="4.588" ry="4.168"/>
	<ellipse fill="#60A37B" cx="817.736" cy="747.451" rx="5.322" ry="4.834"/>
	<ellipse fill="#60A37B" cx="793.326" cy="733.285" rx="6.239" ry="5.666"/>
	<ellipse fill="#60A37B" cx="827.647" cy="776.785" rx="3.854" ry="3.5"/>
	<ellipse fill="#60A37B" cx="839.394" cy="777.451" rx="3.854" ry="3.5"/>
	<ellipse fill="#60A37B" cx="826.546" cy="764.117" rx="3.854" ry="3.5"/>
	<ellipse fill="#60A37B" cx="824.343" cy="755.785" rx="3.854" ry="3.5"/>
	<ellipse fill="#60A37B" cx="836.641" cy="769.617" rx="3.304" ry="3"/>
	<ellipse fill="#60A37B" cx="842.697" cy="785.451" rx="3.487" ry="3.166"/>
	<path fill="#72C596" d="M759.341,601.63c0,99.408-43.169,179.988-96.417,179.988s-96.417-80.58-96.417-179.988
		c0-99.43,43.169-180.012,96.417-180.012S759.341,502.201,759.341,601.63z"/>
	<path fill="#72C596" d="M775.842,253.123c0,19.33-16.977,34.998-37.917,34.998c-20.939,0-37.916-15.668-37.916-34.998
		c0-19.336,16.977-35.004,37.916-35.004C758.865,218.119,775.842,233.787,775.842,253.123z"/>
	<path fill="#72C596" d="M619.842,256.123c0,19.33-16.977,34.998-37.917,34.998c-20.939,0-37.916-15.668-37.916-34.998
		c0-19.336,16.977-35.004,37.916-35.004C602.865,221.119,619.842,236.787,619.842,256.123z"/>
	<g>
		<g>
			<path fill="#7DC6DD" d="M577.118,118.112c0.65,0,2.082-0.986,0.781-0.986C577.249,117.126,575.817,118.112,577.118,118.112
				L577.118,118.112z"/>
		</g>
	</g>
	<g>
		<g>
			<path fill="none" stroke="#F2E4D2" stroke-miterlimit="10" d="M744.009,118.619"/>
		</g>
	</g>
	<g>
		<g>
			<path fill="none" stroke="#F2E4D2" stroke-miterlimit="10" d="M656.009,117.619"/>
		</g>
	</g>
	<path fill="#8BCEAB" d="M786.484,812.171l2.023,127.449c-2.206,25.479,41-4,41,29c0,32.062-120,28-119,14
		c0.778-10.891-6-128-59-122c-32.804,3.715-43.046,125.094-45,129c-3,6-114,29-116-13c-1.813-38.074,45,1,43.169-35.008
		c0,0,2.881-125.732,3.77-129.441H786.484z"/>
	<path fill="#D6C370" d="M492.517,966.017c0,0-4.187,4.984-2.193,10.965c0,0-12.559-7.375-16.347,0.996
		C473.578,966.416,482.35,965.021,492.517,966.017z"/>
	<path fill="#D6C370" d="M493.317,977.976c0,0-1.199,5.385,4.98,8.975c0,0-12.755-4.189-16.543,4.182
		C481.356,979.57,483.15,976.978,493.317,977.976z"/>
	<path fill="#D6C370" d="M499.592,989.679l7.841,2.83c0,0-8.395,3.072-11.97,13.586C492.556,999.103,493.464,993.3,499.592,989.679z
		"/>
	<path fill="#D6C370" d="M825.265,956.017c0,0,4.069,4.984,2.131,10.965c0,0,13.207-8.375,16.89-0.004
		C844.672,955.416,835.146,955.021,825.265,956.017z"/>
	<path fill="#D6C370" d="M825.458,968.976c0,0,0.193,4.385-5.812,7.975c0,0,14.369-4.189,18.051,4.182
		C838.084,969.57,835.34,967.978,825.458,968.976z"/>
	<path fill="#D6C370" d="M818.388,979.679l-7.621,2.83c0,0,8.158,3.072,11.634,13.586
		C825.226,989.103,824.344,983.3,818.388,979.679z"/>
	<path fill="#72C596" d="M537.491,819.597c0,0,139.461,50.713-3.889,123.271L537.491,819.597z"/>
	<path fill="#72C596" d="M786.771,817.125c0,0-124.187,45.307,1.429,119.307L786.771,817.125z"/>
	<path fill="#E06899" d="M991.509,400.177c-2.881-20-6-94.502-1.5-143.002c3.742-40.336,17.835-96.815,42.335-118.186
		c3.563-3.109-30.614-46.478-26.833-49.163c3.811-2.707,45.583,35.274,49.586,33.009c14.496-8.207,30.144-13.496,46.221-15.628
		c5.359-0.709,10.294-53.232,15.722-53.232c6.436,0,13.158,52.648,19.217,53.574c18.174,2.778,34.613,9.509,49.126,18.935
		c2.902,1.885,44.048-32.706,46.795-30.616c3.355,2.555-31.726,41.837-28.608,44.663c29.753,26.976,31.94,73.643,35.44,119.145
		c2.627,34.148,4.752,126.445,1.92,140.279L991.509,400.177z"/>
	<path fill="#E06899" d="M990.008,412.509v46c0,0-4,30-21,37s-27,11-27,31s11,36-6,41s-14,15,0,15s25.353-13.576,26.774-25.658
		c1.963-16.686-8.344-22.576,7.853-32.883c9.972-6.346,19.142-5.398,19.142-5.398l-0.492,53.984c0,0-28.436,6.475-36.318,25.523
		c-11.779,28.465,4.969,47.217,1.042,62.432c-6.038,23.4-23.395,19.502-22.5,28c1,9.5,37.038,0.955,39-28
		c1.114-16.443-2.813-21.393-3.309-29.061c-0.981-15.213,9.325-26.992,23.067-25.518l-0.259,88.578c0,0,0.63,17.896-13.484,28.717
		c-14.724,11.289-18.649,9.816-26.013,16.688c-17.938,16.744-6.871,35.828-15.705,41.719c-14.062,9.377-15.215,21.594-2.945,16.686
		c22.105-8.842,21.777-16.334,24.541-33.373c2.943-18.16,29.606-22.436,29.606-22.436h4l0.903,70.988h111.097l7-400L990.008,412.509
		z"/>
	<path fill="#7DC6DD" d="M986.008,742.509"/>
	<circle fill="#B63C79" cx="967.175" cy="501.675" r="7.833"/>
	<circle fill="#B63C79" cx="968.175" cy="522.675" r="6.167"/>
	<circle fill="#B63C79" cx="950.509" cy="519.341" r="5.834"/>
	<circle fill="#B63C79" cx="959.008" cy="536.507" r="4.333"/>
	<circle fill="#B63C79" cx="946.342" cy="530.507" r="4.667"/>
	<circle fill="#B63C79" cx="949.009" cy="543.841" r="4"/>
	<circle fill="#B63C79" cx="960.509" cy="550.675" r="3.5"/>
	<circle fill="#B63C79" cx="949.509" cy="556.675" r="3.834"/>
	<circle fill="#B63C79" cx="956.342" cy="566.507" r="3.667"/>
	<circle fill="#B63C79" cx="943.342" cy="568.173" r="3.333"/>
	<circle fill="#B63C79" cx="947.175" cy="577.009" r="2.833"/>
	<circle fill="#B63C79" cx="933.342" cy="575.507" r="3"/>
	<circle fill="#B63C79" cx="986.009" cy="581.175" r="9"/>
	<circle fill="#B63C79" cx="974.675" cy="603.841" r="8"/>
	<circle fill="#B63C79" cx="964.842" cy="590.341" r="6.833"/>
	<circle fill="#B63C79" cx="954.176" cy="602.007" r="6.167"/>
	<circle fill="#B63C79" cx="951.009" cy="618.509" r="6.167"/>
	<circle fill="#B63C79" cx="965.509" cy="619.341" r="6.5"/>
	<circle fill="#B63C79" cx="954.509" cy="634.341" r="4.834"/>
	<circle fill="#B63C79" cx="966.342" cy="638.841" r="4"/>
	<circle fill="#B63C79" cx="958.842" cy="649.675" r="3.833"/>
	<circle fill="#B63C79" cx="967.508" cy="653.341" r="3.833"/>
	<circle fill="#B63C79" cx="957.176" cy="662.009" r="4.167"/>
	<circle fill="#B63C79" cx="959.675" cy="678.009" r="3.5"/>
	<circle fill="#B63C79" cx="952.676" cy="671.509" r="3.333"/>
	<circle fill="#B63C79" cx="967.676" cy="668.841" r="4.333"/>
	<circle fill="#B63C79" cx="948.842" cy="686.009" r="3.833"/>
	<circle fill="#B63C79" cx="979.176" cy="726.675" r="6.167"/>
	<circle fill="#B63C79" cx="968.509" cy="745.673" r="4.167"/>
	<circle fill="#B63C79" cx="968.842" cy="733.341" r="3.833"/>
	<circle fill="#B63C79" cx="957.009" cy="740.841" r="4.333"/>
	<circle fill="#B63C79" cx="943.009" cy="765.173" r="3"/>
	<circle fill="#B63C79" cx="947.842" cy="752.007" r="4.167"/>
	<circle fill="#B63C79" cx="958.509" cy="754.341" r="4.833"/>
	<circle fill="#B63C79" cx="980.676" cy="740.173" r="5.667"/>
	<circle fill="#B63C79" cx="949.509" cy="783.673" r="3.5"/>
	<circle fill="#B63C79" cx="938.843" cy="784.341" r="3.5"/>
	<circle fill="#B63C79" cx="950.509" cy="771.007" r="3.5"/>
	<circle fill="#B63C79" cx="952.509" cy="762.673" r="3.5"/>
	<circle fill="#B63C79" cx="941.343" cy="776.507" r="3"/>
	<circle fill="#B63C79" cx="935.842" cy="792.341" r="3.167"/>
	<path fill="#E06899" d="M1241.991,413.498l-2.941,45.012c0,0,4.405,30,23.125,37c18.721,7,29.732,11,29.732,31s-12.113,36,6.607,41
		c18.72,5,15.416,15,0,15c-15.417,0-27.919-13.576-29.484-25.658c-2.161-16.686,9.188-22.576-8.646-32.883
		c-10.982-6.346-21.078-5.398-21.078-5.398l0.541,53.984c0,0,31.313,6.475,39.993,25.523c12.972,28.465-5.47,47.217-1.146,62.432
		c6.649,23.4,25.762,19.502,24.776,28c-1.102,9.5-40.785,0.955-42.946-28c-1.228-16.443,3.099-21.393,3.644-29.061
		c1.081-15.213-10.269-26.992-25.401-25.518l0.284,88.578c0,0-0.692,17.896,14.849,28.717c16.215,11.289,20.538,9.816,28.645,16.688
		c19.755,16.744,7.566,35.828,17.295,41.719c15.486,9.377,16.754,21.594,3.242,16.686c-24.34-8.842-23.98-16.334-27.021-33.373
		c-3.244-18.16-32.604-22.436-32.604-22.436h-4.405l3.381,70.988h-141.676l7.253-400H1241.991z"/>
	<path fill="#7DC6DD" d="M1243.455,742.509"/>
	<ellipse fill="#B63C79" cx="1264.193" cy="501.675" rx="8.626" ry="7.832"/>
	<ellipse fill="#B63C79" cx="1263.091" cy="522.675" rx="6.791" ry="6.166"/>
	<ellipse fill="#B63C79" cx="1282.546" cy="519.341" rx="6.423" ry="5.834"/>
	<ellipse fill="#B63C79" cx="1273.186" cy="536.507" rx="4.771" ry="4.334"/>
	<ellipse fill="#B63C79" cx="1287.134" cy="530.507" rx="5.139" ry="4.668"/>
	<ellipse fill="#B63C79" cx="1284.198" cy="543.841" rx="4.405" ry="4"/>
	<ellipse fill="#B63C79" cx="1271.534" cy="550.675" rx="3.854" ry="3.5"/>
	<ellipse fill="#B63C79" cx="1283.647" cy="556.675" rx="4.221" ry="3.832"/>
	<ellipse fill="#B63C79" cx="1276.122" cy="566.507" rx="4.038" ry="3.668"/>
	<ellipse fill="#B63C79" cx="1290.438" cy="568.173" rx="3.671" ry="3.334"/>
	<ellipse fill="#B63C79" cx="1286.217" cy="577.009" rx="3.12" ry="2.832"/>
	<ellipse fill="#B63C79" cx="1301.45" cy="575.507" rx="3.304" ry="3"/>
	<ellipse fill="#B63C79" cx="1243.454" cy="581.175" rx="9.911" ry="9"/>
	<ellipse fill="#B63C79" cx="1255.934" cy="603.841" rx="8.81" ry="8"/>
	<ellipse fill="#B63C79" cx="1266.762" cy="590.341" rx="7.525" ry="6.834"/>
	<ellipse fill="#B63C79" cx="1278.509" cy="602.007" rx="6.791" ry="6.168"/>
	<ellipse fill="#B63C79" cx="1281.995" cy="618.509" rx="6.791" ry="6.166"/>
	<ellipse fill="#B63C79" cx="1266.028" cy="619.341" rx="7.158" ry="6.5"/>
	<ellipse fill="#B63C79" cx="1278.141" cy="634.341" rx="5.322" ry="4.834"/>
	<ellipse fill="#B63C79" cx="1265.111" cy="638.841" rx="4.405" ry="4"/>
	<ellipse fill="#B63C79" cx="1273.369" cy="649.675" rx="4.222" ry="3.832"/>
	<ellipse fill="#B63C79" cx="1263.826" cy="653.341" rx="4.221" ry="3.834"/>
	<ellipse fill="#B63C79" cx="1275.204" cy="662.009" rx="4.589" ry="4.166"/>
	<ellipse fill="#B63C79" cx="1272.452" cy="678.009" rx="3.854" ry="3.5"/>
	<ellipse fill="#B63C79" cx="1280.16" cy="671.509" rx="3.671" ry="3.334"/>
	<ellipse fill="#B63C79" cx="1263.643" cy="668.841" rx="4.771" ry="4.334"/>
	<ellipse fill="#B63C79" cx="1284.381" cy="686.009" rx="4.221" ry="3.834"/>
	<ellipse fill="#B63C79" cx="1250.979" cy="726.675" rx="6.791" ry="6.166"/>
	<ellipse fill="#B63C79" cx="1262.724" cy="745.673" rx="4.588" ry="4.166"/>
	<ellipse fill="#B63C79" cx="1262.357" cy="733.341" rx="4.222" ry="3.834"/>
	<ellipse fill="#B63C79" cx="1275.389" cy="740.841" rx="4.771" ry="4.334"/>
	<ellipse fill="#B63C79" cx="1290.805" cy="765.173" rx="3.304" ry="3"/>
	<ellipse fill="#B63C79" cx="1285.482" cy="752.007" rx="4.588" ry="4.166"/>
	<ellipse fill="#B63C79" cx="1273.736" cy="754.341" rx="5.322" ry="4.832"/>
	<ellipse fill="#B63C79" cx="1249.326" cy="740.173" rx="6.239" ry="5.666"/>
	<ellipse fill="#B63C79" cx="1283.647" cy="783.673" rx="3.854" ry="3.5"/>
	<ellipse fill="#B63C79" cx="1295.394" cy="784.341" rx="3.854" ry="3.5"/>
	<ellipse fill="#B63C79" cx="1282.546" cy="771.007" rx="3.854" ry="3.5"/>
	<ellipse fill="#B63C79" cx="1280.343" cy="762.673" rx="3.854" ry="3.5"/>
	<ellipse fill="#B63C79" cx="1292.641" cy="776.507" rx="3.304" ry="3"/>
	<ellipse fill="#B63C79" cx="1298.697" cy="792.341" rx="3.487" ry="3.166"/>
	<path fill="#D65490" d="M1215.341,608.521c0,99.408-43.169,179.988-96.417,179.988s-96.417-80.58-96.417-179.988
		c0-99.43,43.169-180.012,96.417-180.012S1215.341,509.091,1215.341,608.521z"/>
	<path fill="#D65490" d="M1234.175,255.179c0,19.33-16.977,34.998-37.917,34.998c-20.939,0-37.916-15.668-37.916-34.998
		c0-19.336,16.977-35.004,37.916-35.004C1217.198,220.175,1234.175,235.843,1234.175,255.179z"/>
	<path fill="#D65490" d="M1078.175,258.179c0,19.33-16.977,34.998-37.917,34.998c-20.939,0-37.916-15.668-37.916-34.998
		c0-19.336,16.977-35.004,37.916-35.004C1061.198,223.175,1078.175,238.843,1078.175,258.179z"/>
	<g>
		<g>
			<path fill="#7DC6DD" d="M1034.451,119.168c0.65,0,2.082-0.986,0.781-0.986C1034.582,118.182,1033.15,119.168,1034.451,119.168
				L1034.451,119.168z"/>
		</g>
	</g>
	<g>
		<g>
			<path fill="none" stroke="#F2E4D2" stroke-miterlimit="10" d="M1202.342,120.675"/>
		</g>
	</g>
	<g>
		<g>
			<path fill="none" stroke="#F2E4D2" stroke-miterlimit="10" d="M1113.342,118.675"/>
		</g>
	</g>
	<path fill="#E06899" d="M1240.817,821.175l2.023,127.449c-2.206,25.479,41-4,41,29c0,32.062-120,28-119,14
		c0.778-10.891-6-128-59-122c-32.804,3.715-43.046,125.094-45,129c-3,6-114,29-116-13c-1.813-38.074,45,1,43.169-35.008
		c0,0,2.881-125.732,3.77-129.441H1240.817z"/>
	<path fill="#D6C370" d="M946.85,975.021c0,0-4.187,4.984-2.193,10.965c0,0-12.559-7.375-16.347,0.996
		C927.911,975.419,936.683,974.025,946.85,975.021z"/>
	<path fill="#D6C370" d="M947.65,986.98c0,0-1.199,5.385,4.98,8.975c0,0-12.755-4.189-16.543,4.182
		C935.689,988.574,937.483,985.982,947.65,986.98z"/>
	<path fill="#D6C370" d="M953.925,998.683l7.841,2.83c0,0-8.395,3.072-11.97,13.586
		C946.889,1008.107,947.797,1002.304,953.925,998.683z"/>
	<path fill="#D6C370" d="M1279.598,965.021c0,0,4.069,4.984,2.131,10.965c0,0,13.207-8.375,16.89-0.004
		C1299.005,964.419,1289.479,964.025,1279.598,965.021z"/>
	<path fill="#D6C370" d="M1279.791,977.98c0,0,0.193,4.385-5.812,7.975c0,0,14.369-4.189,18.051,4.182
		C1292.417,978.574,1289.673,976.982,1279.791,977.98z"/>
	<path fill="#D6C370" d="M1272.721,988.683l-7.621,2.83c0,0,8.158,3.072,11.634,13.586
		C1279.559,998.107,1278.677,992.304,1272.721,988.683z"/>
	<path fill="#D65490" d="M991.824,828.601c0,0,139.461,50.713-3.889,123.271L991.824,828.601z"/>
	<path fill="#D65490" d="M1241.104,826.128c0,0-124.187,45.307,1.429,119.307L1241.104,826.128z"/>
	<path fill="#7DC6DD" d="M1464.549,399.001c-14.841-6.579-23.789-26.916-27.844-53.051c-1.788-11.528,1.847-27.787-13.702,0.717
		c0-18,17.333-89.334,4.667-56.667c-4.14,10.678,21.333-72.667,1.333-39.333c6.911-29.377,31.298-68.685,44.998-80.001
		c15.334-12.667-5.881-12.347-0.666-12.667c32.666-2,6.103-10.462,10.666-12.667c10.205-4.931,18.469,3.03,21.334-0.667
		c5.342-6.894-3.038-7.777-0.667-8.667c10.667-4,12.333,1.333,17.333,3.333c0,0,78.829,6.85,115.667,1.333
		c13.587-2.034,27.333-13.333,23.333-3.333c-2.984,7.46,14.86-1.998,14,4.667c-2.667,20.667,14.95,5.36,16.667,6.667
		c3.355,2.554-12.492,2.034,4,21.333c10.685,12.504,26.993,31.484,35.056,57.408c-7.459-5.424,5.215,15.9,9.275,33.497
		c-12.368-7.215,1.546,9.275,9.791,26.797c-36.072-20.613,5.669,18.036,1.547,51.018c-30.92-43.287,2.061,46.38-37.369,60.06
		L1464.549,399.001z"/>
	<path fill="#52BFD1" d="M1707.214,254.003c0,19.33-16.977,34.998-37.917,34.998c-20.939,0-37.916-15.668-37.916-34.998
		c0-19.334,16.977-35.002,37.916-35.002C1690.237,219.001,1707.214,234.669,1707.214,254.003z"/>
	<path fill="#52BFD1" d="M1551.214,257.003c0,19.33-16.977,34.998-37.917,34.998c-20.939,0-37.916-15.668-37.916-34.998
		c0-19.334,16.977-35.002,37.916-35.002C1534.237,222.001,1551.214,237.669,1551.214,257.003z"/>
	<g>
		<g>
			<path fill="#7DC6DD" d="M1508.49,118.993c0.65,0,2.082-0.986,0.781-0.986C1508.621,118.006,1507.189,118.993,1508.49,118.993
				L1508.49,118.993z"/>
		</g>
	</g>
	<g>
		<g>
			<path fill="none" stroke="#F2E4D2" stroke-miterlimit="10" d="M1675.381,119.5"/>
		</g>
	</g>
	<g>
		<g>
			<path fill="none" stroke="#F2E4D2" stroke-miterlimit="10" d="M1587.381,118.5"/>
		</g>
	</g>
	<path fill="#7DC6DD" d="M1712.358,820.364l-9.409,174.67c25.552,21.466-2.013,37.357-2.013,37.357l-16.269,154.276
		c25.5,13.5,54.5,3.667,100-13.333c-23.25,14.25,1.334,19,1.334,19s-24.265,14.294,1.271,23.601
		c8.55,3.116-136.272,7.064-143.272-14.436c0,0,54.5-349.5-66.619-332.687c-76.971,10.685-54.881,333.187-54.881,333.187
		c-6.593,13.185-92.896,20.783-130.5,15.5c0,0,27.5-11-1.75-18.25c21.5-7.75,7.557-13.524-1.978-20.25
		c0,0,90.308,26.873,97.808,7.873l-6.792-150.537c-17.173-8.485-15.362-28.296,0.566-39.05
		c-2.68-88.741-16.966-175.128-16.536-176.922H1712.358z"/>
	<g>
		<path fill="#7DC6DD" d="M1464.336,414l-29.169,81.501c0,0-3.499,1.334-7.665,8.667c7.166-3.5,4.666,4.001,2.666,6.167
			s-15.021,13.084-16.619,19.779c11.453-8.28,9.911,2.613,5.453,6.054c-3.5,3.5-6.653,2.938-11.05,12.432
			c11.392-4.297,10.973-0.146,7.529,1.911c-4.747,2.835-5.341,3.898-6.479,7.823c11.181-7.685-1.332,14.001-1.332,14.001
			c-17.671,79.09-20.56,135.287-3.667,153.335c-14.824,10.15-21.368,28.406,8.453,35.778c17.5,1.5,14.692-14.629,5.026-24.963
			c-3.834-9.333,13.916,6.672,15.916,1.005s-12.396-20.487-12.396-20.487s-22.334-26.666,12.57-138.943
			c0,0,10.264-28.129,20.282-57.742c0,0-4.478,21.196-8.74,53.028c-0.855,6.389-13.153,37.169-9.446,30.991
			c8-13.334,6.085-2.729,5.684,1.357c-0.17,1.729-5.655,13.741-4.713,12.246c4.14-6.568,5.166-1.213,3.52,0.894
			c-2.89,3.696-9.015,21.556-7.299,18.723c7.738-12.777,8.188-2.879,5.933,0.462c-3.163,4.687-10.582,21.101-7.913,18.254
			c6.748-7.198,9.547,3.516,6.845,7.378c-9.958,14.234-10.776,25.878-8.431,22.894c10.611-13.498,10.493-2.161,8.335,1.698
			c-3.749,6.705-10.029,25.714-7.229,22.834c8.913-9.168,10.601,0.996,8.535,6.278c-1.063,2.72-4.433,16.26-3.44,14.605
			c3.819-6.367,6.741-1.925,4.863,0.593c-6.392,8.571-6.924,28.682-5.458,25.55c6.197-13.243,8.491-4.124,9.554,1.262
			c0.858,4.351-13.12,14.612-6.498,23.865c7.215-17.402,17.675,0.855,13.827,4.472c-3.642,3.422-3.787,19.461-2.453,16.834
			c8.234-16.214,12.568,7.439,13.674,9.465h122.667l-6.001-400H1464.336z"/>
		<path fill="#7DC6DD" d="M1713.147,414l29.169,81.501c0,0,3.499,1.334,7.665,8.667c-7.166-3.5-4.666,4.001-2.666,6.167
			s15.021,13.084,16.619,19.779c-11.453-8.28-9.911,2.613-5.453,6.054c3.5,3.5,6.653,2.938,11.05,12.432
			c-11.392-4.297-10.973-0.146-7.529,1.911c4.747,2.835,5.341,3.898,6.479,7.823c-11.181-7.685,1.332,14.001,1.332,14.001
			c17.671,79.09,20.56,135.287,3.667,153.335c14.824,10.15,21.368,28.406-8.453,35.778c-17.5,1.5-14.692-14.629-5.026-24.963
			c3.834-9.333-13.916,6.672-15.916,1.005s12.396-20.487,12.396-20.487s22.334-26.666-12.57-138.943
			c0,0-10.264-28.129-20.282-57.742c0,0,4.478,21.196,8.74,53.028c0.855,6.389,13.153,37.169,9.446,30.991
			c-8-13.334-6.085-2.729-5.684,1.357c0.17,1.729,5.655,13.741,4.713,12.246c-4.14-6.568-5.166-1.213-3.52,0.894
			c2.89,3.696,9.015,21.556,7.299,18.723c-7.738-12.777-8.188-2.879-5.933,0.462c3.163,4.687,10.582,21.101,7.913,18.254
			c-6.748-7.198-9.547,3.516-6.845,7.378c9.958,14.234,10.776,25.878,8.431,22.894c-10.611-13.498-10.493-2.161-8.335,1.698
			c3.749,6.705,10.029,25.714,7.229,22.834c-8.913-9.168-10.601,0.996-8.535,6.278c1.063,2.72,4.433,16.26,3.44,14.605
			c-3.819-6.367-6.741-1.925-4.863,0.593c6.392,8.571,6.924,28.682,5.458,25.55c-6.197-13.243-8.491-4.124-9.554,1.262
			c-0.858,4.351,13.12,14.612,6.498,23.865c-7.215-17.402-17.675,0.855-13.827,4.472c3.642,3.422,3.787,19.461,2.453,16.834
			c-8.234-16.214-12.568,7.439-13.674,9.465H1579l-2.667-400H1713.147z"/>
	</g>
	<path fill="#D6C370" d="M1395.319,751.152c0,0,4.053,5.093,10.311,4.325c0,0-9.722,10.845-2.268,16.22
		C1391.95,769.792,1392.323,760.918,1395.319,751.152z"/>
	<path fill="#D6C370" d="M1406.964,757.28c0,0,6.111,4.142,8.594,0.13c0,0-2.655,9.055,6.141,11.716
		C1410.286,771.032,1407.305,767.491,1406.964,757.28z"/>
	<path fill="#D6C370" d="M1418.672,753.87l3.968-7.332c0,0,1.787,8.758,11.651,13.861
		C1426.944,762.23,1421.341,760.468,1418.672,753.87z"/>
	<path fill="#D6C370" d="M1783.193,748.273c0,0-4.046,5.002-10.296,4.329c0,0,9.717,10.439,2.275,15.757
		C1786.569,766.372,1786.191,757.742,1783.193,748.273z"/>
	<path fill="#D6C370" d="M1772.189,757.302c0,0-4.106,1.216-9.894-0.268c0,0,6.983,7.496,2.014,15.173
		C1774.181,766.175,1774.443,763.942,1772.189,757.302z"/>
	<path fill="#D6C370" d="M1759.739,757.549l-5.555-5.936c0,0,0.318,8.712-8.037,15.979
		C1753.688,767.498,1758.699,764.442,1759.739,757.549z"/>
	<path fill="#7DC6DD" d="M1399.001,1232.25"/>
</g>
<g id="face_layer">
	<g>
		<path fill="#FFFFFF" d="M263.061,174.04c13.137,9.59,16.013,28.012,6.423,41.151c-9.589,13.137-28.013,16.012-41.149,6.422
			c-8.977-6.553-13.162-17.229-11.854-27.526l41.434-23.063C259.693,171.837,261.418,172.841,263.061,174.04z"/>
		<path d="M247.341,179.072c4.958,3.62,6.045,10.573,2.425,15.532s-10.575,6.045-15.533,2.426
			c-3.389-2.475-4.969-6.504-4.475-10.391l15.641-8.706C246.07,178.241,246.721,178.62,247.341,179.072z"/>
	</g>
	<g>
		<path fill="#FFFFFF" d="M186.258,227.402c-19.008,13.562-45.411,9.148-58.974-9.859c-13.562-19.008-9.148-45.412,9.858-58.974
			l66.791,36.417C203.334,207.474,197.225,219.576,186.258,227.402z"/>
		<path d="M168.116,177.337c-4.997,3.565-6.291,10.32-2.89,15.086c3.401,4.768,10.209,5.74,15.206,2.176
			c3.415-2.438,5.101-6.363,4.741-10.126l-15.109-8.262C169.395,176.516,168.741,176.891,168.116,177.337z"/>
	</g>
	<path d="M162,255.001c14.174-8.723,4.333,21.334,44.333,15.334S232,257.001,248,253.001s22.797,50.809,16,74
		c-5.667,19.334-26.189-4.748-27-5.334c-12-8.666-50-8.666-68,6.334s-22,10-23,0S149,263.001,162,255.001z"/>
	<path fill="#FDFDFE" d="M174.334,261.001c0,0,1.512,34.414,2.863,32.252c1.588-2.541,12.803-13.127,12.803-13.127
		c5.94,3.279,9.289,16.031,9.68,16.08c0.883,0.107,8.861-15.977,13.32-18.539c0.784-0.449,18.56,12.492,20.062,13.834
		c1.706,1.521,0.904-23.66,1.042-28.893C223.153,265.451,188.113,281.06,174.334,261.001z"/>
	<path fill="#FDFDFE" d="M169.125,327.861c0,0,3.743-20.414,3.973-23.883c0.16-2.416,12.961,13.434,14.008,10.816
		c1.883-4.707,5.061-8.943,5.061-8.943c1.588,2.043,9.415,7.414,9.415,7.414c5.94-2.633,11.378-8.67,11.769-8.709
		c0.883-0.086,6.25,7.594,10.709,9.65c0.784,0.361,14.028-8.621,15.064-10.004c1.059-1.412-0.021,15.336,0.117,19.537
		C221.47,310.207,185.791,315.611,169.125,327.861z"/>
	<path d="M625.31,259.97l71.849,1.467c0,0-12.613,48.428-37.971,48.428C633.829,309.865,625.31,259.97,625.31,259.97z"/>
	<path fill="#FDFDFE" d="M640.421,260.341c0,0,2.937,19.846,4.177,21.133l9.35-20.863l16.197,0.334
		c0.549-0.182,6.787,18.557,6.787,18.557c0.454,0.074,5.187-16.428,5.282-18.518C681.385,261.191,640.421,260.341,640.421,260.341z"
		/>
	<circle fill="#FFFFFF" cx="622.152" cy="203.455" r="43.25"/>
	<circle cx="605.152" cy="197.455" r="12.25"/>
	<circle fill="#FFFFFF" cx="700.402" cy="207.705" r="28.5"/>
	<circle cx="692.402" cy="203.205" r="11.25"/>
	<path d="M1155.388,267.834l-71.798-2.698c0,0,12.762-3.942,38.103-3.037C1147.035,263.004,1155.388,267.834,1155.388,267.834z"/>
	<path fill="#FDFDFE" d="M1098.876,262.625c0,0,2.814,19.619,4.055,20.906l9.18-21.578
		C1112.11,261.953,1104.11,262.031,1098.876,262.625z"/>
	<path fill="#FFFFFF" d="M1123.601,205.163c0.224,23.887-18.957,43.43-42.844,43.652c-23.887,0.224-43.43-18.959-43.652-42.847
		c-0.06-6.469,1.302-12.618,3.798-18.151l77.374-3.063C1121.609,190.814,1123.532,197.762,1123.601,205.163z"/>
	<path d="M1092.131,212.058c0.374,6.758-4.796,12.538-11.551,12.914c-6.755,0.375-12.537-4.796-12.913-11.553
		c-0.375-6.753,4.796-12.534,11.551-12.91C1085.974,200.134,1091.754,205.305,1092.131,212.058z"/>
	<path fill="#FFFFFF" d="M1183.976,218.12c-1.824,15.636-15.978,26.83-31.61,25.006c-15.635-1.825-26.829-15.979-25.004-31.613
		c0.506-4.335,1.958-8.326,4.126-11.794l51.118,5.763C1183.971,209.414,1184.491,213.708,1183.976,218.12z"/>
	<circle cx="1155.036" cy="219.008" r="11.25"/>
	<path fill="#FDFDFE" d="M1138.501,263.5c0,0-3.533,19.245-4.818,20.489l-8.43-21.881
		C1125.253,262.108,1133.291,262.726,1138.501,263.5z"/>
	<g>
		<path fill="#FFFFFF" d="M1652.941,173.041c13.137,9.59,16.013,28.012,6.423,41.15c-9.589,13.137-28.013,16.012-41.149,6.422
			c-8.977-6.553-13.162-17.229-11.854-27.525l41.434-23.063C1649.574,170.837,1651.299,171.841,1652.941,173.041z"/>
		<path d="M1637.222,178.072c4.958,3.621,6.045,10.574,2.425,15.533s-10.575,6.045-15.533,2.426
			c-3.389-2.475-4.969-6.504-4.475-10.391l15.641-8.707C1635.951,177.242,1636.602,177.62,1637.222,178.072z"/>
	</g>
	<g>
		<path fill="#FFFFFF" d="M1576.139,226.402c-19.008,13.562-45.411,9.148-58.974-9.859s-9.148-45.412,9.858-58.975l66.791,36.418
			C1593.215,206.474,1587.105,218.576,1576.139,226.402z"/>
		<path d="M1557.997,176.337c-4.997,3.564-6.291,10.32-2.89,15.086c3.401,4.768,10.209,5.74,15.206,2.176
			c3.415-2.438,5.101-6.363,4.741-10.127l-15.109-8.262C1559.275,175.516,1558.622,175.891,1557.997,176.337z"/>
	</g>
	<path d="M1551.881,254.001c14.174-8.723,4.333,21.334,44.333,15.334s25.667-13.334,41.667-17.334s22.797,50.809,16,74
		c-5.667,19.334-26.189-4.748-27-5.334c-12-8.666-50-8.666-68,6.334s-22,10-23,0S1538.881,262.001,1551.881,254.001z"/>
	<path fill="#FDFDFE" d="M1564.215,260.001c0,0,1.512,34.414,2.863,32.252c1.588-2.541,12.803-13.127,12.803-13.127
		c5.94,3.279,9.289,16.031,9.68,16.08c0.883,0.107,8.861-15.977,13.32-18.539c0.784-0.449,18.56,12.492,20.062,13.834
		c1.706,1.521,0.904-23.66,1.042-28.893C1613.034,264.451,1577.994,280.06,1564.215,260.001z"/>
	<path fill="#FDFDFE" d="M1559.006,326.861c0,0,3.743-20.414,3.973-23.883c0.16-2.416,12.961,13.434,14.008,10.816
		c1.883-4.707,5.061-8.943,5.061-8.943c1.588,2.043,9.415,7.414,9.415,7.414c5.94-2.633,11.378-8.67,11.769-8.709
		c0.883-0.086,6.25,7.594,10.709,9.65c0.784,0.361,14.028-8.621,15.064-10.004c1.059-1.412-0.021,15.336,0.117,19.537
		C1611.351,309.207,1575.672,314.611,1559.006,326.861z"/>
</g>
<g id="Layer_4" display="none">
	<g display="inline">
		<g opacity="0.7">
			<g>
				<path fill="#74AFD1" d="M124.409,127.164c1.935,0,1.935-3,0-3S122.474,127.164,124.409,127.164L124.409,127.164z"/>
			</g>
		</g>
		<g opacity="0.7">
			<g>
				<path fill="#74AFD1" d="M113.259,121.781c1.935,0,1.935-3,0-3S111.325,121.781,113.259,121.781L113.259,121.781z"/>
			</g>
		</g>
		<g opacity="0.7">
			<g>
				<path fill="#74AFD1" d="M116.624,116.399c1.935,0,1.935-3,0-3S114.689,116.399,116.624,116.399L116.624,116.399z"/>
			</g>
		</g>
		<g opacity="0.7">
			<g>
				<path fill="#74AFD1" d="M114.797,131.104c1.935,0,1.935-3,0-3S112.863,131.104,114.797,131.104L114.797,131.104z"/>
			</g>
		</g>
		<g opacity="0.7">
			<g>
				<path fill="#74AFD1" d="M94.325,98.426c1.935,0,1.935-3,0-3S92.39,98.426,94.325,98.426L94.325,98.426z"/>
			</g>
		</g>
		<g opacity="0.7">
			<g>
				<path fill="#74AFD1" d="M101.629,103.135c1.935,0,1.935-3,0-3S99.695,103.135,101.629,103.135L101.629,103.135z"/>
			</g>
		</g>
		<g opacity="0.7">
			<g>
				<path fill="#74AFD1" d="M104.417,109.19c1.935,0,1.935-3,0-3S102.482,109.19,104.417,109.19L104.417,109.19z"/>
			</g>
		</g>
		<g opacity="0.7">
			<g>
				<path fill="#74AFD1" d="M102.495,115.149c1.935,0,1.935-3,0-3S100.56,115.149,102.495,115.149L102.495,115.149z"/>
			</g>
		</g>
		<g opacity="0.7">
			<g>
				<path fill="#74AFD1" d="M111.818,111.593c1.935,0,1.935-3,0-3S109.883,111.593,111.818,111.593L111.818,111.593z"/>
			</g>
		</g>
		<g opacity="0.7">
			<g>
				<path fill="#74AFD1" d="M97.881,106.691c1.935,0,1.935-3,0-3S95.946,106.691,97.881,106.691L97.881,106.691z"/>
			</g>
		</g>
		<g opacity="0.7">
			<g>
				<path fill="#74AFD1" d="M94.901,102.366c1.935,0,1.935-3,0-3S92.967,102.366,94.901,102.366L94.901,102.366z"/>
			</g>
		</g>
		<g opacity="0.7">
			<g>
				<path fill="#74AFD1" d="M127.1,123.223c1.935,0,1.935-3,0-3S125.165,123.223,127.1,123.223L127.1,123.223z"/>
			</g>
		</g>
		<g opacity="0.7">
			<g>
				<path fill="#74AFD1" d="M119.987,119.475c1.935,0,1.935-3,0-3S118.053,119.475,119.987,119.475L119.987,119.475z"/>
			</g>
		</g>
		<g opacity="0.7">
			<g>
				<path fill="#74AFD1" d="M118.354,124.473c1.935,0,1.935-3,0-3S116.419,124.473,118.354,124.473L118.354,124.473z"/>
			</g>
		</g>
		<g opacity="0.7">
			<g>
				<path fill="#74AFD1" d="M108.357,116.591c1.935,0,1.935-3,0-3S106.423,116.591,108.357,116.591L108.357,116.591z"/>
			</g>
		</g>
		<g opacity="0.7">
			<g>
				<path fill="#74AFD1" d="M107.685,121.589c1.935,0,1.935-3,0-3S105.75,121.589,107.685,121.589L107.685,121.589z"/>
			</g>
		</g>
		<g opacity="0.7">
			<g>
				<path fill="#74AFD1" d="M97.112,101.309c1.935,0,1.935-3,0-3S95.178,101.309,97.112,101.309L97.112,101.309z"/>
			</g>
		</g>
		<g opacity="0.7">
			<g>
				<path fill="#74AFD1" d="M92.018,96.6c1.935,0,1.935-3,0-3S90.083,96.6,92.018,96.6L92.018,96.6z"/>
			</g>
		</g>
		<g opacity="0.7">
			<g>
				<path fill="#74AFD1" d="M93.46,100.732c1.935,0,1.935-3,0-3S91.525,100.732,93.46,100.732L93.46,100.732z"/>
			</g>
		</g>
		<g opacity="0.7">
			<g>
				<path fill="#74AFD1" d="M99.515,101.213c1.935,0,1.935-3,0-3S97.581,101.213,99.515,101.213L99.515,101.213z"/>
			</g>
		</g>
		<g opacity="0.7">
			<g>
				<path fill="#74AFD1" d="M97.497,104.192c1.935,0,1.935-3,0-3S95.562,104.192,97.497,104.192L97.497,104.192z"/>
			</g>
		</g>
		<g opacity="0.7">
			<g>
				<path fill="#74AFD1" d="M99.899,104.865c1.935,0,1.935-3,0-3S97.965,104.865,99.899,104.865L99.899,104.865z"/>
			</g>
		</g>
		<g opacity="0.7">
			<g>
				<path fill="#74AFD1" d="M103.744,104.577c1.935,0,1.935-3,0-3S101.81,104.577,103.744,104.577L103.744,104.577z"/>
			</g>
		</g>
		<g opacity="0.7">
			<g>
				<path fill="#74AFD1" d="M99.13,108.806c1.935,0,1.935-3,0-3S97.196,108.806,99.13,108.806L99.13,108.806z"/>
			</g>
		</g>
		<g opacity="0.7">
			<g>
				<path fill="#74AFD1" d="M102.014,105.25c1.935,0,1.935-3,0-3S100.08,105.25,102.014,105.25L102.014,105.25z"/>
			</g>
		</g>
		<g opacity="0.7">
			<g>
				<path fill="#74AFD1" d="M106.147,106.691c1.935,0,1.935-3,0-3S104.212,106.691,106.147,106.691L106.147,106.691z"/>
			</g>
		</g>
		<g opacity="0.7">
			<g>
				<path fill="#74AFD1" d="M101.822,107.845c1.935,0,1.935-3,0-3S99.887,107.845,101.822,107.845L101.822,107.845z"/>
			</g>
		</g>
		<g opacity="0.7">
			<g>
				<path fill="#74AFD1" d="M102.014,111.113c1.935,0,1.935-3,0-3S100.08,111.113,102.014,111.113L102.014,111.113z"/>
			</g>
		</g>
		<g opacity="0.7">
			<g>
				<path fill="#74AFD1" d="M104.705,112.266c1.935,0,1.935-3,0-3S102.771,112.266,104.705,112.266L104.705,112.266z"/>
			</g>
		</g>
		<g opacity="0.7">
			<g>
				<path fill="#74AFD1" d="M107.781,110.536c1.935,0,1.935-3,0-3S105.846,110.536,107.781,110.536L107.781,110.536z"/>
			</g>
		</g>
		<g opacity="0.7">
			<g>
				<path fill="#74AFD1" d="M109.799,113.419c1.935,0,1.935-3,0-3S107.865,113.419,109.799,113.419L109.799,113.419z"/>
			</g>
		</g>
		<g opacity="0.7">
			<g>
				<path fill="#74AFD1" d="M104.994,117.745c1.935,0,1.935-3,0-3S103.059,117.745,104.994,117.745L104.994,117.745z"/>
			</g>
		</g>
		<g opacity="0.7">
			<g>
				<path fill="#74AFD1" d="M105.474,114.38c1.935,0,1.935-3,0-3S103.54,114.38,105.474,114.38L105.474,114.38z"/>
			</g>
		</g>
		<g opacity="0.7">
			<g>
				<path fill="#74AFD1" d="M114.028,113.323c1.935,0,1.935-3,0-3S112.094,113.323,114.028,113.323L114.028,113.323z"/>
			</g>
		</g>
		<g opacity="0.7">
			<g>
				<path fill="#74AFD1" d="M111.818,117.745c1.935,0,1.935-3,0-3S109.883,117.745,111.818,117.745L111.818,117.745z"/>
			</g>
		</g>
		<g opacity="0.7">
			<g>
				<path fill="#74AFD1" d="M109.703,123.416c1.935,0,1.935-3,0-3S107.769,123.416,109.703,123.416L109.703,123.416z"/>
			</g>
		</g>
		<g opacity="0.7">
			<g>
				<path fill="#74AFD1" d="M111.529,127.933c1.935,0,1.935-3,0-3S109.595,127.933,111.529,127.933L111.529,127.933z"/>
			</g>
		</g>
		<g opacity="0.7">
			<g>
				<path fill="#74AFD1" d="M114.797,125.818c1.935,0,1.935-3,0-3S112.863,125.818,114.797,125.818L114.797,125.818z"/>
			</g>
		</g>
		<g opacity="0.7">
			<g>
				<path fill="#74AFD1" d="M116.815,136.967c1.935,0,1.935-3,0-3S114.881,136.967,116.815,136.967L116.815,136.967z"/>
			</g>
		</g>
		<g opacity="0.7">
			<g>
				<path fill="#74AFD1" d="M121.141,129.566c1.935,0,1.935-3,0-3S119.206,129.566,121.141,129.566L121.141,129.566z"/>
			</g>
		</g>
		<g opacity="0.7">
			<g>
				<path fill="#74AFD1" d="M123.543,134.564c1.935,0,1.935-3,0-3S121.609,134.564,123.543,134.564L123.543,134.564z"/>
			</g>
		</g>
		<g opacity="0.7">
			<g>
				<path fill="#74AFD1" d="M129.502,129.375c1.935,0,1.935-3,0-3S127.568,129.375,129.502,129.375L129.502,129.375z"/>
			</g>
		</g>
		<g opacity="0.7">
			<g>
				<path fill="#74AFD1" d="M131.521,126.972c1.935,0,1.935-3,0-3S129.586,126.972,131.521,126.972L131.521,126.972z"/>
			</g>
		</g>
		<g opacity="0.7">
			<g>
				<path fill="#74AFD1" d="M123.063,122.646c1.935,0,1.935-3,0-3S121.128,122.646,123.063,122.646L123.063,122.646z"/>
			</g>
		</g>
		<g opacity="0.7">
			<g>
				<path fill="#74AFD1" d="M135.27,129.566c1.935,0,1.935-3,0-3S133.335,129.566,135.27,129.566L135.27,129.566z"/>
			</g>
		</g>
		<g opacity="0.7">
			<g>
				<path fill="#74AFD1" d="M141.229,128.702c1.935,0,1.935-3,0-3S139.294,128.702,141.229,128.702L141.229,128.702z"/>
			</g>
		</g>
		<g opacity="0.7">
			<g>
				<path fill="#74AFD1" d="M129.599,134.084c1.935,0,1.935-3,0-3S127.664,134.084,129.599,134.084L129.599,134.084z"/>
			</g>
		</g>
		<g opacity="0.7">
			<g>
				<path fill="#74AFD1" d="M135.942,136.103c1.935,0,1.935-3,0-3S134.008,136.103,135.942,136.103L135.942,136.103z"/>
			</g>
		</g>
		<g opacity="0.7">
			<g>
				<path fill="#74AFD1" d="M120.083,139.082c1.935,0,1.935-3,0-3S118.149,139.082,120.083,139.082L120.083,139.082z"/>
			</g>
		</g>
		<g opacity="0.7">
			<g>
				<path fill="#74AFD1" d="M119.026,146.002c1.935,0,1.935-3,0-3S117.092,146.002,119.026,146.002L119.026,146.002z"/>
			</g>
		</g>
		<g opacity="0.7">
			<g>
				<path fill="#74AFD1" d="M126.812,140.139c1.935,0,1.935-3,0-3S124.877,140.139,126.812,140.139L126.812,140.139z"/>
			</g>
		</g>
		<g opacity="0.7">
			<g>
				<path fill="#74AFD1" d="M123.543,144.752c1.935,0,1.935-3,0-3S121.609,144.752,123.543,144.752L123.543,144.752z"/>
			</g>
		</g>
		<g opacity="0.7">
			<g>
				<path fill="#74AFD1" d="M134.212,142.542c1.935,0,1.935-3,0-3S132.278,142.542,134.212,142.542L134.212,142.542z"/>
			</g>
		</g>
	</g>
	<g display="inline">
		<g opacity="0.7">
			<g>
				<path fill="#74AFD1" d="M205.553,106.844c1.935,0,1.935-3,0-3S203.618,106.844,205.553,106.844L205.553,106.844z"/>
			</g>
		</g>
		<g opacity="0.7">
			<g>
				<path fill="#74AFD1" d="M200.718,95.445c1.935,0,1.935-3,0-3C198.784,92.445,198.784,95.445,200.718,95.445L200.718,95.445z"/>
			</g>
		</g>
		<g opacity="0.7">
			<g>
				<path fill="#74AFD1" d="M206.797,93.618c1.935,0,1.935-3,0-3S204.862,93.618,206.797,93.618L206.797,93.618z"/>
			</g>
		</g>
		<g opacity="0.7">
			<g>
				<path fill="#74AFD1" d="M195.728,103.471c1.935,0,1.935-3,0-3S193.793,103.471,195.728,103.471L195.728,103.471z"/>
			</g>
		</g>
		<g opacity="0.7">
			<g>
				<path fill="#74AFD1" d="M201.881,65.402c1.935,0,1.935-3,0-3S199.946,65.402,201.881,65.402L201.881,65.402z"/>
			</g>
		</g>
		<g opacity="0.7">
			<g>
				<path fill="#74AFD1" d="M204.268,73.759c1.935,0,1.935-3,0-3S202.333,73.759,204.268,73.759L204.268,73.759z"/>
			</g>
		</g>
		<g opacity="0.7">
			<g>
				<path fill="#74AFD1" d="M202.371,80.15c1.935,0,1.935-3,0-3S200.437,80.15,202.371,80.15L202.371,80.15z"/>
			</g>
		</g>
		<g opacity="0.7">
			<g>
				<path fill="#74AFD1" d="M196.997,83.364c1.935,0,1.935-3,0-3S195.062,83.364,196.997,83.364L196.997,83.364z"/>
			</g>
		</g>
		<g opacity="0.7">
			<g>
				<path fill="#74AFD1" d="M206.351,86.835c1.935,0,1.935-3,0-3S204.416,86.835,206.351,86.835L206.351,86.835z"/>
			</g>
		</g>
		<g opacity="0.7">
			<g>
				<path fill="#74AFD1" d="M199.105,73.961c1.935,0,1.935-3,0-3C197.17,70.961,197.17,73.961,199.105,73.961L199.105,73.961z"/>
			</g>
		</g>
		<g opacity="0.7">
			<g>
				<path fill="#74AFD1" d="M199.716,68.746c1.935,0,1.935-3,0-3S197.781,68.746,199.716,68.746L199.716,68.746z"/>
			</g>
		</g>
		<g opacity="0.7">
			<g>
				<path fill="#74AFD1" d="M210.174,105.655c1.935,0,1.935-3,0-3S208.239,105.655,210.174,105.655L210.174,105.655z"/>
			</g>
		</g>
		<g opacity="0.7">
			<g>
				<path fill="#74AFD1" d="M207.299,98.147c1.935,0,1.935-3,0-3S205.364,98.147,207.299,98.147L207.299,98.147z"/>
			</g>
		</g>
		<g opacity="0.7">
			<g>
				<path fill="#74AFD1" d="M202.774,100.828c1.935,0,1.935-3,0-3S200.84,100.828,202.774,100.828L202.774,100.828z"/>
			</g>
		</g>
		<g opacity="0.7">
			<g>
				<path fill="#74AFD1" d="M200.454,88.312c1.935,0,1.935-3,0-3S198.52,88.312,200.454,88.312L200.454,88.312z"/>
			</g>
		</g>
		<g opacity="0.7">
			<g>
				<path fill="#74AFD1" d="M196.653,91.626c1.935,0,1.935-3,0-3S194.719,91.626,196.653,91.626L196.653,91.626z"/>
			</g>
		</g>
		<g opacity="0.7">
			<g>
				<path fill="#74AFD1" d="M202.075,69.408c1.935,0,1.935-3,0-3S200.141,69.408,202.075,69.408L202.075,69.408z"/>
			</g>
		</g>
		<g opacity="0.7">
			<g>
				<path fill="#74AFD1" d="M201.351,62.508c1.935,0,1.935-3,0-3S199.416,62.508,201.351,62.508L201.351,62.508z"/>
			</g>
		</g>
		<g opacity="0.7">
			<g>
				<path fill="#74AFD1" d="M199.709,66.566c1.935,0,1.935-3,0-3C197.775,63.566,197.775,66.566,199.709,66.566L199.709,66.566z"/>
			</g>
		</g>
		<g opacity="0.7">
			<g>
				<path fill="#74AFD1" d="M203.945,70.919c1.935,0,1.935-3,0-3S202.011,70.919,203.945,70.919L203.945,70.919z"/>
			</g>
		</g>
		<g opacity="0.7">
			<g>
				<path fill="#74AFD1" d="M200.463,71.83c1.935,0,1.935-3,0-3C198.529,68.83,198.529,71.83,200.463,71.83L200.463,71.83z"/>
			</g>
		</g>
		<g opacity="0.7">
			<g>
				<path fill="#74AFD1" d="M201.826,73.919c1.935,0,1.935-3,0-3S199.892,73.919,201.826,73.919L201.826,73.919z"/>
			</g>
		</g>
		<g opacity="0.7">
			<g>
				<path fill="#74AFD1" d="M204.906,76.238c1.935,0,1.935-3,0-3S202.972,76.238,204.906,76.238L204.906,76.238z"/>
			</g>
		</g>
		<g opacity="0.7">
			<g>
				<path fill="#74AFD1" d="M198.649,76.375c1.935,0,1.935-3,0-3S196.715,76.375,198.649,76.375L198.649,76.375z"/>
			</g>
		</g>
		<g opacity="0.7">
			<g>
				<path fill="#74AFD1" d="M203.163,75.603c1.935,0,1.935-3,0-3S201.229,75.603,203.163,75.603L203.163,75.603z"/>
			</g>
		</g>
		<g opacity="0.7">
			<g>
				<path fill="#74AFD1" d="M205.32,79.412c1.935,0,1.935-3,0-3S203.386,79.412,205.32,79.412L205.32,79.412z"/>
			</g>
		</g>
		<g opacity="0.7">
			<g>
				<path fill="#74AFD1" d="M201.306,77.427c1.935,0,1.935-3,0-3S199.371,77.427,201.306,77.427L201.306,77.427z"/>
			</g>
		</g>
		<g opacity="0.7">
			<g>
				<path fill="#74AFD1" d="M199.297,80.011c1.935,0,1.935-3,0-3C197.363,77.011,197.363,80.011,199.297,80.011L199.297,80.011z"/>
			</g>
		</g>
		<g opacity="0.7">
			<g>
				<path fill="#74AFD1" d="M200.56,82.652c1.935,0,1.935-3,0-3C198.625,79.652,198.625,82.652,200.56,82.652L200.56,82.652z"/>
			</g>
		</g>
		<g opacity="0.7">
			<g>
				<path fill="#74AFD1" d="M204.013,83.379c1.935,0,1.935-3,0-3S202.078,83.379,204.013,83.379L204.013,83.379z"/>
			</g>
		</g>
		<g opacity="0.7">
			<g>
				<path fill="#74AFD1" d="M203.63,86.878c1.935,0,1.935-3,0-3S201.695,86.878,203.63,86.878L203.63,86.878z"/>
			</g>
		</g>
		<g opacity="0.7">
			<g>
				<path fill="#74AFD1" d="M197.165,86.961c1.935,0,1.935-3,0-3S195.23,86.961,197.165,86.961L197.165,86.961z"/>
			</g>
		</g>
		<g opacity="0.7">
			<g>
				<path fill="#74AFD1" d="M199.744,84.749c1.935,0,1.935-3,0-3S197.81,84.749,199.744,84.749L199.744,84.749z"/>
			</g>
		</g>
		<g opacity="0.7">
			<g>
				<path fill="#74AFD1" d="M206.873,89.594c1.935,0,1.935-3,0-3S204.938,89.594,206.873,89.594L206.873,89.594z"/>
			</g>
		</g>
		<g opacity="0.7">
			<g>
				<path fill="#74AFD1" d="M202.295,91.461c1.935,0,1.935-3,0-3S200.36,91.461,202.295,91.461L202.295,91.461z"/>
			</g>
		</g>
		<g opacity="0.7">
			<g>
				<path fill="#74AFD1" d="M196.967,94.331c1.935,0,1.935-3,0-3S195.033,94.331,196.967,94.331L196.967,94.331z"/>
			</g>
		</g>
		<g opacity="0.7">
			<g>
				<path fill="#74AFD1" d="M195.361,98.931c1.935,0,1.935-3,0-3S193.427,98.931,195.361,98.931L195.361,98.931z"/>
			</g>
		</g>
		<g opacity="0.7">
			<g>
				<path fill="#74AFD1" d="M199.214,99.496c1.935,0,1.935-3,0-3S197.279,99.496,199.214,99.496L199.214,99.496z"/>
			</g>
		</g>
		<g opacity="0.7">
			<g>
				<path fill="#74AFD1" d="M193.38,109.209c1.935,0,1.935-3,0-3S191.445,109.209,193.38,109.209L193.38,109.209z"/>
			</g>
		</g>
		<g opacity="0.7">
			<g>
				<path fill="#74AFD1" d="M201.513,106.496c1.935,0,1.935-3,0-3S199.578,106.496,201.513,106.496L201.513,106.496z"/>
			</g>
		</g>
		<g opacity="0.7">
			<g>
				<path fill="#74AFD1" d="M200.023,111.838c1.935,0,1.935-3,0-3S198.089,111.838,200.023,111.838L200.023,111.838z"/>
			</g>
		</g>
		<g opacity="0.7">
			<g>
				<path fill="#74AFD1" d="M207.926,111.865c1.935,0,1.935-3,0-3S205.991,111.865,207.926,111.865L207.926,111.865z"/>
			</g>
		</g>
		<g opacity="0.7">
			<g>
				<path fill="#74AFD1" d="M211.026,111.389c1.935,0,1.935-3,0-3S209.092,111.389,211.026,111.389L211.026,111.389z"/>
			</g>
		</g>
		<g opacity="0.7">
			<g>
				<path fill="#74AFD1" d="M207.52,102.56c1.935,0,1.935-3,0-3S205.585,102.56,207.52,102.56L207.52,102.56z"/>
			</g>
		</g>
		<g opacity="0.7">
			<g>
				<path fill="#74AFD1" d="M212.135,115.811c1.935,0,1.935-3,0-3S210.2,115.811,212.135,115.811L212.135,115.811z"/>
			</g>
		</g>
		<g opacity="0.7">
			<g>
				<path fill="#74AFD1" d="M217.186,119.09c1.935,0,1.935-3,0-3S215.251,119.09,217.186,119.09L217.186,119.09z"/>
			</g>
		</g>
		<g opacity="0.7">
			<g>
				<path fill="#74AFD1" d="M204.893,115.469c1.935,0,1.935-3,0-3S202.958,115.469,204.893,115.469L204.893,115.469z"/>
			</g>
		</g>
		<g opacity="0.7">
			<g>
				<path fill="#74AFD1" d="M208.331,121.169c1.935,0,1.935-3,0-3S206.396,121.169,208.331,121.169L208.331,121.169z"/>
			</g>
		</g>
		<g opacity="0.7">
			<g>
				<path fill="#74AFD1" d="M194.443,112.953c1.935,0,1.935-3,0-3S192.508,112.953,194.443,112.953L194.443,112.953z"/>
			</g>
		</g>
		<g opacity="0.7">
			<g>
				<path fill="#74AFD1" d="M189.086,117.459c1.935,0,1.935-3,0-3S187.151,117.459,189.086,117.459L189.086,117.459z"/>
			</g>
		</g>
		<g opacity="0.7">
			<g>
				<path fill="#74AFD1" d="M198.804,118.185c1.935,0,1.935-3,0-3S196.87,118.185,198.804,118.185L198.804,118.185z"/>
			</g>
		</g>
		<g opacity="0.7">
			<g>
				<path fill="#74AFD1" d="M193.306,119.499c1.935,0,1.935-3,0-3S191.372,119.499,193.306,119.499L193.306,119.499z"/>
			</g>
		</g>
		<g opacity="0.7">
			<g>
				<path fill="#74AFD1" d="M202.785,124.87c1.935,0,1.935-3,0-3S200.851,124.87,202.785,124.87L202.785,124.87z"/>
			</g>
		</g>
	</g>
	<g display="inline">
		<g opacity="0.7">
			<g>
				<path fill="#74AFD1" d="M283.775,138.878c1.935,0,1.935-3,0-3S281.841,138.878,283.775,138.878L283.775,138.878z"/>
			</g>
		</g>
		<g opacity="0.7">
			<g>
				<path fill="#74AFD1" d="M288.365,127.379c1.935,0,1.935-3,0-3S286.431,127.379,288.365,127.379L288.365,127.379z"/>
			</g>
		</g>
		<g opacity="0.7">
			<g>
				<path fill="#74AFD1" d="M293.97,130.359c1.935,0,1.935-3,0-3S292.035,130.359,293.97,130.359L293.97,130.359z"/>
			</g>
		</g>
		<g opacity="0.7">
			<g>
				<path fill="#74AFD1" d="M279.172,129.565c1.935,0,1.935-3,0-3S277.237,129.565,279.172,129.565L279.172,129.565z"/>
			</g>
		</g>
		<g opacity="0.7">
			<g>
				<path fill="#74AFD1" d="M310.341,106.859c1.935,0,1.935-3,0-3S308.406,106.859,310.341,106.859L310.341,106.859z"/>
			</g>
		</g>
		<g opacity="0.7">
			<g>
				<path fill="#74AFD1" d="M306.153,114.475c1.935,0,1.935-3,0-3S304.219,114.475,306.153,114.475L306.153,114.475z"/>
			</g>
		</g>
		<g opacity="0.7">
			<g>
				<path fill="#74AFD1" d="M300.308,117.679c1.935,0,1.935-3,0-3S298.373,117.679,300.308,117.679L300.308,117.679z"/>
			</g>
		</g>
		<g opacity="0.7">
			<g>
				<path fill="#74AFD1" d="M294.229,116.178c1.935,0,1.935-3,0-3S292.294,116.178,294.229,116.178L294.229,116.178z"/>
			</g>
		</g>
		<g opacity="0.7">
			<g>
				<path fill="#74AFD1" d="M298.428,125.229c1.935,0,1.935-3,0-3S296.493,125.229,298.428,125.229L298.428,125.229z"/>
			</g>
		</g>
		<g opacity="0.7">
			<g>
				<path fill="#74AFD1" d="M302.344,110.984c1.935,0,1.935-3,0-3S300.409,110.984,302.344,110.984L302.344,110.984z"/>
			</g>
		</g>
		<g opacity="0.7">
			<g>
				<path fill="#74AFD1" d="M306.45,107.709c1.935,0,1.935-3,0-3S304.516,107.709,306.45,107.709L306.45,107.709z"/>
			</g>
		</g>
		<g opacity="0.7">
			<g>
				<path fill="#74AFD1" d="M287.894,141.287c1.935,0,1.935-3,0-3S285.959,141.287,287.894,141.287L287.894,141.287z"/>
			</g>
		</g>
		<g opacity="0.7">
			<g>
				<path fill="#74AFD1" d="M291.137,133.93c1.935,0,1.935-3,0-3S289.202,133.93,291.137,133.93L291.137,133.93z"/>
			</g>
		</g>
		<g opacity="0.7">
			<g>
				<path fill="#74AFD1" d="M286.036,132.649c1.935,0,1.935-3,0-3S284.102,132.649,286.036,132.649L286.036,132.649z"/>
			</g>
		</g>
		<g opacity="0.7">
			<g>
				<path fill="#74AFD1" d="M293.2,122.126c1.935,0,1.935-3,0-3S291.266,122.126,293.2,122.126L293.2,122.126z"/>
			</g>
		</g>
		<g opacity="0.7">
			<g>
				<path fill="#74AFD1" d="M288.167,121.805c1.935,0,1.935-3,0-3S286.232,121.805,288.167,121.805L288.167,121.805z"/>
			</g>
		</g>
		<g opacity="0.7">
			<g>
				<path fill="#74AFD1" d="M307.659,109.841c1.935,0,1.935-3,0-3S305.725,109.841,307.659,109.841L307.659,109.841z"/>
			</g>
		</g>
		<g opacity="0.7">
			<g>
				<path fill="#74AFD1" d="M312.001,104.431c1.935,0,1.935-3,0-3S310.066,104.431,312.001,104.431L312.001,104.431z"/>
			</g>
		</g>
		<g opacity="0.7">
			<g>
				<path fill="#74AFD1" d="M307.979,106.157c1.935,0,1.935-3,0-3S306.044,106.157,307.979,106.157L307.979,106.157z"/>
			</g>
		</g>
		<g opacity="0.7">
			<g>
				<path fill="#74AFD1" d="M307.923,112.231c1.935,0,1.935-3,0-3S305.988,112.231,307.923,112.231L307.923,112.231z"/>
			</g>
		</g>
		<g opacity="0.7">
			<g>
				<path fill="#74AFD1" d="M304.81,110.426c1.935,0,1.935-3,0-3S302.875,110.426,304.81,110.426L304.81,110.426z"/>
			</g>
		</g>
		<g opacity="0.7">
			<g>
				<path fill="#74AFD1" d="M304.307,112.87c1.935,0,1.935-3,0-3S302.372,112.87,304.307,112.87L304.307,112.87z"/>
			</g>
		</g>
		<g opacity="0.7">
			<g>
				<path fill="#74AFD1" d="M304.862,116.685c1.935,0,1.935-3,0-3S302.928,116.685,304.862,116.685L304.862,116.685z"/>
			</g>
		</g>
		<g opacity="0.7">
			<g>
				<path fill="#74AFD1" d="M300.321,112.377c1.935,0,1.935-3,0-3S298.387,112.377,300.321,112.377L300.321,112.377z"/>
			</g>
		</g>
		<g opacity="0.7">
			<g>
				<path fill="#74AFD1" d="M304.07,115.007c1.935,0,1.935-3,0-3S302.136,115.007,304.07,115.007L304.07,115.007z"/>
			</g>
		</g>
		<g opacity="0.7">
			<g>
				<path fill="#74AFD1" d="M302.921,119.23c1.935,0,1.935-3,0-3S300.986,119.23,302.921,119.23L302.921,119.23z"/>
			</g>
		</g>
		<g opacity="0.7">
			<g>
				<path fill="#74AFD1" d="M301.469,114.995c1.935,0,1.935-3,0-3S299.534,114.995,301.469,114.995L301.469,114.995z"/>
			</g>
		</g>
		<g opacity="0.7">
			<g>
				<path fill="#74AFD1" d="M298.222,115.417c1.935,0,1.935-3,0-3S296.287,115.417,298.222,115.417L298.222,115.417z"/>
			</g>
		</g>
		<g opacity="0.7">
			<g>
				<path fill="#74AFD1" d="M297.26,118.181c1.935,0,1.935-3,0-3S295.325,118.181,297.26,118.181L297.26,118.181z"/>
			</g>
		</g>
		<g opacity="0.7">
			<g>
				<path fill="#74AFD1" d="M299.2,121.128c1.935,0,1.935-3,0-3S297.266,121.128,299.2,121.128L299.2,121.128z"/>
			</g>
		</g>
		<g opacity="0.7">
			<g>
				<path fill="#74AFD1" d="M296.465,123.344c1.935,0,1.935-3,0-3S294.53,123.344,296.465,123.344L296.465,123.344z"/>
			</g>
		</g>
		<g opacity="0.7">
			<g>
				<path fill="#74AFD1" d="M291.814,118.851c1.935,0,1.935-3,0-3S289.88,118.851,291.814,118.851L291.814,118.851z"/>
			</g>
		</g>
		<g opacity="0.7">
			<g>
				<path fill="#74AFD1" d="M295.204,119.095c1.935,0,1.935-3,0-3S293.27,119.095,295.204,119.095L295.204,119.095z"/>
			</g>
		</g>
		<g opacity="0.7">
			<g>
				<path fill="#74AFD1" d="M296.856,127.555c1.935,0,1.935-3,0-3S294.922,127.555,296.856,127.555L296.856,127.555z"/>
			</g>
		</g>
		<g opacity="0.7">
			<g>
				<path fill="#74AFD1" d="M292.291,125.659c1.935,0,1.935-3,0-3S290.356,125.659,292.291,125.659L292.291,125.659z"/>
			</g>
		</g>
		<g opacity="0.7">
			<g>
				<path fill="#74AFD1" d="M286.486,123.946c1.935,0,1.935-3,0-3S284.552,123.946,286.486,123.946L286.486,123.946z"/>
			</g>
		</g>
		<g opacity="0.7">
			<g>
				<path fill="#74AFD1" d="M282.108,126.083c1.935,0,1.935-3,0-3S280.174,126.083,282.108,126.083L282.108,126.083z"/>
			</g>
		</g>
		<g opacity="0.7">
			<g>
				<path fill="#74AFD1" d="M284.445,129.196c1.935,0,1.935-3,0-3S282.511,129.196,284.445,129.196L284.445,129.196z"/>
			</g>
		</g>
		<g opacity="0.7">
			<g>
				<path fill="#74AFD1" d="M273.465,131.988c1.935,0,1.935-3,0-3S271.53,131.988,273.465,131.988L273.465,131.988z"/>
			</g>
		</g>
		<g opacity="0.7">
			<g>
				<path fill="#74AFD1" d="M281.149,135.785c1.935,0,1.935-3,0-3S279.215,135.785,281.149,135.785L281.149,135.785z"/>
			</g>
		</g>
		<g opacity="0.7">
			<g>
				<path fill="#74AFD1" d="M276.332,138.532c1.935,0,1.935-3,0-3S274.397,138.532,276.332,138.532L276.332,138.532z"/>
			</g>
		</g>
		<g opacity="0.7">
			<g>
				<path fill="#74AFD1" d="M281.926,144.114c1.935,0,1.935-3,0-3S279.991,144.114,281.926,144.114L281.926,144.114z"/>
			</g>
		</g>
		<g opacity="0.7">
			<g>
				<path fill="#74AFD1" d="M284.464,145.958c1.935,0,1.935-3,0-3S282.529,145.958,284.464,145.958L284.464,145.958z"/>
			</g>
		</g>
		<g opacity="0.7">
			<g>
				<path fill="#74AFD1" d="M288.188,137.22c1.935,0,1.935-3,0-3S286.253,137.22,288.188,137.22L288.188,137.22z"/>
			</g>
		</g>
		<g opacity="0.7">
			<g>
				<path fill="#74AFD1" d="M282.137,149.88c1.935,0,1.935-3,0-3S280.202,149.88,282.137,149.88L282.137,149.88z"/>
			</g>
		</g>
		<g opacity="0.7">
			<g>
				<path fill="#74AFD1" d="M283.416,155.764c1.935,0,1.935-3,0-3S281.481,155.764,283.416,155.764L283.416,155.764z"/>
			</g>
		</g>
		<g opacity="0.7">
			<g>
				<path fill="#74AFD1" d="M277.234,144.539c1.935,0,1.935-3,0-3S275.3,144.539,277.234,144.539L277.234,144.539z"/>
			</g>
		</g>
		<g opacity="0.7">
			<g>
				<path fill="#74AFD1" d="M275.664,151.008c1.935,0,1.935-3,0-3S273.729,151.008,275.664,151.008L275.664,151.008z"/>
			</g>
		</g>
		<g opacity="0.7">
			<g>
				<path fill="#74AFD1" d="M271.584,135.396c1.935,0,1.935-3,0-3S269.649,135.396,271.584,135.396L271.584,135.396z"/>
			</g>
		</g>
		<g opacity="0.7">
			<g>
				<path fill="#74AFD1" d="M264.606,134.825c1.935,0,1.935-3,0-3S262.672,134.825,264.606,134.825L264.606,134.825z"/>
			</g>
		</g>
		<g opacity="0.7">
			<g>
				<path fill="#74AFD1" d="M270.999,142.181c1.935,0,1.935-3,0-3S269.064,142.181,270.999,142.181L270.999,142.181z"/>
			</g>
		</g>
		<g opacity="0.7">
			<g>
				<path fill="#74AFD1" d="M266.169,139.244c1.935,0,1.935-3,0-3S264.234,139.244,266.169,139.244L266.169,139.244z"/>
			</g>
		</g>
		<g opacity="0.7">
			<g>
				<path fill="#74AFD1" d="M269.119,149.731c1.935,0,1.935-3,0-3S267.185,149.731,269.119,149.731L269.119,149.731z"/>
			</g>
		</g>
	</g>
	<g display="inline">
		<g>
			<path fill="#74AFD1" d="M207.784,82.367c1.935,0,1.935-3,0-3S205.85,82.367,207.784,82.367L207.784,82.367z"/>
		</g>
	</g>
	<g display="inline">
		<g>
			<path fill="#74AFD1" d="M204.091,66.942c1.935,0,1.935-3,0-3S202.156,66.942,204.091,66.942L204.091,66.942z"/>
		</g>
	</g>
	<g display="inline">
		<g>
			<path fill="#74AFD1" d="M196.27,79.543c1.935,0,1.935-3,0-3S194.335,79.543,196.27,79.543L196.27,79.543z"/>
		</g>
	</g>
	<g display="inline">
		<g>
			<path fill="#74AFD1" d="M195.401,85.843c1.935,0,1.935-3,0-3S193.466,85.843,195.401,85.843L195.401,85.843z"/>
		</g>
	</g>
	<g display="inline">
		<g>
			<path fill="#74AFD1" d="M193.663,94.099c1.935,0,1.935-3,0-3S191.728,94.099,193.663,94.099L193.663,94.099z"/>
		</g>
	</g>
	<g display="inline">
		<g>
			<path fill="#74AFD1" d="M191.925,101.92c1.935,0,1.935-3,0-3S189.99,101.92,191.925,101.92L191.925,101.92z"/>
		</g>
	</g>
	<g display="inline">
		<g>
			<path fill="#74AFD1" d="M190.838,108.654c1.935,0,1.935-3,0-3S188.904,108.654,190.838,108.654L190.838,108.654z"/>
		</g>
	</g>
	<g display="inline">
		<g>
			<path fill="#74AFD1" d="M203.873,96.271c1.935,0,1.935-3,0-3S201.938,96.271,203.873,96.271L203.873,96.271z"/>
		</g>
	</g>
	<g display="inline">
		<g>
			<path fill="#74AFD1" d="M209.305,86.93c1.935,0,1.935-3,0-3S207.37,86.93,209.305,86.93L209.305,86.93z"/>
		</g>
	</g>
	<g display="inline">
		<g>
			<path fill="#74AFD1" d="M210.174,91.709c1.935,0,1.935-3,0-3S208.239,91.709,210.174,91.709L210.174,91.709z"/>
		</g>
	</g>
	<g display="inline">
		<g>
			<path fill="#74AFD1" d="M211.694,97.357c1.935,0,1.935-3,0-3S209.76,97.357,211.694,97.357L211.694,97.357z"/>
		</g>
	</g>
	<g display="inline">
		<g>
			<path fill="#74AFD1" d="M212.563,102.571c1.935,0,1.935-3,0-3S210.629,102.571,212.563,102.571L212.563,102.571z"/>
		</g>
	</g>
	<g display="inline">
		<g>
			<path fill="#74AFD1" d="M214.736,109.306c1.935,0,1.935-3,0-3S212.802,109.306,214.736,109.306L214.736,109.306z"/>
		</g>
	</g>
	<g display="inline">
		<g>
			<path fill="#74AFD1" d="M218.429,113.434c1.935,0,1.935-3,0-3S216.494,113.434,218.429,113.434L218.429,113.434z"/>
		</g>
	</g>
	<g display="inline">
		<g>
			<path fill="#74AFD1" d="M224.295,116.258c1.935,0,1.935-3,0-3S222.36,116.258,224.295,116.258L224.295,116.258z"/>
		</g>
	</g>
	<g display="inline">
		<g>
			<path fill="#74AFD1" d="M230.378,117.996c1.935,0,1.935-3,0-3S228.443,117.996,230.378,117.996L230.378,117.996z"/>
		</g>
	</g>
	<g display="inline">
		<g>
			<path fill="#74AFD1" d="M224.295,121.689c1.935,0,1.935-3,0-3S222.36,121.689,224.295,121.689L224.295,121.689z"/>
		</g>
	</g>
	<g display="inline">
		<g>
			<path fill="#74AFD1" d="M241.675,121.472c1.935,0,1.935-3,0-3S239.74,121.472,241.675,121.472L241.675,121.472z"/>
		</g>
	</g>
	<g display="inline">
		<g>
			<path fill="#74AFD1" d="M249.062,124.948c1.935,0,1.935-3,0-3S247.127,124.948,249.062,124.948L249.062,124.948z"/>
		</g>
	</g>
	<g display="inline">
		<g>
			<path fill="#74AFD1" d="M257.316,127.121c1.935,0,1.935-3,0-3S255.382,127.121,257.316,127.121L257.316,127.121z"/>
		</g>
	</g>
	<g display="inline">
		<g>
			<path fill="#74AFD1" d="M265.138,130.379c1.935,0,1.935-3,0-3S263.203,130.379,265.138,130.379L265.138,130.379z"/>
		</g>
	</g>
	<g display="inline">
		<g>
			<path fill="#74AFD1" d="M260.575,132.552c1.935,0,1.935-3,0-3S258.641,132.552,260.575,132.552L260.575,132.552z"/>
		</g>
	</g>
	<g display="inline">
		<g>
			<path fill="#74AFD1" d="M253.406,128.859c1.935,0,1.935-3,0-3S251.472,128.859,253.406,128.859L253.406,128.859z"/>
		</g>
	</g>
	<g display="inline">
		<g>
			<path fill="#74AFD1" d="M235.809,122.124c1.935,0,1.935-3,0-3S233.874,122.124,235.809,122.124L235.809,122.124z"/>
		</g>
	</g>
	<g display="inline">
		<g>
			<path fill="#74AFD1" d="M287.08,148.628c1.935,0,1.935-3,0-3S285.146,148.628,287.08,148.628L287.08,148.628z"/>
		</g>
	</g>
	<g display="inline">
		<g>
			<path fill="#74AFD1" d="M292.729,155.146c1.935,0,1.935-3,0-3S290.794,155.146,292.729,155.146L292.729,155.146z"/>
		</g>
	</g>
	<g display="inline">
		<g>
			<path fill="#74AFD1" d="M296.856,161.446c1.935,0,1.935-3,0-3S294.922,161.446,296.856,161.446L296.856,161.446z"/>
		</g>
	</g>
	<g display="inline">
		<g>
			<path fill="#74AFD1" d="M305.329,176.219c1.935,0,1.935-3,0-3S303.395,176.219,305.329,176.219L305.329,176.219z"/>
		</g>
	</g>
	<g display="inline">
		<g>
			<path fill="#74AFD1" d="M302.287,170.353c1.935,0,1.935-3,0-3S300.353,170.353,302.287,170.353L302.287,170.353z"/>
		</g>
	</g>
	<g display="inline">
		<g>
			<path fill="#74AFD1" d="M300.332,165.356c1.935,0,1.935-3,0-3S298.397,165.356,300.332,165.356L300.332,165.356z"/>
		</g>
	</g>
	<g display="inline">
		<g>
			<path fill="#74AFD1" d="M290.556,159.273c1.935,0,1.935-3,0-3S288.621,159.273,290.556,159.273L290.556,159.273z"/>
		</g>
	</g>
	<g display="inline">
		<g>
			<path fill="#74AFD1" d="M287.08,153.842c1.935,0,1.935-3,0-3S285.146,153.842,287.08,153.842L287.08,153.842z"/>
		</g>
	</g>
	<g display="inline">
		<g>
			<path fill="#74AFD1" d="M115.018,147.758c1.935,0,1.935-3,0-3S113.083,147.758,115.018,147.758L115.018,147.758z"/>
		</g>
	</g>
	<g display="inline">
		<g>
			<path fill="#74AFD1" d="M109.152,154.71c1.935,0,1.935-3,0-3S107.218,154.71,109.152,154.71L109.152,154.71z"/>
		</g>
	</g>
	<g display="inline">
		<g>
			<path fill="#74AFD1" d="M103.938,162.966c1.935,0,1.935-3,0-3S102.003,162.966,103.938,162.966L103.938,162.966z"/>
		</g>
	</g>
	<g display="inline">
		<g>
			<path fill="#74AFD1" d="M106.328,158.187c1.935,0,1.935-3,0-3S104.394,158.187,106.328,158.187L106.328,158.187z"/>
		</g>
	</g>
	<g display="inline">
		<g>
			<path fill="#74AFD1" d="M111.759,151.234c1.935,0,1.935-3,0-3S109.825,151.234,111.759,151.234L111.759,151.234z"/>
		</g>
	</g>
	<g display="inline">
		<g>
			<path fill="#74AFD1" d="M119.58,149.931c1.935,0,1.935-3,0-3S117.646,149.931,119.58,149.931L119.58,149.931z"/>
		</g>
	</g>
	<g display="inline">
		<g>
			<path fill="#74AFD1" d="M113.497,153.841c1.935,0,1.935-3,0-3S111.562,153.841,113.497,153.841L113.497,153.841z"/>
		</g>
	</g>
	<g display="inline">
		<g>
			<path fill="#74AFD1" d="M109.586,159.055c1.935,0,1.935-3,0-3S107.652,159.055,109.586,159.055L109.586,159.055z"/>
		</g>
	</g>
	<g display="inline">
		<g>
			<path fill="#74AFD1" d="M100.245,168.832c1.935,0,1.935-3,0-3S98.311,168.832,100.245,168.832L100.245,168.832z"/>
		</g>
	</g>
	<g display="inline">
		<g>
			<path fill="#74AFD1" d="M126.967,147.106c1.935,0,1.935-3,0-3S125.032,147.106,126.967,147.106L126.967,147.106z"/>
		</g>
	</g>
	<g display="inline">
		<g>
			<path fill="#74AFD1" d="M140.871,132.985c1.935,0,1.935-3,0-3S138.936,132.985,140.871,132.985L140.871,132.985z"/>
		</g>
	</g>
	<g display="inline">
		<g>
			<path fill="#74AFD1" d="M147.823,126.25c1.935,0,1.935-3,0-3S145.888,126.25,147.823,126.25L147.823,126.25z"/>
		</g>
	</g>
	<g display="inline">
		<g>
			<path fill="#74AFD1" d="M157.381,123.861c1.935,0,1.935-3,0-3S155.447,123.861,157.381,123.861L157.381,123.861z"/>
		</g>
	</g>
	<g display="inline">
		<g>
			<path fill="#74AFD1" d="M169.33,124.295c1.935,0,1.935-3,0-3S167.396,124.295,169.33,124.295L169.33,124.295z"/>
		</g>
	</g>
	<g display="inline">
		<g>
			<path fill="#74AFD1" d="M173.241,119.516c1.935,0,1.935-3,0-3S171.306,119.516,173.241,119.516L173.241,119.516z"/>
		</g>
	</g>
	<g display="inline">
		<g>
			<path fill="#74AFD1" d="M180.627,114.302c1.935,0,1.935-3,0-3S178.693,114.302,180.627,114.302L180.627,114.302z"/>
		</g>
	</g>
	<g display="inline">
		<g>
			<path fill="#74AFD1" d="M181.279,119.95c1.935,0,1.935-3,0-3S179.344,119.95,181.279,119.95L181.279,119.95z"/>
		</g>
	</g>
	<g display="inline">
		<g>
			<path fill="#74AFD1" d="M164.333,120.819c1.935,0,1.935-3,0-3S162.399,120.819,164.333,120.819L164.333,120.819z"/>
		</g>
	</g>
	<g display="inline">
		<g>
			<path fill="#74AFD1" d="M160.857,126.468c1.935,0,1.935-3,0-3S158.923,126.468,160.857,126.468L160.857,126.468z"/>
		</g>
	</g>
	<g display="inline">
		<g>
			<path fill="#74AFD1" d="M149.126,130.813c1.935,0,1.935-3,0-3S147.191,130.813,149.126,130.813L149.126,130.813z"/>
		</g>
	</g>
	<g display="inline">
		<g>
			<path fill="#74AFD1" d="M141.305,138.199c1.935,0,1.935-3,0-3S139.371,138.199,141.305,138.199L141.305,138.199z"/>
		</g>
	</g>
	<g display="inline">
		<g>
			<path fill="#74AFD1" d="M154.34,127.337c1.935,0,1.935-3,0-3S152.405,127.337,154.34,127.337L154.34,127.337z"/>
		</g>
	</g>
	<g display="inline">
		<g>
			<path fill="#74AFD1" d="M168.461,116.909c1.935,0,1.935-3,0-3S166.527,116.909,168.461,116.909L168.461,116.909z"/>
		</g>
	</g>
</g>
</svg>
