<?xml version="1.0" encoding="utf-8"?>
<!-- Generator: Adobe Illustrator 15.1.0, SVG Export Plug-In . SVG Version: 6.00 Build 0)  -->
<!DOCTYPE svg PUBLIC "-//W3C//DTD SVG 1.1//EN" "http://www.w3.org/Graphics/SVG/1.1/DTD/svg11.dtd">
<svg version="1.1" xmlns="http://www.w3.org/2000/svg" xmlns:xlink="http://www.w3.org/1999/xlink" x="0px" y="0px" width="400px"
	 height="400px" viewBox="0 0 400 400" enable-background="new 0 0 400 400" xml:space="preserve">
<g id="guide_lines_layer" display="none">
	<rect x="325" display="inline" fill="#FFFFFF" stroke="#000000" stroke-miterlimit="10" width="75" height="400"/>
	<rect display="inline" fill="#FFFFFF" stroke="#000000" stroke-miterlimit="10" width="75" height="400"/>
</g>
<g id="body_layer" display="none">
	<path display="inline" fill="#E06899" d="M75.007-0.49v46c0,0-4,30-21,37s-27,11-27,31s11,36-6,41s-14,15,0,15
		s25.353-13.576,26.774-25.658c1.963-16.686-8.344-22.576,7.853-32.883c9.972-6.346,19.142-5.398,19.142-5.398l-0.492,53.984
		c0,0-28.436,6.475-36.318,25.523c-11.779,28.465,4.969,47.217,1.042,62.432c-6.038,23.4-23.395,19.502-22.5,28
		c1,9.5,37.038,0.955,39-28c1.114-16.443-2.813-21.393-3.309-29.061c-0.981-15.213,9.325-26.992,23.067-25.518l-0.259,88.578
		c0,0,0.63,17.896-13.484,28.717c-14.724,11.289-18.649,9.816-26.013,16.688c-17.938,16.744-6.871,35.828-15.705,41.719
		c-14.062,9.377-15.215,21.594-2.945,16.686c22.105-8.842,21.777-16.334,24.541-33.373c2.943-18.16,29.606-22.436,29.606-22.436h4
		l0.903,70.988h111.097l7-400L75.007-0.49z"/>
	<path display="inline" fill="#7DC6DD" d="M71.007,329.51"/>
	<circle display="inline" fill="#B63C79" cx="52.174" cy="88.676" r="7.833"/>
	<circle display="inline" fill="#B63C79" cx="53.174" cy="109.676" r="6.167"/>
	<circle display="inline" fill="#B63C79" cx="35.508" cy="106.342" r="5.834"/>
	<circle display="inline" fill="#B63C79" cx="44.007" cy="123.508" r="4.333"/>
	<circle display="inline" fill="#B63C79" cx="31.341" cy="117.508" r="4.667"/>
	<circle display="inline" fill="#B63C79" cx="34.008" cy="130.842" r="4"/>
	<circle display="inline" fill="#B63C79" cx="45.508" cy="137.676" r="3.5"/>
	<circle display="inline" fill="#B63C79" cx="34.508" cy="143.676" r="3.834"/>
	<circle display="inline" fill="#B63C79" cx="41.341" cy="153.508" r="3.667"/>
	<circle display="inline" fill="#B63C79" cx="28.341" cy="155.174" r="3.333"/>
	<circle display="inline" fill="#B63C79" cx="32.174" cy="164.01" r="2.833"/>
	<circle display="inline" fill="#B63C79" cx="18.341" cy="162.508" r="3"/>
	<circle display="inline" fill="#B63C79" cx="71.008" cy="168.176" r="9"/>
	<circle display="inline" fill="#B63C79" cx="59.674" cy="190.842" r="8"/>
	<circle display="inline" fill="#B63C79" cx="49.841" cy="177.342" r="6.833"/>
	<circle display="inline" fill="#B63C79" cx="39.175" cy="189.008" r="6.167"/>
	<circle display="inline" fill="#B63C79" cx="36.008" cy="205.51" r="6.167"/>
	<circle display="inline" fill="#B63C79" cx="50.508" cy="206.342" r="6.5"/>
	<circle display="inline" fill="#B63C79" cx="39.508" cy="221.342" r="4.834"/>
	<circle display="inline" fill="#B63C79" cx="51.341" cy="225.842" r="4"/>
	<circle display="inline" fill="#B63C79" cx="43.841" cy="236.676" r="3.833"/>
	<circle display="inline" fill="#B63C79" cx="52.507" cy="240.342" r="3.833"/>
	<circle display="inline" fill="#B63C79" cx="42.175" cy="249.01" r="4.167"/>
	<circle display="inline" fill="#B63C79" cx="44.674" cy="265.01" r="3.5"/>
	<circle display="inline" fill="#B63C79" cx="37.675" cy="258.51" r="3.333"/>
	<circle display="inline" fill="#B63C79" cx="52.675" cy="255.842" r="4.333"/>
	<circle display="inline" fill="#B63C79" cx="33.841" cy="273.01" r="3.833"/>
	<circle display="inline" fill="#B63C79" cx="64.175" cy="313.676" r="6.167"/>
	<circle display="inline" fill="#B63C79" cx="53.508" cy="332.674" r="4.167"/>
	<circle display="inline" fill="#B63C79" cx="53.841" cy="320.342" r="3.833"/>
	<circle display="inline" fill="#B63C79" cx="42.008" cy="327.842" r="4.333"/>
	<circle display="inline" fill="#B63C79" cx="28.008" cy="352.174" r="3"/>
	<circle display="inline" fill="#B63C79" cx="32.841" cy="339.008" r="4.167"/>
	<circle display="inline" fill="#B63C79" cx="43.508" cy="341.342" r="4.833"/>
	<circle display="inline" fill="#B63C79" cx="65.675" cy="327.174" r="5.667"/>
	<circle display="inline" fill="#B63C79" cx="34.508" cy="370.674" r="3.5"/>
	<circle display="inline" fill="#B63C79" cx="23.842" cy="371.342" r="3.5"/>
	<circle display="inline" fill="#B63C79" cx="35.508" cy="358.008" r="3.5"/>
	<circle display="inline" fill="#B63C79" cx="37.508" cy="349.674" r="3.5"/>
	<circle display="inline" fill="#B63C79" cx="26.342" cy="363.508" r="3"/>
	<circle display="inline" fill="#B63C79" cx="20.841" cy="379.342" r="3.167"/>
	<path display="inline" fill="#E06899" d="M326.99,0.498l-2.941,45.012c0,0,4.405,30,23.125,37c18.721,7,29.732,11,29.732,31
		s-12.113,36,6.607,41c18.72,5,15.416,15,0,15c-15.417,0-27.919-13.576-29.484-25.658c-2.161-16.686,9.188-22.576-8.646-32.883
		c-10.982-6.346-21.078-5.398-21.078-5.398l0.541,53.984c0,0,31.313,6.475,39.993,25.523c12.972,28.465-5.47,47.217-1.146,62.432
		c6.649,23.4,25.762,19.502,24.776,28c-1.102,9.5-40.785,0.955-42.946-28c-1.228-16.443,3.099-21.393,3.644-29.061
		c1.081-15.213-10.269-26.992-25.401-25.518l0.284,88.578c0,0-0.692,17.896,14.849,28.717c16.215,11.289,20.538,9.816,28.645,16.688
		c19.755,16.744,7.566,35.828,17.295,41.719c15.486,9.377,16.754,21.594,3.242,16.686c-24.34-8.842-23.98-16.334-27.021-33.373
		c-3.244-18.16-32.604-22.436-32.604-22.436h-4.405l3.381,70.988H185.754l7.253-400H326.99z"/>
	<path display="inline" fill="#7DC6DD" d="M328.454,329.51"/>
	<ellipse display="inline" fill="#B63C79" cx="349.192" cy="88.676" rx="8.626" ry="7.832"/>
	<ellipse display="inline" fill="#B63C79" cx="348.09" cy="109.676" rx="6.791" ry="6.166"/>
	<ellipse display="inline" fill="#B63C79" cx="367.545" cy="106.342" rx="6.423" ry="5.834"/>
	<ellipse display="inline" fill="#B63C79" cx="358.185" cy="123.508" rx="4.771" ry="4.334"/>
	<ellipse display="inline" fill="#B63C79" cx="372.133" cy="117.508" rx="5.139" ry="4.668"/>
	<ellipse display="inline" fill="#B63C79" cx="369.197" cy="130.842" rx="4.405" ry="4"/>
	<ellipse display="inline" fill="#B63C79" cx="356.533" cy="137.676" rx="3.854" ry="3.5"/>
	<ellipse display="inline" fill="#B63C79" cx="368.646" cy="143.676" rx="4.221" ry="3.832"/>
	<ellipse display="inline" fill="#B63C79" cx="361.121" cy="153.508" rx="4.038" ry="3.668"/>
	<ellipse display="inline" fill="#B63C79" cx="375.437" cy="155.174" rx="3.671" ry="3.334"/>
	<ellipse display="inline" fill="#B63C79" cx="371.216" cy="164.01" rx="3.12" ry="2.832"/>
	<ellipse display="inline" fill="#B63C79" cx="386.449" cy="162.508" rx="3.304" ry="3"/>
	<ellipse display="inline" fill="#B63C79" cx="328.453" cy="168.176" rx="9.911" ry="9"/>
	<ellipse display="inline" fill="#B63C79" cx="340.933" cy="190.842" rx="8.81" ry="8"/>
	<ellipse display="inline" fill="#B63C79" cx="351.761" cy="177.342" rx="7.525" ry="6.834"/>
	<ellipse display="inline" fill="#B63C79" cx="363.508" cy="189.008" rx="6.791" ry="6.168"/>
	<ellipse display="inline" fill="#B63C79" cx="366.994" cy="205.51" rx="6.791" ry="6.166"/>
	<ellipse display="inline" fill="#B63C79" cx="351.027" cy="206.342" rx="7.158" ry="6.5"/>
	<ellipse display="inline" fill="#B63C79" cx="363.14" cy="221.342" rx="5.322" ry="4.834"/>
	<ellipse display="inline" fill="#B63C79" cx="350.11" cy="225.842" rx="4.405" ry="4"/>
	<ellipse display="inline" fill="#B63C79" cx="358.368" cy="236.676" rx="4.222" ry="3.832"/>
	<ellipse display="inline" fill="#B63C79" cx="348.825" cy="240.342" rx="4.221" ry="3.834"/>
	<ellipse display="inline" fill="#B63C79" cx="360.203" cy="249.01" rx="4.589" ry="4.166"/>
	<ellipse display="inline" fill="#B63C79" cx="357.451" cy="265.01" rx="3.854" ry="3.5"/>
	<ellipse display="inline" fill="#B63C79" cx="365.159" cy="258.51" rx="3.671" ry="3.334"/>
	<ellipse display="inline" fill="#B63C79" cx="348.642" cy="255.842" rx="4.771" ry="4.334"/>
	<ellipse display="inline" fill="#B63C79" cx="369.38" cy="273.01" rx="4.221" ry="3.834"/>
	<ellipse display="inline" fill="#B63C79" cx="335.979" cy="313.676" rx="6.791" ry="6.166"/>
	<ellipse display="inline" fill="#B63C79" cx="347.723" cy="332.674" rx="4.588" ry="4.166"/>
	<ellipse display="inline" fill="#B63C79" cx="347.356" cy="320.342" rx="4.222" ry="3.834"/>
	<ellipse display="inline" fill="#B63C79" cx="360.388" cy="327.842" rx="4.771" ry="4.334"/>
	<ellipse display="inline" fill="#B63C79" cx="375.804" cy="352.174" rx="3.304" ry="3"/>
	<ellipse display="inline" fill="#B63C79" cx="370.481" cy="339.008" rx="4.588" ry="4.166"/>
	<ellipse display="inline" fill="#B63C79" cx="358.735" cy="341.342" rx="5.322" ry="4.832"/>
	<ellipse display="inline" fill="#B63C79" cx="334.325" cy="327.174" rx="6.239" ry="5.666"/>
	<ellipse display="inline" fill="#B63C79" cx="368.646" cy="370.674" rx="3.854" ry="3.5"/>
	<ellipse display="inline" fill="#B63C79" cx="380.393" cy="371.342" rx="3.854" ry="3.5"/>
	<ellipse display="inline" fill="#B63C79" cx="367.545" cy="358.008" rx="3.854" ry="3.5"/>
	<ellipse display="inline" fill="#B63C79" cx="365.342" cy="349.674" rx="3.854" ry="3.5"/>
	<ellipse display="inline" fill="#B63C79" cx="377.64" cy="363.508" rx="3.304" ry="3"/>
	<ellipse display="inline" fill="#B63C79" cx="383.696" cy="379.342" rx="3.487" ry="3.166"/>
	<path display="inline" fill="#D65490" d="M300.34,195.521c0,99.408-43.169,179.988-96.417,179.988s-96.417-80.58-96.417-179.988
		c0-99.43,43.169-180.012,96.417-180.012S300.34,96.092,300.34,195.521z"/>
</g>
<g id="face_layer">
	<g>
		<path d="M238.579,210.077l-71.842,1.019c0,0,12.541-4.598,37.895-5.004C229.988,205.686,238.579,210.077,238.579,210.077z"/>
		<path fill="#FDFDFE" d="M181.873,207.797c0,0,3.825,19.447,5.131,20.668l8.052-22.023
			C195.056,206.441,187.07,206.933,181.873,207.797z"/>
		<path fill="#FDFDFE" d="M221.49,206.621c0,0-2.533,19.402-3.752,20.711l-9.55-21.415
			C208.188,205.917,216.248,206.118,221.49,206.621z"/>
	</g>
	<g>
		<path fill="#FFFFFF" d="M247.786,151.866c5.782,23.603-19.7,44-44.001,44c-24.3,0-49.685-20.374-44-44
			c1.871-7.776,26.667-32.335,44.667-32.335C219.153,119.531,244.656,139.09,247.786,151.866z"/>
		<circle cx="204.452" cy="154.533" r="22"/>
		<circle fill="#FDFDFE" cx="223.619" cy="144.698" r="3.167"/>
	</g>
</g>
</svg>
