<?xml version="1.0" encoding="utf-8"?>
<!-- Generator: Adobe Illustrator 15.1.0, SVG Export Plug-In . SVG Version: 6.00 Build 0)  -->
<!DOCTYPE svg PUBLIC "-//W3C//DTD SVG 1.1//EN" "http://www.w3.org/Graphics/SVG/1.1/DTD/svg11.dtd">
<svg version="1.1" xmlns="http://www.w3.org/2000/svg" xmlns:xlink="http://www.w3.org/1999/xlink" x="0px" y="0px" width="400px"
	 height="400px" viewBox="0 0 400 400" enable-background="new 0 0 400 400" xml:space="preserve">
<g id="guide_lines_layer" display="none">
	<rect x="324.272" display="inline" fill="#FFFFFF" stroke="#000000" stroke-miterlimit="10" width="75" height="400"/>
	<rect display="inline" fill="#FFFFFF" stroke="#000000" stroke-miterlimit="10" width="75" height="400"/>
</g>
<g id="body_layer" display="none">
	<g display="inline">
		<path fill="#7DC6DD" d="M75.335,0L46.166,81.501c0,0-3.499,1.334-7.665,8.667c7.166-3.5,4.666,4.001,2.666,6.167
			s-15.021,13.084-16.619,19.779c11.453-8.28,9.911,2.613,5.453,6.054c-3.5,3.5-6.653,2.938-11.05,12.432
			c11.392-4.297,10.973-0.146,7.529,1.911c-4.747,2.835-5.341,3.898-6.479,7.823c11.181-7.685-1.332,14.001-1.332,14.001
			c-17.671,79.09-20.56,135.287-3.667,153.335c-14.824,10.15-21.368,28.406,8.453,35.778c17.5,1.5,14.692-14.629,5.026-24.963
			c-3.834-9.333,13.916,6.672,15.916,1.005s-12.396-20.487-12.396-20.487S9.668,276.337,44.572,164.06
			c0,0,10.264-28.129,20.282-57.742c0,0-4.478,21.196-8.74,53.028c-0.855,6.389-13.153,37.169-9.446,30.991
			c8-13.334,6.085-2.729,5.684,1.357c-0.17,1.729-5.655,13.741-4.713,12.246c4.14-6.568,5.166-1.213,3.52,0.894
			c-2.89,3.696-9.015,21.556-7.299,18.723c7.738-12.777,8.188-2.879,5.933,0.462c-3.163,4.687-10.582,21.101-7.913,18.254
			c6.748-7.198,9.547,3.516,6.845,7.378c-9.958,14.234-10.776,25.878-8.431,22.894c10.611-13.498,10.493-2.161,8.335,1.698
			c-3.749,6.705-10.029,25.714-7.229,22.834c8.913-9.168,10.601,0.996,8.535,6.278c-1.063,2.72-4.433,16.26-3.44,14.605
			c3.819-6.367,6.741-1.925,4.863,0.593c-6.392,8.571-6.924,28.682-5.458,25.55c6.197-13.243,8.491-4.124,9.554,1.262
			c0.858,4.351-13.12,14.612-6.498,23.865c7.215-17.402,17.675,0.855,13.827,4.472c-3.642,3.422-3.787,19.461-2.453,16.834
			c8.234-16.214,12.568,7.439,13.674,9.465h122.667L190.668,0H75.335z"/>
		<path fill="#7DC6DD" d="M324.146,0l29.169,81.501c0,0,3.499,1.334,7.665,8.667c-7.166-3.5-4.666,4.001-2.666,6.167
			s15.021,13.084,16.619,19.779c-11.453-8.28-9.911,2.613-5.453,6.054c3.5,3.5,6.653,2.938,11.05,12.432
			c-11.392-4.297-10.973-0.146-7.529,1.911c4.747,2.835,5.341,3.898,6.479,7.823c-11.181-7.685,1.332,14.001,1.332,14.001
			c17.671,79.09,20.56,135.287,3.667,153.335c14.824,10.15,21.368,28.406-8.453,35.778c-17.5,1.5-14.692-14.629-5.026-24.963
			c3.834-9.333-13.916,6.672-15.916,1.005s12.396-20.487,12.396-20.487s22.334-26.666-12.57-138.943
			c0,0-10.264-28.129-20.282-57.742c0,0,4.478,21.196,8.74,53.028c0.855,6.389,13.153,37.169,9.446,30.991
			c-8-13.334-6.085-2.729-5.684,1.357c0.17,1.729,5.655,13.741,4.713,12.246c-4.14-6.568-5.166-1.213-3.52,0.894
			c2.89,3.696,9.015,21.556,7.299,18.723c-7.738-12.777-8.188-2.879-5.933,0.462c3.163,4.687,10.582,21.101,7.913,18.254
			c-6.748-7.198-9.547,3.516-6.845,7.378c9.958,14.234,10.776,25.878,8.431,22.894c-10.611-13.498-10.493-2.161-8.335,1.698
			c3.749,6.705,10.029,25.714,7.229,22.834c-8.913-9.168-10.601,0.996-8.535,6.278c1.063,2.72,4.433,16.26,3.44,14.605
			c-3.819-6.367-6.741-1.925-4.863,0.593c6.392,8.571,6.924,28.682,5.458,25.55c-6.197-13.243-8.491-4.124-9.554,1.262
			c-0.858,4.351,13.12,14.612,6.498,23.865c-7.215-17.402-17.675,0.855-13.827,4.472c3.642,3.422,3.787,19.461,2.453,16.834
			c-8.234-16.214-12.568,7.439-13.674,9.465h-135.48L187.332,0H324.146z"/>
	</g>
	<path display="inline" fill="#D6C370" d="M6.318,337.152c0,0,4.053,5.093,10.311,4.325c0,0-9.722,10.845-2.268,16.22
		C2.949,355.793,3.322,346.919,6.318,337.152z"/>
	<path display="inline" fill="#D6C370" d="M17.963,343.28c0,0,6.111,4.142,8.594,0.13c0,0-2.655,9.055,6.141,11.716
		C21.285,357.032,18.304,353.491,17.963,343.28z"/>
	<path display="inline" fill="#D6C370" d="M29.671,339.87l3.968-7.332c0,0,1.787,8.758,11.651,13.861
		C37.943,348.23,32.34,346.469,29.671,339.87z"/>
	<path display="inline" fill="#D6C370" d="M394.192,334.273c0,0-4.046,5.002-10.296,4.329c0,0,9.717,10.439,2.275,15.757
		C397.568,352.372,397.19,343.742,394.192,334.273z"/>
	<path display="inline" fill="#D6C370" d="M383.188,343.303c0,0-4.106,1.216-9.894-0.268c0,0,6.983,7.496,2.014,15.173
		C385.18,352.176,385.442,349.942,383.188,343.303z"/>
	<path display="inline" fill="#D6C370" d="M370.738,343.55l-5.555-5.936c0,0,0.318,8.712-8.037,15.979
		C364.688,353.498,369.698,350.442,370.738,343.55z"/>
</g>
<g id="face_layer">
	<g>
		<circle fill="#FDFDFE" cx="208.156" cy="171.09" r="24.5"/>
		<circle cx="208.656" cy="171.59" r="15"/>
		<circle fill="#FFFFFF" cx="218.121" cy="162.686" r="3.306"/>
	</g>
	<g>
		<circle fill="#FDFDFE" cx="258.656" cy="188.59" r="24.5"/>
		<circle cx="259.156" cy="188.09" r="15"/>
		<circle fill="#FFFFFF" cx="268.621" cy="179.186" r="3.306"/>
	</g>
	<g>
		<circle fill="#FDFDFE" cx="156.156" cy="185.59" r="24.5"/>
		<circle cx="156.656" cy="186.09" r="15"/>
		<circle fill="#FFFFFF" cx="166.121" cy="177.186" r="3.306"/>
	</g>
	<path d="M168.465,233.061l71.849,1.467c0,0-12.613,48.428-37.971,48.428C176.984,282.955,168.465,233.061,168.465,233.061z"/>
	<path fill="#FDFDFE" d="M183.576,233.432c0,0,2.937,19.846,4.177,21.133l9.35-20.863l16.197,0.334
		c0.549-0.182,6.787,18.557,6.787,18.557c0.454,0.074,5.187-16.428,5.282-18.518C224.54,234.281,183.576,233.432,183.576,233.432z"
		/>
</g>
</svg>
