<?xml version="1.0" encoding="utf-8"?>
<!-- Generator: Adobe Illustrator 15.1.0, SVG Export Plug-In . SVG Version: 6.00 Build 0)  -->
<!DOCTYPE svg PUBLIC "-//W3C//DTD SVG 1.1//EN" "http://www.w3.org/Graphics/SVG/1.1/DTD/svg11.dtd">
<svg version="1.1" xmlns="http://www.w3.org/2000/svg" xmlns:xlink="http://www.w3.org/1999/xlink" x="0px" y="0px" width="400px"
	 height="400px" viewBox="0 0 400 400" enable-background="new 0 0 400 400" xml:space="preserve">
<g id="guide_lines_layer" display="none">
	<rect x="325.001" y="3" display="inline" fill="#FFFFFF" stroke="#000000" stroke-miterlimit="10" width="75" height="400"/>
	<rect x="0.751" y="3" display="inline" fill="#FFFFFF" stroke="#000000" stroke-miterlimit="10" width="75" height="400"/>
</g>
<g id="body_layer" display="none">
	<g display="inline">
		<path fill="#7DC6DD" d="M75.668,400.001c-2.883-20-6.001-94.502-1.501-143.002c3.743-40.334,17.835-96.814,42.335-118.185
			c3.563-3.109-30.615-46.477-26.834-49.162c3.812-2.707,45.584,35.273,49.586,33.007c14.496-8.207,30.145-13.495,46.222-15.626
			c5.358-0.71,10.294-53.233,15.722-53.233c6.436,0,13.158,52.65,19.217,53.576c18.174,2.776,34.613,9.508,49.126,18.933
			c2.902,1.885,44.048-32.705,46.795-30.614c3.355,2.554-31.726,41.835-28.608,44.662c29.753,26.976,31.94,73.644,35.44,119.144
			c2.627,34.148,4.752,126.445,1.92,140.279L75.668,400.001z"/>
		<path fill="#52BFD1" d="M318.333,255.003c0,19.33-16.977,34.998-37.917,34.998c-20.939,0-37.916-15.668-37.916-34.998
			c0-19.334,16.977-35.002,37.916-35.002C301.356,220.001,318.333,235.669,318.333,255.003z"/>
		<path fill="#52BFD1" d="M162.333,258.003c0,19.33-16.977,34.998-37.917,34.998c-20.939,0-37.916-15.668-37.916-34.998
			c0-19.334,16.977-35.002,37.916-35.002C145.356,223.001,162.333,238.669,162.333,258.003z"/>
	</g>
	<g display="inline">
		<g>
			<path fill="#7DC6DD" d="M119.609,119.994c0.65,0,2.082-0.987,0.781-0.987C119.74,119.006,118.309,119.994,119.609,119.994
				L119.609,119.994z"/>
		</g>
	</g>
	<g display="inline">
		<g>
			<path fill="none" stroke="#F2E4D2" stroke-miterlimit="10" d="M286.5,120.5"/>
		</g>
	</g>
	<g display="inline">
		<g>
			<path fill="none" stroke="#F2E4D2" stroke-miterlimit="10" d="M198.5,119.5"/>
		</g>
	</g>
</g>
<g id="face_layer">
	<g>
		<path fill="#FFFFFF" d="M263.061,174.04c13.137,9.59,16.013,28.012,6.423,41.151c-9.589,13.137-28.013,16.012-41.149,6.422
			c-8.977-6.553-13.162-17.229-11.854-27.526l41.434-23.063C259.693,171.837,261.418,172.841,263.061,174.04z"/>
		<path d="M247.341,179.072c4.958,3.62,6.045,10.573,2.425,15.532s-10.575,6.045-15.533,2.426
			c-3.389-2.475-4.969-6.504-4.475-10.391l15.641-8.706C246.07,178.241,246.721,178.62,247.341,179.072z"/>
	</g>
	<g>
		<path fill="#FFFFFF" d="M186.258,227.402c-19.008,13.562-45.411,9.148-58.974-9.859c-13.562-19.008-9.148-45.412,9.858-58.974
			l66.791,36.417C203.334,207.474,197.225,219.576,186.258,227.402z"/>
		<path d="M168.116,177.337c-4.997,3.565-6.291,10.32-2.89,15.086c3.401,4.768,10.209,5.74,15.206,2.176
			c3.415-2.438,5.101-6.363,4.741-10.126l-15.109-8.262C169.395,176.516,168.741,176.891,168.116,177.337z"/>
	</g>
	<path d="M162,255.001c14.174-8.723,4.333,21.334,44.333,15.334S232,257.001,248,253.001s22.797,50.809,16,74
		c-5.667,19.334-26.189-4.748-27-5.334c-12-8.666-50-8.666-68,6.334s-22,10-23,0S149,263.001,162,255.001z"/>
	<path fill="#FDFDFE" d="M174.334,261.001c0,0,1.512,34.414,2.863,32.252c1.588-2.541,12.803-13.127,12.803-13.127
		c5.94,3.279,9.289,16.031,9.68,16.08c0.883,0.107,8.861-15.977,13.32-18.539c0.784-0.449,18.56,12.492,20.062,13.834
		c1.706,1.521,0.904-23.66,1.042-28.893C223.153,265.451,188.113,281.06,174.334,261.001z"/>
	<path fill="#FDFDFE" d="M169.125,327.861c0,0,3.743-20.414,3.973-23.883c0.16-2.416,12.961,13.434,14.008,10.816
		c1.883-4.707,5.061-8.943,5.061-8.943c1.588,2.043,9.415,7.414,9.415,7.414c5.94-2.633,11.378-8.67,11.769-8.709
		c0.883-0.086,6.25,7.594,10.709,9.65c0.784,0.361,14.028-8.621,15.064-10.004c1.059-1.412-0.021,15.336,0.117,19.537
		C221.47,310.207,185.791,315.611,169.125,327.861z"/>
</g>
<g id="Layer_4" display="none">
	<g display="inline">
		<g opacity="0.7">
			<g>
				<path fill="#74AFD1" d="M124.409,127.164c1.935,0,1.935-3,0-3S122.474,127.164,124.409,127.164L124.409,127.164z"/>
			</g>
		</g>
		<g opacity="0.7">
			<g>
				<path fill="#74AFD1" d="M113.259,121.781c1.935,0,1.935-3,0-3S111.325,121.781,113.259,121.781L113.259,121.781z"/>
			</g>
		</g>
		<g opacity="0.7">
			<g>
				<path fill="#74AFD1" d="M116.624,116.399c1.935,0,1.935-3,0-3S114.689,116.399,116.624,116.399L116.624,116.399z"/>
			</g>
		</g>
		<g opacity="0.7">
			<g>
				<path fill="#74AFD1" d="M114.797,131.104c1.935,0,1.935-3,0-3S112.863,131.104,114.797,131.104L114.797,131.104z"/>
			</g>
		</g>
		<g opacity="0.7">
			<g>
				<path fill="#74AFD1" d="M94.325,98.426c1.935,0,1.935-3,0-3S92.39,98.426,94.325,98.426L94.325,98.426z"/>
			</g>
		</g>
		<g opacity="0.7">
			<g>
				<path fill="#74AFD1" d="M101.629,103.135c1.935,0,1.935-3,0-3S99.695,103.135,101.629,103.135L101.629,103.135z"/>
			</g>
		</g>
		<g opacity="0.7">
			<g>
				<path fill="#74AFD1" d="M104.417,109.19c1.935,0,1.935-3,0-3S102.482,109.19,104.417,109.19L104.417,109.19z"/>
			</g>
		</g>
		<g opacity="0.7">
			<g>
				<path fill="#74AFD1" d="M102.495,115.149c1.935,0,1.935-3,0-3S100.56,115.149,102.495,115.149L102.495,115.149z"/>
			</g>
		</g>
		<g opacity="0.7">
			<g>
				<path fill="#74AFD1" d="M111.818,111.593c1.935,0,1.935-3,0-3S109.883,111.593,111.818,111.593L111.818,111.593z"/>
			</g>
		</g>
		<g opacity="0.7">
			<g>
				<path fill="#74AFD1" d="M97.881,106.691c1.935,0,1.935-3,0-3S95.946,106.691,97.881,106.691L97.881,106.691z"/>
			</g>
		</g>
		<g opacity="0.7">
			<g>
				<path fill="#74AFD1" d="M94.901,102.366c1.935,0,1.935-3,0-3S92.967,102.366,94.901,102.366L94.901,102.366z"/>
			</g>
		</g>
		<g opacity="0.7">
			<g>
				<path fill="#74AFD1" d="M127.1,123.223c1.935,0,1.935-3,0-3S125.165,123.223,127.1,123.223L127.1,123.223z"/>
			</g>
		</g>
		<g opacity="0.7">
			<g>
				<path fill="#74AFD1" d="M119.987,119.475c1.935,0,1.935-3,0-3S118.053,119.475,119.987,119.475L119.987,119.475z"/>
			</g>
		</g>
		<g opacity="0.7">
			<g>
				<path fill="#74AFD1" d="M118.354,124.473c1.935,0,1.935-3,0-3S116.419,124.473,118.354,124.473L118.354,124.473z"/>
			</g>
		</g>
		<g opacity="0.7">
			<g>
				<path fill="#74AFD1" d="M108.357,116.591c1.935,0,1.935-3,0-3S106.423,116.591,108.357,116.591L108.357,116.591z"/>
			</g>
		</g>
		<g opacity="0.7">
			<g>
				<path fill="#74AFD1" d="M107.685,121.589c1.935,0,1.935-3,0-3S105.75,121.589,107.685,121.589L107.685,121.589z"/>
			</g>
		</g>
		<g opacity="0.7">
			<g>
				<path fill="#74AFD1" d="M97.112,101.309c1.935,0,1.935-3,0-3S95.178,101.309,97.112,101.309L97.112,101.309z"/>
			</g>
		</g>
		<g opacity="0.7">
			<g>
				<path fill="#74AFD1" d="M92.018,96.6c1.935,0,1.935-3,0-3S90.083,96.6,92.018,96.6L92.018,96.6z"/>
			</g>
		</g>
		<g opacity="0.7">
			<g>
				<path fill="#74AFD1" d="M93.46,100.732c1.935,0,1.935-3,0-3S91.525,100.732,93.46,100.732L93.46,100.732z"/>
			</g>
		</g>
		<g opacity="0.7">
			<g>
				<path fill="#74AFD1" d="M99.515,101.213c1.935,0,1.935-3,0-3S97.581,101.213,99.515,101.213L99.515,101.213z"/>
			</g>
		</g>
		<g opacity="0.7">
			<g>
				<path fill="#74AFD1" d="M97.497,104.192c1.935,0,1.935-3,0-3S95.562,104.192,97.497,104.192L97.497,104.192z"/>
			</g>
		</g>
		<g opacity="0.7">
			<g>
				<path fill="#74AFD1" d="M99.899,104.865c1.935,0,1.935-3,0-3S97.965,104.865,99.899,104.865L99.899,104.865z"/>
			</g>
		</g>
		<g opacity="0.7">
			<g>
				<path fill="#74AFD1" d="M103.744,104.577c1.935,0,1.935-3,0-3S101.81,104.577,103.744,104.577L103.744,104.577z"/>
			</g>
		</g>
		<g opacity="0.7">
			<g>
				<path fill="#74AFD1" d="M99.13,108.806c1.935,0,1.935-3,0-3S97.196,108.806,99.13,108.806L99.13,108.806z"/>
			</g>
		</g>
		<g opacity="0.7">
			<g>
				<path fill="#74AFD1" d="M102.014,105.25c1.935,0,1.935-3,0-3S100.08,105.25,102.014,105.25L102.014,105.25z"/>
			</g>
		</g>
		<g opacity="0.7">
			<g>
				<path fill="#74AFD1" d="M106.147,106.691c1.935,0,1.935-3,0-3S104.212,106.691,106.147,106.691L106.147,106.691z"/>
			</g>
		</g>
		<g opacity="0.7">
			<g>
				<path fill="#74AFD1" d="M101.822,107.845c1.935,0,1.935-3,0-3S99.887,107.845,101.822,107.845L101.822,107.845z"/>
			</g>
		</g>
		<g opacity="0.7">
			<g>
				<path fill="#74AFD1" d="M102.014,111.113c1.935,0,1.935-3,0-3S100.08,111.113,102.014,111.113L102.014,111.113z"/>
			</g>
		</g>
		<g opacity="0.7">
			<g>
				<path fill="#74AFD1" d="M104.705,112.266c1.935,0,1.935-3,0-3S102.771,112.266,104.705,112.266L104.705,112.266z"/>
			</g>
		</g>
		<g opacity="0.7">
			<g>
				<path fill="#74AFD1" d="M107.781,110.536c1.935,0,1.935-3,0-3S105.846,110.536,107.781,110.536L107.781,110.536z"/>
			</g>
		</g>
		<g opacity="0.7">
			<g>
				<path fill="#74AFD1" d="M109.799,113.419c1.935,0,1.935-3,0-3S107.865,113.419,109.799,113.419L109.799,113.419z"/>
			</g>
		</g>
		<g opacity="0.7">
			<g>
				<path fill="#74AFD1" d="M104.994,117.745c1.935,0,1.935-3,0-3S103.059,117.745,104.994,117.745L104.994,117.745z"/>
			</g>
		</g>
		<g opacity="0.7">
			<g>
				<path fill="#74AFD1" d="M105.474,114.38c1.935,0,1.935-3,0-3S103.54,114.38,105.474,114.38L105.474,114.38z"/>
			</g>
		</g>
		<g opacity="0.7">
			<g>
				<path fill="#74AFD1" d="M114.028,113.323c1.935,0,1.935-3,0-3S112.094,113.323,114.028,113.323L114.028,113.323z"/>
			</g>
		</g>
		<g opacity="0.7">
			<g>
				<path fill="#74AFD1" d="M111.818,117.745c1.935,0,1.935-3,0-3S109.883,117.745,111.818,117.745L111.818,117.745z"/>
			</g>
		</g>
		<g opacity="0.7">
			<g>
				<path fill="#74AFD1" d="M109.703,123.416c1.935,0,1.935-3,0-3S107.769,123.416,109.703,123.416L109.703,123.416z"/>
			</g>
		</g>
		<g opacity="0.7">
			<g>
				<path fill="#74AFD1" d="M111.529,127.933c1.935,0,1.935-3,0-3S109.595,127.933,111.529,127.933L111.529,127.933z"/>
			</g>
		</g>
		<g opacity="0.7">
			<g>
				<path fill="#74AFD1" d="M114.797,125.818c1.935,0,1.935-3,0-3S112.863,125.818,114.797,125.818L114.797,125.818z"/>
			</g>
		</g>
		<g opacity="0.7">
			<g>
				<path fill="#74AFD1" d="M116.815,136.967c1.935,0,1.935-3,0-3S114.881,136.967,116.815,136.967L116.815,136.967z"/>
			</g>
		</g>
		<g opacity="0.7">
			<g>
				<path fill="#74AFD1" d="M121.141,129.566c1.935,0,1.935-3,0-3S119.206,129.566,121.141,129.566L121.141,129.566z"/>
			</g>
		</g>
		<g opacity="0.7">
			<g>
				<path fill="#74AFD1" d="M123.543,134.564c1.935,0,1.935-3,0-3S121.609,134.564,123.543,134.564L123.543,134.564z"/>
			</g>
		</g>
		<g opacity="0.7">
			<g>
				<path fill="#74AFD1" d="M129.502,129.375c1.935,0,1.935-3,0-3S127.568,129.375,129.502,129.375L129.502,129.375z"/>
			</g>
		</g>
		<g opacity="0.7">
			<g>
				<path fill="#74AFD1" d="M131.521,126.972c1.935,0,1.935-3,0-3S129.586,126.972,131.521,126.972L131.521,126.972z"/>
			</g>
		</g>
		<g opacity="0.7">
			<g>
				<path fill="#74AFD1" d="M123.063,122.646c1.935,0,1.935-3,0-3S121.128,122.646,123.063,122.646L123.063,122.646z"/>
			</g>
		</g>
		<g opacity="0.7">
			<g>
				<path fill="#74AFD1" d="M135.27,129.566c1.935,0,1.935-3,0-3S133.335,129.566,135.27,129.566L135.27,129.566z"/>
			</g>
		</g>
		<g opacity="0.7">
			<g>
				<path fill="#74AFD1" d="M141.229,128.702c1.935,0,1.935-3,0-3S139.294,128.702,141.229,128.702L141.229,128.702z"/>
			</g>
		</g>
		<g opacity="0.7">
			<g>
				<path fill="#74AFD1" d="M129.599,134.084c1.935,0,1.935-3,0-3S127.664,134.084,129.599,134.084L129.599,134.084z"/>
			</g>
		</g>
		<g opacity="0.7">
			<g>
				<path fill="#74AFD1" d="M135.942,136.103c1.935,0,1.935-3,0-3S134.008,136.103,135.942,136.103L135.942,136.103z"/>
			</g>
		</g>
		<g opacity="0.7">
			<g>
				<path fill="#74AFD1" d="M120.083,139.082c1.935,0,1.935-3,0-3S118.149,139.082,120.083,139.082L120.083,139.082z"/>
			</g>
		</g>
		<g opacity="0.7">
			<g>
				<path fill="#74AFD1" d="M119.026,146.002c1.935,0,1.935-3,0-3S117.092,146.002,119.026,146.002L119.026,146.002z"/>
			</g>
		</g>
		<g opacity="0.7">
			<g>
				<path fill="#74AFD1" d="M126.812,140.139c1.935,0,1.935-3,0-3S124.877,140.139,126.812,140.139L126.812,140.139z"/>
			</g>
		</g>
		<g opacity="0.7">
			<g>
				<path fill="#74AFD1" d="M123.543,144.752c1.935,0,1.935-3,0-3S121.609,144.752,123.543,144.752L123.543,144.752z"/>
			</g>
		</g>
		<g opacity="0.7">
			<g>
				<path fill="#74AFD1" d="M134.212,142.542c1.935,0,1.935-3,0-3S132.278,142.542,134.212,142.542L134.212,142.542z"/>
			</g>
		</g>
	</g>
	<g display="inline">
		<g opacity="0.7">
			<g>
				<path fill="#74AFD1" d="M205.553,106.844c1.935,0,1.935-3,0-3S203.618,106.844,205.553,106.844L205.553,106.844z"/>
			</g>
		</g>
		<g opacity="0.7">
			<g>
				<path fill="#74AFD1" d="M200.718,95.445c1.935,0,1.935-3,0-3C198.784,92.445,198.784,95.445,200.718,95.445L200.718,95.445z"/>
			</g>
		</g>
		<g opacity="0.7">
			<g>
				<path fill="#74AFD1" d="M206.797,93.618c1.935,0,1.935-3,0-3S204.862,93.618,206.797,93.618L206.797,93.618z"/>
			</g>
		</g>
		<g opacity="0.7">
			<g>
				<path fill="#74AFD1" d="M195.728,103.471c1.935,0,1.935-3,0-3S193.793,103.471,195.728,103.471L195.728,103.471z"/>
			</g>
		</g>
		<g opacity="0.7">
			<g>
				<path fill="#74AFD1" d="M201.881,65.402c1.935,0,1.935-3,0-3S199.946,65.402,201.881,65.402L201.881,65.402z"/>
			</g>
		</g>
		<g opacity="0.7">
			<g>
				<path fill="#74AFD1" d="M204.268,73.759c1.935,0,1.935-3,0-3S202.333,73.759,204.268,73.759L204.268,73.759z"/>
			</g>
		</g>
		<g opacity="0.7">
			<g>
				<path fill="#74AFD1" d="M202.371,80.15c1.935,0,1.935-3,0-3S200.437,80.15,202.371,80.15L202.371,80.15z"/>
			</g>
		</g>
		<g opacity="0.7">
			<g>
				<path fill="#74AFD1" d="M196.997,83.364c1.935,0,1.935-3,0-3S195.062,83.364,196.997,83.364L196.997,83.364z"/>
			</g>
		</g>
		<g opacity="0.7">
			<g>
				<path fill="#74AFD1" d="M206.351,86.835c1.935,0,1.935-3,0-3S204.416,86.835,206.351,86.835L206.351,86.835z"/>
			</g>
		</g>
		<g opacity="0.7">
			<g>
				<path fill="#74AFD1" d="M199.105,73.961c1.935,0,1.935-3,0-3C197.17,70.961,197.17,73.961,199.105,73.961L199.105,73.961z"/>
			</g>
		</g>
		<g opacity="0.7">
			<g>
				<path fill="#74AFD1" d="M199.716,68.746c1.935,0,1.935-3,0-3S197.781,68.746,199.716,68.746L199.716,68.746z"/>
			</g>
		</g>
		<g opacity="0.7">
			<g>
				<path fill="#74AFD1" d="M210.174,105.655c1.935,0,1.935-3,0-3S208.239,105.655,210.174,105.655L210.174,105.655z"/>
			</g>
		</g>
		<g opacity="0.7">
			<g>
				<path fill="#74AFD1" d="M207.299,98.147c1.935,0,1.935-3,0-3S205.364,98.147,207.299,98.147L207.299,98.147z"/>
			</g>
		</g>
		<g opacity="0.7">
			<g>
				<path fill="#74AFD1" d="M202.774,100.828c1.935,0,1.935-3,0-3S200.84,100.828,202.774,100.828L202.774,100.828z"/>
			</g>
		</g>
		<g opacity="0.7">
			<g>
				<path fill="#74AFD1" d="M200.454,88.312c1.935,0,1.935-3,0-3S198.52,88.312,200.454,88.312L200.454,88.312z"/>
			</g>
		</g>
		<g opacity="0.7">
			<g>
				<path fill="#74AFD1" d="M196.653,91.626c1.935,0,1.935-3,0-3S194.719,91.626,196.653,91.626L196.653,91.626z"/>
			</g>
		</g>
		<g opacity="0.7">
			<g>
				<path fill="#74AFD1" d="M202.075,69.408c1.935,0,1.935-3,0-3S200.141,69.408,202.075,69.408L202.075,69.408z"/>
			</g>
		</g>
		<g opacity="0.7">
			<g>
				<path fill="#74AFD1" d="M201.351,62.508c1.935,0,1.935-3,0-3S199.416,62.508,201.351,62.508L201.351,62.508z"/>
			</g>
		</g>
		<g opacity="0.7">
			<g>
				<path fill="#74AFD1" d="M199.709,66.566c1.935,0,1.935-3,0-3C197.775,63.566,197.775,66.566,199.709,66.566L199.709,66.566z"/>
			</g>
		</g>
		<g opacity="0.7">
			<g>
				<path fill="#74AFD1" d="M203.945,70.919c1.935,0,1.935-3,0-3S202.011,70.919,203.945,70.919L203.945,70.919z"/>
			</g>
		</g>
		<g opacity="0.7">
			<g>
				<path fill="#74AFD1" d="M200.463,71.83c1.935,0,1.935-3,0-3C198.529,68.83,198.529,71.83,200.463,71.83L200.463,71.83z"/>
			</g>
		</g>
		<g opacity="0.7">
			<g>
				<path fill="#74AFD1" d="M201.826,73.919c1.935,0,1.935-3,0-3S199.892,73.919,201.826,73.919L201.826,73.919z"/>
			</g>
		</g>
		<g opacity="0.7">
			<g>
				<path fill="#74AFD1" d="M204.906,76.238c1.935,0,1.935-3,0-3S202.972,76.238,204.906,76.238L204.906,76.238z"/>
			</g>
		</g>
		<g opacity="0.7">
			<g>
				<path fill="#74AFD1" d="M198.649,76.375c1.935,0,1.935-3,0-3S196.715,76.375,198.649,76.375L198.649,76.375z"/>
			</g>
		</g>
		<g opacity="0.7">
			<g>
				<path fill="#74AFD1" d="M203.163,75.603c1.935,0,1.935-3,0-3S201.229,75.603,203.163,75.603L203.163,75.603z"/>
			</g>
		</g>
		<g opacity="0.7">
			<g>
				<path fill="#74AFD1" d="M205.32,79.412c1.935,0,1.935-3,0-3S203.386,79.412,205.32,79.412L205.32,79.412z"/>
			</g>
		</g>
		<g opacity="0.7">
			<g>
				<path fill="#74AFD1" d="M201.306,77.427c1.935,0,1.935-3,0-3S199.371,77.427,201.306,77.427L201.306,77.427z"/>
			</g>
		</g>
		<g opacity="0.7">
			<g>
				<path fill="#74AFD1" d="M199.297,80.011c1.935,0,1.935-3,0-3C197.363,77.011,197.363,80.011,199.297,80.011L199.297,80.011z"/>
			</g>
		</g>
		<g opacity="0.7">
			<g>
				<path fill="#74AFD1" d="M200.56,82.652c1.935,0,1.935-3,0-3C198.625,79.652,198.625,82.652,200.56,82.652L200.56,82.652z"/>
			</g>
		</g>
		<g opacity="0.7">
			<g>
				<path fill="#74AFD1" d="M204.013,83.379c1.935,0,1.935-3,0-3S202.078,83.379,204.013,83.379L204.013,83.379z"/>
			</g>
		</g>
		<g opacity="0.7">
			<g>
				<path fill="#74AFD1" d="M203.63,86.878c1.935,0,1.935-3,0-3S201.695,86.878,203.63,86.878L203.63,86.878z"/>
			</g>
		</g>
		<g opacity="0.7">
			<g>
				<path fill="#74AFD1" d="M197.165,86.961c1.935,0,1.935-3,0-3S195.23,86.961,197.165,86.961L197.165,86.961z"/>
			</g>
		</g>
		<g opacity="0.7">
			<g>
				<path fill="#74AFD1" d="M199.744,84.749c1.935,0,1.935-3,0-3S197.81,84.749,199.744,84.749L199.744,84.749z"/>
			</g>
		</g>
		<g opacity="0.7">
			<g>
				<path fill="#74AFD1" d="M206.873,89.594c1.935,0,1.935-3,0-3S204.938,89.594,206.873,89.594L206.873,89.594z"/>
			</g>
		</g>
		<g opacity="0.7">
			<g>
				<path fill="#74AFD1" d="M202.295,91.461c1.935,0,1.935-3,0-3S200.36,91.461,202.295,91.461L202.295,91.461z"/>
			</g>
		</g>
		<g opacity="0.7">
			<g>
				<path fill="#74AFD1" d="M196.967,94.331c1.935,0,1.935-3,0-3S195.033,94.331,196.967,94.331L196.967,94.331z"/>
			</g>
		</g>
		<g opacity="0.7">
			<g>
				<path fill="#74AFD1" d="M195.361,98.931c1.935,0,1.935-3,0-3S193.427,98.931,195.361,98.931L195.361,98.931z"/>
			</g>
		</g>
		<g opacity="0.7">
			<g>
				<path fill="#74AFD1" d="M199.214,99.496c1.935,0,1.935-3,0-3S197.279,99.496,199.214,99.496L199.214,99.496z"/>
			</g>
		</g>
		<g opacity="0.7">
			<g>
				<path fill="#74AFD1" d="M193.38,109.209c1.935,0,1.935-3,0-3S191.445,109.209,193.38,109.209L193.38,109.209z"/>
			</g>
		</g>
		<g opacity="0.7">
			<g>
				<path fill="#74AFD1" d="M201.513,106.496c1.935,0,1.935-3,0-3S199.578,106.496,201.513,106.496L201.513,106.496z"/>
			</g>
		</g>
		<g opacity="0.7">
			<g>
				<path fill="#74AFD1" d="M200.023,111.838c1.935,0,1.935-3,0-3S198.089,111.838,200.023,111.838L200.023,111.838z"/>
			</g>
		</g>
		<g opacity="0.7">
			<g>
				<path fill="#74AFD1" d="M207.926,111.865c1.935,0,1.935-3,0-3S205.991,111.865,207.926,111.865L207.926,111.865z"/>
			</g>
		</g>
		<g opacity="0.7">
			<g>
				<path fill="#74AFD1" d="M211.026,111.389c1.935,0,1.935-3,0-3S209.092,111.389,211.026,111.389L211.026,111.389z"/>
			</g>
		</g>
		<g opacity="0.7">
			<g>
				<path fill="#74AFD1" d="M207.52,102.56c1.935,0,1.935-3,0-3S205.585,102.56,207.52,102.56L207.52,102.56z"/>
			</g>
		</g>
		<g opacity="0.7">
			<g>
				<path fill="#74AFD1" d="M212.135,115.811c1.935,0,1.935-3,0-3S210.2,115.811,212.135,115.811L212.135,115.811z"/>
			</g>
		</g>
		<g opacity="0.7">
			<g>
				<path fill="#74AFD1" d="M217.186,119.09c1.935,0,1.935-3,0-3S215.251,119.09,217.186,119.09L217.186,119.09z"/>
			</g>
		</g>
		<g opacity="0.7">
			<g>
				<path fill="#74AFD1" d="M204.893,115.469c1.935,0,1.935-3,0-3S202.958,115.469,204.893,115.469L204.893,115.469z"/>
			</g>
		</g>
		<g opacity="0.7">
			<g>
				<path fill="#74AFD1" d="M208.331,121.169c1.935,0,1.935-3,0-3S206.396,121.169,208.331,121.169L208.331,121.169z"/>
			</g>
		</g>
		<g opacity="0.7">
			<g>
				<path fill="#74AFD1" d="M194.443,112.953c1.935,0,1.935-3,0-3S192.508,112.953,194.443,112.953L194.443,112.953z"/>
			</g>
		</g>
		<g opacity="0.7">
			<g>
				<path fill="#74AFD1" d="M189.086,117.459c1.935,0,1.935-3,0-3S187.151,117.459,189.086,117.459L189.086,117.459z"/>
			</g>
		</g>
		<g opacity="0.7">
			<g>
				<path fill="#74AFD1" d="M198.804,118.185c1.935,0,1.935-3,0-3S196.87,118.185,198.804,118.185L198.804,118.185z"/>
			</g>
		</g>
		<g opacity="0.7">
			<g>
				<path fill="#74AFD1" d="M193.306,119.499c1.935,0,1.935-3,0-3S191.372,119.499,193.306,119.499L193.306,119.499z"/>
			</g>
		</g>
		<g opacity="0.7">
			<g>
				<path fill="#74AFD1" d="M202.785,124.87c1.935,0,1.935-3,0-3S200.851,124.87,202.785,124.87L202.785,124.87z"/>
			</g>
		</g>
	</g>
	<g display="inline">
		<g opacity="0.7">
			<g>
				<path fill="#74AFD1" d="M283.775,138.878c1.935,0,1.935-3,0-3S281.841,138.878,283.775,138.878L283.775,138.878z"/>
			</g>
		</g>
		<g opacity="0.7">
			<g>
				<path fill="#74AFD1" d="M288.365,127.379c1.935,0,1.935-3,0-3S286.431,127.379,288.365,127.379L288.365,127.379z"/>
			</g>
		</g>
		<g opacity="0.7">
			<g>
				<path fill="#74AFD1" d="M293.97,130.359c1.935,0,1.935-3,0-3S292.035,130.359,293.97,130.359L293.97,130.359z"/>
			</g>
		</g>
		<g opacity="0.7">
			<g>
				<path fill="#74AFD1" d="M279.172,129.565c1.935,0,1.935-3,0-3S277.237,129.565,279.172,129.565L279.172,129.565z"/>
			</g>
		</g>
		<g opacity="0.7">
			<g>
				<path fill="#74AFD1" d="M310.341,106.859c1.935,0,1.935-3,0-3S308.406,106.859,310.341,106.859L310.341,106.859z"/>
			</g>
		</g>
		<g opacity="0.7">
			<g>
				<path fill="#74AFD1" d="M306.153,114.475c1.935,0,1.935-3,0-3S304.219,114.475,306.153,114.475L306.153,114.475z"/>
			</g>
		</g>
		<g opacity="0.7">
			<g>
				<path fill="#74AFD1" d="M300.308,117.679c1.935,0,1.935-3,0-3S298.373,117.679,300.308,117.679L300.308,117.679z"/>
			</g>
		</g>
		<g opacity="0.7">
			<g>
				<path fill="#74AFD1" d="M294.229,116.178c1.935,0,1.935-3,0-3S292.294,116.178,294.229,116.178L294.229,116.178z"/>
			</g>
		</g>
		<g opacity="0.7">
			<g>
				<path fill="#74AFD1" d="M298.428,125.229c1.935,0,1.935-3,0-3S296.493,125.229,298.428,125.229L298.428,125.229z"/>
			</g>
		</g>
		<g opacity="0.7">
			<g>
				<path fill="#74AFD1" d="M302.344,110.984c1.935,0,1.935-3,0-3S300.409,110.984,302.344,110.984L302.344,110.984z"/>
			</g>
		</g>
		<g opacity="0.7">
			<g>
				<path fill="#74AFD1" d="M306.45,107.709c1.935,0,1.935-3,0-3S304.516,107.709,306.45,107.709L306.45,107.709z"/>
			</g>
		</g>
		<g opacity="0.7">
			<g>
				<path fill="#74AFD1" d="M287.894,141.287c1.935,0,1.935-3,0-3S285.959,141.287,287.894,141.287L287.894,141.287z"/>
			</g>
		</g>
		<g opacity="0.7">
			<g>
				<path fill="#74AFD1" d="M291.137,133.93c1.935,0,1.935-3,0-3S289.202,133.93,291.137,133.93L291.137,133.93z"/>
			</g>
		</g>
		<g opacity="0.7">
			<g>
				<path fill="#74AFD1" d="M286.036,132.649c1.935,0,1.935-3,0-3S284.102,132.649,286.036,132.649L286.036,132.649z"/>
			</g>
		</g>
		<g opacity="0.7">
			<g>
				<path fill="#74AFD1" d="M293.2,122.126c1.935,0,1.935-3,0-3S291.266,122.126,293.2,122.126L293.2,122.126z"/>
			</g>
		</g>
		<g opacity="0.7">
			<g>
				<path fill="#74AFD1" d="M288.167,121.805c1.935,0,1.935-3,0-3S286.232,121.805,288.167,121.805L288.167,121.805z"/>
			</g>
		</g>
		<g opacity="0.7">
			<g>
				<path fill="#74AFD1" d="M307.659,109.841c1.935,0,1.935-3,0-3S305.725,109.841,307.659,109.841L307.659,109.841z"/>
			</g>
		</g>
		<g opacity="0.7">
			<g>
				<path fill="#74AFD1" d="M312.001,104.431c1.935,0,1.935-3,0-3S310.066,104.431,312.001,104.431L312.001,104.431z"/>
			</g>
		</g>
		<g opacity="0.7">
			<g>
				<path fill="#74AFD1" d="M307.979,106.157c1.935,0,1.935-3,0-3S306.044,106.157,307.979,106.157L307.979,106.157z"/>
			</g>
		</g>
		<g opacity="0.7">
			<g>
				<path fill="#74AFD1" d="M307.923,112.231c1.935,0,1.935-3,0-3S305.988,112.231,307.923,112.231L307.923,112.231z"/>
			</g>
		</g>
		<g opacity="0.7">
			<g>
				<path fill="#74AFD1" d="M304.81,110.426c1.935,0,1.935-3,0-3S302.875,110.426,304.81,110.426L304.81,110.426z"/>
			</g>
		</g>
		<g opacity="0.7">
			<g>
				<path fill="#74AFD1" d="M304.307,112.87c1.935,0,1.935-3,0-3S302.372,112.87,304.307,112.87L304.307,112.87z"/>
			</g>
		</g>
		<g opacity="0.7">
			<g>
				<path fill="#74AFD1" d="M304.862,116.685c1.935,0,1.935-3,0-3S302.928,116.685,304.862,116.685L304.862,116.685z"/>
			</g>
		</g>
		<g opacity="0.7">
			<g>
				<path fill="#74AFD1" d="M300.321,112.377c1.935,0,1.935-3,0-3S298.387,112.377,300.321,112.377L300.321,112.377z"/>
			</g>
		</g>
		<g opacity="0.7">
			<g>
				<path fill="#74AFD1" d="M304.07,115.007c1.935,0,1.935-3,0-3S302.136,115.007,304.07,115.007L304.07,115.007z"/>
			</g>
		</g>
		<g opacity="0.7">
			<g>
				<path fill="#74AFD1" d="M302.921,119.23c1.935,0,1.935-3,0-3S300.986,119.23,302.921,119.23L302.921,119.23z"/>
			</g>
		</g>
		<g opacity="0.7">
			<g>
				<path fill="#74AFD1" d="M301.469,114.995c1.935,0,1.935-3,0-3S299.534,114.995,301.469,114.995L301.469,114.995z"/>
			</g>
		</g>
		<g opacity="0.7">
			<g>
				<path fill="#74AFD1" d="M298.222,115.417c1.935,0,1.935-3,0-3S296.287,115.417,298.222,115.417L298.222,115.417z"/>
			</g>
		</g>
		<g opacity="0.7">
			<g>
				<path fill="#74AFD1" d="M297.26,118.181c1.935,0,1.935-3,0-3S295.325,118.181,297.26,118.181L297.26,118.181z"/>
			</g>
		</g>
		<g opacity="0.7">
			<g>
				<path fill="#74AFD1" d="M299.2,121.128c1.935,0,1.935-3,0-3S297.266,121.128,299.2,121.128L299.2,121.128z"/>
			</g>
		</g>
		<g opacity="0.7">
			<g>
				<path fill="#74AFD1" d="M296.465,123.344c1.935,0,1.935-3,0-3S294.53,123.344,296.465,123.344L296.465,123.344z"/>
			</g>
		</g>
		<g opacity="0.7">
			<g>
				<path fill="#74AFD1" d="M291.814,118.851c1.935,0,1.935-3,0-3S289.88,118.851,291.814,118.851L291.814,118.851z"/>
			</g>
		</g>
		<g opacity="0.7">
			<g>
				<path fill="#74AFD1" d="M295.204,119.095c1.935,0,1.935-3,0-3S293.27,119.095,295.204,119.095L295.204,119.095z"/>
			</g>
		</g>
		<g opacity="0.7">
			<g>
				<path fill="#74AFD1" d="M296.856,127.555c1.935,0,1.935-3,0-3S294.922,127.555,296.856,127.555L296.856,127.555z"/>
			</g>
		</g>
		<g opacity="0.7">
			<g>
				<path fill="#74AFD1" d="M292.291,125.659c1.935,0,1.935-3,0-3S290.356,125.659,292.291,125.659L292.291,125.659z"/>
			</g>
		</g>
		<g opacity="0.7">
			<g>
				<path fill="#74AFD1" d="M286.486,123.946c1.935,0,1.935-3,0-3S284.552,123.946,286.486,123.946L286.486,123.946z"/>
			</g>
		</g>
		<g opacity="0.7">
			<g>
				<path fill="#74AFD1" d="M282.108,126.083c1.935,0,1.935-3,0-3S280.174,126.083,282.108,126.083L282.108,126.083z"/>
			</g>
		</g>
		<g opacity="0.7">
			<g>
				<path fill="#74AFD1" d="M284.445,129.196c1.935,0,1.935-3,0-3S282.511,129.196,284.445,129.196L284.445,129.196z"/>
			</g>
		</g>
		<g opacity="0.7">
			<g>
				<path fill="#74AFD1" d="M273.465,131.988c1.935,0,1.935-3,0-3S271.53,131.988,273.465,131.988L273.465,131.988z"/>
			</g>
		</g>
		<g opacity="0.7">
			<g>
				<path fill="#74AFD1" d="M281.149,135.785c1.935,0,1.935-3,0-3S279.215,135.785,281.149,135.785L281.149,135.785z"/>
			</g>
		</g>
		<g opacity="0.7">
			<g>
				<path fill="#74AFD1" d="M276.332,138.532c1.935,0,1.935-3,0-3S274.397,138.532,276.332,138.532L276.332,138.532z"/>
			</g>
		</g>
		<g opacity="0.7">
			<g>
				<path fill="#74AFD1" d="M281.926,144.114c1.935,0,1.935-3,0-3S279.991,144.114,281.926,144.114L281.926,144.114z"/>
			</g>
		</g>
		<g opacity="0.7">
			<g>
				<path fill="#74AFD1" d="M284.464,145.958c1.935,0,1.935-3,0-3S282.529,145.958,284.464,145.958L284.464,145.958z"/>
			</g>
		</g>
		<g opacity="0.7">
			<g>
				<path fill="#74AFD1" d="M288.188,137.22c1.935,0,1.935-3,0-3S286.253,137.22,288.188,137.22L288.188,137.22z"/>
			</g>
		</g>
		<g opacity="0.7">
			<g>
				<path fill="#74AFD1" d="M282.137,149.88c1.935,0,1.935-3,0-3S280.202,149.88,282.137,149.88L282.137,149.88z"/>
			</g>
		</g>
		<g opacity="0.7">
			<g>
				<path fill="#74AFD1" d="M283.416,155.764c1.935,0,1.935-3,0-3S281.481,155.764,283.416,155.764L283.416,155.764z"/>
			</g>
		</g>
		<g opacity="0.7">
			<g>
				<path fill="#74AFD1" d="M277.234,144.539c1.935,0,1.935-3,0-3S275.3,144.539,277.234,144.539L277.234,144.539z"/>
			</g>
		</g>
		<g opacity="0.7">
			<g>
				<path fill="#74AFD1" d="M275.664,151.008c1.935,0,1.935-3,0-3S273.729,151.008,275.664,151.008L275.664,151.008z"/>
			</g>
		</g>
		<g opacity="0.7">
			<g>
				<path fill="#74AFD1" d="M271.584,135.396c1.935,0,1.935-3,0-3S269.649,135.396,271.584,135.396L271.584,135.396z"/>
			</g>
		</g>
		<g opacity="0.7">
			<g>
				<path fill="#74AFD1" d="M264.606,134.825c1.935,0,1.935-3,0-3S262.672,134.825,264.606,134.825L264.606,134.825z"/>
			</g>
		</g>
		<g opacity="0.7">
			<g>
				<path fill="#74AFD1" d="M270.999,142.181c1.935,0,1.935-3,0-3S269.064,142.181,270.999,142.181L270.999,142.181z"/>
			</g>
		</g>
		<g opacity="0.7">
			<g>
				<path fill="#74AFD1" d="M266.169,139.244c1.935,0,1.935-3,0-3S264.234,139.244,266.169,139.244L266.169,139.244z"/>
			</g>
		</g>
		<g opacity="0.7">
			<g>
				<path fill="#74AFD1" d="M269.119,149.731c1.935,0,1.935-3,0-3S267.185,149.731,269.119,149.731L269.119,149.731z"/>
			</g>
		</g>
	</g>
	<g display="inline">
		<g>
			<path fill="#74AFD1" d="M207.784,82.367c1.935,0,1.935-3,0-3S205.85,82.367,207.784,82.367L207.784,82.367z"/>
		</g>
	</g>
	<g display="inline">
		<g>
			<path fill="#74AFD1" d="M204.091,66.942c1.935,0,1.935-3,0-3S202.156,66.942,204.091,66.942L204.091,66.942z"/>
		</g>
	</g>
	<g display="inline">
		<g>
			<path fill="#74AFD1" d="M196.27,79.543c1.935,0,1.935-3,0-3S194.335,79.543,196.27,79.543L196.27,79.543z"/>
		</g>
	</g>
	<g display="inline">
		<g>
			<path fill="#74AFD1" d="M195.401,85.843c1.935,0,1.935-3,0-3S193.466,85.843,195.401,85.843L195.401,85.843z"/>
		</g>
	</g>
	<g display="inline">
		<g>
			<path fill="#74AFD1" d="M193.663,94.099c1.935,0,1.935-3,0-3S191.728,94.099,193.663,94.099L193.663,94.099z"/>
		</g>
	</g>
	<g display="inline">
		<g>
			<path fill="#74AFD1" d="M191.925,101.92c1.935,0,1.935-3,0-3S189.99,101.92,191.925,101.92L191.925,101.92z"/>
		</g>
	</g>
	<g display="inline">
		<g>
			<path fill="#74AFD1" d="M190.838,108.654c1.935,0,1.935-3,0-3S188.904,108.654,190.838,108.654L190.838,108.654z"/>
		</g>
	</g>
	<g display="inline">
		<g>
			<path fill="#74AFD1" d="M203.873,96.271c1.935,0,1.935-3,0-3S201.938,96.271,203.873,96.271L203.873,96.271z"/>
		</g>
	</g>
	<g display="inline">
		<g>
			<path fill="#74AFD1" d="M209.305,86.93c1.935,0,1.935-3,0-3S207.37,86.93,209.305,86.93L209.305,86.93z"/>
		</g>
	</g>
	<g display="inline">
		<g>
			<path fill="#74AFD1" d="M210.174,91.709c1.935,0,1.935-3,0-3S208.239,91.709,210.174,91.709L210.174,91.709z"/>
		</g>
	</g>
	<g display="inline">
		<g>
			<path fill="#74AFD1" d="M211.694,97.357c1.935,0,1.935-3,0-3S209.76,97.357,211.694,97.357L211.694,97.357z"/>
		</g>
	</g>
	<g display="inline">
		<g>
			<path fill="#74AFD1" d="M212.563,102.571c1.935,0,1.935-3,0-3S210.629,102.571,212.563,102.571L212.563,102.571z"/>
		</g>
	</g>
	<g display="inline">
		<g>
			<path fill="#74AFD1" d="M214.736,109.306c1.935,0,1.935-3,0-3S212.802,109.306,214.736,109.306L214.736,109.306z"/>
		</g>
	</g>
	<g display="inline">
		<g>
			<path fill="#74AFD1" d="M218.429,113.434c1.935,0,1.935-3,0-3S216.494,113.434,218.429,113.434L218.429,113.434z"/>
		</g>
	</g>
	<g display="inline">
		<g>
			<path fill="#74AFD1" d="M224.295,116.258c1.935,0,1.935-3,0-3S222.36,116.258,224.295,116.258L224.295,116.258z"/>
		</g>
	</g>
	<g display="inline">
		<g>
			<path fill="#74AFD1" d="M230.378,117.996c1.935,0,1.935-3,0-3S228.443,117.996,230.378,117.996L230.378,117.996z"/>
		</g>
	</g>
	<g display="inline">
		<g>
			<path fill="#74AFD1" d="M224.295,121.689c1.935,0,1.935-3,0-3S222.36,121.689,224.295,121.689L224.295,121.689z"/>
		</g>
	</g>
	<g display="inline">
		<g>
			<path fill="#74AFD1" d="M241.675,121.472c1.935,0,1.935-3,0-3S239.74,121.472,241.675,121.472L241.675,121.472z"/>
		</g>
	</g>
	<g display="inline">
		<g>
			<path fill="#74AFD1" d="M249.062,124.948c1.935,0,1.935-3,0-3S247.127,124.948,249.062,124.948L249.062,124.948z"/>
		</g>
	</g>
	<g display="inline">
		<g>
			<path fill="#74AFD1" d="M257.316,127.121c1.935,0,1.935-3,0-3S255.382,127.121,257.316,127.121L257.316,127.121z"/>
		</g>
	</g>
	<g display="inline">
		<g>
			<path fill="#74AFD1" d="M265.138,130.379c1.935,0,1.935-3,0-3S263.203,130.379,265.138,130.379L265.138,130.379z"/>
		</g>
	</g>
	<g display="inline">
		<g>
			<path fill="#74AFD1" d="M260.575,132.552c1.935,0,1.935-3,0-3S258.641,132.552,260.575,132.552L260.575,132.552z"/>
		</g>
	</g>
	<g display="inline">
		<g>
			<path fill="#74AFD1" d="M253.406,128.859c1.935,0,1.935-3,0-3S251.472,128.859,253.406,128.859L253.406,128.859z"/>
		</g>
	</g>
	<g display="inline">
		<g>
			<path fill="#74AFD1" d="M235.809,122.124c1.935,0,1.935-3,0-3S233.874,122.124,235.809,122.124L235.809,122.124z"/>
		</g>
	</g>
	<g display="inline">
		<g>
			<path fill="#74AFD1" d="M287.08,148.628c1.935,0,1.935-3,0-3S285.146,148.628,287.08,148.628L287.08,148.628z"/>
		</g>
	</g>
	<g display="inline">
		<g>
			<path fill="#74AFD1" d="M292.729,155.146c1.935,0,1.935-3,0-3S290.794,155.146,292.729,155.146L292.729,155.146z"/>
		</g>
	</g>
	<g display="inline">
		<g>
			<path fill="#74AFD1" d="M296.856,161.446c1.935,0,1.935-3,0-3S294.922,161.446,296.856,161.446L296.856,161.446z"/>
		</g>
	</g>
	<g display="inline">
		<g>
			<path fill="#74AFD1" d="M305.329,176.219c1.935,0,1.935-3,0-3S303.395,176.219,305.329,176.219L305.329,176.219z"/>
		</g>
	</g>
	<g display="inline">
		<g>
			<path fill="#74AFD1" d="M302.287,170.353c1.935,0,1.935-3,0-3S300.353,170.353,302.287,170.353L302.287,170.353z"/>
		</g>
	</g>
	<g display="inline">
		<g>
			<path fill="#74AFD1" d="M300.332,165.356c1.935,0,1.935-3,0-3S298.397,165.356,300.332,165.356L300.332,165.356z"/>
		</g>
	</g>
	<g display="inline">
		<g>
			<path fill="#74AFD1" d="M290.556,159.273c1.935,0,1.935-3,0-3S288.621,159.273,290.556,159.273L290.556,159.273z"/>
		</g>
	</g>
	<g display="inline">
		<g>
			<path fill="#74AFD1" d="M287.08,153.842c1.935,0,1.935-3,0-3S285.146,153.842,287.08,153.842L287.08,153.842z"/>
		</g>
	</g>
	<g display="inline">
		<g>
			<path fill="#74AFD1" d="M115.018,147.758c1.935,0,1.935-3,0-3S113.083,147.758,115.018,147.758L115.018,147.758z"/>
		</g>
	</g>
	<g display="inline">
		<g>
			<path fill="#74AFD1" d="M109.152,154.71c1.935,0,1.935-3,0-3S107.218,154.71,109.152,154.71L109.152,154.71z"/>
		</g>
	</g>
	<g display="inline">
		<g>
			<path fill="#74AFD1" d="M103.938,162.966c1.935,0,1.935-3,0-3S102.003,162.966,103.938,162.966L103.938,162.966z"/>
		</g>
	</g>
	<g display="inline">
		<g>
			<path fill="#74AFD1" d="M106.328,158.187c1.935,0,1.935-3,0-3S104.394,158.187,106.328,158.187L106.328,158.187z"/>
		</g>
	</g>
	<g display="inline">
		<g>
			<path fill="#74AFD1" d="M111.759,151.234c1.935,0,1.935-3,0-3S109.825,151.234,111.759,151.234L111.759,151.234z"/>
		</g>
	</g>
	<g display="inline">
		<g>
			<path fill="#74AFD1" d="M119.58,149.931c1.935,0,1.935-3,0-3S117.646,149.931,119.58,149.931L119.58,149.931z"/>
		</g>
	</g>
	<g display="inline">
		<g>
			<path fill="#74AFD1" d="M113.497,153.841c1.935,0,1.935-3,0-3S111.562,153.841,113.497,153.841L113.497,153.841z"/>
		</g>
	</g>
	<g display="inline">
		<g>
			<path fill="#74AFD1" d="M109.586,159.055c1.935,0,1.935-3,0-3S107.652,159.055,109.586,159.055L109.586,159.055z"/>
		</g>
	</g>
	<g display="inline">
		<g>
			<path fill="#74AFD1" d="M100.245,168.832c1.935,0,1.935-3,0-3S98.311,168.832,100.245,168.832L100.245,168.832z"/>
		</g>
	</g>
	<g display="inline">
		<g>
			<path fill="#74AFD1" d="M126.967,147.106c1.935,0,1.935-3,0-3S125.032,147.106,126.967,147.106L126.967,147.106z"/>
		</g>
	</g>
	<g display="inline">
		<g>
			<path fill="#74AFD1" d="M140.871,132.985c1.935,0,1.935-3,0-3S138.936,132.985,140.871,132.985L140.871,132.985z"/>
		</g>
	</g>
	<g display="inline">
		<g>
			<path fill="#74AFD1" d="M147.823,126.25c1.935,0,1.935-3,0-3S145.888,126.25,147.823,126.25L147.823,126.25z"/>
		</g>
	</g>
	<g display="inline">
		<g>
			<path fill="#74AFD1" d="M157.381,123.861c1.935,0,1.935-3,0-3S155.447,123.861,157.381,123.861L157.381,123.861z"/>
		</g>
	</g>
	<g display="inline">
		<g>
			<path fill="#74AFD1" d="M169.33,124.295c1.935,0,1.935-3,0-3S167.396,124.295,169.33,124.295L169.33,124.295z"/>
		</g>
	</g>
	<g display="inline">
		<g>
			<path fill="#74AFD1" d="M173.241,119.516c1.935,0,1.935-3,0-3S171.306,119.516,173.241,119.516L173.241,119.516z"/>
		</g>
	</g>
	<g display="inline">
		<g>
			<path fill="#74AFD1" d="M180.627,114.302c1.935,0,1.935-3,0-3S178.693,114.302,180.627,114.302L180.627,114.302z"/>
		</g>
	</g>
	<g display="inline">
		<g>
			<path fill="#74AFD1" d="M181.279,119.95c1.935,0,1.935-3,0-3S179.344,119.95,181.279,119.95L181.279,119.95z"/>
		</g>
	</g>
	<g display="inline">
		<g>
			<path fill="#74AFD1" d="M164.333,120.819c1.935,0,1.935-3,0-3S162.399,120.819,164.333,120.819L164.333,120.819z"/>
		</g>
	</g>
	<g display="inline">
		<g>
			<path fill="#74AFD1" d="M160.857,126.468c1.935,0,1.935-3,0-3S158.923,126.468,160.857,126.468L160.857,126.468z"/>
		</g>
	</g>
	<g display="inline">
		<g>
			<path fill="#74AFD1" d="M149.126,130.813c1.935,0,1.935-3,0-3S147.191,130.813,149.126,130.813L149.126,130.813z"/>
		</g>
	</g>
	<g display="inline">
		<g>
			<path fill="#74AFD1" d="M141.305,138.199c1.935,0,1.935-3,0-3S139.371,138.199,141.305,138.199L141.305,138.199z"/>
		</g>
	</g>
	<g display="inline">
		<g>
			<path fill="#74AFD1" d="M154.34,127.337c1.935,0,1.935-3,0-3S152.405,127.337,154.34,127.337L154.34,127.337z"/>
		</g>
	</g>
	<g display="inline">
		<g>
			<path fill="#74AFD1" d="M168.461,116.909c1.935,0,1.935-3,0-3S166.527,116.909,168.461,116.909L168.461,116.909z"/>
		</g>
	</g>
</g>
</svg>
