<?xml version="1.0" encoding="utf-8"?>
<!-- Generator: Adobe Illustrator 15.1.0, SVG Export Plug-In . SVG Version: 6.00 Build 0)  -->
<!DOCTYPE svg PUBLIC "-//W3C//DTD SVG 1.1//EN" "http://www.w3.org/Graphics/SVG/1.1/DTD/svg11.dtd">
<svg version="1.1" xmlns="http://www.w3.org/2000/svg" xmlns:xlink="http://www.w3.org/1999/xlink" x="0px" y="0px" width="400px"
	 height="400px" viewBox="0 0 400 400" enable-background="new 0 0 400 400" xml:space="preserve">
<g id="guide_lines_layer" display="none">
	<rect display="inline" fill="#FFFFFF" stroke="#000000" stroke-miterlimit="10" width="75" height="400"/>
	<rect x="325" y="-1" display="inline" fill="#FFFFFF" stroke="#000000" stroke-miterlimit="10" width="75" height="400"/>
</g>
<g id="body_layer" display="none">
	<g display="inline">
		<path fill="#8BCEAB" d="M73.116,399.621c-2.881-20-6-94.502-1.5-143.002c3.742-40.336,17.835-96.814,42.335-118.185
			c3.563-3.109-30.614-46.478-26.833-49.163c3.811-2.707,45.583,35.274,49.586,33.009c14.496-8.207,30.144-13.496,46.221-15.628
			c5.359-0.709,10.294-53.232,15.722-53.232c6.436,0,13.158,52.648,19.217,53.574c18.174,2.778,34.613,9.509,49.126,18.935
			c2.902,1.885,44.048-32.706,46.795-30.616c3.355,2.555-31.726,41.837-28.608,44.663c29.753,26.976,31.94,73.642,35.44,119.144
			c2.627,34.148,4.752,126.445,1.92,140.279L73.116,399.621z"/>
		<path fill="#72C596" d="M315.782,254.623c0,19.33-16.977,34.998-37.917,34.998c-20.939,0-37.916-15.668-37.916-34.998
			c0-19.336,16.977-35.004,37.916-35.004C298.806,219.619,315.782,235.287,315.782,254.623z"/>
		<path fill="#72C596" d="M159.782,257.623c0,19.33-16.977,34.998-37.917,34.998c-20.939,0-37.916-15.668-37.916-34.998
			c0-19.336,16.977-35.004,37.916-35.004C142.806,222.619,159.782,238.287,159.782,257.623z"/>
	</g>
	<g display="inline">
		<g>
			<path fill="#7DC6DD" d="M117.059,119.612c0.65,0,2.082-0.986,0.781-0.986C117.189,118.626,115.758,119.612,117.059,119.612
				L117.059,119.612z"/>
		</g>
	</g>
	<g display="inline">
		<g>
			<path fill="none" stroke="#F2E4D2" stroke-miterlimit="10" d="M283.949,120.119"/>
		</g>
	</g>
	<g display="inline">
		<g>
			<path fill="none" stroke="#F2E4D2" stroke-miterlimit="10" d="M195.949,119.119"/>
		</g>
	</g>
</g>
<g id="face_layer">
	<path d="M165.25,261.47l71.849,1.467c0,0-12.613,48.428-37.971,48.428C173.77,311.365,165.25,261.47,165.25,261.47z"/>
	<path fill="#FDFDFE" d="M180.361,261.841c0,0,2.937,19.846,4.177,21.133l9.35-20.863l16.197,0.334
		c0.549-0.182,6.787,18.557,6.787,18.557c0.454,0.074,5.187-16.428,5.282-18.518C221.325,262.691,180.361,261.841,180.361,261.841z"
		/>
	<circle fill="#FFFFFF" cx="162.093" cy="204.955" r="43.25"/>
	<circle cx="145.093" cy="198.955" r="12.25"/>
	<circle fill="#FFFFFF" cx="240.343" cy="209.205" r="28.5"/>
	<circle cx="232.343" cy="204.705" r="11.25"/>
</g>
</svg>
