<?xml version="1.0" encoding="utf-8"?>
<!-- Generator: Adobe Illustrator 15.1.0, SVG Export Plug-In . SVG Version: 6.00 Build 0)  -->
<!DOCTYPE svg PUBLIC "-//W3C//DTD SVG 1.1//EN" "http://www.w3.org/Graphics/SVG/1.1/DTD/svg11.dtd">
<svg version="1.1" xmlns="http://www.w3.org/2000/svg" xmlns:xlink="http://www.w3.org/1999/xlink" x="0px" y="0px" width="400px"
	 height="400px" viewBox="0 0 400 400" enable-background="new 0 0 400 400" xml:space="preserve">
<g id="guide_lines_layer" display="none">
	<rect x="-0.75" display="inline" fill="#FFFFFF" stroke="#000000" stroke-miterlimit="10" width="75" height="400"/>
	<rect x="323.5" display="inline" fill="#FFFFFF" stroke="#000000" stroke-miterlimit="10" width="75" height="400"/>
</g>
<g id="body_layer">
	<path fill="#6FC5D8" d="M324.977,0L327,127.449c-2.206,25.478,41-4,41,29c0,32.062-120,28-119,14c0.778-10.892-6-128-59-122
		c-32.804,3.714-43.046,125.093-45,129c-3,6-115,30-117-12c-1.813-38.075,46,0,44.168-36.008c0,0,2.881-125.732,3.77-129.441
		H324.977z"/>
	<path fill="#D6C370" d="M31.009,153.846c0,0-4.187,4.983-2.193,10.965c0,0-12.559-7.376-16.347,0.996
		C12.07,154.244,20.842,152.849,31.009,153.846z"/>
	<path fill="#D6C370" d="M30.81,166.804c0,0-0.199,4.386,5.98,7.975c0,0-13.755-3.189-17.543,5.183
		C18.849,168.398,20.643,165.807,30.81,166.804z"/>
	<path fill="#D6C370" d="M38.084,177.507l7.841,2.83c0,0-8.394,3.072-11.97,13.587C31.048,186.932,31.956,181.129,38.084,177.507z"
		/>
	<path fill="#D6C370" d="M363.757,143.846c0,0,4.069,4.983,2.131,10.965c0,0,12.207-7.376,15.89,0.996
		C382.164,144.244,373.639,142.849,363.757,143.846z"/>
	<path fill="#D6C370" d="M363.95,156.804c0,0,0.193,4.386-5.812,7.975c0,0,13.369-3.189,17.051,5.183
		C375.576,158.398,373.832,155.807,363.95,156.804z"/>
	<path fill="#D6C370" d="M356.88,167.507l-7.621,2.83c0,0,8.158,3.072,11.634,13.587
		C363.718,176.932,362.836,171.129,356.88,167.507z"/>
	<path fill="#52BFD1" d="M75.983,7.426c0,0,139.461,50.713-3.888,123.271L75.983,7.426z"/>
	<path fill="#52BFD1" d="M325.263,4.953c0,0-124.187,45.307,1.429,119.307L325.263,4.953z"/>
</g>
<g id="face_layer" display="none">
</g>
</svg>
