<?xml version="1.0" encoding="utf-8"?>
<!-- Generator: Adobe Illustrator 15.1.0, SVG Export Plug-In . SVG Version: 6.00 Build 0)  -->
<!DOCTYPE svg PUBLIC "-//W3C//DTD SVG 1.1//EN" "http://www.w3.org/Graphics/SVG/1.1/DTD/svg11.dtd">
<svg version="1.1" xmlns="http://www.w3.org/2000/svg" xmlns:xlink="http://www.w3.org/1999/xlink" x="0px" y="0px" width="400px"
	 height="400px" viewBox="0 0 400 400" enable-background="new 0 0 400 400" xml:space="preserve">
<g id="guide_lines_layer" display="none">
	
		<rect x="-915.583" y="-410.679" display="inline" fill="#FFFFFF" stroke="#000000" stroke-miterlimit="10" width="75" height="400"/>
	
		<rect x="-591.333" y="-414.678" display="inline" fill="#FFFFFF" stroke="#000000" stroke-miterlimit="10" width="75" height="400"/>
	
		<rect x="-591.333" y="-817.667" display="inline" fill="#FFFFFF" stroke="#000000" stroke-miterlimit="10" width="75" height="400"/>
	
		<rect x="-915.583" y="-817.667" display="inline" fill="#FFFFFF" stroke="#000000" stroke-miterlimit="10" width="75" height="400"/>
	
		<rect x="-456.274" y="-822.167" display="inline" fill="#FFFFFF" stroke="#000000" stroke-miterlimit="10" width="75" height="400"/>
	
		<rect x="-131.274" y="-823.167" display="inline" fill="#FFFFFF" stroke="#000000" stroke-miterlimit="10" width="75" height="400"/>
	
		<rect x="-131.275" y="-415.132" display="inline" fill="#FFFFFF" stroke="#000000" stroke-miterlimit="10" width="75" height="400"/>
	
		<rect x="-456.275" y="-415.132" display="inline" fill="#FFFFFF" stroke="#000000" stroke-miterlimit="10" width="75" height="400"/>
	<rect x="-915.583" y="-9.113" display="inline" fill="#FFFFFF" stroke="#000000" stroke-miterlimit="10" width="75" height="400"/>
	<rect x="-591.333" y="-9.113" display="inline" fill="#FFFFFF" stroke="#000000" stroke-miterlimit="10" width="75" height="400"/>
	<rect x="-129.775" y="-9.113" display="inline" fill="#FFFFFF" stroke="#000000" stroke-miterlimit="10" width="75" height="400"/>
	<rect x="-454.775" y="-9.113" display="inline" fill="#FFFFFF" stroke="#000000" stroke-miterlimit="10" width="75" height="400"/>
	<rect y="-821" display="inline" fill="#FFFFFF" stroke="#000000" stroke-miterlimit="10" width="75" height="400"/>
	<rect x="325" y="-821" display="inline" fill="#FFFFFF" stroke="#000000" stroke-miterlimit="10" width="75" height="399.999"/>
	
		<rect x="323.667" y="-407.667" display="inline" fill="#FFFFFF" stroke="#000000" stroke-miterlimit="10" width="75" height="400"/>
	<rect x="-1.333" y="-407.667" display="inline" fill="#FFFFFF" stroke="#000000" stroke-miterlimit="10" width="75" height="400"/>
	<rect x="325" y="-0.667" display="inline" fill="#FFFFFF" stroke="#000000" stroke-miterlimit="10" width="75" height="400"/>
	<rect y="0.333" display="inline" fill="#FFFFFF" stroke="#000000" stroke-miterlimit="10" width="75" height="400"/>
	
		<rect x="473.272" y="-821.636" display="inline" fill="#FFFFFF" stroke="#000000" stroke-miterlimit="10" width="75" height="400"/>
	
		<rect x="798.272" y="-821.636" display="inline" fill="#FFFFFF" stroke="#000000" stroke-miterlimit="10" width="75" height="399.999"/>
	
		<rect x="796.939" y="-406.667" display="inline" fill="#FFFFFF" stroke="#000000" stroke-miterlimit="10" width="75" height="400"/>
	
		<rect x="472.667" y="-406.667" display="inline" fill="#FFFFFF" stroke="#000000" stroke-miterlimit="10" width="75" height="400"/>
	<rect x="796.939" y="-1.303" display="inline" fill="#FFFFFF" stroke="#000000" stroke-miterlimit="10" width="75" height="400"/>
	<rect x="471.939" y="-0.303" display="inline" fill="#FFFFFF" stroke="#000000" stroke-miterlimit="10" width="75" height="400"/>
</g>
<g id="body_layer">
	<path fill="#DBCD7D" d="M595.002-684c0,0-63.33-68.667-118.667-8.667c62.715-18,76.856-2,88.539,29.334
		C576.176-633.022,595.002-684,595.002-684z"/>
	<path fill="#DBCD7D" d="M739.667-682c0,0,63.33-68.667,118.667-8.667c-62.715-18-76.856-2-88.539,29.333
		C758.493-631.023,739.667-682,739.667-682z"/>
	<path fill="#7DC6DD" d="M-840.666-420.665c-2.883-20-6.001-94.502-1.501-143.002c3.743-40.334,17.835-96.814,42.335-118.185
		c3.563-3.109-30.615-46.477-26.834-49.162c3.812-2.707,45.584,35.273,49.586,33.007c14.496-8.207,30.145-13.495,46.222-15.626
		c5.358-0.71,10.294-53.233,15.722-53.233c6.436,0,13.158,52.65,19.217,53.576c18.174,2.776,34.613,9.508,49.126,18.933
		c2.902,1.885,44.048-32.705,46.795-30.614c3.355,2.554-31.726,41.835-28.608,44.662c29.753,26.976,31.94,73.644,35.44,119.144
		c2.627,34.148,4.752,126.445,1.92,140.279L-840.666-420.665z"/>
	<path fill="#79C2EA" stroke="#FFFFFF" stroke-miterlimit="10" d="M-1140.333-614.667"/>
	<path fill="#7DC6DD" d="M-841.333-414.666v46c0,0-4,30-21,37s-27,11-27,31s11,36-6,41s-14,15,0,15s25.353-13.575,26.774-25.657
		c1.963-16.687-8.344-22.576,7.853-32.883c9.972-6.346,19.141-5.399,19.141-5.399l-0.492,53.985c0,0-28.436,6.475-36.318,25.523
		c-11.779,28.464,4.968,47.216,1.042,62.431c-6.039,23.4-23.395,19.503-22.5,28c1,9.5,37.038,0.956,39-28
		c1.114-16.443-2.814-21.393-3.309-29.06c-0.982-15.214,9.325-26.993,23.067-25.519l-0.258,88.578c0,0,0.629,17.897-13.484,28.718
		c-14.724,11.288-18.65,9.815-26.012,16.688c-17.939,16.744-6.871,35.827-15.706,41.718c-14.062,9.377-15.214,21.595-2.945,16.687
		c22.104-8.843,21.777-16.334,24.54-33.374c2.944-18.159,29.607-22.436,29.607-22.436h4l0.903,70.988h111.097l7-400
		L-841.333-414.666z"/>
	<path fill="#7DC6DD" d="M-845.333-84.666"/>
	<circle fill="#36A1BA" cx="-864.166" cy="-325.5" r="7.833"/>
	<circle fill="#36A1BA" cx="-863.166" cy="-304.5" r="6.167"/>
	<circle fill="#36A1BA" cx="-880.832" cy="-307.834" r="5.833"/>
	<circle fill="#36A1BA" cx="-872.332" cy="-290.667" r="4.333"/>
	<circle fill="#36A1BA" cx="-884.999" cy="-296.667" r="4.667"/>
	<circle fill="#36A1BA" cx="-882.332" cy="-283.334" r="4"/>
	<circle fill="#36A1BA" cx="-870.832" cy="-276.5" r="3.5"/>
	<circle fill="#36A1BA" cx="-881.832" cy="-270.5" r="3.833"/>
	<circle fill="#36A1BA" cx="-874.999" cy="-260.667" r="3.667"/>
	<circle fill="#36A1BA" cx="-887.999" cy="-259.001" r="3.333"/>
	<circle fill="#36A1BA" cx="-884.166" cy="-250.166" r="2.833"/>
	<circle fill="#36A1BA" cx="-897.999" cy="-251.667" r="3"/>
	<circle fill="#36A1BA" cx="-845.332" cy="-246" r="9"/>
	<circle fill="#36A1BA" cx="-856.666" cy="-223.334" r="8"/>
	<circle fill="#36A1BA" cx="-866.499" cy="-236.834" r="6.833"/>
	<circle fill="#36A1BA" cx="-877.166" cy="-225.167" r="6.167"/>
	<circle fill="#36A1BA" cx="-880.332" cy="-208.666" r="6.167"/>
	<circle fill="#36A1BA" cx="-865.832" cy="-207.833" r="6.5"/>
	<circle fill="#36A1BA" cx="-876.832" cy="-192.834" r="4.833"/>
	<circle fill="#36A1BA" cx="-864.999" cy="-188.333" r="4"/>
	<circle fill="#36A1BA" cx="-872.499" cy="-177.5" r="3.833"/>
	<circle fill="#36A1BA" cx="-863.832" cy="-173.834" r="3.833"/>
	<circle fill="#36A1BA" cx="-874.165" cy="-165.166" r="4.167"/>
	<circle fill="#36A1BA" cx="-871.666" cy="-149.166" r="3.5"/>
	<circle fill="#36A1BA" cx="-878.665" cy="-155.666" r="3.333"/>
	<circle fill="#36A1BA" cx="-863.666" cy="-158.333" r="4.333"/>
	<circle fill="#36A1BA" cx="-882.499" cy="-141.166" r="3.833"/>
	<circle fill="#36A1BA" cx="-852.166" cy="-100.5" r="6.167"/>
	<circle fill="#36A1BA" cx="-862.832" cy="-81.501" r="4.167"/>
	<circle fill="#36A1BA" cx="-862.499" cy="-93.833" r="3.833"/>
	<circle fill="#36A1BA" cx="-874.332" cy="-86.334" r="4.333"/>
	<circle fill="#36A1BA" cx="-888.332" cy="-62.001" r="3"/>
	<circle fill="#36A1BA" cx="-883.499" cy="-75.168" r="4.167"/>
	<circle fill="#36A1BA" cx="-872.832" cy="-72.834" r="4.833"/>
	<circle fill="#36A1BA" cx="-850.665" cy="-87.001" r="5.667"/>
	<circle fill="#36A1BA" cx="-881.832" cy="-43.501" r="3.5"/>
	<circle fill="#36A1BA" cx="-892.499" cy="-42.834" r="3.5"/>
	<circle fill="#36A1BA" cx="-880.832" cy="-56.168" r="3.5"/>
	<circle fill="#36A1BA" cx="-878.832" cy="-64.501" r="3.5"/>
	<circle fill="#36A1BA" cx="-889.999" cy="-50.668" r="3"/>
	<circle fill="#36A1BA" cx="-895.499" cy="-34.834" r="3.167"/>
	<path fill="#7DC6DD" d="M-591.35-413.678l-0.941,45.012c0,0,4.405,30,23.125,37c18.721,7,29.732,11,29.732,31s-12.113,36,6.607,41
		c18.72,5,15.416,15,0,15c-15.417,0-27.919-13.575-29.484-25.657c-2.161-16.687,9.188-22.576-8.646-32.883
		c-10.982-6.346-21.078-5.399-21.078-5.399l0.541,53.985c0,0,31.313,6.475,39.993,25.523c12.972,28.464-5.47,47.216-1.146,62.431
		c6.649,23.4,25.762,19.503,24.776,28c-1.102,9.5-40.785,0.956-42.946-28c-1.228-16.443,3.099-21.393,3.644-29.06
		c1.081-15.214-10.269-26.993-25.401-25.519l0.284,88.578c0,0-0.692,17.897,14.849,28.718c16.215,11.288,20.538,9.815,28.645,16.688
		c19.755,16.744,7.566,35.827,17.295,41.718c15.486,9.377,16.754,21.595,3.242,16.687c-24.34-8.843-23.98-16.334-27.021-33.374
		c-3.244-18.159-32.604-22.436-32.604-22.436h-4.405l1.381,70.988h-139.676l7.253-400H-591.35z"/>
	<path fill="#7DC6DD" d="M-587.886-84.666"/>
	<ellipse fill="#36A1BA" cx="-567.148" cy="-325.5" rx="8.626" ry="7.833"/>
	<ellipse fill="#36A1BA" cx="-568.25" cy="-304.5" rx="6.791" ry="6.166"/>
	<ellipse fill="#36A1BA" cx="-548.795" cy="-307.834" rx="6.423" ry="5.834"/>
	<ellipse fill="#36A1BA" cx="-558.155" cy="-290.667" rx="4.771" ry="4.333"/>
	<ellipse fill="#36A1BA" cx="-544.207" cy="-296.667" rx="5.139" ry="4.667"/>
	<ellipse fill="#36A1BA" cx="-547.143" cy="-283.334" rx="4.405" ry="4"/>
	<ellipse fill="#36A1BA" cx="-559.807" cy="-276.5" rx="3.854" ry="3.5"/>
	<ellipse fill="#36A1BA" cx="-547.694" cy="-270.5" rx="4.221" ry="3.833"/>
	<ellipse fill="#36A1BA" cx="-555.219" cy="-260.667" rx="4.038" ry="3.667"/>
	<ellipse fill="#36A1BA" cx="-540.903" cy="-259.001" rx="3.671" ry="3.333"/>
	<ellipse fill="#36A1BA" cx="-545.124" cy="-250.166" rx="3.12" ry="2.833"/>
	<ellipse fill="#36A1BA" cx="-529.891" cy="-251.667" rx="3.304" ry="3"/>
	<ellipse fill="#36A1BA" cx="-587.887" cy="-246" rx="9.911" ry="9"/>
	<ellipse fill="#36A1BA" cx="-575.407" cy="-223.334" rx="8.81" ry="8"/>
	<ellipse fill="#36A1BA" cx="-564.579" cy="-236.834" rx="7.525" ry="6.834"/>
	<ellipse fill="#36A1BA" cx="-552.832" cy="-225.167" rx="6.791" ry="6.167"/>
	<ellipse fill="#36A1BA" cx="-549.346" cy="-208.666" rx="6.791" ry="6.167"/>
	<ellipse fill="#36A1BA" cx="-565.313" cy="-207.833" rx="7.158" ry="6.5"/>
	<ellipse fill="#36A1BA" cx="-553.2" cy="-192.834" rx="5.322" ry="4.834"/>
	<ellipse fill="#36A1BA" cx="-566.23" cy="-188.333" rx="4.405" ry="4"/>
	<ellipse fill="#36A1BA" cx="-557.972" cy="-177.5" rx="4.222" ry="3.833"/>
	<ellipse fill="#36A1BA" cx="-567.515" cy="-173.834" rx="4.221" ry="3.834"/>
	<ellipse fill="#36A1BA" cx="-556.137" cy="-165.166" rx="4.589" ry="4.167"/>
	<ellipse fill="#36A1BA" cx="-558.889" cy="-149.166" rx="3.854" ry="3.5"/>
	<ellipse fill="#36A1BA" cx="-551.181" cy="-155.666" rx="3.671" ry="3.334"/>
	<ellipse fill="#36A1BA" cx="-567.698" cy="-158.333" rx="4.771" ry="4.333"/>
	<ellipse fill="#36A1BA" cx="-546.959" cy="-141.166" rx="4.221" ry="3.834"/>
	<ellipse fill="#36A1BA" cx="-580.361" cy="-100.5" rx="6.791" ry="6.167"/>
	<ellipse fill="#36A1BA" cx="-568.617" cy="-81.501" rx="4.588" ry="4.166"/>
	<ellipse fill="#36A1BA" cx="-568.983" cy="-93.833" rx="4.222" ry="3.833"/>
	<ellipse fill="#36A1BA" cx="-555.952" cy="-86.334" rx="4.771" ry="4.334"/>
	<ellipse fill="#36A1BA" cx="-540.536" cy="-62.001" rx="3.304" ry="3"/>
	<ellipse fill="#36A1BA" cx="-545.858" cy="-75.168" rx="4.588" ry="4.167"/>
	<ellipse fill="#36A1BA" cx="-557.604" cy="-72.834" rx="5.322" ry="4.833"/>
	<ellipse fill="#36A1BA" cx="-582.015" cy="-87.001" rx="6.239" ry="5.666"/>
	<ellipse fill="#36A1BA" cx="-547.694" cy="-43.501" rx="3.854" ry="3.5"/>
	<ellipse fill="#36A1BA" cx="-535.947" cy="-42.834" rx="3.854" ry="3.5"/>
	<ellipse fill="#36A1BA" cx="-548.795" cy="-56.168" rx="3.854" ry="3.5"/>
	<ellipse fill="#36A1BA" cx="-550.998" cy="-64.501" rx="3.854" ry="3.5"/>
	<ellipse fill="#36A1BA" cx="-538.7" cy="-50.668" rx="3.304" ry="3"/>
	<ellipse fill="#36A1BA" cx="-532.644" cy="-34.834" rx="3.487" ry="3.166"/>
	<path fill="#52BFD1" d="M-616-218.654c0,99.408-43.169,179.988-96.417,179.988s-96.417-80.58-96.417-179.988
		c0-99.43,43.168-180.012,96.417-180.012S-616-318.084-616-218.654z"/>
	<path fill="#52BFD1" d="M-598.001-565.663c0,19.33-16.977,34.998-37.917,34.998c-20.939,0-37.916-15.668-37.916-34.998
		c0-19.334,16.977-35.002,37.916-35.002C-614.978-600.665-598.001-584.997-598.001-565.663z"/>
	<path fill="#52BFD1" d="M-754.001-562.663c0,19.33-16.977,34.998-37.917,34.998c-20.939,0-37.916-15.668-37.916-34.998
		c0-19.334,16.977-35.002,37.916-35.002C-770.978-597.665-754.001-581.997-754.001-562.663z"/>
	<g>
		<g>
			<path fill="#7DC6DD" d="M-796.725-700.673c0.65,0,2.082-0.987,0.781-0.987C-796.594-701.66-798.025-700.673-796.725-700.673
				L-796.725-700.673z"/>
		</g>
	</g>
	<g>
		<g>
			<path fill="none" stroke="#F2E4D2" stroke-miterlimit="10" d="M-629.834-700.167"/>
		</g>
	</g>
	<g>
		<g>
			<path fill="none" stroke="#F2E4D2" stroke-miterlimit="10" d="M-717.834-701.167"/>
		</g>
	</g>
	<path fill="#6FC5D8" d="M-589.856-9.113l2.023,127.449c-2.206,25.478,41-4,41,29c0,32.062-120,28-119,14c0.778-10.892-6-128-59-122
		c-32.804,3.714-43.046,125.093-45,129c-3,6-115,30-117-12c-1.813-38.075,46,0,44.168-36.008c0,0,2.881-125.732,3.77-129.441
		H-589.856z"/>
	<path fill="#D6C370" d="M-883.824,144.732c0,0-4.187,4.983-2.193,10.965c0,0-12.559-7.376-16.347,0.996
		C-902.763,145.131-893.991,143.735-883.824,144.732z"/>
	<path fill="#D6C370" d="M-884.023,157.69c0,0-0.199,4.386,5.98,7.975c0,0-13.755-3.189-17.543,5.183
		C-895.984,159.285-894.19,156.693-884.023,157.69z"/>
	<path fill="#D6C370" d="M-876.749,168.394l7.841,2.83c0,0-8.394,3.072-11.97,13.587
		C-883.785,177.818-882.877,172.016-876.749,168.394z"/>
	<path fill="#D6C370" d="M-551.076,134.732c0,0,4.069,4.983,2.131,10.965c0,0,12.207-7.376,15.89,0.996
		C-532.669,135.131-541.194,133.735-551.076,134.732z"/>
	<path fill="#D6C370" d="M-550.883,147.69c0,0,0.193,4.386-5.812,7.975c0,0,13.369-3.189,17.051,5.183
		C-539.257,149.285-541.001,146.693-550.883,147.69z"/>
	<path fill="#D6C370" d="M-557.953,158.394l-7.621,2.83c0,0,8.158,3.072,11.634,13.587
		C-551.115,167.818-551.997,162.016-557.953,158.394z"/>
	<path fill="#52BFD1" d="M-838.85-1.688c0,0,139.461,50.713-3.888,123.271L-838.85-1.688z"/>
	<path fill="#52BFD1" d="M-589.57-4.16c0,0-124.187,45.307,1.429,119.307L-589.57-4.16z"/>
	<path fill="#8BCEAB" d="M-383.158-422.546c-2.881-20-6-94.502-1.5-143.002c3.742-40.336,17.835-96.814,42.335-118.185
		c3.563-3.109-30.614-46.478-26.833-49.163c3.811-2.707,45.583,35.274,49.586,33.009c14.496-8.207,30.144-13.496,46.221-15.628
		c5.359-0.709,10.294-53.232,15.722-53.232c6.436,0,13.158,52.648,19.217,53.574c18.174,2.778,34.613,9.509,49.126,18.935
		c2.902,1.885,44.048-32.706,46.795-30.616c3.355,2.555-31.726,41.837-28.608,44.663c29.753,26.976,31.94,73.642,35.44,119.144
		c2.627,34.148,4.752,126.445,1.92,140.279L-383.158-422.546z"/>
	<path fill="#8BCEAB" d="M-382.326-415.048v46c0,0-4,30-21,37s-27,11-27,31s11,36-6,41s-14,15,0,15s25.353-13.574,26.774-25.656
		c1.963-16.688-8.344-22.576,7.853-32.883c9.972-6.346,19.142-5.4,19.142-5.4l-0.492,53.986c0,0-28.436,6.475-36.318,25.523
		c-11.779,28.463,4.969,47.215,1.042,62.43c-6.038,23.4-23.395,19.504-22.5,28c1,9.5,37.038,0.957,39-28
		c1.114-16.443-2.813-21.393-3.309-29.059c-0.981-15.215,9.325-26.994,23.067-25.52l-0.259,88.578c0,0,0.63,17.898-13.484,28.719
		c-14.724,11.287-18.649,9.814-26.013,16.688c-17.938,16.744-6.871,35.826-15.705,41.717c-14.062,9.377-15.215,21.596-2.945,16.688
		c22.105-8.844,21.777-16.334,24.541-33.375c2.943-18.158,29.606-22.436,29.606-22.436h4l0.903,70.988h111.097l7-400
		L-382.326-415.048z"/>
	<path fill="#7DC6DD" d="M-386.326-85.048"/>
	<circle fill="#60A37B" cx="-405.159" cy="-325.882" r="7.833"/>
	<circle fill="#60A37B" cx="-404.159" cy="-304.882" r="6.167"/>
	<circle fill="#60A37B" cx="-421.825" cy="-308.216" r="5.834"/>
	<circle fill="#60A37B" cx="-413.326" cy="-291.048" r="4.333"/>
	<circle fill="#60A37B" cx="-425.992" cy="-297.048" r="4.667"/>
	<circle fill="#60A37B" cx="-423.325" cy="-283.716" r="4"/>
	<circle fill="#60A37B" cx="-411.825" cy="-276.882" r="3.5"/>
	<circle fill="#60A37B" cx="-422.825" cy="-270.882" r="3.834"/>
	<circle fill="#60A37B" cx="-415.992" cy="-261.048" r="3.667"/>
	<circle fill="#60A37B" cx="-428.992" cy="-259.382" r="3.333"/>
	<circle fill="#60A37B" cx="-425.159" cy="-250.548" r="2.833"/>
	<circle fill="#60A37B" cx="-438.992" cy="-252.048" r="3"/>
	<circle fill="#60A37B" cx="-386.325" cy="-246.382" r="9"/>
	<circle fill="#60A37B" cx="-397.659" cy="-223.716" r="8"/>
	<circle fill="#60A37B" cx="-407.492" cy="-237.216" r="6.833"/>
	<circle fill="#60A37B" cx="-418.158" cy="-225.548" r="6.167"/>
	<circle fill="#60A37B" cx="-421.325" cy="-209.048" r="6.167"/>
	<circle fill="#60A37B" cx="-406.825" cy="-208.214" r="6.5"/>
	<circle fill="#60A37B" cx="-417.825" cy="-193.216" r="4.834"/>
	<circle fill="#60A37B" cx="-405.992" cy="-188.714" r="4"/>
	<circle fill="#60A37B" cx="-413.492" cy="-177.882" r="3.833"/>
	<circle fill="#60A37B" cx="-404.826" cy="-174.216" r="3.833"/>
	<circle fill="#60A37B" cx="-415.158" cy="-165.548" r="4.167"/>
	<circle fill="#60A37B" cx="-412.659" cy="-149.548" r="3.5"/>
	<circle fill="#60A37B" cx="-419.658" cy="-156.048" r="3.333"/>
	<circle fill="#60A37B" cx="-404.658" cy="-158.714" r="4.333"/>
	<circle fill="#60A37B" cx="-423.492" cy="-141.548" r="3.833"/>
	<circle fill="#60A37B" cx="-393.158" cy="-100.882" r="6.167"/>
	<circle fill="#60A37B" cx="-403.825" cy="-81.882" r="4.167"/>
	<circle fill="#60A37B" cx="-403.492" cy="-94.214" r="3.833"/>
	<circle fill="#60A37B" cx="-415.325" cy="-86.716" r="4.333"/>
	<circle fill="#60A37B" cx="-429.325" cy="-62.382" r="3"/>
	<circle fill="#60A37B" cx="-424.492" cy="-75.55" r="4.167"/>
	<circle fill="#60A37B" cx="-413.825" cy="-73.216" r="4.833"/>
	<circle fill="#60A37B" cx="-391.658" cy="-87.382" r="5.667"/>
	<circle fill="#60A37B" cx="-422.825" cy="-43.882" r="3.5"/>
	<circle fill="#60A37B" cx="-433.491" cy="-43.216" r="3.5"/>
	<circle fill="#60A37B" cx="-421.825" cy="-56.55" r="3.5"/>
	<circle fill="#60A37B" cx="-419.825" cy="-64.882" r="3.5"/>
	<circle fill="#60A37B" cx="-430.991" cy="-51.05" r="3"/>
	<circle fill="#60A37B" cx="-436.492" cy="-35.216" r="3.167"/>
	<path fill="#8BCEAB" d="M-130.343-414.06l-2.941,45.012c0,0,4.405,30,23.125,37c18.721,7,29.732,11,29.732,31s-12.113,36,6.607,41
		c18.72,5,15.416,15,0,15c-15.417,0-27.919-13.574-29.484-25.656c-2.161-16.688,9.188-22.576-8.646-32.883
		c-10.982-6.346-21.078-5.4-21.078-5.4l0.541,53.986c0,0,31.313,6.475,39.993,25.523c12.972,28.463-5.47,47.215-1.146,62.43
		c6.649,23.4,25.762,19.504,24.776,28c-1.102,9.5-40.785,0.957-42.946-28c-1.228-16.443,3.099-21.393,3.644-29.059
		c1.081-15.215-10.269-26.994-25.401-25.52l0.284,88.578c0,0-0.692,17.898,14.849,28.719c16.215,11.287,20.538,9.814,28.645,16.688
		c19.755,16.744,7.566,35.826,17.295,41.717c15.486,9.377,16.754,21.596,3.242,16.688c-24.34-8.844-23.98-16.334-27.021-33.375
		c-3.244-18.158-32.604-22.436-32.604-22.436h-4.405l3.381,70.988h-141.676l7.253-400H-130.343z"/>
	<path fill="#7DC6DD" d="M-128.879-85.048"/>
	<ellipse fill="#60A37B" cx="-108.141" cy="-325.882" rx="8.626" ry="7.834"/>
	<ellipse fill="#60A37B" cx="-109.243" cy="-304.882" rx="6.791" ry="6.166"/>
	<ellipse fill="#60A37B" cx="-89.788" cy="-308.216" rx="6.423" ry="5.834"/>
	<ellipse fill="#60A37B" cx="-99.148" cy="-291.048" rx="4.771" ry="4.332"/>
	<ellipse fill="#60A37B" cx="-85.2" cy="-297.048" rx="5.139" ry="4.666"/>
	<ellipse fill="#60A37B" cx="-88.136" cy="-283.716" rx="4.405" ry="4"/>
	<ellipse fill="#60A37B" cx="-100.8" cy="-276.882" rx="3.854" ry="3.5"/>
	<ellipse fill="#60A37B" cx="-88.687" cy="-270.882" rx="4.221" ry="3.834"/>
	<ellipse fill="#60A37B" cx="-96.212" cy="-261.048" rx="4.038" ry="3.666"/>
	<ellipse fill="#60A37B" cx="-81.896" cy="-259.382" rx="3.671" ry="3.332"/>
	<ellipse fill="#60A37B" cx="-86.117" cy="-250.548" rx="3.12" ry="2.834"/>
	<ellipse fill="#60A37B" cx="-70.884" cy="-252.048" rx="3.304" ry="3"/>
	<ellipse fill="#60A37B" cx="-128.88" cy="-246.382" rx="9.911" ry="9"/>
	<ellipse fill="#60A37B" cx="-116.4" cy="-223.716" rx="8.81" ry="8"/>
	<ellipse fill="#60A37B" cx="-105.572" cy="-237.216" rx="7.525" ry="6.834"/>
	<ellipse fill="#60A37B" cx="-93.825" cy="-225.548" rx="6.791" ry="6.166"/>
	<ellipse fill="#60A37B" cx="-90.339" cy="-209.048" rx="6.791" ry="6.168"/>
	<ellipse fill="#60A37B" cx="-106.306" cy="-208.214" rx="7.158" ry="6.5"/>
	<ellipse fill="#60A37B" cx="-94.193" cy="-193.216" rx="5.322" ry="4.834"/>
	<ellipse fill="#60A37B" cx="-107.223" cy="-188.714" rx="4.405" ry="4"/>
	<ellipse fill="#60A37B" cx="-98.965" cy="-177.882" rx="4.222" ry="3.834"/>
	<ellipse fill="#60A37B" cx="-108.508" cy="-174.216" rx="4.221" ry="3.834"/>
	<ellipse fill="#60A37B" cx="-97.13" cy="-165.548" rx="4.589" ry="4.168"/>
	<ellipse fill="#60A37B" cx="-99.882" cy="-149.548" rx="3.854" ry="3.5"/>
	<ellipse fill="#60A37B" cx="-92.174" cy="-156.048" rx="3.671" ry="3.334"/>
	<ellipse fill="#60A37B" cx="-108.691" cy="-158.714" rx="4.771" ry="4.332"/>
	<ellipse fill="#60A37B" cx="-87.953" cy="-141.548" rx="4.221" ry="3.834"/>
	<ellipse fill="#60A37B" cx="-121.354" cy="-100.882" rx="6.791" ry="6.168"/>
	<ellipse fill="#60A37B" cx="-109.61" cy="-81.882" rx="4.588" ry="4.166"/>
	<ellipse fill="#60A37B" cx="-109.977" cy="-94.214" rx="4.222" ry="3.832"/>
	<ellipse fill="#60A37B" cx="-96.945" cy="-86.716" rx="4.771" ry="4.334"/>
	<ellipse fill="#60A37B" cx="-81.529" cy="-62.382" rx="3.304" ry="3"/>
	<ellipse fill="#60A37B" cx="-86.852" cy="-75.55" rx="4.588" ry="4.168"/>
	<ellipse fill="#60A37B" cx="-98.598" cy="-73.216" rx="5.322" ry="4.834"/>
	<ellipse fill="#60A37B" cx="-123.008" cy="-87.382" rx="6.239" ry="5.666"/>
	<ellipse fill="#60A37B" cx="-88.687" cy="-43.882" rx="3.854" ry="3.5"/>
	<ellipse fill="#60A37B" cx="-76.94" cy="-43.216" rx="3.854" ry="3.5"/>
	<ellipse fill="#60A37B" cx="-89.788" cy="-56.55" rx="3.854" ry="3.5"/>
	<ellipse fill="#60A37B" cx="-91.991" cy="-64.882" rx="3.854" ry="3.5"/>
	<ellipse fill="#60A37B" cx="-79.693" cy="-51.05" rx="3.304" ry="3"/>
	<ellipse fill="#60A37B" cx="-73.637" cy="-35.216" rx="3.487" ry="3.166"/>
	<path fill="#72C596" d="M-156.993-219.036c0,99.408-43.169,179.988-96.417,179.988s-96.417-80.58-96.417-179.988
		c0-99.43,43.169-180.012,96.417-180.012S-156.993-318.466-156.993-219.036z"/>
	<path fill="#72C596" d="M-140.492-567.544c0,19.33-16.977,34.998-37.917,34.998c-20.939,0-37.916-15.668-37.916-34.998
		c0-19.336,16.977-35.004,37.916-35.004C-157.469-602.548-140.492-586.88-140.492-567.544z"/>
	<path fill="#72C596" d="M-296.492-564.544c0,19.33-16.977,34.998-37.917,34.998c-20.939,0-37.916-15.668-37.916-34.998
		c0-19.336,16.977-35.004,37.916-35.004C-313.469-599.548-296.492-583.88-296.492-564.544z"/>
	<g>
		<g>
			<path fill="#7DC6DD" d="M-339.216-702.554c0.65,0,2.082-0.986,0.781-0.986C-339.085-703.541-340.517-702.554-339.216-702.554
				L-339.216-702.554z"/>
		</g>
	</g>
	<g>
		<g>
			<path fill="none" stroke="#F2E4D2" stroke-miterlimit="10" d="M-172.325-702.047"/>
		</g>
	</g>
	<g>
		<g>
			<path fill="none" stroke="#F2E4D2" stroke-miterlimit="10" d="M-260.325-703.047"/>
		</g>
	</g>
	<path fill="#8BCEAB" d="M-129.85-8.495l2.023,127.449c-2.206,25.479,41-4,41,29c0,32.062-120,28-119,14c0.778-10.891-6-128-59-122
		c-32.804,3.715-43.046,125.094-45,129c-3,6-114,29-116-13c-1.813-38.074,45,1,43.169-35.008c0,0,2.881-125.732,3.77-129.441
		H-129.85z"/>
	<path fill="#D6C370" d="M-423.817,145.351c0,0-4.187,4.984-2.193,10.965c0,0-12.559-7.375-16.347,0.996
		C-442.756,145.749-433.984,144.354-423.817,145.351z"/>
	<path fill="#D6C370" d="M-423.017,157.31c0,0-1.199,5.385,4.98,8.975c0,0-12.755-4.189-16.543,4.182
		C-434.978,158.903-433.184,156.312-423.017,157.31z"/>
	<path fill="#D6C370" d="M-416.742,169.013l7.841,2.83c0,0-8.395,3.072-11.97,13.586
		C-423.778,178.437-422.87,172.634-416.742,169.013z"/>
	<path fill="#D6C370" d="M-91.069,135.351c0,0,4.069,4.984,2.131,10.965c0,0,13.207-8.375,16.89-0.004
		C-71.662,134.749-81.188,134.354-91.069,135.351z"/>
	<path fill="#D6C370" d="M-90.876,148.31c0,0,0.193,4.385-5.812,7.975c0,0,14.369-4.189,18.051,4.182
		C-78.25,148.903-80.994,147.312-90.876,148.31z"/>
	<path fill="#D6C370" d="M-97.946,159.013l-7.621,2.83c0,0,8.158,3.072,11.634,13.586C-91.108,168.437-91.99,162.634-97.946,159.013
		z"/>
	<path fill="#72C596" d="M-378.843-1.069c0,0,139.461,50.713-3.889,123.271L-378.843-1.069z"/>
	<path fill="#72C596" d="M-129.563-3.542c0,0-124.187,45.307,1.429,119.307L-129.563-3.542z"/>
	<path fill="#E06899" d="M75.175-420.489c-2.881-20-6-94.502-1.5-143.002c3.742-40.336,17.835-96.815,42.335-118.186
		c3.563-3.109-30.614-46.478-26.833-49.163c3.811-2.707,45.583,35.274,49.586,33.009c14.496-8.207,30.144-13.496,46.221-15.628
		c5.359-0.709,10.294-53.232,15.722-53.232c6.436,0,13.158,52.648,19.217,53.574c18.174,2.778,34.613,9.509,49.126,18.935
		c2.902,1.885,44.048-32.706,46.795-30.616c3.355,2.555-31.726,41.837-28.608,44.663c29.753,26.976,31.94,73.643,35.44,119.145
		c2.627,34.148,4.752,126.445,1.92,140.279L75.175-420.489z"/>
	<path fill="#E06899" d="M73.674-408.157v46c0,0-4,30-21,37s-27,11-27,31s11,36-6,41s-14,15,0,15s25.353-13.576,26.774-25.658
		c1.963-16.686-8.344-22.576,7.853-32.883c9.972-6.346,19.142-5.398,19.142-5.398l-0.492,53.984c0,0-28.436,6.475-36.318,25.523
		c-11.779,28.465,4.969,47.217,1.042,62.432c-6.038,23.4-23.395,19.502-22.5,28c1,9.5,37.038,0.955,39-28
		c1.114-16.443-2.813-21.393-3.309-29.061c-0.981-15.213,9.325-26.992,23.067-25.518l-0.259,88.578c0,0,0.63,17.896-13.484,28.717
		C45.466-86.151,41.54-87.624,34.177-80.753c-17.938,16.744-6.871,35.828-15.705,41.719C4.409-29.657,3.257-17.44,15.526-22.349
		c22.105-8.842,21.777-16.334,24.541-33.373c2.943-18.16,29.606-22.436,29.606-22.436h4l0.903,70.988h111.097l7-400L73.674-408.157z
		"/>
	<path fill="#7DC6DD" d="M69.674-78.157"/>
	<circle fill="#B63C79" cx="50.841" cy="-318.991" r="7.833"/>
	<circle fill="#B63C79" cx="51.841" cy="-297.991" r="6.167"/>
	<circle fill="#B63C79" cx="34.175" cy="-301.325" r="5.834"/>
	<circle fill="#B63C79" cx="42.674" cy="-284.159" r="4.333"/>
	<circle fill="#B63C79" cx="30.008" cy="-290.159" r="4.667"/>
	<circle fill="#B63C79" cx="32.675" cy="-276.825" r="4"/>
	<circle fill="#B63C79" cx="44.175" cy="-269.991" r="3.5"/>
	<circle fill="#B63C79" cx="33.175" cy="-263.991" r="3.834"/>
	<circle fill="#B63C79" cx="40.008" cy="-254.159" r="3.667"/>
	<circle fill="#B63C79" cx="27.008" cy="-252.493" r="3.333"/>
	<circle fill="#B63C79" cx="30.841" cy="-243.657" r="2.833"/>
	<circle fill="#B63C79" cx="17.008" cy="-245.159" r="3"/>
	<circle fill="#B63C79" cx="69.675" cy="-239.491" r="9"/>
	<circle fill="#B63C79" cx="58.341" cy="-216.825" r="8"/>
	<circle fill="#B63C79" cx="48.508" cy="-230.325" r="6.833"/>
	<circle fill="#B63C79" cx="37.842" cy="-218.659" r="6.167"/>
	<circle fill="#B63C79" cx="34.675" cy="-202.157" r="6.167"/>
	<circle fill="#B63C79" cx="49.175" cy="-201.325" r="6.5"/>
	<circle fill="#B63C79" cx="38.175" cy="-186.325" r="4.834"/>
	<circle fill="#B63C79" cx="50.008" cy="-181.825" r="4"/>
	<circle fill="#B63C79" cx="42.508" cy="-170.991" r="3.833"/>
	<circle fill="#B63C79" cx="51.174" cy="-167.325" r="3.833"/>
	<circle fill="#B63C79" cx="40.842" cy="-158.657" r="4.167"/>
	<circle fill="#B63C79" cx="43.341" cy="-142.657" r="3.5"/>
	<circle fill="#B63C79" cx="36.342" cy="-149.157" r="3.333"/>
	<circle fill="#B63C79" cx="51.342" cy="-151.825" r="4.333"/>
	<circle fill="#B63C79" cx="32.508" cy="-134.657" r="3.833"/>
	<circle fill="#B63C79" cx="62.842" cy="-93.991" r="6.167"/>
	<circle fill="#B63C79" cx="52.175" cy="-74.993" r="4.167"/>
	<circle fill="#B63C79" cx="52.508" cy="-87.325" r="3.833"/>
	<circle fill="#B63C79" cx="40.675" cy="-79.825" r="4.333"/>
	<circle fill="#B63C79" cx="26.675" cy="-55.493" r="3"/>
	<circle fill="#B63C79" cx="31.508" cy="-68.659" r="4.167"/>
	<circle fill="#B63C79" cx="42.175" cy="-66.325" r="4.833"/>
	<circle fill="#B63C79" cx="64.342" cy="-80.493" r="5.667"/>
	<circle fill="#B63C79" cx="33.175" cy="-36.993" r="3.5"/>
	<circle fill="#B63C79" cx="22.509" cy="-36.325" r="3.5"/>
	<circle fill="#B63C79" cx="34.175" cy="-49.659" r="3.5"/>
	<circle fill="#B63C79" cx="36.175" cy="-57.993" r="3.5"/>
	<circle fill="#B63C79" cx="25.009" cy="-44.159" r="3"/>
	<circle fill="#B63C79" cx="19.508" cy="-28.325" r="3.167"/>
	<path fill="#E06899" d="M325.657-407.169l-2.941,45.012c0,0,4.405,30,23.125,37c18.721,7,29.732,11,29.732,31s-12.113,36,6.607,41
		c18.72,5,15.416,15,0,15c-15.417,0-27.919-13.576-29.484-25.658c-2.161-16.686,9.188-22.576-8.646-32.883
		c-10.982-6.346-21.078-5.398-21.078-5.398l0.541,53.984c0,0,31.313,6.475,39.993,25.523c12.972,28.465-5.47,47.217-1.146,62.432
		c6.649,23.4,25.762,19.502,24.776,28c-1.102,9.5-40.785,0.955-42.946-28c-1.228-16.443,3.099-21.393,3.644-29.061
		c1.081-15.213-10.269-26.992-25.401-25.518l0.284,88.578c0,0-0.692,17.896,14.849,28.717c16.215,11.289,20.538,9.816,28.645,16.688
		c19.755,16.744,7.566,35.828,17.295,41.719c15.486,9.377,16.754,21.594,3.242,16.686c-24.34-8.842-23.98-16.334-27.021-33.373
		c-3.244-18.16-32.604-22.436-32.604-22.436h-4.405l3.381,70.988H184.421l7.253-400H325.657z"/>
	<path fill="#7DC6DD" d="M327.121-78.157"/>
	<ellipse fill="#B63C79" cx="347.859" cy="-318.991" rx="8.626" ry="7.832"/>
	<ellipse fill="#B63C79" cx="346.757" cy="-297.991" rx="6.791" ry="6.166"/>
	<ellipse fill="#B63C79" cx="366.212" cy="-301.325" rx="6.423" ry="5.834"/>
	<ellipse fill="#B63C79" cx="356.852" cy="-284.159" rx="4.771" ry="4.334"/>
	<ellipse fill="#B63C79" cx="370.8" cy="-290.159" rx="5.139" ry="4.668"/>
	<ellipse fill="#B63C79" cx="367.864" cy="-276.825" rx="4.405" ry="4"/>
	<ellipse fill="#B63C79" cx="355.2" cy="-269.991" rx="3.854" ry="3.5"/>
	<ellipse fill="#B63C79" cx="367.313" cy="-263.991" rx="4.221" ry="3.832"/>
	<ellipse fill="#B63C79" cx="359.788" cy="-254.159" rx="4.038" ry="3.668"/>
	<ellipse fill="#B63C79" cx="374.104" cy="-252.493" rx="3.671" ry="3.334"/>
	<ellipse fill="#B63C79" cx="369.883" cy="-243.657" rx="3.12" ry="2.832"/>
	<ellipse fill="#B63C79" cx="385.116" cy="-245.159" rx="3.304" ry="3"/>
	<ellipse fill="#B63C79" cx="327.12" cy="-239.491" rx="9.911" ry="9"/>
	<ellipse fill="#B63C79" cx="339.6" cy="-216.825" rx="8.81" ry="8"/>
	<ellipse fill="#B63C79" cx="350.428" cy="-230.325" rx="7.525" ry="6.834"/>
	<ellipse fill="#B63C79" cx="362.175" cy="-218.659" rx="6.791" ry="6.168"/>
	<ellipse fill="#B63C79" cx="365.661" cy="-202.157" rx="6.791" ry="6.166"/>
	<ellipse fill="#B63C79" cx="349.694" cy="-201.325" rx="7.158" ry="6.5"/>
	<ellipse fill="#B63C79" cx="361.807" cy="-186.325" rx="5.322" ry="4.834"/>
	<ellipse fill="#B63C79" cx="348.777" cy="-181.825" rx="4.405" ry="4"/>
	<ellipse fill="#B63C79" cx="357.035" cy="-170.991" rx="4.222" ry="3.832"/>
	<ellipse fill="#B63C79" cx="347.492" cy="-167.325" rx="4.221" ry="3.834"/>
	<ellipse fill="#B63C79" cx="358.87" cy="-158.657" rx="4.589" ry="4.166"/>
	<ellipse fill="#B63C79" cx="356.118" cy="-142.657" rx="3.854" ry="3.5"/>
	<ellipse fill="#B63C79" cx="363.826" cy="-149.157" rx="3.671" ry="3.334"/>
	<ellipse fill="#B63C79" cx="347.309" cy="-151.825" rx="4.771" ry="4.334"/>
	<ellipse fill="#B63C79" cx="368.047" cy="-134.657" rx="4.221" ry="3.834"/>
	<ellipse fill="#B63C79" cx="334.646" cy="-93.991" rx="6.791" ry="6.166"/>
	<ellipse fill="#B63C79" cx="346.39" cy="-74.993" rx="4.588" ry="4.166"/>
	<ellipse fill="#B63C79" cx="346.023" cy="-87.325" rx="4.222" ry="3.834"/>
	<ellipse fill="#B63C79" cx="359.055" cy="-79.825" rx="4.771" ry="4.334"/>
	<ellipse fill="#B63C79" cx="374.471" cy="-55.493" rx="3.304" ry="3"/>
	<ellipse fill="#B63C79" cx="369.148" cy="-68.659" rx="4.588" ry="4.166"/>
	<ellipse fill="#B63C79" cx="357.402" cy="-66.325" rx="5.322" ry="4.832"/>
	<ellipse fill="#B63C79" cx="332.992" cy="-80.493" rx="6.239" ry="5.666"/>
	<ellipse fill="#B63C79" cx="367.313" cy="-36.993" rx="3.854" ry="3.5"/>
	<ellipse fill="#B63C79" cx="379.06" cy="-36.325" rx="3.854" ry="3.5"/>
	<ellipse fill="#B63C79" cx="366.212" cy="-49.659" rx="3.854" ry="3.5"/>
	<ellipse fill="#B63C79" cx="364.009" cy="-57.993" rx="3.854" ry="3.5"/>
	<ellipse fill="#B63C79" cx="376.307" cy="-44.159" rx="3.304" ry="3"/>
	<ellipse fill="#B63C79" cx="382.363" cy="-28.325" rx="3.487" ry="3.166"/>
	<path fill="#D65490" d="M299.007-212.146c0,99.408-43.169,179.988-96.417,179.988s-96.417-80.58-96.417-179.988
		c0-99.43,43.169-180.012,96.417-180.012S299.007-311.575,299.007-212.146z"/>
	<path fill="#D65490" d="M317.841-565.487c0,19.33-16.977,34.998-37.917,34.998c-20.939,0-37.916-15.668-37.916-34.998
		c0-19.336,16.977-35.004,37.916-35.004C300.864-600.491,317.841-584.823,317.841-565.487z"/>
	<path fill="#D65490" d="M161.841-562.487c0,19.33-16.977,34.998-37.917,34.998c-20.939,0-37.916-15.668-37.916-34.998
		c0-19.336,16.977-35.004,37.916-35.004C144.864-597.491,161.841-581.823,161.841-562.487z"/>
	<g>
		<g>
			<path fill="#7DC6DD" d="M118.117-701.499c0.65,0,2.082-0.986,0.781-0.986C118.248-702.485,116.816-701.499,118.117-701.499
				L118.117-701.499z"/>
		</g>
	</g>
	<g>
		<g>
			<path fill="none" stroke="#F2E4D2" stroke-miterlimit="10" d="M286.008-699.992"/>
		</g>
	</g>
	<g>
		<g>
			<path fill="none" stroke="#F2E4D2" stroke-miterlimit="10" d="M197.008-701.992"/>
		</g>
	</g>
	<path fill="#E06899" d="M324.483,0.509l2.023,127.449c-2.206,25.479,41-4,41,29c0,32.062-120,28-119,14c0.778-10.891-6-128-59-122
		c-32.804,3.715-43.046,125.094-45,129c-3,6-114,29-116-13c-1.813-38.074,45,1,43.169-35.008c0,0,2.881-125.732,3.77-129.441
		H324.483z"/>
	<path fill="#D6C370" d="M30.516,154.354c0,0-4.187,4.984-2.193,10.965c0,0-12.559-7.375-16.347,0.996
		C11.577,154.753,20.349,153.358,30.516,154.354z"/>
	<path fill="#D6C370" d="M31.316,166.313c0,0-1.199,5.385,4.98,8.975c0,0-12.755-4.189-16.543,4.182
		C19.355,167.907,21.149,165.315,31.316,166.313z"/>
	<path fill="#D6C370" d="M37.591,178.017l7.841,2.83c0,0-8.395,3.072-11.97,13.586C30.555,187.44,31.463,181.638,37.591,178.017z"/>
	<path fill="#D6C370" d="M363.264,144.354c0,0,4.069,4.984,2.131,10.965c0,0,13.207-8.375,16.89-0.004
		C382.671,143.753,373.146,143.358,363.264,144.354z"/>
	<path fill="#D6C370" d="M363.457,157.313c0,0,0.193,4.385-5.812,7.975c0,0,14.369-4.189,18.051,4.182
		C376.083,157.907,373.339,156.315,363.457,157.313z"/>
	<path fill="#D6C370" d="M356.387,168.017l-7.621,2.83c0,0,8.158,3.072,11.634,13.586
		C363.225,177.44,362.343,171.638,356.387,168.017z"/>
	<path fill="#D65490" d="M75.49,7.935c0,0,139.461,50.713-3.889,123.271L75.49,7.935z"/>
	<path fill="#D65490" d="M324.77,5.462c0,0-124.187,45.307,1.429,119.307L324.77,5.462z"/>
	<path fill="#7DC6DD" d="M548.215-421.665c-14.841-6.579-23.789-26.916-27.844-53.051c-1.788-11.528,1.847-27.787-13.702,0.717
		c0-18,17.333-89.334,4.667-56.667c-4.14,10.678,21.333-72.667,1.333-39.333c6.911-29.377,31.298-68.685,44.998-80.001
		c15.334-12.667-5.881-12.347-0.666-12.667c32.666-2,6.103-10.462,10.666-12.667c10.205-4.931,18.469,3.03,21.334-0.667
		c5.342-6.894-3.038-7.777-0.667-8.667c10.667-4,12.333,1.333,17.333,3.333c0,0,78.829,6.85,115.667,1.333
		c13.587-2.034,27.333-13.333,23.333-3.333c-2.984,7.46,14.86-1.998,14,4.667C756-658,773.617-673.307,775.334-672
		c3.355,2.554-12.492,2.034,4,21.333c10.685,12.504,26.993,31.484,35.056,57.408c-7.459-5.424,5.215,15.9,9.275,33.497
		c-12.368-7.215,1.546,9.275,9.791,26.797c-36.072-20.613,5.669,18.036,1.547,51.018c-30.92-43.287,2.061,46.38-37.369,60.06
		L548.215-421.665z"/>
	<path fill="#52BFD1" d="M790.88-566.663c0,19.33-16.977,34.998-37.917,34.998c-20.939,0-37.916-15.668-37.916-34.998
		c0-19.334,16.977-35.002,37.916-35.002C773.903-601.665,790.88-585.997,790.88-566.663z"/>
	<path fill="#52BFD1" d="M634.88-563.663c0,19.33-16.977,34.998-37.917,34.998c-20.939,0-37.916-15.668-37.916-34.998
		c0-19.334,16.977-35.002,37.916-35.002C617.903-598.665,634.88-582.997,634.88-563.663z"/>
	<g>
		<g>
			<path fill="#7DC6DD" d="M592.156-701.674c0.65,0,2.082-0.986,0.781-0.986C592.287-702.66,590.855-701.674,592.156-701.674
				L592.156-701.674z"/>
		</g>
	</g>
	<g>
		<g>
			<path fill="none" stroke="#F2E4D2" stroke-miterlimit="10" d="M759.047-701.167"/>
		</g>
	</g>
	<g>
		<g>
			<path fill="none" stroke="#F2E4D2" stroke-miterlimit="10" d="M671.047-702.167"/>
		</g>
	</g>
	<path fill="#7DC6DD" d="M796.024-0.303l-9.409,174.67c25.552,21.466-2.013,37.357-2.013,37.357l-16.269,154.276
		c25.5,13.5,54.5,3.667,100-13.333c-23.25,14.25,1.334,19,1.334,19s-24.265,14.294,1.271,23.601
		c8.55,3.116-136.272,7.064-143.272-14.436c0,0,54.5-349.5-66.619-332.687c-76.971,10.685-54.881,333.187-54.881,333.187
		c-6.593,13.185-92.896,20.783-130.5,15.5c0,0,27.5-11-1.75-18.25c21.5-7.75,7.557-13.524-1.978-20.25
		c0,0,90.308,26.873,97.808,7.873l-6.792-150.537c-17.173-8.485-15.362-28.296,0.566-39.05
		c-2.68-88.741-16.966-175.128-16.536-176.922H796.024z"/>
	<g>
		<path fill="#7DC6DD" d="M548.002-406.667l-29.169,81.501c0,0-3.499,1.334-7.665,8.667c7.166-3.5,4.666,4.001,2.666,6.167
			s-15.021,13.084-16.619,19.779c11.453-8.28,9.911,2.613,5.453,6.054c-3.5,3.5-6.653,2.938-11.05,12.432
			c11.392-4.297,10.973-0.146,7.529,1.911c-4.747,2.835-5.341,3.898-6.479,7.823c11.181-7.685-1.332,14.001-1.332,14.001
			c-17.671,79.09-20.56,135.287-3.667,153.335c-14.824,10.15-21.368,28.406,8.453,35.778c17.5,1.5,14.692-14.629,5.026-24.963
			c-3.834-9.333,13.916,6.672,15.916,1.005s-12.396-20.487-12.396-20.487s-22.334-26.666,12.57-138.943
			c0,0,10.264-28.129,20.282-57.742c0,0-4.478,21.196-8.74,53.028c-0.855,6.389-13.153,37.169-9.446,30.991
			c8-13.334,6.085-2.729,5.684,1.357c-0.17,1.729-5.655,13.741-4.713,12.246c4.14-6.568,5.166-1.213,3.52,0.894
			c-2.89,3.696-9.015,21.556-7.299,18.723c7.738-12.777,8.188-2.879,5.933,0.462c-3.163,4.687-10.582,21.101-7.913,18.254
			c6.748-7.198,9.547,3.516,6.845,7.378c-9.958,14.234-10.776,25.878-8.431,22.894c10.611-13.498,10.493-2.161,8.335,1.698
			c-3.749,6.705-10.029,25.714-7.229,22.834c8.913-9.168,10.601,0.996,8.535,6.278c-1.063,2.72-4.433,16.26-3.44,14.605
			c3.819-6.367,6.741-1.925,4.863,0.593c-6.392,8.571-6.924,28.682-5.458,25.55c6.197-13.243,8.491-4.124,9.554,1.262
			c0.858,4.351-13.12,14.612-6.498,23.865c7.215-17.402,17.675,0.855,13.827,4.472c-3.642,3.422-3.787,19.461-2.453,16.834
			c8.234-16.214,12.568,7.439,13.674,9.465h122.667l-6.001-400H548.002z"/>
		<path fill="#7DC6DD" d="M796.813-406.667l29.169,81.501c0,0,3.499,1.334,7.665,8.667c-7.166-3.5-4.666,4.001-2.666,6.167
			s15.021,13.084,16.619,19.779c-11.453-8.28-9.911,2.613-5.453,6.054c3.5,3.5,6.653,2.938,11.05,12.432
			c-11.392-4.297-10.973-0.146-7.529,1.911c4.747,2.835,5.341,3.898,6.479,7.823c-11.181-7.685,1.332,14.001,1.332,14.001
			c17.671,79.09,20.56,135.287,3.667,153.335c14.824,10.15,21.368,28.406-8.453,35.778c-17.5,1.5-14.692-14.629-5.026-24.963
			c3.834-9.333-13.916,6.672-15.916,1.005s12.396-20.487,12.396-20.487s22.334-26.666-12.57-138.943
			c0,0-10.264-28.129-20.282-57.742c0,0,4.478,21.196,8.74,53.028c0.855,6.389,13.153,37.169,9.446,30.991
			c-8-13.334-6.085-2.729-5.684,1.357c0.17,1.729,5.655,13.741,4.713,12.246c-4.14-6.568-5.166-1.213-3.52,0.894
			c2.89,3.696,9.015,21.556,7.299,18.723c-7.738-12.777-8.188-2.879-5.933,0.462c3.163,4.687,10.582,21.101,7.913,18.254
			c-6.748-7.198-9.547,3.516-6.845,7.378c9.958,14.234,10.776,25.878,8.431,22.894c-10.611-13.498-10.493-2.161-8.335,1.698
			c3.749,6.705,10.029,25.714,7.229,22.834c-8.913-9.168-10.601,0.996-8.535,6.278c1.063,2.72,4.433,16.26,3.44,14.605
			c-3.819-6.367-6.741-1.925-4.863,0.593c6.392,8.571,6.924,28.682,5.458,25.55c-6.197-13.243-8.491-4.124-9.554,1.262
			c-0.858,4.351,13.12,14.612,6.498,23.865c-7.215-17.402-17.675,0.855-13.827,4.472c3.642,3.422,3.787,19.461,2.453,16.834
			c-8.234-16.214-12.568,7.439-13.674,9.465h-135.48l-2.667-400H796.813z"/>
	</g>
	<path fill="#D6C370" d="M478.985-69.515c0,0,4.053,5.093,10.311,4.325c0,0-9.722,10.845-2.268,16.22
		C475.616-50.874,475.989-59.748,478.985-69.515z"/>
	<path fill="#D6C370" d="M490.63-63.387c0,0,6.111,4.142,8.594,0.13c0,0-2.655,9.055,6.141,11.716
		C493.952-49.635,490.971-53.176,490.63-63.387z"/>
	<path fill="#D6C370" d="M502.338-66.797l3.968-7.332c0,0,1.787,8.758,11.651,13.861C510.61-58.437,505.007-60.198,502.338-66.797z"
		/>
	<path fill="#D6C370" d="M866.859-72.394c0,0-4.046,5.002-10.296,4.329c0,0,9.717,10.439,2.275,15.757
		C870.235-54.295,869.857-62.925,866.859-72.394z"/>
	<path fill="#D6C370" d="M855.855-63.364c0,0-4.106,1.216-9.894-0.268c0,0,6.983,7.496,2.014,15.173
		C857.847-54.491,858.109-56.725,855.855-63.364z"/>
	<path fill="#D6C370" d="M843.405-63.117l-5.555-5.936c0,0,0.318,8.712-8.037,15.979C837.354-53.169,842.365-56.225,843.405-63.117z
		"/>
	<path fill="#7DC6DD" d="M482.667,411.583"/>
</g>
<g id="face_layer" display="none">
	<g display="inline">
		<path fill="#FFFFFF" d="M-653.273-646.626c13.137,9.59,16.013,28.012,6.423,41.151c-9.589,13.137-28.013,16.012-41.149,6.422
			c-8.977-6.553-13.162-17.229-11.854-27.526l41.434-23.063C-656.641-648.829-654.916-647.825-653.273-646.626z"/>
		<path d="M-668.993-641.594c4.958,3.62,6.045,10.573,2.425,15.532s-10.575,6.045-15.533,2.426
			c-3.389-2.475-4.969-6.504-4.475-10.391l15.641-8.706C-670.264-642.425-669.613-642.047-668.993-641.594z"/>
	</g>
	<g display="inline">
		<path fill="#FFFFFF" d="M-730.076-593.265c-19.008,13.562-45.411,9.148-58.974-9.859c-13.562-19.008-9.148-45.412,9.858-58.974
			l66.791,36.417C-713-613.192-719.109-601.091-730.076-593.265z"/>
		<path d="M-748.218-643.33c-4.997,3.565-6.291,10.32-2.89,15.086c3.401,4.768,10.209,5.74,15.206,2.176
			c3.415-2.438,5.101-6.363,4.741-10.126l-15.109-8.262C-746.939-644.15-747.593-643.775-748.218-643.33z"/>
	</g>
	<path display="inline" d="M-754.334-565.665c14.174-8.723,4.333,21.334,44.333,15.334s25.667-13.334,41.667-17.334
		s22.797,50.809,16,74c-5.667,19.334-26.189-4.748-27-5.334c-12-8.666-50-8.666-68,6.334s-22,10-23,0
		S-767.334-557.665-754.334-565.665z"/>
	<path display="inline" fill="#FDFDFE" d="M-742-559.665c0,0,1.512,34.414,2.863,32.252c1.588-2.541,12.803-13.127,12.803-13.127
		c5.94,3.279,9.289,16.031,9.68,16.08c0.883,0.107,8.861-15.977,13.32-18.539c0.784-0.449,18.56,12.492,20.062,13.834
		c1.706,1.521,0.904-23.66,1.042-28.893C-693.181-555.216-728.221-539.606-742-559.665z"/>
	<path display="inline" fill="#FDFDFE" d="M-747.209-492.806c0,0,3.743-20.414,3.973-23.883c0.16-2.416,12.961,13.434,14.008,10.816
		c1.883-4.707,5.061-8.943,5.061-8.943c1.588,2.043,9.415,7.414,9.415,7.414c5.94-2.633,11.378-8.67,11.769-8.709
		c0.883-0.086,6.25,7.594,10.709,9.65c0.784,0.361,14.028-8.621,15.064-10.004c1.059-1.412-0.021,15.336,0.117,19.537
		C-694.864-510.46-730.543-505.056-747.209-492.806z"/>
	<path display="inline" d="M-291.024-560.696l71.849,1.467c0,0-12.613,48.428-37.971,48.428
		C-282.505-510.802-291.024-560.696-291.024-560.696z"/>
	<path display="inline" fill="#FDFDFE" d="M-275.913-560.325c0,0,2.937,19.846,4.177,21.133l9.35-20.863l16.197,0.334
		c0.549-0.182,6.787,18.557,6.787,18.557c0.454,0.074,5.187-16.428,5.282-18.518C-234.949-559.476-275.913-560.325-275.913-560.325z
		"/>
	<circle display="inline" fill="#FFFFFF" cx="-294.182" cy="-617.212" r="43.25"/>
	<circle display="inline" cx="-311.182" cy="-623.212" r="12.25"/>
	<circle display="inline" fill="#FFFFFF" cx="-215.932" cy="-612.962" r="28.5"/>
	<circle display="inline" cx="-223.932" cy="-617.462" r="11.25"/>
	<path display="inline" d="M239.054-552.832l-71.798-2.698c0,0,12.762-3.942,38.103-3.037
		C230.701-557.662,239.054-552.832,239.054-552.832z"/>
	<path display="inline" fill="#FDFDFE" d="M182.542-558.042c0,0,2.814,19.619,4.055,20.906l9.18-21.578
		C195.776-558.714,187.776-558.636,182.542-558.042z"/>
	<path display="inline" fill="#FFFFFF" d="M207.267-615.504c0.224,23.887-18.957,43.43-42.844,43.652
		c-23.887,0.224-43.43-18.959-43.652-42.847c-0.06-6.469,1.302-12.618,3.798-18.151l77.374-3.063
		C205.275-629.853,207.198-622.904,207.267-615.504z"/>
	<path display="inline" d="M175.797-608.608c0.374,6.758-4.796,12.538-11.551,12.914c-6.755,0.375-12.537-4.796-12.913-11.553
		c-0.375-6.753,4.796-12.534,11.551-12.91C169.64-620.533,175.42-615.361,175.797-608.608z"/>
	<path display="inline" fill="#FFFFFF" d="M267.642-602.547c-1.824,15.636-15.978,26.83-31.61,25.006
		c-15.635-1.825-26.829-15.979-25.004-31.613c0.506-4.335,1.958-8.326,4.126-11.794l51.118,5.763
		C267.637-611.253,268.157-606.959,267.642-602.547z"/>
	<circle display="inline" cx="238.702" cy="-601.659" r="11.25"/>
	<path display="inline" fill="#FDFDFE" d="M222.167-557.167c0,0-3.533,19.245-4.818,20.489l-8.43-21.881
		C208.919-558.559,216.957-557.94,222.167-557.167z"/>
	<g display="inline">
		<path fill="#FFFFFF" d="M736.607-647.626c13.137,9.59,16.013,28.012,6.423,41.15c-9.589,13.137-28.013,16.012-41.149,6.422
			c-8.977-6.553-13.162-17.229-11.854-27.525l41.434-23.063C733.24-649.829,734.965-648.825,736.607-647.626z"/>
		<path d="M720.888-642.595c4.958,3.621,6.045,10.574,2.425,15.533s-10.575,6.045-15.533,2.426
			c-3.389-2.475-4.969-6.504-4.475-10.391l15.641-8.707C719.617-643.425,720.268-643.047,720.888-642.595z"/>
	</g>
	<g display="inline">
		<path fill="#FFFFFF" d="M659.805-594.265c-19.008,13.562-45.411,9.148-58.974-9.859s-9.148-45.412,9.858-58.975l66.791,36.418
			C676.881-614.192,670.771-602.091,659.805-594.265z"/>
		<path d="M641.663-644.329c-4.997,3.564-6.291,10.32-2.89,15.086c3.401,4.768,10.209,5.74,15.206,2.176
			c3.415-2.438,5.101-6.363,4.741-10.127l-15.109-8.262C642.941-645.15,642.288-644.775,641.663-644.329z"/>
	</g>
	<path display="inline" d="M635.547-566.665c14.174-8.723,4.333,21.334,44.333,15.334s25.667-13.334,41.667-17.334
		s22.797,50.809,16,74c-5.667,19.334-26.189-4.748-27-5.334c-12-8.666-50-8.666-68,6.334s-22,10-23,0
		S622.547-558.665,635.547-566.665z"/>
	<path display="inline" fill="#FDFDFE" d="M647.881-560.665c0,0,1.512,34.414,2.863,32.252c1.588-2.541,12.803-13.127,12.803-13.127
		c5.94,3.279,9.289,16.031,9.68,16.08c0.883,0.107,8.861-15.977,13.32-18.539c0.784-0.449,18.56,12.492,20.062,13.834
		c1.706,1.521,0.904-23.66,1.042-28.893C696.7-556.216,661.66-540.606,647.881-560.665z"/>
	<path display="inline" fill="#FDFDFE" d="M642.672-493.806c0,0,3.743-20.414,3.973-23.883c0.16-2.416,12.961,13.434,14.008,10.816
		c1.883-4.707,5.061-8.943,5.061-8.943c1.588,2.043,9.415,7.414,9.415,7.414c5.94-2.633,11.378-8.67,11.769-8.709
		c0.883-0.086,6.25,7.594,10.709,9.65c0.784,0.361,14.028-8.621,15.064-10.004c1.059-1.412-0.021,15.336,0.117,19.537
		C695.017-511.46,659.338-506.056,642.672-493.806z"/>
</g>
<g id="Layer_4" display="none">
	<g display="inline">
		<g opacity="0.7">
			<g>
				<path fill="#74AFD1" d="M-791.925-693.503c1.935,0,1.935-3,0-3S-793.86-693.503-791.925-693.503L-791.925-693.503z"/>
			</g>
		</g>
		<g opacity="0.7">
			<g>
				<path fill="#74AFD1" d="M-803.075-698.885c1.935,0,1.935-3,0-3S-805.009-698.885-803.075-698.885L-803.075-698.885z"/>
			</g>
		</g>
		<g opacity="0.7">
			<g>
				<path fill="#74AFD1" d="M-799.71-704.268c1.935,0,1.935-3,0-3S-801.645-704.268-799.71-704.268L-799.71-704.268z"/>
			</g>
		</g>
		<g opacity="0.7">
			<g>
				<path fill="#74AFD1" d="M-801.537-689.562c1.935,0,1.935-3,0-3S-803.471-689.562-801.537-689.562L-801.537-689.562z"/>
			</g>
		</g>
		<g opacity="0.7">
			<g>
				<path fill="#74AFD1" d="M-822.009-722.241c1.935,0,1.935-3,0-3S-823.944-722.241-822.009-722.241L-822.009-722.241z"/>
			</g>
		</g>
		<g opacity="0.7">
			<g>
				<path fill="#74AFD1" d="M-814.705-717.531c1.935,0,1.935-3,0-3S-816.639-717.531-814.705-717.531L-814.705-717.531z"/>
			</g>
		</g>
		<g opacity="0.7">
			<g>
				<path fill="#74AFD1" d="M-811.917-711.476c1.935,0,1.935-3,0-3S-813.852-711.476-811.917-711.476L-811.917-711.476z"/>
			</g>
		</g>
		<g opacity="0.7">
			<g>
				<path fill="#74AFD1" d="M-813.839-705.517c1.935,0,1.935-3,0-3S-815.774-705.517-813.839-705.517L-813.839-705.517z"/>
			</g>
		</g>
		<g opacity="0.7">
			<g>
				<path fill="#74AFD1" d="M-804.516-709.073c1.935,0,1.935-3,0-3S-806.451-709.073-804.516-709.073L-804.516-709.073z"/>
			</g>
		</g>
		<g opacity="0.7">
			<g>
				<path fill="#74AFD1" d="M-818.453-713.975c1.935,0,1.935-3,0-3S-820.388-713.975-818.453-713.975L-818.453-713.975z"/>
			</g>
		</g>
		<g opacity="0.7">
			<g>
				<path fill="#74AFD1" d="M-821.433-718.3c1.935,0,1.935-3,0-3S-823.367-718.3-821.433-718.3L-821.433-718.3z"/>
			</g>
		</g>
		<g opacity="0.7">
			<g>
				<path fill="#74AFD1" d="M-789.234-697.443c1.935,0,1.935-3,0-3S-791.169-697.443-789.234-697.443L-789.234-697.443z"/>
			</g>
		</g>
		<g opacity="0.7">
			<g>
				<path fill="#74AFD1" d="M-796.347-701.192c1.935,0,1.935-3,0-3S-798.281-701.192-796.347-701.192L-796.347-701.192z"/>
			</g>
		</g>
		<g opacity="0.7">
			<g>
				<path fill="#74AFD1" d="M-797.98-696.194c1.935,0,1.935-3,0-3S-799.915-696.194-797.98-696.194L-797.98-696.194z"/>
			</g>
		</g>
		<g opacity="0.7">
			<g>
				<path fill="#74AFD1" d="M-807.977-704.075c1.935,0,1.935-3,0-3S-809.911-704.075-807.977-704.075L-807.977-704.075z"/>
			</g>
		</g>
		<g opacity="0.7">
			<g>
				<path fill="#74AFD1" d="M-808.649-699.077c1.935,0,1.935-3,0-3S-810.584-699.077-808.649-699.077L-808.649-699.077z"/>
			</g>
		</g>
		<g opacity="0.7">
			<g>
				<path fill="#74AFD1" d="M-819.222-719.357c1.935,0,1.935-3,0-3S-821.156-719.357-819.222-719.357L-819.222-719.357z"/>
			</g>
		</g>
		<g opacity="0.7">
			<g>
				<path fill="#74AFD1" d="M-824.316-724.067c1.935,0,1.935-3,0-3S-826.25-724.067-824.316-724.067L-824.316-724.067z"/>
			</g>
		</g>
		<g opacity="0.7">
			<g>
				<path fill="#74AFD1" d="M-822.874-719.934c1.935,0,1.935-3,0-3S-824.809-719.934-822.874-719.934L-822.874-719.934z"/>
			</g>
		</g>
		<g opacity="0.7">
			<g>
				<path fill="#74AFD1" d="M-816.819-719.454c1.935,0,1.935-3,0-3S-818.753-719.454-816.819-719.454L-816.819-719.454z"/>
			</g>
		</g>
		<g opacity="0.7">
			<g>
				<path fill="#74AFD1" d="M-818.837-716.474c1.935,0,1.935-3,0-3S-820.772-716.474-818.837-716.474L-818.837-716.474z"/>
			</g>
		</g>
		<g opacity="0.7">
			<g>
				<path fill="#74AFD1" d="M-816.435-715.801c1.935,0,1.935-3,0-3S-818.369-715.801-816.435-715.801L-816.435-715.801z"/>
			</g>
		</g>
		<g opacity="0.7">
			<g>
				<path fill="#74AFD1" d="M-812.59-716.089c1.935,0,1.935-3,0-3S-814.524-716.089-812.59-716.089L-812.59-716.089z"/>
			</g>
		</g>
		<g opacity="0.7">
			<g>
				<path fill="#74AFD1" d="M-817.204-711.86c1.935,0,1.935-3,0-3S-819.138-711.86-817.204-711.86L-817.204-711.86z"/>
			</g>
		</g>
		<g opacity="0.7">
			<g>
				<path fill="#74AFD1" d="M-814.32-715.417c1.935,0,1.935-3,0-3S-816.254-715.417-814.32-715.417L-814.32-715.417z"/>
			</g>
		</g>
		<g opacity="0.7">
			<g>
				<path fill="#74AFD1" d="M-810.187-713.975c1.935,0,1.935-3,0-3S-812.122-713.975-810.187-713.975L-810.187-713.975z"/>
			</g>
		</g>
		<g opacity="0.7">
			<g>
				<path fill="#74AFD1" d="M-814.512-712.822c1.935,0,1.935-3,0-3S-816.447-712.822-814.512-712.822L-814.512-712.822z"/>
			</g>
		</g>
		<g opacity="0.7">
			<g>
				<path fill="#74AFD1" d="M-814.32-709.554c1.935,0,1.935-3,0-3S-816.254-709.554-814.32-709.554L-814.32-709.554z"/>
			</g>
		</g>
		<g opacity="0.7">
			<g>
				<path fill="#74AFD1" d="M-811.629-708.4c1.935,0,1.935-3,0-3S-813.563-708.4-811.629-708.4L-811.629-708.4z"/>
			</g>
		</g>
		<g opacity="0.7">
			<g>
				<path fill="#74AFD1" d="M-808.553-710.13c1.935,0,1.935-3,0-3S-810.488-710.13-808.553-710.13L-808.553-710.13z"/>
			</g>
		</g>
		<g opacity="0.7">
			<g>
				<path fill="#74AFD1" d="M-806.535-707.247c1.935,0,1.935-3,0-3S-808.469-707.247-806.535-707.247L-806.535-707.247z"/>
			</g>
		</g>
		<g opacity="0.7">
			<g>
				<path fill="#74AFD1" d="M-811.34-702.922c1.935,0,1.935-3,0-3S-813.275-702.922-811.34-702.922L-811.34-702.922z"/>
			</g>
		</g>
		<g opacity="0.7">
			<g>
				<path fill="#74AFD1" d="M-810.86-706.286c1.935,0,1.935-3,0-3S-812.794-706.286-810.86-706.286L-810.86-706.286z"/>
			</g>
		</g>
		<g opacity="0.7">
			<g>
				<path fill="#74AFD1" d="M-802.306-707.343c1.935,0,1.935-3,0-3S-804.24-707.343-802.306-707.343L-802.306-707.343z"/>
			</g>
		</g>
		<g opacity="0.7">
			<g>
				<path fill="#74AFD1" d="M-804.516-702.922c1.935,0,1.935-3,0-3S-806.451-702.922-804.516-702.922L-804.516-702.922z"/>
			</g>
		</g>
		<g opacity="0.7">
			<g>
				<path fill="#74AFD1" d="M-806.631-697.251c1.935,0,1.935-3,0-3S-808.565-697.251-806.631-697.251L-806.631-697.251z"/>
			</g>
		</g>
		<g opacity="0.7">
			<g>
				<path fill="#74AFD1" d="M-804.805-692.734c1.935,0,1.935-3,0-3S-806.739-692.734-804.805-692.734L-804.805-692.734z"/>
			</g>
		</g>
		<g opacity="0.7">
			<g>
				<path fill="#74AFD1" d="M-801.537-694.848c1.935,0,1.935-3,0-3S-803.471-694.848-801.537-694.848L-801.537-694.848z"/>
			</g>
		</g>
		<g opacity="0.7">
			<g>
				<path fill="#74AFD1" d="M-799.519-683.699c1.935,0,1.935-3,0-3S-801.453-683.699-799.519-683.699L-799.519-683.699z"/>
			</g>
		</g>
		<g opacity="0.7">
			<g>
				<path fill="#74AFD1" d="M-795.193-691.1c1.935,0,1.935-3,0-3S-797.128-691.1-795.193-691.1L-795.193-691.1z"/>
			</g>
		</g>
		<g opacity="0.7">
			<g>
				<path fill="#74AFD1" d="M-792.791-686.102c1.935,0,1.935-3,0-3S-794.725-686.102-792.791-686.102L-792.791-686.102z"/>
			</g>
		</g>
		<g opacity="0.7">
			<g>
				<path fill="#74AFD1" d="M-786.832-691.292c1.935,0,1.935-3,0-3S-788.766-691.292-786.832-691.292L-786.832-691.292z"/>
			</g>
		</g>
		<g opacity="0.7">
			<g>
				<path fill="#74AFD1" d="M-784.813-693.695c1.935,0,1.935-3,0-3S-786.748-693.695-784.813-693.695L-784.813-693.695z"/>
			</g>
		</g>
		<g opacity="0.7">
			<g>
				<path fill="#74AFD1" d="M-793.271-698.02c1.935,0,1.935-3,0-3S-795.206-698.02-793.271-698.02L-793.271-698.02z"/>
			</g>
		</g>
		<g opacity="0.7">
			<g>
				<path fill="#74AFD1" d="M-781.064-691.1c1.935,0,1.935-3,0-3S-782.999-691.1-781.064-691.1L-781.064-691.1z"/>
			</g>
		</g>
		<g opacity="0.7">
			<g>
				<path fill="#74AFD1" d="M-775.105-691.965c1.935,0,1.935-3,0-3S-777.04-691.965-775.105-691.965L-775.105-691.965z"/>
			</g>
		</g>
		<g opacity="0.7">
			<g>
				<path fill="#74AFD1" d="M-786.735-686.583c1.935,0,1.935-3,0-3S-788.67-686.583-786.735-686.583L-786.735-686.583z"/>
			</g>
		</g>
		<g opacity="0.7">
			<g>
				<path fill="#74AFD1" d="M-780.392-684.564c1.935,0,1.935-3,0-3S-782.326-684.564-780.392-684.564L-780.392-684.564z"/>
			</g>
		</g>
		<g opacity="0.7">
			<g>
				<path fill="#74AFD1" d="M-796.25-681.584c1.935,0,1.935-3,0-3S-798.185-681.584-796.25-681.584L-796.25-681.584z"/>
			</g>
		</g>
		<g opacity="0.7">
			<g>
				<path fill="#74AFD1" d="M-797.308-674.665c1.935,0,1.935-3,0-3S-799.242-674.665-797.308-674.665L-797.308-674.665z"/>
			</g>
		</g>
		<g opacity="0.7">
			<g>
				<path fill="#74AFD1" d="M-789.522-680.527c1.935,0,1.935-3,0-3S-791.457-680.527-789.522-680.527L-789.522-680.527z"/>
			</g>
		</g>
		<g opacity="0.7">
			<g>
				<path fill="#74AFD1" d="M-792.791-675.914c1.935,0,1.935-3,0-3S-794.725-675.914-792.791-675.914L-792.791-675.914z"/>
			</g>
		</g>
		<g opacity="0.7">
			<g>
				<path fill="#74AFD1" d="M-782.122-678.125c1.935,0,1.935-3,0-3S-784.056-678.125-782.122-678.125L-782.122-678.125z"/>
			</g>
		</g>
	</g>
	<g display="inline">
		<g opacity="0.7">
			<g>
				<path fill="#74AFD1" d="M-710.781-713.822c1.935,0,1.935-3,0-3S-712.716-713.822-710.781-713.822L-710.781-713.822z"/>
			</g>
		</g>
		<g opacity="0.7">
			<g>
				<path fill="#74AFD1" d="M-715.616-725.221c1.935,0,1.935-3,0-3C-717.55-728.221-717.55-725.221-715.616-725.221
					L-715.616-725.221z"/>
			</g>
		</g>
		<g opacity="0.7">
			<g>
				<path fill="#74AFD1" d="M-709.537-727.049c1.935,0,1.935-3,0-3S-711.472-727.049-709.537-727.049L-709.537-727.049z"/>
			</g>
		</g>
		<g opacity="0.7">
			<g>
				<path fill="#74AFD1" d="M-720.606-717.195c1.935,0,1.935-3,0-3S-722.541-717.195-720.606-717.195L-720.606-717.195z"/>
			</g>
		</g>
		<g opacity="0.7">
			<g>
				<path fill="#74AFD1" d="M-714.453-755.264c1.935,0,1.935-3,0-3S-716.388-755.264-714.453-755.264L-714.453-755.264z"/>
			</g>
		</g>
		<g opacity="0.7">
			<g>
				<path fill="#74AFD1" d="M-712.066-746.907c1.935,0,1.935-3,0-3S-714.001-746.907-712.066-746.907L-712.066-746.907z"/>
			</g>
		</g>
		<g opacity="0.7">
			<g>
				<path fill="#74AFD1" d="M-713.963-740.516c1.935,0,1.935-3,0-3S-715.897-740.516-713.963-740.516L-713.963-740.516z"/>
			</g>
		</g>
		<g opacity="0.7">
			<g>
				<path fill="#74AFD1" d="M-719.337-737.303c1.935,0,1.935-3,0-3S-721.271-737.303-719.337-737.303L-719.337-737.303z"/>
			</g>
		</g>
		<g opacity="0.7">
			<g>
				<path fill="#74AFD1" d="M-709.983-733.831c1.935,0,1.935-3,0-3S-711.918-733.831-709.983-733.831L-709.983-733.831z"/>
			</g>
		</g>
		<g opacity="0.7">
			<g>
				<path fill="#74AFD1" d="M-717.229-746.705c1.935,0,1.935-3,0-3C-719.164-749.705-719.164-746.705-717.229-746.705
					L-717.229-746.705z"/>
			</g>
		</g>
		<g opacity="0.7">
			<g>
				<path fill="#74AFD1" d="M-716.618-751.921c1.935,0,1.935-3,0-3S-718.553-751.921-716.618-751.921L-716.618-751.921z"/>
			</g>
		</g>
		<g opacity="0.7">
			<g>
				<path fill="#74AFD1" d="M-706.16-715.011c1.935,0,1.935-3,0-3S-708.095-715.011-706.16-715.011L-706.16-715.011z"/>
			</g>
		</g>
		<g opacity="0.7">
			<g>
				<path fill="#74AFD1" d="M-709.035-722.519c1.935,0,1.935-3,0-3S-710.97-722.519-709.035-722.519L-709.035-722.519z"/>
			</g>
		</g>
		<g opacity="0.7">
			<g>
				<path fill="#74AFD1" d="M-713.56-719.838c1.935,0,1.935-3,0-3S-715.494-719.838-713.56-719.838L-713.56-719.838z"/>
			</g>
		</g>
		<g opacity="0.7">
			<g>
				<path fill="#74AFD1" d="M-715.88-732.354c1.935,0,1.935-3,0-3S-717.814-732.354-715.88-732.354L-715.88-732.354z"/>
			</g>
		</g>
		<g opacity="0.7">
			<g>
				<path fill="#74AFD1" d="M-719.681-729.04c1.935,0,1.935-3,0-3S-721.615-729.04-719.681-729.04L-719.681-729.04z"/>
			</g>
		</g>
		<g opacity="0.7">
			<g>
				<path fill="#74AFD1" d="M-714.259-751.259c1.935,0,1.935-3,0-3S-716.193-751.259-714.259-751.259L-714.259-751.259z"/>
			</g>
		</g>
		<g opacity="0.7">
			<g>
				<path fill="#74AFD1" d="M-714.983-758.158c1.935,0,1.935-3,0-3S-716.918-758.158-714.983-758.158L-714.983-758.158z"/>
			</g>
		</g>
		<g opacity="0.7">
			<g>
				<path fill="#74AFD1" d="M-716.625-754.101c1.935,0,1.935-3,0-3C-718.559-757.101-718.559-754.101-716.625-754.101
					L-716.625-754.101z"/>
			</g>
		</g>
		<g opacity="0.7">
			<g>
				<path fill="#74AFD1" d="M-712.389-749.747c1.935,0,1.935-3,0-3S-714.323-749.747-712.389-749.747L-712.389-749.747z"/>
			</g>
		</g>
		<g opacity="0.7">
			<g>
				<path fill="#74AFD1" d="M-715.871-748.836c1.935,0,1.935-3,0-3C-717.805-751.836-717.805-748.836-715.871-748.836
					L-715.871-748.836z"/>
			</g>
		</g>
		<g opacity="0.7">
			<g>
				<path fill="#74AFD1" d="M-714.508-746.748c1.935,0,1.935-3,0-3S-716.442-746.748-714.508-746.748L-714.508-746.748z"/>
			</g>
		</g>
		<g opacity="0.7">
			<g>
				<path fill="#74AFD1" d="M-711.428-744.428c1.935,0,1.935-3,0-3S-713.362-744.428-711.428-744.428L-711.428-744.428z"/>
			</g>
		</g>
		<g opacity="0.7">
			<g>
				<path fill="#74AFD1" d="M-717.685-744.292c1.935,0,1.935-3,0-3S-719.619-744.292-717.685-744.292L-717.685-744.292z"/>
			</g>
		</g>
		<g opacity="0.7">
			<g>
				<path fill="#74AFD1" d="M-713.171-745.063c1.935,0,1.935-3,0-3S-715.105-745.063-713.171-745.063L-713.171-745.063z"/>
			</g>
		</g>
		<g opacity="0.7">
			<g>
				<path fill="#74AFD1" d="M-711.014-741.255c1.935,0,1.935-3,0-3S-712.948-741.255-711.014-741.255L-711.014-741.255z"/>
			</g>
		</g>
		<g opacity="0.7">
			<g>
				<path fill="#74AFD1" d="M-715.028-743.239c1.935,0,1.935-3,0-3S-716.963-743.239-715.028-743.239L-715.028-743.239z"/>
			</g>
		</g>
		<g opacity="0.7">
			<g>
				<path fill="#74AFD1" d="M-717.037-740.655c1.935,0,1.935-3,0-3C-718.971-743.655-718.971-740.655-717.037-740.655
					L-717.037-740.655z"/>
			</g>
		</g>
		<g opacity="0.7">
			<g>
				<path fill="#74AFD1" d="M-715.774-738.014c1.935,0,1.935-3,0-3C-717.708-741.014-717.708-738.014-715.774-738.014
					L-715.774-738.014z"/>
			</g>
		</g>
		<g opacity="0.7">
			<g>
				<path fill="#74AFD1" d="M-712.321-737.287c1.935,0,1.935-3,0-3S-714.256-737.287-712.321-737.287L-712.321-737.287z"/>
			</g>
		</g>
		<g opacity="0.7">
			<g>
				<path fill="#74AFD1" d="M-712.704-733.788c1.935,0,1.935-3,0-3S-714.639-733.788-712.704-733.788L-712.704-733.788z"/>
			</g>
		</g>
		<g opacity="0.7">
			<g>
				<path fill="#74AFD1" d="M-719.169-733.705c1.935,0,1.935-3,0-3S-721.104-733.705-719.169-733.705L-719.169-733.705z"/>
			</g>
		</g>
		<g opacity="0.7">
			<g>
				<path fill="#74AFD1" d="M-716.59-735.917c1.935,0,1.935-3,0-3S-718.524-735.917-716.59-735.917L-716.59-735.917z"/>
			</g>
		</g>
		<g opacity="0.7">
			<g>
				<path fill="#74AFD1" d="M-709.461-731.072c1.935,0,1.935-3,0-3S-711.396-731.072-709.461-731.072L-709.461-731.072z"/>
			</g>
		</g>
		<g opacity="0.7">
			<g>
				<path fill="#74AFD1" d="M-714.039-729.206c1.935,0,1.935-3,0-3S-715.974-729.206-714.039-729.206L-714.039-729.206z"/>
			</g>
		</g>
		<g opacity="0.7">
			<g>
				<path fill="#74AFD1" d="M-719.367-726.336c1.935,0,1.935-3,0-3S-721.301-726.336-719.367-726.336L-719.367-726.336z"/>
			</g>
		</g>
		<g opacity="0.7">
			<g>
				<path fill="#74AFD1" d="M-720.973-721.735c1.935,0,1.935-3,0-3S-722.907-721.735-720.973-721.735L-720.973-721.735z"/>
			</g>
		</g>
		<g opacity="0.7">
			<g>
				<path fill="#74AFD1" d="M-717.12-721.171c1.935,0,1.935-3,0-3S-719.055-721.171-717.12-721.171L-717.12-721.171z"/>
			</g>
		</g>
		<g opacity="0.7">
			<g>
				<path fill="#74AFD1" d="M-722.954-711.458c1.935,0,1.935-3,0-3S-724.889-711.458-722.954-711.458L-722.954-711.458z"/>
			</g>
		</g>
		<g opacity="0.7">
			<g>
				<path fill="#74AFD1" d="M-714.821-714.171c1.935,0,1.935-3,0-3S-716.756-714.171-714.821-714.171L-714.821-714.171z"/>
			</g>
		</g>
		<g opacity="0.7">
			<g>
				<path fill="#74AFD1" d="M-716.311-708.828c1.935,0,1.935-3,0-3S-718.245-708.828-716.311-708.828L-716.311-708.828z"/>
			</g>
		</g>
		<g opacity="0.7">
			<g>
				<path fill="#74AFD1" d="M-708.408-708.802c1.935,0,1.935-3,0-3S-710.343-708.802-708.408-708.802L-708.408-708.802z"/>
			</g>
		</g>
		<g opacity="0.7">
			<g>
				<path fill="#74AFD1" d="M-705.308-709.278c1.935,0,1.935-3,0-3S-707.242-709.278-705.308-709.278L-705.308-709.278z"/>
			</g>
		</g>
		<g opacity="0.7">
			<g>
				<path fill="#74AFD1" d="M-708.814-718.106c1.935,0,1.935-3,0-3S-710.749-718.106-708.814-718.106L-708.814-718.106z"/>
			</g>
		</g>
		<g opacity="0.7">
			<g>
				<path fill="#74AFD1" d="M-704.199-704.855c1.935,0,1.935-3,0-3S-706.134-704.855-704.199-704.855L-704.199-704.855z"/>
			</g>
		</g>
		<g opacity="0.7">
			<g>
				<path fill="#74AFD1" d="M-699.148-701.577c1.935,0,1.935-3,0-3S-701.083-701.577-699.148-701.577L-699.148-701.577z"/>
			</g>
		</g>
		<g opacity="0.7">
			<g>
				<path fill="#74AFD1" d="M-711.441-705.198c1.935,0,1.935-3,0-3S-713.376-705.198-711.441-705.198L-711.441-705.198z"/>
			</g>
		</g>
		<g opacity="0.7">
			<g>
				<path fill="#74AFD1" d="M-708.003-699.497c1.935,0,1.935-3,0-3S-709.938-699.497-708.003-699.497L-708.003-699.497z"/>
			</g>
		</g>
		<g opacity="0.7">
			<g>
				<path fill="#74AFD1" d="M-721.891-707.714c1.935,0,1.935-3,0-3S-723.826-707.714-721.891-707.714L-721.891-707.714z"/>
			</g>
		</g>
		<g opacity="0.7">
			<g>
				<path fill="#74AFD1" d="M-727.248-703.208c1.935,0,1.935-3,0-3S-729.183-703.208-727.248-703.208L-727.248-703.208z"/>
			</g>
		</g>
		<g opacity="0.7">
			<g>
				<path fill="#74AFD1" d="M-717.53-702.482c1.935,0,1.935-3,0-3S-719.464-702.482-717.53-702.482L-717.53-702.482z"/>
			</g>
		</g>
		<g opacity="0.7">
			<g>
				<path fill="#74AFD1" d="M-723.028-701.168c1.935,0,1.935-3,0-3S-724.962-701.168-723.028-701.168L-723.028-701.168z"/>
			</g>
		</g>
		<g opacity="0.7">
			<g>
				<path fill="#74AFD1" d="M-713.549-695.796c1.935,0,1.935-3,0-3S-715.483-695.796-713.549-695.796L-713.549-695.796z"/>
			</g>
		</g>
	</g>
	<g display="inline">
		<g opacity="0.7">
			<g>
				<path fill="#74AFD1" d="M-632.559-681.789c1.935,0,1.935-3,0-3S-634.493-681.789-632.559-681.789L-632.559-681.789z"/>
			</g>
		</g>
		<g opacity="0.7">
			<g>
				<path fill="#74AFD1" d="M-627.969-693.288c1.935,0,1.935-3,0-3S-629.903-693.288-627.969-693.288L-627.969-693.288z"/>
			</g>
		</g>
		<g opacity="0.7">
			<g>
				<path fill="#74AFD1" d="M-622.364-690.307c1.935,0,1.935-3,0-3S-624.299-690.307-622.364-690.307L-622.364-690.307z"/>
			</g>
		</g>
		<g opacity="0.7">
			<g>
				<path fill="#74AFD1" d="M-637.162-691.101c1.935,0,1.935-3,0-3S-639.097-691.101-637.162-691.101L-637.162-691.101z"/>
			</g>
		</g>
		<g opacity="0.7">
			<g>
				<path fill="#74AFD1" d="M-605.993-713.807c1.935,0,1.935-3,0-3S-607.928-713.807-605.993-713.807L-605.993-713.807z"/>
			</g>
		</g>
		<g opacity="0.7">
			<g>
				<path fill="#74AFD1" d="M-610.181-706.191c1.935,0,1.935-3,0-3S-612.115-706.191-610.181-706.191L-610.181-706.191z"/>
			</g>
		</g>
		<g opacity="0.7">
			<g>
				<path fill="#74AFD1" d="M-616.026-702.988c1.935,0,1.935-3,0-3S-617.961-702.988-616.026-702.988L-616.026-702.988z"/>
			</g>
		</g>
		<g opacity="0.7">
			<g>
				<path fill="#74AFD1" d="M-622.105-704.489c1.935,0,1.935-3,0-3S-624.04-704.489-622.105-704.489L-622.105-704.489z"/>
			</g>
		</g>
		<g opacity="0.7">
			<g>
				<path fill="#74AFD1" d="M-617.906-695.438c1.935,0,1.935-3,0-3S-619.841-695.438-617.906-695.438L-617.906-695.438z"/>
			</g>
		</g>
		<g opacity="0.7">
			<g>
				<path fill="#74AFD1" d="M-613.99-709.683c1.935,0,1.935-3,0-3S-615.925-709.683-613.99-709.683L-613.99-709.683z"/>
			</g>
		</g>
		<g opacity="0.7">
			<g>
				<path fill="#74AFD1" d="M-609.884-712.957c1.935,0,1.935-3,0-3S-611.818-712.957-609.884-712.957L-609.884-712.957z"/>
			</g>
		</g>
		<g opacity="0.7">
			<g>
				<path fill="#74AFD1" d="M-628.44-679.38c1.935,0,1.935-3,0-3S-630.375-679.38-628.44-679.38L-628.44-679.38z"/>
			</g>
		</g>
		<g opacity="0.7">
			<g>
				<path fill="#74AFD1" d="M-625.197-686.737c1.935,0,1.935-3,0-3S-627.132-686.737-625.197-686.737L-625.197-686.737z"/>
			</g>
		</g>
		<g opacity="0.7">
			<g>
				<path fill="#74AFD1" d="M-630.298-688.018c1.935,0,1.935-3,0-3S-632.232-688.018-630.298-688.018L-630.298-688.018z"/>
			</g>
		</g>
		<g opacity="0.7">
			<g>
				<path fill="#74AFD1" d="M-623.134-698.54c1.935,0,1.935-3,0-3S-625.068-698.54-623.134-698.54L-623.134-698.54z"/>
			</g>
		</g>
		<g opacity="0.7">
			<g>
				<path fill="#74AFD1" d="M-628.167-698.862c1.935,0,1.935-3,0-3S-630.102-698.862-628.167-698.862L-628.167-698.862z"/>
			</g>
		</g>
		<g opacity="0.7">
			<g>
				<path fill="#74AFD1" d="M-608.675-710.826c1.935,0,1.935-3,0-3S-610.609-710.826-608.675-710.826L-608.675-710.826z"/>
			</g>
		</g>
		<g opacity="0.7">
			<g>
				<path fill="#74AFD1" d="M-604.333-716.236c1.935,0,1.935-3,0-3S-606.268-716.236-604.333-716.236L-604.333-716.236z"/>
			</g>
		</g>
		<g opacity="0.7">
			<g>
				<path fill="#74AFD1" d="M-608.355-714.509c1.935,0,1.935-3,0-3S-610.29-714.509-608.355-714.509L-608.355-714.509z"/>
			</g>
		</g>
		<g opacity="0.7">
			<g>
				<path fill="#74AFD1" d="M-608.411-708.436c1.935,0,1.935-3,0-3S-610.346-708.436-608.411-708.436L-608.411-708.436z"/>
			</g>
		</g>
		<g opacity="0.7">
			<g>
				<path fill="#74AFD1" d="M-611.524-710.24c1.935,0,1.935-3,0-3S-613.459-710.24-611.524-710.24L-611.524-710.24z"/>
			</g>
		</g>
		<g opacity="0.7">
			<g>
				<path fill="#74AFD1" d="M-612.027-707.796c1.935,0,1.935-3,0-3S-613.962-707.796-612.027-707.796L-612.027-707.796z"/>
			</g>
		</g>
		<g opacity="0.7">
			<g>
				<path fill="#74AFD1" d="M-611.472-703.981c1.935,0,1.935-3,0-3S-613.406-703.981-611.472-703.981L-611.472-703.981z"/>
			</g>
		</g>
		<g opacity="0.7">
			<g>
				<path fill="#74AFD1" d="M-616.013-708.289c1.935,0,1.935-3,0-3S-617.947-708.289-616.013-708.289L-616.013-708.289z"/>
			</g>
		</g>
		<g opacity="0.7">
			<g>
				<path fill="#74AFD1" d="M-612.264-705.66c1.935,0,1.935-3,0-3S-614.198-705.66-612.264-705.66L-612.264-705.66z"/>
			</g>
		</g>
		<g opacity="0.7">
			<g>
				<path fill="#74AFD1" d="M-613.413-701.436c1.935,0,1.935-3,0-3S-615.348-701.436-613.413-701.436L-613.413-701.436z"/>
			</g>
		</g>
		<g opacity="0.7">
			<g>
				<path fill="#74AFD1" d="M-614.865-705.671c1.935,0,1.935-3,0-3S-616.8-705.671-614.865-705.671L-614.865-705.671z"/>
			</g>
		</g>
		<g opacity="0.7">
			<g>
				<path fill="#74AFD1" d="M-618.112-705.25c1.935,0,1.935-3,0-3S-620.047-705.25-618.112-705.25L-618.112-705.25z"/>
			</g>
		</g>
		<g opacity="0.7">
			<g>
				<path fill="#74AFD1" d="M-619.074-702.485c1.935,0,1.935-3,0-3S-621.009-702.485-619.074-702.485L-619.074-702.485z"/>
			</g>
		</g>
		<g opacity="0.7">
			<g>
				<path fill="#74AFD1" d="M-617.134-699.539c1.935,0,1.935-3,0-3S-619.068-699.539-617.134-699.539L-617.134-699.539z"/>
			</g>
		</g>
		<g opacity="0.7">
			<g>
				<path fill="#74AFD1" d="M-619.869-697.323c1.935,0,1.935-3,0-3S-621.804-697.323-619.869-697.323L-619.869-697.323z"/>
			</g>
		</g>
		<g opacity="0.7">
			<g>
				<path fill="#74AFD1" d="M-624.52-701.815c1.935,0,1.935-3,0-3S-626.454-701.815-624.52-701.815L-624.52-701.815z"/>
			</g>
		</g>
		<g opacity="0.7">
			<g>
				<path fill="#74AFD1" d="M-621.13-701.571c1.935,0,1.935-3,0-3S-623.064-701.571-621.13-701.571L-621.13-701.571z"/>
			</g>
		</g>
		<g opacity="0.7">
			<g>
				<path fill="#74AFD1" d="M-619.478-693.111c1.935,0,1.935-3,0-3S-621.412-693.111-619.478-693.111L-619.478-693.111z"/>
			</g>
		</g>
		<g opacity="0.7">
			<g>
				<path fill="#74AFD1" d="M-624.043-695.008c1.935,0,1.935-3,0-3S-625.978-695.008-624.043-695.008L-624.043-695.008z"/>
			</g>
		</g>
		<g opacity="0.7">
			<g>
				<path fill="#74AFD1" d="M-629.848-696.721c1.935,0,1.935-3,0-3S-631.782-696.721-629.848-696.721L-629.848-696.721z"/>
			</g>
		</g>
		<g opacity="0.7">
			<g>
				<path fill="#74AFD1" d="M-634.226-694.583c1.935,0,1.935-3,0-3S-636.16-694.583-634.226-694.583L-634.226-694.583z"/>
			</g>
		</g>
		<g opacity="0.7">
			<g>
				<path fill="#74AFD1" d="M-631.889-691.47c1.935,0,1.935-3,0-3S-633.823-691.47-631.889-691.47L-631.889-691.47z"/>
			</g>
		</g>
		<g opacity="0.7">
			<g>
				<path fill="#74AFD1" d="M-642.869-688.679c1.935,0,1.935-3,0-3S-644.804-688.679-642.869-688.679L-642.869-688.679z"/>
			</g>
		</g>
		<g opacity="0.7">
			<g>
				<path fill="#74AFD1" d="M-635.185-684.881c1.935,0,1.935-3,0-3S-637.119-684.881-635.185-684.881L-635.185-684.881z"/>
			</g>
		</g>
		<g opacity="0.7">
			<g>
				<path fill="#74AFD1" d="M-640.002-682.134c1.935,0,1.935-3,0-3S-641.937-682.134-640.002-682.134L-640.002-682.134z"/>
			</g>
		</g>
		<g opacity="0.7">
			<g>
				<path fill="#74AFD1" d="M-634.408-676.553c1.935,0,1.935-3,0-3S-636.343-676.553-634.408-676.553L-634.408-676.553z"/>
			</g>
		</g>
		<g opacity="0.7">
			<g>
				<path fill="#74AFD1" d="M-631.87-674.708c1.935,0,1.935-3,0-3S-633.805-674.708-631.87-674.708L-631.87-674.708z"/>
			</g>
		</g>
		<g opacity="0.7">
			<g>
				<path fill="#74AFD1" d="M-628.146-683.447c1.935,0,1.935-3,0-3S-630.081-683.447-628.146-683.447L-628.146-683.447z"/>
			</g>
		</g>
		<g opacity="0.7">
			<g>
				<path fill="#74AFD1" d="M-634.197-670.787c1.935,0,1.935-3,0-3S-636.132-670.787-634.197-670.787L-634.197-670.787z"/>
			</g>
		</g>
		<g opacity="0.7">
			<g>
				<path fill="#74AFD1" d="M-632.918-664.903c1.935,0,1.935-3,0-3S-634.853-664.903-632.918-664.903L-632.918-664.903z"/>
			</g>
		</g>
		<g opacity="0.7">
			<g>
				<path fill="#74AFD1" d="M-639.1-676.128c1.935,0,1.935-3,0-3S-641.034-676.128-639.1-676.128L-639.1-676.128z"/>
			</g>
		</g>
		<g opacity="0.7">
			<g>
				<path fill="#74AFD1" d="M-640.67-669.659c1.935,0,1.935-3,0-3S-642.604-669.659-640.67-669.659L-640.67-669.659z"/>
			</g>
		</g>
		<g opacity="0.7">
			<g>
				<path fill="#74AFD1" d="M-644.75-685.271c1.935,0,1.935-3,0-3S-646.685-685.271-644.75-685.271L-644.75-685.271z"/>
			</g>
		</g>
		<g opacity="0.7">
			<g>
				<path fill="#74AFD1" d="M-651.728-685.842c1.935,0,1.935-3,0-3S-653.662-685.842-651.728-685.842L-651.728-685.842z"/>
			</g>
		</g>
		<g opacity="0.7">
			<g>
				<path fill="#74AFD1" d="M-645.335-678.485c1.935,0,1.935-3,0-3S-647.27-678.485-645.335-678.485L-645.335-678.485z"/>
			</g>
		</g>
		<g opacity="0.7">
			<g>
				<path fill="#74AFD1" d="M-650.165-681.422c1.935,0,1.935-3,0-3S-652.1-681.422-650.165-681.422L-650.165-681.422z"/>
			</g>
		</g>
		<g opacity="0.7">
			<g>
				<path fill="#74AFD1" d="M-647.215-670.935c1.935,0,1.935-3,0-3S-649.149-670.935-647.215-670.935L-647.215-670.935z"/>
			</g>
		</g>
	</g>
	<g display="inline">
		<g>
			<path fill="#74AFD1" d="M-708.55-738.299c1.935,0,1.935-3,0-3S-710.484-738.299-708.55-738.299L-708.55-738.299z"/>
		</g>
	</g>
	<g display="inline">
		<g>
			<path fill="#74AFD1" d="M-712.243-753.724c1.935,0,1.935-3,0-3S-714.178-753.724-712.243-753.724L-712.243-753.724z"/>
		</g>
	</g>
	<g display="inline">
		<g>
			<path fill="#74AFD1" d="M-720.064-741.124c1.935,0,1.935-3,0-3S-721.999-741.124-720.064-741.124L-720.064-741.124z"/>
		</g>
	</g>
	<g display="inline">
		<g>
			<path fill="#74AFD1" d="M-720.933-734.823c1.935,0,1.935-3,0-3S-722.868-734.823-720.933-734.823L-720.933-734.823z"/>
		</g>
	</g>
	<g display="inline">
		<g>
			<path fill="#74AFD1" d="M-722.671-726.568c1.935,0,1.935-3,0-3S-724.606-726.568-722.671-726.568L-722.671-726.568z"/>
		</g>
	</g>
	<g display="inline">
		<g>
			<path fill="#74AFD1" d="M-724.409-718.747c1.935,0,1.935-3,0-3S-726.344-718.747-724.409-718.747L-724.409-718.747z"/>
		</g>
	</g>
	<g display="inline">
		<g>
			<path fill="#74AFD1" d="M-725.496-712.012c1.935,0,1.935-3,0-3S-727.43-712.012-725.496-712.012L-725.496-712.012z"/>
		</g>
	</g>
	<g display="inline">
		<g>
			<path fill="#74AFD1" d="M-712.461-724.395c1.935,0,1.935-3,0-3S-714.396-724.395-712.461-724.395L-712.461-724.395z"/>
		</g>
	</g>
	<g display="inline">
		<g>
			<path fill="#74AFD1" d="M-707.029-733.737c1.935,0,1.935-3,0-3S-708.964-733.737-707.029-733.737L-707.029-733.737z"/>
		</g>
	</g>
	<g display="inline">
		<g>
			<path fill="#74AFD1" d="M-706.16-728.958c1.935,0,1.935-3,0-3S-708.095-728.958-706.16-728.958L-706.16-728.958z"/>
		</g>
	</g>
	<g display="inline">
		<g>
			<path fill="#74AFD1" d="M-704.64-723.309c1.935,0,1.935-3,0-3S-706.574-723.309-704.64-723.309L-704.64-723.309z"/>
		</g>
	</g>
	<g display="inline">
		<g>
			<path fill="#74AFD1" d="M-703.771-718.095c1.935,0,1.935-3,0-3S-705.705-718.095-703.771-718.095L-703.771-718.095z"/>
		</g>
	</g>
	<g display="inline">
		<g>
			<path fill="#74AFD1" d="M-701.598-711.36c1.935,0,1.935-3,0-3S-703.532-711.36-701.598-711.36L-701.598-711.36z"/>
		</g>
	</g>
	<g display="inline">
		<g>
			<path fill="#74AFD1" d="M-697.905-707.232c1.935,0,1.935-3,0-3S-699.84-707.232-697.905-707.232L-697.905-707.232z"/>
		</g>
	</g>
	<g display="inline">
		<g>
			<path fill="#74AFD1" d="M-692.039-704.408c1.935,0,1.935-3,0-3S-693.974-704.408-692.039-704.408L-692.039-704.408z"/>
		</g>
	</g>
	<g display="inline">
		<g>
			<path fill="#74AFD1" d="M-685.956-702.67c1.935,0,1.935-3,0-3S-687.891-702.67-685.956-702.67L-685.956-702.67z"/>
		</g>
	</g>
	<g display="inline">
		<g>
			<path fill="#74AFD1" d="M-692.039-698.977c1.935,0,1.935-3,0-3S-693.974-698.977-692.039-698.977L-692.039-698.977z"/>
		</g>
	</g>
	<g display="inline">
		<g>
			<path fill="#74AFD1" d="M-674.659-699.194c1.935,0,1.935-3,0-3S-676.594-699.194-674.659-699.194L-674.659-699.194z"/>
		</g>
	</g>
	<g display="inline">
		<g>
			<path fill="#74AFD1" d="M-667.272-695.718c1.935,0,1.935-3,0-3S-669.207-695.718-667.272-695.718L-667.272-695.718z"/>
		</g>
	</g>
	<g display="inline">
		<g>
			<path fill="#74AFD1" d="M-659.018-693.546c1.935,0,1.935-3,0-3S-660.952-693.546-659.018-693.546L-659.018-693.546z"/>
		</g>
	</g>
	<g display="inline">
		<g>
			<path fill="#74AFD1" d="M-651.196-690.287c1.935,0,1.935-3,0-3S-653.131-690.287-651.196-690.287L-651.196-690.287z"/>
		</g>
	</g>
	<g display="inline">
		<g>
			<path fill="#74AFD1" d="M-655.759-688.115c1.935,0,1.935-3,0-3S-657.693-688.115-655.759-688.115L-655.759-688.115z"/>
		</g>
	</g>
	<g display="inline">
		<g>
			<path fill="#74AFD1" d="M-662.928-691.808c1.935,0,1.935-3,0-3S-664.862-691.808-662.928-691.808L-662.928-691.808z"/>
		</g>
	</g>
	<g display="inline">
		<g>
			<path fill="#74AFD1" d="M-680.525-698.542c1.935,0,1.935-3,0-3S-682.46-698.542-680.525-698.542L-680.525-698.542z"/>
		</g>
	</g>
	<g display="inline">
		<g>
			<path fill="#74AFD1" d="M-629.254-672.039c1.935,0,1.935-3,0-3S-631.188-672.039-629.254-672.039L-629.254-672.039z"/>
		</g>
	</g>
	<g display="inline">
		<g>
			<path fill="#74AFD1" d="M-623.605-665.521c1.935,0,1.935-3,0-3S-625.54-665.521-623.605-665.521L-623.605-665.521z"/>
		</g>
	</g>
	<g display="inline">
		<g>
			<path fill="#74AFD1" d="M-619.478-659.221c1.935,0,1.935-3,0-3S-621.412-659.221-619.478-659.221L-619.478-659.221z"/>
		</g>
	</g>
	<g display="inline">
		<g>
			<path fill="#74AFD1" d="M-611.005-644.448c1.935,0,1.935-3,0-3S-612.939-644.448-611.005-644.448L-611.005-644.448z"/>
		</g>
	</g>
	<g display="inline">
		<g>
			<path fill="#74AFD1" d="M-614.047-650.313c1.935,0,1.935-3,0-3S-615.981-650.313-614.047-650.313L-614.047-650.313z"/>
		</g>
	</g>
	<g display="inline">
		<g>
			<path fill="#74AFD1" d="M-616.002-655.31c1.935,0,1.935-3,0-3S-617.937-655.31-616.002-655.31L-616.002-655.31z"/>
		</g>
	</g>
	<g display="inline">
		<g>
			<path fill="#74AFD1" d="M-625.778-661.393c1.935,0,1.935-3,0-3S-627.713-661.393-625.778-661.393L-625.778-661.393z"/>
		</g>
	</g>
	<g display="inline">
		<g>
			<path fill="#74AFD1" d="M-629.254-666.824c1.935,0,1.935-3,0-3S-631.188-666.824-629.254-666.824L-629.254-666.824z"/>
		</g>
	</g>
	<g display="inline">
		<g>
			<path fill="#74AFD1" d="M-801.316-672.908c1.935,0,1.935-3,0-3S-803.25-672.908-801.316-672.908L-801.316-672.908z"/>
		</g>
	</g>
	<g display="inline">
		<g>
			<path fill="#74AFD1" d="M-807.182-665.956c1.935,0,1.935-3,0-3S-809.116-665.956-807.182-665.956L-807.182-665.956z"/>
		</g>
	</g>
	<g display="inline">
		<g>
			<path fill="#74AFD1" d="M-812.396-657.701c1.935,0,1.935-3,0-3S-814.331-657.701-812.396-657.701L-812.396-657.701z"/>
		</g>
	</g>
	<g display="inline">
		<g>
			<path fill="#74AFD1" d="M-810.006-662.48c1.935,0,1.935-3,0-3S-811.94-662.48-810.006-662.48L-810.006-662.48z"/>
		</g>
	</g>
	<g display="inline">
		<g>
			<path fill="#74AFD1" d="M-804.575-669.432c1.935,0,1.935-3,0-3S-806.509-669.432-804.575-669.432L-804.575-669.432z"/>
		</g>
	</g>
	<g display="inline">
		<g>
			<path fill="#74AFD1" d="M-796.754-670.736c1.935,0,1.935-3,0-3S-798.688-670.736-796.754-670.736L-796.754-670.736z"/>
		</g>
	</g>
	<g display="inline">
		<g>
			<path fill="#74AFD1" d="M-802.837-666.825c1.935,0,1.935-3,0-3S-804.771-666.825-802.837-666.825L-802.837-666.825z"/>
		</g>
	</g>
	<g display="inline">
		<g>
			<path fill="#74AFD1" d="M-806.748-661.611c1.935,0,1.935-3,0-3S-808.682-661.611-806.748-661.611L-806.748-661.611z"/>
		</g>
	</g>
	<g display="inline">
		<g>
			<path fill="#74AFD1" d="M-816.089-651.835c1.935,0,1.935-3,0-3S-818.023-651.835-816.089-651.835L-816.089-651.835z"/>
		</g>
	</g>
	<g display="inline">
		<g>
			<path fill="#74AFD1" d="M-789.367-673.56c1.935,0,1.935-3,0-3S-791.302-673.56-789.367-673.56L-789.367-673.56z"/>
		</g>
	</g>
	<g display="inline">
		<g>
			<path fill="#74AFD1" d="M-775.463-687.681c1.935,0,1.935-3,0-3S-777.398-687.681-775.463-687.681L-775.463-687.681z"/>
		</g>
	</g>
	<g display="inline">
		<g>
			<path fill="#74AFD1" d="M-768.511-694.416c1.935,0,1.935-3,0-3S-770.446-694.416-768.511-694.416L-768.511-694.416z"/>
		</g>
	</g>
	<g display="inline">
		<g>
			<path fill="#74AFD1" d="M-758.953-696.806c1.935,0,1.935-3,0-3S-760.887-696.806-758.953-696.806L-758.953-696.806z"/>
		</g>
	</g>
	<g display="inline">
		<g>
			<path fill="#74AFD1" d="M-747.004-696.371c1.935,0,1.935-3,0-3S-748.938-696.371-747.004-696.371L-747.004-696.371z"/>
		</g>
	</g>
	<g display="inline">
		<g>
			<path fill="#74AFD1" d="M-743.093-701.15c1.935,0,1.935-3,0-3S-745.028-701.15-743.093-701.15L-743.093-701.15z"/>
		</g>
	</g>
	<g display="inline">
		<g>
			<path fill="#74AFD1" d="M-735.707-706.365c1.935,0,1.935-3,0-3S-737.641-706.365-735.707-706.365L-735.707-706.365z"/>
		</g>
	</g>
	<g display="inline">
		<g>
			<path fill="#74AFD1" d="M-735.055-700.716c1.935,0,1.935-3,0-3S-736.99-700.716-735.055-700.716L-735.055-700.716z"/>
		</g>
	</g>
	<g display="inline">
		<g>
			<path fill="#74AFD1" d="M-752-699.847c1.935,0,1.935-3,0-3S-753.935-699.847-752-699.847L-752-699.847z"/>
		</g>
	</g>
	<g display="inline">
		<g>
			<path fill="#74AFD1" d="M-755.477-694.199c1.935,0,1.935-3,0-3S-757.411-694.199-755.477-694.199L-755.477-694.199z"/>
		</g>
	</g>
	<g display="inline">
		<g>
			<path fill="#74AFD1" d="M-767.208-689.854c1.935,0,1.935-3,0-3S-769.143-689.854-767.208-689.854L-767.208-689.854z"/>
		</g>
	</g>
	<g display="inline">
		<g>
			<path fill="#74AFD1" d="M-775.029-682.467c1.935,0,1.935-3,0-3S-776.963-682.467-775.029-682.467L-775.029-682.467z"/>
		</g>
	</g>
	<g display="inline">
		<g>
			<path fill="#74AFD1" d="M-761.994-693.33c1.935,0,1.935-3,0-3S-763.929-693.33-761.994-693.33L-761.994-693.33z"/>
		</g>
	</g>
	<g display="inline">
		<g>
			<path fill="#74AFD1" d="M-747.873-703.758c1.935,0,1.935-3,0-3S-749.807-703.758-747.873-703.758L-747.873-703.758z"/>
		</g>
	</g>
</g>
</svg>
