<?xml version="1.0" encoding="utf-8"?>
<!-- Generator: Adobe Illustrator 15.1.0, SVG Export Plug-In . SVG Version: 6.00 Build 0)  -->
<!DOCTYPE svg PUBLIC "-//W3C//DTD SVG 1.1//EN" "http://www.w3.org/Graphics/SVG/1.1/DTD/svg11.dtd">
<svg version="1.1" xmlns="http://www.w3.org/2000/svg" xmlns:xlink="http://www.w3.org/1999/xlink" x="0px" y="0px" width="400px"
	 height="400px" viewBox="0 0 400 400" enable-background="new 0 0 400 400" xml:space="preserve">
<g id="guide_lines_layer" display="none">
	
		<rect x="-460.808" y="-401.565" display="inline" fill="#FFFFFF" stroke="#000000" stroke-miterlimit="10" width="75" height="400"/>
	
		<rect x="-136.558" y="-405.564" display="inline" fill="#FFFFFF" stroke="#000000" stroke-miterlimit="10" width="75" height="400"/>
	
		<rect x="-136.558" y="-808.554" display="inline" fill="#FFFFFF" stroke="#000000" stroke-miterlimit="10" width="75" height="400"/>
	
		<rect x="-460.808" y="-808.554" display="inline" fill="#FFFFFF" stroke="#000000" stroke-miterlimit="10" width="75" height="400"/>
	<rect x="-1.499" y="-813.053" display="inline" fill="#FFFFFF" stroke="#000000" stroke-miterlimit="10" width="75" height="400"/>
	
		<rect x="323.501" y="-814.053" display="inline" fill="#FFFFFF" stroke="#000000" stroke-miterlimit="10" width="75" height="400"/>
	<rect x="323.5" y="-406.019" display="inline" fill="#FFFFFF" stroke="#000000" stroke-miterlimit="10" width="75" height="400"/>
	<rect x="-1.5" y="-406.019" display="inline" fill="#FFFFFF" stroke="#000000" stroke-miterlimit="10" width="75" height="400"/>
	<rect x="-460.808" display="inline" fill="#FFFFFF" stroke="#000000" stroke-miterlimit="10" width="75" height="400"/>
	<rect x="-136.558" display="inline" fill="#FFFFFF" stroke="#000000" stroke-miterlimit="10" width="75" height="400"/>
	<rect x="325" display="inline" fill="#FFFFFF" stroke="#000000" stroke-miterlimit="10" width="75" height="400"/>
	<rect display="inline" fill="#FFFFFF" stroke="#000000" stroke-miterlimit="10" width="75" height="400"/>
	
		<rect x="454.775" y="-811.887" display="inline" fill="#FFFFFF" stroke="#000000" stroke-miterlimit="10" width="75" height="400"/>
	
		<rect x="779.775" y="-811.887" display="inline" fill="#FFFFFF" stroke="#000000" stroke-miterlimit="10" width="75" height="399.999"/>
	
		<rect x="778.442" y="-398.554" display="inline" fill="#FFFFFF" stroke="#000000" stroke-miterlimit="10" width="75" height="400"/>
	
		<rect x="453.442" y="-398.554" display="inline" fill="#FFFFFF" stroke="#000000" stroke-miterlimit="10" width="75" height="400"/>
	<rect x="779.775" y="8.446" display="inline" fill="#FFFFFF" stroke="#000000" stroke-miterlimit="10" width="75" height="400"/>
	<rect x="454.775" y="9.446" display="inline" fill="#FFFFFF" stroke="#000000" stroke-miterlimit="10" width="75" height="400"/>
	
		<rect x="928.048" y="-812.522" display="inline" fill="#FFFFFF" stroke="#000000" stroke-miterlimit="10" width="75" height="400"/>
	
		<rect x="1253.048" y="-812.522" display="inline" fill="#FFFFFF" stroke="#000000" stroke-miterlimit="10" width="75" height="399.999"/>
	
		<rect x="1251.715" y="-397.554" display="inline" fill="#FFFFFF" stroke="#000000" stroke-miterlimit="10" width="75" height="400"/>
	
		<rect x="927.442" y="-397.554" display="inline" fill="#FFFFFF" stroke="#000000" stroke-miterlimit="10" width="75" height="400"/>
	<rect x="1251.715" y="7.811" display="inline" fill="#FFFFFF" stroke="#000000" stroke-miterlimit="10" width="75" height="400"/>
	<rect x="926.715" y="8.811" display="inline" fill="#FFFFFF" stroke="#000000" stroke-miterlimit="10" width="75" height="400"/>
</g>
<g id="body_layer">
	<path fill="#DBCD7D" d="M1049.777-674.887c0,0-63.33-68.667-118.667-8.667c62.715-18,76.856-2,88.539,29.334
		C1030.951-623.909,1049.777-674.887,1049.777-674.887z"/>
	<path fill="#DBCD7D" d="M1194.442-672.887c0,0,63.33-68.667,118.667-8.667c-62.715-18-76.856-2-88.539,29.333
		C1213.269-621.91,1194.442-672.887,1194.442-672.887z"/>
	<path fill="#7DC6DD" d="M-385.891-411.552c-2.883-20-6.001-94.502-1.501-143.002c3.743-40.334,17.835-96.814,42.335-118.185
		c3.563-3.109-30.615-46.477-26.834-49.162c3.812-2.707,45.584,35.273,49.586,33.007c14.496-8.207,30.145-13.495,46.222-15.626
		c5.358-0.71,10.294-53.233,15.722-53.233c6.436,0,13.158,52.65,19.217,53.576c18.174,2.776,34.613,9.508,49.126,18.933
		c2.902,1.885,44.048-32.705,46.795-30.614c3.355,2.554-31.726,41.835-28.608,44.662c29.753,26.976,31.94,73.644,35.44,119.144
		c2.627,34.148,4.752,126.445,1.92,140.279L-385.891-411.552z"/>
	<path fill="#79C2EA" stroke="#FFFFFF" stroke-miterlimit="10" d="M-685.558-605.554"/>
	<path fill="#7DC6DD" d="M-386.558-405.553v46c0,0-4,30-21,37s-27,11-27,31s11,36-6,41s-14,15,0,15s25.353-13.575,26.774-25.657
		c1.963-16.687-8.344-22.576,7.853-32.883c9.972-6.346,19.141-5.399,19.141-5.399l-0.492,53.985c0,0-28.436,6.475-36.318,25.523
		c-11.779,28.464,4.968,47.216,1.042,62.431c-6.039,23.4-23.395,19.503-22.5,28c1,9.5,37.038,0.956,39-28
		c1.114-16.443-2.814-21.393-3.309-29.06c-0.982-15.214,9.325-26.993,23.067-25.519l-0.258,88.578c0,0,0.629,17.897-13.484,28.718
		c-14.724,11.288-18.65,9.815-26.012,16.688c-17.939,16.744-6.871,35.827-15.706,41.718c-14.062,9.377-15.214,21.595-2.945,16.687
		c22.104-8.843,21.777-16.334,24.54-33.374c2.944-18.159,29.607-22.436,29.607-22.436h4l0.903,70.988h111.097l7-400
		L-386.558-405.553z"/>
	<path fill="#7DC6DD" d="M-390.558-75.553"/>
	<circle fill="#36A1BA" cx="-409.39" cy="-316.387" r="7.833"/>
	<circle fill="#36A1BA" cx="-408.39" cy="-295.387" r="6.167"/>
	<circle fill="#36A1BA" cx="-426.057" cy="-298.721" r="5.833"/>
	<circle fill="#36A1BA" cx="-417.557" cy="-281.554" r="4.333"/>
	<circle fill="#36A1BA" cx="-430.223" cy="-287.554" r="4.667"/>
	<circle fill="#36A1BA" cx="-427.557" cy="-274.221" r="4"/>
	<circle fill="#36A1BA" cx="-416.057" cy="-267.387" r="3.5"/>
	<circle fill="#36A1BA" cx="-427.057" cy="-261.387" r="3.833"/>
	<circle fill="#36A1BA" cx="-420.223" cy="-251.554" r="3.667"/>
	<circle fill="#36A1BA" cx="-433.223" cy="-249.888" r="3.333"/>
	<circle fill="#36A1BA" cx="-429.39" cy="-241.053" r="2.833"/>
	<circle fill="#36A1BA" cx="-443.224" cy="-242.554" r="3"/>
	<circle fill="#36A1BA" cx="-390.557" cy="-236.887" r="9"/>
	<circle fill="#36A1BA" cx="-401.89" cy="-214.221" r="8"/>
	<circle fill="#36A1BA" cx="-411.723" cy="-227.721" r="6.833"/>
	<circle fill="#36A1BA" cx="-422.39" cy="-216.054" r="6.167"/>
	<circle fill="#36A1BA" cx="-425.557" cy="-199.553" r="6.167"/>
	<circle fill="#36A1BA" cx="-411.057" cy="-198.72" r="6.5"/>
	<circle fill="#36A1BA" cx="-422.057" cy="-183.721" r="4.833"/>
	<circle fill="#36A1BA" cx="-410.224" cy="-179.22" r="4"/>
	<circle fill="#36A1BA" cx="-417.723" cy="-168.387" r="3.833"/>
	<circle fill="#36A1BA" cx="-409.057" cy="-164.721" r="3.833"/>
	<circle fill="#36A1BA" cx="-419.39" cy="-156.053" r="4.167"/>
	<circle fill="#36A1BA" cx="-416.89" cy="-140.053" r="3.5"/>
	<circle fill="#36A1BA" cx="-423.89" cy="-146.553" r="3.333"/>
	<circle fill="#36A1BA" cx="-408.89" cy="-149.22" r="4.333"/>
	<circle fill="#36A1BA" cx="-427.723" cy="-132.053" r="3.833"/>
	<circle fill="#36A1BA" cx="-397.39" cy="-91.387" r="6.167"/>
	<circle fill="#36A1BA" cx="-408.056" cy="-72.388" r="4.167"/>
	<circle fill="#36A1BA" cx="-407.723" cy="-84.72" r="3.833"/>
	<circle fill="#36A1BA" cx="-419.556" cy="-77.221" r="4.333"/>
	<circle fill="#36A1BA" cx="-433.557" cy="-52.888" r="3"/>
	<circle fill="#36A1BA" cx="-428.723" cy="-66.055" r="4.167"/>
	<circle fill="#36A1BA" cx="-418.057" cy="-63.721" r="4.833"/>
	<circle fill="#36A1BA" cx="-395.89" cy="-77.888" r="5.667"/>
	<circle fill="#36A1BA" cx="-427.057" cy="-34.388" r="3.5"/>
	<circle fill="#36A1BA" cx="-437.723" cy="-33.721" r="3.5"/>
	<circle fill="#36A1BA" cx="-426.057" cy="-47.055" r="3.5"/>
	<circle fill="#36A1BA" cx="-424.057" cy="-55.388" r="3.5"/>
	<circle fill="#36A1BA" cx="-435.223" cy="-41.555" r="3"/>
	<circle fill="#36A1BA" cx="-440.723" cy="-25.721" r="3.167"/>
	<path fill="#7DC6DD" d="M-136.574-404.564l-0.941,45.012c0,0,4.405,30,23.125,37c18.721,7,29.732,11,29.732,31s-12.113,36,6.607,41
		c18.72,5,15.416,15,0,15c-15.417,0-27.919-13.575-29.484-25.657c-2.161-16.687,9.188-22.576-8.646-32.883
		c-10.982-6.346-21.078-5.399-21.078-5.399l0.541,53.985c0,0,31.313,6.475,39.993,25.523c12.972,28.464-5.47,47.216-1.146,62.431
		c6.649,23.4,25.762,19.503,24.776,28c-1.102,9.5-40.785,0.956-42.946-28c-1.228-16.443,3.099-21.393,3.644-29.06
		c1.081-15.214-10.269-26.993-25.401-25.519l0.284,88.578c0,0-0.692,17.897,14.849,28.718c16.215,11.288,20.538,9.815,28.645,16.688
		c19.755,16.744,7.566,35.827,17.295,41.718c15.486,9.377,16.754,21.595,3.242,16.687c-24.34-8.843-23.98-16.334-27.021-33.374
		c-3.244-18.159-32.604-22.436-32.604-22.436h-4.405l1.381,70.988h-139.676l7.253-400H-136.574z"/>
	<path fill="#7DC6DD" d="M-133.11-75.553"/>
	<ellipse fill="#36A1BA" cx="-112.373" cy="-316.387" rx="8.626" ry="7.833"/>
	<ellipse fill="#36A1BA" cx="-113.474" cy="-295.387" rx="6.791" ry="6.166"/>
	<ellipse fill="#36A1BA" cx="-94.02" cy="-298.721" rx="6.423" ry="5.834"/>
	<ellipse fill="#36A1BA" cx="-103.38" cy="-281.554" rx="4.771" ry="4.333"/>
	<ellipse fill="#36A1BA" cx="-89.432" cy="-287.554" rx="5.139" ry="4.667"/>
	<ellipse fill="#36A1BA" cx="-92.368" cy="-274.221" rx="4.405" ry="4"/>
	<ellipse fill="#36A1BA" cx="-105.031" cy="-267.387" rx="3.854" ry="3.5"/>
	<ellipse fill="#36A1BA" cx="-92.918" cy="-261.387" rx="4.221" ry="3.833"/>
	<ellipse fill="#36A1BA" cx="-100.443" cy="-251.554" rx="4.038" ry="3.667"/>
	<ellipse fill="#36A1BA" cx="-86.128" cy="-249.888" rx="3.671" ry="3.333"/>
	<ellipse fill="#36A1BA" cx="-90.349" cy="-241.053" rx="3.12" ry="2.833"/>
	<ellipse fill="#36A1BA" cx="-75.115" cy="-242.554" rx="3.304" ry="3"/>
	<ellipse fill="#36A1BA" cx="-133.112" cy="-236.887" rx="9.911" ry="9"/>
	<ellipse fill="#36A1BA" cx="-120.632" cy="-214.221" rx="8.81" ry="8"/>
	<ellipse fill="#36A1BA" cx="-109.803" cy="-227.721" rx="7.525" ry="6.834"/>
	<ellipse fill="#36A1BA" cx="-98.057" cy="-216.054" rx="6.791" ry="6.167"/>
	<ellipse fill="#36A1BA" cx="-94.57" cy="-199.553" rx="6.791" ry="6.167"/>
	<ellipse fill="#36A1BA" cx="-110.538" cy="-198.72" rx="7.158" ry="6.5"/>
	<ellipse fill="#36A1BA" cx="-98.424" cy="-183.721" rx="5.322" ry="4.834"/>
	<ellipse fill="#36A1BA" cx="-111.455" cy="-179.22" rx="4.405" ry="4"/>
	<ellipse fill="#36A1BA" cx="-103.196" cy="-168.387" rx="4.222" ry="3.833"/>
	<ellipse fill="#36A1BA" cx="-112.74" cy="-164.721" rx="4.221" ry="3.834"/>
	<ellipse fill="#36A1BA" cx="-101.361" cy="-156.053" rx="4.589" ry="4.167"/>
	<ellipse fill="#36A1BA" cx="-104.114" cy="-140.053" rx="3.854" ry="3.5"/>
	<ellipse fill="#36A1BA" cx="-96.405" cy="-146.553" rx="3.671" ry="3.334"/>
	<ellipse fill="#36A1BA" cx="-112.923" cy="-149.22" rx="4.771" ry="4.333"/>
	<ellipse fill="#36A1BA" cx="-92.184" cy="-132.053" rx="4.221" ry="3.834"/>
	<ellipse fill="#36A1BA" cx="-125.586" cy="-91.387" rx="6.791" ry="6.167"/>
	<ellipse fill="#36A1BA" cx="-113.841" cy="-72.388" rx="4.588" ry="4.166"/>
	<ellipse fill="#36A1BA" cx="-114.208" cy="-84.72" rx="4.222" ry="3.833"/>
	<ellipse fill="#36A1BA" cx="-101.177" cy="-77.221" rx="4.771" ry="4.334"/>
	<ellipse fill="#36A1BA" cx="-85.761" cy="-52.888" rx="3.304" ry="3"/>
	<ellipse fill="#36A1BA" cx="-91.083" cy="-66.055" rx="4.588" ry="4.167"/>
	<ellipse fill="#36A1BA" cx="-102.829" cy="-63.721" rx="5.322" ry="4.833"/>
	<ellipse fill="#36A1BA" cx="-127.239" cy="-77.888" rx="6.239" ry="5.666"/>
	<ellipse fill="#36A1BA" cx="-92.918" cy="-34.388" rx="3.854" ry="3.5"/>
	<ellipse fill="#36A1BA" cx="-81.172" cy="-33.721" rx="3.854" ry="3.5"/>
	<ellipse fill="#36A1BA" cx="-94.02" cy="-47.055" rx="3.854" ry="3.5"/>
	<ellipse fill="#36A1BA" cx="-96.222" cy="-55.388" rx="3.854" ry="3.5"/>
	<ellipse fill="#36A1BA" cx="-83.925" cy="-41.555" rx="3.304" ry="3"/>
	<ellipse fill="#36A1BA" cx="-77.869" cy="-25.721" rx="3.487" ry="3.166"/>
	<path fill="#52BFD1" d="M-161.225-209.541c0,99.408-43.169,179.988-96.417,179.988s-96.417-80.58-96.417-179.988
		c0-99.43,43.168-180.012,96.417-180.012S-161.225-308.971-161.225-209.541z"/>
	<path fill="#52BFD1" d="M-143.226-556.55c0,19.33-16.977,34.998-37.917,34.998c-20.939,0-37.916-15.668-37.916-34.998
		c0-19.334,16.977-35.002,37.916-35.002C-160.202-591.552-143.226-575.884-143.226-556.55z"/>
	<path fill="#52BFD1" d="M-299.226-553.55c0,19.33-16.977,34.998-37.917,34.998c-20.939,0-37.916-15.668-37.916-34.998
		c0-19.334,16.977-35.002,37.916-35.002C-316.202-588.552-299.226-572.884-299.226-553.55z"/>
	<g>
		<g>
			<path fill="#7DC6DD" d="M-341.949-691.56c0.65,0,2.082-0.987,0.781-0.987C-341.818-692.547-343.25-691.56-341.949-691.56
				L-341.949-691.56z"/>
		</g>
	</g>
	<g>
		<g>
			<path fill="none" stroke="#F2E4D2" stroke-miterlimit="10" d="M-175.059-691.053"/>
		</g>
	</g>
	<g>
		<g>
			<path fill="none" stroke="#F2E4D2" stroke-miterlimit="10" d="M-263.059-692.053"/>
		</g>
	</g>
	<path fill="#6FC5D8" d="M-135.081,0l2.023,127.449c-2.206,25.478,41-4,41,29c0,32.062-120,28-119,14c0.778-10.892-6-128-59-122
		c-32.804,3.714-43.046,125.093-45,129c-3,6-115,30-117-12c-1.813-38.075,46,0,44.168-36.008c0,0,2.881-125.732,3.77-129.441
		H-135.081z"/>
	<path fill="#D6C370" d="M-429.049,153.846c0,0-4.187,4.983-2.193,10.965c0,0-12.559-7.376-16.347,0.996
		C-447.987,154.244-439.216,152.849-429.049,153.846z"/>
	<path fill="#D6C370" d="M-429.248,166.804c0,0-0.199,4.386,5.98,7.975c0,0-13.755-3.189-17.543,5.183
		C-441.209,168.398-439.415,165.807-429.248,166.804z"/>
	<path fill="#D6C370" d="M-421.974,177.507l7.841,2.83c0,0-8.394,3.072-11.97,13.587
		C-429.009,186.932-428.102,181.129-421.974,177.507z"/>
	<path fill="#D6C370" d="M-96.301,143.846c0,0,4.069,4.983,2.131,10.965c0,0,12.207-7.376,15.89,0.996
		C-77.894,144.244-86.419,142.849-96.301,143.846z"/>
	<path fill="#D6C370" d="M-96.107,156.804c0,0,0.193,4.386-5.812,7.975c0,0,13.369-3.189,17.051,5.183
		C-84.481,158.398-86.226,155.807-96.107,156.804z"/>
	<path fill="#D6C370" d="M-103.178,167.507l-7.621,2.83c0,0,8.158,3.072,11.634,13.587
		C-96.34,176.932-97.222,171.129-103.178,167.507z"/>
	<path fill="#52BFD1" d="M-384.075,7.426c0,0,139.461,50.713-3.888,123.271L-384.075,7.426z"/>
	<path fill="#52BFD1" d="M-134.795,4.953c0,0-124.187,45.307,1.429,119.307L-134.795,4.953z"/>
	<path fill="#8BCEAB" d="M71.617-413.433c-2.881-20-6-94.502-1.5-143.002c3.742-40.336,17.835-96.814,42.335-118.185
		c3.563-3.109-30.614-46.478-26.833-49.163c3.811-2.707,45.583,35.274,49.586,33.009c14.496-8.207,30.144-13.496,46.221-15.628
		c5.359-0.709,10.294-53.232,15.722-53.232c6.436,0,13.158,52.648,19.217,53.574c18.174,2.778,34.613,9.509,49.126,18.935
		c2.902,1.885,44.048-32.706,46.795-30.616c3.355,2.555-31.726,41.837-28.608,44.663c29.753,26.976,31.94,73.642,35.44,119.144
		c2.627,34.148,4.752,126.445,1.92,140.279L71.617-413.433z"/>
	<path fill="#8BCEAB" d="M72.449-405.935v46c0,0-4,30-21,37s-27,11-27,31s11,36-6,41s-14,15,0,15s25.353-13.574,26.774-25.656
		c1.963-16.688-8.344-22.576,7.853-32.883c9.972-6.346,19.142-5.4,19.142-5.4l-0.492,53.986c0,0-28.436,6.475-36.318,25.523
		c-11.779,28.463,4.969,47.215,1.042,62.43c-6.038,23.4-23.395,19.504-22.5,28c1,9.5,37.038,0.957,39-28
		c1.114-16.443-2.813-21.393-3.309-29.059c-0.981-15.215,9.325-26.994,23.067-25.52l-0.259,88.578c0,0,0.63,17.898-13.484,28.719
		c-14.724,11.287-18.649,9.814-26.013,16.688c-17.938,16.744-6.871,35.826-15.705,41.717C3.185-27.435,2.032-15.216,14.302-20.124
		c22.105-8.844,21.777-16.334,24.541-33.375c2.943-18.158,29.606-22.436,29.606-22.436h4l0.903,70.988h111.097l7-400L72.449-405.935
		z"/>
	<path fill="#7DC6DD" d="M68.449-75.935"/>
	<circle fill="#60A37B" cx="49.617" cy="-316.769" r="7.833"/>
	<circle fill="#60A37B" cx="50.617" cy="-295.769" r="6.167"/>
	<circle fill="#60A37B" cx="32.95" cy="-299.103" r="5.834"/>
	<circle fill="#60A37B" cx="41.45" cy="-281.935" r="4.333"/>
	<circle fill="#60A37B" cx="28.783" cy="-287.935" r="4.667"/>
	<circle fill="#60A37B" cx="31.45" cy="-274.603" r="4"/>
	<circle fill="#60A37B" cx="42.95" cy="-267.769" r="3.5"/>
	<circle fill="#60A37B" cx="31.95" cy="-261.769" r="3.834"/>
	<circle fill="#60A37B" cx="38.783" cy="-251.935" r="3.667"/>
	<circle fill="#60A37B" cx="25.783" cy="-250.269" r="3.333"/>
	<circle fill="#60A37B" cx="29.617" cy="-241.435" r="2.833"/>
	<circle fill="#60A37B" cx="15.783" cy="-242.935" r="3"/>
	<circle fill="#60A37B" cx="68.45" cy="-237.269" r="9"/>
	<circle fill="#60A37B" cx="57.116" cy="-214.603" r="8"/>
	<circle fill="#60A37B" cx="47.283" cy="-228.103" r="6.833"/>
	<circle fill="#60A37B" cx="36.617" cy="-216.435" r="6.167"/>
	<circle fill="#60A37B" cx="33.45" cy="-199.935" r="6.167"/>
	<circle fill="#60A37B" cx="47.95" cy="-199.101" r="6.5"/>
	<circle fill="#60A37B" cx="36.95" cy="-184.103" r="4.834"/>
	<circle fill="#60A37B" cx="48.783" cy="-179.601" r="4"/>
	<circle fill="#60A37B" cx="41.284" cy="-168.769" r="3.833"/>
	<circle fill="#60A37B" cx="49.95" cy="-165.103" r="3.833"/>
	<circle fill="#60A37B" cx="39.617" cy="-156.435" r="4.167"/>
	<circle fill="#60A37B" cx="42.116" cy="-140.435" r="3.5"/>
	<circle fill="#60A37B" cx="35.117" cy="-146.935" r="3.333"/>
	<circle fill="#60A37B" cx="50.117" cy="-149.601" r="4.333"/>
	<circle fill="#60A37B" cx="31.283" cy="-132.435" r="3.833"/>
	<circle fill="#60A37B" cx="61.617" cy="-91.769" r="6.167"/>
	<circle fill="#60A37B" cx="50.951" cy="-72.769" r="4.167"/>
	<circle fill="#60A37B" cx="51.284" cy="-85.101" r="3.833"/>
	<circle fill="#60A37B" cx="39.451" cy="-77.603" r="4.333"/>
	<circle fill="#60A37B" cx="25.45" cy="-53.269" r="3"/>
	<circle fill="#60A37B" cx="30.284" cy="-66.437" r="4.167"/>
	<circle fill="#60A37B" cx="40.95" cy="-64.103" r="4.833"/>
	<circle fill="#60A37B" cx="63.117" cy="-78.269" r="5.667"/>
	<circle fill="#60A37B" cx="31.95" cy="-34.769" r="3.5"/>
	<circle fill="#60A37B" cx="21.284" cy="-34.103" r="3.5"/>
	<circle fill="#60A37B" cx="32.95" cy="-47.437" r="3.5"/>
	<circle fill="#60A37B" cx="34.95" cy="-55.769" r="3.5"/>
	<circle fill="#60A37B" cx="23.784" cy="-41.937" r="3"/>
	<circle fill="#60A37B" cx="18.284" cy="-26.103" r="3.167"/>
	<path fill="#8BCEAB" d="M324.433-404.946l-2.941,45.012c0,0,4.405,30,23.125,37c18.721,7,29.732,11,29.732,31s-12.113,36,6.607,41
		c18.72,5,15.416,15,0,15c-15.417,0-27.919-13.574-29.484-25.656c-2.161-16.688,9.188-22.576-8.646-32.883
		c-10.982-6.346-21.078-5.4-21.078-5.4l0.541,53.986c0,0,31.313,6.475,39.993,25.523c12.972,28.463-5.47,47.215-1.146,62.43
		c6.649,23.4,25.762,19.504,24.776,28c-1.102,9.5-40.785,0.957-42.946-28c-1.228-16.443,3.099-21.393,3.644-29.059
		c1.081-15.215-10.269-26.994-25.401-25.52l0.284,88.578c0,0-0.692,17.898,14.849,28.719c16.215,11.287,20.538,9.814,28.645,16.688
		c19.755,16.744,7.566,35.826,17.295,41.717c15.486,9.377,16.754,21.596,3.242,16.688c-24.34-8.844-23.98-16.334-27.021-33.375
		c-3.244-18.158-32.604-22.436-32.604-22.436h-4.405l3.381,70.988H183.196l7.253-400H324.433z"/>
	<path fill="#7DC6DD" d="M325.896-75.935"/>
	<ellipse fill="#60A37B" cx="346.634" cy="-316.769" rx="8.626" ry="7.834"/>
	<ellipse fill="#60A37B" cx="345.533" cy="-295.769" rx="6.791" ry="6.166"/>
	<ellipse fill="#60A37B" cx="364.987" cy="-299.103" rx="6.423" ry="5.834"/>
	<ellipse fill="#60A37B" cx="355.627" cy="-281.935" rx="4.771" ry="4.332"/>
	<ellipse fill="#60A37B" cx="369.575" cy="-287.935" rx="5.139" ry="4.666"/>
	<ellipse fill="#60A37B" cx="366.639" cy="-274.603" rx="4.405" ry="4"/>
	<ellipse fill="#60A37B" cx="353.976" cy="-267.769" rx="3.854" ry="3.5"/>
	<ellipse fill="#60A37B" cx="366.088" cy="-261.769" rx="4.221" ry="3.834"/>
	<ellipse fill="#60A37B" cx="358.563" cy="-251.935" rx="4.038" ry="3.666"/>
	<ellipse fill="#60A37B" cx="372.879" cy="-250.269" rx="3.671" ry="3.332"/>
	<ellipse fill="#60A37B" cx="368.658" cy="-241.435" rx="3.12" ry="2.834"/>
	<ellipse fill="#60A37B" cx="383.892" cy="-242.935" rx="3.304" ry="3"/>
	<ellipse fill="#60A37B" cx="325.895" cy="-237.269" rx="9.911" ry="9"/>
	<ellipse fill="#60A37B" cx="338.375" cy="-214.603" rx="8.81" ry="8"/>
	<ellipse fill="#60A37B" cx="349.204" cy="-228.103" rx="7.525" ry="6.834"/>
	<ellipse fill="#60A37B" cx="360.95" cy="-216.435" rx="6.791" ry="6.166"/>
	<ellipse fill="#60A37B" cx="364.437" cy="-199.935" rx="6.791" ry="6.168"/>
	<ellipse fill="#60A37B" cx="348.469" cy="-199.101" rx="7.158" ry="6.5"/>
	<ellipse fill="#60A37B" cx="360.583" cy="-184.103" rx="5.322" ry="4.834"/>
	<ellipse fill="#60A37B" cx="347.552" cy="-179.601" rx="4.405" ry="4"/>
	<ellipse fill="#60A37B" cx="355.811" cy="-168.769" rx="4.222" ry="3.834"/>
	<ellipse fill="#60A37B" cx="346.267" cy="-165.103" rx="4.221" ry="3.834"/>
	<ellipse fill="#60A37B" cx="357.646" cy="-156.435" rx="4.589" ry="4.168"/>
	<ellipse fill="#60A37B" cx="354.893" cy="-140.435" rx="3.854" ry="3.5"/>
	<ellipse fill="#60A37B" cx="362.602" cy="-146.935" rx="3.671" ry="3.334"/>
	<ellipse fill="#60A37B" cx="346.084" cy="-149.601" rx="4.771" ry="4.332"/>
	<ellipse fill="#60A37B" cx="366.823" cy="-132.435" rx="4.221" ry="3.834"/>
	<ellipse fill="#60A37B" cx="333.421" cy="-91.769" rx="6.791" ry="6.168"/>
	<ellipse fill="#60A37B" cx="345.166" cy="-72.769" rx="4.588" ry="4.166"/>
	<ellipse fill="#60A37B" cx="344.799" cy="-85.101" rx="4.222" ry="3.832"/>
	<ellipse fill="#60A37B" cx="357.83" cy="-77.603" rx="4.771" ry="4.334"/>
	<ellipse fill="#60A37B" cx="373.246" cy="-53.269" rx="3.304" ry="3"/>
	<ellipse fill="#60A37B" cx="367.924" cy="-66.437" rx="4.588" ry="4.168"/>
	<ellipse fill="#60A37B" cx="356.178" cy="-64.103" rx="5.322" ry="4.834"/>
	<ellipse fill="#60A37B" cx="331.768" cy="-78.269" rx="6.239" ry="5.666"/>
	<ellipse fill="#60A37B" cx="366.088" cy="-34.769" rx="3.854" ry="3.5"/>
	<ellipse fill="#60A37B" cx="377.835" cy="-34.103" rx="3.854" ry="3.5"/>
	<ellipse fill="#60A37B" cx="364.987" cy="-47.437" rx="3.854" ry="3.5"/>
	<ellipse fill="#60A37B" cx="362.785" cy="-55.769" rx="3.854" ry="3.5"/>
	<ellipse fill="#60A37B" cx="375.082" cy="-41.937" rx="3.304" ry="3"/>
	<ellipse fill="#60A37B" cx="381.138" cy="-26.103" rx="3.487" ry="3.166"/>
	<path fill="#72C596" d="M297.782-209.923c0,99.408-43.169,179.988-96.417,179.988s-96.417-80.58-96.417-179.988
		c0-99.43,43.169-180.012,96.417-180.012S297.782-309.353,297.782-209.923z"/>
	<path fill="#72C596" d="M314.283-558.431c0,19.33-16.977,34.998-37.917,34.998c-20.939,0-37.916-15.668-37.916-34.998
		c0-19.336,16.977-35.004,37.916-35.004C297.307-593.435,314.283-577.767,314.283-558.431z"/>
	<path fill="#72C596" d="M158.283-555.431c0,19.33-16.977,34.998-37.917,34.998c-20.939,0-37.916-15.668-37.916-34.998
		c0-19.336,16.977-35.004,37.916-35.004C141.307-590.435,158.283-574.767,158.283-555.431z"/>
	<g>
		<g>
			<path fill="#7DC6DD" d="M115.56-693.441c0.65,0,2.082-0.986,0.781-0.986C115.69-694.427,114.259-693.441,115.56-693.441
				L115.56-693.441z"/>
		</g>
	</g>
	<g>
		<g>
			<path fill="none" stroke="#F2E4D2" stroke-miterlimit="10" d="M282.45-692.934"/>
		</g>
	</g>
	<g>
		<g>
			<path fill="none" stroke="#F2E4D2" stroke-miterlimit="10" d="M194.45-693.934"/>
		</g>
	</g>
	<path fill="#8BCEAB" d="M324.926,0.618l2.023,127.449c-2.206,25.479,41-4,41,29c0,32.062-120,28-119,14c0.778-10.891-6-128-59-122
		c-32.804,3.715-43.046,125.094-45,129c-3,6-114,29-116-13c-1.813-38.074,45,1,43.169-35.008c0,0,2.881-125.732,3.77-129.441
		H324.926z"/>
	<path fill="#D6C370" d="M30.958,154.464c0,0-4.187,4.984-2.193,10.965c0,0-12.559-7.375-16.347,0.996
		C12.02,154.862,20.791,153.468,30.958,154.464z"/>
	<path fill="#D6C370" d="M31.759,166.423c0,0-1.199,5.385,4.98,8.975c0,0-12.755-4.189-16.543,4.182
		C19.798,168.017,21.592,165.425,31.759,166.423z"/>
	<path fill="#D6C370" d="M38.033,178.126l7.841,2.83c0,0-8.395,3.072-11.97,13.586C30.997,187.55,31.905,181.747,38.033,178.126z"/>
	<path fill="#D6C370" d="M363.706,144.464c0,0,4.069,4.984,2.131,10.965c0,0,13.207-8.375,16.89-0.004
		C383.113,143.862,373.588,143.468,363.706,144.464z"/>
	<path fill="#D6C370" d="M363.899,157.423c0,0,0.193,4.385-5.812,7.975c0,0,14.369-4.189,18.051,4.182
		C376.525,158.017,373.781,156.425,363.899,157.423z"/>
	<path fill="#D6C370" d="M356.829,168.126l-7.621,2.83c0,0,8.158,3.072,11.634,13.586
		C363.667,177.55,362.785,171.747,356.829,168.126z"/>
	<path fill="#72C596" d="M75.933,8.044c0,0,139.461,50.713-3.889,123.271L75.933,8.044z"/>
	<path fill="#72C596" d="M325.212,5.571c0,0-124.187,45.307,1.429,119.307L325.212,5.571z"/>
	<path fill="#E06899" d="M529.95-411.376c-2.881-20-6-94.502-1.5-143.002c3.742-40.336,17.835-96.815,42.335-118.186
		c3.563-3.109-30.614-46.478-26.833-49.163c3.811-2.707,45.583,35.274,49.586,33.009c14.496-8.207,30.144-13.496,46.221-15.628
		c5.359-0.709,10.294-53.232,15.722-53.232c6.436,0,13.158,52.648,19.217,53.574c18.174,2.778,34.613,9.509,49.126,18.935
		c2.902,1.885,44.048-32.706,46.795-30.616c3.355,2.555-31.726,41.837-28.608,44.663c29.753,26.976,31.94,73.643,35.44,119.145
		c2.627,34.148,4.752,126.445,1.92,140.279L529.95-411.376z"/>
	<path fill="#E06899" d="M528.449-399.044v46c0,0-4,30-21,37s-27,11-27,31s11,36-6,41s-14,15,0,15s25.353-13.576,26.774-25.658
		c1.963-16.686-8.344-22.576,7.853-32.883c9.972-6.346,19.142-5.398,19.142-5.398l-0.492,53.984c0,0-28.436,6.475-36.318,25.523
		c-11.779,28.465,4.969,47.217,1.042,62.432c-6.038,23.4-23.395,19.502-22.5,28c1,9.5,37.038,0.955,39-28
		c1.114-16.443-2.813-21.393-3.309-29.061c-0.981-15.213,9.325-26.992,23.067-25.518l-0.259,88.578c0,0,0.63,17.896-13.484,28.717
		c-14.724,11.289-18.649,9.816-26.013,16.688c-17.938,16.744-6.871,35.828-15.705,41.719c-14.062,9.377-15.215,21.594-2.945,16.686
		c22.105-8.842,21.777-16.334,24.541-33.373c2.943-18.16,29.606-22.436,29.606-22.436h4l0.903,70.988h111.097l7-400L528.449-399.044
		z"/>
	<path fill="#7DC6DD" d="M524.449-69.044"/>
	<circle fill="#B63C79" cx="505.617" cy="-309.878" r="7.833"/>
	<circle fill="#B63C79" cx="506.617" cy="-288.878" r="6.167"/>
	<circle fill="#B63C79" cx="488.95" cy="-292.212" r="5.834"/>
	<circle fill="#B63C79" cx="497.45" cy="-275.046" r="4.333"/>
	<circle fill="#B63C79" cx="484.783" cy="-281.046" r="4.667"/>
	<circle fill="#B63C79" cx="487.45" cy="-267.712" r="4"/>
	<circle fill="#B63C79" cx="498.95" cy="-260.878" r="3.5"/>
	<circle fill="#B63C79" cx="487.95" cy="-254.878" r="3.834"/>
	<circle fill="#B63C79" cx="494.783" cy="-245.046" r="3.667"/>
	<circle fill="#B63C79" cx="481.783" cy="-243.38" r="3.333"/>
	<circle fill="#B63C79" cx="485.617" cy="-234.544" r="2.833"/>
	<circle fill="#B63C79" cx="471.783" cy="-236.046" r="3"/>
	<circle fill="#B63C79" cx="524.45" cy="-230.378" r="9"/>
	<circle fill="#B63C79" cx="513.116" cy="-207.712" r="8"/>
	<circle fill="#B63C79" cx="503.283" cy="-221.212" r="6.833"/>
	<circle fill="#B63C79" cx="492.617" cy="-209.546" r="6.167"/>
	<circle fill="#B63C79" cx="489.45" cy="-193.044" r="6.167"/>
	<circle fill="#B63C79" cx="503.95" cy="-192.212" r="6.5"/>
	<circle fill="#B63C79" cx="492.95" cy="-177.212" r="4.834"/>
	<circle fill="#B63C79" cx="504.783" cy="-172.712" r="4"/>
	<circle fill="#B63C79" cx="497.284" cy="-161.878" r="3.833"/>
	<circle fill="#B63C79" cx="505.95" cy="-158.212" r="3.833"/>
	<circle fill="#B63C79" cx="495.617" cy="-149.544" r="4.167"/>
	<circle fill="#B63C79" cx="498.116" cy="-133.544" r="3.5"/>
	<circle fill="#B63C79" cx="491.117" cy="-140.044" r="3.333"/>
	<circle fill="#B63C79" cx="506.117" cy="-142.712" r="4.333"/>
	<circle fill="#B63C79" cx="487.283" cy="-125.544" r="3.833"/>
	<circle fill="#B63C79" cx="517.617" cy="-84.878" r="6.167"/>
	<circle fill="#B63C79" cx="506.951" cy="-65.88" r="4.167"/>
	<circle fill="#B63C79" cx="507.284" cy="-78.212" r="3.833"/>
	<circle fill="#B63C79" cx="495.451" cy="-70.712" r="4.333"/>
	<circle fill="#B63C79" cx="481.45" cy="-46.38" r="3"/>
	<circle fill="#B63C79" cx="486.284" cy="-59.546" r="4.167"/>
	<circle fill="#B63C79" cx="496.95" cy="-57.212" r="4.833"/>
	<circle fill="#B63C79" cx="519.117" cy="-71.38" r="5.667"/>
	<circle fill="#B63C79" cx="487.95" cy="-27.88" r="3.5"/>
	<circle fill="#B63C79" cx="477.284" cy="-27.212" r="3.5"/>
	<circle fill="#B63C79" cx="488.95" cy="-40.546" r="3.5"/>
	<circle fill="#B63C79" cx="490.95" cy="-48.88" r="3.5"/>
	<circle fill="#B63C79" cx="479.784" cy="-35.046" r="3"/>
	<circle fill="#B63C79" cx="474.284" cy="-19.212" r="3.167"/>
	<path fill="#E06899" d="M780.433-398.056l-2.941,45.012c0,0,4.405,30,23.125,37c18.721,7,29.732,11,29.732,31s-12.113,36,6.607,41
		c18.72,5,15.416,15,0,15c-15.417,0-27.919-13.576-29.484-25.658c-2.161-16.686,9.188-22.576-8.646-32.883
		c-10.982-6.346-21.078-5.398-21.078-5.398l0.541,53.984c0,0,31.313,6.475,39.993,25.523c12.972,28.465-5.47,47.217-1.146,62.432
		c6.649,23.4,25.762,19.502,24.776,28c-1.102,9.5-40.785,0.955-42.946-28c-1.228-16.443,3.099-21.393,3.644-29.061
		c1.081-15.213-10.269-26.992-25.401-25.518l0.284,88.578c0,0-0.692,17.896,14.849,28.717c16.215,11.289,20.538,9.816,28.645,16.688
		c19.755,16.744,7.566,35.828,17.295,41.719c15.486,9.377,16.754,21.594,3.242,16.686c-24.34-8.842-23.98-16.334-27.021-33.373
		c-3.244-18.16-32.604-22.436-32.604-22.436h-4.405l3.381,70.988H639.196l7.253-400H780.433z"/>
	<path fill="#7DC6DD" d="M781.896-69.044"/>
	<ellipse fill="#B63C79" cx="802.634" cy="-309.878" rx="8.626" ry="7.832"/>
	<ellipse fill="#B63C79" cx="801.533" cy="-288.878" rx="6.791" ry="6.166"/>
	<ellipse fill="#B63C79" cx="820.987" cy="-292.212" rx="6.423" ry="5.834"/>
	<ellipse fill="#B63C79" cx="811.627" cy="-275.046" rx="4.771" ry="4.334"/>
	<ellipse fill="#B63C79" cx="825.575" cy="-281.046" rx="5.139" ry="4.668"/>
	<ellipse fill="#B63C79" cx="822.639" cy="-267.712" rx="4.405" ry="4"/>
	<ellipse fill="#B63C79" cx="809.976" cy="-260.878" rx="3.854" ry="3.5"/>
	<ellipse fill="#B63C79" cx="822.088" cy="-254.878" rx="4.221" ry="3.832"/>
	<ellipse fill="#B63C79" cx="814.563" cy="-245.046" rx="4.038" ry="3.668"/>
	<ellipse fill="#B63C79" cx="828.879" cy="-243.38" rx="3.671" ry="3.334"/>
	<ellipse fill="#B63C79" cx="824.658" cy="-234.544" rx="3.12" ry="2.832"/>
	<ellipse fill="#B63C79" cx="839.892" cy="-236.046" rx="3.304" ry="3"/>
	<ellipse fill="#B63C79" cx="781.895" cy="-230.378" rx="9.911" ry="9"/>
	<ellipse fill="#B63C79" cx="794.375" cy="-207.712" rx="8.81" ry="8"/>
	<ellipse fill="#B63C79" cx="805.204" cy="-221.212" rx="7.525" ry="6.834"/>
	<ellipse fill="#B63C79" cx="816.95" cy="-209.546" rx="6.791" ry="6.168"/>
	<ellipse fill="#B63C79" cx="820.437" cy="-193.044" rx="6.791" ry="6.166"/>
	<ellipse fill="#B63C79" cx="804.469" cy="-192.212" rx="7.158" ry="6.5"/>
	<ellipse fill="#B63C79" cx="816.583" cy="-177.212" rx="5.322" ry="4.834"/>
	<ellipse fill="#B63C79" cx="803.552" cy="-172.712" rx="4.405" ry="4"/>
	<ellipse fill="#B63C79" cx="811.811" cy="-161.878" rx="4.222" ry="3.832"/>
	<ellipse fill="#B63C79" cx="802.267" cy="-158.212" rx="4.221" ry="3.834"/>
	<ellipse fill="#B63C79" cx="813.646" cy="-149.544" rx="4.589" ry="4.166"/>
	<ellipse fill="#B63C79" cx="810.893" cy="-133.544" rx="3.854" ry="3.5"/>
	<ellipse fill="#B63C79" cx="818.602" cy="-140.044" rx="3.671" ry="3.334"/>
	<ellipse fill="#B63C79" cx="802.084" cy="-142.712" rx="4.771" ry="4.334"/>
	<ellipse fill="#B63C79" cx="822.823" cy="-125.544" rx="4.221" ry="3.834"/>
	<ellipse fill="#B63C79" cx="789.421" cy="-84.878" rx="6.791" ry="6.166"/>
	<ellipse fill="#B63C79" cx="801.166" cy="-65.88" rx="4.588" ry="4.166"/>
	<ellipse fill="#B63C79" cx="800.799" cy="-78.212" rx="4.222" ry="3.834"/>
	<ellipse fill="#B63C79" cx="813.83" cy="-70.712" rx="4.771" ry="4.334"/>
	<ellipse fill="#B63C79" cx="829.246" cy="-46.38" rx="3.304" ry="3"/>
	<ellipse fill="#B63C79" cx="823.924" cy="-59.546" rx="4.588" ry="4.166"/>
	<ellipse fill="#B63C79" cx="812.178" cy="-57.212" rx="5.322" ry="4.832"/>
	<ellipse fill="#B63C79" cx="787.768" cy="-71.38" rx="6.239" ry="5.666"/>
	<ellipse fill="#B63C79" cx="822.088" cy="-27.88" rx="3.854" ry="3.5"/>
	<ellipse fill="#B63C79" cx="833.835" cy="-27.212" rx="3.854" ry="3.5"/>
	<ellipse fill="#B63C79" cx="820.987" cy="-40.546" rx="3.854" ry="3.5"/>
	<ellipse fill="#B63C79" cx="818.785" cy="-48.88" rx="3.854" ry="3.5"/>
	<ellipse fill="#B63C79" cx="831.082" cy="-35.046" rx="3.304" ry="3"/>
	<ellipse fill="#B63C79" cx="837.138" cy="-19.212" rx="3.487" ry="3.166"/>
	<path fill="#D65490" d="M753.782-203.032c0,99.408-43.169,179.988-96.417,179.988s-96.417-80.58-96.417-179.988
		c0-99.43,43.169-180.012,96.417-180.012S753.782-302.462,753.782-203.032z"/>
	<path fill="#D65490" d="M772.616-556.374c0,19.33-16.977,34.998-37.917,34.998c-20.939,0-37.916-15.668-37.916-34.998
		c0-19.336,16.977-35.004,37.916-35.004C755.64-591.378,772.616-575.71,772.616-556.374z"/>
	<path fill="#D65490" d="M616.616-553.374c0,19.33-16.977,34.998-37.917,34.998c-20.939,0-37.916-15.668-37.916-34.998
		c0-19.336,16.977-35.004,37.916-35.004C599.64-588.378,616.616-572.71,616.616-553.374z"/>
	<g>
		<g>
			<path fill="#7DC6DD" d="M572.893-692.385c0.65,0,2.082-0.986,0.781-0.986C573.023-693.372,571.592-692.385,572.893-692.385
				L572.893-692.385z"/>
		</g>
	</g>
	<g>
		<g>
			<path fill="none" stroke="#F2E4D2" stroke-miterlimit="10" d="M740.783-690.878"/>
		</g>
	</g>
	<g>
		<g>
			<path fill="none" stroke="#F2E4D2" stroke-miterlimit="10" d="M651.783-692.878"/>
		</g>
	</g>
	<path fill="#E06899" d="M779.259,9.622l2.023,127.449c-2.206,25.479,41-4,41,29c0,32.062-120,28-119,14c0.778-10.891-6-128-59-122
		c-32.804,3.715-43.046,125.094-45,129c-3,6-114,29-116-13c-1.813-38.074,45,1,43.169-35.008c0,0,2.881-125.732,3.77-129.441
		H779.259z"/>
	<path fill="#D6C370" d="M485.291,163.468c0,0-4.187,4.984-2.193,10.965c0,0-12.559-7.375-16.347,0.996
		C466.353,163.866,475.124,162.472,485.291,163.468z"/>
	<path fill="#D6C370" d="M486.092,175.427c0,0-1.199,5.385,4.98,8.975c0,0-12.755-4.189-16.543,4.182
		C474.131,177.021,475.925,174.429,486.092,175.427z"/>
	<path fill="#D6C370" d="M492.366,187.13l7.841,2.83c0,0-8.395,3.072-11.97,13.586C485.33,196.554,486.238,190.751,492.366,187.13z"
		/>
	<path fill="#D6C370" d="M818.039,153.468c0,0,4.069,4.984,2.131,10.965c0,0,13.207-8.375,16.89-0.004
		C837.446,152.866,827.921,152.472,818.039,153.468z"/>
	<path fill="#D6C370" d="M818.232,166.427c0,0,0.193,4.385-5.812,7.975c0,0,14.369-4.189,18.051,4.182
		C830.858,167.021,828.114,165.429,818.232,166.427z"/>
	<path fill="#D6C370" d="M811.162,177.13l-7.621,2.83c0,0,8.158,3.072,11.634,13.586C818,186.554,817.118,180.751,811.162,177.13z"
		/>
	<path fill="#D65490" d="M530.266,17.048c0,0,139.461,50.713-3.889,123.271L530.266,17.048z"/>
	<path fill="#D65490" d="M779.545,14.575c0,0-124.187,45.307,1.429,119.307L779.545,14.575z"/>
	<path fill="#7DC6DD" d="M1002.99-412.552c-14.841-6.579-23.789-26.916-27.844-53.051c-1.788-11.528,1.847-27.787-13.702,0.717
		c0-18,17.333-89.334,4.667-56.667c-4.14,10.678,21.333-72.667,1.333-39.333c6.911-29.377,31.298-68.685,44.998-80.001
		c15.334-12.667-5.881-12.347-0.666-12.667c32.666-2,6.103-10.462,10.666-12.667c10.205-4.931,18.469,3.03,21.334-0.667
		c5.342-6.894-3.038-7.777-0.667-8.667c10.667-4,12.333,1.333,17.333,3.333c0,0,78.829,6.85,115.667,1.333
		c13.587-2.034,27.333-13.333,23.333-3.333c-2.984,7.46,14.86-1.998,14,4.667c-2.667,20.667,14.95,5.36,16.667,6.667
		c3.355,2.554-12.492,2.034,4,21.333c10.685,12.504,26.993,31.484,35.056,57.408c-7.459-5.424,5.215,15.9,9.275,33.497
		c-12.368-7.215,1.546,9.275,9.791,26.797c-36.072-20.613,5.669,18.036,1.547,51.018c-30.92-43.287,2.061,46.38-37.369,60.06
		L1002.99-412.552z"/>
	<path fill="#52BFD1" d="M1245.655-557.55c0,19.33-16.977,34.998-37.917,34.998c-20.939,0-37.916-15.668-37.916-34.998
		c0-19.334,16.977-35.002,37.916-35.002C1228.679-592.552,1245.655-576.884,1245.655-557.55z"/>
	<path fill="#52BFD1" d="M1089.655-554.55c0,19.33-16.977,34.998-37.917,34.998c-20.939,0-37.916-15.668-37.916-34.998
		c0-19.334,16.977-35.002,37.916-35.002C1072.679-589.552,1089.655-573.884,1089.655-554.55z"/>
	<g>
		<g>
			<path fill="#7DC6DD" d="M1046.932-692.561c0.65,0,2.082-0.986,0.781-0.986C1047.062-693.547,1045.631-692.561,1046.932-692.561
				L1046.932-692.561z"/>
		</g>
	</g>
	<g>
		<g>
			<path fill="none" stroke="#F2E4D2" stroke-miterlimit="10" d="M1213.822-692.054"/>
		</g>
	</g>
	<g>
		<g>
			<path fill="none" stroke="#F2E4D2" stroke-miterlimit="10" d="M1125.822-693.054"/>
		</g>
	</g>
	<path fill="#7DC6DD" d="M1250.8,8.811l-9.409,174.67c25.552,21.466-2.013,37.357-2.013,37.357l-16.269,154.276
		c25.5,13.5,54.5,3.667,100-13.333c-23.25,14.25,1.334,19,1.334,19s-24.265,14.294,1.271,23.601
		c8.55,3.116-136.272,7.064-143.272-14.436c0,0,54.5-349.5-66.619-332.687c-76.971,10.685-54.881,333.187-54.881,333.187
		c-6.593,13.185-92.896,20.783-130.5,15.5c0,0,27.5-11-1.75-18.25c21.5-7.75,7.557-13.524-1.978-20.25
		c0,0,90.308,26.873,97.808,7.873l-6.792-150.537c-17.173-8.485-15.362-28.296,0.566-39.05
		c-2.68-88.741-16.966-175.128-16.536-176.922H1250.8z"/>
	<g>
		<path fill="#7DC6DD" d="M1002.777-397.554l-29.169,81.501c0,0-3.499,1.334-7.665,8.667c7.166-3.5,4.666,4.001,2.666,6.167
			s-15.021,13.084-16.619,19.779c11.453-8.28,9.911,2.613,5.453,6.054c-3.5,3.5-6.653,2.938-11.05,12.432
			c11.392-4.297,10.973-0.146,7.529,1.911c-4.747,2.835-5.341,3.898-6.479,7.823c11.181-7.685-1.332,14.001-1.332,14.001
			c-17.671,79.09-20.56,135.287-3.667,153.335c-14.824,10.15-21.368,28.406,8.453,35.778c17.5,1.5,14.692-14.629,5.026-24.963
			c-3.834-9.333,13.916,6.672,15.916,1.005s-12.396-20.487-12.396-20.487s-22.334-26.666,12.57-138.943
			c0,0,10.264-28.129,20.282-57.742c0,0-4.478,21.196-8.74,53.028c-0.855,6.389-13.153,37.169-9.446,30.991
			c8-13.334,6.085-2.729,5.684,1.357c-0.17,1.729-5.655,13.741-4.713,12.246c4.14-6.568,5.166-1.213,3.52,0.894
			c-2.89,3.696-9.015,21.556-7.299,18.723c7.738-12.777,8.188-2.879,5.933,0.462c-3.163,4.687-10.582,21.101-7.913,18.254
			c6.748-7.198,9.547,3.516,6.845,7.378c-9.958,14.234-10.776,25.878-8.431,22.894c10.611-13.498,10.493-2.161,8.335,1.698
			c-3.749,6.705-10.029,25.714-7.229,22.834c8.913-9.168,10.601,0.996,8.535,6.278c-1.063,2.72-4.433,16.26-3.44,14.605
			c3.819-6.367,6.741-1.925,4.863,0.593c-6.392,8.571-6.924,28.682-5.458,25.55c6.197-13.243,8.491-4.124,9.554,1.262
			c0.858,4.351-13.12,14.612-6.498,23.865c7.215-17.402,17.675,0.855,13.827,4.472c-3.642,3.422-3.787,19.461-2.453,16.834
			c8.234-16.214,12.568,7.439,13.674,9.465h122.667l-6.001-400H1002.777z"/>
		<path fill="#7DC6DD" d="M1251.589-397.554l29.169,81.501c0,0,3.499,1.334,7.665,8.667c-7.166-3.5-4.666,4.001-2.666,6.167
			s15.021,13.084,16.619,19.779c-11.453-8.28-9.911,2.613-5.453,6.054c3.5,3.5,6.653,2.938,11.05,12.432
			c-11.392-4.297-10.973-0.146-7.529,1.911c4.747,2.835,5.341,3.898,6.479,7.823c-11.181-7.685,1.332,14.001,1.332,14.001
			c17.671,79.09,20.56,135.287,3.667,153.335c14.824,10.15,21.368,28.406-8.453,35.778c-17.5,1.5-14.692-14.629-5.026-24.963
			c3.834-9.333-13.916,6.672-15.916,1.005s12.396-20.487,12.396-20.487s22.334-26.666-12.57-138.943
			c0,0-10.264-28.129-20.282-57.742c0,0,4.478,21.196,8.74,53.028c0.855,6.389,13.153,37.169,9.446,30.991
			c-8-13.334-6.085-2.729-5.684,1.357c0.17,1.729,5.655,13.741,4.713,12.246c-4.14-6.568-5.166-1.213-3.52,0.894
			c2.89,3.696,9.015,21.556,7.299,18.723c-7.738-12.777-8.188-2.879-5.933,0.462c3.163,4.687,10.582,21.101,7.913,18.254
			c-6.748-7.198-9.547,3.516-6.845,7.378c9.958,14.234,10.776,25.878,8.431,22.894c-10.611-13.498-10.493-2.161-8.335,1.698
			c3.749,6.705,10.029,25.714,7.229,22.834c-8.913-9.168-10.601,0.996-8.535,6.278c1.063,2.72,4.433,16.26,3.44,14.605
			c-3.819-6.367-6.741-1.925-4.863,0.593c6.392,8.571,6.924,28.682,5.458,25.55c-6.197-13.243-8.491-4.124-9.554,1.262
			c-0.858,4.351,13.12,14.612,6.498,23.865c-7.215-17.402-17.675,0.855-13.827,4.472c3.642,3.422,3.787,19.461,2.453,16.834
			c-8.234-16.214-12.568,7.439-13.674,9.465h-135.48l-2.667-400H1251.589z"/>
	</g>
	<path fill="#D6C370" d="M933.761-60.401c0,0,4.053,5.093,10.311,4.325c0,0-9.722,10.845-2.268,16.22
		C930.392-41.761,930.765-50.635,933.761-60.401z"/>
	<path fill="#D6C370" d="M945.405-54.273c0,0,6.111,4.142,8.594,0.13c0,0-2.655,9.055,6.141,11.716
		C948.728-40.521,945.746-44.062,945.405-54.273z"/>
	<path fill="#D6C370" d="M957.113-57.684l3.968-7.332c0,0,1.787,8.758,11.651,13.861C965.386-49.323,959.782-51.085,957.113-57.684z
		"/>
	<path fill="#D6C370" d="M1321.635-63.28c0,0-4.046,5.002-10.296,4.329c0,0,9.717,10.439,2.275,15.757
		C1325.011-45.182,1324.633-53.812,1321.635-63.28z"/>
	<path fill="#D6C370" d="M1310.631-54.251c0,0-4.106,1.216-9.894-0.268c0,0,6.983,7.496,2.014,15.173
		C1312.622-45.378,1312.885-47.611,1310.631-54.251z"/>
	<path fill="#D6C370" d="M1298.181-54.004l-5.555-5.936c0,0,0.318,8.712-8.037,15.979
		C1292.13-44.056,1297.141-47.111,1298.181-54.004z"/>
	<path fill="#7DC6DD" d="M937.442,420.696"/>
</g>
<g id="face_layer" display="none">
	<g display="inline">
		<path fill="#FFFFFF" d="M-198.498-637.513c13.137,9.59,16.013,28.012,6.423,41.151c-9.589,13.137-28.013,16.012-41.149,6.422
			c-8.977-6.553-13.162-17.229-11.854-27.526l41.434-23.063C-201.865-639.716-200.141-638.712-198.498-637.513z"/>
		<path d="M-214.218-632.481c4.958,3.62,6.045,10.573,2.425,15.532s-10.575,6.045-15.533,2.426
			c-3.389-2.475-4.969-6.504-4.475-10.391l15.641-8.706C-215.488-633.312-214.838-632.934-214.218-632.481z"/>
	</g>
	<g display="inline">
		<path fill="#FFFFFF" d="M-275.301-584.151c-19.008,13.562-45.411,9.148-58.974-9.859c-13.562-19.008-9.148-45.412,9.858-58.974
			l66.791,36.417C-258.225-604.079-264.334-591.978-275.301-584.151z"/>
		<path d="M-293.442-634.216c-4.997,3.565-6.291,10.32-2.89,15.086c3.401,4.768,10.209,5.74,15.206,2.176
			c3.415-2.438,5.101-6.363,4.741-10.126l-15.109-8.262C-292.164-635.037-292.817-634.662-293.442-634.216z"/>
	</g>
	<path display="inline" d="M-299.559-556.552c14.174-8.723,4.333,21.334,44.333,15.334s25.667-13.334,41.667-17.334
		s22.797,50.809,16,74c-5.667,19.334-26.189-4.748-27-5.334c-12-8.666-50-8.666-68,6.334s-22,10-23,0
		S-312.559-548.552-299.559-556.552z"/>
	<path display="inline" fill="#FDFDFE" d="M-287.225-550.552c0,0,1.512,34.414,2.863,32.252
		c1.588-2.541,12.803-13.127,12.803-13.127c5.94,3.279,9.289,16.031,9.68,16.08c0.883,0.107,8.861-15.977,13.32-18.539
		c0.784-0.449,18.56,12.492,20.062,13.834c1.706,1.521,0.904-23.66,1.042-28.893C-238.405-546.103-273.445-530.493-287.225-550.552z
		"/>
	<path display="inline" fill="#FDFDFE" d="M-292.434-483.692c0,0,3.743-20.414,3.973-23.883c0.16-2.416,12.961,13.434,14.008,10.816
		c1.883-4.707,5.061-8.943,5.061-8.943c1.588,2.043,9.415,7.414,9.415,7.414c5.94-2.633,11.378-8.67,11.769-8.709
		c0.883-0.086,6.25,7.594,10.709,9.65c0.784,0.361,14.028-8.621,15.064-10.004c1.059-1.412-0.021,15.336,0.117,19.537
		C-240.089-501.347-275.768-495.942-292.434-483.692z"/>
	<path display="inline" d="M163.751-551.583l71.849,1.467c0,0-12.613,48.428-37.971,48.428
		C172.271-501.688,163.751-551.583,163.751-551.583z"/>
	<path display="inline" fill="#FDFDFE" d="M178.862-551.212c0,0,2.937,19.846,4.177,21.133l9.35-20.863l16.197,0.334
		c0.549-0.182,6.787,18.557,6.787,18.557c0.454,0.074,5.187-16.428,5.282-18.518C219.826-550.362,178.862-551.212,178.862-551.212z"
		/>
	<circle display="inline" fill="#FFFFFF" cx="160.594" cy="-608.099" r="43.25"/>
	<circle display="inline" cx="143.594" cy="-614.099" r="12.25"/>
	<circle display="inline" fill="#FFFFFF" cx="238.844" cy="-603.849" r="28.5"/>
	<circle display="inline" cx="230.844" cy="-608.349" r="11.25"/>
	<path display="inline" d="M693.829-543.719l-71.798-2.698c0,0,12.762-3.942,38.103-3.037
		C685.477-548.549,693.829-543.719,693.829-543.719z"/>
	<path display="inline" fill="#FDFDFE" d="M637.317-548.929c0,0,2.814,19.619,4.055,20.906l9.18-21.578
		C650.552-549.601,642.552-549.522,637.317-548.929z"/>
	<path display="inline" fill="#FFFFFF" d="M662.042-606.391c0.224,23.887-18.957,43.43-42.844,43.652
		c-23.887,0.224-43.43-18.959-43.652-42.847c-0.06-6.469,1.302-12.618,3.798-18.151l77.374-3.063
		C660.051-620.739,661.974-613.791,662.042-606.391z"/>
	<path display="inline" d="M630.572-599.495c0.374,6.758-4.796,12.538-11.551,12.914c-6.755,0.375-12.537-4.796-12.913-11.553
		c-0.375-6.753,4.796-12.534,11.551-12.91C624.415-611.419,630.195-606.248,630.572-599.495z"/>
	<path display="inline" fill="#FFFFFF" d="M722.417-593.434c-1.824,15.636-15.978,26.83-31.61,25.006
		c-15.635-1.825-26.829-15.979-25.004-31.613c0.506-4.335,1.958-8.326,4.126-11.794l51.118,5.763
		C722.412-602.14,722.933-597.846,722.417-593.434z"/>
	<circle display="inline" cx="693.477" cy="-592.545" r="11.25"/>
	<path display="inline" fill="#FDFDFE" d="M676.942-548.054c0,0-3.533,19.245-4.818,20.489l-8.43-21.881
		C663.694-549.445,671.732-548.827,676.942-548.054z"/>
	<g display="inline">
		<path fill="#FFFFFF" d="M1191.383-638.513c13.137,9.59,16.013,28.012,6.423,41.15c-9.589,13.137-28.013,16.012-41.149,6.422
			c-8.977-6.553-13.162-17.229-11.854-27.525l41.434-23.063C1188.016-640.716,1189.74-639.712,1191.383-638.513z"/>
		<path d="M1175.663-633.481c4.958,3.621,6.045,10.574,2.425,15.533s-10.575,6.045-15.533,2.426
			c-3.389-2.475-4.969-6.504-4.475-10.391l15.641-8.707C1174.393-634.312,1175.043-633.934,1175.663-633.481z"/>
	</g>
	<g display="inline">
		<path fill="#FFFFFF" d="M1114.58-585.151c-19.008,13.562-45.411,9.148-58.974-9.859s-9.148-45.412,9.858-58.975l66.791,36.418
			C1131.656-605.079,1125.547-592.978,1114.58-585.151z"/>
		<path d="M1096.438-635.216c-4.997,3.564-6.291,10.32-2.89,15.086c3.401,4.768,10.209,5.74,15.206,2.176
			c3.415-2.438,5.101-6.363,4.741-10.127l-15.109-8.262C1097.717-636.037,1097.063-635.662,1096.438-635.216z"/>
	</g>
	<path display="inline" d="M1090.322-557.552c14.174-8.723,4.333,21.334,44.333,15.334s25.667-13.334,41.667-17.334
		s22.797,50.809,16,74c-5.667,19.334-26.189-4.748-27-5.334c-12-8.666-50-8.666-68,6.334s-22,10-23,0
		S1077.322-549.552,1090.322-557.552z"/>
	<path display="inline" fill="#FDFDFE" d="M1102.656-551.552c0,0,1.512,34.414,2.863,32.252
		c1.588-2.541,12.803-13.127,12.803-13.127c5.94,3.279,9.289,16.031,9.68,16.08c0.883,0.107,8.861-15.977,13.32-18.539
		c0.784-0.449,18.56,12.492,20.062,13.834c1.706,1.521,0.904-23.66,1.042-28.893
		C1151.476-547.103,1116.436-531.493,1102.656-551.552z"/>
	<path display="inline" fill="#FDFDFE" d="M1097.447-484.692c0,0,3.743-20.414,3.973-23.883c0.16-2.416,12.961,13.434,14.008,10.816
		c1.883-4.707,5.061-8.943,5.061-8.943c1.588,2.043,9.415,7.414,9.415,7.414c5.94-2.633,11.378-8.67,11.769-8.709
		c0.883-0.086,6.25,7.594,10.709,9.65c0.784,0.361,14.028-8.621,15.064-10.004c1.059-1.412-0.021,15.336,0.117,19.537
		C1149.792-502.347,1114.113-496.942,1097.447-484.692z"/>
</g>
<g id="Layer_4" display="none">
	<g display="inline">
		<g opacity="0.7">
			<g>
				<path fill="#74AFD1" d="M-337.15-684.39c1.935,0,1.935-3,0-3S-339.084-684.39-337.15-684.39L-337.15-684.39z"/>
			</g>
		</g>
		<g opacity="0.7">
			<g>
				<path fill="#74AFD1" d="M-348.299-689.772c1.935,0,1.935-3,0-3S-350.234-689.772-348.299-689.772L-348.299-689.772z"/>
			</g>
		</g>
		<g opacity="0.7">
			<g>
				<path fill="#74AFD1" d="M-344.935-695.154c1.935,0,1.935-3,0-3S-346.87-695.154-344.935-695.154L-344.935-695.154z"/>
			</g>
		</g>
		<g opacity="0.7">
			<g>
				<path fill="#74AFD1" d="M-346.761-680.449c1.935,0,1.935-3,0-3S-348.696-680.449-346.761-680.449L-346.761-680.449z"/>
			</g>
		</g>
		<g opacity="0.7">
			<g>
				<path fill="#74AFD1" d="M-367.234-713.127c1.935,0,1.935-3,0-3S-369.168-713.127-367.234-713.127L-367.234-713.127z"/>
			</g>
		</g>
		<g opacity="0.7">
			<g>
				<path fill="#74AFD1" d="M-359.929-708.418c1.935,0,1.935-3,0-3S-361.864-708.418-359.929-708.418L-359.929-708.418z"/>
			</g>
		</g>
		<g opacity="0.7">
			<g>
				<path fill="#74AFD1" d="M-357.142-702.363c1.935,0,1.935-3,0-3S-359.076-702.363-357.142-702.363L-357.142-702.363z"/>
			</g>
		</g>
		<g opacity="0.7">
			<g>
				<path fill="#74AFD1" d="M-359.064-696.404c1.935,0,1.935-3,0-3S-360.999-696.404-359.064-696.404L-359.064-696.404z"/>
			</g>
		</g>
		<g opacity="0.7">
			<g>
				<path fill="#74AFD1" d="M-349.741-699.96c1.935,0,1.935-3,0-3S-351.675-699.96-349.741-699.96L-349.741-699.96z"/>
			</g>
		</g>
		<g opacity="0.7">
			<g>
				<path fill="#74AFD1" d="M-363.678-704.862c1.935,0,1.935-3,0-3S-365.612-704.862-363.678-704.862L-363.678-704.862z"/>
			</g>
		</g>
		<g opacity="0.7">
			<g>
				<path fill="#74AFD1" d="M-366.657-709.187c1.935,0,1.935-3,0-3S-368.592-709.187-366.657-709.187L-366.657-709.187z"/>
			</g>
		</g>
		<g opacity="0.7">
			<g>
				<path fill="#74AFD1" d="M-334.459-688.33c1.935,0,1.935-3,0-3S-336.394-688.33-334.459-688.33L-334.459-688.33z"/>
			</g>
		</g>
		<g opacity="0.7">
			<g>
				<path fill="#74AFD1" d="M-341.571-692.079c1.935,0,1.935-3,0-3S-343.506-692.079-341.571-692.079L-341.571-692.079z"/>
			</g>
		</g>
		<g opacity="0.7">
			<g>
				<path fill="#74AFD1" d="M-343.205-687.081c1.935,0,1.935-3,0-3S-345.14-687.081-343.205-687.081L-343.205-687.081z"/>
			</g>
		</g>
		<g opacity="0.7">
			<g>
				<path fill="#74AFD1" d="M-353.201-694.962c1.935,0,1.935-3,0-3S-355.136-694.962-353.201-694.962L-353.201-694.962z"/>
			</g>
		</g>
		<g opacity="0.7">
			<g>
				<path fill="#74AFD1" d="M-353.874-689.964c1.935,0,1.935-3,0-3S-355.809-689.964-353.874-689.964L-353.874-689.964z"/>
			</g>
		</g>
		<g opacity="0.7">
			<g>
				<path fill="#74AFD1" d="M-364.446-710.244c1.935,0,1.935-3,0-3S-366.381-710.244-364.446-710.244L-364.446-710.244z"/>
			</g>
		</g>
		<g opacity="0.7">
			<g>
				<path fill="#74AFD1" d="M-369.541-714.954c1.935,0,1.935-3,0-3S-371.475-714.954-369.541-714.954L-369.541-714.954z"/>
			</g>
		</g>
		<g opacity="0.7">
			<g>
				<path fill="#74AFD1" d="M-368.099-710.821c1.935,0,1.935-3,0-3S-370.033-710.821-368.099-710.821L-368.099-710.821z"/>
			</g>
		</g>
		<g opacity="0.7">
			<g>
				<path fill="#74AFD1" d="M-362.043-710.34c1.935,0,1.935-3,0-3S-363.978-710.34-362.043-710.34L-362.043-710.34z"/>
			</g>
		</g>
		<g opacity="0.7">
			<g>
				<path fill="#74AFD1" d="M-364.062-707.361c1.935,0,1.935-3,0-3S-365.997-707.361-364.062-707.361L-364.062-707.361z"/>
			</g>
		</g>
		<g opacity="0.7">
			<g>
				<path fill="#74AFD1" d="M-361.659-706.688c1.935,0,1.935-3,0-3S-363.594-706.688-361.659-706.688L-361.659-706.688z"/>
			</g>
		</g>
		<g opacity="0.7">
			<g>
				<path fill="#74AFD1" d="M-357.814-706.976c1.935,0,1.935-3,0-3S-359.749-706.976-357.814-706.976L-357.814-706.976z"/>
			</g>
		</g>
		<g opacity="0.7">
			<g>
				<path fill="#74AFD1" d="M-362.428-702.747c1.935,0,1.935-3,0-3S-364.363-702.747-362.428-702.747L-362.428-702.747z"/>
			</g>
		</g>
		<g opacity="0.7">
			<g>
				<path fill="#74AFD1" d="M-359.544-706.303c1.935,0,1.935-3,0-3S-361.479-706.303-359.544-706.303L-359.544-706.303z"/>
			</g>
		</g>
		<g opacity="0.7">
			<g>
				<path fill="#74AFD1" d="M-355.412-704.862c1.935,0,1.935-3,0-3S-357.346-704.862-355.412-704.862L-355.412-704.862z"/>
			</g>
		</g>
		<g opacity="0.7">
			<g>
				<path fill="#74AFD1" d="M-359.737-703.708c1.935,0,1.935-3,0-3S-361.671-703.708-359.737-703.708L-359.737-703.708z"/>
			</g>
		</g>
		<g opacity="0.7">
			<g>
				<path fill="#74AFD1" d="M-359.544-700.44c1.935,0,1.935-3,0-3S-361.479-700.44-359.544-700.44L-359.544-700.44z"/>
			</g>
		</g>
		<g opacity="0.7">
			<g>
				<path fill="#74AFD1" d="M-356.854-699.287c1.935,0,1.935-3,0-3S-358.788-699.287-356.854-699.287L-356.854-699.287z"/>
			</g>
		</g>
		<g opacity="0.7">
			<g>
				<path fill="#74AFD1" d="M-353.778-701.017c1.935,0,1.935-3,0-3S-355.712-701.017-353.778-701.017L-353.778-701.017z"/>
			</g>
		</g>
		<g opacity="0.7">
			<g>
				<path fill="#74AFD1" d="M-351.759-698.134c1.935,0,1.935-3,0-3S-353.694-698.134-351.759-698.134L-351.759-698.134z"/>
			</g>
		</g>
		<g opacity="0.7">
			<g>
				<path fill="#74AFD1" d="M-356.565-693.809c1.935,0,1.935-3,0-3S-358.5-693.809-356.565-693.809L-356.565-693.809z"/>
			</g>
		</g>
		<g opacity="0.7">
			<g>
				<path fill="#74AFD1" d="M-356.084-697.173c1.935,0,1.935-3,0-3S-358.019-697.173-356.084-697.173L-356.084-697.173z"/>
			</g>
		</g>
		<g opacity="0.7">
			<g>
				<path fill="#74AFD1" d="M-347.53-698.23c1.935,0,1.935-3,0-3S-349.465-698.23-347.53-698.23L-347.53-698.23z"/>
			</g>
		</g>
		<g opacity="0.7">
			<g>
				<path fill="#74AFD1" d="M-349.741-693.809c1.935,0,1.935-3,0-3S-351.675-693.809-349.741-693.809L-349.741-693.809z"/>
			</g>
		</g>
		<g opacity="0.7">
			<g>
				<path fill="#74AFD1" d="M-351.855-688.138c1.935,0,1.935-3,0-3S-353.79-688.138-351.855-688.138L-351.855-688.138z"/>
			</g>
		</g>
		<g opacity="0.7">
			<g>
				<path fill="#74AFD1" d="M-350.029-683.621c1.935,0,1.935-3,0-3S-351.964-683.621-350.029-683.621L-350.029-683.621z"/>
			</g>
		</g>
		<g opacity="0.7">
			<g>
				<path fill="#74AFD1" d="M-346.761-685.735c1.935,0,1.935-3,0-3S-348.696-685.735-346.761-685.735L-346.761-685.735z"/>
			</g>
		</g>
		<g opacity="0.7">
			<g>
				<path fill="#74AFD1" d="M-344.743-674.586c1.935,0,1.935-3,0-3S-346.678-674.586-344.743-674.586L-344.743-674.586z"/>
			</g>
		</g>
		<g opacity="0.7">
			<g>
				<path fill="#74AFD1" d="M-340.418-681.987c1.935,0,1.935-3,0-3S-342.353-681.987-340.418-681.987L-340.418-681.987z"/>
			</g>
		</g>
		<g opacity="0.7">
			<g>
				<path fill="#74AFD1" d="M-338.015-676.989c1.935,0,1.935-3,0-3S-339.95-676.989-338.015-676.989L-338.015-676.989z"/>
			</g>
		</g>
		<g opacity="0.7">
			<g>
				<path fill="#74AFD1" d="M-332.056-682.179c1.935,0,1.935-3,0-3S-333.991-682.179-332.056-682.179L-332.056-682.179z"/>
			</g>
		</g>
		<g opacity="0.7">
			<g>
				<path fill="#74AFD1" d="M-330.038-684.582c1.935,0,1.935-3,0-3S-331.972-684.582-330.038-684.582L-330.038-684.582z"/>
			</g>
		</g>
		<g opacity="0.7">
			<g>
				<path fill="#74AFD1" d="M-338.496-688.907c1.935,0,1.935-3,0-3S-340.43-688.907-338.496-688.907L-338.496-688.907z"/>
			</g>
		</g>
		<g opacity="0.7">
			<g>
				<path fill="#74AFD1" d="M-326.289-681.987c1.935,0,1.935-3,0-3S-328.224-681.987-326.289-681.987L-326.289-681.987z"/>
			</g>
		</g>
		<g opacity="0.7">
			<g>
				<path fill="#74AFD1" d="M-320.33-682.852c1.935,0,1.935-3,0-3S-322.265-682.852-320.33-682.852L-320.33-682.852z"/>
			</g>
		</g>
		<g opacity="0.7">
			<g>
				<path fill="#74AFD1" d="M-331.96-677.469c1.935,0,1.935-3,0-3S-333.895-677.469-331.96-677.469L-331.96-677.469z"/>
			</g>
		</g>
		<g opacity="0.7">
			<g>
				<path fill="#74AFD1" d="M-325.616-675.451c1.935,0,1.935-3,0-3S-327.551-675.451-325.616-675.451L-325.616-675.451z"/>
			</g>
		</g>
		<g opacity="0.7">
			<g>
				<path fill="#74AFD1" d="M-341.475-672.471c1.935,0,1.935-3,0-3S-343.41-672.471-341.475-672.471L-341.475-672.471z"/>
			</g>
		</g>
		<g opacity="0.7">
			<g>
				<path fill="#74AFD1" d="M-342.532-665.551c1.935,0,1.935-3,0-3S-344.467-665.551-342.532-665.551L-342.532-665.551z"/>
			</g>
		</g>
		<g opacity="0.7">
			<g>
				<path fill="#74AFD1" d="M-334.747-671.414c1.935,0,1.935-3,0-3S-336.682-671.414-334.747-671.414L-334.747-671.414z"/>
			</g>
		</g>
		<g opacity="0.7">
			<g>
				<path fill="#74AFD1" d="M-338.015-666.801c1.935,0,1.935-3,0-3S-339.95-666.801-338.015-666.801L-338.015-666.801z"/>
			</g>
		</g>
		<g opacity="0.7">
			<g>
				<path fill="#74AFD1" d="M-327.346-669.011c1.935,0,1.935-3,0-3S-329.281-669.011-327.346-669.011L-327.346-669.011z"/>
			</g>
		</g>
	</g>
	<g display="inline">
		<g opacity="0.7">
			<g>
				<path fill="#74AFD1" d="M-256.006-704.709c1.935,0,1.935-3,0-3S-257.94-704.709-256.006-704.709L-256.006-704.709z"/>
			</g>
		</g>
		<g opacity="0.7">
			<g>
				<path fill="#74AFD1" d="M-260.84-716.108c1.935,0,1.935-3,0-3C-262.775-719.108-262.775-716.108-260.84-716.108L-260.84-716.108
					z"/>
			</g>
		</g>
		<g opacity="0.7">
			<g>
				<path fill="#74AFD1" d="M-254.762-717.936c1.935,0,1.935-3,0-3S-256.696-717.936-254.762-717.936L-254.762-717.936z"/>
			</g>
		</g>
		<g opacity="0.7">
			<g>
				<path fill="#74AFD1" d="M-265.831-708.082c1.935,0,1.935-3,0-3S-267.765-708.082-265.831-708.082L-265.831-708.082z"/>
			</g>
		</g>
		<g opacity="0.7">
			<g>
				<path fill="#74AFD1" d="M-259.678-746.151c1.935,0,1.935-3,0-3S-261.612-746.151-259.678-746.151L-259.678-746.151z"/>
			</g>
		</g>
		<g opacity="0.7">
			<g>
				<path fill="#74AFD1" d="M-257.291-737.794c1.935,0,1.935-3,0-3S-259.226-737.794-257.291-737.794L-257.291-737.794z"/>
			</g>
		</g>
		<g opacity="0.7">
			<g>
				<path fill="#74AFD1" d="M-259.188-731.403c1.935,0,1.935-3,0-3S-261.122-731.403-259.188-731.403L-259.188-731.403z"/>
			</g>
		</g>
		<g opacity="0.7">
			<g>
				<path fill="#74AFD1" d="M-264.562-728.189c1.935,0,1.935-3,0-3S-266.496-728.189-264.562-728.189L-264.562-728.189z"/>
			</g>
		</g>
		<g opacity="0.7">
			<g>
				<path fill="#74AFD1" d="M-255.208-724.718c1.935,0,1.935-3,0-3S-257.143-724.718-255.208-724.718L-255.208-724.718z"/>
			</g>
		</g>
		<g opacity="0.7">
			<g>
				<path fill="#74AFD1" d="M-262.454-737.592c1.935,0,1.935-3,0-3C-264.388-740.592-264.388-737.592-262.454-737.592
					L-262.454-737.592z"/>
			</g>
		</g>
		<g opacity="0.7">
			<g>
				<path fill="#74AFD1" d="M-261.843-742.808c1.935,0,1.935-3,0-3S-263.777-742.808-261.843-742.808L-261.843-742.808z"/>
			</g>
		</g>
		<g opacity="0.7">
			<g>
				<path fill="#74AFD1" d="M-251.385-705.898c1.935,0,1.935-3,0-3S-253.319-705.898-251.385-705.898L-251.385-705.898z"/>
			</g>
		</g>
		<g opacity="0.7">
			<g>
				<path fill="#74AFD1" d="M-254.26-713.406c1.935,0,1.935-3,0-3S-256.194-713.406-254.26-713.406L-254.26-713.406z"/>
			</g>
		</g>
		<g opacity="0.7">
			<g>
				<path fill="#74AFD1" d="M-258.784-710.725c1.935,0,1.935-3,0-3S-260.719-710.725-258.784-710.725L-258.784-710.725z"/>
			</g>
		</g>
		<g opacity="0.7">
			<g>
				<path fill="#74AFD1" d="M-261.104-723.241c1.935,0,1.935-3,0-3S-263.039-723.241-261.104-723.241L-261.104-723.241z"/>
			</g>
		</g>
		<g opacity="0.7">
			<g>
				<path fill="#74AFD1" d="M-264.905-719.927c1.935,0,1.935-3,0-3S-266.84-719.927-264.905-719.927L-264.905-719.927z"/>
			</g>
		</g>
		<g opacity="0.7">
			<g>
				<path fill="#74AFD1" d="M-259.483-742.146c1.935,0,1.935-3,0-3S-261.418-742.146-259.483-742.146L-259.483-742.146z"/>
			</g>
		</g>
		<g opacity="0.7">
			<g>
				<path fill="#74AFD1" d="M-260.208-749.045c1.935,0,1.935-3,0-3S-262.143-749.045-260.208-749.045L-260.208-749.045z"/>
			</g>
		</g>
		<g opacity="0.7">
			<g>
				<path fill="#74AFD1" d="M-261.849-744.987c1.935,0,1.935-3,0-3C-263.784-747.987-263.784-744.987-261.849-744.987
					L-261.849-744.987z"/>
			</g>
		</g>
		<g opacity="0.7">
			<g>
				<path fill="#74AFD1" d="M-257.613-740.634c1.935,0,1.935-3,0-3S-259.548-740.634-257.613-740.634L-257.613-740.634z"/>
			</g>
		</g>
		<g opacity="0.7">
			<g>
				<path fill="#74AFD1" d="M-261.095-739.723c1.935,0,1.935-3,0-3C-263.03-742.723-263.03-739.723-261.095-739.723
					L-261.095-739.723z"/>
			</g>
		</g>
		<g opacity="0.7">
			<g>
				<path fill="#74AFD1" d="M-259.732-737.634c1.935,0,1.935-3,0-3S-261.667-737.634-259.732-737.634L-259.732-737.634z"/>
			</g>
		</g>
		<g opacity="0.7">
			<g>
				<path fill="#74AFD1" d="M-256.652-735.315c1.935,0,1.935-3,0-3S-258.587-735.315-256.652-735.315L-256.652-735.315z"/>
			</g>
		</g>
		<g opacity="0.7">
			<g>
				<path fill="#74AFD1" d="M-262.909-735.178c1.935,0,1.935-3,0-3S-264.844-735.178-262.909-735.178L-262.909-735.178z"/>
			</g>
		</g>
		<g opacity="0.7">
			<g>
				<path fill="#74AFD1" d="M-258.396-735.95c1.935,0,1.935-3,0-3S-260.33-735.95-258.396-735.95L-258.396-735.95z"/>
			</g>
		</g>
		<g opacity="0.7">
			<g>
				<path fill="#74AFD1" d="M-256.238-732.142c1.935,0,1.935-3,0-3S-258.173-732.142-256.238-732.142L-256.238-732.142z"/>
			</g>
		</g>
		<g opacity="0.7">
			<g>
				<path fill="#74AFD1" d="M-260.253-734.126c1.935,0,1.935-3,0-3S-262.188-734.126-260.253-734.126L-260.253-734.126z"/>
			</g>
		</g>
		<g opacity="0.7">
			<g>
				<path fill="#74AFD1" d="M-262.261-731.542c1.935,0,1.935-3,0-3C-264.196-734.542-264.196-731.542-262.261-731.542
					L-262.261-731.542z"/>
			</g>
		</g>
		<g opacity="0.7">
			<g>
				<path fill="#74AFD1" d="M-260.999-728.901c1.935,0,1.935-3,0-3C-262.933-731.901-262.933-728.901-260.999-728.901
					L-260.999-728.901z"/>
			</g>
		</g>
		<g opacity="0.7">
			<g>
				<path fill="#74AFD1" d="M-257.546-728.174c1.935,0,1.935-3,0-3S-259.48-728.174-257.546-728.174L-257.546-728.174z"/>
			</g>
		</g>
		<g opacity="0.7">
			<g>
				<path fill="#74AFD1" d="M-257.929-724.675c1.935,0,1.935-3,0-3S-259.863-724.675-257.929-724.675L-257.929-724.675z"/>
			</g>
		</g>
		<g opacity="0.7">
			<g>
				<path fill="#74AFD1" d="M-264.394-724.592c1.935,0,1.935-3,0-3S-266.329-724.592-264.394-724.592L-264.394-724.592z"/>
			</g>
		</g>
		<g opacity="0.7">
			<g>
				<path fill="#74AFD1" d="M-261.814-726.804c1.935,0,1.935-3,0-3S-263.749-726.804-261.814-726.804L-261.814-726.804z"/>
			</g>
		</g>
		<g opacity="0.7">
			<g>
				<path fill="#74AFD1" d="M-254.686-721.959c1.935,0,1.935-3,0-3S-256.62-721.959-254.686-721.959L-254.686-721.959z"/>
			</g>
		</g>
		<g opacity="0.7">
			<g>
				<path fill="#74AFD1" d="M-259.264-720.092c1.935,0,1.935-3,0-3S-261.198-720.092-259.264-720.092L-259.264-720.092z"/>
			</g>
		</g>
		<g opacity="0.7">
			<g>
				<path fill="#74AFD1" d="M-264.591-717.223c1.935,0,1.935-3,0-3S-266.526-717.223-264.591-717.223L-264.591-717.223z"/>
			</g>
		</g>
		<g opacity="0.7">
			<g>
				<path fill="#74AFD1" d="M-266.197-712.622c1.935,0,1.935-3,0-3S-268.132-712.622-266.197-712.622L-266.197-712.622z"/>
			</g>
		</g>
		<g opacity="0.7">
			<g>
				<path fill="#74AFD1" d="M-262.345-712.058c1.935,0,1.935-3,0-3S-264.279-712.058-262.345-712.058L-262.345-712.058z"/>
			</g>
		</g>
		<g opacity="0.7">
			<g>
				<path fill="#74AFD1" d="M-268.179-702.344c1.935,0,1.935-3,0-3S-270.113-702.344-268.179-702.344L-268.179-702.344z"/>
			</g>
		</g>
		<g opacity="0.7">
			<g>
				<path fill="#74AFD1" d="M-260.046-705.058c1.935,0,1.935-3,0-3S-261.98-705.058-260.046-705.058L-260.046-705.058z"/>
			</g>
		</g>
		<g opacity="0.7">
			<g>
				<path fill="#74AFD1" d="M-261.535-699.715c1.935,0,1.935-3,0-3S-263.47-699.715-261.535-699.715L-261.535-699.715z"/>
			</g>
		</g>
		<g opacity="0.7">
			<g>
				<path fill="#74AFD1" d="M-253.633-699.688c1.935,0,1.935-3,0-3S-255.567-699.688-253.633-699.688L-253.633-699.688z"/>
			</g>
		</g>
		<g opacity="0.7">
			<g>
				<path fill="#74AFD1" d="M-250.532-700.165c1.935,0,1.935-3,0-3S-252.467-700.165-250.532-700.165L-250.532-700.165z"/>
			</g>
		</g>
		<g opacity="0.7">
			<g>
				<path fill="#74AFD1" d="M-254.039-708.993c1.935,0,1.935-3,0-3S-255.974-708.993-254.039-708.993L-254.039-708.993z"/>
			</g>
		</g>
		<g opacity="0.7">
			<g>
				<path fill="#74AFD1" d="M-249.424-695.742c1.935,0,1.935-3,0-3S-251.358-695.742-249.424-695.742L-249.424-695.742z"/>
			</g>
		</g>
		<g opacity="0.7">
			<g>
				<path fill="#74AFD1" d="M-244.373-692.463c1.935,0,1.935-3,0-3S-246.308-692.463-244.373-692.463L-244.373-692.463z"/>
			</g>
		</g>
		<g opacity="0.7">
			<g>
				<path fill="#74AFD1" d="M-256.666-696.084c1.935,0,1.935-3,0-3S-258.601-696.084-256.666-696.084L-256.666-696.084z"/>
			</g>
		</g>
		<g opacity="0.7">
			<g>
				<path fill="#74AFD1" d="M-253.228-690.384c1.935,0,1.935-3,0-3S-255.162-690.384-253.228-690.384L-253.228-690.384z"/>
			</g>
		</g>
		<g opacity="0.7">
			<g>
				<path fill="#74AFD1" d="M-267.116-698.601c1.935,0,1.935-3,0-3S-269.05-698.601-267.116-698.601L-267.116-698.601z"/>
			</g>
		</g>
		<g opacity="0.7">
			<g>
				<path fill="#74AFD1" d="M-272.473-694.094c1.935,0,1.935-3,0-3S-274.407-694.094-272.473-694.094L-272.473-694.094z"/>
			</g>
		</g>
		<g opacity="0.7">
			<g>
				<path fill="#74AFD1" d="M-262.754-693.369c1.935,0,1.935-3,0-3S-264.689-693.369-262.754-693.369L-262.754-693.369z"/>
			</g>
		</g>
		<g opacity="0.7">
			<g>
				<path fill="#74AFD1" d="M-268.252-692.055c1.935,0,1.935-3,0-3S-270.187-692.055-268.252-692.055L-268.252-692.055z"/>
			</g>
		</g>
		<g opacity="0.7">
			<g>
				<path fill="#74AFD1" d="M-258.773-686.683c1.935,0,1.935-3,0-3S-260.708-686.683-258.773-686.683L-258.773-686.683z"/>
			</g>
		</g>
	</g>
	<g display="inline">
		<g opacity="0.7">
			<g>
				<path fill="#74AFD1" d="M-177.783-672.675c1.935,0,1.935-3,0-3S-179.718-672.675-177.783-672.675L-177.783-672.675z"/>
			</g>
		</g>
		<g opacity="0.7">
			<g>
				<path fill="#74AFD1" d="M-173.193-684.174c1.935,0,1.935-3,0-3S-175.128-684.174-173.193-684.174L-173.193-684.174z"/>
			</g>
		</g>
		<g opacity="0.7">
			<g>
				<path fill="#74AFD1" d="M-167.589-681.194c1.935,0,1.935-3,0-3S-169.523-681.194-167.589-681.194L-167.589-681.194z"/>
			</g>
		</g>
		<g opacity="0.7">
			<g>
				<path fill="#74AFD1" d="M-182.387-681.988c1.935,0,1.935-3,0-3S-184.321-681.988-182.387-681.988L-182.387-681.988z"/>
			</g>
		</g>
		<g opacity="0.7">
			<g>
				<path fill="#74AFD1" d="M-151.218-704.694c1.935,0,1.935-3,0-3S-153.152-704.694-151.218-704.694L-151.218-704.694z"/>
			</g>
		</g>
		<g opacity="0.7">
			<g>
				<path fill="#74AFD1" d="M-155.405-697.078c1.935,0,1.935-3,0-3S-157.34-697.078-155.405-697.078L-155.405-697.078z"/>
			</g>
		</g>
		<g opacity="0.7">
			<g>
				<path fill="#74AFD1" d="M-161.251-693.875c1.935,0,1.935-3,0-3S-163.186-693.875-161.251-693.875L-161.251-693.875z"/>
			</g>
		</g>
		<g opacity="0.7">
			<g>
				<path fill="#74AFD1" d="M-167.33-695.375c1.935,0,1.935-3,0-3S-169.265-695.375-167.33-695.375L-167.33-695.375z"/>
			</g>
		</g>
		<g opacity="0.7">
			<g>
				<path fill="#74AFD1" d="M-163.131-686.324c1.935,0,1.935-3,0-3S-165.065-686.324-163.131-686.324L-163.131-686.324z"/>
			</g>
		</g>
		<g opacity="0.7">
			<g>
				<path fill="#74AFD1" d="M-159.215-700.569c1.935,0,1.935-3,0-3S-161.149-700.569-159.215-700.569L-159.215-700.569z"/>
			</g>
		</g>
		<g opacity="0.7">
			<g>
				<path fill="#74AFD1" d="M-155.108-703.844c1.935,0,1.935-3,0-3S-157.043-703.844-155.108-703.844L-155.108-703.844z"/>
			</g>
		</g>
		<g opacity="0.7">
			<g>
				<path fill="#74AFD1" d="M-173.665-670.267c1.935,0,1.935-3,0-3S-175.6-670.267-173.665-670.267L-173.665-670.267z"/>
			</g>
		</g>
		<g opacity="0.7">
			<g>
				<path fill="#74AFD1" d="M-170.422-677.624c1.935,0,1.935-3,0-3S-172.356-677.624-170.422-677.624L-170.422-677.624z"/>
			</g>
		</g>
		<g opacity="0.7">
			<g>
				<path fill="#74AFD1" d="M-175.522-678.904c1.935,0,1.935-3,0-3S-177.457-678.904-175.522-678.904L-175.522-678.904z"/>
			</g>
		</g>
		<g opacity="0.7">
			<g>
				<path fill="#74AFD1" d="M-168.358-689.427c1.935,0,1.935-3,0-3S-170.293-689.427-168.358-689.427L-168.358-689.427z"/>
			</g>
		</g>
		<g opacity="0.7">
			<g>
				<path fill="#74AFD1" d="M-173.392-689.749c1.935,0,1.935-3,0-3S-175.326-689.749-173.392-689.749L-173.392-689.749z"/>
			</g>
		</g>
		<g opacity="0.7">
			<g>
				<path fill="#74AFD1" d="M-153.899-701.712c1.935,0,1.935-3,0-3S-155.834-701.712-153.899-701.712L-153.899-701.712z"/>
			</g>
		</g>
		<g opacity="0.7">
			<g>
				<path fill="#74AFD1" d="M-149.558-707.123c1.935,0,1.935-3,0-3S-151.492-707.123-149.558-707.123L-149.558-707.123z"/>
			</g>
		</g>
		<g opacity="0.7">
			<g>
				<path fill="#74AFD1" d="M-153.58-705.396c1.935,0,1.935-3,0-3S-155.515-705.396-153.58-705.396L-153.58-705.396z"/>
			</g>
		</g>
		<g opacity="0.7">
			<g>
				<path fill="#74AFD1" d="M-153.636-699.322c1.935,0,1.935-3,0-3S-155.57-699.322-153.636-699.322L-153.636-699.322z"/>
			</g>
		</g>
		<g opacity="0.7">
			<g>
				<path fill="#74AFD1" d="M-156.749-701.127c1.935,0,1.935-3,0-3S-158.684-701.127-156.749-701.127L-156.749-701.127z"/>
			</g>
		</g>
		<g opacity="0.7">
			<g>
				<path fill="#74AFD1" d="M-157.252-698.683c1.935,0,1.935-3,0-3S-159.187-698.683-157.252-698.683L-157.252-698.683z"/>
			</g>
		</g>
		<g opacity="0.7">
			<g>
				<path fill="#74AFD1" d="M-156.696-694.868c1.935,0,1.935-3,0-3S-158.631-694.868-156.696-694.868L-156.696-694.868z"/>
			</g>
		</g>
		<g opacity="0.7">
			<g>
				<path fill="#74AFD1" d="M-161.237-699.176c1.935,0,1.935-3,0-3S-163.172-699.176-161.237-699.176L-161.237-699.176z"/>
			</g>
		</g>
		<g opacity="0.7">
			<g>
				<path fill="#74AFD1" d="M-157.488-696.546c1.935,0,1.935-3,0-3S-159.423-696.546-157.488-696.546L-157.488-696.546z"/>
			</g>
		</g>
		<g opacity="0.7">
			<g>
				<path fill="#74AFD1" d="M-158.638-692.323c1.935,0,1.935-3,0-3S-160.572-692.323-158.638-692.323L-158.638-692.323z"/>
			</g>
		</g>
		<g opacity="0.7">
			<g>
				<path fill="#74AFD1" d="M-160.09-696.558c1.935,0,1.935-3,0-3S-162.024-696.558-160.09-696.558L-160.09-696.558z"/>
			</g>
		</g>
		<g opacity="0.7">
			<g>
				<path fill="#74AFD1" d="M-163.337-696.137c1.935,0,1.935-3,0-3S-165.271-696.137-163.337-696.137L-163.337-696.137z"/>
			</g>
		</g>
		<g opacity="0.7">
			<g>
				<path fill="#74AFD1" d="M-164.299-693.372c1.935,0,1.935-3,0-3S-166.233-693.372-164.299-693.372L-164.299-693.372z"/>
			</g>
		</g>
		<g opacity="0.7">
			<g>
				<path fill="#74AFD1" d="M-162.358-690.425c1.935,0,1.935-3,0-3S-164.293-690.425-162.358-690.425L-162.358-690.425z"/>
			</g>
		</g>
		<g opacity="0.7">
			<g>
				<path fill="#74AFD1" d="M-165.094-688.209c1.935,0,1.935-3,0-3S-167.028-688.209-165.094-688.209L-165.094-688.209z"/>
			</g>
		</g>
		<g opacity="0.7">
			<g>
				<path fill="#74AFD1" d="M-169.744-692.702c1.935,0,1.935-3,0-3S-171.679-692.702-169.744-692.702L-169.744-692.702z"/>
			</g>
		</g>
		<g opacity="0.7">
			<g>
				<path fill="#74AFD1" d="M-166.354-692.458c1.935,0,1.935-3,0-3S-168.289-692.458-166.354-692.458L-166.354-692.458z"/>
			</g>
		</g>
		<g opacity="0.7">
			<g>
				<path fill="#74AFD1" d="M-164.702-683.998c1.935,0,1.935-3,0-3S-166.637-683.998-164.702-683.998L-164.702-683.998z"/>
			</g>
		</g>
		<g opacity="0.7">
			<g>
				<path fill="#74AFD1" d="M-169.268-685.895c1.935,0,1.935-3,0-3S-171.202-685.895-169.268-685.895L-169.268-685.895z"/>
			</g>
		</g>
		<g opacity="0.7">
			<g>
				<path fill="#74AFD1" d="M-175.072-687.607c1.935,0,1.935-3,0-3S-177.007-687.607-175.072-687.607L-175.072-687.607z"/>
			</g>
		</g>
		<g opacity="0.7">
			<g>
				<path fill="#74AFD1" d="M-179.45-685.47c1.935,0,1.935-3,0-3S-181.385-685.47-179.45-685.47L-179.45-685.47z"/>
			</g>
		</g>
		<g opacity="0.7">
			<g>
				<path fill="#74AFD1" d="M-177.113-682.357c1.935,0,1.935-3,0-3S-179.048-682.357-177.113-682.357L-177.113-682.357z"/>
			</g>
		</g>
		<g opacity="0.7">
			<g>
				<path fill="#74AFD1" d="M-188.094-679.565c1.935,0,1.935-3,0-3S-190.028-679.565-188.094-679.565L-188.094-679.565z"/>
			</g>
		</g>
		<g opacity="0.7">
			<g>
				<path fill="#74AFD1" d="M-180.409-675.768c1.935,0,1.935-3,0-3S-182.344-675.768-180.409-675.768L-180.409-675.768z"/>
			</g>
		</g>
		<g opacity="0.7">
			<g>
				<path fill="#74AFD1" d="M-185.227-673.021c1.935,0,1.935-3,0-3S-187.161-673.021-185.227-673.021L-185.227-673.021z"/>
			</g>
		</g>
		<g opacity="0.7">
			<g>
				<path fill="#74AFD1" d="M-179.633-667.439c1.935,0,1.935-3,0-3S-181.567-667.439-179.633-667.439L-179.633-667.439z"/>
			</g>
		</g>
		<g opacity="0.7">
			<g>
				<path fill="#74AFD1" d="M-177.095-665.595c1.935,0,1.935-3,0-3S-179.029-665.595-177.095-665.595L-177.095-665.595z"/>
			</g>
		</g>
		<g opacity="0.7">
			<g>
				<path fill="#74AFD1" d="M-173.371-674.333c1.935,0,1.935-3,0-3S-175.306-674.333-173.371-674.333L-173.371-674.333z"/>
			</g>
		</g>
		<g opacity="0.7">
			<g>
				<path fill="#74AFD1" d="M-179.422-661.673c1.935,0,1.935-3,0-3S-181.356-661.673-179.422-661.673L-179.422-661.673z"/>
			</g>
		</g>
		<g opacity="0.7">
			<g>
				<path fill="#74AFD1" d="M-178.143-655.79c1.935,0,1.935-3,0-3S-180.077-655.79-178.143-655.79L-178.143-655.79z"/>
			</g>
		</g>
		<g opacity="0.7">
			<g>
				<path fill="#74AFD1" d="M-184.324-667.015c1.935,0,1.935-3,0-3S-186.259-667.015-184.324-667.015L-184.324-667.015z"/>
			</g>
		</g>
		<g opacity="0.7">
			<g>
				<path fill="#74AFD1" d="M-185.895-660.545c1.935,0,1.935-3,0-3S-187.829-660.545-185.895-660.545L-185.895-660.545z"/>
			</g>
		</g>
		<g opacity="0.7">
			<g>
				<path fill="#74AFD1" d="M-189.975-676.158c1.935,0,1.935-3,0-3S-191.909-676.158-189.975-676.158L-189.975-676.158z"/>
			</g>
		</g>
		<g opacity="0.7">
			<g>
				<path fill="#74AFD1" d="M-196.952-676.729c1.935,0,1.935-3,0-3S-198.887-676.729-196.952-676.729L-196.952-676.729z"/>
			</g>
		</g>
		<g opacity="0.7">
			<g>
				<path fill="#74AFD1" d="M-190.56-669.372c1.935,0,1.935-3,0-3S-192.494-669.372-190.56-669.372L-190.56-669.372z"/>
			</g>
		</g>
		<g opacity="0.7">
			<g>
				<path fill="#74AFD1" d="M-195.39-672.309c1.935,0,1.935-3,0-3S-197.324-672.309-195.39-672.309L-195.39-672.309z"/>
			</g>
		</g>
		<g opacity="0.7">
			<g>
				<path fill="#74AFD1" d="M-192.439-661.822c1.935,0,1.935-3,0-3S-194.374-661.822-192.439-661.822L-192.439-661.822z"/>
			</g>
		</g>
	</g>
	<g display="inline">
		<g>
			<path fill="#74AFD1" d="M-253.774-729.186c1.935,0,1.935-3,0-3S-255.709-729.186-253.774-729.186L-253.774-729.186z"/>
		</g>
	</g>
	<g display="inline">
		<g>
			<path fill="#74AFD1" d="M-257.468-744.611c1.935,0,1.935-3,0-3S-259.402-744.611-257.468-744.611L-257.468-744.611z"/>
		</g>
	</g>
	<g display="inline">
		<g>
			<path fill="#74AFD1" d="M-265.289-732.01c1.935,0,1.935-3,0-3S-267.224-732.01-265.289-732.01L-265.289-732.01z"/>
		</g>
	</g>
	<g display="inline">
		<g>
			<path fill="#74AFD1" d="M-266.158-725.71c1.935,0,1.935-3,0-3S-268.092-725.71-266.158-725.71L-266.158-725.71z"/>
		</g>
	</g>
	<g display="inline">
		<g>
			<path fill="#74AFD1" d="M-267.896-717.455c1.935,0,1.935-3,0-3S-269.831-717.455-267.896-717.455L-267.896-717.455z"/>
		</g>
	</g>
	<g display="inline">
		<g>
			<path fill="#74AFD1" d="M-269.634-709.633c1.935,0,1.935-3,0-3S-271.568-709.633-269.634-709.633L-269.634-709.633z"/>
		</g>
	</g>
	<g display="inline">
		<g>
			<path fill="#74AFD1" d="M-270.72-702.899c1.935,0,1.935-3,0-3S-272.655-702.899-270.72-702.899L-270.72-702.899z"/>
		</g>
	</g>
	<g display="inline">
		<g>
			<path fill="#74AFD1" d="M-257.686-715.282c1.935,0,1.935-3,0-3S-259.62-715.282-257.686-715.282L-257.686-715.282z"/>
		</g>
	</g>
	<g display="inline">
		<g>
			<path fill="#74AFD1" d="M-252.254-724.624c1.935,0,1.935-3,0-3S-254.188-724.624-252.254-724.624L-252.254-724.624z"/>
		</g>
	</g>
	<g display="inline">
		<g>
			<path fill="#74AFD1" d="M-251.385-719.844c1.935,0,1.935-3,0-3S-253.319-719.844-251.385-719.844L-251.385-719.844z"/>
		</g>
	</g>
	<g display="inline">
		<g>
			<path fill="#74AFD1" d="M-249.864-714.196c1.935,0,1.935-3,0-3S-251.799-714.196-249.864-714.196L-249.864-714.196z"/>
		</g>
	</g>
	<g display="inline">
		<g>
			<path fill="#74AFD1" d="M-248.995-708.982c1.935,0,1.935-3,0-3S-250.93-708.982-248.995-708.982L-248.995-708.982z"/>
		</g>
	</g>
	<g display="inline">
		<g>
			<path fill="#74AFD1" d="M-246.822-702.247c1.935,0,1.935-3,0-3S-248.757-702.247-246.822-702.247L-246.822-702.247z"/>
		</g>
	</g>
	<g display="inline">
		<g>
			<path fill="#74AFD1" d="M-243.13-698.119c1.935,0,1.935-3,0-3S-245.064-698.119-243.13-698.119L-243.13-698.119z"/>
		</g>
	</g>
	<g display="inline">
		<g>
			<path fill="#74AFD1" d="M-237.264-695.295c1.935,0,1.935-3,0-3S-239.198-695.295-237.264-695.295L-237.264-695.295z"/>
		</g>
	</g>
	<g display="inline">
		<g>
			<path fill="#74AFD1" d="M-231.181-693.557c1.935,0,1.935-3,0-3S-233.115-693.557-231.181-693.557L-231.181-693.557z"/>
		</g>
	</g>
	<g display="inline">
		<g>
			<path fill="#74AFD1" d="M-237.264-689.864c1.935,0,1.935-3,0-3S-239.198-689.864-237.264-689.864L-237.264-689.864z"/>
		</g>
	</g>
	<g display="inline">
		<g>
			<path fill="#74AFD1" d="M-219.884-690.081c1.935,0,1.935-3,0-3S-221.818-690.081-219.884-690.081L-219.884-690.081z"/>
		</g>
	</g>
	<g display="inline">
		<g>
			<path fill="#74AFD1" d="M-212.497-686.605c1.935,0,1.935-3,0-3S-214.432-686.605-212.497-686.605L-212.497-686.605z"/>
		</g>
	</g>
	<g display="inline">
		<g>
			<path fill="#74AFD1" d="M-204.242-684.433c1.935,0,1.935-3,0-3S-206.177-684.433-204.242-684.433L-204.242-684.433z"/>
		</g>
	</g>
	<g display="inline">
		<g>
			<path fill="#74AFD1" d="M-196.421-681.174c1.935,0,1.935-3,0-3S-198.355-681.174-196.421-681.174L-196.421-681.174z"/>
		</g>
	</g>
	<g display="inline">
		<g>
			<path fill="#74AFD1" d="M-200.983-679.001c1.935,0,1.935-3,0-3S-202.918-679.001-200.983-679.001L-200.983-679.001z"/>
		</g>
	</g>
	<g display="inline">
		<g>
			<path fill="#74AFD1" d="M-208.152-682.694c1.935,0,1.935-3,0-3S-210.087-682.694-208.152-682.694L-208.152-682.694z"/>
		</g>
	</g>
	<g display="inline">
		<g>
			<path fill="#74AFD1" d="M-225.75-689.429c1.935,0,1.935-3,0-3S-227.685-689.429-225.75-689.429L-225.75-689.429z"/>
		</g>
	</g>
	<g display="inline">
		<g>
			<path fill="#74AFD1" d="M-174.479-662.925c1.935,0,1.935-3,0-3S-176.413-662.925-174.479-662.925L-174.479-662.925z"/>
		</g>
	</g>
	<g display="inline">
		<g>
			<path fill="#74AFD1" d="M-168.83-656.408c1.935,0,1.935-3,0-3S-170.765-656.408-168.83-656.408L-168.83-656.408z"/>
		</g>
	</g>
	<g display="inline">
		<g>
			<path fill="#74AFD1" d="M-164.702-650.107c1.935,0,1.935-3,0-3S-166.637-650.107-164.702-650.107L-164.702-650.107z"/>
		</g>
	</g>
	<g display="inline">
		<g>
			<path fill="#74AFD1" d="M-156.229-635.334c1.935,0,1.935-3,0-3S-158.164-635.334-156.229-635.334L-156.229-635.334z"/>
		</g>
	</g>
	<g display="inline">
		<g>
			<path fill="#74AFD1" d="M-159.271-641.2c1.935,0,1.935-3,0-3S-161.206-641.2-159.271-641.2L-159.271-641.2z"/>
		</g>
	</g>
	<g display="inline">
		<g>
			<path fill="#74AFD1" d="M-161.227-646.197c1.935,0,1.935-3,0-3S-163.161-646.197-161.227-646.197L-161.227-646.197z"/>
		</g>
	</g>
	<g display="inline">
		<g>
			<path fill="#74AFD1" d="M-171.003-652.28c1.935,0,1.935-3,0-3S-172.938-652.28-171.003-652.28L-171.003-652.28z"/>
		</g>
	</g>
	<g display="inline">
		<g>
			<path fill="#74AFD1" d="M-174.479-657.711c1.935,0,1.935-3,0-3S-176.413-657.711-174.479-657.711L-174.479-657.711z"/>
		</g>
	</g>
	<g display="inline">
		<g>
			<path fill="#74AFD1" d="M-346.541-663.795c1.935,0,1.935-3,0-3S-348.475-663.795-346.541-663.795L-346.541-663.795z"/>
		</g>
	</g>
	<g display="inline">
		<g>
			<path fill="#74AFD1" d="M-352.406-656.843c1.935,0,1.935-3,0-3S-354.341-656.843-352.406-656.843L-352.406-656.843z"/>
		</g>
	</g>
	<g display="inline">
		<g>
			<path fill="#74AFD1" d="M-357.621-648.587c1.935,0,1.935-3,0-3S-359.555-648.587-357.621-648.587L-357.621-648.587z"/>
		</g>
	</g>
	<g display="inline">
		<g>
			<path fill="#74AFD1" d="M-355.23-653.367c1.935,0,1.935-3,0-3S-357.165-653.367-355.23-653.367L-355.23-653.367z"/>
		</g>
	</g>
	<g display="inline">
		<g>
			<path fill="#74AFD1" d="M-349.799-660.319c1.935,0,1.935-3,0-3S-351.734-660.319-349.799-660.319L-349.799-660.319z"/>
		</g>
	</g>
	<g display="inline">
		<g>
			<path fill="#74AFD1" d="M-341.979-661.623c1.935,0,1.935-3,0-3S-343.913-661.623-341.979-661.623L-341.979-661.623z"/>
		</g>
	</g>
	<g display="inline">
		<g>
			<path fill="#74AFD1" d="M-348.062-657.712c1.935,0,1.935-3,0-3S-349.996-657.712-348.062-657.712L-348.062-657.712z"/>
		</g>
	</g>
	<g display="inline">
		<g>
			<path fill="#74AFD1" d="M-351.972-652.498c1.935,0,1.935-3,0-3S-353.907-652.498-351.972-652.498L-351.972-652.498z"/>
		</g>
	</g>
	<g display="inline">
		<g>
			<path fill="#74AFD1" d="M-361.313-642.722c1.935,0,1.935-3,0-3S-363.248-642.722-361.313-642.722L-361.313-642.722z"/>
		</g>
	</g>
	<g display="inline">
		<g>
			<path fill="#74AFD1" d="M-334.592-664.447c1.935,0,1.935-3,0-3S-336.526-664.447-334.592-664.447L-334.592-664.447z"/>
		</g>
	</g>
	<g display="inline">
		<g>
			<path fill="#74AFD1" d="M-320.688-678.568c1.935,0,1.935-3,0-3S-322.623-678.568-320.688-678.568L-320.688-678.568z"/>
		</g>
	</g>
	<g display="inline">
		<g>
			<path fill="#74AFD1" d="M-313.736-685.303c1.935,0,1.935-3,0-3S-315.67-685.303-313.736-685.303L-313.736-685.303z"/>
		</g>
	</g>
	<g display="inline">
		<g>
			<path fill="#74AFD1" d="M-304.177-687.692c1.935,0,1.935-3,0-3S-306.112-687.692-304.177-687.692L-304.177-687.692z"/>
		</g>
	</g>
	<g display="inline">
		<g>
			<path fill="#74AFD1" d="M-292.229-687.258c1.935,0,1.935-3,0-3S-294.163-687.258-292.229-687.258L-292.229-687.258z"/>
		</g>
	</g>
	<g display="inline">
		<g>
			<path fill="#74AFD1" d="M-288.318-692.037c1.935,0,1.935-3,0-3S-290.252-692.037-288.318-692.037L-288.318-692.037z"/>
		</g>
	</g>
	<g display="inline">
		<g>
			<path fill="#74AFD1" d="M-280.931-697.251c1.935,0,1.935-3,0-3S-282.866-697.251-280.931-697.251L-280.931-697.251z"/>
		</g>
	</g>
	<g display="inline">
		<g>
			<path fill="#74AFD1" d="M-280.28-691.603c1.935,0,1.935-3,0-3S-282.214-691.603-280.28-691.603L-280.28-691.603z"/>
		</g>
	</g>
	<g display="inline">
		<g>
			<path fill="#74AFD1" d="M-297.225-690.734c1.935,0,1.935-3,0-3S-299.16-690.734-297.225-690.734L-297.225-690.734z"/>
		</g>
	</g>
	<g display="inline">
		<g>
			<path fill="#74AFD1" d="M-300.701-685.085c1.935,0,1.935-3,0-3S-302.636-685.085-300.701-685.085L-300.701-685.085z"/>
		</g>
	</g>
	<g display="inline">
		<g>
			<path fill="#74AFD1" d="M-312.433-680.74c1.935,0,1.935-3,0-3S-314.367-680.74-312.433-680.74L-312.433-680.74z"/>
		</g>
	</g>
	<g display="inline">
		<g>
			<path fill="#74AFD1" d="M-320.253-673.354c1.935,0,1.935-3,0-3S-322.188-673.354-320.253-673.354L-320.253-673.354z"/>
		</g>
	</g>
	<g display="inline">
		<g>
			<path fill="#74AFD1" d="M-307.219-684.216c1.935,0,1.935-3,0-3S-309.153-684.216-307.219-684.216L-307.219-684.216z"/>
		</g>
	</g>
	<g display="inline">
		<g>
			<path fill="#74AFD1" d="M-293.097-694.645c1.935,0,1.935-3,0-3S-295.032-694.645-293.097-694.645L-293.097-694.645z"/>
		</g>
	</g>
</g>
</svg>
