<?xml version="1.0" encoding="utf-8"?>
<!-- Generator: Adobe Illustrator 15.1.0, SVG Export Plug-In . SVG Version: 6.00 Build 0)  -->
<!DOCTYPE svg PUBLIC "-//W3C//DTD SVG 1.1//EN" "http://www.w3.org/Graphics/SVG/1.1/DTD/svg11.dtd">
<svg version="1.1" xmlns="http://www.w3.org/2000/svg" xmlns:xlink="http://www.w3.org/1999/xlink" x="0px" y="0px" width="400px"
	 height="400px" viewBox="0 0 400 400" enable-background="new 0 0 400 400" xml:space="preserve">
<g id="guide_lines_layer" display="none">
	<rect x="325" display="inline" fill="#FFFFFF" stroke="#000000" stroke-miterlimit="10" width="75" height="400"/>
	<rect display="inline" fill="#FFFFFF" stroke="#000000" stroke-miterlimit="10" width="75" height="400"/>
</g>
<g id="body_layer">
	<path fill="#8BCEAB" d="M324.926,0.618l2.023,127.449c-2.206,25.479,41-4,41,29c0,32.062-120,28-119,14c0.778-10.891-6-128-59-122
		c-32.804,3.715-43.046,125.094-45,129c-3,6-114,29-116-13c-1.813-38.074,45,1,43.169-35.008c0,0,2.881-125.732,3.77-129.441
		H324.926z"/>
	<path fill="#D6C370" d="M31.958,154.464c0,0-4.187,4.984-2.193,10.965c0,0-12.559-7.375-16.347,0.996
		C13.02,154.862,21.791,153.468,31.958,154.464z"/>
	<path fill="#D6C370" d="M31.759,166.423c0,0-1.199,5.385,4.98,8.975c0,0-12.755-4.189-16.543,4.182
		C19.798,168.017,21.592,165.425,31.759,166.423z"/>
	<path fill="#D6C370" d="M38.033,178.126l7.841,2.83c0,0-8.395,3.072-11.97,13.586C30.997,187.55,31.905,181.747,38.033,178.126z"/>
	<path fill="#D6C370" d="M363.706,144.464c0,0,4.069,4.984,2.131,10.965c0,0,13.207-8.375,16.89-0.004
		C383.113,143.862,373.588,143.468,363.706,144.464z"/>
	<path fill="#D6C370" d="M363.899,157.423c0,0,0.193,4.385-5.812,7.975c0,0,14.369-4.189,18.051,4.182
		C376.525,158.017,373.781,156.425,363.899,157.423z"/>
	<path fill="#D6C370" d="M356.829,168.126l-7.621,2.83c0,0,8.158,3.072,11.634,13.586
		C363.667,177.55,362.785,171.747,356.829,168.126z"/>
	<path fill="#72C596" d="M75.933,8.044c0,0,139.461,50.713-3.889,123.271L75.933,8.044z"/>
	<path fill="#72C596" d="M325.212,5.571c0,0-124.187,45.307,1.429,119.307L325.212,5.571z"/>
</g>
<g id="face_layer" display="none">
</g>
</svg>
