<?xml version="1.0" encoding="utf-8"?>
<!-- Generator: Adobe Illustrator 15.1.0, SVG Export Plug-In . SVG Version: 6.00 Build 0)  -->
<!DOCTYPE svg PUBLIC "-//W3C//DTD SVG 1.1//EN" "http://www.w3.org/Graphics/SVG/1.1/DTD/svg11.dtd">
<svg version="1.1" xmlns="http://www.w3.org/2000/svg" xmlns:xlink="http://www.w3.org/1999/xlink" x="0px" y="0px" width="400px"
	 height="400px" viewBox="0 0 400 400" enable-background="new 0 0 400 400" xml:space="preserve">
<g id="guide_lines_layer" display="none">
	<rect x="325" y="-0.667" display="inline" fill="#FFFFFF" stroke="#000000" stroke-miterlimit="10" width="75" height="400"/>
	<rect y="0.333" display="inline" fill="#FFFFFF" stroke="#000000" stroke-miterlimit="10" width="75" height="400"/>
</g>
<g id="body_layer">
	<path fill="#E06899" d="M324.483,0.509l2.023,127.449c-2.206,25.479,41-4,41,29c0,32.062-120,28-119,14c0.778-10.891-6-128-59-122
		c-32.804,3.715-43.046,125.094-45,129c-3,6-114,29-116-13c-1.813-38.074,45,1,43.169-35.008c0,0,2.881-125.732,3.77-129.441
		H324.483z"/>
	<path fill="#D6C370" d="M30.516,154.354c0,0-4.187,4.984-2.193,10.965c0,0-12.559-7.375-16.347,0.996
		C11.577,154.753,20.349,153.358,30.516,154.354z"/>
	<path fill="#D6C370" d="M31.316,166.313c0,0-1.199,5.385,4.98,8.975c0,0-12.755-4.189-16.543,4.182
		C19.355,167.907,21.149,165.315,31.316,166.313z"/>
	<path fill="#D6C370" d="M37.591,178.017l7.841,2.83c0,0-8.395,3.072-11.97,13.586C30.555,187.44,31.463,181.638,37.591,178.017z"/>
	<path fill="#D6C370" d="M363.264,144.354c0,0,4.069,4.984,2.131,10.965c0,0,13.207-8.375,16.89-0.004
		C382.671,143.753,373.146,143.358,363.264,144.354z"/>
	<path fill="#D6C370" d="M363.457,157.313c0,0,0.193,4.385-5.812,7.975c0,0,14.369-4.189,18.051,4.182
		C376.083,157.907,373.339,156.315,363.457,157.313z"/>
	<path fill="#D6C370" d="M356.387,168.017l-7.621,2.83c0,0,8.158,3.072,11.634,13.586
		C363.225,177.44,362.343,171.638,356.387,168.017z"/>
	<path fill="#D65490" d="M75.49,7.935c0,0,139.461,50.713-3.889,123.271L75.49,7.935z"/>
	<path fill="#D65490" d="M324.77,5.462c0,0-124.187,45.307,1.429,119.307L324.77,5.462z"/>
</g>
<g id="face_layer" display="none">
</g>
</svg>
