<?xml version="1.0" encoding="utf-8"?>
<!-- Generator: Adobe Illustrator 15.1.0, SVG Export Plug-In . SVG Version: 6.00 Build 0)  -->
<!DOCTYPE svg PUBLIC "-//W3C//DTD SVG 1.1//EN" "http://www.w3.org/Graphics/SVG/1.1/DTD/svg11.dtd">
<svg version="1.1" xmlns="http://www.w3.org/2000/svg" xmlns:xlink="http://www.w3.org/1999/xlink" x="0px" y="0px" width="400px"
	 height="400px" viewBox="0 0 400 400" enable-background="new 0 0 400 400" xml:space="preserve">
<g id="guide_lines_layer" display="none">
	<rect x="-0.75" y="-401.565" display="inline" fill="#FFFFFF" stroke="#000000" stroke-miterlimit="10" width="75" height="400"/>
	<rect x="323.5" y="-405.564" display="inline" fill="#FFFFFF" stroke="#000000" stroke-miterlimit="10" width="75" height="400"/>
	<rect x="323.5" y="-808.554" display="inline" fill="#FFFFFF" stroke="#000000" stroke-miterlimit="10" width="75" height="400"/>
	<rect x="-0.75" y="-808.554" display="inline" fill="#FFFFFF" stroke="#000000" stroke-miterlimit="10" width="75" height="400"/>
	
		<rect x="458.559" y="-813.053" display="inline" fill="#FFFFFF" stroke="#000000" stroke-miterlimit="10" width="75" height="400"/>
	
		<rect x="783.559" y="-814.053" display="inline" fill="#FFFFFF" stroke="#000000" stroke-miterlimit="10" width="75" height="400"/>
	
		<rect x="783.558" y="-406.019" display="inline" fill="#FFFFFF" stroke="#000000" stroke-miterlimit="10" width="75" height="400"/>
	
		<rect x="458.558" y="-406.019" display="inline" fill="#FFFFFF" stroke="#000000" stroke-miterlimit="10" width="75" height="400"/>
	<rect x="-0.75" display="inline" fill="#FFFFFF" stroke="#000000" stroke-miterlimit="10" width="75" height="400"/>
	<rect x="323.5" display="inline" fill="#FFFFFF" stroke="#000000" stroke-miterlimit="10" width="75" height="400"/>
	<rect x="785.058" display="inline" fill="#FFFFFF" stroke="#000000" stroke-miterlimit="10" width="75" height="400"/>
	<rect x="460.058" display="inline" fill="#FFFFFF" stroke="#000000" stroke-miterlimit="10" width="75" height="400"/>
	
		<rect x="914.833" y="-811.887" display="inline" fill="#FFFFFF" stroke="#000000" stroke-miterlimit="10" width="75" height="400"/>
	
		<rect x="1239.833" y="-811.887" display="inline" fill="#FFFFFF" stroke="#000000" stroke-miterlimit="10" width="75" height="399.999"/>
	<rect x="1238.5" y="-398.554" display="inline" fill="#FFFFFF" stroke="#000000" stroke-miterlimit="10" width="75" height="400"/>
	<rect x="913.5" y="-398.554" display="inline" fill="#FFFFFF" stroke="#000000" stroke-miterlimit="10" width="75" height="400"/>
	<rect x="1239.833" y="8.446" display="inline" fill="#FFFFFF" stroke="#000000" stroke-miterlimit="10" width="75" height="400"/>
	<rect x="914.833" y="9.446" display="inline" fill="#FFFFFF" stroke="#000000" stroke-miterlimit="10" width="75" height="400"/>
	
		<rect x="1388.105" y="-812.522" display="inline" fill="#FFFFFF" stroke="#000000" stroke-miterlimit="10" width="75" height="400"/>
	
		<rect x="1713.105" y="-812.522" display="inline" fill="#FFFFFF" stroke="#000000" stroke-miterlimit="10" width="75" height="399.999"/>
	
		<rect x="1711.772" y="-397.554" display="inline" fill="#FFFFFF" stroke="#000000" stroke-miterlimit="10" width="75" height="400"/>
	<rect x="1387.5" y="-397.554" display="inline" fill="#FFFFFF" stroke="#000000" stroke-miterlimit="10" width="75" height="400"/>
	<rect x="1711.772" y="7.811" display="inline" fill="#FFFFFF" stroke="#000000" stroke-miterlimit="10" width="75" height="400"/>
	<rect x="1386.772" y="8.811" display="inline" fill="#FFFFFF" stroke="#000000" stroke-miterlimit="10" width="75" height="400"/>
</g>
<g id="body_layer">
	<path fill="#DBCD7D" d="M1509.835-674.887c0,0-63.33-68.667-118.667-8.667c62.715-18,76.856-2,88.539,29.334
		C1491.009-623.909,1509.835-674.887,1509.835-674.887z"/>
	<path fill="#DBCD7D" d="M1654.5-672.887c0,0,63.33-68.667,118.667-8.667c-62.715-18-76.856-2-88.539,29.333
		C1673.326-621.91,1654.5-672.887,1654.5-672.887z"/>
	<path fill="#7DC6DD" d="M74.167-411.552c-2.883-20-6.001-94.502-1.501-143.002c3.743-40.334,17.835-96.814,42.335-118.185
		c3.563-3.109-30.615-46.477-26.834-49.162c3.812-2.707,45.584,35.273,49.586,33.007c14.496-8.207,30.145-13.495,46.222-15.626
		c5.358-0.71,10.294-53.233,15.722-53.233c6.436,0,13.158,52.65,19.217,53.576c18.174,2.776,34.613,9.508,49.126,18.933
		c2.902,1.885,44.048-32.705,46.795-30.614c3.355,2.554-31.726,41.835-28.608,44.662c29.753,26.976,31.94,73.644,35.44,119.144
		c2.627,34.148,4.752,126.445,1.92,140.279L74.167-411.552z"/>
	<path fill="#79C2EA" stroke="#FFFFFF" stroke-miterlimit="10" d="M-225.5-605.554"/>
	<path fill="#7DC6DD" d="M73.5-405.553v46c0,0-4,30-21,37s-27,11-27,31s11,36-6,41s-14,15,0,15s25.353-13.575,26.774-25.657
		c1.963-16.687-8.344-22.576,7.853-32.883c9.972-6.346,19.141-5.399,19.141-5.399l-0.492,53.985c0,0-28.436,6.475-36.318,25.523
		c-11.779,28.464,4.968,47.216,1.042,62.431c-6.039,23.4-23.395,19.503-22.5,28c1,9.5,37.038,0.956,39-28
		c1.114-16.443-2.814-21.393-3.309-29.06c-0.982-15.214,9.325-26.993,23.067-25.519L73.5-123.553c0,0,0.629,17.897-13.484,28.718
		c-14.724,11.288-18.65,9.815-26.012,16.688C16.064-61.403,27.132-42.32,18.298-36.43C4.235-27.053,3.083-14.835,15.353-19.743
		c22.104-8.843,21.777-16.334,24.54-33.374C42.837-71.276,69.5-75.553,69.5-75.553h4l0.903,70.988H185.5l7-400L73.5-405.553z"/>
	<path fill="#7DC6DD" d="M69.5-75.553"/>
	<circle fill="#36A1BA" cx="50.667" cy="-316.387" r="7.833"/>
	<circle fill="#36A1BA" cx="51.667" cy="-295.387" r="6.167"/>
	<circle fill="#36A1BA" cx="34.001" cy="-298.721" r="5.833"/>
	<circle fill="#36A1BA" cx="42.501" cy="-281.554" r="4.333"/>
	<circle fill="#36A1BA" cx="29.834" cy="-287.554" r="4.667"/>
	<circle fill="#36A1BA" cx="32.501" cy="-274.221" r="4"/>
	<circle fill="#36A1BA" cx="44.001" cy="-267.387" r="3.5"/>
	<circle fill="#36A1BA" cx="33.001" cy="-261.387" r="3.833"/>
	<circle fill="#36A1BA" cx="39.834" cy="-251.554" r="3.667"/>
	<circle fill="#36A1BA" cx="26.834" cy="-249.888" r="3.333"/>
	<circle fill="#36A1BA" cx="30.667" cy="-241.053" r="2.833"/>
	<circle fill="#36A1BA" cx="16.834" cy="-242.554" r="3"/>
	<circle fill="#36A1BA" cx="69.501" cy="-236.887" r="9"/>
	<circle fill="#36A1BA" cx="58.167" cy="-214.221" r="8"/>
	<circle fill="#36A1BA" cx="48.334" cy="-227.721" r="6.833"/>
	<circle fill="#36A1BA" cx="37.667" cy="-216.054" r="6.167"/>
	<circle fill="#36A1BA" cx="34.501" cy="-199.553" r="6.167"/>
	<circle fill="#36A1BA" cx="49.001" cy="-198.72" r="6.5"/>
	<circle fill="#36A1BA" cx="38.001" cy="-183.721" r="4.833"/>
	<circle fill="#36A1BA" cx="49.834" cy="-179.22" r="4"/>
	<circle fill="#36A1BA" cx="42.334" cy="-168.387" r="3.833"/>
	<circle fill="#36A1BA" cx="51.001" cy="-164.721" r="3.833"/>
	<circle fill="#36A1BA" cx="40.668" cy="-156.053" r="4.167"/>
	<circle fill="#36A1BA" cx="43.167" cy="-140.053" r="3.5"/>
	<circle fill="#36A1BA" cx="36.168" cy="-146.553" r="3.333"/>
	<circle fill="#36A1BA" cx="51.167" cy="-149.22" r="4.333"/>
	<circle fill="#36A1BA" cx="32.334" cy="-132.053" r="3.833"/>
	<circle fill="#36A1BA" cx="62.667" cy="-91.387" r="6.167"/>
	<circle fill="#36A1BA" cx="52.001" cy="-72.388" r="4.167"/>
	<circle fill="#36A1BA" cx="52.334" cy="-84.72" r="3.833"/>
	<circle fill="#36A1BA" cx="40.501" cy="-77.221" r="4.333"/>
	<circle fill="#36A1BA" cx="26.501" cy="-52.888" r="3"/>
	<circle fill="#36A1BA" cx="31.334" cy="-66.055" r="4.167"/>
	<circle fill="#36A1BA" cx="42.001" cy="-63.721" r="4.833"/>
	<circle fill="#36A1BA" cx="64.168" cy="-77.888" r="5.667"/>
	<circle fill="#36A1BA" cx="33.001" cy="-34.388" r="3.5"/>
	<circle fill="#36A1BA" cx="22.334" cy="-33.721" r="3.5"/>
	<circle fill="#36A1BA" cx="34.001" cy="-47.055" r="3.5"/>
	<circle fill="#36A1BA" cx="36.001" cy="-55.388" r="3.5"/>
	<circle fill="#36A1BA" cx="24.834" cy="-41.555" r="3"/>
	<circle fill="#36A1BA" cx="19.334" cy="-25.721" r="3.167"/>
	<path fill="#7DC6DD" d="M323.483-404.564l-0.941,45.012c0,0,4.405,30,23.125,37c18.721,7,29.732,11,29.732,31s-12.113,36,6.607,41
		c18.72,5,15.416,15,0,15c-15.417,0-27.919-13.575-29.484-25.657c-2.161-16.687,9.188-22.576-8.646-32.883
		c-10.982-6.346-21.078-5.399-21.078-5.399l0.541,53.985c0,0,31.313,6.475,39.993,25.523c12.972,28.464-5.47,47.216-1.146,62.431
		c6.649,23.4,25.762,19.503,24.776,28c-1.102,9.5-40.785,0.956-42.946-28c-1.228-16.443,3.099-21.393,3.644-29.06
		c1.081-15.214-10.269-26.993-25.401-25.519l0.284,88.578c0,0-0.692,17.897,14.849,28.718c16.215,11.288,20.538,9.815,28.645,16.688
		c19.755,16.744,7.566,35.827,17.295,41.718c15.486,9.377,16.754,21.595,3.242,16.687c-24.34-8.843-23.98-16.334-27.021-33.374
		c-3.244-18.159-32.604-22.436-32.604-22.436h-4.405l1.381,70.988H184.247l7.253-400H323.483z"/>
	<path fill="#7DC6DD" d="M326.947-75.553"/>
	<ellipse fill="#36A1BA" cx="347.685" cy="-316.387" rx="8.626" ry="7.833"/>
	<ellipse fill="#36A1BA" cx="346.583" cy="-295.387" rx="6.791" ry="6.166"/>
	<ellipse fill="#36A1BA" cx="366.038" cy="-298.721" rx="6.423" ry="5.834"/>
	<ellipse fill="#36A1BA" cx="356.678" cy="-281.554" rx="4.771" ry="4.333"/>
	<ellipse fill="#36A1BA" cx="370.626" cy="-287.554" rx="5.139" ry="4.667"/>
	<ellipse fill="#36A1BA" cx="367.69" cy="-274.221" rx="4.405" ry="4"/>
	<ellipse fill="#36A1BA" cx="355.026" cy="-267.387" rx="3.854" ry="3.5"/>
	<ellipse fill="#36A1BA" cx="367.139" cy="-261.387" rx="4.221" ry="3.833"/>
	<ellipse fill="#36A1BA" cx="359.614" cy="-251.554" rx="4.038" ry="3.667"/>
	<ellipse fill="#36A1BA" cx="373.93" cy="-249.888" rx="3.671" ry="3.333"/>
	<ellipse fill="#36A1BA" cx="369.709" cy="-241.053" rx="3.12" ry="2.833"/>
	<ellipse fill="#36A1BA" cx="384.942" cy="-242.554" rx="3.304" ry="3"/>
	<ellipse fill="#36A1BA" cx="326.946" cy="-236.887" rx="9.911" ry="9"/>
	<ellipse fill="#36A1BA" cx="339.426" cy="-214.221" rx="8.81" ry="8"/>
	<ellipse fill="#36A1BA" cx="350.254" cy="-227.721" rx="7.525" ry="6.834"/>
	<ellipse fill="#36A1BA" cx="362.001" cy="-216.054" rx="6.791" ry="6.167"/>
	<ellipse fill="#36A1BA" cx="365.487" cy="-199.553" rx="6.791" ry="6.167"/>
	<ellipse fill="#36A1BA" cx="349.52" cy="-198.72" rx="7.158" ry="6.5"/>
	<ellipse fill="#36A1BA" cx="361.633" cy="-183.721" rx="5.322" ry="4.834"/>
	<ellipse fill="#36A1BA" cx="348.603" cy="-179.22" rx="4.405" ry="4"/>
	<ellipse fill="#36A1BA" cx="356.861" cy="-168.387" rx="4.222" ry="3.833"/>
	<ellipse fill="#36A1BA" cx="347.318" cy="-164.721" rx="4.221" ry="3.834"/>
	<ellipse fill="#36A1BA" cx="358.696" cy="-156.053" rx="4.589" ry="4.167"/>
	<ellipse fill="#36A1BA" cx="355.944" cy="-140.053" rx="3.854" ry="3.5"/>
	<ellipse fill="#36A1BA" cx="363.652" cy="-146.553" rx="3.671" ry="3.334"/>
	<ellipse fill="#36A1BA" cx="347.135" cy="-149.22" rx="4.771" ry="4.333"/>
	<ellipse fill="#36A1BA" cx="367.874" cy="-132.053" rx="4.221" ry="3.834"/>
	<ellipse fill="#36A1BA" cx="334.472" cy="-91.387" rx="6.791" ry="6.167"/>
	<ellipse fill="#36A1BA" cx="346.216" cy="-72.388" rx="4.588" ry="4.166"/>
	<ellipse fill="#36A1BA" cx="345.85" cy="-84.72" rx="4.222" ry="3.833"/>
	<ellipse fill="#36A1BA" cx="358.881" cy="-77.221" rx="4.771" ry="4.334"/>
	<ellipse fill="#36A1BA" cx="374.297" cy="-52.888" rx="3.304" ry="3"/>
	<ellipse fill="#36A1BA" cx="368.975" cy="-66.055" rx="4.588" ry="4.167"/>
	<ellipse fill="#36A1BA" cx="357.229" cy="-63.721" rx="5.322" ry="4.833"/>
	<ellipse fill="#36A1BA" cx="332.818" cy="-77.888" rx="6.239" ry="5.666"/>
	<ellipse fill="#36A1BA" cx="367.139" cy="-34.388" rx="3.854" ry="3.5"/>
	<ellipse fill="#36A1BA" cx="378.886" cy="-33.721" rx="3.854" ry="3.5"/>
	<ellipse fill="#36A1BA" cx="366.038" cy="-47.055" rx="3.854" ry="3.5"/>
	<ellipse fill="#36A1BA" cx="363.835" cy="-55.388" rx="3.854" ry="3.5"/>
	<ellipse fill="#36A1BA" cx="376.133" cy="-41.555" rx="3.304" ry="3"/>
	<ellipse fill="#36A1BA" cx="382.189" cy="-25.721" rx="3.487" ry="3.166"/>
	<path fill="#52BFD1" d="M298.833-209.541c0,99.408-43.169,179.988-96.417,179.988S106-110.133,106-209.541
		c0-99.43,43.168-180.012,96.417-180.012S298.833-308.971,298.833-209.541z"/>
	<path fill="#52BFD1" d="M316.832-556.55c0,19.33-16.977,34.998-37.917,34.998c-20.939,0-37.916-15.668-37.916-34.998
		c0-19.334,16.977-35.002,37.916-35.002C299.855-591.552,316.832-575.884,316.832-556.55z"/>
	<path fill="#52BFD1" d="M160.832-553.55c0,19.33-16.977,34.998-37.917,34.998c-20.939,0-37.916-15.668-37.916-34.998
		c0-19.334,16.977-35.002,37.916-35.002C143.855-588.552,160.832-572.884,160.832-553.55z"/>
	<g>
		<g>
			<path fill="#7DC6DD" d="M118.108-691.56c0.65,0,2.082-0.987,0.781-0.987C118.239-692.547,116.808-691.56,118.108-691.56
				L118.108-691.56z"/>
		</g>
	</g>
	<g>
		<g>
			<path fill="none" stroke="#F2E4D2" stroke-miterlimit="10" d="M284.999-691.053"/>
		</g>
	</g>
	<g>
		<g>
			<path fill="none" stroke="#F2E4D2" stroke-miterlimit="10" d="M196.999-692.053"/>
		</g>
	</g>
	<path fill="#6FC5D8" d="M324.977,0L327,127.449c-2.206,25.478,41-4,41,29c0,32.062-120,28-119,14c0.778-10.892-6-128-59-122
		c-32.804,3.714-43.046,125.093-45,129c-3,6-115,30-117-12c-1.813-38.075,46,0,44.168-36.008c0,0,2.881-125.732,3.77-129.441
		H324.977z"/>
	<path fill="#D6C370" d="M31.009,153.846c0,0-4.187,4.983-2.193,10.965c0,0-12.559-7.376-16.347,0.996
		C12.07,154.244,20.842,152.849,31.009,153.846z"/>
	<path fill="#D6C370" d="M30.81,166.804c0,0-0.199,4.386,5.98,7.975c0,0-13.755-3.189-17.543,5.183
		C18.849,168.398,20.643,165.807,30.81,166.804z"/>
	<path fill="#D6C370" d="M38.084,177.507l7.841,2.83c0,0-8.394,3.072-11.97,13.587C31.048,186.932,31.956,181.129,38.084,177.507z"
		/>
	<path fill="#D6C370" d="M363.757,143.846c0,0,4.069,4.983,2.131,10.965c0,0,12.207-7.376,15.89,0.996
		C382.164,144.244,373.639,142.849,363.757,143.846z"/>
	<path fill="#D6C370" d="M363.95,156.804c0,0,0.193,4.386-5.812,7.975c0,0,13.369-3.189,17.051,5.183
		C375.576,158.398,373.832,155.807,363.95,156.804z"/>
	<path fill="#D6C370" d="M356.88,167.507l-7.621,2.83c0,0,8.158,3.072,11.634,13.587
		C363.718,176.932,362.836,171.129,356.88,167.507z"/>
	<path fill="#52BFD1" d="M75.983,7.426c0,0,139.461,50.713-3.888,123.271L75.983,7.426z"/>
	<path fill="#52BFD1" d="M325.263,4.953c0,0-124.187,45.307,1.429,119.307L325.263,4.953z"/>
	<path fill="#8BCEAB" d="M531.675-413.433c-2.881-20-6-94.502-1.5-143.002c3.742-40.336,17.835-96.814,42.335-118.185
		c3.563-3.109-30.614-46.478-26.833-49.163c3.811-2.707,45.583,35.274,49.586,33.009c14.496-8.207,30.144-13.496,46.221-15.628
		c5.359-0.709,10.294-53.232,15.722-53.232c6.436,0,13.158,52.648,19.217,53.574c18.174,2.778,34.613,9.509,49.126,18.935
		c2.902,1.885,44.048-32.706,46.795-30.616c3.355,2.555-31.726,41.837-28.608,44.663c29.753,26.976,31.94,73.642,35.44,119.144
		c2.627,34.148,4.752,126.445,1.92,140.279L531.675-413.433z"/>
	<path fill="#8BCEAB" d="M532.507-405.935v46c0,0-4,30-21,37s-27,11-27,31s11,36-6,41s-14,15,0,15s25.353-13.574,26.774-25.656
		c1.963-16.688-8.344-22.576,7.853-32.883c9.972-6.346,19.142-5.4,19.142-5.4l-0.492,53.986c0,0-28.436,6.475-36.318,25.523
		c-11.779,28.463,4.969,47.215,1.042,62.43c-6.038,23.4-23.395,19.504-22.5,28c1,9.5,37.038,0.957,39-28
		c1.114-16.443-2.813-21.393-3.309-29.059c-0.981-15.215,9.325-26.994,23.067-25.52l-0.259,88.578c0,0,0.63,17.898-13.484,28.719
		c-14.724,11.287-18.649,9.814-26.013,16.688c-17.938,16.744-6.871,35.826-15.705,41.717c-14.062,9.377-15.215,21.596-2.945,16.688
		c22.105-8.844,21.777-16.334,24.541-33.375c2.943-18.158,29.606-22.436,29.606-22.436h4l0.903,70.988h111.097l7-400
		L532.507-405.935z"/>
	<path fill="#7DC6DD" d="M528.507-75.935"/>
	<circle fill="#60A37B" cx="509.674" cy="-316.769" r="7.833"/>
	<circle fill="#60A37B" cx="510.674" cy="-295.769" r="6.167"/>
	<circle fill="#60A37B" cx="493.008" cy="-299.103" r="5.834"/>
	<circle fill="#60A37B" cx="501.507" cy="-281.935" r="4.333"/>
	<circle fill="#60A37B" cx="488.841" cy="-287.935" r="4.667"/>
	<circle fill="#60A37B" cx="491.508" cy="-274.603" r="4"/>
	<circle fill="#60A37B" cx="503.008" cy="-267.769" r="3.5"/>
	<circle fill="#60A37B" cx="492.008" cy="-261.769" r="3.834"/>
	<circle fill="#60A37B" cx="498.841" cy="-251.935" r="3.667"/>
	<circle fill="#60A37B" cx="485.841" cy="-250.269" r="3.333"/>
	<circle fill="#60A37B" cx="489.674" cy="-241.435" r="2.833"/>
	<circle fill="#60A37B" cx="475.841" cy="-242.935" r="3"/>
	<circle fill="#60A37B" cx="528.508" cy="-237.269" r="9"/>
	<circle fill="#60A37B" cx="517.174" cy="-214.603" r="8"/>
	<circle fill="#60A37B" cx="507.341" cy="-228.103" r="6.833"/>
	<circle fill="#60A37B" cx="496.675" cy="-216.435" r="6.167"/>
	<circle fill="#60A37B" cx="493.508" cy="-199.935" r="6.167"/>
	<circle fill="#60A37B" cx="508.008" cy="-199.101" r="6.5"/>
	<circle fill="#60A37B" cx="497.008" cy="-184.103" r="4.834"/>
	<circle fill="#60A37B" cx="508.841" cy="-179.601" r="4"/>
	<circle fill="#60A37B" cx="501.341" cy="-168.769" r="3.833"/>
	<circle fill="#60A37B" cx="510.007" cy="-165.103" r="3.833"/>
	<circle fill="#60A37B" cx="499.675" cy="-156.435" r="4.167"/>
	<circle fill="#60A37B" cx="502.174" cy="-140.435" r="3.5"/>
	<circle fill="#60A37B" cx="495.175" cy="-146.935" r="3.333"/>
	<circle fill="#60A37B" cx="510.175" cy="-149.601" r="4.333"/>
	<circle fill="#60A37B" cx="491.341" cy="-132.435" r="3.833"/>
	<circle fill="#60A37B" cx="521.675" cy="-91.769" r="6.167"/>
	<circle fill="#60A37B" cx="511.008" cy="-72.769" r="4.167"/>
	<circle fill="#60A37B" cx="511.341" cy="-85.101" r="3.833"/>
	<circle fill="#60A37B" cx="499.508" cy="-77.603" r="4.333"/>
	<circle fill="#60A37B" cx="485.508" cy="-53.269" r="3"/>
	<circle fill="#60A37B" cx="490.341" cy="-66.437" r="4.167"/>
	<circle fill="#60A37B" cx="501.008" cy="-64.103" r="4.833"/>
	<circle fill="#60A37B" cx="523.175" cy="-78.269" r="5.667"/>
	<circle fill="#60A37B" cx="492.008" cy="-34.769" r="3.5"/>
	<circle fill="#60A37B" cx="481.342" cy="-34.103" r="3.5"/>
	<circle fill="#60A37B" cx="493.008" cy="-47.437" r="3.5"/>
	<circle fill="#60A37B" cx="495.008" cy="-55.769" r="3.5"/>
	<circle fill="#60A37B" cx="483.842" cy="-41.937" r="3"/>
	<circle fill="#60A37B" cx="478.341" cy="-26.103" r="3.167"/>
	<path fill="#8BCEAB" d="M784.49-404.946l-2.941,45.012c0,0,4.405,30,23.125,37c18.721,7,29.732,11,29.732,31s-12.113,36,6.607,41
		c18.72,5,15.416,15,0,15c-15.417,0-27.919-13.574-29.484-25.656c-2.161-16.688,9.188-22.576-8.646-32.883
		c-10.982-6.346-21.078-5.4-21.078-5.4l0.541,53.986c0,0,31.313,6.475,39.993,25.523c12.972,28.463-5.47,47.215-1.146,62.43
		c6.649,23.4,25.762,19.504,24.776,28c-1.102,9.5-40.785,0.957-42.946-28c-1.228-16.443,3.099-21.393,3.644-29.059
		c1.081-15.215-10.269-26.994-25.401-25.52l0.284,88.578c0,0-0.692,17.898,14.849,28.719c16.215,11.287,20.538,9.814,28.645,16.688
		c19.755,16.744,7.566,35.826,17.295,41.717c15.486,9.377,16.754,21.596,3.242,16.688c-24.34-8.844-23.98-16.334-27.021-33.375
		c-3.244-18.158-32.604-22.436-32.604-22.436h-4.405l3.381,70.988H643.254l7.253-400H784.49z"/>
	<path fill="#7DC6DD" d="M785.954-75.935"/>
	<ellipse fill="#60A37B" cx="806.692" cy="-316.769" rx="8.626" ry="7.834"/>
	<ellipse fill="#60A37B" cx="805.59" cy="-295.769" rx="6.791" ry="6.166"/>
	<ellipse fill="#60A37B" cx="825.045" cy="-299.103" rx="6.423" ry="5.834"/>
	<ellipse fill="#60A37B" cx="815.685" cy="-281.935" rx="4.771" ry="4.332"/>
	<ellipse fill="#60A37B" cx="829.633" cy="-287.935" rx="5.139" ry="4.666"/>
	<ellipse fill="#60A37B" cx="826.697" cy="-274.603" rx="4.405" ry="4"/>
	<ellipse fill="#60A37B" cx="814.033" cy="-267.769" rx="3.854" ry="3.5"/>
	<ellipse fill="#60A37B" cx="826.146" cy="-261.769" rx="4.221" ry="3.834"/>
	<ellipse fill="#60A37B" cx="818.621" cy="-251.935" rx="4.038" ry="3.666"/>
	<ellipse fill="#60A37B" cx="832.937" cy="-250.269" rx="3.671" ry="3.332"/>
	<ellipse fill="#60A37B" cx="828.716" cy="-241.435" rx="3.12" ry="2.834"/>
	<ellipse fill="#60A37B" cx="843.949" cy="-242.935" rx="3.304" ry="3"/>
	<ellipse fill="#60A37B" cx="785.953" cy="-237.269" rx="9.911" ry="9"/>
	<ellipse fill="#60A37B" cx="798.433" cy="-214.603" rx="8.81" ry="8"/>
	<ellipse fill="#60A37B" cx="809.261" cy="-228.103" rx="7.525" ry="6.834"/>
	<ellipse fill="#60A37B" cx="821.008" cy="-216.435" rx="6.791" ry="6.166"/>
	<ellipse fill="#60A37B" cx="824.494" cy="-199.935" rx="6.791" ry="6.168"/>
	<ellipse fill="#60A37B" cx="808.527" cy="-199.101" rx="7.158" ry="6.5"/>
	<ellipse fill="#60A37B" cx="820.64" cy="-184.103" rx="5.322" ry="4.834"/>
	<ellipse fill="#60A37B" cx="807.61" cy="-179.601" rx="4.405" ry="4"/>
	<ellipse fill="#60A37B" cx="815.868" cy="-168.769" rx="4.222" ry="3.834"/>
	<ellipse fill="#60A37B" cx="806.325" cy="-165.103" rx="4.221" ry="3.834"/>
	<ellipse fill="#60A37B" cx="817.703" cy="-156.435" rx="4.589" ry="4.168"/>
	<ellipse fill="#60A37B" cx="814.951" cy="-140.435" rx="3.854" ry="3.5"/>
	<ellipse fill="#60A37B" cx="822.659" cy="-146.935" rx="3.671" ry="3.334"/>
	<ellipse fill="#60A37B" cx="806.142" cy="-149.601" rx="4.771" ry="4.332"/>
	<ellipse fill="#60A37B" cx="826.88" cy="-132.435" rx="4.221" ry="3.834"/>
	<ellipse fill="#60A37B" cx="793.479" cy="-91.769" rx="6.791" ry="6.168"/>
	<ellipse fill="#60A37B" cx="805.223" cy="-72.769" rx="4.588" ry="4.166"/>
	<ellipse fill="#60A37B" cx="804.856" cy="-85.101" rx="4.222" ry="3.832"/>
	<ellipse fill="#60A37B" cx="817.888" cy="-77.603" rx="4.771" ry="4.334"/>
	<ellipse fill="#60A37B" cx="833.304" cy="-53.269" rx="3.304" ry="3"/>
	<ellipse fill="#60A37B" cx="827.981" cy="-66.437" rx="4.588" ry="4.168"/>
	<ellipse fill="#60A37B" cx="816.235" cy="-64.103" rx="5.322" ry="4.834"/>
	<ellipse fill="#60A37B" cx="791.825" cy="-78.269" rx="6.239" ry="5.666"/>
	<ellipse fill="#60A37B" cx="826.146" cy="-34.769" rx="3.854" ry="3.5"/>
	<ellipse fill="#60A37B" cx="837.893" cy="-34.103" rx="3.854" ry="3.5"/>
	<ellipse fill="#60A37B" cx="825.045" cy="-47.437" rx="3.854" ry="3.5"/>
	<ellipse fill="#60A37B" cx="822.842" cy="-55.769" rx="3.854" ry="3.5"/>
	<ellipse fill="#60A37B" cx="835.14" cy="-41.937" rx="3.304" ry="3"/>
	<ellipse fill="#60A37B" cx="841.196" cy="-26.103" rx="3.487" ry="3.166"/>
	<path fill="#72C596" d="M757.84-209.923c0,99.408-43.169,179.988-96.417,179.988s-96.417-80.58-96.417-179.988
		c0-99.43,43.169-180.012,96.417-180.012S757.84-309.353,757.84-209.923z"/>
	<path fill="#72C596" d="M774.341-558.431c0,19.33-16.977,34.998-37.917,34.998c-20.939,0-37.916-15.668-37.916-34.998
		c0-19.336,16.977-35.004,37.916-35.004C757.364-593.435,774.341-577.767,774.341-558.431z"/>
	<path fill="#72C596" d="M618.341-555.431c0,19.33-16.977,34.998-37.917,34.998c-20.939,0-37.916-15.668-37.916-34.998
		c0-19.336,16.977-35.004,37.916-35.004C601.364-590.435,618.341-574.767,618.341-555.431z"/>
	<g>
		<g>
			<path fill="#7DC6DD" d="M575.617-693.441c0.65,0,2.082-0.986,0.781-0.986C575.748-694.427,574.316-693.441,575.617-693.441
				L575.617-693.441z"/>
		</g>
	</g>
	<g>
		<g>
			<path fill="none" stroke="#F2E4D2" stroke-miterlimit="10" d="M742.508-692.934"/>
		</g>
	</g>
	<g>
		<g>
			<path fill="none" stroke="#F2E4D2" stroke-miterlimit="10" d="M654.508-693.934"/>
		</g>
	</g>
	<path fill="#8BCEAB" d="M784.983,0.618l2.023,127.449c-2.206,25.479,41-4,41,29c0,32.062-120,28-119,14c0.778-10.891-6-128-59-122
		c-32.804,3.715-43.046,125.094-45,129c-3,6-114,29-116-13c-1.813-38.074,45,1,43.169-35.008c0,0,2.881-125.732,3.77-129.441
		H784.983z"/>
	<path fill="#D6C370" d="M491.016,154.464c0,0-4.187,4.984-2.193,10.965c0,0-12.559-7.375-16.347,0.996
		C472.077,154.862,480.849,153.468,491.016,154.464z"/>
	<path fill="#D6C370" d="M491.816,166.423c0,0-1.199,5.385,4.98,8.975c0,0-12.755-4.189-16.543,4.182
		C479.855,168.017,481.649,165.425,491.816,166.423z"/>
	<path fill="#D6C370" d="M498.091,178.126l7.841,2.83c0,0-8.395,3.072-11.97,13.586C491.055,187.55,491.963,181.747,498.091,178.126
		z"/>
	<path fill="#D6C370" d="M823.764,144.464c0,0,4.069,4.984,2.131,10.965c0,0,13.207-8.375,16.89-0.004
		C843.171,143.862,833.646,143.468,823.764,144.464z"/>
	<path fill="#D6C370" d="M823.957,157.423c0,0,0.193,4.385-5.812,7.975c0,0,14.369-4.189,18.051,4.182
		C836.583,158.017,833.839,156.425,823.957,157.423z"/>
	<path fill="#D6C370" d="M816.887,168.126l-7.621,2.83c0,0,8.158,3.072,11.634,13.586
		C823.725,177.55,822.843,171.747,816.887,168.126z"/>
	<path fill="#72C596" d="M535.99,8.044c0,0,139.461,50.713-3.889,123.271L535.99,8.044z"/>
	<path fill="#72C596" d="M785.27,5.571c0,0-124.187,45.307,1.429,119.307L785.27,5.571z"/>
	<path fill="#E06899" d="M990.008-411.376c-2.881-20-6-94.502-1.5-143.002c3.742-40.336,17.835-96.815,42.335-118.186
		c3.563-3.109-30.614-46.478-26.833-49.163c3.811-2.707,45.583,35.274,49.586,33.009c14.496-8.207,30.144-13.496,46.221-15.628
		c5.359-0.709,10.294-53.232,15.722-53.232c6.436,0,13.158,52.648,19.217,53.574c18.174,2.778,34.613,9.509,49.126,18.935
		c2.902,1.885,44.048-32.706,46.795-30.616c3.355,2.555-31.726,41.837-28.608,44.663c29.753,26.976,31.94,73.643,35.44,119.145
		c2.627,34.148,4.752,126.445,1.92,140.279L990.008-411.376z"/>
	<path fill="#E06899" d="M988.507-399.044v46c0,0-4,30-21,37s-27,11-27,31s11,36-6,41s-14,15,0,15s25.353-13.576,26.774-25.658
		c1.963-16.686-8.344-22.576,7.853-32.883c9.972-6.346,19.142-5.398,19.142-5.398l-0.492,53.984c0,0-28.436,6.475-36.318,25.523
		c-11.779,28.465,4.969,47.217,1.042,62.432c-6.038,23.4-23.395,19.502-22.5,28c1,9.5,37.038,0.955,39-28
		c1.114-16.443-2.813-21.393-3.309-29.061c-0.981-15.213,9.325-26.992,23.067-25.518l-0.259,88.578c0,0,0.63,17.896-13.484,28.717
		c-14.724,11.289-18.649,9.816-26.013,16.688c-17.938,16.744-6.871,35.828-15.705,41.719c-14.062,9.377-15.215,21.594-2.945,16.686
		c22.105-8.842,21.777-16.334,24.541-33.373c2.943-18.16,29.606-22.436,29.606-22.436h4l0.903,70.988h111.097l7-400L988.507-399.044
		z"/>
	<path fill="#7DC6DD" d="M984.507-69.044"/>
	<circle fill="#B63C79" cx="965.674" cy="-309.878" r="7.833"/>
	<circle fill="#B63C79" cx="966.674" cy="-288.878" r="6.167"/>
	<circle fill="#B63C79" cx="949.008" cy="-292.212" r="5.834"/>
	<circle fill="#B63C79" cx="957.507" cy="-275.046" r="4.333"/>
	<circle fill="#B63C79" cx="944.841" cy="-281.046" r="4.667"/>
	<circle fill="#B63C79" cx="947.508" cy="-267.712" r="4"/>
	<circle fill="#B63C79" cx="959.008" cy="-260.878" r="3.5"/>
	<circle fill="#B63C79" cx="948.008" cy="-254.878" r="3.834"/>
	<circle fill="#B63C79" cx="954.841" cy="-245.046" r="3.667"/>
	<circle fill="#B63C79" cx="941.841" cy="-243.38" r="3.333"/>
	<circle fill="#B63C79" cx="945.674" cy="-234.544" r="2.833"/>
	<circle fill="#B63C79" cx="931.841" cy="-236.046" r="3"/>
	<circle fill="#B63C79" cx="984.508" cy="-230.378" r="9"/>
	<circle fill="#B63C79" cx="973.174" cy="-207.712" r="8"/>
	<circle fill="#B63C79" cx="963.341" cy="-221.212" r="6.833"/>
	<circle fill="#B63C79" cx="952.675" cy="-209.546" r="6.167"/>
	<circle fill="#B63C79" cx="949.508" cy="-193.044" r="6.167"/>
	<circle fill="#B63C79" cx="964.008" cy="-192.212" r="6.5"/>
	<circle fill="#B63C79" cx="953.008" cy="-177.212" r="4.834"/>
	<circle fill="#B63C79" cx="964.841" cy="-172.712" r="4"/>
	<circle fill="#B63C79" cx="957.341" cy="-161.878" r="3.833"/>
	<circle fill="#B63C79" cx="966.007" cy="-158.212" r="3.833"/>
	<circle fill="#B63C79" cx="955.675" cy="-149.544" r="4.167"/>
	<circle fill="#B63C79" cx="958.174" cy="-133.544" r="3.5"/>
	<circle fill="#B63C79" cx="951.175" cy="-140.044" r="3.333"/>
	<circle fill="#B63C79" cx="966.175" cy="-142.712" r="4.333"/>
	<circle fill="#B63C79" cx="947.341" cy="-125.544" r="3.833"/>
	<circle fill="#B63C79" cx="977.675" cy="-84.878" r="6.167"/>
	<circle fill="#B63C79" cx="967.008" cy="-65.88" r="4.167"/>
	<circle fill="#B63C79" cx="967.341" cy="-78.212" r="3.833"/>
	<circle fill="#B63C79" cx="955.508" cy="-70.712" r="4.333"/>
	<circle fill="#B63C79" cx="941.508" cy="-46.38" r="3"/>
	<circle fill="#B63C79" cx="946.341" cy="-59.546" r="4.167"/>
	<circle fill="#B63C79" cx="957.008" cy="-57.212" r="4.833"/>
	<circle fill="#B63C79" cx="979.175" cy="-71.38" r="5.667"/>
	<circle fill="#B63C79" cx="948.008" cy="-27.88" r="3.5"/>
	<circle fill="#B63C79" cx="937.342" cy="-27.212" r="3.5"/>
	<circle fill="#B63C79" cx="949.008" cy="-40.546" r="3.5"/>
	<circle fill="#B63C79" cx="951.008" cy="-48.88" r="3.5"/>
	<circle fill="#B63C79" cx="939.842" cy="-35.046" r="3"/>
	<circle fill="#B63C79" cx="934.341" cy="-19.212" r="3.167"/>
	<path fill="#E06899" d="M1240.49-398.056l-2.941,45.012c0,0,4.405,30,23.125,37c18.721,7,29.732,11,29.732,31s-12.113,36,6.607,41
		c18.72,5,15.416,15,0,15c-15.417,0-27.919-13.576-29.484-25.658c-2.161-16.686,9.188-22.576-8.646-32.883
		c-10.982-6.346-21.078-5.398-21.078-5.398l0.541,53.984c0,0,31.313,6.475,39.993,25.523c12.972,28.465-5.47,47.217-1.146,62.432
		c6.649,23.4,25.762,19.502,24.776,28c-1.102,9.5-40.785,0.955-42.946-28c-1.228-16.443,3.099-21.393,3.644-29.061
		c1.081-15.213-10.269-26.992-25.401-25.518l0.284,88.578c0,0-0.692,17.896,14.849,28.717c16.215,11.289,20.538,9.816,28.645,16.688
		c19.755,16.744,7.566,35.828,17.295,41.719c15.486,9.377,16.754,21.594,3.242,16.686c-24.34-8.842-23.98-16.334-27.021-33.373
		c-3.244-18.16-32.604-22.436-32.604-22.436h-4.405l3.381,70.988h-141.676l7.253-400H1240.49z"/>
	<path fill="#7DC6DD" d="M1241.954-69.044"/>
	<ellipse fill="#B63C79" cx="1262.692" cy="-309.878" rx="8.626" ry="7.832"/>
	<ellipse fill="#B63C79" cx="1261.59" cy="-288.878" rx="6.791" ry="6.166"/>
	<ellipse fill="#B63C79" cx="1281.045" cy="-292.212" rx="6.423" ry="5.834"/>
	<ellipse fill="#B63C79" cx="1271.685" cy="-275.046" rx="4.771" ry="4.334"/>
	<ellipse fill="#B63C79" cx="1285.633" cy="-281.046" rx="5.139" ry="4.668"/>
	<ellipse fill="#B63C79" cx="1282.697" cy="-267.712" rx="4.405" ry="4"/>
	<ellipse fill="#B63C79" cx="1270.033" cy="-260.878" rx="3.854" ry="3.5"/>
	<ellipse fill="#B63C79" cx="1282.146" cy="-254.878" rx="4.221" ry="3.832"/>
	<ellipse fill="#B63C79" cx="1274.621" cy="-245.046" rx="4.038" ry="3.668"/>
	<ellipse fill="#B63C79" cx="1288.937" cy="-243.38" rx="3.671" ry="3.334"/>
	<ellipse fill="#B63C79" cx="1284.716" cy="-234.544" rx="3.12" ry="2.832"/>
	<ellipse fill="#B63C79" cx="1299.949" cy="-236.046" rx="3.304" ry="3"/>
	<ellipse fill="#B63C79" cx="1241.953" cy="-230.378" rx="9.911" ry="9"/>
	<ellipse fill="#B63C79" cx="1254.433" cy="-207.712" rx="8.81" ry="8"/>
	<ellipse fill="#B63C79" cx="1265.261" cy="-221.212" rx="7.525" ry="6.834"/>
	<ellipse fill="#B63C79" cx="1277.008" cy="-209.546" rx="6.791" ry="6.168"/>
	<ellipse fill="#B63C79" cx="1280.494" cy="-193.044" rx="6.791" ry="6.166"/>
	<ellipse fill="#B63C79" cx="1264.527" cy="-192.212" rx="7.158" ry="6.5"/>
	<ellipse fill="#B63C79" cx="1276.64" cy="-177.212" rx="5.322" ry="4.834"/>
	<ellipse fill="#B63C79" cx="1263.61" cy="-172.712" rx="4.405" ry="4"/>
	<ellipse fill="#B63C79" cx="1271.868" cy="-161.878" rx="4.222" ry="3.832"/>
	<ellipse fill="#B63C79" cx="1262.325" cy="-158.212" rx="4.221" ry="3.834"/>
	<ellipse fill="#B63C79" cx="1273.703" cy="-149.544" rx="4.589" ry="4.166"/>
	<ellipse fill="#B63C79" cx="1270.951" cy="-133.544" rx="3.854" ry="3.5"/>
	<ellipse fill="#B63C79" cx="1278.659" cy="-140.044" rx="3.671" ry="3.334"/>
	<ellipse fill="#B63C79" cx="1262.142" cy="-142.712" rx="4.771" ry="4.334"/>
	<ellipse fill="#B63C79" cx="1282.88" cy="-125.544" rx="4.221" ry="3.834"/>
	<ellipse fill="#B63C79" cx="1249.479" cy="-84.878" rx="6.791" ry="6.166"/>
	<ellipse fill="#B63C79" cx="1261.223" cy="-65.88" rx="4.588" ry="4.166"/>
	<ellipse fill="#B63C79" cx="1260.856" cy="-78.212" rx="4.222" ry="3.834"/>
	<ellipse fill="#B63C79" cx="1273.888" cy="-70.712" rx="4.771" ry="4.334"/>
	<ellipse fill="#B63C79" cx="1289.304" cy="-46.38" rx="3.304" ry="3"/>
	<ellipse fill="#B63C79" cx="1283.981" cy="-59.546" rx="4.588" ry="4.166"/>
	<ellipse fill="#B63C79" cx="1272.235" cy="-57.212" rx="5.322" ry="4.832"/>
	<ellipse fill="#B63C79" cx="1247.825" cy="-71.38" rx="6.239" ry="5.666"/>
	<ellipse fill="#B63C79" cx="1282.146" cy="-27.88" rx="3.854" ry="3.5"/>
	<ellipse fill="#B63C79" cx="1293.893" cy="-27.212" rx="3.854" ry="3.5"/>
	<ellipse fill="#B63C79" cx="1281.045" cy="-40.546" rx="3.854" ry="3.5"/>
	<ellipse fill="#B63C79" cx="1278.842" cy="-48.88" rx="3.854" ry="3.5"/>
	<ellipse fill="#B63C79" cx="1291.14" cy="-35.046" rx="3.304" ry="3"/>
	<ellipse fill="#B63C79" cx="1297.196" cy="-19.212" rx="3.487" ry="3.166"/>
	<path fill="#D65490" d="M1213.84-203.032c0,99.408-43.169,179.988-96.417,179.988s-96.417-80.58-96.417-179.988
		c0-99.43,43.169-180.012,96.417-180.012S1213.84-302.462,1213.84-203.032z"/>
	<path fill="#D65490" d="M1232.674-556.374c0,19.33-16.977,34.998-37.917,34.998c-20.939,0-37.916-15.668-37.916-34.998
		c0-19.336,16.977-35.004,37.916-35.004C1215.697-591.378,1232.674-575.71,1232.674-556.374z"/>
	<path fill="#D65490" d="M1076.674-553.374c0,19.33-16.977,34.998-37.917,34.998c-20.939,0-37.916-15.668-37.916-34.998
		c0-19.336,16.977-35.004,37.916-35.004C1059.697-588.378,1076.674-572.71,1076.674-553.374z"/>
	<g>
		<g>
			<path fill="#7DC6DD" d="M1032.95-692.385c0.65,0,2.082-0.986,0.781-0.986C1033.081-693.372,1031.649-692.385,1032.95-692.385
				L1032.95-692.385z"/>
		</g>
	</g>
	<g>
		<g>
			<path fill="none" stroke="#F2E4D2" stroke-miterlimit="10" d="M1200.841-690.878"/>
		</g>
	</g>
	<g>
		<g>
			<path fill="none" stroke="#F2E4D2" stroke-miterlimit="10" d="M1111.841-692.878"/>
		</g>
	</g>
	<path fill="#E06899" d="M1239.316,9.622l2.023,127.449c-2.206,25.479,41-4,41,29c0,32.062-120,28-119,14c0.778-10.891-6-128-59-122
		c-32.804,3.715-43.046,125.094-45,129c-3,6-114,29-116-13c-1.813-38.074,45,1,43.169-35.008c0,0,2.881-125.732,3.77-129.441
		H1239.316z"/>
	<path fill="#D6C370" d="M945.349,163.468c0,0-4.187,4.984-2.193,10.965c0,0-12.559-7.375-16.347,0.996
		C926.41,163.866,935.182,162.472,945.349,163.468z"/>
	<path fill="#D6C370" d="M946.149,175.427c0,0-1.199,5.385,4.98,8.975c0,0-12.755-4.189-16.543,4.182
		C934.188,177.021,935.982,174.429,946.149,175.427z"/>
	<path fill="#D6C370" d="M952.424,187.13l7.841,2.83c0,0-8.395,3.072-11.97,13.586C945.388,196.554,946.296,190.751,952.424,187.13z
		"/>
	<path fill="#D6C370" d="M1278.097,153.468c0,0,4.069,4.984,2.131,10.965c0,0,13.207-8.375,16.89-0.004
		C1297.504,152.866,1287.979,152.472,1278.097,153.468z"/>
	<path fill="#D6C370" d="M1278.29,166.427c0,0,0.193,4.385-5.812,7.975c0,0,14.369-4.189,18.051,4.182
		C1290.916,167.021,1288.172,165.429,1278.29,166.427z"/>
	<path fill="#D6C370" d="M1271.22,177.13l-7.621,2.83c0,0,8.158,3.072,11.634,13.586
		C1278.058,186.554,1277.176,180.751,1271.22,177.13z"/>
	<path fill="#D65490" d="M990.323,17.048c0,0,139.461,50.713-3.889,123.271L990.323,17.048z"/>
	<path fill="#D65490" d="M1239.603,14.575c0,0-124.187,45.307,1.429,119.307L1239.603,14.575z"/>
	<path fill="#7DC6DD" d="M1463.048-412.552c-14.841-6.579-23.789-26.916-27.844-53.051c-1.788-11.528,1.847-27.787-13.702,0.717
		c0-18,17.333-89.334,4.667-56.667c-4.14,10.678,21.333-72.667,1.333-39.333c6.911-29.377,31.298-68.685,44.998-80.001
		c15.334-12.667-5.881-12.347-0.666-12.667c32.666-2,6.103-10.462,10.666-12.667c10.205-4.931,18.469,3.03,21.334-0.667
		c5.342-6.894-3.038-7.777-0.667-8.667c10.667-4,12.333,1.333,17.333,3.333c0,0,78.829,6.85,115.667,1.333
		c13.587-2.034,27.333-13.333,23.333-3.333c-2.984,7.46,14.86-1.998,14,4.667c-2.667,20.667,14.95,5.36,16.667,6.667
		c3.355,2.554-12.492,2.034,4,21.333c10.685,12.504,26.993,31.484,35.056,57.408c-7.459-5.424,5.215,15.9,9.275,33.497
		c-12.368-7.215,1.546,9.275,9.791,26.797c-36.072-20.613,5.669,18.036,1.547,51.018c-30.92-43.287,2.061,46.38-37.369,60.06
		L1463.048-412.552z"/>
	<path fill="#52BFD1" d="M1705.713-557.55c0,19.33-16.977,34.998-37.917,34.998c-20.939,0-37.916-15.668-37.916-34.998
		c0-19.334,16.977-35.002,37.916-35.002C1688.736-592.552,1705.713-576.884,1705.713-557.55z"/>
	<path fill="#52BFD1" d="M1549.713-554.55c0,19.33-16.977,34.998-37.917,34.998c-20.939,0-37.916-15.668-37.916-34.998
		c0-19.334,16.977-35.002,37.916-35.002C1532.736-589.552,1549.713-573.884,1549.713-554.55z"/>
	<g>
		<g>
			<path fill="#7DC6DD" d="M1506.989-692.561c0.65,0,2.082-0.986,0.781-0.986C1507.12-693.547,1505.688-692.561,1506.989-692.561
				L1506.989-692.561z"/>
		</g>
	</g>
	<g>
		<g>
			<path fill="none" stroke="#F2E4D2" stroke-miterlimit="10" d="M1673.88-692.054"/>
		</g>
	</g>
	<g>
		<g>
			<path fill="none" stroke="#F2E4D2" stroke-miterlimit="10" d="M1585.88-693.054"/>
		</g>
	</g>
	<path fill="#7DC6DD" d="M1710.857,8.811l-9.409,174.67c25.552,21.466-2.013,37.357-2.013,37.357l-16.269,154.276
		c25.5,13.5,54.5,3.667,100-13.333c-23.25,14.25,1.334,19,1.334,19s-24.265,14.294,1.271,23.601
		c8.55,3.116-136.272,7.064-143.272-14.436c0,0,54.5-349.5-66.619-332.687C1498.91,67.944,1521,390.446,1521,390.446
		c-6.593,13.185-92.896,20.783-130.5,15.5c0,0,27.5-11-1.75-18.25c21.5-7.75,7.557-13.524-1.978-20.25
		c0,0,90.308,26.873,97.808,7.873l-6.792-150.537c-17.173-8.485-15.362-28.296,0.566-39.05
		c-2.68-88.741-16.966-175.128-16.536-176.922H1710.857z"/>
	<g>
		<path fill="#7DC6DD" d="M1462.835-397.554l-29.169,81.501c0,0-3.499,1.334-7.665,8.667c7.166-3.5,4.666,4.001,2.666,6.167
			s-15.021,13.084-16.619,19.779c11.453-8.28,9.911,2.613,5.453,6.054c-3.5,3.5-6.653,2.938-11.05,12.432
			c11.392-4.297,10.973-0.146,7.529,1.911c-4.747,2.835-5.341,3.898-6.479,7.823c11.181-7.685-1.332,14.001-1.332,14.001
			c-17.671,79.09-20.56,135.287-3.667,153.335c-14.824,10.15-21.368,28.406,8.453,35.778c17.5,1.5,14.692-14.629,5.026-24.963
			c-3.834-9.333,13.916,6.672,15.916,1.005s-12.396-20.487-12.396-20.487s-22.334-26.666,12.57-138.943
			c0,0,10.264-28.129,20.282-57.742c0,0-4.478,21.196-8.74,53.028c-0.855,6.389-13.153,37.169-9.446,30.991
			c8-13.334,6.085-2.729,5.684,1.357c-0.17,1.729-5.655,13.741-4.713,12.246c4.14-6.568,5.166-1.213,3.52,0.894
			c-2.89,3.696-9.015,21.556-7.299,18.723c7.738-12.777,8.188-2.879,5.933,0.462c-3.163,4.687-10.582,21.101-7.913,18.254
			c6.748-7.198,9.547,3.516,6.845,7.378c-9.958,14.234-10.776,25.878-8.431,22.894c10.611-13.498,10.493-2.161,8.335,1.698
			c-3.749,6.705-10.029,25.714-7.229,22.834c8.913-9.168,10.601,0.996,8.535,6.278c-1.063,2.72-4.433,16.26-3.44,14.605
			c3.819-6.367,6.741-1.925,4.863,0.593c-6.392,8.571-6.924,28.682-5.458,25.55c6.197-13.243,8.491-4.124,9.554,1.262
			c0.858,4.351-13.12,14.612-6.498,23.865c7.215-17.402,17.675,0.855,13.827,4.472c-3.642,3.422-3.787,19.461-2.453,16.834
			c8.234-16.214,12.568,7.439,13.674,9.465h122.667l-6.001-400H1462.835z"/>
		<path fill="#7DC6DD" d="M1711.646-397.554l29.169,81.501c0,0,3.499,1.334,7.665,8.667c-7.166-3.5-4.666,4.001-2.666,6.167
			s15.021,13.084,16.619,19.779c-11.453-8.28-9.911,2.613-5.453,6.054c3.5,3.5,6.653,2.938,11.05,12.432
			c-11.392-4.297-10.973-0.146-7.529,1.911c4.747,2.835,5.341,3.898,6.479,7.823c-11.181-7.685,1.332,14.001,1.332,14.001
			c17.671,79.09,20.56,135.287,3.667,153.335c14.824,10.15,21.368,28.406-8.453,35.778c-17.5,1.5-14.692-14.629-5.026-24.963
			c3.834-9.333-13.916,6.672-15.916,1.005s12.396-20.487,12.396-20.487s22.334-26.666-12.57-138.943
			c0,0-10.264-28.129-20.282-57.742c0,0,4.478,21.196,8.74,53.028c0.855,6.389,13.153,37.169,9.446,30.991
			c-8-13.334-6.085-2.729-5.684,1.357c0.17,1.729,5.655,13.741,4.713,12.246c-4.14-6.568-5.166-1.213-3.52,0.894
			c2.89,3.696,9.015,21.556,7.299,18.723c-7.738-12.777-8.188-2.879-5.933,0.462c3.163,4.687,10.582,21.101,7.913,18.254
			c-6.748-7.198-9.547,3.516-6.845,7.378c9.958,14.234,10.776,25.878,8.431,22.894c-10.611-13.498-10.493-2.161-8.335,1.698
			c3.749,6.705,10.029,25.714,7.229,22.834c-8.913-9.168-10.601,0.996-8.535,6.278c1.063,2.72,4.433,16.26,3.44,14.605
			c-3.819-6.367-6.741-1.925-4.863,0.593c6.392,8.571,6.924,28.682,5.458,25.55c-6.197-13.243-8.491-4.124-9.554,1.262
			c-0.858,4.351,13.12,14.612,6.498,23.865c-7.215-17.402-17.675,0.855-13.827,4.472c3.642,3.422,3.787,19.461,2.453,16.834
			c-8.234-16.214-12.568,7.439-13.674,9.465h-135.48l-2.667-400H1711.646z"/>
	</g>
	<path fill="#D6C370" d="M1393.818-60.401c0,0,4.053,5.093,10.311,4.325c0,0-9.722,10.845-2.268,16.22
		C1390.449-41.761,1390.822-50.635,1393.818-60.401z"/>
	<path fill="#D6C370" d="M1405.463-54.273c0,0,6.111,4.142,8.594,0.13c0,0-2.655,9.055,6.141,11.716
		C1408.785-40.521,1405.804-44.062,1405.463-54.273z"/>
	<path fill="#D6C370" d="M1417.171-57.684l3.968-7.332c0,0,1.787,8.758,11.651,13.861
		C1425.443-49.323,1419.84-51.085,1417.171-57.684z"/>
	<path fill="#D6C370" d="M1781.692-63.28c0,0-4.046,5.002-10.296,4.329c0,0,9.717,10.439,2.275,15.757
		C1785.068-45.182,1784.69-53.812,1781.692-63.28z"/>
	<path fill="#D6C370" d="M1770.688-54.251c0,0-4.106,1.216-9.894-0.268c0,0,6.983,7.496,2.014,15.173
		C1772.68-45.378,1772.942-47.611,1770.688-54.251z"/>
	<path fill="#D6C370" d="M1758.238-54.004l-5.555-5.936c0,0,0.318,8.712-8.037,15.979
		C1752.188-44.056,1757.198-47.111,1758.238-54.004z"/>
	<path fill="#7DC6DD" d="M1397.5,420.696"/>
</g>
<g id="face_layer" display="none">
	<g display="inline">
		<path fill="#FFFFFF" d="M261.56-637.513c13.137,9.59,16.013,28.012,6.423,41.151c-9.589,13.137-28.013,16.012-41.149,6.422
			c-8.977-6.553-13.162-17.229-11.854-27.526l41.434-23.063C258.192-639.716,259.917-638.712,261.56-637.513z"/>
		<path d="M245.84-632.481c4.958,3.62,6.045,10.573,2.425,15.532s-10.575,6.045-15.533,2.426c-3.389-2.475-4.969-6.504-4.475-10.391
			l15.641-8.706C244.569-633.312,245.22-632.934,245.84-632.481z"/>
	</g>
	<g display="inline">
		<path fill="#FFFFFF" d="M184.757-584.151c-19.008,13.562-45.411,9.148-58.974-9.859c-13.562-19.008-9.148-45.412,9.858-58.974
			l66.791,36.417C201.833-604.079,195.724-591.978,184.757-584.151z"/>
		<path d="M166.615-634.216c-4.997,3.565-6.291,10.32-2.89,15.086c3.401,4.768,10.209,5.74,15.206,2.176
			c3.415-2.438,5.101-6.363,4.741-10.126l-15.109-8.262C167.894-635.037,167.24-634.662,166.615-634.216z"/>
	</g>
	<path display="inline" d="M160.499-556.552c14.174-8.723,4.333,21.334,44.333,15.334s25.667-13.334,41.667-17.334
		s22.797,50.809,16,74c-5.667,19.334-26.189-4.748-27-5.334c-12-8.666-50-8.666-68,6.334s-22,10-23,0
		S147.499-548.552,160.499-556.552z"/>
	<path display="inline" fill="#FDFDFE" d="M172.833-550.552c0,0,1.512,34.414,2.863,32.252c1.588-2.541,12.803-13.127,12.803-13.127
		c5.94,3.279,9.289,16.031,9.68,16.08c0.883,0.107,8.861-15.977,13.32-18.539c0.784-0.449,18.56,12.492,20.062,13.834
		c1.706,1.521,0.904-23.66,1.042-28.893C221.652-546.103,186.612-530.493,172.833-550.552z"/>
	<path display="inline" fill="#FDFDFE" d="M167.624-483.692c0,0,3.743-20.414,3.973-23.883c0.16-2.416,12.961,13.434,14.008,10.816
		c1.883-4.707,5.061-8.943,5.061-8.943c1.588,2.043,9.415,7.414,9.415,7.414c5.94-2.633,11.378-8.67,11.769-8.709
		c0.883-0.086,6.25,7.594,10.709,9.65c0.784,0.361,14.028-8.621,15.064-10.004c1.059-1.412-0.021,15.336,0.117,19.537
		C219.969-501.347,184.29-495.942,167.624-483.692z"/>
	<path display="inline" d="M623.809-551.583l71.849,1.467c0,0-12.613,48.428-37.971,48.428
		C632.328-501.688,623.809-551.583,623.809-551.583z"/>
	<path display="inline" fill="#FDFDFE" d="M638.92-551.212c0,0,2.937,19.846,4.177,21.133l9.35-20.863l16.197,0.334
		c0.549-0.182,6.787,18.557,6.787,18.557c0.454,0.074,5.187-16.428,5.282-18.518C679.884-550.362,638.92-551.212,638.92-551.212z"/>
	<circle display="inline" fill="#FFFFFF" cx="620.651" cy="-608.099" r="43.25"/>
	<circle display="inline" cx="603.651" cy="-614.099" r="12.25"/>
	<circle display="inline" fill="#FFFFFF" cx="698.901" cy="-603.849" r="28.5"/>
	<circle display="inline" cx="690.901" cy="-608.349" r="11.25"/>
	<path display="inline" d="M1153.887-543.719l-71.798-2.698c0,0,12.762-3.942,38.103-3.037
		C1145.534-548.549,1153.887-543.719,1153.887-543.719z"/>
	<path display="inline" fill="#FDFDFE" d="M1097.375-548.929c0,0,2.814,19.619,4.055,20.906l9.18-21.578
		C1110.609-549.601,1102.609-549.522,1097.375-548.929z"/>
	<path display="inline" fill="#FFFFFF" d="M1122.1-606.391c0.224,23.887-18.957,43.43-42.844,43.652
		c-23.887,0.224-43.43-18.959-43.652-42.847c-0.06-6.469,1.302-12.618,3.798-18.151l77.374-3.063
		C1120.108-620.739,1122.031-613.791,1122.1-606.391z"/>
	<path display="inline" d="M1090.63-599.495c0.374,6.758-4.796,12.538-11.551,12.914c-6.755,0.375-12.537-4.796-12.913-11.553
		c-0.375-6.753,4.796-12.534,11.551-12.91C1084.473-611.419,1090.253-606.248,1090.63-599.495z"/>
	<path display="inline" fill="#FFFFFF" d="M1182.475-593.434c-1.824,15.636-15.978,26.83-31.61,25.006
		c-15.635-1.825-26.829-15.979-25.004-31.613c0.506-4.335,1.958-8.326,4.126-11.794l51.118,5.763
		C1182.47-602.14,1182.99-597.846,1182.475-593.434z"/>
	<circle display="inline" cx="1153.535" cy="-592.545" r="11.25"/>
	<path display="inline" fill="#FDFDFE" d="M1137-548.054c0,0-3.533,19.245-4.818,20.489l-8.43-21.881
		C1123.752-549.445,1131.79-548.827,1137-548.054z"/>
	<g display="inline">
		<path fill="#FFFFFF" d="M1651.44-638.513c13.137,9.59,16.013,28.012,6.423,41.15c-9.589,13.137-28.013,16.012-41.149,6.422
			c-8.977-6.553-13.162-17.229-11.854-27.525l41.434-23.063C1648.073-640.716,1649.798-639.712,1651.44-638.513z"/>
		<path d="M1635.721-633.481c4.958,3.621,6.045,10.574,2.425,15.533s-10.575,6.045-15.533,2.426
			c-3.389-2.475-4.969-6.504-4.475-10.391l15.641-8.707C1634.45-634.312,1635.101-633.934,1635.721-633.481z"/>
	</g>
	<g display="inline">
		<path fill="#FFFFFF" d="M1574.638-585.151c-19.008,13.562-45.411,9.148-58.974-9.859s-9.148-45.412,9.858-58.975l66.791,36.418
			C1591.714-605.079,1585.604-592.978,1574.638-585.151z"/>
		<path d="M1556.496-635.216c-4.997,3.564-6.291,10.32-2.89,15.086c3.401,4.768,10.209,5.74,15.206,2.176
			c3.415-2.438,5.101-6.363,4.741-10.127l-15.109-8.262C1557.774-636.037,1557.121-635.662,1556.496-635.216z"/>
	</g>
	<path display="inline" d="M1550.38-557.552c14.174-8.723,4.333,21.334,44.333,15.334s25.667-13.334,41.667-17.334
		s22.797,50.809,16,74c-5.667,19.334-26.189-4.748-27-5.334c-12-8.666-50-8.666-68,6.334s-22,10-23,0
		S1537.38-549.552,1550.38-557.552z"/>
	<path display="inline" fill="#FDFDFE" d="M1562.714-551.552c0,0,1.512,34.414,2.863,32.252
		c1.588-2.541,12.803-13.127,12.803-13.127c5.94,3.279,9.289,16.031,9.68,16.08c0.883,0.107,8.861-15.977,13.32-18.539
		c0.784-0.449,18.56,12.492,20.062,13.834c1.706,1.521,0.904-23.66,1.042-28.893
		C1611.533-547.103,1576.493-531.493,1562.714-551.552z"/>
	<path display="inline" fill="#FDFDFE" d="M1557.505-484.692c0,0,3.743-20.414,3.973-23.883c0.16-2.416,12.961,13.434,14.008,10.816
		c1.883-4.707,5.061-8.943,5.061-8.943c1.588,2.043,9.415,7.414,9.415,7.414c5.94-2.633,11.378-8.67,11.769-8.709
		c0.883-0.086,6.25,7.594,10.709,9.65c0.784,0.361,14.028-8.621,15.064-10.004c1.059-1.412-0.021,15.336,0.117,19.537
		C1609.85-502.347,1574.171-496.942,1557.505-484.692z"/>
</g>
<g id="Layer_4" display="none">
	<g display="inline">
		<g opacity="0.7">
			<g>
				<path fill="#74AFD1" d="M122.908-684.39c1.935,0,1.935-3,0-3S120.973-684.39,122.908-684.39L122.908-684.39z"/>
			</g>
		</g>
		<g opacity="0.7">
			<g>
				<path fill="#74AFD1" d="M111.758-689.772c1.935,0,1.935-3,0-3S109.824-689.772,111.758-689.772L111.758-689.772z"/>
			</g>
		</g>
		<g opacity="0.7">
			<g>
				<path fill="#74AFD1" d="M115.123-695.154c1.935,0,1.935-3,0-3S113.188-695.154,115.123-695.154L115.123-695.154z"/>
			</g>
		</g>
		<g opacity="0.7">
			<g>
				<path fill="#74AFD1" d="M113.296-680.449c1.935,0,1.935-3,0-3S111.362-680.449,113.296-680.449L113.296-680.449z"/>
			</g>
		</g>
		<g opacity="0.7">
			<g>
				<path fill="#74AFD1" d="M92.824-713.127c1.935,0,1.935-3,0-3S90.889-713.127,92.824-713.127L92.824-713.127z"/>
			</g>
		</g>
		<g opacity="0.7">
			<g>
				<path fill="#74AFD1" d="M100.128-708.418c1.935,0,1.935-3,0-3S98.194-708.418,100.128-708.418L100.128-708.418z"/>
			</g>
		</g>
		<g opacity="0.7">
			<g>
				<path fill="#74AFD1" d="M102.916-702.363c1.935,0,1.935-3,0-3S100.981-702.363,102.916-702.363L102.916-702.363z"/>
			</g>
		</g>
		<g opacity="0.7">
			<g>
				<path fill="#74AFD1" d="M100.994-696.404c1.935,0,1.935-3,0-3S99.059-696.404,100.994-696.404L100.994-696.404z"/>
			</g>
		</g>
		<g opacity="0.7">
			<g>
				<path fill="#74AFD1" d="M110.317-699.96c1.935,0,1.935-3,0-3S108.382-699.96,110.317-699.96L110.317-699.96z"/>
			</g>
		</g>
		<g opacity="0.7">
			<g>
				<path fill="#74AFD1" d="M96.38-704.862c1.935,0,1.935-3,0-3S94.445-704.862,96.38-704.862L96.38-704.862z"/>
			</g>
		</g>
		<g opacity="0.7">
			<g>
				<path fill="#74AFD1" d="M93.4-709.187c1.935,0,1.935-3,0-3S91.466-709.187,93.4-709.187L93.4-709.187z"/>
			</g>
		</g>
		<g opacity="0.7">
			<g>
				<path fill="#74AFD1" d="M125.599-688.33c1.935,0,1.935-3,0-3S123.664-688.33,125.599-688.33L125.599-688.33z"/>
			</g>
		</g>
		<g opacity="0.7">
			<g>
				<path fill="#74AFD1" d="M118.486-692.079c1.935,0,1.935-3,0-3S116.552-692.079,118.486-692.079L118.486-692.079z"/>
			</g>
		</g>
		<g opacity="0.7">
			<g>
				<path fill="#74AFD1" d="M116.853-687.081c1.935,0,1.935-3,0-3S114.918-687.081,116.853-687.081L116.853-687.081z"/>
			</g>
		</g>
		<g opacity="0.7">
			<g>
				<path fill="#74AFD1" d="M106.856-694.962c1.935,0,1.935-3,0-3S104.922-694.962,106.856-694.962L106.856-694.962z"/>
			</g>
		</g>
		<g opacity="0.7">
			<g>
				<path fill="#74AFD1" d="M106.184-689.964c1.935,0,1.935-3,0-3S104.249-689.964,106.184-689.964L106.184-689.964z"/>
			</g>
		</g>
		<g opacity="0.7">
			<g>
				<path fill="#74AFD1" d="M95.611-710.244c1.935,0,1.935-3,0-3S93.677-710.244,95.611-710.244L95.611-710.244z"/>
			</g>
		</g>
		<g opacity="0.7">
			<g>
				<path fill="#74AFD1" d="M90.517-714.954c1.935,0,1.935-3,0-3S88.583-714.954,90.517-714.954L90.517-714.954z"/>
			</g>
		</g>
		<g opacity="0.7">
			<g>
				<path fill="#74AFD1" d="M91.959-710.821c1.935,0,1.935-3,0-3S90.024-710.821,91.959-710.821L91.959-710.821z"/>
			</g>
		</g>
		<g opacity="0.7">
			<g>
				<path fill="#74AFD1" d="M98.014-710.34c1.935,0,1.935-3,0-3S96.08-710.34,98.014-710.34L98.014-710.34z"/>
			</g>
		</g>
		<g opacity="0.7">
			<g>
				<path fill="#74AFD1" d="M95.996-707.361c1.935,0,1.935-3,0-3S94.061-707.361,95.996-707.361L95.996-707.361z"/>
			</g>
		</g>
		<g opacity="0.7">
			<g>
				<path fill="#74AFD1" d="M98.398-706.688c1.935,0,1.935-3,0-3S96.464-706.688,98.398-706.688L98.398-706.688z"/>
			</g>
		</g>
		<g opacity="0.7">
			<g>
				<path fill="#74AFD1" d="M102.243-706.976c1.935,0,1.935-3,0-3S100.309-706.976,102.243-706.976L102.243-706.976z"/>
			</g>
		</g>
		<g opacity="0.7">
			<g>
				<path fill="#74AFD1" d="M97.629-702.747c1.935,0,1.935-3,0-3S95.695-702.747,97.629-702.747L97.629-702.747z"/>
			</g>
		</g>
		<g opacity="0.7">
			<g>
				<path fill="#74AFD1" d="M100.513-706.303c1.935,0,1.935-3,0-3S98.579-706.303,100.513-706.303L100.513-706.303z"/>
			</g>
		</g>
		<g opacity="0.7">
			<g>
				<path fill="#74AFD1" d="M104.646-704.862c1.935,0,1.935-3,0-3S102.711-704.862,104.646-704.862L104.646-704.862z"/>
			</g>
		</g>
		<g opacity="0.7">
			<g>
				<path fill="#74AFD1" d="M100.321-703.708c1.935,0,1.935-3,0-3S98.386-703.708,100.321-703.708L100.321-703.708z"/>
			</g>
		</g>
		<g opacity="0.7">
			<g>
				<path fill="#74AFD1" d="M100.513-700.44c1.935,0,1.935-3,0-3S98.579-700.44,100.513-700.44L100.513-700.44z"/>
			</g>
		</g>
		<g opacity="0.7">
			<g>
				<path fill="#74AFD1" d="M103.204-699.287c1.935,0,1.935-3,0-3S101.27-699.287,103.204-699.287L103.204-699.287z"/>
			</g>
		</g>
		<g opacity="0.7">
			<g>
				<path fill="#74AFD1" d="M106.28-701.017c1.935,0,1.935-3,0-3S104.345-701.017,106.28-701.017L106.28-701.017z"/>
			</g>
		</g>
		<g opacity="0.7">
			<g>
				<path fill="#74AFD1" d="M108.298-698.134c1.935,0,1.935-3,0-3S106.364-698.134,108.298-698.134L108.298-698.134z"/>
			</g>
		</g>
		<g opacity="0.7">
			<g>
				<path fill="#74AFD1" d="M103.493-693.809c1.935,0,1.935-3,0-3S101.558-693.809,103.493-693.809L103.493-693.809z"/>
			</g>
		</g>
		<g opacity="0.7">
			<g>
				<path fill="#74AFD1" d="M103.973-697.173c1.935,0,1.935-3,0-3S102.039-697.173,103.973-697.173L103.973-697.173z"/>
			</g>
		</g>
		<g opacity="0.7">
			<g>
				<path fill="#74AFD1" d="M112.527-698.23c1.935,0,1.935-3,0-3S110.593-698.23,112.527-698.23L112.527-698.23z"/>
			</g>
		</g>
		<g opacity="0.7">
			<g>
				<path fill="#74AFD1" d="M110.317-693.809c1.935,0,1.935-3,0-3S108.382-693.809,110.317-693.809L110.317-693.809z"/>
			</g>
		</g>
		<g opacity="0.7">
			<g>
				<path fill="#74AFD1" d="M108.202-688.138c1.935,0,1.935-3,0-3S106.268-688.138,108.202-688.138L108.202-688.138z"/>
			</g>
		</g>
		<g opacity="0.7">
			<g>
				<path fill="#74AFD1" d="M110.028-683.621c1.935,0,1.935-3,0-3S108.094-683.621,110.028-683.621L110.028-683.621z"/>
			</g>
		</g>
		<g opacity="0.7">
			<g>
				<path fill="#74AFD1" d="M113.296-685.735c1.935,0,1.935-3,0-3S111.362-685.735,113.296-685.735L113.296-685.735z"/>
			</g>
		</g>
		<g opacity="0.7">
			<g>
				<path fill="#74AFD1" d="M115.314-674.586c1.935,0,1.935-3,0-3S113.38-674.586,115.314-674.586L115.314-674.586z"/>
			</g>
		</g>
		<g opacity="0.7">
			<g>
				<path fill="#74AFD1" d="M119.64-681.987c1.935,0,1.935-3,0-3S117.705-681.987,119.64-681.987L119.64-681.987z"/>
			</g>
		</g>
		<g opacity="0.7">
			<g>
				<path fill="#74AFD1" d="M122.042-676.989c1.935,0,1.935-3,0-3S120.108-676.989,122.042-676.989L122.042-676.989z"/>
			</g>
		</g>
		<g opacity="0.7">
			<g>
				<path fill="#74AFD1" d="M128.001-682.179c1.935,0,1.935-3,0-3S126.067-682.179,128.001-682.179L128.001-682.179z"/>
			</g>
		</g>
		<g opacity="0.7">
			<g>
				<path fill="#74AFD1" d="M130.02-684.582c1.935,0,1.935-3,0-3S128.085-684.582,130.02-684.582L130.02-684.582z"/>
			</g>
		</g>
		<g opacity="0.7">
			<g>
				<path fill="#74AFD1" d="M121.562-688.907c1.935,0,1.935-3,0-3S119.627-688.907,121.562-688.907L121.562-688.907z"/>
			</g>
		</g>
		<g opacity="0.7">
			<g>
				<path fill="#74AFD1" d="M133.769-681.987c1.935,0,1.935-3,0-3S131.834-681.987,133.769-681.987L133.769-681.987z"/>
			</g>
		</g>
		<g opacity="0.7">
			<g>
				<path fill="#74AFD1" d="M139.728-682.852c1.935,0,1.935-3,0-3S137.793-682.852,139.728-682.852L139.728-682.852z"/>
			</g>
		</g>
		<g opacity="0.7">
			<g>
				<path fill="#74AFD1" d="M128.098-677.469c1.935,0,1.935-3,0-3S126.163-677.469,128.098-677.469L128.098-677.469z"/>
			</g>
		</g>
		<g opacity="0.7">
			<g>
				<path fill="#74AFD1" d="M134.441-675.451c1.935,0,1.935-3,0-3S132.507-675.451,134.441-675.451L134.441-675.451z"/>
			</g>
		</g>
		<g opacity="0.7">
			<g>
				<path fill="#74AFD1" d="M118.583-672.471c1.935,0,1.935-3,0-3S116.648-672.471,118.583-672.471L118.583-672.471z"/>
			</g>
		</g>
		<g opacity="0.7">
			<g>
				<path fill="#74AFD1" d="M117.525-665.551c1.935,0,1.935-3,0-3S115.591-665.551,117.525-665.551L117.525-665.551z"/>
			</g>
		</g>
		<g opacity="0.7">
			<g>
				<path fill="#74AFD1" d="M125.311-671.414c1.935,0,1.935-3,0-3S123.376-671.414,125.311-671.414L125.311-671.414z"/>
			</g>
		</g>
		<g opacity="0.7">
			<g>
				<path fill="#74AFD1" d="M122.042-666.801c1.935,0,1.935-3,0-3S120.108-666.801,122.042-666.801L122.042-666.801z"/>
			</g>
		</g>
		<g opacity="0.7">
			<g>
				<path fill="#74AFD1" d="M132.711-669.011c1.935,0,1.935-3,0-3S130.777-669.011,132.711-669.011L132.711-669.011z"/>
			</g>
		</g>
	</g>
	<g display="inline">
		<g opacity="0.7">
			<g>
				<path fill="#74AFD1" d="M204.052-704.709c1.935,0,1.935-3,0-3S202.117-704.709,204.052-704.709L204.052-704.709z"/>
			</g>
		</g>
		<g opacity="0.7">
			<g>
				<path fill="#74AFD1" d="M199.217-716.108c1.935,0,1.935-3,0-3C197.283-719.108,197.283-716.108,199.217-716.108L199.217-716.108
					z"/>
			</g>
		</g>
		<g opacity="0.7">
			<g>
				<path fill="#74AFD1" d="M205.296-717.936c1.935,0,1.935-3,0-3S203.361-717.936,205.296-717.936L205.296-717.936z"/>
			</g>
		</g>
		<g opacity="0.7">
			<g>
				<path fill="#74AFD1" d="M194.227-708.082c1.935,0,1.935-3,0-3S192.292-708.082,194.227-708.082L194.227-708.082z"/>
			</g>
		</g>
		<g opacity="0.7">
			<g>
				<path fill="#74AFD1" d="M200.38-746.151c1.935,0,1.935-3,0-3S198.445-746.151,200.38-746.151L200.38-746.151z"/>
			</g>
		</g>
		<g opacity="0.7">
			<g>
				<path fill="#74AFD1" d="M202.767-737.794c1.935,0,1.935-3,0-3S200.832-737.794,202.767-737.794L202.767-737.794z"/>
			</g>
		</g>
		<g opacity="0.7">
			<g>
				<path fill="#74AFD1" d="M200.87-731.403c1.935,0,1.935-3,0-3S198.936-731.403,200.87-731.403L200.87-731.403z"/>
			</g>
		</g>
		<g opacity="0.7">
			<g>
				<path fill="#74AFD1" d="M195.496-728.189c1.935,0,1.935-3,0-3S193.562-728.189,195.496-728.189L195.496-728.189z"/>
			</g>
		</g>
		<g opacity="0.7">
			<g>
				<path fill="#74AFD1" d="M204.85-724.718c1.935,0,1.935-3,0-3S202.915-724.718,204.85-724.718L204.85-724.718z"/>
			</g>
		</g>
		<g opacity="0.7">
			<g>
				<path fill="#74AFD1" d="M197.604-737.592c1.935,0,1.935-3,0-3C195.669-740.592,195.669-737.592,197.604-737.592L197.604-737.592
					z"/>
			</g>
		</g>
		<g opacity="0.7">
			<g>
				<path fill="#74AFD1" d="M198.215-742.808c1.935,0,1.935-3,0-3S196.28-742.808,198.215-742.808L198.215-742.808z"/>
			</g>
		</g>
		<g opacity="0.7">
			<g>
				<path fill="#74AFD1" d="M208.673-705.898c1.935,0,1.935-3,0-3S206.738-705.898,208.673-705.898L208.673-705.898z"/>
			</g>
		</g>
		<g opacity="0.7">
			<g>
				<path fill="#74AFD1" d="M205.798-713.406c1.935,0,1.935-3,0-3S203.863-713.406,205.798-713.406L205.798-713.406z"/>
			</g>
		</g>
		<g opacity="0.7">
			<g>
				<path fill="#74AFD1" d="M201.273-710.725c1.935,0,1.935-3,0-3S199.339-710.725,201.273-710.725L201.273-710.725z"/>
			</g>
		</g>
		<g opacity="0.7">
			<g>
				<path fill="#74AFD1" d="M198.953-723.241c1.935,0,1.935-3,0-3S197.019-723.241,198.953-723.241L198.953-723.241z"/>
			</g>
		</g>
		<g opacity="0.7">
			<g>
				<path fill="#74AFD1" d="M195.152-719.927c1.935,0,1.935-3,0-3S193.218-719.927,195.152-719.927L195.152-719.927z"/>
			</g>
		</g>
		<g opacity="0.7">
			<g>
				<path fill="#74AFD1" d="M200.574-742.146c1.935,0,1.935-3,0-3S198.64-742.146,200.574-742.146L200.574-742.146z"/>
			</g>
		</g>
		<g opacity="0.7">
			<g>
				<path fill="#74AFD1" d="M199.85-749.045c1.935,0,1.935-3,0-3S197.915-749.045,199.85-749.045L199.85-749.045z"/>
			</g>
		</g>
		<g opacity="0.7">
			<g>
				<path fill="#74AFD1" d="M198.208-744.987c1.935,0,1.935-3,0-3C196.274-747.987,196.274-744.987,198.208-744.987L198.208-744.987
					z"/>
			</g>
		</g>
		<g opacity="0.7">
			<g>
				<path fill="#74AFD1" d="M202.444-740.634c1.935,0,1.935-3,0-3S200.51-740.634,202.444-740.634L202.444-740.634z"/>
			</g>
		</g>
		<g opacity="0.7">
			<g>
				<path fill="#74AFD1" d="M198.962-739.723c1.935,0,1.935-3,0-3C197.028-742.723,197.028-739.723,198.962-739.723L198.962-739.723
					z"/>
			</g>
		</g>
		<g opacity="0.7">
			<g>
				<path fill="#74AFD1" d="M200.325-737.634c1.935,0,1.935-3,0-3S198.391-737.634,200.325-737.634L200.325-737.634z"/>
			</g>
		</g>
		<g opacity="0.7">
			<g>
				<path fill="#74AFD1" d="M203.405-735.315c1.935,0,1.935-3,0-3S201.471-735.315,203.405-735.315L203.405-735.315z"/>
			</g>
		</g>
		<g opacity="0.7">
			<g>
				<path fill="#74AFD1" d="M197.148-735.178c1.935,0,1.935-3,0-3S195.214-735.178,197.148-735.178L197.148-735.178z"/>
			</g>
		</g>
		<g opacity="0.7">
			<g>
				<path fill="#74AFD1" d="M201.662-735.95c1.935,0,1.935-3,0-3S199.728-735.95,201.662-735.95L201.662-735.95z"/>
			</g>
		</g>
		<g opacity="0.7">
			<g>
				<path fill="#74AFD1" d="M203.819-732.142c1.935,0,1.935-3,0-3S201.885-732.142,203.819-732.142L203.819-732.142z"/>
			</g>
		</g>
		<g opacity="0.7">
			<g>
				<path fill="#74AFD1" d="M199.805-734.126c1.935,0,1.935-3,0-3S197.87-734.126,199.805-734.126L199.805-734.126z"/>
			</g>
		</g>
		<g opacity="0.7">
			<g>
				<path fill="#74AFD1" d="M197.796-731.542c1.935,0,1.935-3,0-3C195.862-734.542,195.862-731.542,197.796-731.542L197.796-731.542
					z"/>
			</g>
		</g>
		<g opacity="0.7">
			<g>
				<path fill="#74AFD1" d="M199.059-728.901c1.935,0,1.935-3,0-3C197.125-731.901,197.125-728.901,199.059-728.901L199.059-728.901
					z"/>
			</g>
		</g>
		<g opacity="0.7">
			<g>
				<path fill="#74AFD1" d="M202.512-728.174c1.935,0,1.935-3,0-3S200.577-728.174,202.512-728.174L202.512-728.174z"/>
			</g>
		</g>
		<g opacity="0.7">
			<g>
				<path fill="#74AFD1" d="M202.129-724.675c1.935,0,1.935-3,0-3S200.194-724.675,202.129-724.675L202.129-724.675z"/>
			</g>
		</g>
		<g opacity="0.7">
			<g>
				<path fill="#74AFD1" d="M195.664-724.592c1.935,0,1.935-3,0-3S193.729-724.592,195.664-724.592L195.664-724.592z"/>
			</g>
		</g>
		<g opacity="0.7">
			<g>
				<path fill="#74AFD1" d="M198.243-726.804c1.935,0,1.935-3,0-3S196.309-726.804,198.243-726.804L198.243-726.804z"/>
			</g>
		</g>
		<g opacity="0.7">
			<g>
				<path fill="#74AFD1" d="M205.372-721.959c1.935,0,1.935-3,0-3S203.438-721.959,205.372-721.959L205.372-721.959z"/>
			</g>
		</g>
		<g opacity="0.7">
			<g>
				<path fill="#74AFD1" d="M200.794-720.092c1.935,0,1.935-3,0-3S198.859-720.092,200.794-720.092L200.794-720.092z"/>
			</g>
		</g>
		<g opacity="0.7">
			<g>
				<path fill="#74AFD1" d="M195.466-717.223c1.935,0,1.935-3,0-3S193.532-717.223,195.466-717.223L195.466-717.223z"/>
			</g>
		</g>
		<g opacity="0.7">
			<g>
				<path fill="#74AFD1" d="M193.86-712.622c1.935,0,1.935-3,0-3S191.926-712.622,193.86-712.622L193.86-712.622z"/>
			</g>
		</g>
		<g opacity="0.7">
			<g>
				<path fill="#74AFD1" d="M197.713-712.058c1.935,0,1.935-3,0-3S195.778-712.058,197.713-712.058L197.713-712.058z"/>
			</g>
		</g>
		<g opacity="0.7">
			<g>
				<path fill="#74AFD1" d="M191.879-702.344c1.935,0,1.935-3,0-3S189.944-702.344,191.879-702.344L191.879-702.344z"/>
			</g>
		</g>
		<g opacity="0.7">
			<g>
				<path fill="#74AFD1" d="M200.012-705.058c1.935,0,1.935-3,0-3S198.077-705.058,200.012-705.058L200.012-705.058z"/>
			</g>
		</g>
		<g opacity="0.7">
			<g>
				<path fill="#74AFD1" d="M198.522-699.715c1.935,0,1.935-3,0-3S196.588-699.715,198.522-699.715L198.522-699.715z"/>
			</g>
		</g>
		<g opacity="0.7">
			<g>
				<path fill="#74AFD1" d="M206.425-699.688c1.935,0,1.935-3,0-3S204.49-699.688,206.425-699.688L206.425-699.688z"/>
			</g>
		</g>
		<g opacity="0.7">
			<g>
				<path fill="#74AFD1" d="M209.525-700.165c1.935,0,1.935-3,0-3S207.591-700.165,209.525-700.165L209.525-700.165z"/>
			</g>
		</g>
		<g opacity="0.7">
			<g>
				<path fill="#74AFD1" d="M206.019-708.993c1.935,0,1.935-3,0-3S204.084-708.993,206.019-708.993L206.019-708.993z"/>
			</g>
		</g>
		<g opacity="0.7">
			<g>
				<path fill="#74AFD1" d="M210.634-695.742c1.935,0,1.935-3,0-3S208.699-695.742,210.634-695.742L210.634-695.742z"/>
			</g>
		</g>
		<g opacity="0.7">
			<g>
				<path fill="#74AFD1" d="M215.685-692.463c1.935,0,1.935-3,0-3S213.75-692.463,215.685-692.463L215.685-692.463z"/>
			</g>
		</g>
		<g opacity="0.7">
			<g>
				<path fill="#74AFD1" d="M203.392-696.084c1.935,0,1.935-3,0-3S201.457-696.084,203.392-696.084L203.392-696.084z"/>
			</g>
		</g>
		<g opacity="0.7">
			<g>
				<path fill="#74AFD1" d="M206.83-690.384c1.935,0,1.935-3,0-3S204.896-690.384,206.83-690.384L206.83-690.384z"/>
			</g>
		</g>
		<g opacity="0.7">
			<g>
				<path fill="#74AFD1" d="M192.942-698.601c1.935,0,1.935-3,0-3S191.007-698.601,192.942-698.601L192.942-698.601z"/>
			</g>
		</g>
		<g opacity="0.7">
			<g>
				<path fill="#74AFD1" d="M187.585-694.094c1.935,0,1.935-3,0-3S185.65-694.094,187.585-694.094L187.585-694.094z"/>
			</g>
		</g>
		<g opacity="0.7">
			<g>
				<path fill="#74AFD1" d="M197.303-693.369c1.935,0,1.935-3,0-3S195.369-693.369,197.303-693.369L197.303-693.369z"/>
			</g>
		</g>
		<g opacity="0.7">
			<g>
				<path fill="#74AFD1" d="M191.805-692.055c1.935,0,1.935-3,0-3S189.871-692.055,191.805-692.055L191.805-692.055z"/>
			</g>
		</g>
		<g opacity="0.7">
			<g>
				<path fill="#74AFD1" d="M201.284-686.683c1.935,0,1.935-3,0-3S199.35-686.683,201.284-686.683L201.284-686.683z"/>
			</g>
		</g>
	</g>
	<g display="inline">
		<g opacity="0.7">
			<g>
				<path fill="#74AFD1" d="M282.274-672.675c1.935,0,1.935-3,0-3S280.34-672.675,282.274-672.675L282.274-672.675z"/>
			</g>
		</g>
		<g opacity="0.7">
			<g>
				<path fill="#74AFD1" d="M286.864-684.174c1.935,0,1.935-3,0-3S284.93-684.174,286.864-684.174L286.864-684.174z"/>
			</g>
		</g>
		<g opacity="0.7">
			<g>
				<path fill="#74AFD1" d="M292.469-681.194c1.935,0,1.935-3,0-3S290.534-681.194,292.469-681.194L292.469-681.194z"/>
			</g>
		</g>
		<g opacity="0.7">
			<g>
				<path fill="#74AFD1" d="M277.671-681.988c1.935,0,1.935-3,0-3S275.736-681.988,277.671-681.988L277.671-681.988z"/>
			</g>
		</g>
		<g opacity="0.7">
			<g>
				<path fill="#74AFD1" d="M308.84-704.694c1.935,0,1.935-3,0-3S306.905-704.694,308.84-704.694L308.84-704.694z"/>
			</g>
		</g>
		<g opacity="0.7">
			<g>
				<path fill="#74AFD1" d="M304.652-697.078c1.935,0,1.935-3,0-3S302.718-697.078,304.652-697.078L304.652-697.078z"/>
			</g>
		</g>
		<g opacity="0.7">
			<g>
				<path fill="#74AFD1" d="M298.807-693.875c1.935,0,1.935-3,0-3S296.872-693.875,298.807-693.875L298.807-693.875z"/>
			</g>
		</g>
		<g opacity="0.7">
			<g>
				<path fill="#74AFD1" d="M292.728-695.375c1.935,0,1.935-3,0-3S290.793-695.375,292.728-695.375L292.728-695.375z"/>
			</g>
		</g>
		<g opacity="0.7">
			<g>
				<path fill="#74AFD1" d="M296.927-686.324c1.935,0,1.935-3,0-3S294.992-686.324,296.927-686.324L296.927-686.324z"/>
			</g>
		</g>
		<g opacity="0.7">
			<g>
				<path fill="#74AFD1" d="M300.843-700.569c1.935,0,1.935-3,0-3S298.908-700.569,300.843-700.569L300.843-700.569z"/>
			</g>
		</g>
		<g opacity="0.7">
			<g>
				<path fill="#74AFD1" d="M304.949-703.844c1.935,0,1.935-3,0-3S303.015-703.844,304.949-703.844L304.949-703.844z"/>
			</g>
		</g>
		<g opacity="0.7">
			<g>
				<path fill="#74AFD1" d="M286.393-670.267c1.935,0,1.935-3,0-3S284.458-670.267,286.393-670.267L286.393-670.267z"/>
			</g>
		</g>
		<g opacity="0.7">
			<g>
				<path fill="#74AFD1" d="M289.636-677.624c1.935,0,1.935-3,0-3S287.701-677.624,289.636-677.624L289.636-677.624z"/>
			</g>
		</g>
		<g opacity="0.7">
			<g>
				<path fill="#74AFD1" d="M284.535-678.904c1.935,0,1.935-3,0-3S282.601-678.904,284.535-678.904L284.535-678.904z"/>
			</g>
		</g>
		<g opacity="0.7">
			<g>
				<path fill="#74AFD1" d="M291.699-689.427c1.935,0,1.935-3,0-3S289.765-689.427,291.699-689.427L291.699-689.427z"/>
			</g>
		</g>
		<g opacity="0.7">
			<g>
				<path fill="#74AFD1" d="M286.666-689.749c1.935,0,1.935-3,0-3S284.731-689.749,286.666-689.749L286.666-689.749z"/>
			</g>
		</g>
		<g opacity="0.7">
			<g>
				<path fill="#74AFD1" d="M306.158-701.712c1.935,0,1.935-3,0-3S304.224-701.712,306.158-701.712L306.158-701.712z"/>
			</g>
		</g>
		<g opacity="0.7">
			<g>
				<path fill="#74AFD1" d="M310.5-707.123c1.935,0,1.935-3,0-3S308.565-707.123,310.5-707.123L310.5-707.123z"/>
			</g>
		</g>
		<g opacity="0.7">
			<g>
				<path fill="#74AFD1" d="M306.478-705.396c1.935,0,1.935-3,0-3S304.543-705.396,306.478-705.396L306.478-705.396z"/>
			</g>
		</g>
		<g opacity="0.7">
			<g>
				<path fill="#74AFD1" d="M306.422-699.322c1.935,0,1.935-3,0-3S304.487-699.322,306.422-699.322L306.422-699.322z"/>
			</g>
		</g>
		<g opacity="0.7">
			<g>
				<path fill="#74AFD1" d="M303.309-701.127c1.935,0,1.935-3,0-3S301.374-701.127,303.309-701.127L303.309-701.127z"/>
			</g>
		</g>
		<g opacity="0.7">
			<g>
				<path fill="#74AFD1" d="M302.806-698.683c1.935,0,1.935-3,0-3S300.871-698.683,302.806-698.683L302.806-698.683z"/>
			</g>
		</g>
		<g opacity="0.7">
			<g>
				<path fill="#74AFD1" d="M303.361-694.868c1.935,0,1.935-3,0-3S301.427-694.868,303.361-694.868L303.361-694.868z"/>
			</g>
		</g>
		<g opacity="0.7">
			<g>
				<path fill="#74AFD1" d="M298.82-699.176c1.935,0,1.935-3,0-3S296.886-699.176,298.82-699.176L298.82-699.176z"/>
			</g>
		</g>
		<g opacity="0.7">
			<g>
				<path fill="#74AFD1" d="M302.569-696.546c1.935,0,1.935-3,0-3S300.635-696.546,302.569-696.546L302.569-696.546z"/>
			</g>
		</g>
		<g opacity="0.7">
			<g>
				<path fill="#74AFD1" d="M301.42-692.323c1.935,0,1.935-3,0-3S299.485-692.323,301.42-692.323L301.42-692.323z"/>
			</g>
		</g>
		<g opacity="0.7">
			<g>
				<path fill="#74AFD1" d="M299.968-696.558c1.935,0,1.935-3,0-3S298.033-696.558,299.968-696.558L299.968-696.558z"/>
			</g>
		</g>
		<g opacity="0.7">
			<g>
				<path fill="#74AFD1" d="M296.721-696.137c1.935,0,1.935-3,0-3S294.786-696.137,296.721-696.137L296.721-696.137z"/>
			</g>
		</g>
		<g opacity="0.7">
			<g>
				<path fill="#74AFD1" d="M295.759-693.372c1.935,0,1.935-3,0-3S293.824-693.372,295.759-693.372L295.759-693.372z"/>
			</g>
		</g>
		<g opacity="0.7">
			<g>
				<path fill="#74AFD1" d="M297.699-690.425c1.935,0,1.935-3,0-3S295.765-690.425,297.699-690.425L297.699-690.425z"/>
			</g>
		</g>
		<g opacity="0.7">
			<g>
				<path fill="#74AFD1" d="M294.964-688.209c1.935,0,1.935-3,0-3S293.029-688.209,294.964-688.209L294.964-688.209z"/>
			</g>
		</g>
		<g opacity="0.7">
			<g>
				<path fill="#74AFD1" d="M290.313-692.702c1.935,0,1.935-3,0-3S288.379-692.702,290.313-692.702L290.313-692.702z"/>
			</g>
		</g>
		<g opacity="0.7">
			<g>
				<path fill="#74AFD1" d="M293.703-692.458c1.935,0,1.935-3,0-3S291.769-692.458,293.703-692.458L293.703-692.458z"/>
			</g>
		</g>
		<g opacity="0.7">
			<g>
				<path fill="#74AFD1" d="M295.355-683.998c1.935,0,1.935-3,0-3S293.421-683.998,295.355-683.998L295.355-683.998z"/>
			</g>
		</g>
		<g opacity="0.7">
			<g>
				<path fill="#74AFD1" d="M290.79-685.895c1.935,0,1.935-3,0-3S288.855-685.895,290.79-685.895L290.79-685.895z"/>
			</g>
		</g>
		<g opacity="0.7">
			<g>
				<path fill="#74AFD1" d="M284.985-687.607c1.935,0,1.935-3,0-3S283.051-687.607,284.985-687.607L284.985-687.607z"/>
			</g>
		</g>
		<g opacity="0.7">
			<g>
				<path fill="#74AFD1" d="M280.607-685.47c1.935,0,1.935-3,0-3S278.673-685.47,280.607-685.47L280.607-685.47z"/>
			</g>
		</g>
		<g opacity="0.7">
			<g>
				<path fill="#74AFD1" d="M282.944-682.357c1.935,0,1.935-3,0-3S281.01-682.357,282.944-682.357L282.944-682.357z"/>
			</g>
		</g>
		<g opacity="0.7">
			<g>
				<path fill="#74AFD1" d="M271.964-679.565c1.935,0,1.935-3,0-3S270.029-679.565,271.964-679.565L271.964-679.565z"/>
			</g>
		</g>
		<g opacity="0.7">
			<g>
				<path fill="#74AFD1" d="M279.648-675.768c1.935,0,1.935-3,0-3S277.714-675.768,279.648-675.768L279.648-675.768z"/>
			</g>
		</g>
		<g opacity="0.7">
			<g>
				<path fill="#74AFD1" d="M274.831-673.021c1.935,0,1.935-3,0-3S272.896-673.021,274.831-673.021L274.831-673.021z"/>
			</g>
		</g>
		<g opacity="0.7">
			<g>
				<path fill="#74AFD1" d="M280.425-667.439c1.935,0,1.935-3,0-3S278.49-667.439,280.425-667.439L280.425-667.439z"/>
			</g>
		</g>
		<g opacity="0.7">
			<g>
				<path fill="#74AFD1" d="M282.963-665.595c1.935,0,1.935-3,0-3S281.028-665.595,282.963-665.595L282.963-665.595z"/>
			</g>
		</g>
		<g opacity="0.7">
			<g>
				<path fill="#74AFD1" d="M286.687-674.333c1.935,0,1.935-3,0-3S284.752-674.333,286.687-674.333L286.687-674.333z"/>
			</g>
		</g>
		<g opacity="0.7">
			<g>
				<path fill="#74AFD1" d="M280.636-661.673c1.935,0,1.935-3,0-3S278.701-661.673,280.636-661.673L280.636-661.673z"/>
			</g>
		</g>
		<g opacity="0.7">
			<g>
				<path fill="#74AFD1" d="M281.915-655.79c1.935,0,1.935-3,0-3S279.98-655.79,281.915-655.79L281.915-655.79z"/>
			</g>
		</g>
		<g opacity="0.7">
			<g>
				<path fill="#74AFD1" d="M275.733-667.015c1.935,0,1.935-3,0-3S273.799-667.015,275.733-667.015L275.733-667.015z"/>
			</g>
		</g>
		<g opacity="0.7">
			<g>
				<path fill="#74AFD1" d="M274.163-660.545c1.935,0,1.935-3,0-3S272.229-660.545,274.163-660.545L274.163-660.545z"/>
			</g>
		</g>
		<g opacity="0.7">
			<g>
				<path fill="#74AFD1" d="M270.083-676.158c1.935,0,1.935-3,0-3S268.148-676.158,270.083-676.158L270.083-676.158z"/>
			</g>
		</g>
		<g opacity="0.7">
			<g>
				<path fill="#74AFD1" d="M263.105-676.729c1.935,0,1.935-3,0-3S261.171-676.729,263.105-676.729L263.105-676.729z"/>
			</g>
		</g>
		<g opacity="0.7">
			<g>
				<path fill="#74AFD1" d="M269.498-669.372c1.935,0,1.935-3,0-3S267.563-669.372,269.498-669.372L269.498-669.372z"/>
			</g>
		</g>
		<g opacity="0.7">
			<g>
				<path fill="#74AFD1" d="M264.668-672.309c1.935,0,1.935-3,0-3S262.733-672.309,264.668-672.309L264.668-672.309z"/>
			</g>
		</g>
		<g opacity="0.7">
			<g>
				<path fill="#74AFD1" d="M267.618-661.822c1.935,0,1.935-3,0-3S265.684-661.822,267.618-661.822L267.618-661.822z"/>
			</g>
		</g>
	</g>
	<g display="inline">
		<g>
			<path fill="#74AFD1" d="M206.283-729.186c1.935,0,1.935-3,0-3S204.349-729.186,206.283-729.186L206.283-729.186z"/>
		</g>
	</g>
	<g display="inline">
		<g>
			<path fill="#74AFD1" d="M202.59-744.611c1.935,0,1.935-3,0-3S200.655-744.611,202.59-744.611L202.59-744.611z"/>
		</g>
	</g>
	<g display="inline">
		<g>
			<path fill="#74AFD1" d="M194.769-732.01c1.935,0,1.935-3,0-3S192.834-732.01,194.769-732.01L194.769-732.01z"/>
		</g>
	</g>
	<g display="inline">
		<g>
			<path fill="#74AFD1" d="M193.9-725.71c1.935,0,1.935-3,0-3S191.965-725.71,193.9-725.71L193.9-725.71z"/>
		</g>
	</g>
	<g display="inline">
		<g>
			<path fill="#74AFD1" d="M192.162-717.455c1.935,0,1.935-3,0-3S190.227-717.455,192.162-717.455L192.162-717.455z"/>
		</g>
	</g>
	<g display="inline">
		<g>
			<path fill="#74AFD1" d="M190.424-709.633c1.935,0,1.935-3,0-3S188.489-709.633,190.424-709.633L190.424-709.633z"/>
		</g>
	</g>
	<g display="inline">
		<g>
			<path fill="#74AFD1" d="M189.337-702.899c1.935,0,1.935-3,0-3S187.403-702.899,189.337-702.899L189.337-702.899z"/>
		</g>
	</g>
	<g display="inline">
		<g>
			<path fill="#74AFD1" d="M202.372-715.282c1.935,0,1.935-3,0-3S200.438-715.282,202.372-715.282L202.372-715.282z"/>
		</g>
	</g>
	<g display="inline">
		<g>
			<path fill="#74AFD1" d="M207.804-724.624c1.935,0,1.935-3,0-3S205.869-724.624,207.804-724.624L207.804-724.624z"/>
		</g>
	</g>
	<g display="inline">
		<g>
			<path fill="#74AFD1" d="M208.673-719.844c1.935,0,1.935-3,0-3S206.738-719.844,208.673-719.844L208.673-719.844z"/>
		</g>
	</g>
	<g display="inline">
		<g>
			<path fill="#74AFD1" d="M210.193-714.196c1.935,0,1.935-3,0-3S208.259-714.196,210.193-714.196L210.193-714.196z"/>
		</g>
	</g>
	<g display="inline">
		<g>
			<path fill="#74AFD1" d="M211.062-708.982c1.935,0,1.935-3,0-3S209.128-708.982,211.062-708.982L211.062-708.982z"/>
		</g>
	</g>
	<g display="inline">
		<g>
			<path fill="#74AFD1" d="M213.235-702.247c1.935,0,1.935-3,0-3S211.301-702.247,213.235-702.247L213.235-702.247z"/>
		</g>
	</g>
	<g display="inline">
		<g>
			<path fill="#74AFD1" d="M216.928-698.119c1.935,0,1.935-3,0-3S214.993-698.119,216.928-698.119L216.928-698.119z"/>
		</g>
	</g>
	<g display="inline">
		<g>
			<path fill="#74AFD1" d="M222.794-695.295c1.935,0,1.935-3,0-3S220.859-695.295,222.794-695.295L222.794-695.295z"/>
		</g>
	</g>
	<g display="inline">
		<g>
			<path fill="#74AFD1" d="M228.877-693.557c1.935,0,1.935-3,0-3S226.942-693.557,228.877-693.557L228.877-693.557z"/>
		</g>
	</g>
	<g display="inline">
		<g>
			<path fill="#74AFD1" d="M222.794-689.864c1.935,0,1.935-3,0-3S220.859-689.864,222.794-689.864L222.794-689.864z"/>
		</g>
	</g>
	<g display="inline">
		<g>
			<path fill="#74AFD1" d="M240.174-690.081c1.935,0,1.935-3,0-3S238.239-690.081,240.174-690.081L240.174-690.081z"/>
		</g>
	</g>
	<g display="inline">
		<g>
			<path fill="#74AFD1" d="M247.561-686.605c1.935,0,1.935-3,0-3S245.626-686.605,247.561-686.605L247.561-686.605z"/>
		</g>
	</g>
	<g display="inline">
		<g>
			<path fill="#74AFD1" d="M255.815-684.433c1.935,0,1.935-3,0-3S253.881-684.433,255.815-684.433L255.815-684.433z"/>
		</g>
	</g>
	<g display="inline">
		<g>
			<path fill="#74AFD1" d="M263.637-681.174c1.935,0,1.935-3,0-3S261.702-681.174,263.637-681.174L263.637-681.174z"/>
		</g>
	</g>
	<g display="inline">
		<g>
			<path fill="#74AFD1" d="M259.074-679.001c1.935,0,1.935-3,0-3S257.14-679.001,259.074-679.001L259.074-679.001z"/>
		</g>
	</g>
	<g display="inline">
		<g>
			<path fill="#74AFD1" d="M251.905-682.694c1.935,0,1.935-3,0-3S249.971-682.694,251.905-682.694L251.905-682.694z"/>
		</g>
	</g>
	<g display="inline">
		<g>
			<path fill="#74AFD1" d="M234.308-689.429c1.935,0,1.935-3,0-3S232.373-689.429,234.308-689.429L234.308-689.429z"/>
		</g>
	</g>
	<g display="inline">
		<g>
			<path fill="#74AFD1" d="M285.579-662.925c1.935,0,1.935-3,0-3S283.645-662.925,285.579-662.925L285.579-662.925z"/>
		</g>
	</g>
	<g display="inline">
		<g>
			<path fill="#74AFD1" d="M291.228-656.408c1.935,0,1.935-3,0-3S289.293-656.408,291.228-656.408L291.228-656.408z"/>
		</g>
	</g>
	<g display="inline">
		<g>
			<path fill="#74AFD1" d="M295.355-650.107c1.935,0,1.935-3,0-3S293.421-650.107,295.355-650.107L295.355-650.107z"/>
		</g>
	</g>
	<g display="inline">
		<g>
			<path fill="#74AFD1" d="M303.828-635.334c1.935,0,1.935-3,0-3S301.894-635.334,303.828-635.334L303.828-635.334z"/>
		</g>
	</g>
	<g display="inline">
		<g>
			<path fill="#74AFD1" d="M300.786-641.2c1.935,0,1.935-3,0-3S298.852-641.2,300.786-641.2L300.786-641.2z"/>
		</g>
	</g>
	<g display="inline">
		<g>
			<path fill="#74AFD1" d="M298.831-646.197c1.935,0,1.935-3,0-3S296.896-646.197,298.831-646.197L298.831-646.197z"/>
		</g>
	</g>
	<g display="inline">
		<g>
			<path fill="#74AFD1" d="M289.055-652.28c1.935,0,1.935-3,0-3S287.12-652.28,289.055-652.28L289.055-652.28z"/>
		</g>
	</g>
	<g display="inline">
		<g>
			<path fill="#74AFD1" d="M285.579-657.711c1.935,0,1.935-3,0-3S283.645-657.711,285.579-657.711L285.579-657.711z"/>
		</g>
	</g>
	<g display="inline">
		<g>
			<path fill="#74AFD1" d="M113.517-663.795c1.935,0,1.935-3,0-3S111.583-663.795,113.517-663.795L113.517-663.795z"/>
		</g>
	</g>
	<g display="inline">
		<g>
			<path fill="#74AFD1" d="M107.651-656.843c1.935,0,1.935-3,0-3S105.717-656.843,107.651-656.843L107.651-656.843z"/>
		</g>
	</g>
	<g display="inline">
		<g>
			<path fill="#74AFD1" d="M102.437-648.587c1.935,0,1.935-3,0-3S100.502-648.587,102.437-648.587L102.437-648.587z"/>
		</g>
	</g>
	<g display="inline">
		<g>
			<path fill="#74AFD1" d="M104.827-653.367c1.935,0,1.935-3,0-3S102.893-653.367,104.827-653.367L104.827-653.367z"/>
		</g>
	</g>
	<g display="inline">
		<g>
			<path fill="#74AFD1" d="M110.258-660.319c1.935,0,1.935-3,0-3S108.324-660.319,110.258-660.319L110.258-660.319z"/>
		</g>
	</g>
	<g display="inline">
		<g>
			<path fill="#74AFD1" d="M118.079-661.623c1.935,0,1.935-3,0-3S116.145-661.623,118.079-661.623L118.079-661.623z"/>
		</g>
	</g>
	<g display="inline">
		<g>
			<path fill="#74AFD1" d="M111.996-657.712c1.935,0,1.935-3,0-3S110.062-657.712,111.996-657.712L111.996-657.712z"/>
		</g>
	</g>
	<g display="inline">
		<g>
			<path fill="#74AFD1" d="M108.085-652.498c1.935,0,1.935-3,0-3S106.151-652.498,108.085-652.498L108.085-652.498z"/>
		</g>
	</g>
	<g display="inline">
		<g>
			<path fill="#74AFD1" d="M98.744-642.722c1.935,0,1.935-3,0-3S96.81-642.722,98.744-642.722L98.744-642.722z"/>
		</g>
	</g>
	<g display="inline">
		<g>
			<path fill="#74AFD1" d="M125.466-664.447c1.935,0,1.935-3,0-3S123.531-664.447,125.466-664.447L125.466-664.447z"/>
		</g>
	</g>
	<g display="inline">
		<g>
			<path fill="#74AFD1" d="M139.37-678.568c1.935,0,1.935-3,0-3S137.435-678.568,139.37-678.568L139.37-678.568z"/>
		</g>
	</g>
	<g display="inline">
		<g>
			<path fill="#74AFD1" d="M146.322-685.303c1.935,0,1.935-3,0-3S144.387-685.303,146.322-685.303L146.322-685.303z"/>
		</g>
	</g>
	<g display="inline">
		<g>
			<path fill="#74AFD1" d="M155.88-687.692c1.935,0,1.935-3,0-3S153.946-687.692,155.88-687.692L155.88-687.692z"/>
		</g>
	</g>
	<g display="inline">
		<g>
			<path fill="#74AFD1" d="M167.829-687.258c1.935,0,1.935-3,0-3S165.895-687.258,167.829-687.258L167.829-687.258z"/>
		</g>
	</g>
	<g display="inline">
		<g>
			<path fill="#74AFD1" d="M171.74-692.037c1.935,0,1.935-3,0-3S169.805-692.037,171.74-692.037L171.74-692.037z"/>
		</g>
	</g>
	<g display="inline">
		<g>
			<path fill="#74AFD1" d="M179.126-697.251c1.935,0,1.935-3,0-3S177.192-697.251,179.126-697.251L179.126-697.251z"/>
		</g>
	</g>
	<g display="inline">
		<g>
			<path fill="#74AFD1" d="M179.778-691.603c1.935,0,1.935-3,0-3S177.843-691.603,179.778-691.603L179.778-691.603z"/>
		</g>
	</g>
	<g display="inline">
		<g>
			<path fill="#74AFD1" d="M162.833-690.734c1.935,0,1.935-3,0-3S160.898-690.734,162.833-690.734L162.833-690.734z"/>
		</g>
	</g>
	<g display="inline">
		<g>
			<path fill="#74AFD1" d="M159.356-685.085c1.935,0,1.935-3,0-3S157.422-685.085,159.356-685.085L159.356-685.085z"/>
		</g>
	</g>
	<g display="inline">
		<g>
			<path fill="#74AFD1" d="M147.625-680.74c1.935,0,1.935-3,0-3S145.69-680.74,147.625-680.74L147.625-680.74z"/>
		</g>
	</g>
	<g display="inline">
		<g>
			<path fill="#74AFD1" d="M139.804-673.354c1.935,0,1.935-3,0-3S137.87-673.354,139.804-673.354L139.804-673.354z"/>
		</g>
	</g>
	<g display="inline">
		<g>
			<path fill="#74AFD1" d="M152.839-684.216c1.935,0,1.935-3,0-3S150.904-684.216,152.839-684.216L152.839-684.216z"/>
		</g>
	</g>
	<g display="inline">
		<g>
			<path fill="#74AFD1" d="M166.96-694.645c1.935,0,1.935-3,0-3S165.026-694.645,166.96-694.645L166.96-694.645z"/>
		</g>
	</g>
</g>
</svg>
