<?xml version="1.0" encoding="utf-8"?>
<!-- Generator: Adobe Illustrator 15.1.0, SVG Export Plug-In . SVG Version: 6.00 Build 0)  -->
<!DOCTYPE svg PUBLIC "-//W3C//DTD SVG 1.1//EN" "http://www.w3.org/Graphics/SVG/1.1/DTD/svg11.dtd">
<svg version="1.1" xmlns="http://www.w3.org/2000/svg" xmlns:xlink="http://www.w3.org/1999/xlink" x="0px" y="0px" width="400px"
	 height="400px" viewBox="0 0 400 400" enable-background="new 0 0 400 400" xml:space="preserve">
<g id="guide_lines_layer" display="none">
</g>
<g id="body_layer">
	<g>
		<polygon fill="#8BCEAB" points="143.194,379.475 115.353,379.475 115.353,158.996 130.353,0.01 158.194,0.01 143.194,158.001 		
			"/>
		<path fill="#8BCEAB" d="M61.169,264.999"/>
		<path fill="#8BCEAB" d="M279.783,336.578c15.43-1.551,90.443,30.25,49.007,42.944c-31.753,9.727-54.701,10.428-82.739-0.256
			C212.38,366.437,264.354,338.13,279.783,336.578z"/>
		<path fill="#8BCEAB" d="M115.252,334.578c-15.43-1.551-90.443,30.25-49.007,42.944c31.753,9.727,54.701,10.428,82.739-0.256
			C182.655,364.437,130.682,336.13,115.252,334.578z"/>
		<polygon fill="#8BCEAB" points="254.353,379.475 282.194,379.475 282.194,158.996 267.194,0.01 239.353,0.01 254.353,158.001 		
			"/>
	</g>
	<path fill="#F3B673" d="M336.089,366.082c0,0,0.495,5.498-3.813,8.614c0,0,12.369,1.167,10.936,8.794
		C349.125,375.75,343.678,370.441,336.089,366.082z"/>
	<path fill="#F3B673" d="M327.91,375.076c0,0-1.998,3.11-8.063,2.509c0,0,11.164,4.633,9.728,12.26
		C335.49,382.104,335.499,379.435,327.91,375.076z"/>
	<path fill="#F3B673" d="M315.329,380.769l-7.114,0.437c0,0,6.198,4.471,6.7,13.825C318.935,390.06,319.535,385.147,315.329,380.769
		z"/>
	<path fill="#F3B673" d="M57.324,363.782c0,0-0.495,5.498,3.813,8.614c0,0-12.369,1.167-10.936,8.794
		C44.288,373.45,49.735,368.142,57.324,363.782z"/>
	<path fill="#F3B673" d="M65.503,372.776c0,0,1.998,3.11,8.063,2.509c0,0-11.164,4.633-9.728,12.26
		C57.923,379.805,57.914,377.135,65.503,372.776z"/>
	<path fill="#F3B673" d="M78.084,378.469l7.114,0.437c0,0-6.198,4.471-6.7,13.825C74.479,387.76,73.878,382.848,78.084,378.469z"/>
	<path fill="#F3B673" d="M156.909,368.229l-5.26,4.812c0,0,7.631-0.419,13.9,6.542C165.553,373.19,162.933,368.992,156.909,368.229z
		"/>
	<path fill="#F3B673" d="M237.675,368.836l4.963,5.115c0,0-7.592-0.871-14.265,5.704
		C228.751,373.274,231.616,369.239,237.675,368.836z"/>
</g>
</svg>
