<?xml version="1.0" encoding="utf-8"?>
<!-- Generator: Adobe Illustrator 15.1.0, SVG Export Plug-In . SVG Version: 6.00 Build 0)  -->
<!DOCTYPE svg PUBLIC "-//W3C//DTD SVG 1.1//EN" "http://www.w3.org/Graphics/SVG/1.1/DTD/svg11.dtd">
<svg version="1.1" xmlns="http://www.w3.org/2000/svg" xmlns:xlink="http://www.w3.org/1999/xlink" x="0px" y="0px" width="400px"
	 height="400px" viewBox="0 0 400 400" enable-background="new 0 0 400 400" xml:space="preserve">
<g id="guide_lines_layer" display="none">
</g>
<g id="body_layer">
	<g>
		<polygon fill="#E06899" points="155.125,379.473 127.283,379.473 127.283,158.994 142.283,0.008 170.125,0.008 155.125,157.999 		
			"/>
		<path fill="#E06899" d="M73.1,264.997"/>
		<path fill="#E06899" d="M291.714,336.576c15.43-1.551,90.443,30.25,49.007,42.944c-31.753,9.727-54.701,10.428-82.739-0.256
			C224.311,366.435,276.284,338.128,291.714,336.576z"/>
		<path fill="#E06899" d="M127.183,334.576c-15.43-1.551-90.443,30.25-49.007,42.944c31.753,9.727,54.701,10.428,82.739-0.256
			C194.586,364.435,142.612,336.128,127.183,334.576z"/>
		<polygon fill="#E06899" points="266.283,379.473 294.125,379.473 294.125,158.994 279.125,0.008 251.283,0.008 266.283,157.999 		
			"/>
	</g>
	<path fill="#F3B673" d="M347.71,366.414c0,0,0.495,5.498-3.813,8.614c0,0,12.369,1.167,10.936,8.794
		C360.746,376.082,355.299,370.773,347.71,366.414z"/>
	<path fill="#F3B673" d="M339.531,375.408c0,0-1.998,3.11-8.063,2.509c0,0,11.164,4.633,9.728,12.26
		C347.111,382.437,347.12,379.767,339.531,375.408z"/>
	<path fill="#F3B673" d="M326.95,381.101l-7.114,0.437c0,0,6.198,4.471,6.7,13.825C330.556,390.392,331.156,385.479,326.95,381.101z
		"/>
	<path fill="#F3B673" d="M68.945,364.114c0,0-0.495,5.498,3.813,8.614c0,0-12.369,1.167-10.936,8.794
		C55.909,373.782,61.356,368.474,68.945,364.114z"/>
	<path fill="#F3B673" d="M77.124,373.108c0,0,1.998,3.11,8.063,2.509c0,0-11.164,4.633-9.728,12.26
		C69.544,380.137,69.535,377.467,77.124,373.108z"/>
	<path fill="#F3B673" d="M89.705,378.801l7.114,0.437c0,0-6.198,4.471-6.7,13.825C86.1,388.092,85.499,383.18,89.705,378.801z"/>
	<path fill="#F3B673" d="M168.53,368.562l-5.26,4.812c0,0,7.631-0.419,13.9,6.542C177.174,373.522,174.554,369.324,168.53,368.562z"
		/>
	<path fill="#F3B673" d="M249.296,369.168l4.963,5.115c0,0-7.592-0.871-14.265,5.704
		C240.372,373.606,243.237,369.571,249.296,369.168z"/>
</g>
</svg>
