<?xml version="1.0" encoding="utf-8"?>
<!-- Generator: Adobe Illustrator 15.1.0, SVG Export Plug-In . SVG Version: 6.00 Build 0)  -->
<!DOCTYPE svg PUBLIC "-//W3C//DTD SVG 1.1//EN" "http://www.w3.org/Graphics/SVG/1.1/DTD/svg11.dtd">
<svg version="1.1" xmlns="http://www.w3.org/2000/svg" xmlns:xlink="http://www.w3.org/1999/xlink" x="0px" y="0px" width="400px"
	 height="400px" viewBox="0 0 400 400" enable-background="new 0 0 400 400" xml:space="preserve">
<g id="guide_lines_layer" display="none">
</g>
<g id="body_layer">
	<polygon fill="#6FC5D8" points="139.23,379.465 111.388,379.465 111.388,158.986 126.388,0 154.23,0 139.23,157.991 	"/>
	<path fill="#6FC5D8" d="M57.205,264.989"/>
	<path fill="#6FC5D8" d="M275.819,336.568c15.43-1.551,90.443,30.25,49.007,42.944c-31.753,9.727-54.701,10.428-82.739-0.256
		C208.415,366.427,260.389,338.12,275.819,336.568z"/>
	<path fill="#6FC5D8" d="M111.288,334.568c-15.43-1.551-90.443,30.25-49.007,42.944c31.753,9.727,54.701,10.428,82.739-0.256
		C178.691,364.427,126.717,336.12,111.288,334.568z"/>
	<polygon fill="#6FC5D8" points="250.388,379.465 278.23,379.465 278.23,158.986 263.23,0 235.388,0 250.388,157.991 	"/>
	<path fill="#F3B673" d="M332.47,366.082c0,0,0.495,5.498-3.813,8.614c0,0,12.369,1.167,10.936,8.794
		C345.506,375.75,340.059,370.441,332.47,366.082z"/>
	<path fill="#F3B673" d="M324.292,375.076c0,0-1.998,3.11-8.063,2.509c0,0,11.164,4.633,9.728,12.26
		C331.872,382.104,331.88,379.435,324.292,375.076z"/>
	<path fill="#F3B673" d="M311.71,380.769l-7.114,0.437c0,0,6.198,4.471,6.7,13.825C315.316,390.06,315.917,385.147,311.71,380.769z"
		/>
	<path fill="#F3B673" d="M53.706,363.782c0,0-0.495,5.498,3.813,8.614c0,0-12.369,1.167-10.936,8.794
		C40.669,373.45,46.117,368.142,53.706,363.782z"/>
	<path fill="#F3B673" d="M61.884,372.776c0,0,1.998,3.11,8.063,2.509c0,0-11.164,4.633-9.728,12.26
		C54.304,379.805,54.295,377.135,61.884,372.776z"/>
	<path fill="#F3B673" d="M74.465,378.469l7.114,0.437c0,0-6.198,4.471-6.7,13.825C70.86,387.76,70.259,382.848,74.465,378.469z"/>
	<path fill="#F3B673" d="M153.29,368.229l-5.259,4.812c0,0,7.631-0.419,13.9,6.542C161.934,373.19,159.314,368.992,153.29,368.229z"
		/>
	<path fill="#F3B673" d="M234.056,368.836l4.963,5.115c0,0-7.592-0.871-14.265,5.704
		C225.132,373.274,227.998,369.239,234.056,368.836z"/>
</g>
</svg>
