<?xml version="1.0" encoding="utf-8"?>
<!-- Generator: Adobe Illustrator 15.1.0, SVG Export Plug-In . SVG Version: 6.00 Build 0)  -->
<!DOCTYPE svg PUBLIC "-//W3C//DTD SVG 1.1//EN" "http://www.w3.org/Graphics/SVG/1.1/DTD/svg11.dtd">
<svg version="1.1" xmlns="http://www.w3.org/2000/svg" xmlns:xlink="http://www.w3.org/1999/xlink" x="0px" y="0px" width="400px"
	 height="400px" viewBox="0 0 400 400" enable-background="new 0 0 400 400" xml:space="preserve">
<g id="guide_lines_layer" display="none">
</g>
<g id="body_layer">
	<path fill="#D65490" d="M57.367,1C52.034,45.666,87.68,253.669,36.181,281.971c-63.512,34.903-15.495,55.538,17.538,51.503
		c33.033-4.036,24.017-24.738,58.767-30.582c34.749-5.844-12.469,30.379,8.527,37.217c20.997,6.837,55.215-8.783,70.282-27.666
		c4.58-5.739,17.058-19.576,24.721,3.65c14.081,42.682,78.588,40.891,70.98,21.663c-19.427-49.102,5.338-43.935,14.373-20.872
		c9.034,23.061,44.478,26.613,71.58,16.986c37.151-13.194,24.523-31.869-16.669-47.101C318.076,272.642,312.7,96.333,322.034,1
		H57.367z"/>
	<path fill="#E06899" d="M58.617,0.999C53.649,42.605,86.69,242.293,42.825,277.97c-52.369,42.595-14.393,44.699,16.377,40.94
		c30.77-3.76,28.25-22.206,60.619-27.649c32.368-5.443-4.729,31.223,14.828,37.593c19.559,6.368,44.547-11.106,58.582-28.696
		c4.266-5.346,15.889-18.234,23.027,3.4c13.115,39.758,69.354,39.111,62.267,21.201c-18.095-45.738,14.979-43.122,23.395-21.64
		c8.415,21.48,32.656,31.192,57.902,22.225c34.605-12.29,7.646-32.195-10.528-43.279C322.785,265.897,313.34,89.802,322.034,1
		L58.617,0.999z"/>
</g>
</svg>
