<?xml version="1.0" encoding="utf-8"?>
<!-- Generator: Adobe Illustrator 15.1.0, SVG Export Plug-In . SVG Version: 6.00 Build 0)  -->
<!DOCTYPE svg PUBLIC "-//W3C//DTD SVG 1.1//EN" "http://www.w3.org/Graphics/SVG/1.1/DTD/svg11.dtd">
<svg version="1.1" id="body_layer" xmlns="http://www.w3.org/2000/svg" xmlns:xlink="http://www.w3.org/1999/xlink" x="0px" y="0px"
	 width="400px" height="400px" viewBox="0 0 400 400" enable-background="new 0 0 400 400" xml:space="preserve">
<path fill="#E06899" d="M102.018,0c0,0,94.294,184.533-32.698,227.606c-49.021,16.627-65.684-57.373-37.828-89.118
	c9.401-10.714,84.808-55.588,12.823-42.957c-74.166,13.014-46.163,236.585,62.832,152.594s20.383-224.666,26.287-228.249
	c8.199-4.976,133.535,241.024-29.798,331.69c-16.545,9.184-76,17.334-52.003-19.333c30.686-46.887-2.825-66.729-26.667-20.666
	c-29.33,56.666,30.004,82.665,68.67,65.999c35.645-15.363,156.663-55.999,92.372-326.916
	c60.884,33.719,28.231,204.692,43.599,290.439c16.692,93.144,83.533,24.525,72.026-3.522c-10.667-26-29.334-28.667-24.667,17.333
	c2.465,24.29-28,48-23.333-83.333c3.225-90.729-19.018-199.025-2.868-209.378c8.023-5.144,57.062,294.288,96.172,312.24
	s75.015-53.215,32.058-70.526s-30.135,17.311-16.029,28.852s-3.206,50.65-17.952,14.746s-88.479-279.54-69.244-317.368
	s41.943,182.358,95.864,158.768c10.667-4.667,23.119-45.35,25.333-63.333c3.938-31.999-28.667-39.334-19.254,3.943
	c7.598,34.933-28.211,93.607-40.393-36.546c-7.226-77.198-17.312-91.043-17.312-91.043L102.018,0z"/>
</svg>
