<?xml version="1.0" encoding="utf-8"?>
<!-- Generator: Adobe Illustrator 15.1.0, SVG Export Plug-In . SVG Version: 6.00 Build 0)  -->
<!DOCTYPE svg PUBLIC "-//W3C//DTD SVG 1.1//EN" "http://www.w3.org/Graphics/SVG/1.1/DTD/svg11.dtd">
<svg version="1.1" id="body_layer" xmlns="http://www.w3.org/2000/svg" xmlns:xlink="http://www.w3.org/1999/xlink" x="0px" y="0px"
	 width="400px" height="400px" viewBox="0 0 400 400" enable-background="new 0 0 400 400" xml:space="preserve">
<polygon fill="#8BCEAB" points="92.927,357.276 75.712,359.07 52.877,139.777 64.002,-1.791 82.669,-1.791 69.988,136.994 "/>
<path fill="#6FC5D8" d="M16.126,262.189"/>
<path fill="#8BCEAB" d="M81.295,339.084c-15.43-1.324-97.679,34.738-56.242,45.579c19.846,5.191,49.925,7.812,58.082-3.9
	c23.008-49.362,21.378-1.804,31.893-5.225C148.698,364.581,96.725,340.409,81.295,339.084z"/>
<path fill="#F3B673" d="M16.921,372.308c0,0-0.495,5.498,3.813,8.614c0,0-12.369,1.167-10.936,8.794
	C3.885,381.976,9.332,376.667,16.921,372.308z"/>
<path fill="#F3B673" d="M28.029,381.719c0,0,1.998,3.11,8.063,2.509c0,0-11.164,4.633-9.728,12.26
	C20.449,388.747,20.44,386.077,28.029,381.719z"/>
<path fill="#F3B673" d="M43.747,385.738l7.114,0.437c0,0-6.198,4.471-6.7,13.825C40.142,395.029,39.541,390.117,43.747,385.738z"/>
<path fill="#F3B673" d="M121.414,366.475l-5.26,4.812c0,0,7.631-0.419,13.9,6.542C130.058,371.436,127.438,367.237,121.414,366.475z
	"/>
<path fill="#F3B673" d="M61.458,385.163l7.114,0.437c0,0-6.198,4.471-6.7,13.825C57.853,394.454,57.252,389.542,61.458,385.163z"/>
<polygon fill="#8BCEAB" points="224.593,357.276 207.378,359.07 184.543,139.777 195.668,-1.791 214.335,-1.791 201.654,136.994 "/>
<path fill="#6FC5D8" d="M147.792,262.189"/>
<path fill="#8BCEAB" d="M212.961,339.084c-15.43-1.324-97.679,34.738-56.242,45.579c19.846,5.191,49.925,7.812,58.082-3.9
	c23.008-49.362,21.378-1.804,31.893-5.225C280.364,364.581,228.391,340.409,212.961,339.084z"/>
<path fill="#F3B673" d="M148.587,372.308c0,0-0.495,5.498,3.813,8.614c0,0-12.369,1.167-10.936,8.794
	C135.551,381.976,140.998,376.667,148.587,372.308z"/>
<path fill="#F3B673" d="M159.695,381.719c0,0,1.998,3.11,8.063,2.509c0,0-11.164,4.633-9.728,12.26
	C152.115,388.747,152.106,386.077,159.695,381.719z"/>
<path fill="#F3B673" d="M175.413,385.738l7.114,0.437c0,0-6.198,4.471-6.7,13.825C171.808,395.029,171.207,390.117,175.413,385.738z
	"/>
<path fill="#F3B673" d="M253.08,366.475l-5.26,4.812c0,0,7.631-0.419,13.9,6.542C261.724,371.436,259.104,367.237,253.08,366.475z"
	/>
<path fill="#F3B673" d="M193.124,385.163l7.114,0.437c0,0-6.198,4.471-6.7,13.825C189.519,394.454,188.918,389.542,193.124,385.163z
	"/>
<polygon fill="#8BCEAB" points="353.927,357.276 336.712,359.07 313.877,139.777 325.002,-1.791 343.669,-1.791 330.988,136.994 "/>
<path fill="#6FC5D8" d="M277.126,262.189"/>
<path fill="#8BCEAB" d="M342.295,339.084c-15.43-1.324-97.679,34.738-56.242,45.579c19.846,5.191,49.925,7.812,58.082-3.9
	c23.008-49.362,21.378-1.804,31.893-5.225C409.698,364.581,357.725,340.409,342.295,339.084z"/>
<path fill="#F3B673" d="M277.921,372.308c0,0-0.495,5.498,3.813,8.614c0,0-12.369,1.167-10.936,8.794
	C264.885,381.976,270.332,376.667,277.921,372.308z"/>
<path fill="#F3B673" d="M289.029,381.719c0,0,1.998,3.11,8.063,2.509c0,0-11.164,4.633-9.728,12.26
	C281.449,388.747,281.44,386.077,289.029,381.719z"/>
<path fill="#F3B673" d="M304.747,385.738l7.114,0.437c0,0-6.198,4.471-6.7,13.825C301.142,395.029,300.541,390.117,304.747,385.738z
	"/>
<path fill="#F3B673" d="M382.414,366.475l-5.26,4.812c0,0,7.631-0.419,13.9,6.542C391.058,371.436,388.438,367.237,382.414,366.475z
	"/>
<path fill="#F3B673" d="M322.458,385.163l7.114,0.437c0,0-6.198,4.471-6.7,13.825C318.853,394.454,318.252,389.542,322.458,385.163z
	"/>
</svg>
