<?xml version="1.0" encoding="utf-8"?>
<!-- Generator: Adobe Illustrator 15.1.0, SVG Export Plug-In . SVG Version: 6.00 Build 0)  -->
<!DOCTYPE svg PUBLIC "-//W3C//DTD SVG 1.1//EN" "http://www.w3.org/Graphics/SVG/1.1/DTD/svg11.dtd">
<svg version="1.1" xmlns="http://www.w3.org/2000/svg" xmlns:xlink="http://www.w3.org/1999/xlink" x="0px" y="0px" width="400px"
	 height="400px" viewBox="0 0 400 400" enable-background="new 0 0 400 400" xml:space="preserve">
<g id="guide_lines_layer" display="none">
</g>
<g id="body_layer">
	<polygon fill="#6FC5D8" points="96.927,359.067 79.712,360.861 56.877,141.568 68.002,0 86.669,0 73.988,138.785 	"/>
	<path fill="#6FC5D8" d="M20.126,263.98"/>
	<path fill="#6FC5D8" d="M85.295,340.875c-15.43-1.324-97.679,34.738-56.242,45.579c19.846,5.191,49.925,7.812,58.082-3.9
		c23.008-49.362,21.378-1.804,31.893-5.225C152.698,366.372,100.725,342.2,85.295,340.875z"/>
	<path fill="#F3B673" d="M20.921,374.099c0,0-0.495,5.498,3.813,8.614c0,0-12.369,1.167-10.936,8.794
		C7.885,383.767,13.332,378.458,20.921,374.099z"/>
	<path fill="#F3B673" d="M32.029,383.51c0,0,1.998,3.11,8.063,2.509c0,0-11.164,4.633-9.728,12.26
		C24.449,390.538,24.44,387.868,32.029,383.51z"/>
	<path fill="#F3B673" d="M47.747,387.529l7.114,0.437c0,0-6.198,4.471-6.7,13.825C44.142,396.82,43.541,391.908,47.747,387.529z"/>
	<path fill="#F3B673" d="M125.414,368.266l-5.26,4.812c0,0,7.631-0.419,13.9,6.542C134.058,373.227,131.438,369.028,125.414,368.266
		z"/>
	<path fill="#F3B673" d="M65.458,386.954l7.114,0.437c0,0-6.198,4.471-6.7,13.825C61.853,396.245,61.252,391.333,65.458,386.954z"/>
	<polygon fill="#6FC5D8" points="228.593,359.067 211.378,360.861 188.543,141.568 199.668,0 218.335,0 205.654,138.785 	"/>
	<path fill="#6FC5D8" d="M151.792,263.98"/>
	<path fill="#6FC5D8" d="M216.961,340.875c-15.43-1.324-97.679,34.738-56.242,45.579c19.846,5.191,49.925,7.812,58.082-3.9
		c23.008-49.362,21.378-1.804,31.893-5.225C284.364,366.372,232.391,342.2,216.961,340.875z"/>
	<path fill="#F3B673" d="M152.587,374.099c0,0-0.495,5.498,3.813,8.614c0,0-12.369,1.167-10.936,8.794
		C139.551,383.767,144.998,378.458,152.587,374.099z"/>
	<path fill="#F3B673" d="M163.695,383.51c0,0,1.998,3.11,8.063,2.509c0,0-11.164,4.633-9.728,12.26
		C156.115,390.538,156.106,387.868,163.695,383.51z"/>
	<path fill="#F3B673" d="M179.413,387.529l7.114,0.437c0,0-6.198,4.471-6.7,13.825C175.808,396.82,175.207,391.908,179.413,387.529z
		"/>
	<path fill="#F3B673" d="M257.08,368.266l-5.26,4.812c0,0,7.631-0.419,13.9,6.542C265.724,373.227,263.104,369.028,257.08,368.266z"
		/>
	<path fill="#F3B673" d="M197.124,386.954l7.114,0.437c0,0-6.198,4.471-6.7,13.825C193.519,396.245,192.918,391.333,197.124,386.954
		z"/>
	<polygon fill="#6FC5D8" points="357.927,359.067 340.712,360.861 317.877,141.568 329.002,0 347.669,0 334.988,138.785 	"/>
	<path fill="#6FC5D8" d="M281.126,263.98"/>
	<path fill="#6FC5D8" d="M346.295,340.875c-15.43-1.324-97.679,34.738-56.242,45.579c19.846,5.191,49.925,7.812,58.082-3.9
		c23.008-49.362,21.378-1.804,31.893-5.225C413.698,366.372,361.725,342.2,346.295,340.875z"/>
	<path fill="#F3B673" d="M281.921,374.099c0,0-0.495,5.498,3.813,8.614c0,0-12.369,1.167-10.936,8.794
		C268.885,383.767,274.332,378.458,281.921,374.099z"/>
	<path fill="#F3B673" d="M293.029,383.51c0,0,1.998,3.11,8.063,2.509c0,0-11.164,4.633-9.728,12.26
		C285.449,390.538,285.44,387.868,293.029,383.51z"/>
	<path fill="#F3B673" d="M308.747,387.529l7.114,0.437c0,0-6.198,4.471-6.7,13.825C305.142,396.82,304.541,391.908,308.747,387.529z
		"/>
	<path fill="#F3B673" d="M386.414,368.266l-5.26,4.812c0,0,7.631-0.419,13.9,6.542C395.058,373.227,392.438,369.028,386.414,368.266
		z"/>
	<path fill="#F3B673" d="M326.458,386.954l7.114,0.437c0,0-6.198,4.471-6.7,13.825C322.853,396.245,322.252,391.333,326.458,386.954
		z"/>
</g>
</svg>
